<svg width="140" height="140" viewBox="0 0 140 140" fill="none" xmlns="http://www.w3.org/2000/svg">
<path fill-rule="evenodd" clip-rule="evenodd" d="M64.6072 119.691C64.6072 112.888 75.3891 112.888 75.3891 119.691C75.3891 127.074 64.6072 127.078 64.6072 119.691ZM69.0778 10H70.9836C72.2567 10.1135 73.4962 10.4541 74.613 11.0106C82.8785 15.1332 81.3132 27.0112 73.7103 29.6504C71.81 30.3093 72.3423 29.4327 72.3423 36.9537C75.6701 36.9537 81.0917 38.545 83.4406 39.6841C89.0371 42.3977 87.7213 42.232 91.7414 44.8675L96.4838 40.0005C94.1833 35.6527 94.6207 30.8881 98.1756 27.3965C104.541 21.1429 115.468 25.835 115.468 34.6105C115.468 42.2116 107.599 47.6779 99.9437 43.4623L95.0767 48.2046C96.0073 49.5949 97.1166 50.7953 98.0267 52.2862C100.498 56.3342 103.046 62.5711 103.046 67.6577C115.259 67.6577 106.597 67.855 113.424 62.0983C118.481 57.8344 126.425 59.837 129.066 65.5453C129.548 66.5857 129.851 67.613 130 68.6088V71.5383C128.746 79.7201 117.126 84.4047 111.115 75.2942C108.782 71.7579 112.799 72.346 103.046 72.346C103.046 75.9791 101.453 80.7642 100.303 83.4313C98.3487 87.9632 97.2487 88.5179 95.1325 91.7452L99.9995 96.4875C104.347 94.1871 109.103 94.6151 112.603 98.1793C118.894 104.582 114.079 115.472 105.39 115.472C97.8312 115.472 92.3054 107.653 96.5377 99.9474L91.7954 95.0804C90.4051 96.011 89.2047 97.1203 87.7138 98.0304C83.6658 100.502 77.4289 103.05 72.3423 103.05C72.3423 110.945 71.8416 109.659 73.8834 110.415C75.4896 111.01 76.8092 112.133 77.9017 113.428C83.4499 120.007 78.5549 128.913 71.4415 130.004H68.5194C67.4883 129.846 66.4349 129.518 65.3833 128.993C63.2802 127.943 61.6814 126.17 60.695 124.072C59.0441 120.568 59.7532 116.05 62.2063 113.303C68.1155 106.677 67.6558 115.032 67.6558 103.05C62.5878 103.05 56.1649 100.478 52.1391 97.9429C50.7302 97.0551 49.5484 95.9831 48.2585 95.1363L43.5162 100.003C47.7318 107.971 41.8021 115.472 34.845 115.472C25.5242 115.472 21.2788 104.405 27.3965 98.1793C30.8825 94.6319 35.7197 94.1536 40.0563 96.5415L44.9233 91.7992C43.9927 90.4088 42.8834 89.2084 41.9733 87.7176C39.457 83.595 36.9537 77.5201 36.9537 72.346C29.0157 72.346 30.3502 71.8528 29.5908 73.889C28.2899 77.3824 23.8621 80.6209 19.5442 80.1593C16.8454 79.8708 14.72 79.0705 12.8644 77.2149C11.126 75.4765 10.1508 73.0905 10 70.6393V69.29C10.2829 64.7729 13.3985 60.4028 19.7415 59.8165C22.4029 59.5708 25.1966 60.8644 26.7004 62.2063C27.6403 63.0438 28.1782 63.6096 28.8557 64.7375C31.0612 68.4078 27.7539 67.6558 36.9537 67.6558C36.9537 64.328 38.545 58.9064 39.6841 56.5576C42.3977 50.961 42.232 52.2769 44.8675 48.2567L40.0005 43.5144C35.6527 45.8148 30.8881 45.3774 27.3965 41.8226C21.1578 35.4722 25.8033 24.5303 34.6105 24.5303C42.2116 24.5303 47.6779 32.3994 43.4623 40.0544L48.2046 44.9214C52.0647 42.3363 51.5193 42.031 56.7195 39.6078C59.1093 38.4929 64.3206 36.9537 67.6596 36.9537V30.6257C67.6596 29.8012 66.9076 29.8849 66.1166 29.5909C62.6232 28.2899 59.3847 23.8621 59.8463 19.5442C60.4996 13.4302 64.7338 10.3834 69.0852 10L69.0778 10ZM110.545 104.69V105.862C110.545 108.213 108.209 110.551 105.857 110.551C103.294 110.551 101.217 109.877 100.249 107.251C99.4337 105.038 100.067 102.84 101.449 101.457C104.839 98.0676 110.543 100.683 110.543 104.692L110.545 104.69ZM35.3084 110.549H34.1359C31.7852 110.549 29.4475 108.213 29.4475 105.86C29.4475 103.296 30.1176 101.224 32.7474 100.253C37.0263 98.6707 41.2605 102.514 39.8032 107.072C39.2746 108.727 37.4227 110.547 35.3066 110.547L35.3084 110.549ZM41.6364 70.0009C41.6364 54.4358 54.434 41.6402 69.9972 41.6402C85.5846 41.6402 98.358 54.4135 98.358 70.0009C98.358 85.5884 85.5846 98.3617 69.9972 98.3617C54.4396 98.3617 41.6364 85.5605 41.6364 70.0009ZM119.685 75.3909C112.883 75.3909 112.883 64.6091 119.685 64.6091C127.069 64.6091 127.072 75.3909 119.685 75.3909ZM14.6827 70.0009C14.6827 68.7037 15.5575 66.8965 16.2629 66.1911C19.1254 63.336 25.4627 64.2033 25.4627 70.47C25.4627 74.3189 20.0969 77.2819 16.3839 73.9243C15.6078 73.2226 14.6827 71.3633 14.6827 70.0009ZM104.686 29.4531H105.859C108.209 29.4531 110.547 31.7889 110.547 34.1415C110.547 36.7062 109.877 38.7758 107.247 39.7492C103.069 41.294 98.7004 37.6088 100.191 32.928C100.718 31.2752 102.572 29.4531 104.688 29.4531H104.686ZM29.4494 35.3121V34.1396C29.4494 31.7889 31.7852 29.4513 34.1377 29.4513C36.7024 29.4513 38.7721 30.1213 39.7455 32.7511C40.5421 34.9045 39.9148 37.1733 38.545 38.545C37.1659 39.9242 35.0292 40.4807 32.9261 39.8069C31.2715 39.2783 29.4513 37.4264 29.4513 35.3103L29.4494 35.3121ZM64.6072 20.311C64.6072 12.9276 75.3891 12.9239 75.3891 20.311C75.3891 27.1136 64.6072 27.1136 64.6072 20.311Z" fill="url(#paint0_linear_298_349)"/>
<path fill-rule="evenodd" clip-rule="evenodd" d="M71.1697 85.7056C68.5026 85.7056 59.5857 85.4097 59.1353 82.6309C58.5453 78.9923 62.4519 71.7691 69.9972 71.7691C76.3327 71.7691 80.82 76.9022 80.8665 82.3071C80.8888 84.9388 73.405 85.7056 71.1697 85.7056V85.7056ZM54.2943 82.1898C54.2943 88.8901 63.0922 90.6285 69.9972 90.6285C76.9022 90.6285 85.7 88.892 85.7 82.1898C85.7 74.0416 78.8155 66.9542 69.5281 66.9542C61.458 66.9542 54.2925 74.1309 54.2925 82.1898H54.2943Z" fill="url(#paint1_linear_298_349)"/>
<path fill-rule="evenodd" clip-rule="evenodd" d="M66.2487 57.3449C66.2487 51.9995 73.7493 51.9995 73.7493 57.3449C73.7493 60.0417 69.9413 62.0537 67.4752 59.8686C67.0081 59.4536 66.2487 58.147 66.2487 57.3449V57.3449ZM69.061 65.549C71.8769 65.549 74.1904 65.2661 76.3885 62.7981C83.5577 54.7559 71.8583 43.2706 64.1921 50.8363C60.6949 54.2869 60.5442 59.1539 63.4979 62.6734C64.4657 63.8255 67.0639 65.549 69.0591 65.549H69.061Z" fill="url(#paint2_linear_298_349)"/>
<defs>
<linearGradient id="paint0_linear_298_349" x1="58" y1="59.5" x2="119" y2="143" gradientUnits="userSpaceOnUse">
<stop offset="0" stop-color="#FF8C01"/>
<stop offset="1" stop-color="#FECC00"/>
</linearGradient>
<linearGradient id="paint1_linear_298_349" x1="66.8555" y1="76.7195" x2="77.5304" y2="96.1056" gradientUnits="userSpaceOnUse">
<stop offset="0" stop-color="#FF8C01"/>
<stop offset="1" stop-color="#FECC00"/>
</linearGradient>
<linearGradient id="paint2_linear_298_349" x1="68.2991" y1="55.4536" x2="77.0296" y2="67.4225" gradientUnits="userSpaceOnUse">
<stop offset="0" stop-color="#FF8C01"/>
<stop offset="1" stop-color="#FECC00"/>
</linearGradient>
</defs>
</svg>
