<svg width="140" height="140" viewBox="0 0 140 140" fill="none" xmlns="http://www.w3.org/2000/svg">
<path fill-rule="evenodd" clip-rule="evenodd" d="M54.5116 69.2558C50.5437 69.2558 50.7167 68.8491 47.9099 66.9699L56.467 57.7535C56.9654 57.1651 57.3928 56.6512 57.8479 56.0871L61.9335 51.2868C64.6815 48.525 67.8516 44.1193 72.7921 44.1193C76.6493 44.1193 82.1971 47.9488 84.9796 49.4508C91.6384 53.0467 95.9074 57.4472 104.785 52.7508L106.558 60.8787C107.1 63.0936 112.115 84.3107 112.148 85.7573L106.055 88.2959C104.977 87.5743 92.5348 74.9022 91.2646 73.6338C88.752 71.1212 82.6989 64.5282 79.8229 62.9864C68.7203 57.0319 62.5409 69.254 54.5116 69.254V69.2558ZM134.998 83.9594V84.8142C134.922 86.4859 134.374 88.064 132.944 89.547L132.56 89.9243C131.529 90.8881 131.06 91.1408 129.644 91.5786C128.128 92.0458 126.384 92.3573 124.697 92.7241C121.698 93.3782 117.168 95.0481 114.179 90.5853C112.463 91.409 110.557 92.0493 108.848 92.8712C108.848 94.1621 109.102 94.0289 109.102 95.1571C109.102 97.2769 107.913 99.8605 106.415 101.356L104.098 103.102C103.203 103.531 101.898 104.017 100.723 104.043V105.313C100.723 111.103 94.0541 115.755 87.9889 112.969C87.1167 112.569 86.8347 112.138 85.9954 111.915C85.3153 114.834 81.5949 117.755 77.8709 117.755C72.2176 117.755 71.4735 114.429 68.4763 112.424C68.2618 114.998 64.2938 118.264 60.6063 118.264C55.3076 118.264 53.4076 115.255 50.2599 112.107L30.7093 92.8107C29.6329 91.7343 27.9613 89.8187 26.8365 89.066C25.4643 91.6599 23.2078 93.6361 19.9805 93.6361C18.7173 93.6361 11.5532 91.9731 10.1637 91.5197C7.07481 90.5109 5 88.0485 5 84.2415C5 82.8398 5.25957 81.9192 5.5572 80.7356L13.8339 44.5796C14.4638 41.9147 14.5694 40.6151 16.0524 38.6735C16.992 37.4432 19.2399 36 21.2506 36C23.2684 36 29.2903 37.3238 31.2509 37.9329C34.2048 38.8483 36.0304 40.8314 36.7382 43.8718C43.3398 43.8718 49.9415 43.8718 56.5432 43.8718C61.2188 43.8718 61.3832 44.5121 63.0791 42.792C63.5221 42.3421 63.8266 42.1396 64.3596 41.7866C68.2531 39.2117 69.6029 39.0473 74.0622 39.0473C77.5076 39.0473 83.064 42.2365 85.9158 43.9514C87.7587 45.0606 89.3507 45.9207 91.2196 47.0264C92.6126 47.8501 94.9834 49.4577 96.9128 49.4577C101.303 49.4577 100.834 48.3052 103.514 47.6805C103.303 45.1333 102.58 43.3025 104.991 40.269C106.856 37.9208 110.525 37.5159 113.311 36.9085C117.266 36.0467 121.137 34.9029 124.055 38.8189C125.379 40.5961 125.635 42.2331 126.215 44.7855L133.733 77.6363C134.28 79.8721 134.915 81.9815 135 83.9629L134.998 83.9594ZM41.5627 66.7172C41.5627 69.9012 48.6627 74.5873 53.7502 74.5873C62.8974 74.5873 68.2618 66.7172 73.3008 66.7172C78.1271 66.7172 79.8108 69.5465 82.7577 72.4934L100.912 90.6476C102.381 92.1167 103.769 92.783 103.769 95.4081C103.769 96.8391 102.156 98.708 100.722 98.708C97.2001 98.708 96.8021 97.2008 93.6751 94.0739L80.5999 80.9986C79.7018 80.0988 79.0442 78.9048 77.3622 78.9048C76.2478 78.9048 74.8236 80.3289 74.8236 81.4433C74.8236 83.288 79.3522 87.1157 80.7262 88.4897C82.9464 90.7099 84.9814 92.7432 87.2015 94.9633C89.42 97.1818 91.4411 99.2358 93.6769 101.437C94.8986 102.641 95.8503 103.749 95.3952 105.806C95.0508 107.364 93.49 108.611 91.5796 108.611C89.4528 108.611 86.6028 105.031 85.2946 103.725L71.2035 89.6335C70.2725 88.7026 69.4194 87.2853 67.7132 87.2853C66.5798 87.2853 65.4307 88.4551 65.2698 89.6612C65.076 91.1044 66.2337 92.0371 67.0141 92.8089L79.7104 105.502C82.9083 108.646 81.4564 112.422 77.1061 112.422C75.1749 112.422 68.8916 105.349 67.2668 103.726L60.4107 96.8703C59.7047 96.1625 58.7685 94.9028 57.5537 94.9028C55.96 94.9028 54.7608 96.102 54.7608 97.6957C54.7608 99.1372 58.3809 102.205 59.3949 103.218C61.2638 105.086 63.901 106.824 63.901 109.375C63.901 111.989 61.6307 113.425 59.3482 112.931C57.4534 112.519 55.8458 110.331 54.5704 109.058L28.3559 83.224L34.1321 57.7708C34.4955 56.0594 35.9456 50.4198 35.9733 49.2016H56.7923C56.3684 49.8349 55.5257 50.8213 54.9511 51.4235L49.322 57.9819C46.9219 61.0898 41.5575 64.7358 41.5575 66.7224L41.5627 66.7172ZM120.018 88.2994C117.701 88.2994 117.58 85.7123 116.908 82.5231L108.896 47.6269C108.071 44.3563 108.202 43.3163 111.447 42.6588C120.931 40.7345 119.537 37.9969 122.876 53.706L127.658 74.5683C129.348 82.6962 131.588 85.8283 127.189 86.8371L120.019 88.3011L120.018 88.2994ZM20.4893 88.2994C18.6083 88.2994 15.0487 87.3234 13.0206 86.8821C8.40379 85.8767 10.534 83.179 12.3008 74.7794L19.4856 43.3717C19.7521 42.2089 20.1933 41.3332 21.5639 41.1965C22.4845 41.1048 26.9767 42.3438 28.3386 42.6172C31.6247 43.2748 31.9725 44.1262 31.154 47.4244C28.83 56.7965 27.0321 66.2223 24.7548 75.302L22.3374 85.8335C22.1159 86.9133 21.5621 88.2994 20.4875 88.2994H20.4893Z" fill="black"/>
</svg>
