<svg width="46" height="46" viewBox="0 0 46 46" fill="none" xmlns="http://www.w3.org/2000/svg">
<path fill-rule="evenodd" clip-rule="evenodd" d="M23.5079 43.6251C22.5518 43.6251 22.2188 43.2921 22.2188 42.336C22.2188 41.12 24.4532 40.9872 24.4532 42.5079C24.4532 43.0774 24.0528 43.6251 23.5079 43.6251V43.6251ZM6.40622 31.5078C7.97709 31.5078 8.02732 33.8281 6.40622 33.8281C5.54575 33.8281 4.9368 32.6484 5.60518 31.9099C5.75947 31.7394 6.13929 31.5077 6.40622 31.5077V31.5078ZM5.46096 13.289C5.46096 12.5936 5.72503 11.9999 6.57816 11.9999C8.0809 11.9999 8.0206 14.3202 6.57816 14.3202C6.00179 14.3202 5.46096 13.855 5.46096 13.289V13.289ZM22.3907 3.57804C22.3907 1.84654 24.6251 2.15686 24.6251 3.32019C24.6251 4.03121 24.4382 4.60921 23.422 4.60921C22.9058 4.60921 22.3907 4.09412 22.3907 3.57792V3.57804ZM21.0157 3.32019C21.0157 4.53038 21.5439 5.28107 22.5192 5.7698C22.7149 5.86789 22.8205 5.81033 22.8205 6.07017V11.4842C19.3815 11.4842 15.5983 13.7787 13.7969 16.4686C13.4132 16.3792 10.7339 14.7941 10.204 14.4755L8.98438 13.8045C9.01373 13.4515 9.07029 13.6126 9.07029 13.289C9.07029 12.1823 8.50013 11.2964 7.61157 10.8805C5.85284 10.0572 4.08591 11.5481 4.08591 12.9452C4.08591 14.1361 4.49407 14.9896 5.616 15.4542C6.06395 15.6397 6.52906 15.6998 7.08044 15.5999C7.51919 15.5206 8.07444 15.2253 8.29686 14.9217C9.03014 15.4128 9.85131 15.8102 10.6343 16.2796L13.0235 17.6717C11.6746 20.2209 11.2654 23.2754 11.992 26.1798C12.0897 26.5703 12.167 26.8572 12.3027 27.2441C12.4281 27.6021 12.6027 27.911 12.6797 28.2421C12.4318 28.5805 8.89611 30.4474 8.21095 30.9062C7.34588 29.7256 4 29.8204 4 32.7968C4 35.3066 7.60958 36.1354 8.72877 33.7443C9.04593 33.0667 8.98115 32.6893 8.8838 32.0259C9.10946 31.9671 9.26002 31.8534 9.46304 31.7286L13.3673 29.5313C13.7129 29.7845 15.3151 33.0327 19.6729 34.4836C20.1831 34.6534 21.3913 34.965 21.9775 35.0148C22.3162 35.0437 22.6486 34.9238 22.6486 35.2891V39.9297C22.6486 40.3524 22.1644 40.0287 21.4544 40.8839C20.092 42.5251 21.0794 45 23.422 45C25.7756 45 26.9809 41.5611 24.3247 40.2301C24.129 40.132 24.0234 40.1895 24.0234 39.9297V35.1171C24.1204 35.115 24.9161 35.0261 25.0207 34.9972C25.6163 34.8323 25.6813 33.9344 24.9983 33.7058C24.662 33.5933 23.0612 34.0246 20.688 33.3823C19.4375 33.0439 18.0351 32.3122 17.0247 31.5456C15.9297 30.7147 15.146 29.7825 14.4468 28.6236C10.7221 22.4499 14.3214 14.0578 22.0198 12.9181L24.5347 12.8638C24.9509 12.8935 26.4298 13.3872 26.4298 12.4296C26.4298 11.5394 24.8646 11.4844 24.1954 11.4844V6.0703C24.1954 5.77166 24.53 5.79155 24.7948 5.63838C26.7902 4.48389 26.3068 1 23.422 1C22.0873 1 21.0157 2.23742 21.0157 3.32031V3.32019Z" fill="black"/>
<path fill-rule="evenodd" clip-rule="evenodd" d="M39.1485 32.9688C39.1485 31.1791 41.3829 31.4475 41.3829 32.7109C41.3829 33.4063 41.1189 33.9999 40.2657 33.9999C39.7178 33.9999 39.1485 33.524 39.1485 32.9687V32.9688ZM40.4375 14.4922C38.8667 14.4922 38.8164 12.1719 40.4375 12.1719C41.8925 12.1719 41.8201 14.4922 40.4375 14.4922ZM37.8594 13.2891C37.8594 13.579 37.9453 13.5638 37.9453 13.9766C37.7343 14.0329 37.5839 14.1466 37.3807 14.2715C37.1451 14.4164 37.0172 14.4737 36.7787 14.6148C36.3477 14.8698 36.0091 15.0469 35.5754 15.3019L33.2188 16.6407C32.9147 16.1866 32.6087 15.8076 32.2481 15.3769C31.5724 14.5699 28.9877 12.5157 28.2344 12.5157C27.8313 12.5157 27.5468 12.8725 27.5468 13.2891C27.5468 13.7199 28.2972 13.9889 28.6281 14.1845C29.4788 14.6871 29.6599 14.8509 30.3226 15.4118C31.3708 16.299 31.8725 16.98 32.5678 18.151C34.675 21.7 34.2686 26.901 31.521 29.9821C31.3322 30.1937 31.2052 30.273 31.0214 30.5137C30.7362 30.8872 30.7602 30.782 30.4481 31.0576C29.6727 31.7428 28.8064 32.2933 27.8621 32.7685C27.5689 32.9161 27.4639 32.9514 27.1494 33.087C26.3436 33.4344 26.6601 34.4299 27.375 34.4299C27.795 34.4299 30.2963 32.9031 30.8123 32.539C31.8698 31.7925 32.6664 30.7849 33.3906 29.7032C33.6902 29.7731 34.2481 30.1483 34.5123 30.3004L37.8594 32.1955C37.83 32.5486 37.7735 32.3874 37.7735 32.711C37.7735 34.1823 38.7373 35.2057 40.1275 35.3428C41.4203 35.4702 42.7579 34.2813 42.7579 33.0548C42.7579 31.8671 42.3378 31.0115 41.2406 30.533C40.3164 30.1299 39.0188 30.4341 38.5469 31.0783C37.8599 30.6183 37.0532 30.2062 36.3169 29.7849C35.5791 29.3628 34.8471 28.907 34.0782 28.5001C35.5703 25.6802 35.605 21.9594 34.472 18.9969C34.3342 18.6368 34.0189 18.0785 33.9923 17.7579L38.6329 15.0938C41.2462 17.3653 44.3371 13.7792 42.0937 11.5471C40.4194 9.88129 37.8595 11.2931 37.8595 13.2891H37.8594Z" fill="black"/>
<path fill-rule="evenodd" clip-rule="evenodd" d="M21.1876 22.7422V20.5937H23.8517C24.3423 20.5937 24.5065 20.3744 24.9689 20.3358C25.1165 20.9693 25.7423 21.0648 25.7423 21.3671C25.7423 22.4263 25.9068 23.4305 25.0569 24.1192C24.3134 24.7217 22.8102 24.8433 21.9331 24.1451C21.5411 23.8331 21.1876 23.3969 21.1876 22.7422V22.7422ZM26.172 17.3281C26.5083 17.2498 26.3513 17.2498 26.6876 17.3281C26.6876 17.8151 26.6868 18.3021 26.6876 18.7891C26.6882 19.1822 26.8435 19.9922 26.4297 19.9922C26.016 19.9922 26.1712 19.1822 26.1719 18.7891C26.1726 18.3021 26.1719 17.8151 26.1719 17.3281H26.172ZM23.7658 19.2188H20.3283C20.3283 16.3361 20.2584 16.6406 23.7658 16.6406C24.0476 16.6406 24.3591 16.8516 24.5056 17.0179C25.0404 17.625 24.8643 19.2188 23.7658 19.2188V19.2188ZM18.9532 17.9297C18.9532 19.3272 18.7488 19.9905 19.7266 20.5079C19.5916 20.7096 18.9532 21.2135 18.9532 21.8828C18.9532 22.9218 19.7799 23.2138 19.9508 23.5493C20.069 23.7816 20.1283 23.9882 20.2406 24.2048C20.4486 24.6056 20.6808 24.924 21.0495 25.2006C21.2399 25.3436 21.3651 25.4111 21.5789 25.5306L22.2189 25.8359C21.0264 25.9351 20.3551 25.9746 19.2957 26.5221C18.6811 26.8397 17.7332 27.6725 17.6643 28.5H19.1253C19.6629 27.4839 21.0067 27.2049 22.5625 27.2106C23.0561 27.2125 24.5708 27.3044 24.9167 27.1583C25.0784 27.0899 25.7611 26.4116 24.6818 25.8653C24.6698 25.8592 24.6428 25.848 24.6254 25.8358C25.0681 25.7327 25.4918 25.4672 25.8174 25.2232C26.4476 24.7509 26.6472 24.3486 26.9296 23.6714C27.1201 23.2146 27.0259 23.4419 27.3744 23.1709C27.5346 23.0462 27.6397 22.9007 27.7506 22.6876C28.2491 21.7287 27.7645 21.4151 27.6332 20.8515C27.8518 20.5251 28.0629 20.4021 28.0629 19.8203V17.414C28.0629 16.7208 27.432 15.9531 26.7739 15.9531C25.7326 15.9531 26.2824 15.9391 25.4848 16.1249C24.7609 15.0437 22.9077 15.2655 21.6177 15.2655C20.0199 15.2655 18.9536 16.3367 18.9536 17.9296L18.9532 17.9297Z" fill="black"/>
<path fill-rule="evenodd" clip-rule="evenodd" d="M26.5158 26.9531C26.5158 28.0785 28.2345 27.2878 28.2345 29.9609H20.2423C19.3186 29.9609 19.2431 31.3359 20.5001 31.3359C21.6436 31.3359 28.7774 31.4972 29.2941 31.1924C29.9664 30.7957 29.5209 28.6173 29.2671 28.0689C28.5816 26.5879 26.5158 25.6043 26.5158 26.9531Z" fill="black"/>
</svg>
