<svg width="20" height="20" viewBox="0 0 20 20" fill="none" xmlns="http://www.w3.org/2000/svg">
<g clip-path="url(#clip0_390_531)">
<path d="M6.54 8.53956C6.05824 7.92015 6.1131 7.03893 6.66797 6.48405C7.097 6.05503 7.2133 5.88139 7.27998 5.66141C7.32987 5.49682 7.32987 5.33695 7.27998 5.17236C7.2133 4.95239 7.097 4.77874 6.66797 4.34972L5.97388 3.65563C5.54486 3.22661 5.37122 3.1103 5.15124 3.04362C4.98665 2.99374 4.82678 2.99374 4.66219 3.04362C4.44222 3.1103 4.26857 3.22661 3.83955 3.65563C2.80156 4.69361 2.71898 6.34926 3.64854 7.48538L4.62001 8.67274C6.69394 11.2075 9.01555 13.5292 11.5504 15.6031L12.7377 16.5746C13.8738 17.5041 15.5295 17.4215 16.5675 16.3835C16.9965 15.9545 17.1128 15.7809 17.1795 15.5609C17.2294 15.3963 17.2294 15.2364 17.1795 15.0719C17.1128 14.8519 16.9965 14.6782 16.5675 14.2492L15.8734 13.5551C15.4444 13.1261 15.2707 13.0098 15.0507 12.9431C14.8861 12.8932 14.7263 12.8932 14.5617 12.9431C14.3417 13.0098 14.1681 13.1261 13.739 13.5551C13.1842 14.11 12.303 14.1649 11.6835 13.6831L10.48 12.747C9.35789 11.8743 8.34884 10.8652 7.47612 9.74314L6.54 8.53956ZM9.05483 8.51526C9.82562 9.50628 10.7168 10.3975 11.7078 11.1683L12.608 11.8684C13.1064 11.4099 13.4961 11.1763 13.9816 11.0291C14.5244 10.8646 15.088 10.8646 15.6309 11.0291C16.2044 11.2029 16.6442 11.4975 17.2876 12.1409L17.9817 12.835C18.6251 13.4784 18.9197 13.9182 19.0935 14.4917C19.258 15.0346 19.258 15.5982 19.0935 16.141C18.9197 16.7146 18.6251 17.1544 17.9817 17.7978C16.2171 19.5623 13.4026 19.7027 11.4712 18.1225L10.2839 17.151C7.64614 14.9928 5.23025 12.577 3.0721 9.93921L2.10062 8.75185C0.520416 6.82049 0.660793 4.00596 2.42533 2.24141C3.06872 1.59803 3.50853 1.30345 4.08206 1.12961C4.62491 0.965075 5.18852 0.965075 5.73137 1.12961C6.3049 1.30345 6.74471 1.59803 7.3881 2.24141L8.08219 2.93551C8.72557 3.57889 9.02016 4.0187 9.19399 4.59223C9.35853 5.13508 9.35853 5.69869 9.19399 6.24154C9.04685 6.72702 8.81319 7.11668 8.3547 7.61509L9.05483 8.51526Z" fill="white"/>
</g>
<defs>
<clipPath id="clip0_390_531">
<rect width="20" height="20" fill="white"/>
</clipPath>
</defs>
</svg>
