<svg width="24" height="24" viewBox="0 0 24 24" fill="none" xmlns="http://www.w3.org/2000/svg">
<path d="M12 24C18.6274 24 24 18.6274 24 12C24 5.37258 18.6274 0 12 0C5.37258 0 0 5.37258 0 12C0 18.6274 5.37258 24 12 24Z" fill="#039BE5"/>
<path d="M5.49029 11.74L17.0603 7.27896C17.5973 7.08496 18.0663 7.40996 17.8923 8.22196L17.8933 8.22096L15.9233 17.502C15.7773 18.16 15.3863 18.32 14.8393 18.01L11.8393 15.799L10.3923 17.193C10.2323 17.353 10.0973 17.488 9.78729 17.488L10.0003 14.435L15.5603 9.41196C15.8023 9.19896 15.5063 9.07896 15.1873 9.29096L8.31629 13.617L5.35429 12.693C4.71129 12.489 4.69729 12.05 5.49029 11.74Z" fill="white"/>
</svg>
