<svg width="620" height="72" viewBox="0 0 620 72" fill="none" xmlns="http://www.w3.org/2000/svg">
<path d="M16.3281 44.5781L9.53125 61.6875H0.9375L25.7812 0.984375H34.2188L59.0625 61.6875H50.4688L43.75 44.5781H16.3281ZM19.1406 37.3125H40.8594L30 9.65625L19.1406 37.3125ZM98.2812 36.5312V61.6875H90.3125V2.07812H112.578C126.693 2.07812 133.75 7.83333 133.75 19.3438C133.75 30.8021 126.693 36.5312 112.578 36.5312H98.2812ZM98.2812 29.1094H111.016C116.536 29.1094 120.26 28.3542 122.188 26.8438C124.375 25.0729 125.469 22.5469 125.469 19.2656C125.469 15.9323 124.271 13.3542 121.875 11.5312C120 10.1771 116.38 9.5 111.016 9.5H98.2812V29.1094ZM194.219 9.5V62.2344H185.781V9.5H164.219V2.07812H215.703V9.5H194.219ZM243.203 61.6875V1.53125H251.172L270 28.6406L288.828 1.53125H296.797V61.6875H288.828V13.3281L270 40.2031L251.172 13.3281V61.6875H243.203ZM338.203 9.5V26.8438H368.906V34.2656H338.203V53.7188H371.719V61.1406H330.234V2.07812H371.172V9.5H338.203ZM450.938 61.1406H408.984V71.6094H401.016V53.875H406.797L406.875 53.6406C414.062 39.526 418.281 22.3385 419.531 2.07812H451.719V53.875H458.906V71.6094H450.938V61.1406ZM443.75 53.875V9.34375H426.484C424.818 26.7396 421.094 41.5833 415.312 53.875H443.75ZM486.016 1.53125H494.141V48.6406L526.094 1.53125H533.984V61.6875H525.859V14.5781L493.906 61.6875H486.016V1.53125ZM576.328 44.5781L569.531 61.6875H560.938L585.781 0.984375H594.219L619.062 61.6875H610.469L603.75 44.5781H576.328ZM579.141 37.3125H600.859L590 9.65625L579.141 37.3125Z" fill="white"/>
</svg>
