<svg width="46" height="46" viewBox="0 0 46 46" fill="none" xmlns="http://www.w3.org/2000/svg">
<path fill-rule="evenodd" clip-rule="evenodd" d="M25.0624 22.3123H30.6483V40.8747H25.0624V22.3123ZM15.3514 27.4685H20.9373V40.8747H15.3514V27.4685V27.4685ZM5.64046 31.6795H11.2264V40.8748H5.64046V31.6795V31.6795ZM33.3982 18.617V40.8748H32.0233V21.7108C32.0233 21.3563 31.7344 20.9374 31.4217 20.9374H24.4608C24.036 20.9374 23.6874 21.286 23.6874 21.7108V40.8748H22.3124V27.0389C22.3124 26.5263 22.1371 26.1795 21.6249 26.1795H14.664C14.1518 26.1795 13.9765 26.5263 13.9765 27.0389V40.8748H12.6015V31.4217C12.6015 30.8038 12.441 30.3046 11.8281 30.3046H5.03905C4.57117 30.3046 4.26563 30.6101 4.26563 31.078V40.8749H1.77342C1.35778 40.8749 1 41.1189 1 41.5624V44.4842C1 44.6912 1.30872 44.9999 1.51564 44.9999H8.73439C9.41937 44.9999 9.41937 43.7108 8.73439 43.7108H2.28907V42.2499H43.7109V43.7108H11.4844C10.7994 43.7108 10.7994 44.9999 11.4844 44.9999H44.4844C44.6913 44.9999 45 44.6912 45 44.4842V41.5624C45 41.1189 44.6422 40.8749 44.2266 40.8749H41.7344V30.9062C41.7344 29.9824 40.3594 29.9571 40.3594 30.9921V40.8749H34.7735V18.789H40.3594V27.6405C40.3594 28.894 41.7344 28.6769 41.7344 27.8124V18.1874C41.7344 17.8733 41.4972 17.4999 41.2187 17.4999H34.0859C33.4969 17.4999 33.3984 18.033 33.3984 18.6171L33.3982 18.617Z" fill="black"/>
<path fill-rule="evenodd" clip-rule="evenodd" d="M32.0234 1.85911C32.0234 5.50254 31.6676 5.12473 34.6015 5.12473L29.1237 10.6469C28.8278 10.9526 28.8767 11.0509 28.3353 11.0617L23.4267 11.0514C21.8962 11.0496 21.5342 12.0558 20.5305 13.0538L18.7686 14.9872C18.1767 15.6273 17.5444 16.225 16.9971 16.911L15.8474 18.1676C15.6301 18.3871 15.4425 18.5384 15.2528 18.7761C15.0147 19.0746 14.9174 19.1835 14.6422 19.4546C13.7502 20.3334 14.1885 20.4375 13.1198 20.4244C12.5148 20.417 11.3124 20.1775 11.3124 21.1092C11.3124 22.0118 12.9435 21.7967 13.8046 21.7967C14.5423 21.7967 14.9095 21.183 15.2528 20.7527L17.6945 18.1242C17.957 17.8631 18.0401 17.6894 18.2932 17.4338L21.3457 14.127C21.6106 13.866 21.6746 13.7655 21.908 13.4862C23.0102 12.1676 23.0041 12.4296 24.7186 12.4296L28.5037 12.4333C28.9833 12.43 29.2521 12.3946 29.5148 12.1554C30.3671 11.3799 31.2126 10.4474 32.0448 9.61506C32.4169 9.24296 37.0077 4.88127 37.0077 4.43732C37.0077 4.15 36.6903 3.74982 36.4062 3.74982H33.3984V2.2889H39.5859C40.0015 2.2889 40.3593 2.53293 40.3593 2.9764V9.3358H38.9843C38.9843 8.63756 39.0917 6.46718 38.8408 6.04186C38.2798 5.09121 37.1934 6.52902 36.9003 6.8222L33.0331 10.6894C32.1672 11.5553 31.3609 12.3557 30.498 13.2246C29.7475 13.9804 29.8975 13.8048 28.4999 13.8046C27.762 13.8046 23.9319 13.6788 23.5453 13.9203C23.1617 14.1599 21.0169 16.6713 20.445 17.2653C20.2144 17.505 20.0104 17.6624 19.8075 17.9169C19.2874 18.5689 18.4637 19.3528 17.9947 19.8854C17.5499 20.3904 15.157 23.1718 14.8358 23.1718H5.5546V21.7968H8.7343C10.1102 21.7968 9.71904 20.4218 9.07809 20.4218H4.86718C4.45146 20.4218 4.17969 20.6936 4.17969 21.1093V23.8593C4.17969 24.3028 4.53747 24.5468 4.95311 24.5468H14.5781C15.5616 24.5468 16.2936 23.8511 16.8253 23.1846L19.197 20.5719C19.4721 20.3008 19.5695 20.1919 19.8076 19.8934L23.9173 15.4094C24.2561 15.0745 24.3587 15.1739 24.9759 15.1789C26.0981 15.188 28.9083 15.3147 29.8428 15.1474C30.9283 14.953 31.7086 13.9046 32.6465 12.9668C33.4838 12.1294 34.2583 11.355 35.0957 10.5175C35.5321 10.0812 35.9054 9.70782 36.3418 9.27144C36.6968 8.91642 37.2377 8.29573 37.6094 8.04682C37.6094 11.1213 37.1321 10.6249 41.0469 10.6249C41.4626 10.6249 41.7344 10.3532 41.7344 9.93745V2.97656C41.7344 1.99288 40.819 1 39.8437 1H32.7109C32.1987 1 32.0234 1.3468 32.0234 1.85935V1.85911Z" fill="black"/>
</svg>
