<svg width="24" height="24" viewBox="0 0 24 24" fill="none" xmlns="http://www.w3.org/2000/svg">
<path d="M18.9586 16.7998L15.1189 12.1069L12.7809 14.1109C12.3315 14.4961 11.6684 14.4961 11.219 14.1109L8.88081 12.1068L5.03843 16.7998H18.9586ZM20.4 14.7714V7.79983C20.4 7.7325 20.3889 7.66777 20.3684 7.60735L16.9416 10.5446L20.4 14.7714ZM3.59995 14.7683L7.05813 10.5445L3.63149 7.60735C3.61104 7.66777 3.59995 7.7325 3.59995 7.79983V14.7683ZM20.3028 4.80368C20.4253 4.79384 20.5487 4.80278 20.6684 4.83016C21.0088 4.87054 21.2765 4.9546 21.552 5.10193C21.9567 5.31835 22.2814 5.64312 22.4978 6.0478C22.7224 6.46766 22.7999 6.86931 22.7999 7.53816V16.4615C22.7999 17.1303 22.7224 17.532 22.4978 17.9519C22.2814 18.3565 21.9567 18.6813 21.552 18.8977C21.1321 19.1223 20.7305 19.1998 20.0616 19.1998H3.93828C3.26943 19.1998 2.86778 19.1223 2.44793 18.8977C2.04325 18.6813 1.71848 18.3565 1.50205 17.9519C1.27751 17.532 1.19995 17.1303 1.19995 16.4615V7.53816C1.19995 6.86931 1.27751 6.46766 1.50205 6.0478C1.71848 5.64312 2.04325 5.31835 2.44793 5.10193C2.72341 4.9546 2.99106 4.87054 3.3315 4.83016C3.45123 4.80278 3.57462 4.79384 3.69708 4.80368C3.7736 4.80106 3.85381 4.7998 3.93828 4.7998H20.0616C20.1461 4.7998 20.2263 4.80106 20.3028 4.80368ZM6.84386 7.19983L12 11.6193L17.156 7.19983H6.84386Z" fill="white"/>
</svg>
