<svg width="20" height="20" viewBox="0 0 20 20" fill="none" xmlns="http://www.w3.org/2000/svg">
<path d="M10 19C5.02944 19 1 14.9706 1 10C1 5.02944 5.02944 1 10 1C14.9706 1 19 5.02944 19 10C19 14.9706 14.9706 19 10 19ZM10 17C13.866 17 17 13.866 17 10C17 6.13401 13.866 3 10 3C6.13401 3 3 6.13401 3 10C3 13.866 6.13401 17 10 17ZM10 6C10.5523 6 11 6.44772 11 7V10C11 10.5523 10.5523 11 10 11C9.44771 11 9 10.5523 9 10V7C9 6.44772 9.44771 6 10 6ZM10 12C10.5523 12 11 12.4477 11 13C11 13.5523 10.5523 14 10 14C9.44771 14 9 13.5523 9 13C9 12.4477 9.44771 12 10 12Z" fill="currentColor"/>
</svg>
