<svg width="20" height="20" viewBox="0 0 20 20" fill="none" xmlns="http://www.w3.org/2000/svg">
<path d="M10 19C5.02944 19 1 14.9706 1 10C1 5.02944 5.02944 1 10 1C14.9706 1 19 5.02944 19 10C19 14.9706 14.9706 19 10 19ZM10 17C13.866 17 17 13.866 17 10C17 6.13401 13.866 3 10 3C6.13401 3 3 6.13401 3 10C3 13.866 6.13401 17 10 17ZM11 11.5C11 12.0523 10.5523 12.5 10 12.5C9.44771 12.5 9 12.0523 9 11.5V10C9 9.44771 9.44771 9 10 9C10.781 9 11 8.78105 11 8C11 7.21895 10.781 7 10 7C9.219 7 9.00014 7.21888 9.00023 7.99988C9.0003 8.55217 8.55263 8.99994 8.00035 9C7.44806 9.00006 7.0003 8.5524 7.00023 8.00012C7.00001 6.11445 8.11434 5 10 5C11.8856 5 13 6.11438 13 8C13 9.52294 12.2731 10.5428 11 10.8788V11.5ZM10 15C9.44771 15 9 14.5523 9 14C9 13.4477 9.44771 13 10 13C10.5523 13 11 13.4477 11 14C11 14.5523 10.5523 15 10 15Z" fill="currentColor"/>
</svg>
