<svg width="46" height="46" viewBox="0 0 46 46" fill="none" xmlns="http://www.w3.org/2000/svg">
<path fill-rule="evenodd" clip-rule="evenodd" d="M26.0939 34.7734C25.7379 34.7734 25.074 34.4002 24.8048 34.2577C24.8728 33.966 25.107 33.6549 25.2636 33.3414C25.348 33.1725 25.4315 33.0275 25.4917 32.882C25.5715 32.6895 25.5779 32.5468 25.6642 32.367C27.606 32.8193 27.3199 34.7733 26.0939 34.7733V34.7734ZM21.1096 34.0859C21.1096 33.2845 21.5014 32.9709 21.8836 32.1957C22.0871 31.7832 22.4808 30.9062 23.0862 30.9062C23.9982 30.9062 24.2035 31.4304 24.2035 32.1093C24.2035 32.3996 23.2218 34.1825 23.0726 34.416C22.8615 34.7464 22.5363 35.0772 22.0009 35.0049C21.5505 34.9442 21.1097 34.5516 21.1097 34.0859H21.1096ZM18.8753 33.6562C18.3306 33.6562 17.844 33.2286 17.844 32.4531C17.844 32.178 18.0926 31.7629 18.224 31.544C19.0126 30.2305 19.0767 29.2734 20.1643 29.2734C20.7553 29.2734 21.1096 29.7386 21.1096 30.3906C21.1096 30.7869 20.4228 31.8962 20.2227 32.2538C19.9973 32.6565 19.6971 33.6564 18.8753 33.6564V33.6562ZM14.4065 31.5077C14.4065 30.9879 15.6143 29.0052 15.9225 28.3832C16.2913 27.639 16.5108 27.6405 17.1565 27.6405C17.7812 27.6405 18.3946 28.3913 17.7221 29.4951L16.6133 31.5661C15.7314 33.347 14.4065 32.264 14.4065 31.5077V31.5077ZM13.0315 29.7029C12.4938 29.7029 12.1133 29.3853 11.9893 28.9331C11.8305 28.3539 12.2979 27.6985 12.6867 26.9518L13.3941 25.7685C13.9493 25.285 14.884 25.4554 15.105 26.2619C15.267 26.8528 14.9546 27.1507 14.7204 27.6106C14.2572 28.5203 13.835 29.7029 13.0315 29.7029V29.7029ZM20.4222 21.281C19.4049 21.281 18.5054 20.9807 18.0159 20.2498C21.4977 18.4074 23.3319 14.8358 26.3518 14.8358C28.0519 14.8358 29.34 15.8524 30.9793 16.14C32.2284 16.3592 33.1348 15.6314 34.1709 15.0923C34.4031 14.9715 34.9879 14.6353 35.2032 14.5777L38.2969 22.656L36.7794 23.2869C34.7219 24.2021 35.4325 24.056 34.254 23.3473L31.1906 21.5982C30.4775 21.1995 29.8742 20.8467 29.1611 20.448C28.221 19.9224 27.8746 19.5621 26.6095 19.5621C24.456 19.5621 22.3288 21.2809 20.4219 21.2809L20.4222 21.281ZM16.2112 20.0779C16.2112 20.7946 18.0327 22.742 20.1643 22.742C22.9125 22.742 25.2323 20.6202 27.1902 21.042C27.7008 21.152 32.0823 23.7641 32.9396 24.2325C33.1695 24.358 33.5741 24.5687 33.7581 24.7031C34.7762 25.4464 34.0962 26.6952 33.2269 26.6952C32.8968 26.6952 31.9492 26.0833 31.6761 25.9257L28.6478 24.2269C27.6936 23.692 27.2972 24.3062 27.2972 24.7188C27.2972 25.2907 29.552 26.4006 30.0761 26.6665L31.5481 27.5148C32.0476 27.8724 32.1375 28.6651 31.6905 29.1121C30.8837 29.9189 29.774 28.8447 28.5292 28.2134C28.1072 27.9993 25.5865 26.5235 25.4065 26.5235C24.8005 26.5235 24.6332 26.9281 24.6332 27.3829C24.6332 27.8022 26.6355 28.8065 27.0398 29.0152C27.4671 29.2358 27.8442 29.5022 28.2995 29.732C28.9749 30.073 29.2736 30.2362 29.2736 30.9923C29.2736 31.5833 28.8085 31.9376 28.1564 31.9376C27.7846 31.9376 27.097 31.4479 26.7535 31.278C26.2701 31.0389 25.1714 30.4493 24.8269 30.1109C24.2553 29.5495 23.1412 29.3022 22.4847 29.6173C22.188 28.9988 21.8555 28.312 21.0151 27.9929C20.2999 27.7213 20.035 27.8278 19.3072 27.9143C19.2629 27.3925 18.7229 26.834 18.3748 26.5944C17.8125 26.2073 17.4672 26.1797 16.5549 26.1797C16.4365 25.6713 16.3398 25.3363 16.0204 24.9955C15.3455 24.2753 14.7049 23.9625 13.6467 24.1249C13.0701 24.2134 12.8199 24.4576 12.43 24.7188C12.3923 24.2657 12.0841 23.5974 11.8435 23.3286C11.4873 22.9309 9.78372 22.3017 9.1932 22.0258C8.88404 21.8813 8.09435 21.4785 7.78934 21.453C7.82003 21.0836 9.19944 18.2837 9.50924 17.5869L11.3127 13.7185C11.6705 13.7483 12.8471 14.3714 13.2317 14.5496C14.9687 15.3551 15.6968 15.9135 17.5951 15.5321C18.8522 15.2795 20.545 14.7504 21.7971 15.3513C21.5709 15.6892 20.8404 16.3865 20.508 16.6404C19.2912 17.5696 19.383 17.7175 17.5694 18.8581C16.8058 19.3383 16.2111 19.5239 16.2111 20.0779H16.2112ZM6.07056 21.7967C6.07056 22.3756 7.52765 22.8542 7.99747 23.0495C8.77342 23.3718 9.4656 23.7078 10.1974 24.0293C11.2546 24.4937 10.8445 24.4531 11.3103 26.1062C11.3919 26.3955 11.4005 26.3563 11.2643 26.639C11.1556 26.8648 11.0718 26.9983 10.9516 27.1937C9.93526 28.8442 10.8252 31.0782 13.0314 31.0782V31.5939C13.0314 33.415 15.0269 34.4309 16.6408 33.6564C17.3389 34.9758 18.8415 35.3293 19.8205 34.8594C20.4639 36.0753 21.0362 36.4064 22.3987 36.4064C22.7705 36.4064 23.112 36.2459 23.3748 36.0934C23.7207 35.8928 23.8073 35.6686 24.1175 35.4611C25.375 36.3033 26.8245 36.5456 27.9208 35.3114C28.3816 34.7925 28.5003 34.349 28.5003 33.3987C28.9768 33.1699 30.7346 32.9292 30.7346 30.8205C32.3104 30.8205 33.3986 29.7717 33.3986 28.5862V28.0705C34.8028 28.0705 35.7189 26.9096 35.7189 25.2345C36.0177 25.2097 38.5912 24.0697 39.0734 23.8622C40.318 23.3267 40.1046 23.2525 38.9723 20.4341C38.6264 19.573 38.2752 18.6768 37.9405 17.7707L36.4194 13.8777C36.0284 12.8101 35.8663 12.51 34.5197 13.293C34.1782 13.4915 33.8938 13.6279 33.5129 13.833C31.3882 14.9768 31.691 15.0572 29.1886 14.0617C27.23 13.2826 25.8043 13.2105 23.8941 14.0112C23.648 14.1145 23.421 14.3062 23.2856 14.3482C22.743 14.5167 22.0038 13.0553 18.3767 13.9078C16.0036 14.4655 16.2885 14.338 14.3195 13.4621C13.6946 13.1841 13.0275 12.9061 12.43 12.6016C10.6463 11.6923 10.5844 11.8851 10.0486 13.1421L8.24733 16.9267C7.93912 17.592 6.07072 21.4139 6.07072 21.7969L6.07056 21.7967Z" fill="#1A1A1A"/>
<path fill-rule="evenodd" clip-rule="evenodd" d="M40.7032 12.2578C40.7032 12.6212 41.0737 13.0932 41.2199 13.3739L42.2821 15.7491C42.7981 17.1996 43.0758 18.1792 43.3429 19.7586C43.7573 22.2089 43.6785 25.2006 43.0935 27.5389C42.6597 29.2735 42.4525 29.8622 41.7965 31.3981C40.5654 34.2804 39.0544 36.0271 36.9445 38.1478C36.6884 38.4051 36.5177 38.4985 36.2558 38.7482C34.2371 40.6722 30.4009 42.4366 27.6749 43.0579C25.9626 43.4483 23.8749 43.7466 22.128 43.5517C21.1234 43.4397 21.1241 43.6125 19.3265 43.2594C17.0464 42.8116 15.2058 42.211 13.1453 41.1047C12.652 40.8398 10.8656 39.7425 10.6248 39.4142C11.2542 39.4142 13.2888 39.6177 13.2888 38.8126C13.2888 37.5389 12.248 37.991 10.5417 38.042C9.90083 38.0611 8.71309 37.9067 8.24759 38.24C7.6371 38.6769 8.30018 39.8888 8.64867 41.2183C8.75721 41.6325 8.86544 42.0476 8.98021 42.4337C9.4243 43.9288 10.453 43.1454 10.453 42.6797C10.453 41.9401 10.0762 41.425 10.0233 40.7891C11.1138 41.5193 11.1325 41.6053 12.488 42.3635C15.0185 43.7789 19.0525 45 22.2264 45C27.3644 45 29.961 44.249 34.0001 42.0783C34.3016 41.9162 34.4886 41.7743 34.8008 41.59C35.9773 40.8956 38.2833 38.9889 39.177 37.974L39.8184 37.2404C42.8383 33.6699 45 28.5281 45 23.7736C45 20.8027 44.8814 18.9672 43.958 16.2216C43.7525 15.6103 42.3694 11.5704 41.4764 11.5704C41.0932 11.5704 40.703 11.9184 40.703 12.258L40.7032 12.2578Z" fill="#1A1A1A"/>
<path fill-rule="evenodd" clip-rule="evenodd" d="M1 22.2266C1 26.044 1.44648 29.0074 3.03274 32.311C3.26757 32.8002 3.9484 34.4298 4.52341 34.4298C4.90659 34.4298 5.2968 34.0818 5.2968 33.7422C5.2968 33.4099 4.50886 32.1775 4.21584 31.4716C2.00454 26.1449 1.68643 20.8814 3.8349 15.4364C3.99684 15.0259 4.17524 14.5835 4.37922 14.1759C4.81802 13.2989 5.15644 12.6595 5.67598 11.8634C6.46663 10.6517 7.02725 9.87734 8.06872 8.84194L8.57131 8.3133C8.57386 8.31074 8.68241 8.21547 8.70814 8.19229C8.82292 8.08854 8.86512 8.04698 8.97143 7.93987C11.3605 5.53115 15.1352 3.6597 18.3929 2.92388C19.5546 2.66139 22.0485 2.30635 23.2585 2.37445C24.8438 2.46365 26.494 2.64781 28.0192 3.02795C29.7266 3.45349 31.7284 4.20721 33.1786 5.08738C33.6716 5.38664 35.1189 6.23564 35.3753 6.58588C34.746 6.58588 32.7113 6.38238 32.7113 7.18742C32.7113 8.46117 33.7521 8.00909 35.4585 7.9581C36.0993 7.93891 37.2871 8.09333 37.7526 7.76003C38.2889 7.37622 37.8998 6.71521 37.6957 5.98434C37.5833 5.58198 37.457 5.18458 37.3515 4.78174C37.0955 3.80533 36.9828 2.71878 36.2347 2.71878C34.9183 2.71878 35.9284 4.62843 35.9769 5.21095C33.8345 3.77624 33.4596 3.44453 30.6746 2.34919C28.6212 1.5416 26.4089 1.10055 24.1663 1H22.1592C17.8905 1.18959 13.6504 2.57827 10.3177 4.98923C9.40352 5.65056 7.50234 7.2122 6.78347 8.07223C4.91889 10.3029 4.50279 10.7796 3.06248 13.6325C2.05937 15.6192 1.00032 19.2426 1.00032 22.2266H1Z" fill="#1A1A1A"/>
</svg>
