<svg width="200" height="200" viewBox="0 0 200 200" fill="none" xmlns="http://www.w3.org/2000/svg">
<path d="M16 84H183.994V116.883H16V84Z" fill="#D81F26"/>
<path d="M45.1319 94.7309C43.0822 94.7334 42.056 94.7161 42.056 94.7161L43.0797 90.2012L34.1215 90.216C34.1215 90.216 30.4151 90.0825 28.6646 95.0623L27.6879 99.1791L24.2733 99.1643C24.2733 99.1643 23.0444 99.1964 22.765 100.376C22.5202 101.407 22.8614 102.201 23.6032 102.21L26.9684 102.191L25.9596 106.444C25.9596 106.444 24.8692 111.216 29.1541 111.047H38.1321L39.2843 106.392L42.3676 106.387C42.3676 106.387 44.1998 106.599 44.5904 104.96C44.5904 104.96 45.2209 103.34 43.0846 103.343C43.0747 103.387 40.0013 103.345 40.0013 103.345L41.339 97.7821L44.405 97.7796C44.405 97.7796 46.3385 97.9156 46.6427 96.3233C46.6451 96.3233 47.1842 94.726 45.1319 94.7334V94.7309ZM34.4949 107.831L31.2533 107.853C29.6635 107.865 30.4448 105.239 30.4448 105.239L32.9026 94.909C33.4317 92.9779 34.8856 93.0916 34.8856 93.0916L38.0084 93.0891L34.4974 107.831H34.4949Z" fill="#D81F26" stroke="white" stroke-width="0.352858" stroke-miterlimit="22.9256"/>
<path d="M45.5201 93.2722L46.2594 90.2136L55.1458 90.221C55.1458 90.221 59.4728 90.0603 58.1821 95.4827C56.8915 100.91 55.9024 105.074 55.9024 105.074C55.9024 105.074 54.7304 111.062 50.1957 111.033L41.2944 111.043L42.0189 107.999L49.0262 108.009C49.0262 108.009 50.8312 108.066 51.5853 105.192L52.2727 102.188L47.0827 102.196L47.7973 99.1545L53.0219 99.1644L53.954 95.2404C53.954 95.2404 54.5722 93.2499 53.1653 93.2524C51.7559 93.2524 45.5201 93.2747 45.5201 93.2747V93.2722Z" fill="white"/>
<path d="M64.3513 90.1864L69.6352 90.1592L68.8093 110.983L64.4972 111.028L65.3749 97.1492L59.374 111.035L54.953 111.043L64.3513 90.1864Z" fill="white"/>
<path d="M82.4035 97.9874C78.079 97.9924 77.901 97.9924 77.896 97.9924L79.7851 90.1642L75.4902 90.1691L70.545 111.02L79.3227 110.976C79.3227 110.976 83.5187 111.196 85.0764 104.832C85.0764 104.832 87.0297 97.98 82.4035 97.9874ZM80.6925 105.225C79.9507 108.177 78.0419 107.964 78.0419 107.964L75.5495 107.952L77.1864 101.039C77.1864 101.039 77.7328 101.036 79.6862 101.031C81.6395 101.031 81.5579 101.585 80.695 105.222L80.6925 105.225Z" fill="white"/>
<path d="M115.647 90.1172L110.146 90.1123C105.685 89.8625 104.568 95.5272 104.568 95.5272L101.93 106.624C101.336 111.134 105.183 110.971 105.183 110.971C105.183 110.971 105.997 110.971 110.687 110.944C115.385 110.917 116.298 105.403 116.298 105.403C116.298 105.403 117.381 100.848 118.652 95.505C119.922 90.1617 115.645 90.1147 115.645 90.1147L115.647 90.1172ZM114.362 95.5124C113.751 98.1951 112.008 105.413 112.008 105.413C112.008 105.413 111.424 107.92 109.493 107.922C107.56 107.922 107.152 107.925 107.152 107.925C107.152 107.925 105.76 107.848 106.506 105.418C107.251 102.985 108.863 95.5198 108.863 95.5198C108.863 95.5198 109.271 93.1684 110.937 93.1659L113.454 93.161C113.454 93.161 114.943 92.9607 114.362 95.5099V95.5124Z" fill="white"/>
<path d="M174.599 90.0306L169.102 90.0282C164.639 89.7784 163.524 95.4431 163.524 95.4431L160.886 106.54C160.136 110.914 164.142 110.889 164.142 110.889C164.142 110.889 164.948 110.887 169.646 110.862C174.341 110.835 175.256 105.321 175.256 105.321C175.256 105.321 176.339 100.772 177.608 95.4233C178.856 90.1271 174.599 90.0331 174.599 90.0331V90.0306ZM173.315 95.4283C172.68 98.1036 170.959 105.326 170.959 105.326C170.959 105.326 170.378 107.833 168.447 107.836C166.511 107.838 166.103 107.841 166.103 107.841C166.103 107.841 164.713 107.764 165.46 105.333C166.204 102.903 167.816 95.4332 167.816 95.4332C167.816 95.4332 168.224 93.0818 169.891 93.0793L172.408 93.0744C172.408 93.0744 173.966 92.837 173.315 95.4258V95.4283Z" fill="white"/>
<path d="M130.389 90.0949L121.49 90.1072L116.555 110.954L120.869 110.86L122.662 103.316C122.662 103.316 126.878 103.311 127.281 103.293C127.681 103.274 131.457 103.771 133.114 96.8079C134.775 90.0677 130.391 90.0924 130.391 90.0924L130.389 90.0949ZM128.888 96.5335C128.052 100.44 126.141 100.27 126.141 100.27L123.387 100.255L125.07 93.1807L127.963 93.1436C127.963 93.1436 129.674 92.9952 128.886 96.5359L128.888 96.5335Z" fill="white"/>
<path d="M138.274 90.085L128.866 110.936L133.287 110.931L135.06 106.832L138.662 106.837L138.4 110.874L142.72 110.897L143.548 90.0529L138.276 90.0825L138.274 90.085ZM138.86 103.788L136.368 103.8L139.295 97.0206L138.86 103.786V103.788Z" fill="white"/>
<path d="M158.648 90.0677C154.16 90.0356 149.064 90.1023 149.064 90.1023L144.114 110.929L153.69 110.907C153.69 110.907 157.827 110.798 159.37 105.066L161.486 96.175C161.486 96.175 162.861 90.5672 158.648 90.0677V90.0677ZM157.313 95.673C157.313 95.673 155.822 101.877 155.102 104.972C154.405 107.969 152.511 107.895 152.511 107.895L149.126 107.878L152.63 93.1411C152.63 93.1411 154.536 93.1362 156.351 93.1337C158.166 93.1312 157.313 95.6706 157.313 95.6706V95.673Z" fill="white"/>
<path d="M99.5657 90.1542C95.078 90.1196 89.982 90.1864 89.982 90.1864L85.0294 111.013L94.6082 110.993C94.6082 110.993 98.7423 110.882 100.285 105.15L102.399 96.2566C102.399 96.2566 103.774 90.6512 99.5608 90.1542H99.5657ZM98.233 95.7596C98.233 95.7596 96.742 101.963 96.02 105.059C95.3228 108.056 93.4288 107.982 93.4288 107.982L90.0463 107.964L93.5475 93.2252C93.5475 93.2252 95.4513 93.2227 97.2687 93.2202C99.086 93.2178 98.233 95.7571 98.233 95.7571V95.7596Z" fill="white"/>
</svg>
