<svg width="200" height="200" viewBox="0 0 200 200" fill="none" xmlns="http://www.w3.org/2000/svg">
<path d="M158.144 74.8286L159.693 69.8709L154.568 70.0314C154.135 70.0314 150.989 69.9418 147.937 67.7292C148.164 67.7524 148.392 67.7834 148.624 67.7834C151.766 67.7834 154.806 65.8912 156.023 63.188L158.228 58.3018C155.466 58.3373 152.94 57.9891 152.94 57.9891C152.917 57.9859 150.926 57.7306 148.624 55.3801C146.972 53.6935 144.928 52.8006 142.715 52.8006C141.746 52.8006 140.881 52.9741 140.135 53.2107C140.25 52.8142 140.362 52.4119 140.424 51.9973C141.129 47.4245 138.184 43.9354 138.184 43.9393L134.332 39.1698L131.946 44.7741C131.937 44.7916 131.334 46.1035 130.253 46.7463C129.928 45.0997 129.13 43.2475 127.42 41.4772C124.198 38.1396 120.275 37.6444 118.221 37.6444C117.271 37.6444 116.593 37.747 116.427 37.7734L111.776 38.6889C112.045 37.649 112.616 35.8419 113.66 34.2127L116.227 30.2156L109.769 30.9518L107.711 26.584L103.73 28.6361L100.049 25L96.3762 28.6361L92.3813 26.584L90.3281 30.9518L83.875 30.2156L86.4454 34.2127C87.4906 35.8419 88.0609 37.6444 88.3249 38.6843L83.8885 37.8101L83.7366 37.7824C83.5136 37.747 82.8401 37.6444 81.884 37.6444C79.8321 37.6444 75.909 38.1441 72.6952 41.4772C70.981 43.2443 70.1819 45.0997 69.8519 46.7463C68.7805 46.1132 68.1832 44.8193 68.1832 44.8193L65.7904 39.184L61.8756 43.9838C61.3982 44.6039 59.038 47.8835 59.6808 52.0064C59.7481 52.417 59.8544 52.8187 59.9704 53.2152C59.2296 52.9786 58.3639 52.8045 57.395 52.8045C55.1815 52.8045 53.138 53.6974 51.4821 55.3826C49.1879 57.7261 47.2065 57.9885 47.2245 57.9885C47.2245 57.9885 45.1315 58.3644 41.8902 58.3057L44.0819 63.1919C45.3001 65.8996 48.3453 67.7873 51.4821 67.7873C51.7185 67.7873 51.946 67.7563 52.1787 67.7331C49.1341 69.9457 45.9877 70.0353 45.6083 70.0405L40.3862 69.8703L41.9665 74.8235C42.7611 77.3752 45.4167 81.6057 50.5042 82.0609C49.9505 84.3805 48.724 86.978 46.0274 88.0971L42.1402 89.6992L44.2606 93.3895C45.4558 95.3797 48.2632 97.7083 52.2626 97.7083C53.1284 97.7038 53.9627 97.62 54.7657 97.4498C54.9714 98.3601 55.2303 99.2698 55.5334 100.172C56.7253 103.715 55.6993 106.186 55.6852 106.212L53.7666 110.233L58.0505 111.362C58.1043 111.38 59.3994 111.732 61.0182 111.732C61.7545 111.732 62.4562 111.656 63.1162 111.5C63.6167 111.384 64.0935 111.228 64.5529 111.041C65.1066 112.035 65.7808 112.941 66.5664 113.754C69.3104 116.57 73.1976 117.998 78.1256 117.998H78.1429L81.6604 117.952L74.3953 120.968L79.9109 123.632C81.9154 124.609 84.2941 125.765 86.7126 126.647L86.025 128.531L87.9263 129.397C88.0955 129.473 91.7507 131.11 97.8296 131.458C97.8296 131.458 99.2971 131.525 100.106 131.525C100.913 131.525 102.363 131.454 102.363 131.454C108.403 131.097 112.03 129.478 112.201 129.397L114.106 128.526L113.411 126.64C115.9 125.73 118.363 124.53 120.283 123.592L125.696 120.964L118.454 117.943L121.983 117.988C126.915 117.988 130.807 116.56 133.548 113.741C134.329 112.933 135.002 112.026 135.56 111.032C136.02 111.22 136.502 111.375 137.001 111.491C137.658 111.648 138.358 111.723 139.095 111.723C140.688 111.723 141.995 111.371 142.032 111.363L146.333 110.224L144.46 106.28C144.415 106.178 143.388 103.71 144.58 100.163C144.883 99.2581 145.138 98.3478 145.344 97.4414C146.151 97.6116 146.994 97.6999 147.866 97.6999C152.958 97.6999 155.398 94.1173 155.872 93.3405L157.969 89.6915L154.082 88.0933C151.382 86.9741 150.159 84.3727 149.61 82.057C154.626 81.6283 157.322 77.399 158.143 74.8293L158.144 74.8286ZM88.6652 40.3921L88.6114 40.4057L88.6556 40.347L88.6652 40.3915V40.3921Z" fill="white"/>
<path d="M100.055 40.1743C95.9398 40.1788 92.8555 41.5256 92.1814 43.1096L100.055 46.2151L107.927 43.1096C107.258 41.5256 104.173 40.1788 100.055 40.1743V40.1743Z" fill="white"/>
<path d="M100.134 122.382H99.979C97.4837 122.399 94.052 121.887 92.3962 121.404L90.4058 126.79C91.7182 127.258 96.1623 128.151 100.059 128.151C103.946 128.151 108.396 127.254 109.703 126.79L107.717 121.404C106.057 121.891 102.629 122.399 100.134 122.382V122.382Z" fill="white"/>
<path d="M115.197 117.028C113.716 117.867 110.409 119.125 108.486 119.71L110.101 124.158C113.078 123.346 115.533 122.395 117.564 121.377L114.212 120.262L115.197 117.028V117.028Z" fill="white"/>
<path d="M84.917 117.028L85.9071 120.262L82.5518 121.377C84.578 122.395 87.0452 123.346 90.009 124.158L91.6252 119.71C89.7097 119.125 86.398 117.862 84.917 117.028V117.028Z" fill="white"/>
<path d="M100.054 35.0255C103.156 35.0255 106.201 35.7662 108.54 37.0692C108.753 36.351 109.052 35.4806 109.459 34.5703L108.575 34.6773L107.646 34.776L107.253 33.9327L106.072 31.4339L103.915 32.5589L103.076 32.9876L102.407 32.3268L100.064 30.0059L97.7263 32.3268L97.056 32.9876L96.2165 32.5589L94.0479 31.4339L92.8784 33.9327L92.4779 34.776L91.5494 34.6773L90.665 34.5703C91.072 35.4845 91.3661 36.351 91.5846 37.0692C93.9281 35.7662 96.9624 35.0255 100.055 35.0255H100.054Z" fill="white"/>
<path d="M147.412 63.9032C147.813 64.0411 148.224 64.103 148.629 64.103C150.383 64.103 152.08 62.9703 152.664 61.6719C152.664 61.6719 149.447 61.4752 145.988 57.9642C144.886 56.8257 143.721 56.4866 142.72 56.4866C141.167 56.4866 140.003 57.3079 140.003 57.3079C144.18 59.5295 145.033 63.0986 147.412 63.9025V63.9032Z" fill="white"/>
<path d="M51.4802 64.1024C51.8872 64.1024 52.2966 64.0405 52.6895 63.9025C55.0772 63.0979 55.9346 59.5295 60.1115 57.3079C60.1115 57.3079 58.942 56.4866 57.3976 56.4866C56.3941 56.4866 55.2291 56.8257 54.1224 57.9642C50.6677 61.4752 47.4495 61.6719 47.4495 61.6719C48.0249 62.9703 49.7257 64.103 51.4796 64.103L51.4802 64.1024Z" fill="white"/>
<path d="M148.545 78.4065C148.617 78.411 148.68 78.411 148.755 78.411C153.133 78.411 154.619 73.7222 154.619 73.7222H154.535C153.732 73.7222 147.22 73.5339 142.619 67.6846C139.588 63.8389 137.107 60.4569 132.202 59.1275L131.72 59.0424L131.613 58.5518C131.48 57.8014 131.993 57.1019 133.158 56.3424C139.923 51.9127 135.332 46.2645 135.332 46.2645C135.332 46.2645 133.399 50.7832 129.075 50.7832C128.972 50.7832 128.86 50.78 128.753 50.78C128.262 50.7529 127.789 50.7355 127.312 50.633L126.513 50.477C126.513 50.477 127.745 47.1258 124.772 44.0467C122.533 41.7226 119.805 41.3293 118.23 41.3293C117.436 41.3293 116.931 41.4325 116.931 41.4325C118.426 43.3872 119.506 46.6255 117.779 48.6247C116.287 50.3422 112.646 50.4273 112.646 52.988C112.646 54.0731 113.659 55.3399 115.48 56.4771C120.956 59.9263 126.392 64.4991 128.649 70.6295C131.475 78.2776 128.293 83.3501 123.749 86.2589C123.749 86.2589 125.174 87.5709 127.24 87.7366C127.659 87.7765 128.069 87.794 128.454 87.794C132.814 87.794 135.067 85.7503 135.067 85.7503C135.067 85.7503 134.698 88.5753 132.426 91.198C130.332 93.6207 127.584 95.0442 123.393 95.1068C123.393 95.1068 123.259 97.0518 125.115 98.7338C126.303 99.7969 129.047 100.144 129.047 100.144C129.047 100.144 123.91 101.183 123.343 108.768C123.035 112.878 121.987 114.306 121.987 114.306H122.08C134.001 114.306 133.692 104.084 133.692 104.084C133.692 104.084 134.523 107.109 137.848 107.898C138.25 108.005 138.678 108.045 139.088 108.045C140.159 108.045 141.088 107.796 141.088 107.796C141.088 107.796 139.347 104.123 141.074 98.9878C142.508 94.7264 142.276 91.5674 142.276 91.5674C142.276 91.5674 143.882 93.9953 147.864 94.0179H147.904C151.219 94.0179 152.664 91.5055 152.664 91.5055C144.715 88.2078 145.502 77.5626 145.502 77.5626C145.502 77.5626 146.533 78.3298 148.545 78.4059V78.4065ZM146.154 89.5256C142.922 87.9319 140.879 83.7027 140.383 82.1774C139.847 90.5655 135.75 96.3884 130.962 101.991C128.475 104.896 127.609 107.721 127.609 107.721C127.609 107.721 128.087 104.521 130.239 101.915C134.706 96.5477 138.95 89.8692 139.267 82.1458C139.486 76.7548 138.098 72.3831 135.932 68.7825C137.142 72.534 136.973 77.1307 132.863 81.4173C132.863 81.4173 141.043 71.6159 129.605 61.5677C125.026 57.744 120.018 55.3831 117.439 53.7101C126.758 56.7492 131.305 53.4019 131.305 53.4019C128.328 55.9814 124.477 55.9369 122.089 55.5668C122.736 55.884 123.409 56.2135 124.137 56.6016C131.993 60.8662 139.053 67.8851 140.257 77.6071V77.531C142.088 87.0751 146.154 89.5243 146.154 89.5243V89.5256Z" fill="white"/>
<path d="M71.0629 100.144C71.0629 100.144 73.8069 99.7995 74.995 98.7338C76.8477 97.0518 76.7182 95.1068 76.7182 95.1068C72.5227 95.0494 69.7781 93.6214 67.6711 91.2031C65.4179 88.5805 65.0424 85.7548 65.0424 85.7548C65.0424 85.7548 67.2968 87.7991 71.6525 87.7991C72.0453 87.7991 72.451 87.7804 72.8713 87.7405C74.9374 87.5761 76.3658 86.2641 76.3658 86.2641C71.8217 83.3552 68.6355 78.2782 71.4564 70.6295C73.7192 64.503 79.1501 59.9263 84.626 56.4772C86.4478 55.3399 87.4603 54.0757 87.4603 52.9881C87.4603 50.4273 83.823 50.3422 82.3325 48.6247C80.6048 46.6255 81.6897 43.3821 83.1803 41.4325C83.1803 41.4325 82.6855 41.3293 81.8864 41.3293C80.3151 41.3293 77.5878 41.722 75.3488 44.0467C72.367 47.1258 73.6038 50.477 73.6038 50.477L72.8047 50.633C72.3273 50.7355 71.8499 50.7529 71.3635 50.78C71.2513 50.78 71.1533 50.7832 71.0463 50.7832C66.7137 50.7832 64.7893 46.269 64.7893 46.269C64.7893 46.269 60.1972 51.9172 66.9591 56.3476C68.1235 57.1057 68.6317 57.8065 68.4984 58.5569L68.3914 59.0476L67.9005 59.1327C63.0046 60.462 60.5195 63.8441 57.489 67.6897C52.8963 73.5307 46.3932 73.7222 45.5813 73.7222H45.4922C45.4922 73.7222 46.9783 78.411 51.3564 78.411C51.4288 78.411 51.4903 78.411 51.5665 78.4065C53.58 78.3356 54.6143 77.5633 54.6143 77.5633C54.6143 77.5633 55.391 88.2046 47.4518 91.5061C47.4518 91.5061 48.8975 94.0185 52.2138 94.0185H52.2535C56.2381 93.9953 57.8415 91.568 57.8415 91.568C57.8415 91.568 57.6082 94.7277 59.0373 98.9885C60.7636 104.124 59.0328 107.796 59.0328 107.796C59.0328 107.796 59.9613 108.046 61.0277 108.046C61.4423 108.046 61.8671 108.006 62.2632 107.899C65.5839 107.11 66.4189 104.085 66.4189 104.085C66.4189 104.085 66.1152 114.306 78.0351 114.306H78.121C78.121 114.306 77.0758 112.878 76.772 108.769C76.2011 101.184 71.0642 100.145 71.0642 100.145L71.0629 100.144ZM69.1494 101.991C64.3599 96.3878 60.2683 90.5649 59.7281 82.1767C59.2327 83.6982 57.1975 87.9319 53.9664 89.525C53.9664 89.525 58.0273 87.0758 59.8524 77.5317V77.6077C61.0616 67.8902 68.1184 60.8669 75.9774 56.6022C76.6958 56.2096 77.3789 55.8795 78.0216 55.5675C75.6339 55.9375 71.7819 55.982 68.806 53.4026C68.806 53.4026 73.3532 56.7492 82.6676 53.7108C80.0877 55.3837 75.0847 57.7446 70.5054 61.5683C59.0629 71.6166 67.2488 81.4179 67.2488 81.4179C63.1328 77.1268 62.9687 72.5346 64.1779 68.7831C62.0094 72.3876 60.6252 76.7555 60.8489 82.1464C61.1609 89.8692 65.4058 96.5483 69.864 101.916C72.0191 104.517 72.5054 107.722 72.5054 107.722C72.5054 107.722 71.6307 104.896 69.1501 101.992L69.1494 101.991Z" fill="white"/>
<path d="M91.2414 62.7733C91.4368 62.9822 91.6284 63.2098 91.8124 63.4374C91.8572 63.4915 91.897 63.5392 91.9418 63.6024C92.111 63.83 92.2853 64.0711 92.45 64.3161C92.4865 64.3657 92.5218 64.4231 92.5621 64.4811C92.7627 64.7848 92.9505 65.0968 93.1376 65.4179C94.8563 68.3854 97.6099 70.157 100.051 70.1615C102.496 70.157 105.242 68.3854 106.968 65.4179C107.16 65.0884 107.352 64.7674 107.553 64.4676C107.585 64.4231 107.616 64.3825 107.642 64.3393C107.812 64.0846 107.99 63.8351 108.178 63.5934C108.219 63.5392 108.254 63.496 108.29 63.4509C108.481 63.2143 108.678 62.9822 108.879 62.7688C108.914 62.7333 108.942 62.7011 108.972 62.6747C109.847 61.7786 110.892 61.0952 112.257 60.7161L111.651 60.3634H111.614L109.195 58.9586L106.71 57.5352L100.068 61.1493L100.051 61.1358L100.037 61.1493L93.392 57.5352L90.9101 58.9541L88.4865 60.3609H88.4602L87.8438 60.7122C89.2138 61.0926 90.2545 61.7657 91.1337 62.6631C91.1741 62.6985 91.1997 62.7391 91.2407 62.7746L91.2414 62.7733ZM97.3638 62.4826H102.983V64.4108C102.323 63.603 101.038 63.7687 101.038 63.7687V66.548C101.038 66.548 101.087 67.9128 101.564 68.5066H98.7839C99.2703 67.9174 99.3145 66.548 99.3145 66.548V63.7687C99.3145 63.7687 98.0341 63.6037 97.3638 64.4108V62.4826Z" fill="white"/>
<path d="M99.4797 58.7439V47.4591L92.2942 45.0234L94.191 55.9601L99.4797 58.7439ZM97.9347 50.2307V52.0423L97.5874 51.8817C97.5694 51.8682 97.06 51.7521 96.168 51.0475C94.6947 49.9057 94.6684 48.8523 94.6684 48.8523L97.9347 50.2307V50.2307Z" fill="white"/>
<path d="M105.925 55.9601L107.812 45.0234L100.631 47.4591V58.7439L105.925 55.9601V55.9601ZM102.175 50.23L105.442 48.8562C105.442 48.8562 105.416 49.9083 103.938 51.052C103.05 51.7567 102.537 51.8721 102.519 51.8862L102.171 52.0474V50.2307H102.175V50.23Z" fill="white"/>
<path d="M89.3169 84.903C90.0173 85.157 90.8657 85.2112 91.2983 85.2112C91.3169 85.157 91.338 85.0906 91.3611 85.01C91.4015 84.8804 91.4367 84.756 91.4643 84.6129C91.5841 83.9888 91.6283 83.279 91.6379 82.8239C91.3431 82.6408 90.9285 82.3145 90.6959 81.8291C90.4287 81.2676 90.0493 81.009 89.4912 81.009C88.7683 81.009 87.9916 81.441 87.6616 81.6466C87.3989 83.2036 88.5453 84.6174 89.3175 84.9036L89.3169 84.903Z" fill="white"/>
<path d="M105.211 78.9157C103.877 80.3656 101.266 82.8909 101.136 83.0198L100.98 83.1804L92.7273 83.0508C92.7228 83.8676 92.5889 84.5639 92.4601 85.0725C92.437 85.1576 92.4159 85.246 92.3928 85.3356L102.212 87.0982C103.234 86.3832 106.046 84.3318 107.134 83.5285C106.34 82.368 106.265 80.9942 106.443 80.0265C105.924 79.6906 105.528 79.3167 105.211 78.915V78.9157Z" fill="white"/>
<path d="M106.33 68.9932C104.428 70.8796 102.602 71.5758 100.974 71.737C100.679 71.768 100.38 71.7867 100.077 71.7867H100.036C99.7338 71.7867 99.43 71.7686 99.1353 71.737C98.8494 71.7106 98.5508 71.6661 98.2516 71.5991C98.1439 72.0226 98.0106 72.9097 98.3945 73.7485C98.7386 74.5124 99.439 75.0791 100.461 75.4537L100.804 75.5884L100.808 75.9585C100.808 76.07 100.889 78.4702 103.509 79.1356C103.937 78.6933 104.325 78.2968 104.61 77.9667C104.075 76.7076 104.356 75.4234 105.133 74.7935C105.097 74.9276 104.758 78.077 107.284 79.2471L107.699 79.4431L107.574 79.8841C107.535 80.0182 106.691 83.0656 109.748 84.1984L110.288 84.404L110.047 84.9314C109.993 85.0474 108.793 87.8126 111.617 89.383H117.745V84.5201C115.568 84.2525 114.644 82.5041 114.407 81.2631C113.394 81.0896 112.609 80.6519 112.073 79.9382C110.789 78.2472 111.895 76.698 111.909 76.6142C111.904 76.627 111.909 78.2781 112.926 79.2955C113.43 79.7861 114.028 80.1652 114.934 80.2503L115.381 80.2902L115.421 80.7454C115.43 80.8427 115.676 83.074 117.751 83.4267L117.747 73.4945C117.747 71.9549 118.198 70.4077 118.738 68.979H106.331V68.9925L106.33 68.9932Z" fill="white"/>
<path d="M89.8393 73.543L89.6746 79.8688L90.3929 79.9771L92.1513 73.9086L91.2587 72.0435L89.8393 73.543Z" fill="white"/>
<path d="M109.226 102.558C109.279 102.558 109.343 102.567 109.4 102.58C110.494 102.893 110.771 106.837 112.689 107.19C112.877 107.23 113.051 107.238 113.202 107.238C113.756 107.238 114.086 107.003 114.443 106.583C114.443 106.583 113.479 105.066 112.756 104.044C111.796 102.706 111.051 101.086 109.265 101.086C109.225 101.086 109.172 101.086 109.128 101.09C108.538 101.121 108.176 101.408 108.176 101.408C107.454 100.952 106.779 100.796 106.167 100.796C105.048 100.796 104.178 101.309 103.744 101.309H103.727L99.7368 100.917C99.112 100.858 98.6211 100.23 98.443 99.9841C98.3981 99.9177 98.3757 99.8771 98.3757 99.8771C98.3757 99.7701 98.3757 99.6579 98.3667 99.5599C98.2328 96.2984 95.7066 94.902 94.8095 94.8794C94.8095 94.8794 94.9165 94.2599 94.6724 94.0232L93.7931 95.0896L90.9056 93.6396L92.9633 96.0444L91.2183 98.003C90.9992 98.226 91.0267 98.529 91.1151 98.6548L91.8688 99.3188L92.8236 98.7386C92.8736 98.7031 92.9582 98.6947 93.0645 98.6947C93.3286 98.6947 93.7259 98.7618 94.0822 98.7618C94.4705 98.7618 94.8095 98.6767 94.8505 98.3118C94.7294 99.5206 93.6092 101.622 94.3455 103.273L94.8902 104.518L91.3651 104.01L89.7137 106.798C89.2042 107.726 89.1248 108.731 89.6143 109.274L90.2308 110.046C90.2308 110.046 91.0966 109.127 91.2927 108.524L91.012 108.217C90.7755 107.958 90.7877 107.726 90.9319 107.445L91.9668 105.727L96.1309 106.708L96.35 106.334C96.6307 105.865 97.0376 105.723 97.4843 105.723C97.6669 105.723 97.854 105.744 98.0508 105.777C98.823 105.928 100.095 106.133 101.366 106.133C102.763 106.133 104.146 105.883 104.883 105.058C106.392 107.292 109.449 107.65 109.208 108.783L108.404 112.611C108.936 112.589 109.448 112.554 109.935 112.486L110.699 108.502C110.783 108.07 110.864 107.485 110.864 107.485C110.569 107.187 109.856 106.554 109.454 105.785C108.913 104.751 109.208 104.211 108.703 102.863C108.722 102.872 108.874 102.56 109.225 102.56L109.226 102.558ZM93.6502 96.9631C93.4458 96.9586 93.2984 96.7838 93.3074 96.5795C93.3247 96.3828 93.49 96.2268 93.6913 96.2449C93.8957 96.2533 94.0431 96.4325 94.0354 96.6285C94.0168 96.8238 93.847 96.9766 93.6502 96.9631Z" fill="white"/>
<path d="M87.9645 106.181C87.9645 106.181 89.3442 105.613 89.4698 105.208L89.2866 104.748C89.1571 104.45 89.1757 104.123 89.4256 103.945L90.9162 102.914L93.4064 103.391C93.4064 103.391 92.9553 102.83 93.0001 102.076L90.6259 101.572L88.3849 102.937C87.4256 103.656 87.3538 104.829 87.671 105.525L87.9645 106.181V106.181Z" fill="white"/>
<path d="M105.568 112.668C106.013 112.65 106.504 112.641 107.044 112.641C107.044 112.641 108.326 108.898 108.396 108.778C107.678 108.46 106.187 107.671 105.612 107.31C105.991 107.876 106.915 108.529 106.732 109.027L105.567 112.668L105.568 112.668Z" fill="white"/>
<path d="M117.76 90.4678H82.3555V103.781C82.3555 109.225 86.2953 112.633 92.1114 112.633C96.9707 112.633 98.2517 112.821 100.059 114.614C101.305 113.373 102.336 112.91 104.45 112.736L104.5 112.531L105.615 109.081C105.554 109.005 103.728 106.932 103.728 106.932C103.005 107.173 102.398 107.213 101.376 107.213C100.327 107.213 99.145 107.091 97.8634 106.851C97.7346 106.821 97.6135 106.811 97.4936 106.811C97.3373 106.811 97.3232 106.824 97.2834 106.9L97.0598 107.266L96.6548 107.935L95.8916 107.761L92.4952 106.962L92.0306 107.73L92.1024 107.81L92.517 108.265L92.3344 108.858C92.0844 109.635 91.2725 110.54 91.0271 110.791L90.178 111.7L89.4064 110.724L88.8259 109.996C88.2152 109.313 88.0723 108.265 88.4157 107.167C88.4068 107.176 88.3927 107.18 88.3805 107.18L87.4199 107.578L86.9867 106.641L86.6829 105.975C86.1613 104.807 86.3529 103.099 87.7589 102.068L90.4952 100.524L93.0969 101.038C93.1597 100.787 93.2533 99.8945 93.3289 99.667C93.2809 99.6637 93.2322 99.6502 93.1828 99.6502L91.682 100.207L90.2363 99.2079C90.2363 99.2079 89.6698 98.6645 90.1825 98.1197L91.584 95.9999L88.037 91.547L93.4898 93.7873L93.8518 93.3373L94.5881 92.458L95.4218 93.2522C95.659 93.4798 95.7929 93.7609 95.8589 94.0413C97.3629 94.6261 100.054 96.3532 100.291 99.1602L99.4469 99.4993V99.5213C99.6391 99.7488 99.8 99.843 99.8487 99.8507L103.741 100.236C103.839 100.217 103.964 100.172 104.102 100.132C104.585 99.9667 105.312 99.7308 106.174 99.7308C106.874 99.7308 107.552 99.8913 108.204 100.195C108.445 100.105 108.739 100.039 109.078 100.016L109.266 100.011C111.35 100.011 112.386 101.569 113.216 102.809C113.354 103.023 113.492 103.228 113.635 103.429C114.362 104.455 115.312 105.959 115.353 106.021L115.781 106.691L115.255 107.302C114.848 107.771 114.241 108.32 113.198 108.32C112.983 108.32 112.746 108.297 112.493 108.248C112.269 108.207 112.068 108.141 111.871 108.06C111.84 108.266 111.801 108.511 111.76 108.721L111.078 112.282C115.161 111.277 117.754 108.195 117.754 103.787L117.758 90.4684L117.76 90.4678Z" fill="#FFDD2D"/>
<path d="M82.3555 89.3964H109.888C108.513 87.9774 108.531 86.1793 108.883 85.0098C108.483 84.8184 108.151 84.5863 107.856 84.3368C106.782 85.1304 103.496 87.5229 102.639 88.1199L102.457 88.2449L91.6513 86.2909H91.4334C91.1745 86.2909 90.7952 86.2812 90.3805 86.2322C90.2639 86.7196 89.8448 87.0535 89.3616 87.0535C89.3091 87.0535 89.2463 87.049 89.188 87.0355C88.9073 86.9871 88.6612 86.844 88.4959 86.6068C88.3267 86.376 88.2594 86.0987 88.3088 85.8131L88.3485 85.581C87.2328 84.7964 86.2069 83.0429 86.6619 81.1952L86.7061 80.9985L86.8624 80.887C86.8842 80.8683 87.0726 80.7445 87.3495 80.5833L86.5638 80.4628C86.269 80.4093 86.0729 80.1366 86.1172 79.8471C86.1665 79.5531 86.444 79.343 86.7336 79.4016L88.6029 79.6956L88.7727 73.11L91.5571 70.165L93.2931 73.8185L91.459 80.1546L93.1105 80.4131C93.4007 80.4576 93.6013 80.7303 93.5571 81.0288C93.5129 81.2919 93.2899 81.475 93.0265 81.475C93.0002 81.475 92.9682 81.475 92.9419 81.4711L91.5981 81.2519C91.6161 81.2919 91.6423 81.3151 91.6609 81.3596C91.8038 81.6535 92.121 81.8669 92.3081 81.9572L100.547 82.0874C100.895 81.747 101.76 80.8993 102.649 80.0031C100.622 79.2353 99.8865 77.4869 99.7609 76.3264C98.6279 75.8448 97.8468 75.1215 97.4142 74.1802C96.8868 73.0152 97.0752 71.8516 97.2136 71.2849C96.1153 70.8826 94.9592 70.1509 93.7807 68.9827H81.3738C81.905 70.4094 82.3562 71.9586 82.3562 73.4975V89.3951L82.3555 89.3964Z" fill="#FFDD2D"/>
<path d="M93.6942 96.2453C93.4942 96.2273 93.3238 96.3833 93.3103 96.5799C93.2975 96.7843 93.4487 96.959 93.6538 96.9635C93.8505 96.9809 94.0248 96.8294 94.0421 96.6276C94.0421 96.431 93.8992 96.2485 93.6942 96.2453V96.2453Z" fill="black"/>
<path d="M117.71 120.386L115.671 119.606L116.233 117.5L116.854 115.202C116.854 115.202 113.238 117.161 108.146 118.633C106.7 119.049 105.607 119.236 105.607 119.236V120.797C105.607 120.797 102.884 121.269 100.13 121.269H99.9751C97.2208 121.269 94.4992 120.797 94.4992 120.797V119.236C94.4992 119.236 93.4009 119.049 91.959 118.633C86.867 117.161 83.256 115.202 83.256 115.202L83.868 117.5L84.4434 119.606L82.3992 120.386L80.1313 121.234C82.7337 122.489 86.3358 124.318 89.6341 125.218L88.8574 127.343C88.8574 127.343 93.0394 129.247 100.006 129.266V129.27H100.104V129.266C107.079 129.247 111.257 127.343 111.257 127.343L110.476 125.218C113.774 124.318 117.385 122.489 119.973 121.234L117.71 120.386ZM82.5511 121.378L85.9077 120.263L84.9164 117.028C86.3941 117.866 89.7097 119.125 91.629 119.709L90.0084 124.157C87.0452 123.34 84.5767 122.39 82.5511 121.378ZM100.059 128.15C96.1628 128.15 91.7129 127.253 90.4057 126.789L92.3961 121.404C94.0475 121.885 97.4842 122.399 99.9789 122.382H100.134C102.629 122.399 106.056 121.885 107.717 121.404L109.703 126.789C108.395 127.258 103.951 128.15 100.059 128.15ZM110.101 124.157L108.485 119.709C110.409 119.125 113.716 117.866 115.197 117.028L114.21 120.263L117.562 121.378C115.532 122.39 113.078 123.34 110.101 124.157V124.157Z" fill="black"/>
<path d="M100.054 36.3277C104.206 36.3277 107.525 37.7028 109.359 39.1701C109.359 39.1701 109.904 35.8912 111.765 32.9946L108.423 33.3737L106.674 29.6583L103.312 31.3886L100.054 28.1677L96.8055 31.3886L93.4405 29.6583L91.6956 33.3737L88.353 32.9946C90.2146 35.8906 90.7593 39.1701 90.7593 39.1701C92.5978 37.7028 95.9083 36.3277 100.055 36.3277H100.054ZM91.5443 34.6779L92.4716 34.7752L92.8734 33.932L94.0429 31.4331L96.2114 32.5536L97.0509 32.9823L97.7199 32.3215L100.059 30.0019L102.402 32.3215L103.071 32.9823L103.91 32.5536L106.066 31.4331L107.249 33.932L107.642 34.7752L108.57 34.6779L109.453 34.5702C109.048 35.4844 108.749 36.3509 108.534 37.0691C106.196 35.7661 103.152 35.0254 100.05 35.0254C96.9618 35.0254 93.9231 35.7661 91.5751 37.0691C91.3559 36.3509 91.0611 35.4812 90.6555 34.5702L91.5437 34.6779H91.5443Z" fill="black"/>
<path d="M148.751 79.8421C154.12 79.8421 155.914 74.3809 155.99 74.1488L156.588 72.2257L154.575 72.2889H154.566C153.857 72.2889 147.934 72.1329 143.734 66.796L143.338 66.3009C140.592 62.8112 137.991 59.4968 133.341 57.9837C133.474 57.8644 133.666 57.7116 133.93 57.5427C136.398 55.9181 137.835 53.9466 138.197 51.6586C138.724 48.2126 136.527 45.4695 136.429 45.3579L134.934 43.5109L134.001 45.7016C133.94 45.8395 132.369 49.3467 129.066 49.3467H128.82C128.593 49.3331 128.378 49.3235 128.163 49.3067C128.28 47.7407 127.994 45.3173 125.798 43.046C123.161 40.3119 119.921 39.9019 118.224 39.9019C117.319 39.9019 116.716 40.0134 116.654 40.0211L114.395 40.4679L115.788 42.3014C116.882 43.7159 117.873 46.3263 116.699 47.6911C116.324 48.1243 115.551 48.477 114.811 48.829C113.289 49.5298 111.214 50.5026 111.214 52.9834C111.214 54.5894 112.459 56.2669 114.718 57.6949C121.403 61.8976 125.527 66.2842 127.307 71.1245C130.061 78.5721 126.468 82.8194 122.978 85.0539L121.412 86.0622L122.781 87.3206C122.965 87.4818 124.643 88.9575 127.12 89.1728C127.587 89.2038 128.039 89.2302 128.458 89.2302C130.048 89.2302 131.4 88.9807 132.497 88.6461C132.194 89.1774 131.824 89.717 131.355 90.2605C129.361 92.5717 126.905 93.6245 123.375 93.6786L122.063 93.7018L121.96 95.0177C121.947 95.2807 121.849 97.7222 124.161 99.7962C124.514 100.118 124.942 100.381 125.389 100.599C123.822 102.009 122.229 104.464 121.921 108.671C121.661 112.182 120.823 113.481 120.814 113.494L119.364 115.707L121.983 115.742C126.312 115.742 129.628 114.546 131.927 112.182C133.284 110.781 134.06 109.202 134.519 107.8C135.274 108.443 136.247 109.005 137.514 109.304C137.996 109.416 138.523 109.479 139.09 109.479C140.313 109.479 141.335 109.219 141.45 109.193L143.124 108.747L142.383 107.184C142.329 107.06 140.933 103.928 142.437 99.4571C143.084 97.5255 143.414 95.7945 143.575 94.4465C144.628 94.9957 146.039 95.4509 147.864 95.4554C152.006 95.4554 153.832 92.3635 153.916 92.2339L154.733 90.8149L153.22 90.1895C148.284 88.142 147.19 82.6401 146.972 79.6597C147.418 79.7448 147.926 79.8247 148.502 79.8421H148.752H148.751ZM152.664 91.506C152.664 91.506 151.218 94.0178 147.903 94.0178H147.862C143.882 93.9958 142.276 91.5685 142.276 91.5685C142.276 91.5685 142.508 94.7282 141.07 98.9884C139.343 104.124 141.083 107.796 141.083 107.796C141.083 107.796 140.155 108.046 139.084 108.046C138.674 108.046 138.246 108.006 137.843 107.899C134.517 107.11 133.689 104.083 133.689 104.083C133.689 104.083 133.996 114.306 122.076 114.306H121.982C121.982 114.306 123.03 112.878 123.344 108.768C123.91 101.184 129.047 100.144 129.047 100.144C129.047 100.144 126.307 99.8 125.12 98.7337C123.262 97.0517 123.393 95.1066 123.393 95.1066C127.587 95.048 130.333 93.6213 132.426 91.1978C134.693 88.5739 135.068 85.7502 135.068 85.7502C135.068 85.7502 132.815 87.7938 128.453 87.7938C128.07 87.7938 127.659 87.7758 127.241 87.7352C125.178 87.5708 123.749 86.2588 123.749 86.2588C128.289 83.3499 131.475 78.273 128.65 70.6243C126.388 64.4983 120.952 59.921 115.48 56.4719C113.659 55.3346 112.646 54.0704 112.646 52.9828C112.646 50.422 116.288 50.3414 117.783 48.6195C119.506 46.6202 118.426 43.3768 116.931 41.4272C116.931 41.4272 117.435 41.3241 118.23 41.3241C119.806 41.3241 122.533 41.7212 124.773 44.0408C127.75 47.1199 126.513 50.4704 126.513 50.4704L127.312 50.6264C127.79 50.7295 128.263 50.747 128.754 50.7702C128.861 50.7702 128.968 50.7747 129.075 50.7747C133.399 50.7747 135.332 46.2547 135.332 46.2547C135.332 46.2547 139.929 51.9074 133.163 56.3326C131.998 57.0921 131.485 57.7916 131.619 58.542L131.726 59.0326L132.208 59.1177C137.113 60.4471 139.594 63.8292 142.624 67.6748C147.226 73.5248 153.737 73.7124 154.54 73.7124H154.625C154.625 73.7124 153.14 78.4006 148.761 78.4006C148.689 78.4006 148.628 78.4006 148.551 78.3961C146.538 78.3252 145.507 77.5528 145.507 77.5528C145.507 77.5528 144.717 88.2032 152.665 91.5047L152.664 91.506Z" fill="black"/>
<path d="M139.319 58.5739C141.324 59.6415 142.488 61.0682 143.51 62.335C144.515 63.5716 145.47 64.763 146.961 65.2581C147.492 65.4405 148.053 65.5256 148.626 65.5256C150.866 65.5256 153.115 64.1563 153.968 62.2596L154.824 60.359L152.749 60.234C152.651 60.2295 149.982 59.9883 147.009 56.9505C145.786 55.705 144.31 55.0493 142.715 55.0493C140.769 55.0493 139.328 56.0228 139.168 56.1202L137.257 57.4631L139.319 58.5739H139.319ZM142.72 56.4863C143.721 56.4863 144.886 56.8255 145.988 57.9627C149.447 61.475 152.664 61.6704 152.664 61.6704C152.08 62.9649 150.383 64.1022 148.629 64.1022C148.224 64.1022 147.817 64.0403 147.412 63.901C145.033 63.0977 144.18 59.528 139.997 57.3077C139.997 57.3077 141.167 56.4863 142.72 56.4863Z" fill="black"/>
<path d="M140.257 77.5315V77.603C139.052 67.8855 131.992 60.868 124.138 56.5975C123.409 56.2088 122.74 55.8793 122.089 55.5621C124.481 55.9322 128.333 55.9767 131.305 53.3992C131.305 53.3992 126.758 56.7445 117.439 53.7067C120.017 55.3797 125.03 57.7393 129.605 61.563C141.043 71.6112 132.858 81.4138 132.858 81.4138C136.968 77.126 137.138 72.5299 135.928 68.7784C138.093 72.3791 139.476 76.752 139.263 82.1411C138.945 89.8639 134.701 96.5436 130.234 101.911C128.087 104.517 127.605 107.716 127.605 107.716C127.605 107.716 128.471 104.892 130.958 101.987C135.746 96.3831 139.839 90.5602 140.374 82.172C140.87 83.6941 142.91 87.9279 146.145 89.5203C146.154 89.5248 142.089 87.0756 140.258 77.5315H140.257Z" fill="black"/>
<path d="M79.2975 113.489C79.293 113.476 78.4625 112.177 78.1953 108.666C77.8826 104.459 76.294 102.005 74.7227 100.595C75.1783 100.381 75.5974 100.118 75.9505 99.7928C78.2587 97.7175 78.16 95.2767 78.1466 95.0137L78.0575 93.6978L76.7361 93.6746C73.2142 93.6172 70.7553 92.5638 68.7604 90.2577C68.2965 89.713 67.9223 89.1733 67.6185 88.6421C68.7162 88.9767 70.06 89.2269 71.6531 89.2269C72.0812 89.2269 72.5234 89.1991 72.9918 89.1682C75.4692 88.9529 77.1475 87.4817 77.3353 87.316L78.7041 86.0582L77.1386 85.0505C73.6345 82.8102 70.0556 78.5623 72.8047 71.1199C74.5849 66.2795 78.7041 61.893 85.3988 57.6902C87.6577 56.2622 88.8932 54.5847 88.8932 52.9788C88.8932 50.498 86.8227 49.5206 85.3007 48.8256C84.5606 48.473 83.789 48.1203 83.4129 47.6871C82.235 46.3268 83.2302 43.7119 84.3196 42.2974L85.7211 40.4639L83.4539 40.0178C83.3866 40.0087 82.7932 39.8972 81.8826 39.8972C80.187 39.8972 76.9546 40.3072 74.3132 43.0433C72.1126 45.3178 71.8223 47.7412 71.9344 49.3027C71.7198 49.3208 71.5064 49.3291 71.2827 49.3427H71.0418C67.7313 49.3427 66.1645 45.8362 66.1017 45.6969L65.1686 43.5062L63.6595 45.3533C63.5749 45.4648 61.3711 48.2145 61.9056 51.6539C62.2631 53.9426 63.7012 55.9141 66.169 57.5387C66.4362 57.7076 66.6233 57.8604 66.7585 57.9797C62.1119 59.4928 59.5147 62.8117 56.7694 66.3014L56.3733 66.7966C52.1772 72.1334 46.2413 72.2894 45.5325 72.2894L43.5107 72.2262L44.1266 74.1493C44.1977 74.3814 45.9882 79.8426 51.3615 79.8426L51.621 79.8349C52.1875 79.8162 52.6957 79.7401 53.1513 79.6518C52.9283 82.6277 51.8344 88.1289 46.8943 90.1817L45.3858 90.8057L46.2022 92.2247C46.2829 92.3549 48.1125 95.4462 52.2625 95.4462C54.0747 95.4417 55.4852 94.9866 56.5425 94.4386C56.7034 95.7854 57.0334 97.5164 57.6813 99.4479C59.1853 103.92 57.7838 107.051 57.7306 107.177L56.9892 108.738L58.6668 109.184C58.779 109.211 59.8101 109.47 61.0283 109.47C61.5993 109.47 62.126 109.407 62.5989 109.295C63.871 108.997 64.8527 108.434 65.5986 107.792C66.053 109.192 66.8341 110.773 68.1863 112.173C70.4894 114.538 73.8018 115.734 78.1299 115.734L80.7541 115.698L79.2994 113.49L79.2975 113.489ZM78.03 114.306C66.1094 114.306 66.4131 104.083 66.4131 104.083C66.4131 104.083 65.5826 107.108 62.2574 107.899C61.8613 108.006 61.4365 108.046 61.0219 108.046C59.9504 108.046 59.027 107.795 59.027 107.795C59.027 107.795 60.7579 104.124 59.0315 98.9882C57.6031 94.7281 57.8344 91.5684 57.8344 91.5684C57.8344 91.5684 56.2324 93.9963 52.2477 94.0176H52.2073C48.8911 94.0176 47.4441 91.5059 47.4441 91.5059C55.389 88.2082 54.6079 77.563 54.6079 77.563C54.6079 77.563 53.5768 78.3302 51.5601 78.4063C51.4877 78.4108 51.4217 78.4108 51.3499 78.4108C46.9673 78.4108 45.4858 73.7206 45.4858 73.7206H45.5748C46.3823 73.7206 52.886 73.5336 57.4871 67.6843C60.5169 63.838 63.0027 60.4611 67.8985 59.1272L68.3894 59.0421L68.4964 58.5515C68.6304 57.8011 68.1209 57.1003 66.9572 56.3422C60.1907 51.9124 64.7873 46.263 64.7873 46.263C64.7873 46.263 66.7117 50.7778 71.0443 50.7778C71.1514 50.7778 71.25 50.7745 71.3615 50.7745C71.8479 50.7468 72.3298 50.7294 72.8028 50.6263L73.6006 50.4702C73.6006 50.4702 72.3651 47.1198 75.3468 44.0407C77.5865 41.7166 80.3132 41.3239 81.8845 41.3239C82.6823 41.3239 83.1783 41.4271 83.1783 41.4271C81.6878 43.3818 80.6073 46.6201 82.3305 48.6193C83.8211 50.3368 87.4584 50.4219 87.4584 52.9826C87.4584 54.067 86.4459 55.3332 84.624 56.4717C79.1482 59.9209 73.7121 64.4982 71.4545 70.6241C68.6336 78.2728 71.8152 83.3446 76.3638 86.2587C76.3638 86.2587 74.9354 87.5706 72.8694 87.735C72.449 87.7756 72.044 87.7937 71.6506 87.7937C67.2936 87.7937 65.0405 85.75 65.0405 85.75C65.0405 85.75 65.4147 88.5738 67.6691 91.1977C69.7749 93.6205 72.5202 95.0478 76.715 95.1065C76.715 95.1065 76.8496 97.0515 74.9931 98.7336C73.8012 99.7954 71.061 100.144 71.061 100.144C71.061 100.144 76.2023 101.183 76.7643 108.768C77.0726 112.878 78.112 114.306 78.112 114.306H78.0274H78.03Z" fill="black"/>
<path d="M51.4788 65.5311C52.0542 65.5311 52.6175 65.446 53.1488 65.2635C54.6483 64.7684 55.5993 63.577 56.6034 62.3404C57.63 61.073 58.7854 59.6463 60.7899 58.5786L62.8515 57.4723L60.9373 56.1294C60.7765 56.0269 59.3397 55.0586 57.3981 55.0586C55.7992 55.0586 54.3183 55.7104 53.0994 56.9598C50.1266 59.9931 47.4627 60.2387 47.364 60.2432L45.2891 60.3638L46.1407 62.2689C46.9981 64.1566 49.2423 65.5304 51.4781 65.5304L51.4788 65.5311ZM54.1215 57.9675C55.2282 56.8302 56.3932 56.4911 57.3981 56.4911C58.9424 56.4911 60.1119 57.3112 60.1119 57.3112C55.9344 59.538 55.077 63.1031 52.6899 63.9058C52.2971 64.045 51.8857 64.1069 51.4794 64.1069C49.7268 64.1069 48.0305 62.9742 47.4493 61.6745C47.4493 61.6713 50.663 61.4746 54.1222 57.9668L54.1215 57.9675Z" fill="black"/>
<path d="M60.847 82.1458C60.6233 76.7562 62.0075 72.3832 64.1761 68.7826C62.9668 72.5347 63.1322 77.1307 67.2469 81.418C67.2469 81.418 59.0623 71.6154 70.5048 61.5671C75.0829 57.7434 80.0909 55.3838 82.6664 53.7108C73.352 56.7486 68.8047 53.4014 68.8047 53.4014C71.7775 55.9808 75.6282 55.9363 78.0204 55.5611C77.3732 55.8783 76.6945 56.2077 75.9762 56.5965C68.1126 60.867 61.0559 67.8845 59.8479 77.602V77.5259C58.0216 87.07 53.9607 89.5192 53.9607 89.5192C57.1917 87.9268 59.2263 83.6963 59.7223 82.171C60.2625 90.5591 64.3555 96.3814 69.1437 101.986C71.6288 104.891 72.5048 107.715 72.5048 107.715C72.5048 107.715 72.0184 104.516 69.8621 101.91C65.4039 96.5516 61.1591 89.8674 60.847 82.1445V82.1458Z" fill="black"/>
<path d="M97.3639 62.4824V64.4107C98.0297 63.6029 99.3146 63.7686 99.3146 63.7686V66.5479C99.3146 66.5479 99.2704 67.9127 98.784 68.5065H101.565C101.087 67.9172 101.038 66.5479 101.038 66.5479V63.7686C101.038 63.7686 102.322 63.6035 102.983 64.4107V62.4824H97.3633H97.3639Z" fill="black"/>
<path d="M96.1672 51.0524C97.0554 51.757 97.5687 51.8724 97.5867 51.8866L97.9353 52.0478V50.231L94.6677 48.8572C94.6677 48.8617 94.6985 49.9106 96.1672 51.053V51.0524Z" fill="black"/>
<path d="M103.939 51.0518C105.416 49.91 105.443 48.856 105.443 48.856L102.176 50.2298V52.0466L102.52 51.8854C102.543 51.8719 103.051 51.7558 103.939 51.0512V51.0518Z" fill="black"/>
<path d="M109.824 43.6584C109.824 40.9056 105.186 38.4299 100.067 38.4299H100.035C94.9162 38.4299 90.2792 40.9056 90.2792 43.6584L90.3824 44.3366L92.4266 56.0669L90.3734 57.2583L85.0629 60.3593H85.0802C85.0802 60.3593 83.8844 60.9705 83.3314 61.3496C81.309 62.7544 80.8809 64.8032 82.0549 65.651C82.3452 63.9812 83.6666 62.2328 86.1389 62.2328C87.9191 62.2328 89.2757 63.1521 90.3734 64.5305C90.6554 64.8786 90.9226 65.2487 91.1732 65.651C91.4814 66.1545 91.7884 66.5967 92.0972 67.0248H78.4182C79.4217 69.046 80.3766 71.187 80.3766 73.5111V103.78C80.3766 111.106 86.0133 114.604 92.1107 114.604C96.8227 114.604 97.4564 114.391 100.059 116.978C102.646 114.386 103.28 114.604 107.998 114.604C114.099 114.604 119.726 111.106 119.726 103.78V73.5111C119.726 71.187 120.682 69.0453 121.69 67.0248H108.007C108.311 66.6006 108.618 66.1538 108.926 65.651C109.18 65.2487 109.443 64.8786 109.721 64.5305C110.827 63.147 112.179 62.2328 113.96 62.2328C116.432 62.2328 117.749 63.9767 118.044 65.651C119.218 64.8032 118.794 62.7544 116.759 61.3496C116.214 60.9705 115.017 60.3593 115.017 60.3593H115.035L109.725 57.2583L107.681 56.0669L109.725 44.3366L109.823 43.6584H109.824ZM92.2927 45.0232L99.4782 47.4602V58.7437L94.1895 55.9554L92.2927 45.0232V45.0232ZM93.7781 68.9918C94.9566 70.1658 96.112 70.893 97.211 71.294C97.0674 71.8607 96.8797 73.0302 97.4109 74.1939C97.8435 75.1313 98.6291 75.854 99.7589 76.3368C99.8832 77.496 100.615 79.2412 102.646 80.0135C101.758 80.9097 100.892 81.7529 100.54 82.0966L92.3049 81.9676C92.1184 81.8735 91.8012 81.6633 91.6583 81.3648C91.6397 81.3242 91.6134 81.3029 91.6 81.2578L92.9431 81.4764C92.9752 81.4809 93.0014 81.4809 93.029 81.4809C93.2872 81.4809 93.5154 81.3029 93.5602 81.0354C93.6044 80.7369 93.4032 80.4642 93.1136 80.4197L91.4622 80.1612L93.2962 73.8296L91.5602 70.1748L88.7746 73.1192L88.6054 79.706L86.7348 79.4108C86.4445 79.3534 86.1683 79.5668 86.119 79.8575C86.0748 80.147 86.2709 80.4191 86.5656 80.4732L87.3513 80.5931C87.0693 80.7537 86.8867 80.8787 86.8649 80.8961L86.7041 81.009L86.6598 81.2043C86.2042 83.0514 87.2353 84.8049 88.3465 85.5908L88.3068 85.8229C88.2625 86.1079 88.3247 86.3844 88.4939 86.6165C88.6547 86.8531 88.9046 86.9956 89.1815 87.0453C89.2398 87.0543 89.3013 87.0588 89.3551 87.0588C89.837 87.0588 90.2574 86.7229 90.3773 86.2374C90.7931 86.2871 91.1719 86.2948 91.4301 86.2948H91.6493L102.454 88.2457L102.638 88.1251C103.499 87.5217 106.779 85.1312 107.855 84.3408C108.15 84.5961 108.48 84.8275 108.882 85.0196C108.533 86.1885 108.511 87.9859 109.89 89.4055H82.3542V73.5169C82.3542 71.9774 81.903 70.4301 81.3718 69.0015H93.7787V68.9924L93.7781 68.9918ZM107.132 83.5291C106.037 84.3317 103.226 86.3838 102.208 87.0975L92.3901 85.3362C92.4119 85.2466 92.4343 85.1614 92.4561 85.0718C92.5862 84.5645 92.7156 83.8675 92.7246 83.0507L100.977 83.1848L101.133 83.0236C101.258 82.8986 103.873 80.3733 105.208 78.9188C105.524 79.3166 105.922 79.6957 106.439 80.0297C106.261 80.9935 106.336 82.368 107.131 83.5284L107.132 83.5291ZM90.6945 81.829C90.9264 82.3151 91.3449 82.6413 91.6358 82.8238C91.6275 83.2783 91.582 83.9887 91.4622 84.6128C91.4346 84.7514 91.3994 84.8817 91.359 85.0099C91.3359 85.0905 91.3148 85.1569 91.2962 85.2111C90.8636 85.2111 90.0113 85.1569 89.3148 84.9029C88.5426 84.6167 87.3917 83.2029 87.6589 81.6459C87.9934 81.4403 88.7656 81.0083 89.4884 81.0083C90.0466 81.0038 90.426 81.2668 90.6945 81.8284V81.829ZM89.6723 79.8704L89.8364 73.5479L91.2558 72.0451L92.1485 73.9102L90.3901 79.9774L89.6717 79.8704H89.6723ZM107.043 112.646C106.507 112.646 106.011 112.655 105.565 112.674L106.734 109.038C106.917 108.534 105.993 107.886 105.614 107.319C106.19 107.681 107.681 108.47 108.399 108.787C108.323 108.903 107.043 112.646 107.043 112.646V112.646ZM110.711 108.515L109.947 112.495C109.461 112.562 108.944 112.598 108.413 112.62L109.216 108.792C109.456 107.654 106.4 107.301 104.891 105.066C104.154 105.896 102.767 106.141 101.374 106.141C100.102 106.141 98.8304 105.937 98.0582 105.784C97.8614 105.753 97.6743 105.731 97.4917 105.731C97.045 105.731 96.6387 105.869 96.3574 106.342L96.1344 106.717L91.9697 105.736L90.9348 107.449C90.7874 107.726 90.7784 107.962 91.0149 108.221L91.2956 108.529C91.104 109.136 90.2382 110.05 90.2382 110.05L89.6179 109.278C89.127 108.728 89.2071 107.73 89.7211 106.802L91.3725 104.014L94.8983 104.521L94.3491 103.272C93.6134 101.621 94.7323 99.5201 94.8534 98.3113C94.8137 98.6769 94.4792 98.7568 94.0857 98.7568C93.7281 98.7568 93.3308 98.6904 93.0681 98.6904C92.9649 98.6904 92.8765 98.6994 92.8271 98.7343L91.871 99.3145L91.1174 98.6505C91.0283 98.5209 90.9963 98.2217 91.2206 97.9987L92.9655 96.0446L90.9034 93.6399L93.7916 95.0898L94.6708 94.0235C94.9117 94.2601 94.8092 94.8796 94.8092 94.8796C95.7102 94.9028 98.2363 96.2986 98.3709 99.5556C98.3786 99.6542 98.3786 99.7658 98.3786 99.8728C98.3786 99.8728 98.4016 99.9128 98.4459 99.9798C98.624 100.225 99.1155 100.854 99.7397 100.913L103.73 101.305H103.748C104.185 101.305 105.056 100.791 106.172 100.791C106.778 100.791 107.456 100.948 108.179 101.403C108.179 101.403 108.541 101.117 109.13 101.086C109.175 101.082 109.225 101.082 109.269 101.082C111.058 101.082 111.799 102.697 112.759 104.04C113.481 105.061 114.445 106.579 114.445 106.579C114.089 107.003 113.758 107.235 113.205 107.235C113.053 107.235 112.878 107.222 112.691 107.186C110.773 106.832 110.497 102.889 109.403 102.576C109.344 102.559 109.283 102.554 109.229 102.554C108.876 102.554 108.72 102.866 108.72 102.866C109.22 104.209 108.93 104.753 109.465 105.788C109.867 106.555 110.581 107.189 110.876 107.488C110.876 107.497 110.795 108.077 110.711 108.514V108.515ZM89.2847 104.75L89.4673 105.21C89.3462 105.611 87.9633 106.182 87.9633 106.182L87.664 105.53C87.3474 104.834 87.4134 103.66 88.3792 102.943L90.6188 101.577L92.9931 102.081C92.9489 102.836 93.4 103.397 93.4 103.397L90.9091 102.92L89.4192 103.951C89.1687 104.125 89.152 104.45 89.2859 104.75H89.2847ZM111.085 112.277L111.769 108.716C111.805 108.507 111.849 108.261 111.881 108.055C112.072 108.136 112.278 108.202 112.501 108.242C112.755 108.292 112.992 108.314 113.207 108.314C114.25 108.314 114.858 107.766 115.263 107.297L115.79 106.686L115.362 106.016C115.321 105.95 114.376 104.45 113.644 103.424C113.501 103.223 113.362 103.023 113.224 102.804C112.395 101.564 111.355 100.007 109.271 100.007L109.084 100.011C108.74 100.034 108.445 100.1 108.209 100.19C107.552 99.8818 106.878 99.7258 106.179 99.7258C105.317 99.7258 104.589 99.9624 104.107 100.127C103.968 100.167 103.844 100.212 103.746 100.229L99.8493 99.8464C99.7999 99.8367 99.6391 99.7426 99.4475 99.5105V99.4931L100.291 99.154C100.055 96.3469 97.359 94.6204 95.855 94.0357C95.789 93.7553 95.6551 93.4735 95.4173 93.2466L94.5791 92.453L93.8428 93.3369L93.4808 93.7869L88.028 91.5465L91.5762 95.9995L90.1748 98.1192C89.6608 98.6627 90.2273 99.2075 90.2273 99.2075L91.673 100.202L93.1738 99.6446C93.2276 99.6446 93.2719 99.6575 93.3212 99.662C93.2494 99.8896 93.1559 100.782 93.0931 101.033L90.492 100.519L87.7556 102.063C86.3497 103.093 86.1581 104.802 86.6803 105.972L86.9841 106.636L87.4167 107.573L88.3715 107.175C88.3849 107.171 88.399 107.166 88.408 107.158C88.0639 108.255 88.2023 109.3 88.8181 109.986L89.3987 110.718L90.1703 111.695L91.0187 110.784C91.2686 110.534 92.0767 109.628 92.3266 108.852L92.5106 108.259L92.0947 107.804L92.0274 107.723L92.492 106.955L95.8883 107.754L96.6509 107.928L97.0578 107.259L97.2802 106.892C97.3199 106.817 97.334 106.804 97.4904 106.804C97.6102 106.804 97.7313 106.817 97.8608 106.844C99.1424 107.086 100.324 107.205 101.373 107.205C102.391 107.205 102.997 107.165 103.724 106.924C103.724 106.924 105.551 108.995 105.612 109.075L104.497 112.519L104.447 112.729C102.332 112.899 101.301 113.363 100.056 114.607C98.2485 112.814 96.9668 112.627 92.1075 112.627C86.2914 112.627 82.3516 109.218 82.3516 103.775V90.4654H117.751L117.76 103.775C117.765 108.191 115.171 111.27 111.087 112.274L111.085 112.277ZM118.741 68.9931C118.201 70.4211 117.749 71.9697 117.749 73.5085L117.754 83.4408C115.679 83.0926 115.433 80.8568 115.424 80.7595L115.384 80.3043L114.937 80.2643C114.036 80.1792 113.438 79.7956 112.933 79.305C111.915 78.287 111.911 76.6373 111.915 76.6237C111.903 76.7088 110.795 78.2561 112.081 79.9471C112.621 80.6621 113.402 81.0986 114.415 81.2733C114.652 82.513 115.575 84.2627 117.753 84.5303V89.3939H111.63C108.804 87.8221 110.001 85.057 110.059 84.9403L110.3 84.4142L109.76 84.2086C106.703 83.0746 107.542 80.0232 107.587 79.8943L107.711 79.4469L107.296 79.2515C104.769 78.082 105.114 74.9282 105.145 74.7979C104.368 75.4265 104.087 76.7121 104.623 77.9705C104.332 78.2999 103.945 78.7022 103.52 79.1387C100.905 78.4747 100.825 76.0686 100.825 75.9584L100.82 75.5871L100.477 75.4536C99.4545 75.0732 98.7541 74.5065 98.4106 73.7439C98.0223 72.9006 98.1607 72.0174 98.2677 71.5932C98.5657 71.6608 98.865 71.7092 99.1508 71.7324C99.4449 71.7634 99.7493 71.7808 100.053 71.7808H100.093C100.397 71.7808 100.696 71.7634 100.991 71.7324C102.619 71.5712 104.444 70.8704 106.345 68.9879H118.739V68.9924L118.741 68.9931ZM109.198 58.9539L111.617 60.3606H111.653L112.26 60.7132C110.894 61.0923 109.85 61.7744 108.975 62.6712C108.944 62.6989 108.912 62.7344 108.882 62.7653C108.68 62.9794 108.48 63.2114 108.292 63.4481C108.257 63.4925 108.22 63.5422 108.18 63.5905C107.993 63.8316 107.819 64.0773 107.649 64.3364C107.622 64.3816 107.59 64.4261 107.56 64.4667C107.359 64.7652 107.167 65.0856 106.975 65.417C105.253 68.3832 102.503 70.1555 100.058 70.1593C97.6166 70.1548 94.8675 68.3832 93.1443 65.417C92.9572 65.0952 92.7695 64.7826 92.5689 64.4796C92.5285 64.4222 92.4933 64.3635 92.4567 64.3152C92.2876 64.0695 92.1184 63.8284 91.9441 63.6002C91.8999 63.5383 91.8595 63.4887 91.8153 63.4358C91.6281 63.2069 91.4346 62.9794 91.243 62.7705C91.2033 62.7395 91.1764 62.6996 91.1366 62.6635C90.2574 61.766 89.2167 61.0885 87.8466 60.7139L88.4631 60.3612H88.4894L90.9079 58.9545L93.3943 57.5323L100.035 61.1458L100.049 61.1329L100.067 61.1458L106.707 57.5323L109.197 58.9545L109.198 58.9539ZM105.923 55.9612L100.63 58.7495V47.4615L107.811 45.0245L105.923 55.9612ZM100.054 46.2205L92.1812 43.1104C92.8502 41.5271 95.9396 40.1796 100.054 40.1751C104.174 40.1796 107.262 41.5271 107.927 43.1104L100.054 46.2205Z" fill="black"/>
<path d="M39.1615 174.401V160.434H47.3558V155.351H25V160.434H33.1948V174.401H39.1615ZM55.7102 155.351H49.7435V174.401H55.7102V155.351ZM60.0774 155.351V174.401H65.5673V163.874L75.7904 174.401H80.8823V155.351H75.393V165.795L65.4071 155.351H60.0774ZM92.61 167.197L99.4918 174.401H107.17L97.5828 164.475L106.811 155.35H99.5719L92.6107 162.514H91.0182V155.35H85.2515V174.4H91.0182V167.196H92.6107L92.61 167.197ZM119.038 154.83C111.28 154.83 106.627 159.232 106.627 164.915C106.627 170.597 111.28 175 119.038 175C126.755 175 131.41 170.597 131.41 164.915C131.41 159.232 126.755 154.83 119.038 154.83V154.83ZM119.038 170.357C115.179 170.357 112.713 168.036 112.713 164.915C112.713 161.793 115.18 159.513 119.038 159.513C122.857 159.513 125.362 161.793 125.362 164.915C125.362 168.036 122.857 170.357 119.038 170.357ZM153.284 155.35H134.151V174.4H139.919V167.756H152.449V163.555H139.919V160.193H153.284V155.35V155.35ZM175 155.35H155.866V174.4H161.634V167.756H174.164V163.555H161.634V160.193H175V155.35V155.35Z" fill="black"/>
</svg>
