<svg width="200" height="200" viewBox="0 0 200 200" fill="none" xmlns="http://www.w3.org/2000/svg">
<path d="M100 172C96.2004 167.795 93.04 163.88 85.5 163.88H62.88C51.4731 163.88 42 154.407 42 143V27H158V143C158 154.407 148.527 163.88 137.12 163.88H114.5C106.96 163.88 103.655 167.795 100 172Z" fill="#FCDD09"/>
<path d="M42 27L100 95.44L158 27H148.176L100 83.84L51.8237 27H42Z" fill="#DA121A"/>
<path d="M53.6725 161.687C51.4147 160.555 49.3857 159.024 47.6731 157.192L100 95.4398L152.327 157.192C150.614 159.024 148.585 160.555 146.327 161.687L100 107.04L53.6725 161.687Z" fill="#078930"/>
<path d="M42 27V143C42 154.407 51.4731 163.88 62.88 163.88H85.5C93.04 163.88 96.2004 167.795 100 172C103.655 167.795 106.96 163.88 114.5 163.88H137.12C148.527 163.88 158 154.407 158 143V27H42ZM42.58 27.58H157.42V143C157.42 154.086 148.206 163.3 137.12 163.3H114.5C110.63 163.3 107.784 164.312 105.474 165.874C103.343 167.314 101.679 169.217 100 171.148C98.2662 169.22 96.5872 167.333 94.4719 165.892C92.1809 164.331 89.3704 163.3 85.5 163.3H62.88C51.7943 163.3 42.58 154.086 42.58 143V27.58Z" fill="black"/>
</svg>
