<svg width="200" height="200" viewBox="0 0 200 200" fill="none" xmlns="http://www.w3.org/2000/svg">
<path fill-rule="evenodd" clip-rule="evenodd" d="M41.902 69.786C38.9138 70.7637 36.8373 71.0769 33.9488 72.3872C21.5631 78.0061 13.7064 92.2025 16.6004 106.455C17.6996 111.869 20.6823 117.519 23.6444 120.532C31.9632 128.995 41.7343 133.405 54.5489 130.724C61.3182 129.307 72.2359 123.008 73.5069 117.658C73.897 116.016 73.6359 114.254 72.998 112.983C72.012 111.018 71.3702 111 70.7466 110.299C63.0664 107.245 63.5388 110.914 58.6236 114.265C50.9355 119.507 41.7517 118.565 36.3458 113.938C21.901 101.575 33.4589 79.8184 51.1571 83.1835C58.1338 84.5101 60.7698 88.7853 62.3985 89.7637C66.747 92.375 72.3752 89.9371 72.9996 84.9321C73.5219 80.7409 70.601 78.9084 68.8758 77.2281C61.8192 70.3526 52.0141 68.7633 41.9028 69.7868L41.902 69.786Z" fill="#FECC00"/>
<path fill-rule="evenodd" clip-rule="evenodd" d="M152.894 69.51C149.783 70.396 147.785 70.7542 144.864 72.0264C127.743 79.481 119.749 102.15 133.823 119.928C134.929 121.326 137.846 123.996 139.383 125.107C141.344 126.523 143.67 127.897 146.143 128.846C157.644 133.252 169.696 131.419 178.851 123.882C180.104 122.85 183.133 119.913 183.748 118.333C184.267 116.999 184.379 115.338 183.954 113.859C183.474 112.187 182.617 111.687 182.174 110.677C180.546 110.037 177.315 107.43 173.285 110.292C171.834 111.322 170.517 113.71 166.739 115.63C160.672 118.713 153.274 118.042 148.091 114.599C136.882 107.152 138.39 90.4017 149.987 84.6204C156.027 81.6096 163.591 82.3137 168.575 85.804C171.176 87.6256 172.043 90.0395 175.749 90.5011C179.34 90.948 182.329 88.5225 183.167 86.1071C184.556 82.1016 182.079 79.3116 180.258 77.692C172.27 70.5809 164.548 68.502 152.894 69.5108V69.51Z" fill="#FECC00"/>
<path fill-rule="evenodd" clip-rule="evenodd" d="M79.6496 69.9274C75.635 72.126 74.9702 78.0409 79.1969 80.8224C82.4383 82.9557 90.6781 81.1776 94.8454 81.9827L94.9364 125.576C97.0225 130.991 101.605 132.413 105.602 130.14C110.203 127.524 109.149 122.541 109.149 116.331C109.149 104.851 109.034 93.3145 109.156 81.842C112.594 81.9081 116.069 81.863 119.512 81.8653C128.403 81.8716 128.954 75.1468 126.461 71.6729C124.887 69.4789 122.57 69.1828 118.94 69.1898C112.283 69.2031 105.625 69.1906 98.9668 69.1906C94.0311 69.1906 83.6357 68.4368 79.6504 69.9274H79.6496Z" fill="#FECC00"/>
</svg>
