<svg width="200" height="200" viewBox="0 0 200 200" fill="none" xmlns="http://www.w3.org/2000/svg">
<g clip-path="url(#clip0_533_2605)">
<path d="M184 75H16V125.1H184V75Z" fill="#0C54A0"/>
<path fill-rule="evenodd" clip-rule="evenodd" d="M42.8825 103.418C42.182 100.894 40.9111 98.5639 40.2105 96.0398C40.1212 95.7165 40.0219 95.5907 40.2458 95.3591L42.8759 92.644L42.8903 92.6253C43.6537 91.9732 44.7183 91.3587 45.9616 90.9064C46.7968 90.6019 47.6176 90.4045 48.3722 90.3085C48.0015 89.0949 47.013 88.0733 45.6869 87.4655H49.7623C50.4562 90.1805 51.3686 92.4796 52.4133 94.8891C52.9363 96.096 53.5287 97.09 54.1586 98.1866C54.3969 98.6014 56.182 101.169 56.182 101.294C56.182 101.379 54.611 102.314 54.4047 102.44C54.1642 102.585 52.6549 103.546 52.5137 103.546C51.8617 103.546 48.3446 98.0311 48.0666 97.0801L45.9572 103.418H42.8825V103.418ZM43.6636 100.898C43.9791 100.898 44.2351 101.15 44.2351 101.461C44.2351 101.771 43.9791 102.024 43.6636 102.024C43.347 102.024 43.091 101.771 43.091 101.461C43.091 101.15 43.347 100.898 43.6636 100.898ZM42.9355 98.4018C43.251 98.4018 43.5081 98.6544 43.5081 98.9644C43.5081 99.2744 43.2521 99.526 42.9355 99.526C42.62 99.526 42.364 99.2744 42.364 98.9644C42.364 98.6544 42.62 98.4018 42.9355 98.4018ZM42.1147 95.8864C42.4302 95.8864 42.6862 96.1379 42.6862 96.449C42.6862 96.7591 42.4302 97.0117 42.1147 97.0117C41.7992 97.0117 41.5421 96.7602 41.5421 96.449C41.5421 96.139 41.7981 95.8864 42.1147 95.8864ZM40.0208 87.4655H35.8748C35.1886 90.1529 34.2597 92.5006 33.2238 94.8902C32.6821 96.1379 32.0709 97.0922 31.4553 98.2308C31.2148 98.6743 29.4562 101.141 29.4562 101.297C29.4562 101.337 32.8829 103.548 33.1245 103.548C33.7809 103.548 37.4238 98.0333 37.6643 97.0933L39.5144 103.414L42.5549 103.418L39.8056 95.9923C39.6997 95.6238 39.6093 95.5168 39.8762 95.2487C40.8041 94.3176 41.6712 93.3743 42.5946 92.4421C41.8521 91.8585 40.8725 91.3168 39.7472 90.9064C38.9131 90.6019 38.0923 90.4045 37.3355 90.3085C37.7073 89.0949 38.6947 88.0733 40.0208 87.4655V87.4655Z" fill="#FDE500"/>
<path fill-rule="evenodd" clip-rule="evenodd" d="M42.3077 87.119C42.1444 87.1543 41.1935 86.6325 40.8901 86.5674C40.8901 87.6783 41.2597 87.8604 41.5024 88.6878L42.2768 88.1384C42.4015 88.2454 42.5648 88.3105 42.7446 88.3105C42.9277 88.3105 43.0943 88.2432 43.219 88.1318L43.9813 88.7187C44.2891 87.835 44.6234 87.6541 44.6234 86.5663C44.3277 86.6292 43.3558 87.1245 43.2157 87.1245C43.2024 87.1245 43.1903 87.1201 43.176 87.1135C43.0579 87.0241 42.9079 86.9701 42.7446 86.9701C42.5791 86.9701 42.4269 87.0252 42.3077 87.1179V87.119Z" fill="#FDE500"/>
<path fill-rule="evenodd" clip-rule="evenodd" d="M39.6324 87.8978C39.8674 87.7555 40.1079 87.6375 40.3451 87.5415C40.3969 88.2917 40.6761 89.2471 41.1637 90.2168C41.4836 90.849 41.851 91.4061 42.2283 91.8551C41.6943 91.416 40.964 90.9891 40.1167 90.6504C39.3059 90.3261 38.5148 90.1319 37.8397 90.0701C37.9864 89.3298 38.645 88.4903 39.6313 87.8978H39.6324Z" fill="#FDE500"/>
<path fill-rule="evenodd" clip-rule="evenodd" d="M46.0698 87.9022C45.8337 87.7599 45.5943 87.6419 45.3571 87.5459C45.3063 88.2961 45.0272 89.2515 44.5385 90.2212C44.2197 90.8534 43.8512 91.4116 43.4739 91.8595C44.0078 91.4204 44.7393 90.9935 45.5855 90.6548C46.3974 90.3304 47.1884 90.1363 47.8625 90.0745C47.7158 89.3342 47.0572 88.4947 46.0709 87.9022H46.0698Z" fill="#FDE500"/>
<path fill-rule="evenodd" clip-rule="evenodd" d="M169.848 88.1339C169.586 87.8791 169.225 87.7202 168.826 87.7202C168.427 87.7202 168.067 87.878 167.806 88.1339C167.544 88.3888 167.382 88.7418 167.382 89.1313C167.382 89.5196 167.544 89.8726 167.806 90.1275C168.067 90.3823 168.427 90.5401 168.826 90.5401C169.225 90.5401 169.586 90.3823 169.848 90.1275C170.109 89.8726 170.27 89.5196 170.27 89.1313C170.27 88.7418 170.109 88.3899 169.848 88.1339V88.1339ZM168.588 88.5565V89.0165H168.775C168.878 89.0165 168.953 88.9923 168.998 88.9426C169.044 88.893 169.067 88.84 169.067 88.7837C169.067 88.7264 169.046 88.6745 169.005 88.6271C168.964 88.5807 168.887 88.5565 168.774 88.5565H168.588ZM168.24 88.2928V89.9686H168.588V89.2791H168.72C168.774 89.2791 168.819 89.2912 168.854 89.3166C168.889 89.342 168.918 89.3817 168.941 89.4369L169.161 89.9686H169.551L169.272 89.3199C169.25 89.2714 169.225 89.2317 169.198 89.2019C169.17 89.1721 169.134 89.1533 169.093 89.1434V89.139C169.184 89.118 169.261 89.0772 169.326 89.0143C169.391 88.9525 169.424 88.8632 169.424 88.7484C169.424 88.6216 169.382 88.5146 169.298 88.4252C169.216 88.3369 169.064 88.2928 168.847 88.2928H168.239H168.24ZM168.826 87.4532C169.302 87.4532 169.731 87.6408 170.042 87.9453C170.353 88.2487 170.545 88.6679 170.545 89.1313C170.545 89.5946 170.353 90.0138 170.042 90.3172C169.731 90.6206 169.302 90.8082 168.826 90.8082C168.351 90.8082 167.923 90.6206 167.611 90.3172C167.3 90.0138 167.107 89.5946 167.107 89.1313C167.107 88.6679 167.299 88.2487 167.611 87.9453C167.923 87.6419 168.351 87.4532 168.826 87.4532V87.4532Z" fill="#FDE500"/>
<path fill-rule="evenodd" clip-rule="evenodd" d="M57.9328 97.8534C57.454 97.4077 57.0789 96.8726 56.7733 96.2989C56.5559 95.8951 56.1179 94.5878 55.98 94.4036C55.98 99.6649 59.891 103.668 65.1578 103.668C68.302 103.668 69.9899 102.294 71.8423 101.142L71.3789 100.518L69.7351 101.239L69.638 101.083L71.0226 100.059C70.9167 99.8568 70.9498 99.6682 70.5956 99.6682C70.5625 99.6682 69.7263 100.182 69.1228 100.194L69.05 100.109L70.3143 99.1839C70.3507 99.0437 70.3739 98.8264 70.1422 98.8264C69.7086 98.8264 69.3324 99.3372 68.5557 99.3527L68.4686 99.2489L69.6468 98.4535L69.8465 98.3895L69.5939 97.7673C66.6538 99.7355 61.6881 101.089 57.9339 97.8534H57.9328Z" fill="#FDE500"/>
<path fill-rule="evenodd" clip-rule="evenodd" d="M65.8363 93.5619C66.5611 93.3181 67.4481 92.3384 67.8409 91.169C70.023 84.693 56.3176 86.4427 56.3176 93.2452C56.3176 97.6626 60.5617 99.1409 64.2487 99.1409C63.5085 98.6621 63.2404 98.7835 62.4637 98.0619C58.3034 93.6071 65.8352 90.4331 65.8352 93.5608L65.8363 93.5619Z" fill="#FDE500"/>
<path fill-rule="evenodd" clip-rule="evenodd" d="M67.6489 87.7721C70.2658 91.3984 66.5534 95.0931 63.0032 94.9321H62.5498L62.7727 95.4594L64.1484 95.5344L64.1385 95.6778L63.0143 95.9261C63.0694 96.1467 63.097 96.4049 63.4556 96.4049H64.5886C64.4429 96.7778 63.9917 96.8252 63.4556 96.8252L63.5824 97.2422L64.3613 97.2455C64.7518 97.2455 64.8004 97.3239 65.1545 97.3514L65.1821 97.4662L63.9222 97.7254C64.027 98.1391 64.2058 98.1943 64.8147 98.1943C73.4994 98.1943 72.3752 88.7948 67.6467 87.771L67.6489 87.7721Z" fill="#FDE500"/>
<path fill-rule="evenodd" clip-rule="evenodd" d="M108.609 97.6383C108.884 97.3316 109.336 96.8429 109.775 96.4369C110.191 96.0519 110.843 95.3392 111.301 94.8273L111.298 94.824C111.381 94.7357 111.461 94.6463 111.542 94.557C111.701 94.3783 111.808 94.2536 111.83 94.2293L111.832 94.226L111.833 94.2249L112.358 93.5906C112.694 93.1691 113.015 92.7322 113.322 92.2799C113.938 91.3709 114.456 90.4452 114.872 89.5009C115.029 89.1721 115.165 88.8389 115.281 88.5025C115.396 88.166 115.496 87.8339 115.582 87.504H114.98C114.771 87.7578 114.211 88.4252 114.211 88.2531C114.211 88.1075 114.418 87.7269 114.547 87.504H114.001C113.75 87.8538 113.178 88.6503 113.178 88.6503C113.178 88.6503 113.227 88.3524 113.227 88.0921C113.227 87.9189 113.402 87.6596 113.52 87.504H112.964C112.628 87.8306 111.946 88.6999 111.946 88.6999C111.946 88.6999 112.021 88.5146 112.12 88.0678C112.171 87.8383 112.275 87.6419 112.364 87.5051H111.734L110.925 88.8621C110.925 88.8621 111.049 88.0932 111.149 87.5096L111.15 87.5051H110.674C110.545 88.0203 110.394 88.4958 110.22 88.9316C110.049 89.3685 109.868 89.7657 109.682 90.1231C109.481 90.5247 109.284 90.8634 109.09 91.1436C108.896 91.4227 108.734 91.6478 108.605 91.8188C108.361 91.5043 108.15 91.2043 107.97 90.9174C107.791 90.6306 107.63 90.3449 107.487 90.0591C107.3 89.6873 107.138 89.3188 107.002 88.9537C106.865 88.5885 106.74 88.1913 106.625 87.7622C106.609 87.7192 106.596 87.6772 106.581 87.6331C106.568 87.5901 106.552 87.5471 106.538 87.504H105.857V87.5085C105.956 88.0921 106.081 88.861 106.081 88.861L105.272 87.504H104.642C104.732 87.6408 104.835 87.8372 104.886 88.0667C104.986 88.5135 105.061 88.6988 105.061 88.6988C105.061 88.6988 104.378 87.8295 104.042 87.5029H103.485C103.603 87.6585 103.779 87.9177 103.779 88.0899C103.779 88.3502 103.828 88.6481 103.828 88.6481C103.828 88.6481 103.258 87.8516 103.005 87.5018H102.459C102.587 87.7247 102.794 88.1064 102.794 88.2509C102.794 88.4219 102.233 87.7556 102.026 87.5018H101.626C101.755 88.017 102.103 88.925 102.67 90.2279C103.237 91.5297 104.325 93.061 105.932 94.8207C104.856 95.7937 103.901 96.9311 103.068 98.2329C102.235 99.5347 101.553 100.865 101.022 102.224C100.95 102.424 100.878 102.625 100.805 102.826C100.734 103.026 100.67 103.226 100.612 103.427H105.371C105.415 103.299 105.458 103.165 105.5 103.03C105.543 102.894 105.586 102.754 105.629 102.612C105.959 101.696 106.382 100.809 106.9 99.9507C107.367 99.1729 107.846 98.501 108.338 97.9351L108.339 97.934L108.34 97.9329C108.351 97.9196 108.408 97.8545 108.495 97.7552C108.509 97.7299 108.526 97.7067 108.546 97.6868C108.568 97.6659 108.585 97.6482 108.6 97.6339L108.601 97.6361L108.609 97.6383ZM116.596 103.43H116.182C115.988 103.193 115.396 102.484 115.396 102.66C115.396 102.811 115.615 103.211 115.742 103.43H115.199C114.955 103.092 114.361 102.263 114.361 102.263C114.361 102.263 114.411 102.561 114.411 102.822C114.411 103.002 114.602 103.278 114.719 103.431H114.168C113.84 103.121 113.127 102.214 113.127 102.214C113.127 102.214 113.202 102.401 113.301 102.848C113.355 103.089 113.466 103.295 113.558 103.431H112.925L112.105 102.052C112.105 102.052 112.228 102.822 112.329 103.407L112.332 103.431H111.834C111.748 103.16 111.656 102.881 111.555 102.595C111.455 102.309 111.34 102.015 111.211 101.715C110.866 100.941 110.469 100.194 110.016 99.4719C109.632 98.8585 109.235 98.3245 108.825 97.8711C109.27 97.3901 110.82 95.7264 111.538 95.0468C112.289 95.7507 112.974 96.5395 113.59 97.4132C114.272 98.3786 114.857 99.3626 115.345 100.363C115.603 100.893 115.837 101.415 116.044 101.93C116.252 102.445 116.436 102.946 116.594 103.432L116.596 103.43Z" fill="#FDE500"/>
<path fill-rule="evenodd" clip-rule="evenodd" d="M77.3264 89.0088C77.6375 89.0088 77.8913 89.2614 77.8913 89.5725C77.8913 89.8847 77.6375 90.1374 77.3264 90.1374C77.0142 90.1374 76.7616 89.8847 76.7616 89.5725C76.7616 89.2603 77.0142 89.0088 77.3264 89.0088ZM79.9488 89.0088C80.2599 89.0088 80.5137 89.2614 80.5137 89.5725C80.5137 89.8847 80.261 90.1374 79.9488 90.1374C79.6366 90.1374 79.3829 89.8847 79.3829 89.5725C79.3829 89.2603 79.6366 89.0088 79.9488 89.0088ZM82.5701 89.0088C82.8823 89.0088 83.1349 89.2614 83.1349 89.5725C83.1349 89.8847 82.8823 90.1374 82.5701 90.1374C82.2579 90.1374 82.0041 89.8847 82.0041 89.5725C82.0041 89.2603 82.2568 89.0088 82.5701 89.0088ZM85.1627 87.5404L79.9598 87.4576L75.9827 87.4742C74.6235 87.4742 73.5413 88.2531 73.5413 89.4777V93.9998C74.6544 92.2986 75.783 92.3196 77.7964 92.3196H82.2612L84.3176 92.3891L85.1627 87.5404V87.5404Z" fill="#FDE500"/>
<path fill-rule="evenodd" clip-rule="evenodd" d="M79.2615 97.8513V97.8435H79.2604L79.2615 94.0606C79.2615 93.2905 79.427 93.2067 79.5406 92.7069H76.7506C75.8856 92.7069 75.2678 92.8691 74.7272 93.2056C74.3919 93.4141 73.6108 94.1279 73.6108 94.6309V97.8524H79.2615V97.8513ZM74.7272 100.135H75.7742V101.492C75.7742 101.7 76.028 101.814 76.2629 101.814H76.5421C76.777 101.814 77.0297 101.7 77.0297 101.492V100.135H78.1462V102.331H74.7272V100.135V100.135ZM73.6108 103.429H79.2615V99.1012H79.2604V98.2473H73.6108V98.4084H73.6119L73.613 99.1023H73.6108V103.43V103.429Z" fill="#FDE500"/>
<path fill-rule="evenodd" clip-rule="evenodd" d="M118.379 97.8678C117.9 97.4221 117.525 96.887 117.218 96.3144C117.002 95.9106 116.563 94.6033 116.425 94.4191C116.425 99.6804 120.336 103.684 125.603 103.684C128.747 103.684 130.435 102.309 132.288 101.156L131.824 100.532L130.18 101.254L130.083 101.097L131.466 100.073C131.36 99.8712 131.395 99.6826 131.04 99.6826C131.007 99.6826 130.17 100.197 129.568 100.209L129.495 100.123L130.76 99.1972C130.796 99.057 130.82 98.8397 130.588 98.8397C130.153 98.8397 129.777 99.3494 129.002 99.3659L128.913 99.2622L130.092 98.4668L130.291 98.4028L130.039 97.7806C127.099 99.7488 122.133 101.102 118.379 97.8667V97.8678Z" fill="#FDE500"/>
<path fill-rule="evenodd" clip-rule="evenodd" d="M126.283 93.5763C127.009 93.3324 127.895 92.3528 128.289 91.1845C130.471 84.7085 116.765 86.4571 116.765 93.2607C116.765 97.677 121.009 99.1564 124.696 99.1564C123.954 98.6776 123.687 98.7989 122.911 98.0774C118.75 93.6226 126.281 90.4475 126.281 93.5763H126.283Z" fill="#FDE500"/>
<path fill-rule="evenodd" clip-rule="evenodd" d="M128.096 87.7854C130.714 91.4117 127 95.1064 123.451 94.9454H122.998L123.221 95.4738L124.597 95.5488L124.587 95.6922L123.463 95.9405C123.519 96.1611 123.546 96.4193 123.905 96.4193H125.039C124.893 96.7922 124.442 96.8396 123.905 96.8396L124.032 97.2566L124.811 97.261C125.201 97.261 125.25 97.3394 125.604 97.3658L125.631 97.4795L124.371 97.7387C124.475 98.1524 124.655 98.2076 125.264 98.2076C133.949 98.2076 132.824 88.807 128.096 87.7843V87.7854Z" fill="#FDE500"/>
<path fill-rule="evenodd" clip-rule="evenodd" d="M92.5665 89.6321V88.808C92.5665 88.669 92.3911 88.5929 92.2278 88.5929H92.0336C91.8703 88.5929 91.6949 88.669 91.6949 88.808V89.6321H92.5665V89.6321ZM98.8317 100.737H94.3349C94.3482 100.835 94.5313 101.741 94.5457 101.847C94.56 101.954 94.581 102.08 94.6096 102.222C94.6394 102.393 94.6637 102.537 94.6858 102.65C94.7067 102.764 94.7674 103.11 94.7817 103.174C94.7961 103.238 94.8104 103.313 94.8292 103.43H99.348C99.2465 102.809 98.963 101.386 98.8317 100.737V100.737ZM95.1866 90.015C95.2495 90.1385 95.3091 90.2621 95.3698 90.3868C95.8475 91.3797 96.281 92.3759 96.6661 93.3743C97.3655 95.188 97.9293 96.9631 98.3573 98.6974C98.5316 99.4057 98.6905 100.084 98.8306 100.736H94.3338L94.3294 100.721H89.8536C89.9684 100.149 90.0963 99.5899 90.2398 99.0394C90.3821 98.4889 90.5255 97.9428 90.6678 97.4H93.4314C93.331 97.0006 93.2163 96.6079 93.0883 96.2217C92.9592 95.8356 92.8301 95.4649 92.7033 95.1075C92.4749 94.493 92.2565 93.9689 92.0491 93.5332C91.8428 93.0974 91.7104 92.8161 91.653 92.687C91.2249 93.6005 90.8322 94.5581 90.4747 95.5587C90.1173 96.5582 89.7963 97.5577 89.5094 98.5573C89.2678 99.3858 89.0571 100.207 88.8784 101.021C88.6997 101.835 88.5463 102.627 88.4128 103.429H83.894C84.0705 102.499 84.2735 101.564 84.5096 100.593C84.7457 99.6219 85.006 98.6433 85.2918 97.6581C85.8489 95.7154 86.491 93.841 87.2191 92.035C87.5093 91.3135 87.8038 90.6405 88.1006 90.0139H95.1844L95.1866 90.015ZM89.4697 87.5062H93.7745C94.2103 88.1968 94.6163 88.9062 94.9925 89.6321H93.2946V88.2498H90.9204V89.6321H88.2881C88.6765 88.8444 89.0692 88.1351 89.4697 87.5062Z" fill="#FDE500"/>
<path fill-rule="evenodd" clip-rule="evenodd" d="M139.103 95.7363C138.737 95.7363 138.439 95.4285 138.439 95.0479C138.439 94.6683 138.737 94.3594 139.103 94.3594C139.469 94.3594 139.767 94.6683 139.767 95.0479C139.767 95.4285 139.469 95.7363 139.103 95.7363ZM137.15 95.7363C136.783 95.7363 136.486 95.4285 136.486 95.0479C136.486 94.6683 136.783 94.3594 137.15 94.3594C137.518 94.3594 137.814 94.6683 137.814 95.0479C137.814 95.4285 137.518 95.7363 137.15 95.7363ZM141.121 91.8628C141.121 91.7713 140.495 91.8529 139.557 91.7536C139.102 91.7051 138.716 91.5981 138.738 91.1314C138.805 89.6718 138.758 89.0838 138.71 87.4576L134.47 87.4698C134.483 94.675 134.464 96.1114 134.477 103.425L138.71 103.43L138.731 99.3008C138.73 99.1232 138.751 99.0625 139.04 99.0305C139.977 98.9246 141.152 99.0294 141.145 98.9213L141.122 91.8617L141.121 91.8628Z" fill="#FDE500"/>
<path fill-rule="evenodd" clip-rule="evenodd" d="M145.106 95.7363C144.738 95.7363 144.441 95.4285 144.441 95.0479C144.441 94.6683 144.739 94.3594 145.106 94.3594C145.473 94.3594 145.77 94.6683 145.77 95.0479C145.77 95.4285 145.472 95.7363 145.106 95.7363ZM143.152 95.7363C142.785 95.7363 142.488 95.4285 142.488 95.0479C142.488 94.6683 142.785 94.3594 143.152 94.3594C143.519 94.3594 143.817 94.6683 143.817 95.0479C143.817 95.4285 143.519 95.7363 143.152 95.7363ZM143.794 87.4576C143.745 89.0838 143.699 89.6718 143.766 91.1314C143.787 91.5981 143.402 91.7051 142.945 91.7536C142.009 91.8518 141.374 91.7713 141.374 91.8628L141.351 98.9224C141.345 99.0305 142.527 98.9268 143.464 99.0316C143.752 99.0636 143.773 99.1243 143.772 99.3019L143.793 103.431L148.026 103.426L148.032 87.4709L143.794 87.4587V87.4576Z" fill="#FDE500"/>
<path fill-rule="evenodd" clip-rule="evenodd" d="M158.779 93.7472C158.221 93.7472 157.749 93.5001 157.499 93.2287C157.191 92.8922 157.399 92.3527 157.397 91.8717C157.393 90.8766 157.57 89.9477 157.57 88.9371L154.887 88.797C154.444 90.8402 153.843 93.0742 152.986 96.3199H158.01C158.515 95.359 158.768 94.6673 158.979 94.2823C159.225 94.6882 159.487 95.1659 160.024 96.3199H164.975C164.895 96.2118 163.083 89.2736 163.045 88.904L160.454 88.968L160.667 92.7366C160.715 93.3147 159.937 93.7461 159.239 93.7461H158.779V93.7472Z" fill="#FDE500"/>
<path fill-rule="evenodd" clip-rule="evenodd" d="M159.1 96.6907C159.839 96.6907 160.437 97.2522 160.437 97.9439C160.437 98.6357 159.838 99.1972 159.1 99.1972C158.361 99.1972 157.762 98.6357 157.762 97.9439C157.762 97.2522 158.361 96.6907 159.1 96.6907Z" fill="#FDE500"/>
<path fill-rule="evenodd" clip-rule="evenodd" d="M158.98 88.7562C158.722 88.7562 158.513 88.5609 158.513 88.3182C158.513 88.0766 158.722 87.8802 158.98 87.8802C159.238 87.8802 159.446 88.0766 159.446 88.3182C159.446 88.5598 159.238 88.7562 158.98 88.7562ZM158.98 90.6625C158.722 90.6625 158.513 90.4673 158.513 90.2257C158.513 89.9841 158.722 89.7877 158.98 89.7877C159.238 89.7877 159.446 89.9841 159.446 90.2257C159.446 90.4673 159.238 90.6625 158.98 90.6625ZM158.98 92.5689C158.722 92.5689 158.513 92.3725 158.513 92.1309C158.513 91.8893 158.722 91.693 158.98 91.693C159.238 91.693 159.446 91.8893 159.446 92.1309C159.446 92.3725 159.238 92.5689 158.98 92.5689ZM161.543 88.648C162.071 88.6149 162.659 88.5521 163.097 88.5521L162.838 87.4555L155.163 87.4532L154.891 88.5488C155.175 88.5521 156.612 88.6326 156.9 88.6767C157.732 88.8025 158.012 88.4726 157.902 89.5516C157.755 90.3349 157.798 92.0041 157.798 92.9286C157.912 93.0709 158.316 93.3621 158.547 93.3621H159.295C159.703 93.3621 160.216 93.1183 160.216 92.7852V92.6417L160.083 89.0827L160.102 88.8411C160.102 88.6293 161.303 88.6635 161.541 88.6491L161.543 88.648Z" fill="#FDE500"/>
<path fill-rule="evenodd" clip-rule="evenodd" d="M166.589 103.141H163.589V101.899H164.569V102.666C164.569 102.784 164.79 102.849 164.998 102.849H165.242C165.449 102.849 165.67 102.784 165.67 102.666V101.899H166.589V103.141V103.141ZM166.589 99.6495C166.115 99.484 165.573 99.4034 164.814 99.4034H162.364C162.464 99.6506 162.609 99.6914 162.609 100.071V100.362V101.076V103.43H167.568V100.352C167.568 100.104 166.883 99.7521 166.589 99.6495V99.6495Z" fill="#FDE500"/>
<path fill-rule="evenodd" clip-rule="evenodd" d="M165.393 98.1856C165.135 98.1856 164.925 97.9903 164.925 97.7487C164.925 97.5071 165.135 97.3107 165.393 97.3107C165.65 97.3107 165.859 97.506 165.859 97.7487C165.859 97.9903 165.65 98.1856 165.393 98.1856ZM163.804 98.1856C163.547 98.1856 163.338 97.9903 163.338 97.7487C163.338 97.5071 163.547 97.3107 163.804 97.3107C164.062 97.3107 164.272 97.506 164.272 97.7487C164.272 97.9903 164.062 98.1856 163.804 98.1856ZM162.217 98.1856C161.96 98.1856 161.751 97.9903 161.751 97.7487C161.751 97.5071 161.96 97.3107 162.217 97.3107C162.476 97.3107 162.684 97.506 162.684 97.7487C162.684 97.9903 162.476 98.1856 162.217 98.1856ZM166.156 96.523L163.759 96.5142L160.589 96.5583L161.13 99.1972L165.063 99.1586C165.562 99.1586 166.284 99.1972 166.634 99.323C166.922 99.4267 167.519 99.7985 167.546 100.072H167.63V97.6119C167.63 96.9466 166.978 96.523 166.157 96.523H166.156Z" fill="#FDE500"/>
<path fill-rule="evenodd" clip-rule="evenodd" d="M154.632 103.141H151.607V101.899H152.532V102.666C152.532 102.784 152.756 102.849 152.966 102.849H153.213C153.422 102.849 153.646 102.784 153.646 102.666V101.899H154.633V103.141H154.632ZM155.866 99.4034H153.397C152.631 99.4034 152.085 99.4829 151.606 99.6495C151.308 99.7521 150.618 100.104 150.618 100.352V103.43H155.62V101.076L155.619 100.368L155.62 100.071C155.62 99.6914 155.766 99.6495 155.866 99.4034V99.4034Z" fill="#FDE500"/>
<path fill-rule="evenodd" clip-rule="evenodd" d="M155.729 98.1856C155.471 98.1856 155.262 97.9903 155.262 97.7487C155.262 97.5071 155.471 97.3107 155.729 97.3107C155.986 97.3107 156.195 97.506 156.195 97.7487C156.195 97.9903 155.986 98.1856 155.729 98.1856ZM154.141 98.1856C153.884 98.1856 153.673 97.9903 153.673 97.7487C153.673 97.5071 153.883 97.3107 154.141 97.3107C154.399 97.3107 154.608 97.506 154.608 97.7487C154.608 97.9903 154.399 98.1856 154.141 98.1856ZM152.553 98.1856C152.295 98.1856 152.088 97.9903 152.088 97.7487C152.088 97.5071 152.295 97.3107 152.553 97.3107C152.812 97.3107 153.021 97.506 153.021 97.7487C153.021 97.9903 152.812 98.1856 152.553 98.1856ZM154.43 96.5142L152.032 96.523C151.212 96.523 150.56 96.9466 150.56 97.6119V100.072H150.644C150.671 99.7974 151.268 99.4267 151.555 99.323C151.904 99.1972 152.627 99.1586 153.126 99.1586H155.819L157.059 99.1972L157.54 96.5583L154.431 96.5142H154.43Z" fill="#FDE500"/>
<path d="M46.8663 110.406C46.8663 109.694 47.0638 109.141 47.4609 108.745C47.8581 108.347 48.4097 108.15 49.118 108.15C49.8439 108.15 50.4032 108.345 50.796 108.734C51.1887 109.123 51.384 109.669 51.384 110.371C51.384 110.88 51.299 111.297 51.1269 111.623C50.9559 111.948 50.7066 112.202 50.3834 112.384C50.059 112.566 49.6552 112.655 49.1709 112.655C48.68 112.655 48.2729 112.577 47.9496 112.422C47.6286 112.264 47.366 112.017 47.1664 111.678C46.9667 111.34 46.8663 110.916 46.8663 110.406V110.406ZM48.2122 110.409C48.2122 110.848 48.2938 111.165 48.4582 111.357C48.6226 111.549 48.8455 111.645 49.1279 111.645C49.4169 111.645 49.642 111.55 49.8009 111.363C49.9597 111.174 50.0392 110.837 50.0392 110.349C50.0392 109.938 49.9564 109.639 49.7909 109.451C49.6243 109.261 49.4004 109.166 49.1158 109.166C48.8433 109.166 48.6248 109.262 48.4604 109.454C48.295 109.646 48.2133 109.965 48.2133 110.408L48.2122 110.409ZM56.6817 113.533H55.5983V112.583H52.816V113.533H51.7326V111.578H52.1827C52.4354 110.873 52.5611 110.079 52.5611 109.195V108.223H56.2139V111.578H56.6828V113.533H56.6817ZM54.8669 111.578V109.294H53.7835V109.351C53.7835 109.953 53.682 110.696 53.4779 111.578H54.8669ZM57.2101 108.223H60.8144V109.154H58.5616V109.848H60.65V110.737H58.5616V111.595H60.8817V112.582H57.2101V108.222V108.223ZM67.7327 112.583H66.2169L65.694 111.456C65.5693 111.192 65.4722 111.025 65.4027 110.959C65.3343 110.893 65.2372 110.859 65.1148 110.859V112.583H63.7688V110.859C63.6442 110.859 63.546 110.893 63.4776 110.959C63.4092 111.025 63.3121 111.192 63.1896 111.456L62.6667 112.583H61.1509L61.7422 111.39C61.9044 111.059 62.0588 110.815 62.2045 110.661C62.3501 110.505 62.5178 110.397 62.7075 110.335C62.5674 110.278 62.4549 110.202 62.3722 110.105C62.2883 110.008 62.2133 109.863 62.1416 109.668C62.071 109.472 61.9805 109.331 61.8691 109.243C61.7588 109.156 61.5878 109.112 61.3572 109.112H61.2888V108.193C61.7841 108.193 62.1471 108.218 62.3799 108.27C62.6116 108.322 62.7781 108.406 62.8796 108.524C62.9822 108.642 63.0848 108.836 63.1874 109.108C63.3242 109.474 63.4246 109.696 63.4908 109.773C63.5559 109.85 63.6486 109.892 63.7666 109.897V108.223H65.1126V109.897C65.2295 109.892 65.32 109.85 65.3851 109.773C65.4513 109.696 65.5528 109.474 65.6918 109.108C65.7933 108.836 65.8948 108.642 65.9985 108.524C66.1011 108.406 66.2688 108.322 66.5004 108.27C66.7332 108.218 67.0962 108.193 67.5915 108.193V109.112H67.5231C67.2926 109.112 67.1227 109.156 67.0112 109.243C66.8998 109.33 66.8082 109.472 66.7376 109.668C66.667 109.863 66.5898 110.009 66.5071 110.105C66.4243 110.201 66.3129 110.278 66.1728 110.335C66.3647 110.399 66.5324 110.509 66.6781 110.664C66.8215 110.82 66.9759 111.062 67.1392 111.391L67.7305 112.584L67.7327 112.583ZM72.7922 113.533H71.7088V112.583H68.9264V113.533H67.8431V111.578H68.2921C68.5447 110.873 68.6705 110.079 68.6705 109.195V108.223H72.3233V111.578H72.7922V113.533V113.533ZM70.9773 111.578V109.294H69.894V109.351C69.894 109.954 69.7925 110.696 69.5884 111.578H70.9773ZM76.0025 111.863H74.4768L74.2572 112.582H72.8826L74.5231 108.222H75.997L77.6309 112.582H76.2199L76.0014 111.863H76.0025ZM75.7179 110.92L75.2413 109.354L74.7636 110.92H75.7179V110.92ZM84.258 108.223V112.583H82.9915V110.189L81.3709 112.583H80.0933V108.223H81.3664V110.635L82.9992 108.223H84.2591H84.258ZM87.0194 110.406C87.0194 109.694 87.2169 109.141 87.614 108.745C88.0101 108.348 88.5628 108.15 89.2711 108.15C89.997 108.15 90.5563 108.345 90.9491 108.734C91.3418 109.123 91.5371 109.669 91.5371 110.371C91.5371 110.88 91.4522 111.297 91.2801 111.623C91.1091 111.948 90.8597 112.202 90.5365 112.384C90.2121 112.566 89.8084 112.657 89.324 112.657C88.8331 112.657 88.426 112.578 88.1039 112.423C87.7817 112.265 87.5203 112.018 87.3206 111.679C87.1209 111.342 87.0205 110.917 87.0205 110.407L87.0194 110.406ZM88.3653 110.409C88.3653 110.848 88.447 111.165 88.6113 111.357C88.7757 111.549 88.9986 111.645 89.281 111.645C89.5701 111.645 89.7951 111.551 89.954 111.363C90.1128 111.174 90.1923 110.837 90.1923 110.349C90.1923 109.938 90.1095 109.639 89.9441 109.451C89.7786 109.261 89.5535 109.166 89.2689 109.166C88.9975 109.166 88.7779 109.262 88.6136 109.454C88.4481 109.646 88.3664 109.965 88.3664 110.408L88.3653 110.409ZM93.6134 109.904H94.3327C94.9924 109.904 95.4823 110.021 95.8011 110.253C96.121 110.487 96.2799 110.848 96.2799 111.339C96.2799 111.742 96.1343 112.05 95.8419 112.263C95.5485 112.476 95.1292 112.583 94.5809 112.583H92.2675V108.223H95.939V109.105H93.6134V109.903V109.904ZM93.6134 111.645H94.3029C94.7243 111.645 94.9351 111.493 94.9351 111.187C94.9351 110.92 94.7243 110.787 94.3029 110.787H93.6134V111.645ZM96.5899 108.223H98.0506L98.6562 110.019L99.2498 108.223H100.62L99.1913 111.59C99.0744 111.861 98.9718 112.064 98.8846 112.197C98.7975 112.33 98.6684 112.44 98.4963 112.526C98.3242 112.612 98.0892 112.655 97.7902 112.655C97.6325 112.655 97.3589 112.633 96.9727 112.587V111.687C97.2 111.711 97.3677 111.723 97.4714 111.723C97.7825 111.723 97.9722 111.607 98.0395 111.376L96.5888 108.223H96.5899ZM101.094 108.223H103.617C104.038 108.223 104.36 108.328 104.586 108.535C104.811 108.742 104.924 109 104.924 109.308C104.924 109.566 104.843 109.787 104.683 109.971C104.576 110.095 104.418 110.192 104.213 110.264C104.527 110.339 104.756 110.468 104.904 110.652C105.051 110.835 105.124 111.066 105.124 111.343C105.124 111.569 105.072 111.772 104.967 111.953C104.861 112.134 104.716 112.276 104.535 112.381C104.422 112.446 104.252 112.493 104.022 112.523C103.719 112.563 103.518 112.583 103.419 112.583H101.093V108.223H101.094ZM102.452 109.934H103.04C103.25 109.934 103.398 109.897 103.481 109.825C103.562 109.752 103.604 109.647 103.604 109.51C103.604 109.383 103.563 109.284 103.481 109.212C103.398 109.141 103.253 109.105 103.05 109.105H102.454V109.934H102.452ZM102.452 111.645H103.14C103.373 111.645 103.536 111.603 103.631 111.521C103.726 111.44 103.773 111.329 103.773 111.19C103.773 111.061 103.727 110.958 103.632 110.88C103.538 110.802 103.373 110.762 103.135 110.762H102.451V111.645H102.452ZM107.176 109.904H107.896C108.556 109.904 109.045 110.021 109.364 110.253C109.684 110.487 109.843 110.848 109.843 111.339C109.843 111.742 109.696 112.05 109.405 112.263C109.112 112.476 108.692 112.583 108.145 112.583H105.832V108.223H107.178V109.903L107.176 109.904ZM107.176 111.645H107.865C108.286 111.645 108.497 111.493 108.497 111.187C108.497 110.92 108.286 110.787 107.865 110.787H107.176V111.645ZM116.738 108.223V112.583H115.472V110.189L113.851 112.583H112.573V108.223H113.846V110.634L115.478 108.223H116.738H116.737H116.738ZM120.374 110.212C120.896 110.353 121.159 110.682 121.159 111.199C121.159 111.625 120.994 111.975 120.667 112.246C120.339 112.519 119.875 112.655 119.278 112.655C118.255 112.655 117.62 112.226 117.371 111.369L118.643 111.274C118.715 111.579 118.918 111.731 119.251 111.731C119.438 111.731 119.579 111.685 119.674 111.591C119.771 111.497 119.818 111.368 119.818 111.201C119.818 111.04 119.759 110.91 119.637 110.81C119.516 110.709 119.351 110.66 119.142 110.66H118.777V109.88H119.065C119.237 109.88 119.373 109.836 119.47 109.745C119.568 109.655 119.617 109.529 119.617 109.369C119.617 109.134 119.47 109.016 119.173 109.016C118.869 109.016 118.691 109.152 118.641 109.424L117.435 109.284C117.632 108.529 118.219 108.151 119.196 108.151C119.738 108.151 120.163 108.256 120.469 108.465C120.777 108.675 120.93 108.959 120.93 109.313C120.93 109.741 120.744 110.041 120.371 110.213L120.374 110.212ZM123.86 108.223H127.464V109.154H125.211V109.848H127.299V110.737H125.211V111.595H127.531V112.582H123.861V108.222L123.86 108.223ZM128.263 108.223H130.787C131.206 108.223 131.529 108.328 131.754 108.535C131.98 108.742 132.092 109 132.092 109.308C132.092 109.566 132.012 109.787 131.85 109.971C131.743 110.095 131.587 110.192 131.38 110.264C131.694 110.339 131.923 110.468 132.071 110.652C132.218 110.835 132.291 111.066 132.291 111.343C132.291 111.569 132.239 111.772 132.134 111.953C132.028 112.134 131.884 112.276 131.702 112.381C131.589 112.446 131.418 112.493 131.19 112.523C130.887 112.563 130.686 112.583 130.587 112.583H128.261V108.223H128.263ZM129.621 109.934H130.207C130.418 109.934 130.565 109.897 130.648 109.825C130.729 109.752 130.771 109.647 130.771 109.51C130.771 109.383 130.73 109.284 130.648 109.212C130.566 109.141 130.422 109.105 130.217 109.105H129.621V109.934V109.934ZM129.621 111.645H130.307C130.54 111.645 130.703 111.603 130.798 111.521C130.893 111.44 130.941 111.329 130.941 111.19C130.941 111.061 130.894 110.958 130.8 110.88C130.705 110.802 130.54 110.762 130.303 110.762H129.621V111.645ZM132.987 108.223H135.227C135.715 108.223 136.081 108.339 136.324 108.57C136.567 108.803 136.689 109.133 136.689 109.562C136.689 110.002 136.557 110.348 136.291 110.595C136.026 110.844 135.621 110.968 135.077 110.968H134.338V112.582H132.987V108.222V108.223ZM134.338 110.086H134.67C134.932 110.086 135.116 110.041 135.222 109.95C135.328 109.86 135.379 109.744 135.379 109.604C135.379 109.467 135.334 109.351 135.242 109.255C135.15 109.16 134.978 109.112 134.724 109.112H134.338V110.086V110.086ZM137.22 110.406C137.22 109.694 137.417 109.141 137.814 108.745C138.211 108.347 138.763 108.15 139.471 108.15C140.197 108.15 140.757 108.345 141.149 108.734C141.542 109.123 141.737 109.669 141.737 110.371C141.737 110.88 141.652 111.297 141.481 111.623C141.309 111.948 141.061 112.202 140.737 112.384C140.412 112.566 140.009 112.655 139.524 112.655C139.033 112.655 138.626 112.577 138.303 112.422C137.982 112.264 137.719 112.017 137.52 111.678C137.32 111.34 137.219 110.916 137.219 110.406H137.22ZM138.566 110.409C138.566 110.848 138.647 111.165 138.812 111.357C138.976 111.549 139.2 111.645 139.481 111.645C139.77 111.645 139.995 111.55 140.154 111.363C140.313 111.174 140.394 110.837 140.394 110.349C140.394 109.938 140.31 109.639 140.144 109.451C139.978 109.261 139.754 109.166 139.47 109.166C139.198 109.166 138.979 109.262 138.814 109.454C138.648 109.646 138.567 109.965 138.567 110.408L138.566 110.409ZM146.639 112.583H145.293V109.295H143.814V112.583H142.468V108.223H146.638V112.583H146.639ZM148.886 109.904H149.606C150.265 109.904 150.755 110.021 151.074 110.253C151.394 110.487 151.553 110.848 151.553 111.339C151.553 111.742 151.406 112.05 151.115 112.263C150.822 112.476 150.403 112.583 149.855 112.583H147.541V108.223H148.887V109.903L148.886 109.904ZM148.886 111.646H149.576C149.997 111.646 150.208 111.494 150.208 111.188C150.208 110.921 149.997 110.788 149.576 110.788H148.886V111.646ZM151.882 108.224H153.234V112.584H151.882V108.224Z" fill="#FEFEFE"/>
</g>
<defs>
<clipPath id="clip0_533_2605">
<rect width="168" height="50.0998" fill="white" transform="translate(16 75)"/>
</clipPath>
</defs>
</svg>
