<svg width="200" height="200" viewBox="0 0 200 200" fill="none" xmlns="http://www.w3.org/2000/svg">
<path d="M16 130.767H184V69H16V130.767Z" fill="#E30611"/>
<path d="M41.9423 82.5885C39.3637 82.5885 36.3065 85.0675 33.7847 89.2351C31.157 93.5514 29.5887 98.8947 29.5887 103.534C29.5887 110.327 33.4023 117.178 41.9423 117.178C50.4742 117.178 54.2955 110.327 54.2955 103.534C54.2955 98.8947 52.7284 93.5514 50.1131 89.2351C47.5691 85.0675 44.5132 82.5885 41.9423 82.5885V82.5885Z" fill="white"/>
<path d="M108.65 92.7802H117.297V115.325H126.562V92.7802H135.21V84.4413H108.65L108.65 92.7802Z" fill="white"/>
<path d="M154.974 92.7802H168.563V84.4413H154.975C142.489 84.4413 135.823 90.6489 135.823 99.8833C135.823 109.117 142.489 115.325 154.975 115.325H168.563V106.986H154.974C149.196 106.986 145.397 104.921 145.397 99.8833C145.397 94.8453 149.196 92.7802 154.974 92.7802V92.7802Z" fill="white"/>
<path d="M89.8067 84.4413L84.8677 102.875L79.9285 84.4413H63.5602V115.325H72.8253V90.2045L79.5561 115.325H90.1789L96.9142 90.1888V115.325H106.179V84.4413H89.8067Z" fill="white"/>
</svg>
