<svg width="261" height="49" viewBox="0 0 261 49" fill="none" xmlns="http://www.w3.org/2000/svg">
<path d="M76.44 35.264C77.496 35.264 78.344 35.632 78.984 36.368C79.6347 37.104 79.96 38.2133 79.96 39.696C79.96 40.6667 79.8107 41.488 79.512 42.16C79.224 42.8213 78.8133 43.3227 78.28 43.664C77.7573 43.9947 77.1387 44.16 76.424 44.16C75.9867 44.16 75.5973 44.1013 75.256 43.984C74.9147 43.8667 74.6213 43.7173 74.376 43.536C74.1413 43.344 73.9387 43.136 73.768 42.912H73.672C73.6933 43.0933 73.7147 43.3227 73.736 43.6C73.7573 43.8773 73.768 44.1173 73.768 44.32V47.84H72.36V35.424H73.512L73.704 36.592H73.768C73.9387 36.3467 74.1413 36.1227 74.376 35.92C74.6213 35.7173 74.9093 35.5573 75.24 35.44C75.5813 35.3227 75.9813 35.264 76.44 35.264ZM76.184 36.448C75.608 36.448 75.144 36.56 74.792 36.784C74.44 36.9973 74.184 37.3227 74.024 37.76C73.864 38.1973 73.7787 38.752 73.768 39.424V39.696C73.768 40.4 73.8427 40.9973 73.992 41.488C74.1413 41.9787 74.392 42.352 74.744 42.608C75.1067 42.864 75.5973 42.992 76.216 42.992C76.7387 42.992 77.1653 42.848 77.496 42.56C77.8373 42.272 78.088 41.8827 78.248 41.392C78.4187 40.8907 78.504 40.32 78.504 39.68C78.504 38.6987 78.312 37.9147 77.928 37.328C77.5547 36.7413 76.9733 36.448 76.184 36.448ZM85.5158 35.264C86.2518 35.264 86.8811 35.424 87.4038 35.744C87.9371 36.064 88.3424 36.5173 88.6198 37.104C88.9078 37.68 89.0518 38.3573 89.0518 39.136V39.984H83.1798C83.2011 40.9547 83.4464 41.696 83.9158 42.208C84.3958 42.7093 85.0624 42.96 85.9158 42.96C86.4598 42.96 86.9398 42.912 87.3558 42.816C87.7824 42.7093 88.2198 42.56 88.6678 42.368V43.6C88.2304 43.792 87.7984 43.9307 87.3718 44.016C86.9451 44.112 86.4384 44.16 85.8518 44.16C85.0411 44.16 84.3211 43.9947 83.6918 43.664C83.0731 43.3333 82.5878 42.8427 82.2358 42.192C81.8944 41.5307 81.7238 40.7253 81.7238 39.776C81.7238 38.8373 81.8784 38.032 82.1878 37.36C82.5078 36.688 82.9504 36.1707 83.5158 35.808C84.0918 35.4453 84.7584 35.264 85.5158 35.264ZM85.4998 36.416C84.8278 36.416 84.2944 36.6347 83.8998 37.072C83.5158 37.4987 83.2864 38.096 83.2118 38.864H87.5798C87.5798 38.3733 87.5051 37.9467 87.3558 37.584C87.2064 37.2213 86.9771 36.9387 86.6678 36.736C86.3691 36.5227 85.9798 36.416 85.4998 36.416ZM96.307 35.424H97.843L94.179 39.552L98.147 44H96.515L92.643 39.648V44H91.235V35.424H92.643V39.584L96.307 35.424ZM106.232 44H104.808V36.592H102.28C102.173 37.9467 102.04 39.104 101.88 40.064C101.72 41.0133 101.517 41.7867 101.272 42.384C101.026 42.9813 100.733 43.4187 100.392 43.696C100.05 43.9733 99.6504 44.112 99.1918 44.112C99.0531 44.112 98.9144 44.1013 98.7758 44.08C98.6478 44.0693 98.5411 44.0427 98.4558 44V42.944C98.5198 42.9653 98.5891 42.9813 98.6638 42.992C98.7384 43.0027 98.8131 43.008 98.8878 43.008C99.1224 43.008 99.3358 42.912 99.5278 42.72C99.7198 42.528 99.8904 42.2347 100.04 41.84C100.2 41.4453 100.344 40.9493 100.472 40.352C100.6 39.744 100.712 39.0293 100.808 38.208C100.904 37.3867 100.989 36.4587 101.064 35.424H106.232V44ZM112.202 35.28C113.247 35.28 114.02 35.5093 114.522 35.968C115.023 36.4267 115.274 37.1573 115.274 38.16V44H114.25L113.978 42.784H113.914C113.668 43.0933 113.412 43.3547 113.146 43.568C112.89 43.7707 112.591 43.92 112.25 44.016C111.919 44.112 111.514 44.16 111.034 44.16C110.522 44.16 110.058 44.0693 109.642 43.888C109.236 43.7067 108.916 43.4293 108.682 43.056C108.447 42.672 108.33 42.192 108.33 41.616C108.33 40.7627 108.666 40.1067 109.338 39.648C110.01 39.1787 111.044 38.9227 112.442 38.88L113.898 38.832V38.32C113.898 37.6053 113.743 37.1093 113.434 36.832C113.124 36.5547 112.687 36.416 112.122 36.416C111.674 36.416 111.247 36.4853 110.842 36.624C110.436 36.752 110.058 36.9013 109.706 37.072L109.274 36.016C109.647 35.8133 110.09 35.6427 110.602 35.504C111.114 35.3547 111.647 35.28 112.202 35.28ZM112.618 39.856C111.551 39.8987 110.81 40.0693 110.394 40.368C109.988 40.6667 109.786 41.088 109.786 41.632C109.786 42.112 109.93 42.464 110.218 42.688C110.516 42.912 110.895 43.024 111.354 43.024C112.079 43.024 112.682 42.8267 113.162 42.432C113.642 42.0267 113.882 41.408 113.882 40.576V39.808L112.618 39.856ZM127.123 35.424V44H125.859V38.528C125.859 38.304 125.864 38.0693 125.875 37.824C125.896 37.5787 125.917 37.3387 125.939 37.104H125.891L123.091 44H121.907L119.187 37.104H119.139C119.16 37.3387 119.171 37.5787 119.171 37.824C119.181 38.0693 119.187 38.32 119.187 38.576V44H117.923V35.424H119.795L122.499 42.32L125.251 35.424H127.123ZM131.268 35.424V38.992H135.924V35.424H137.332V44H135.924V40.176H131.268V44H129.86V35.424H131.268ZM147.503 39.696C147.503 40.4107 147.408 41.0453 147.216 41.6C147.034 42.144 146.768 42.608 146.416 42.992C146.074 43.376 145.653 43.6693 145.152 43.872C144.661 44.064 144.112 44.16 143.504 44.16C142.938 44.16 142.416 44.064 141.936 43.872C141.456 43.6693 141.04 43.376 140.688 42.992C140.336 42.608 140.058 42.144 139.856 41.6C139.664 41.0453 139.568 40.4107 139.568 39.696C139.568 38.7467 139.728 37.9467 140.048 37.296C140.368 36.6347 140.826 36.1333 141.424 35.792C142.021 35.44 142.73 35.264 143.552 35.264C144.33 35.264 145.013 35.44 145.6 35.792C146.197 36.1333 146.661 36.6347 146.992 37.296C147.333 37.9467 147.503 38.7467 147.503 39.696ZM141.024 39.696C141.024 40.368 141.109 40.9547 141.28 41.456C141.461 41.9467 141.738 42.3253 142.112 42.592C142.485 42.8587 142.96 42.992 143.536 42.992C144.112 42.992 144.586 42.8587 144.96 42.592C145.333 42.3253 145.605 41.9467 145.776 41.456C145.957 40.9547 146.048 40.368 146.048 39.696C146.048 39.0133 145.957 38.432 145.776 37.952C145.594 37.472 145.317 37.104 144.944 36.848C144.581 36.5813 144.106 36.448 143.52 36.448C142.645 36.448 142.01 36.736 141.616 37.312C141.221 37.888 141.024 38.6827 141.024 39.696ZM153.047 35.264C153.783 35.264 154.412 35.424 154.935 35.744C155.468 36.064 155.874 36.5173 156.151 37.104C156.439 37.68 156.583 38.3573 156.583 39.136V39.984H150.711C150.732 40.9547 150.978 41.696 151.447 42.208C151.927 42.7093 152.594 42.96 153.447 42.96C153.991 42.96 154.471 42.912 154.887 42.816C155.314 42.7093 155.751 42.56 156.199 42.368V43.6C155.762 43.792 155.33 43.9307 154.903 44.016C154.476 44.112 153.97 44.16 153.383 44.16C152.572 44.16 151.852 43.9947 151.223 43.664C150.604 43.3333 150.119 42.8427 149.767 42.192C149.426 41.5307 149.255 40.7253 149.255 39.776C149.255 38.8373 149.41 38.032 149.719 37.36C150.039 36.688 150.482 36.1707 151.047 35.808C151.623 35.4453 152.29 35.264 153.047 35.264ZM153.031 36.416C152.359 36.416 151.826 36.6347 151.431 37.072C151.047 37.4987 150.818 38.096 150.743 38.864H155.111C155.111 38.3733 155.036 37.9467 154.887 37.584C154.738 37.2213 154.508 36.9387 154.199 36.736C153.9 36.5227 153.511 36.416 153.031 36.416ZM166.733 35.28C167.778 35.28 168.552 35.5093 169.053 35.968C169.554 36.4267 169.805 37.1573 169.805 38.16V44H168.781L168.509 42.784H168.445C168.2 43.0933 167.944 43.3547 167.677 43.568C167.421 43.7707 167.122 43.92 166.781 44.016C166.45 44.112 166.045 44.16 165.565 44.16C165.053 44.16 164.589 44.0693 164.173 43.888C163.768 43.7067 163.448 43.4293 163.213 43.056C162.978 42.672 162.861 42.192 162.861 41.616C162.861 40.7627 163.197 40.1067 163.869 39.648C164.541 39.1787 165.576 38.9227 166.973 38.88L168.429 38.832V38.32C168.429 37.6053 168.274 37.1093 167.965 36.832C167.656 36.5547 167.218 36.416 166.653 36.416C166.205 36.416 165.778 36.4853 165.373 36.624C164.968 36.752 164.589 36.9013 164.237 37.072L163.805 36.016C164.178 35.8133 164.621 35.6427 165.133 35.504C165.645 35.3547 166.178 35.28 166.733 35.28ZM167.149 39.856C166.082 39.8987 165.341 40.0693 164.925 40.368C164.52 40.6667 164.317 41.088 164.317 41.632C164.317 42.112 164.461 42.464 164.749 42.688C165.048 42.912 165.426 43.024 165.885 43.024C166.61 43.024 167.213 42.8267 167.693 42.432C168.173 42.0267 168.413 41.408 168.413 40.576V39.808L167.149 39.856ZM177.686 35.424V36.608H173.862V44H172.454V35.424H177.686ZM182.531 35.264C183.267 35.264 183.897 35.424 184.419 35.744C184.953 36.064 185.358 36.5173 185.635 37.104C185.923 37.68 186.067 38.3573 186.067 39.136V39.984H180.195C180.217 40.9547 180.462 41.696 180.931 42.208C181.411 42.7093 182.078 42.96 182.931 42.96C183.475 42.96 183.955 42.912 184.371 42.816C184.798 42.7093 185.235 42.56 185.683 42.368V43.6C185.246 43.792 184.814 43.9307 184.387 44.016C183.961 44.112 183.454 44.16 182.867 44.16C182.057 44.16 181.337 43.9947 180.707 43.664C180.089 43.3333 179.603 42.8427 179.251 42.192C178.91 41.5307 178.739 40.7253 178.739 39.776C178.739 38.8373 178.894 38.032 179.203 37.36C179.523 36.688 179.966 36.1707 180.531 35.808C181.107 35.4453 181.774 35.264 182.531 35.264ZM182.515 36.416C181.843 36.416 181.31 36.6347 180.915 37.072C180.531 37.4987 180.302 38.096 180.227 38.864H184.595C184.595 38.3733 184.521 37.9467 184.371 37.584C184.222 37.2213 183.993 36.9387 183.683 36.736C183.385 36.5227 182.995 36.416 182.515 36.416ZM189.659 35.424V38.992H194.315V35.424H195.723V44H194.315V40.176H189.659V44H188.251V35.424H189.659ZM204.358 36.608H201.558V44H200.166V36.608H197.398V35.424H204.358V36.608ZM209.331 44.16C208.574 44.16 207.897 44.0053 207.299 43.696C206.713 43.3867 206.249 42.9067 205.907 42.256C205.577 41.6053 205.411 40.7733 205.411 39.76C205.411 38.704 205.587 37.8453 205.939 37.184C206.291 36.5227 206.766 36.0373 207.363 35.728C207.971 35.4187 208.659 35.264 209.427 35.264C209.865 35.264 210.286 35.312 210.691 35.408C211.097 35.4933 211.427 35.6 211.683 35.728L211.251 36.896C210.995 36.8 210.697 36.7093 210.355 36.624C210.014 36.5387 209.694 36.496 209.395 36.496C208.819 36.496 208.345 36.6187 207.971 36.864C207.598 37.1093 207.321 37.472 207.139 37.952C206.958 38.432 206.867 39.0293 206.867 39.744C206.867 40.4267 206.958 41.008 207.139 41.488C207.321 41.968 207.593 42.3307 207.955 42.576C208.318 42.8213 208.771 42.944 209.315 42.944C209.785 42.944 210.195 42.896 210.547 42.8C210.91 42.704 211.241 42.5867 211.539 42.448V43.696C211.251 43.8453 210.931 43.9573 210.579 44.032C210.238 44.1173 209.822 44.16 209.331 44.16ZM219.499 36.608H216.699V44H215.307V36.608H212.539V35.424H219.499V36.608ZM228.084 37.584C228.084 38.1173 227.924 38.5333 227.604 38.832C227.284 39.1307 226.873 39.3333 226.372 39.44V39.504C226.905 39.5787 227.369 39.7707 227.764 40.08C228.159 40.3787 228.356 40.848 228.356 41.488C228.356 41.8507 228.287 42.1867 228.148 42.496C228.02 42.8053 227.817 43.072 227.54 43.296C227.263 43.52 226.905 43.696 226.468 43.824C226.031 43.9413 225.503 44 224.884 44H221.188V35.424H224.868C225.476 35.424 226.02 35.4933 226.5 35.632C226.991 35.76 227.375 35.984 227.652 36.304C227.94 36.6133 228.084 37.04 228.084 37.584ZM226.9 41.488C226.9 40.9973 226.713 40.6453 226.34 40.432C225.967 40.2187 225.417 40.112 224.692 40.112H222.596V42.864H224.724C225.428 42.864 225.967 42.7627 226.34 42.56C226.713 42.3467 226.9 41.9893 226.9 41.488ZM226.66 37.76C226.66 37.3547 226.511 37.0613 226.212 36.88C225.924 36.688 225.449 36.592 224.788 36.592H222.596V38.944H224.532C225.225 38.944 225.753 38.848 226.116 38.656C226.479 38.464 226.66 38.1653 226.66 37.76ZM237.863 39.696C237.863 40.4107 237.767 41.0453 237.575 41.6C237.394 42.144 237.127 42.608 236.775 42.992C236.434 43.376 236.012 43.6693 235.511 43.872C235.02 44.064 234.471 44.16 233.863 44.16C233.298 44.16 232.775 44.064 232.295 43.872C231.815 43.6693 231.399 43.376 231.047 42.992C230.695 42.608 230.418 42.144 230.215 41.6C230.023 41.0453 229.927 40.4107 229.927 39.696C229.927 38.7467 230.087 37.9467 230.407 37.296C230.727 36.6347 231.186 36.1333 231.783 35.792C232.38 35.44 233.09 35.264 233.911 35.264C234.69 35.264 235.372 35.44 235.959 35.792C236.556 36.1333 237.02 36.6347 237.351 37.296C237.692 37.9467 237.863 38.7467 237.863 39.696ZM231.383 39.696C231.383 40.368 231.468 40.9547 231.639 41.456C231.82 41.9467 232.098 42.3253 232.471 42.592C232.844 42.8587 233.319 42.992 233.895 42.992C234.471 42.992 234.946 42.8587 235.319 42.592C235.692 42.3253 235.964 41.9467 236.135 41.456C236.316 40.9547 236.407 40.368 236.407 39.696C236.407 39.0133 236.316 38.432 236.135 37.952C235.954 37.472 235.676 37.104 235.303 36.848C234.94 36.5813 234.466 36.448 233.879 36.448C233.004 36.448 232.37 36.736 231.975 37.312C231.58 37.888 231.383 38.6827 231.383 39.696Z" fill="currentColor"/>
<path d="M76.8984 17.7734L74.8594 22.9062H72.2812L79.7344 4.69531H82.2656L89.7188 22.9062H87.1406L85.125 17.7734H76.8984ZM77.7422 15.5938H84.2578L81 7.29688L77.7422 15.5938ZM101.484 15.3594V22.9062H99.0938V5.02344H105.773C110.008 5.02344 112.125 6.75 112.125 10.2031C112.125 13.6406 110.008 15.3594 105.773 15.3594H101.484ZM101.484 13.1328H105.305C106.961 13.1328 108.078 12.9062 108.656 12.4531C109.312 11.9219 109.641 11.1641 109.641 10.1797C109.641 9.17969 109.281 8.40625 108.562 7.85938C108 7.45312 106.914 7.25 105.305 7.25H101.484V13.1328ZM130.266 7.25V23.0703H127.734V7.25H121.266V5.02344H136.711V7.25H130.266ZM144.961 22.9062V4.85938H147.352L153 12.9922L158.648 4.85938H161.039V22.9062H158.648V8.39844L153 16.4609L147.352 8.39844V22.9062H144.961ZM173.461 7.25V12.4531H182.672V14.6797H173.461V20.5156H183.516V22.7422H171.07V5.02344H183.352V7.25H173.461ZM207.281 22.7422H194.695V25.8828H192.305V20.5625H194.039L194.062 20.4922C196.219 16.2578 197.484 11.1016 197.859 5.02344H207.516V20.5625H209.672V25.8828H207.281V22.7422ZM205.125 20.5625V7.20312H199.945C199.445 12.4219 198.328 16.875 196.594 20.5625H205.125ZM217.805 4.85938H220.242V18.9922L229.828 4.85938H232.195V22.9062H229.758V8.77344L220.172 22.9062H217.805V4.85938ZM244.898 17.7734L242.859 22.9062H240.281L247.734 4.69531H250.266L257.719 22.9062H255.141L253.125 17.7734H244.898ZM245.742 15.5938H252.258L249 7.29688L245.742 15.5938Z" fill="currentColor"/>
<path fill-rule="evenodd" clip-rule="evenodd" d="M7.29521 26.0051C7.29521 25.7849 7.22681 25.376 7.21997 25.127C7.2186 25.0669 7.22408 24.9998 7.21997 24.941C7.20219 24.7181 7.22134 24.4267 7.20082 24.1942C7.19535 24.1313 7.17893 24.1053 7.18714 24.0315C7.20766 23.8714 7.20219 23.6526 7.20082 23.4844C7.20082 23.338 7.21997 23.2559 7.21997 23.1301C7.21997 22.9072 7.24459 22.6117 7.27059 22.4148L7.34719 21.7446C7.54418 20.1074 8.01612 18.5386 8.64811 17.0299C8.79585 16.6757 8.98189 16.3529 9.12553 16.0055C9.03935 15.9508 8.91213 15.8236 8.82594 15.7525C8.76849 15.706 8.72608 15.6854 8.65906 15.6403C8.57561 15.5842 8.57835 15.5596 8.50721 15.5117C8.37999 15.4269 8.29792 15.3736 8.1748 15.2833C8.07904 15.2122 7.99423 15.1165 7.87796 15.0385C7.76168 14.9605 7.67139 14.9017 7.55512 14.8005L6.13108 13.7391C5.99292 13.6024 5.83424 13.508 5.66188 13.3862C5.44437 13.2317 5.29527 13.073 5.03262 12.913C4.77955 12.7584 4.63865 12.6094 4.40883 12.4357C4.29119 12.3468 4.1927 12.3262 4.08737 12.2223C4.00803 12.2907 3.96151 12.4179 3.91364 12.5027C3.88491 12.5519 3.86576 12.6012 3.83703 12.6504C3.58943 13.0758 3.22419 13.8321 3.0272 14.3054C2.98206 14.4148 2.93829 14.5051 2.89041 14.6172C2.35007 15.8756 1.86171 17.3322 1.57855 18.6863C1.52656 18.9339 1.47458 19.1691 1.4226 19.4276C1.37335 19.6697 1.33231 19.9255 1.28854 20.1908C1.2434 20.4575 1.21604 20.7024 1.17637 20.9745C1.07651 21.6584 0.998535 22.78 0.998535 23.468V24.5334C0.998535 24.7673 1.01905 24.9547 1.01632 25.1694C1.01495 25.3609 1.05189 25.5825 1.05462 25.7671C1.06009 26.172 1.13259 26.5331 1.16679 26.9256C1.18321 27.1185 1.21741 27.3141 1.2434 27.5028C1.50468 29.389 2.07101 31.3394 2.7372 33.0149C2.85895 33.3226 2.99301 33.6112 3.12433 33.9176L3.53471 34.7779C4.0217 35.7531 4.59488 36.6763 5.19677 37.5818C5.28569 37.7145 5.36777 37.8239 5.45805 37.9552C5.84381 38.5132 6.26925 39.0603 6.72204 39.5691L6.86704 39.7415C7.05445 39.9863 7.47167 40.398 7.70286 40.662C7.87385 40.8562 8.07084 41.0299 8.25414 41.2132L8.4224 41.3623C8.47849 41.4115 8.52636 41.4662 8.58108 41.5209C8.81637 41.7562 9.09953 41.9914 9.34713 42.2116C10.395 43.1444 11.9449 44.2168 13.176 44.9034L14.0023 45.3465C14.4085 45.5831 15.3018 45.9866 15.7464 46.1617C15.9037 46.2246 16.0364 46.2848 16.1978 46.3463C18.1773 47.1 20.2073 47.6457 22.3399 47.8646C22.5355 47.8851 22.7353 47.9083 22.9172 47.922L24.1306 47.9986C24.4466 48.015 26.2919 48.0027 26.6284 47.9562C26.7899 47.9343 27.0416 47.9179 27.2139 47.9056C29.3835 47.7592 32.3697 47.0029 34.356 46.1179C34.6569 45.9839 34.9401 45.8731 35.2342 45.7254L36.081 45.3014C37.1152 44.7885 38.2834 44.0472 39.2232 43.3441L39.9523 42.7833L41.5665 41.3718C41.8113 41.1667 42.1643 40.8138 42.3694 40.569C42.3941 40.5389 42.416 40.5211 42.4433 40.4937C42.4967 40.4418 42.5541 40.3898 42.6006 40.3337L43.1998 39.6621C43.5555 39.2805 44.011 38.6664 44.3256 38.2465C44.6115 37.8635 44.9904 37.3397 45.2408 36.9198C45.2832 36.8487 45.3201 36.7994 45.3639 36.7256L45.8386 35.9295C45.9836 35.6601 46.1532 35.3852 46.2859 35.1075L43.3653 34.0325C43.2436 33.9764 43.13 33.9504 42.9973 33.8943C42.8619 33.8355 40.5651 32.9943 40.4393 32.9766C40.3804 33.0504 40.3148 33.1763 40.2601 33.2665C39.8976 33.8697 39.4968 34.4483 39.0645 35.0036L38.8593 35.2648C38.6308 35.5575 38.3723 35.827 38.1356 36.1101L37.3504 36.913C37.2971 36.9567 37.2793 36.9649 37.2301 37.0169L36.0085 38.0742C35.9196 38.1412 35.8457 38.2 35.7554 38.2684C35.5789 38.4011 35.4189 38.516 35.2383 38.6473C34.884 38.9044 34.5147 39.1328 34.1385 39.3585C29.3643 42.2198 23.2852 42.6917 18.1389 40.4978C17.4358 40.1983 16.8038 39.9042 16.1609 39.524L15.7382 39.2737C15.3634 39.0371 15.0036 38.81 14.6479 38.5529C14.2088 38.2356 13.7779 37.9087 13.3744 37.5476L12.7862 37.0142C12.7355 36.9636 12.7178 36.9554 12.6658 36.9102C12.5194 36.7871 12.358 36.6025 12.2157 36.463L11.7862 35.9952C11.5714 35.7832 11.3443 35.5014 11.1569 35.2607C11.0872 35.1704 11.0256 35.0966 10.9599 35.009C10.6275 34.5741 10.3197 34.1309 10.0147 33.6755L9.50855 32.8371C9.1693 32.2298 8.88477 31.6416 8.60707 31.0111C8.51405 30.8005 8.43881 30.5926 8.3499 30.371C8.07768 29.6953 7.88206 28.995 7.70559 28.2879L7.54144 27.5562C7.44705 27.1581 7.32941 26.3908 7.29931 26.0051H7.29521Z" fill="currentColor"/>
<path fill-rule="evenodd" clip-rule="evenodd" d="M7.85754 7.19305C7.96151 7.35581 8.42798 7.6321 8.62633 7.78666C8.67968 7.82769 8.71935 7.8824 8.76723 7.92617C8.85341 8.00823 9.00252 8.07935 9.10238 8.15185C9.22823 8.24212 9.26653 8.31324 9.39375 8.40351C9.59484 8.54576 9.82466 8.7687 10.0353 8.88223C10.2556 9.00122 10.458 9.22143 10.6523 9.36641C10.8657 9.52644 11.0285 9.6044 11.2993 9.84102L12.856 11.0597C12.8588 11.0624 12.8642 11.0679 12.8683 11.0706C12.8984 10.9981 12.9244 10.9872 12.9846 10.9407C13.0407 10.8969 13.0681 10.8614 13.1187 10.8135C13.172 10.7629 13.2049 10.7465 13.2596 10.6918L13.54 10.4497C13.5838 10.4086 13.6399 10.3676 13.685 10.3334C13.7821 10.2582 13.8697 10.1789 13.9736 10.0982C14.265 9.87111 14.5578 9.64543 14.8669 9.44027C14.9764 9.36778 15.0694 9.29665 15.1802 9.22963C15.2841 9.16809 15.3744 9.09696 15.4866 9.03131C15.6015 8.96292 15.6918 8.90001 15.8094 8.83025C15.9257 8.76049 16.0256 8.70442 16.1391 8.63603C16.2513 8.56764 16.3648 8.51704 16.4756 8.45002C16.5358 8.41309 16.5796 8.39257 16.6466 8.35974L17.1637 8.09166C17.3976 7.97404 17.6315 7.87282 17.8805 7.76204C19.9516 6.84017 22.4344 6.27666 24.7121 6.27939C24.7955 6.27939 24.868 6.28213 24.9473 6.27119L26.4384 6.32726C26.6833 6.36283 26.8967 6.36556 27.1347 6.39702L28.4876 6.61449C29.6572 6.84838 30.69 7.17254 31.6941 7.57465C32.3192 7.82495 32.8637 8.10534 33.4492 8.39667C34.2467 8.79469 35.6064 9.70014 36.2617 10.2732L36.5462 10.5126C36.6064 10.5605 36.6337 10.5905 36.6885 10.6329C36.7418 10.674 36.7801 10.7068 36.8157 10.7656L36.8882 10.7013C37.1125 10.5194 37.3355 10.3033 37.5886 10.1501C37.7568 10.0489 37.8977 9.88615 38.0509 9.77263L39.5995 8.55533C39.6679 8.49378 39.8252 8.3406 39.9004 8.29546C40.122 8.16552 40.2492 7.99866 40.5392 7.81401C40.6377 7.75109 40.583 7.73878 40.6637 7.67724C40.7116 7.64031 40.7786 7.61022 40.8361 7.56782L41.3012 7.19168C41.4448 7.08226 41.6555 6.94275 41.7636 6.81829C41.7116 6.73075 41.3231 6.40249 41.2218 6.29991C40.9578 6.03457 40.5598 5.69126 40.2561 5.45464L39.8607 5.14006C39.7212 5.02927 39.5926 4.93079 39.449 4.82274L38.8348 4.37138C37.8348 3.66152 36.7733 3.03509 35.6775 2.48388L34.9293 2.12964C33.1797 1.35138 31.3535 0.755045 29.4629 0.402165C29.0594 0.326939 28.6367 0.248977 28.2222 0.205209L26.4097 0.0369753C26.3276 0.0328721 26.3317 0.0205623 26.2428 0.0178268C25.158 -0.0149992 24.1238 -0.00952824 23.0459 0.0739046C21.7518 0.172383 20.4167 0.391223 19.202 0.694864C17.5303 1.1134 16.0064 1.65229 14.5783 2.36626L13.8314 2.73965C13.6577 2.82582 13.5181 2.91472 13.3458 3.00089C12.8533 3.24846 11.9751 3.82565 11.51 4.13613C10.8479 4.57791 10.2118 5.06073 9.60305 5.57227L9.10375 6.00721C8.85888 6.19596 8.65643 6.43258 8.42524 6.63638L8.22963 6.81418C8.14345 6.90035 7.91363 7.10962 7.86165 7.19168L7.85754 7.19305Z" fill="currentColor"/>
<path fill-rule="evenodd" clip-rule="evenodd" d="M45.7073 11.8626C45.6279 11.8817 45.156 12.225 45.1163 12.2619L44.773 12.5355C44.6225 12.6531 44.4666 12.7653 44.3298 12.8952L42.9673 13.9429C42.6527 14.1918 42.3599 14.4011 42.0658 14.6473L41.5159 15.0877C41.4721 15.1233 41.4393 15.1288 41.3859 15.1629L40.8223 15.6088C40.7827 15.6403 40.7334 15.6649 40.7416 15.7237C40.7444 15.7429 40.9755 16.1874 41.0111 16.2585C41.3066 16.8494 41.4954 17.3459 41.7334 17.9463C41.7744 18.0503 41.8004 18.1529 41.8401 18.2513C41.8798 18.3498 41.9099 18.4483 41.9454 18.5577C42.3243 19.7162 42.5035 20.6121 42.68 21.8403C42.7115 22.0605 42.7484 22.3382 42.7552 22.568L42.81 23.3161C42.8195 23.4324 42.8113 23.5869 42.8113 23.7073C42.8113 24.0875 42.8606 24.4965 42.8031 24.8767L42.7552 25.6317C42.7429 25.8697 42.6403 26.6097 42.5966 26.8764C42.5829 26.9625 42.5637 26.9913 42.628 27.0309C42.7347 27.098 43.8756 27.4604 44.0931 27.5644L47.3639 28.742C47.5294 28.794 47.8139 28.8719 47.9658 28.9431C48.0287 28.9731 48.3283 29.1017 48.4062 29.1031C48.4938 29.1058 48.4719 29.0785 48.4883 28.9909C48.6798 27.9432 48.8112 27.2976 48.9042 26.1939L48.9958 24.6784C48.9958 24.424 49.0109 23.2217 48.9904 23.0768L48.9206 21.932C48.8864 21.2084 48.5923 19.444 48.4391 18.7902C48.2106 17.8137 48.0519 17.2214 47.7373 16.279C47.5499 15.7169 47.0998 14.5283 46.8222 13.9798L46.4364 13.1701C46.3885 13.0744 46.3434 13.0033 46.2928 12.9021C46.2449 12.8049 46.2066 12.7311 46.1573 12.6463L46.0137 12.3796C45.9562 12.2715 45.7743 11.9392 45.7086 11.8626H45.7073Z" fill="currentColor"/>
</svg>
