<svg width="200" height="200" viewBox="0 0 200 200" fill="none" xmlns="http://www.w3.org/2000/svg">
<path fill-rule="evenodd" clip-rule="evenodd" d="M79.0057 64.9992C63.3979 69.1379 64.4978 92.8936 64.4978 102.303C64.4978 107.057 63.9783 124.825 64.9849 127.94C67.3282 135.187 76.7221 136.525 83.1108 135.642C84.0347 134.225 83.7128 132.021 83.7128 129.944L83.7152 97.584C83.72 93.5351 83.4997 89.1009 85.2291 86.2201C85.897 85.1059 86.9406 83.6146 87.9603 82.8894C87.9986 82.8618 88.0525 82.8235 88.0919 82.7972C88.1302 82.7709 88.1841 82.7314 88.2236 82.7074L90.4281 81.5573C90.6615 81.4771 92.8122 81.0032 92.9941 80.9888C96.7725 80.7028 101.881 80.9984 105.809 80.996C113.578 80.99 127.85 83.5751 125.445 63.4505C125.253 62.6247 124.856 62.6559 123.799 62.6475L113.224 62.6774C106.299 62.6774 95.371 62.4536 88.9441 62.7157C84.76 62.8857 82.9887 63.8539 79.0069 64.998L79.0057 64.9992Z" fill="#5E9C3A"/>
<path fill-rule="evenodd" clip-rule="evenodd" d="M118.3 128.221C120.053 129.698 120.065 129.572 121.819 130.558C122.669 131.035 122.808 131.115 124.011 131.26C129.206 131.886 131.69 130.163 135.25 127.462C136.411 126.581 139.257 123.768 139.394 122.891C139.519 122.084 139.064 121.936 138.231 121.111L109.613 92.6399C108.014 91.2097 105.64 88.3409 102.436 87.8694C100.596 87.5989 97.6472 87.563 95.9884 88.4403C93.4308 89.7915 87.7997 93.6907 86.8829 96.2352L118.298 128.22L118.3 128.221Z" fill="#5E9C3A"/>
<path fill-rule="evenodd" clip-rule="evenodd" d="M40.1854 99.5C40.1854 66.7417 66.7417 40.1854 99.5 40.1854C132.258 40.1854 158.815 66.7417 158.815 99.5C158.815 132.258 132.258 158.815 99.5 158.815C66.7417 158.815 40.1854 132.258 40.1854 99.5V99.5ZM172 99.5C172 59.4591 139.54 27 99.5 27C59.4591 27 27 59.4591 27 99.5C27 139.541 59.4603 172 99.5 172C139.541 172 172 139.541 172 99.5Z" fill="#5E9C3A"/>
</svg>
