<svg xmlns="http://www.w3.org/2000/svg" width="283" height="85" fill="none"><path d="M239.603 85H0L42.5 0h239.603l-42.5 85z" fill="#C52928"/><path d="M64.925 15.528a3.492 3.492 0 01-3.58 3.712 2.789 2.789 0 01-2.196-.878v3.404h-2.197v-9.84h2v.835a2.745 2.745 0 012.196-.945 3.494 3.494 0 013.777 3.712zm-2.196 0a1.844 1.844 0 10-3.668 0 1.844 1.844 0 103.668 0zM71.954 15.023v4.107h-1.955v-.9a2.35 2.35 0 01-2.196 1.01c-1.692 0-2.68-.944-2.68-2.196 0-1.252.879-2.197 3.097-2.197h1.537c0-.9-.527-1.405-1.647-1.405a3.47 3.47 0 00-2.086.659l-.66-1.428a5.622 5.622 0 013.098-.857c2.13 0 3.492 1.01 3.492 3.207zm-2.197 1.823v-.725H68.33c-.989 0-1.296.352-1.296.835s.44.878 1.186.878a1.538 1.538 0 001.537-.988zM81.376 17.373v3.317h-1.933v-1.56H74.37v1.56h-1.955v-3.317h.307c.989 0 1.164-1.428 1.252-3.009v-2.482h6.282v5.491h1.12zm-6.172 0h3.053V13.64h-2.35v.923a4.612 4.612 0 01-.703 2.811zM82.035 11.926h2.087v4.393l3.514-4.283h1.889v7.094h-2.087v-4.392l-3.492 4.392h-1.933l.022-7.204zM90.315 15.528a3.953 3.953 0 113.954 3.712 3.711 3.711 0 01-3.954-3.712zm5.799 0a1.845 1.845 0 10-3.69 0 1.845 1.845 0 003.69 0zM100.506 61.543a24.194 24.194 0 003.119 4.59 18.958 18.958 0 0015.046 7.073 17.4 17.4 0 007.27-1.78 9.14 9.14 0 004.81-3.36v4.393l9.29-.176V25.215h-9.246v4.392a12.131 12.131 0 00-4.898-4.041 21.22 21.22 0 00-7.183-1.603h-.637a20.252 20.252 0 00-8.28 1.69 19.766 19.766 0 00-6.589 5.536 23.8 23.8 0 00-4.393 7.929c-.22.68-.417 1.361-.615 2.064a30.136 30.136 0 00-.988 7.907 28.709 28.709 0 002.877 11.927c.09.169.192.33.308.483l.109.044zm24.161-.791a10.46 10.46 0 01-5.931 1.845 10.697 10.697 0 01-5.952-1.889 14.897 14.897 0 01-5.732-9.95 18.724 18.724 0 011.208-8.785 11.266 11.266 0 0121.107 0 19.159 19.159 0 011.186 7.885 15.375 15.375 0 01-5.842 10.982l-.044-.088zM57.304 24.885H79.64c3.695-.28 7.364.814 10.301 3.075a11.925 11.925 0 013.426 9.18 12.673 12.673 0 01-1.867 6.897 9.225 9.225 0 01-4.722 4.086 9.883 9.883 0 015.974 4.392 14.078 14.078 0 011.955 7.204 12.497 12.497 0 01-3.316 8.984 12.893 12.893 0 01-9.796 3.58H57.304V24.885zm10.279 19.767h6.589a12.343 12.343 0 006.897-1.493 5.25 5.25 0 002.196-4.635 4.68 4.68 0 00-1.955-4.239 14.32 14.32 0 00-7.05-1.273h-6.59V44.63l-.087.022zm0 19.636h8.083a12.167 12.167 0 006.37-1.296 5.075 5.075 0 001.998-4.634 5.052 5.052 0 00-2.306-4.788 20.118 20.118 0 00-8.918-1.318h-5.25l.023 12.036zM144.83 24.885h10.235v17.308h14.606V24.885h10.257v47.31h-10.257V52.318h-14.606v19.877H144.83v-47.31zM221.439 24.885v47.398h-10.147V52.516h-.966a8.785 8.785 0 00-4.854 1.054 13.181 13.181 0 00-3.427 4.393l-.637.944-6.721 13.178h-11.882l7.292-13.705c2.087-3.91 3.975-6.194 5.667-6.787a9.075 9.075 0 01-6.963-3.975 15.534 15.534 0 01-2.636-9.269 16.105 16.105 0 011.757-7.841 9.447 9.447 0 014.701-4.393 24.441 24.441 0 018.785-1.164l20.031-.066zm-10.147 8.06h-7.314a8.787 8.787 0 00-5.667 1.407 5.786 5.786 0 00-1.625 4.634 5.593 5.593 0 001.845 4.7c1.829 1.1 3.957 1.6 6.084 1.428h6.589l.088-12.168z" fill="#fff"/></svg>
