<svg width="200" height="200" viewBox="0 0 200 200" fill="none" xmlns="http://www.w3.org/2000/svg">
<path fill-rule="evenodd" clip-rule="evenodd" d="M73.4699 159.481H76.6013C78.5685 159.481 78.1269 161.489 77.053 161.489C74.6241 161.489 73.4799 161.83 73.4799 160.816V159.471L73.4699 159.481ZM73.4699 155.687C73.4699 155.175 73.6205 155.015 74.1424 155.015H81.2885C81.2885 152.837 81.5896 151.883 80.616 151.883H72.3458C71.2919 151.883 69.4452 152.154 69.4452 153.449V163.054C69.4452 164.098 69.9671 164.62 71.0109 164.62H79.7228C81.1781 164.62 81.9609 163.185 81.9609 161.719C81.9609 155.968 81.3888 156.801 73.4699 156.801V155.687V155.687Z" fill="#3E68B0"/>
<path fill-rule="evenodd" clip-rule="evenodd" d="M132.455 162.161H130.669V157.695C135.266 156.591 133.981 162.161 132.455 162.161ZM134.463 164.62C137.875 164.62 138.106 157.434 136.079 155.858C134.413 154.553 128.029 154.975 127.537 155.467C126.815 156.189 127.086 166.236 127.086 167.751H130.659V164.62H134.453H134.463Z" fill="#3E68B0"/>
<path fill-rule="evenodd" clip-rule="evenodd" d="M152.117 164.851C153.121 164.851 153.281 164.409 153.753 163.807L156.694 160.043C157.166 159.491 156.744 159.682 157.477 159.481C157.477 161.278 157.597 163.155 157.256 164.62H160.829V156.801C160.829 155.286 159.755 155.015 158.591 155.015C156.614 155.015 155.299 158.989 153.231 160.374V155.015H149.879V163.054C149.879 164.57 150.953 164.841 152.117 164.841V164.851Z" fill="#3E68B0"/>
<path fill-rule="evenodd" clip-rule="evenodd" d="M141.619 159.26C141.619 157.253 143.315 157.474 144.078 157.474C145.824 157.474 145.995 162.161 144.078 162.161C141.539 162.161 141.619 161.84 141.619 159.26V159.26ZM138.046 159.933C138.046 163.215 139.23 164.851 142.512 164.851C145.744 164.851 148.996 164.69 148.996 160.605C148.996 156.972 148.524 155.015 144.309 155.015C140.394 155.015 138.056 154.985 138.056 159.933H138.046Z" fill="#3E68B0"/>
<path fill-rule="evenodd" clip-rule="evenodd" d="M109.893 160.154C109.893 156.892 111.188 157.474 115.253 157.474V155.015C108.769 155.015 106.32 154.292 106.32 160.605C106.32 165.764 110.375 164.63 115.483 164.63V162.392C112.001 162.392 109.903 162.954 109.903 160.154H109.893Z" fill="#3E68B0"/>
<path fill-rule="evenodd" clip-rule="evenodd" d="M64.0855 158.146C64.0855 156.932 67.7589 153.359 67.8794 151.893H63.6338C62.9313 152.947 60.0708 157.424 60.1612 158.307C60.2414 159.07 61.4659 160.926 61.8473 161.498C62.2789 162.151 63.4733 163.947 63.6338 164.63H68.5518C67.8894 163.385 64.0855 158.949 64.0855 158.146V158.146Z" fill="#3E68B0"/>
<path fill-rule="evenodd" clip-rule="evenodd" d="M47.3342 151.883C47.3443 151.903 47.4346 152.185 47.5249 152.365C47.555 152.425 47.7257 152.716 47.7658 152.787L49.2412 154.884C51.7303 158.307 51.8507 158.016 48.9401 161.549C48.1071 162.552 47.3643 163.566 46.6517 164.63H51.5697C51.7604 163.917 53.015 162.181 53.4867 161.408C56.2669 156.862 55.4138 158.728 51.7905 151.893H47.3242L47.3342 151.883Z" fill="#3E68B0"/>
<path fill-rule="evenodd" clip-rule="evenodd" d="M92.2382 158.146C92.2382 157.394 92.991 156.872 93.3824 156.39L96.9254 151.893C92.6798 151.893 92.6598 151.311 91.2045 153.549C90.5822 154.503 88.4343 157.112 88.4343 158.156C88.4343 159.662 91.616 162.633 92.6798 164.64H97.367C97.1462 163.817 96.6443 163.626 96.0823 163.024C95.4098 162.301 92.2282 158.889 92.2282 158.166L92.2382 158.146Z" fill="#3E68B0"/>
<path fill-rule="evenodd" clip-rule="evenodd" d="M119.498 164.62H123.071V157.474H126.644C126.644 156.34 126.423 156.259 126.423 155.015H116.598C116.086 155.015 115.925 155.175 115.925 155.687V157.474H119.498V164.62V164.62Z" fill="#3E68B0"/>
<path fill-rule="evenodd" clip-rule="evenodd" d="M83.9681 164.62H87.9929V152.556C87.9929 152.044 87.8423 151.883 87.3204 151.883H83.9681V164.62V164.62Z" fill="#3E68B0"/>
<path fill-rule="evenodd" clip-rule="evenodd" d="M55.5946 164.62H59.6193V151.883H56.2671C55.7552 151.883 55.5946 152.034 55.5946 152.556V164.62Z" fill="#3E68B0"/>
<path fill-rule="evenodd" clip-rule="evenodd" d="M97.8287 161.268H105.416V158.367H97.8287V161.268Z" fill="#3E68B0"/>
<path fill-rule="evenodd" clip-rule="evenodd" d="M151.445 151.663C151.746 155.306 158.17 156.36 159.264 151.663H157.025C156.604 153.258 154.095 153.258 153.673 151.663H151.435H151.445Z" fill="#3E68B0"/>
<path fill-rule="evenodd" clip-rule="evenodd" d="M129.394 123.67C129.394 123.64 129.354 123.761 129.334 123.73L129.394 123.67ZM74.1423 43.6377C73.4297 43.8786 68.9032 47.7728 67.8393 48.6159C66.1832 49.9307 65.6212 49.8404 65.6312 51.9882L65.4305 79.2679C65.4305 94.0821 65.2097 108.966 65.2097 123.73C57.4011 124.885 31.5265 135.433 27 141.827C30.6132 144.878 35.0193 141.666 38.4619 139.879C56.5079 130.545 79.7227 123.49 99.8563 121.964C101.693 121.823 130.277 121.292 128.923 123.771C124.848 124.804 114.58 124.824 109.18 125.698C98.3809 127.444 63.9551 133.285 58.0535 139.358C63.9149 140.652 75.1962 136.246 81.3788 134.751C98.1501 130.686 115.764 131.057 132.586 133.857C139.802 135.062 149.066 140.04 155.47 137.561C154.877 135.965 138.779 131.037 136.079 130.365C132.305 129.431 128.973 128.628 125.109 128.147C123.844 127.986 113.968 127.534 113.908 127.504C120.411 125.647 138.879 127.464 146.045 128.648C150.813 129.441 155.409 130.606 160.006 132.121C163.268 133.195 168.989 137.812 172 135.544C168.758 130.706 150.933 122.064 144.791 120.579L144.74 85.8018C143.305 85.7717 134.292 85.842 133.72 85.3702L133.329 58.9135C132.736 59.044 118.675 53.7547 116.889 53.1123L117.712 113.433H116.798L115.855 40.5966C115.002 40.8274 112.864 40.3055 111.88 40.155V36.1503L109.02 35.9898L108.98 33.1193C108.438 32.8382 98.0096 33.1393 96.5141 33.1594L96.484 36.1303H93.1317L92.9711 40.5564L89.7694 40.5966L89.7594 66.7622L75.969 66.8827L76.0894 119.465L75.688 119.505L74.1323 43.6076L74.1423 43.6377Z" fill="#3E68B0"/>
</svg>
