<svg width="200" height="200" viewBox="0 0 200 200" fill="none" xmlns="http://www.w3.org/2000/svg">
<path fill-rule="evenodd" clip-rule="evenodd" d="M153.37 116.883L146.189 116.97L153.225 87.8291C155.449 81.4072 166.153 81.7973 168.59 87.4377C169.514 89.5748 170.491 94.7474 171.097 97.2681L175.78 116.896L168.668 116.963L167.196 111.502L154.915 111.347L153.37 116.883V116.883ZM51.6195 105.765C49.9368 116.656 40.418 118.927 32.0303 116.873C22.0159 114.422 21.1507 103.005 22.6397 94.7056C23.4904 89.9658 25.4806 86.817 28.8276 85.0466C34.6163 81.9846 46.9795 81.8502 50.5986 91.112C52.2686 95.3866 52.3473 101.054 51.6199 105.765L51.6195 105.765ZM65.2499 116.983L58.2501 116.958L58.1526 83.7524L68.736 83.7127L76.2953 107.176L84.2985 83.7255L94.766 83.714L94.7476 116.996L87.757 116.95L87.6844 93.935L86.9588 95.2363C86.8604 95.4854 86.6552 96.2445 86.5533 96.5778L79.7604 116.937L73.069 116.944L65.4174 93.7181L65.2499 116.983V116.983ZM135.921 114.6L135.883 116.934L128.951 117.003C128.479 111.243 128.867 91.3015 128.829 83.6876L148.221 83.7136L148.198 90.8325L135.921 90.8783V114.6V114.6ZM108.078 96.7603L120.886 96.7805L120.806 103.858L107.928 103.898C107.96 107.436 108.538 109.744 112.136 109.839C115.593 109.93 119.252 109.835 122.729 109.818L122.691 116.951C116.895 116.924 109.112 117.824 105.316 115.478C100.527 112.52 100.859 107.436 100.859 100.465C100.859 93.4995 100.304 88.8342 104.977 85.4645C108.812 82.6992 117.274 83.7334 122.728 83.7308L122.705 90.8505C113.482 90.7822 106.734 89.1609 108.078 96.7598L108.078 96.7603ZM54.4714 109.488L54.5641 120.583L68.8056 120.571L68.8375 116.144L70.4467 120.555L82.45 120.574C82.6586 119.802 82.7697 119.361 83.0313 118.519L84.0885 116.21L84.1082 120.566L98.295 120.553L98.7184 113.482C100.836 116.015 101.912 118.982 107.646 120.28C109.904 120.791 153.146 120.909 156.16 120.457L157.509 115.111L164.457 114.994L165.829 120.561L180.39 120.56C178.69 111.265 175.523 100.472 173.254 91.1772C171.849 85.4187 170.744 82.1504 165.802 80.3038C163.609 79.4843 159.898 79.4085 157.611 79.866C154.534 80.4814 153.562 81.7867 151.864 83.0193L151.725 80.1125C146.313 80.1147 110.712 79.6421 107.11 80.5418C104.322 81.2379 101.534 82.9871 100.106 85.1498L98.2779 87.6136L98.3003 80.1931L81.8118 80.1186C80.2385 83.3755 77.7728 94.0739 76.3762 95.7323C74.2622 91.5426 73.135 84.3907 71.0705 80.0926L54.729 80.12L54.5619 91.0167C52.7546 88.5596 52.692 84.8306 46.8995 81.7563C43.0608 79.7192 37.0828 79.1338 32.2748 80.075C22.5806 81.9727 18.6168 89.2195 18.6304 100.461C18.644 111.543 22.6812 118.918 32.5101 120.679C41.5898 122.306 52.245 119.076 54.4718 109.488L54.4714 109.488Z" fill="#FEFEFE"/>
<path fill-rule="evenodd" clip-rule="evenodd" d="M54.4713 109.488C52.2445 119.075 41.5893 122.305 32.5097 120.679C22.6807 118.918 18.6435 111.543 18.6299 100.461C18.6164 89.2192 22.5801 81.9724 32.2743 80.0747C37.0823 79.1335 43.0607 79.7185 46.899 81.756C52.6915 84.8303 52.7541 88.5593 54.5614 91.0164L54.7285 80.1196L71.07 80.0923C73.1345 84.3908 74.2617 91.5428 76.3757 95.7319C77.7723 94.0736 80.2384 83.3751 81.8113 80.1183L98.2998 80.1928L98.2774 87.6132L100.106 85.1495C101.533 82.9868 104.321 81.2376 107.109 80.5415C110.712 79.6418 146.313 80.1144 151.725 80.1121L151.863 83.019C153.562 81.7864 154.534 80.4816 157.61 79.8657C159.898 79.4081 163.608 79.484 165.802 80.3035C170.743 82.1501 171.849 85.4188 173.254 91.1769C175.522 100.472 178.69 111.264 180.389 120.559L165.829 120.561L164.456 114.994L157.508 115.111L156.16 120.457C153.145 120.908 109.903 120.79 107.645 120.279C101.912 118.982 100.835 116.015 98.7179 113.481L98.2945 120.553L84.1077 120.566L84.088 116.209L83.0308 118.518C82.7692 119.36 82.6581 119.802 82.4495 120.573L70.4462 120.555L68.837 116.144L68.8051 120.571L54.5636 120.583L54.4709 109.487L54.4713 109.488ZM50.9817 79.8296C49.5851 79.3244 47.8516 78.024 45.697 77.3191C39.2724 75.2159 31.0295 75.5906 25.3555 78.7108C18.4178 82.5257 14.961 89.7076 15.0003 100.466C15.0616 117.322 24.3499 125.634 39.2199 124.603C46.6435 124.089 47.9146 121.969 50.959 120.826L50.9668 124.212L101.621 124.181L102.322 122.062C106.971 125.367 122.808 124.211 129.671 124.211C138.858 124.211 149.807 124.755 158.772 124.151C159.022 123.75 161.13 111.704 162.909 124.215L185 124.135L178.459 97.2519C175.961 87.0203 175.234 78.9598 165.719 76.4714C161.786 75.4425 155.101 76.493 149.656 76.5L116.347 76.5049C106.597 76.5049 109.678 75.9199 101.894 78.7266C101.898 77.5778 102.085 77.3759 101.621 76.5102L79.1047 76.4467L76.3245 84.1964L73.5715 76.5102L50.9843 76.4392L50.9817 79.8296V79.8296Z" fill="#007FC6"/>
<path fill-rule="evenodd" clip-rule="evenodd" d="M65.4179 93.7183L73.0695 116.945L79.7609 116.938L86.5538 96.578C86.6557 96.2447 86.8609 95.4856 86.9593 95.2365L87.6849 93.9352L87.7575 116.95L94.7481 116.996L94.7665 83.7142L84.299 83.7257L76.2958 107.176L68.7365 83.7129L58.1531 83.7526L58.2506 116.958L65.2504 116.983L65.4179 93.7188V93.7183Z" fill="#ED1D51"/>
<path fill-rule="evenodd" clip-rule="evenodd" d="M34.4095 90.8649C36.7374 90.0934 39.4467 90.2676 41.4395 91.505C45.2935 93.8982 46.2361 107.923 39.8058 109.921C34.2695 111.642 30.6955 108.672 30.0486 103.64C29.4353 98.8685 29.4642 92.5025 34.4095 90.8644V90.8649ZM51.6196 105.765C52.3471 101.055 52.2688 95.3869 50.5983 91.1122C46.9792 81.85 34.616 81.9844 28.8273 85.0469C25.4803 86.8172 23.4901 89.966 22.6394 94.7058C21.1504 103.005 22.0156 114.422 32.03 116.874C40.4177 118.927 49.9365 116.656 51.6192 105.766L51.6196 105.765Z" fill="#FCB316"/>
<path fill-rule="evenodd" clip-rule="evenodd" d="M156.598 104.107C157.01 101.901 157.763 98.9563 158.359 96.5252C159.806 90.6124 159.167 90.2156 162.089 90.5092L165.356 104.167L156.599 104.107H156.598ZM154.915 111.347L167.196 111.502L168.668 116.964L175.78 116.897L171.097 97.2684C170.491 94.7473 169.514 89.5751 168.59 87.438C166.153 81.7976 155.45 81.4075 153.225 87.8294L146.189 116.97L153.37 116.883L154.915 111.347V111.347Z" fill="#32A2DB"/>
<path fill-rule="evenodd" clip-rule="evenodd" d="M108.078 96.7607C106.734 89.1613 113.482 90.7827 122.705 90.8514L122.728 83.7316C117.275 83.7343 108.812 82.7001 104.977 85.4654C100.305 88.8351 100.859 93.5004 100.859 100.466C100.859 107.437 100.527 112.521 105.316 115.479C109.113 117.825 116.895 116.925 122.691 116.952L122.729 109.818C119.252 109.836 115.593 109.931 112.136 109.84C108.538 109.745 107.96 107.437 107.928 103.899L120.807 103.859L120.886 96.7814L108.078 96.7611L108.078 96.7607Z" fill="#0BB14B"/>
<path fill-rule="evenodd" clip-rule="evenodd" d="M135.921 90.8783L148.198 90.8324L148.221 83.7135L128.829 83.6875C128.867 91.3014 128.479 111.243 128.952 117.003L135.883 116.934L135.921 114.6V90.8783V90.8783Z" fill="#F68121"/>
<path fill-rule="evenodd" clip-rule="evenodd" d="M34.4093 90.8653C29.4644 92.5034 29.4351 98.8689 30.0483 103.64C30.6953 108.673 34.2689 111.642 39.8055 109.922C46.2358 107.924 45.2932 93.8986 41.4393 91.5058C39.446 90.2684 36.7367 90.0943 34.4093 90.8657V90.8653Z" fill="#FEFEFE"/>
<path fill-rule="evenodd" clip-rule="evenodd" d="M156.598 104.107L165.356 104.167L162.088 90.5091C159.167 90.2151 159.806 90.6122 158.358 96.525C157.763 98.9562 157.009 101.901 156.598 104.107H156.598Z" fill="#FEFEFE"/>
</svg>
