<svg width="200" height="200" viewBox="0 0 200 200" fill="none" xmlns="http://www.w3.org/2000/svg">
<path fill-rule="evenodd" clip-rule="evenodd" d="M118.706 111.683C119.122 111.01 120.59 109.652 121.287 109.321C122.144 110.104 122.046 110.557 123.05 111.377C123.625 111.854 124.958 112.503 125.252 113.09C120.982 114.95 121.814 113.824 118.706 111.671V111.683ZM72.7214 104.292C73.0029 104.439 74.875 108.403 78.2033 105.675C82.7919 101.918 78.6928 86.6962 84.1502 85.8274C84.1502 90.5873 83.6607 101.306 84.5173 105.822C87.6008 106.996 91.443 105.76 94.1717 105.002C94.0249 108.208 91.1616 109.015 87.9801 109.284C82.3147 109.774 82.8409 107.926 80.9932 105.773C80.7607 105.981 80.8096 105.883 80.5527 106.262C80.4058 106.47 80.3691 106.605 80.2345 106.837C77.824 110.985 73.4189 109.431 72.1341 108.159L72.7092 104.28L72.7214 104.292ZM48.004 108.746L47.9673 104.696C52.2378 109.223 55.0154 104.818 55.6273 99.1405C56.1289 94.4295 55.1623 87.2223 59.1391 85.6928C59.1636 88.6173 58.8454 103.827 59.6408 105.883C62.5653 106.617 66.848 106.091 69.2341 104.781C69.4788 108.024 66.1627 108.819 63.0425 109.211C57.0589 109.957 57.4505 106.935 55.8842 105.54C54.2813 109.125 52.6538 110.251 48.004 108.758V108.746ZM105.76 106.14C104.524 107.327 103.263 108.868 100.865 109.138C93.8169 109.933 98.5401 99.63 104.365 99.2874C105.184 99.2384 105.552 99.2262 106.139 99.6912L106.995 100.854C107.779 100.462 108.28 99.9971 109.443 99.7891C109.43 104.941 109.284 107.094 115.903 105.393C117.274 105.038 118.644 104.292 119.795 104.108C119.268 107.29 117.335 108.844 114.007 109.309C106.714 110.337 107.118 108.024 106.225 106.617C105.955 106.189 106.09 106.409 105.772 106.127L105.76 106.14ZM88.2249 100.009C89.3873 97.7945 93.8169 98.6633 93.8046 100.009C93.7924 101.27 89.3996 102.212 88.2249 100.009ZM64.3028 99.1283C64.7923 96.9992 69.332 97.0114 69.8704 99.1283C68.6957 100.682 65.3062 100.67 64.3028 99.1283ZM180.573 105.638C180.573 111.414 170.979 111.255 168.422 105.136C165.277 105.846 166.697 106.14 163.038 105.442C162.487 106.36 162.499 107.082 162.194 107.914C161.826 108.905 161.41 109.333 160.419 109.603L160.383 99.7034C161.153 99.1528 162.512 98.5042 163.246 98.2595L162.879 102.628C164.824 102.946 167.7 103.509 168.74 101.625C170.123 99.1283 169.205 98.0026 172.754 97.868C172.435 99.8747 169.976 104.586 171.603 106.03C173.72 107.89 178.443 106.47 180.56 105.638H180.573ZM129.767 100.511L128.336 100.022C123.466 104.5 128.03 108.783 129.731 103.191C130.024 102.224 129.804 101.013 132.361 99.6912C134.466 106.519 134.05 112.392 129.841 116.712C126.329 120.309 117.054 122.916 117.017 114.681C118.314 115.293 119.428 116.822 120.896 117.287C124.542 118.449 131.211 114.522 131.15 107.596C129.939 108.354 128.495 110.557 125.913 109.407C123.172 108.183 123.392 101.796 126.525 98.8101C127.834 97.562 129.926 96.2772 131.407 98.2595C131.174 99.2751 130.367 99.9848 129.767 100.523V100.511ZM139.532 105.724C143.093 106.935 144.402 100.854 145.503 98.5165C146.054 97.354 145.601 97.7578 146.69 97.6477C147.131 98.7979 146.225 100.927 146.029 102.334C145.075 109.444 153.971 106.262 157.103 104.781C156.577 109.896 147.693 109.615 146.384 109.052C144.904 108.416 144.989 107.314 144.145 106.274C143.129 107.155 140.339 111.255 138.369 108.624C136.461 106.079 137.17 93.2426 137.17 89.4983C137.17 88.1401 137.023 85.7784 137.158 84.5548C137.28 83.4291 138.724 82.4746 139.409 81.667L141.355 81.6793C141.526 86.8185 138.969 103.019 139.52 105.724H139.532ZM44.5534 79.5012C44.9449 87.0021 44.5411 98.4186 44.6023 106.727C44.6145 109.272 44.174 110.52 41.7145 113.029L39.3162 100.964L36.7099 102.726C35.4373 102.065 35.4985 101.563 34.2137 101.111C33.663 103.289 32.4394 108.428 30.2858 109.419C29.2457 109.896 27.8875 110.092 26.7128 110.251C23.7638 110.655 21.3777 111.291 19.995 109.076C18.7102 107.008 19.5423 103.9 20.8883 102.677C21.855 103.387 22.1364 104.047 23.7271 104.451C27.7284 105.442 30.6162 102.934 31.9255 98.8101C32.8554 95.8612 36.5753 86.9898 36.612 84.5426L33.3082 83.2455C34.9478 82.4257 42.6812 79.7704 44.5778 79.5134L44.5534 79.5012ZM53.7796 86.3046C52.6661 90.1468 52.299 101.49 51.2344 102.86C49.7293 101.649 51.5648 102.2 48.0407 100.303C47.6981 98.4308 48.0285 91.4928 47.9061 88.7763L47.9306 79.5624C48.004 77.8003 46.9762 76.54 45.6302 76.1484C43.6723 75.5856 42.5099 76.797 40.8335 76.9071C39.9892 77.5923 36.4162 78.559 34.9111 79.0485C32.9044 79.7092 30.3714 79.9784 30.2001 81.8995C29.5516 84.5915 30.4082 85.962 32.574 86.3413C32.2314 89.4249 30.4693 92.3616 29.7596 95.1637C29.5883 95.9101 28.1567 99.4342 27.3001 100.303L26.4436 100.829C22.944 101.93 23.3845 98.8958 19.371 99.4097C18.441 99.838 17.8414 100.707 17.4009 101.465C17.4132 101.563 16.4343 104.035 16.4832 103.852C15.3575 105.968 15.2963 115.733 26.6761 113.677C28.4259 113.359 31.1668 112.943 32.6107 112.001C35.3272 110.251 35.1069 106.923 36.6609 106.14C38.0069 107.633 37.7622 113.995 39.4263 115.647C41.5799 117.801 43.6723 116.333 45.1285 114.314C45.7403 113.469 45.7281 113.151 46.2909 112.307C47.5513 111.401 49.2521 113.775 53.8897 112.282C55.199 111.854 55.1133 111.524 55.9209 111.242C57.1323 111.132 58.7108 114.522 68.7446 111.022C71.2408 110.153 72.5501 113.885 78.1299 112.601C79.5983 112.258 79.7206 111.695 81.0299 111.267C81.813 111.267 81.9354 112.613 88.4084 112.711C90.7456 112.747 93.0705 111.242 95.0405 110.643C95.8114 110.667 97.9405 113.628 102.615 112.331C104.095 111.915 103.545 111.499 104.964 111.157C106.212 111.671 106.714 112.319 108.562 112.772C110.214 113.176 112.208 112.735 113.909 112.772C111.388 128.52 129.706 125.473 135.628 114.044C136.069 113.2 136.032 112.662 136.497 111.928C137.66 112.184 137.293 112.466 138.724 112.796C139.581 112.992 140.719 113.053 141.698 112.723C142.615 112.417 142.407 111.511 143.778 111.622C145.895 111.793 143.961 113.335 151.719 112.38C154.57 112.025 154.852 111.316 157.079 110.973C159.037 114.913 163.111 112.809 164.323 110.887C165.338 109.272 164.653 109.284 167.027 109.284C168.887 111.206 169.621 112.136 172.876 112.809C178.957 114.057 184.305 111.01 183.987 105.589C183.681 100.364 178.113 103.325 174.785 103.435C174.87 90.1468 167.822 95.8367 168.165 95.543C169.474 93.9646 157.238 92.1169 156.92 101.196C155.329 102.346 151.854 103.435 149.566 103.301C149.076 101.918 150.067 100.034 149.921 98.6511C149.321 93.2916 146.666 95.9591 144.916 93.3405C143.974 91.9211 146.017 78.1797 142.395 78.4366C138.064 78.4978 138.761 77.6413 135.335 81.3611C132.851 86.8797 134.845 92.0679 133.585 93.7443C133.597 93.781 127.002 94.6865 126.818 94.7477C123.343 95.7144 122.621 98.6021 121.324 100.866C117.029 100.389 116.993 102.603 112.844 102.383C112.649 99.1038 113.346 98.4553 111.107 96.3874C109.149 96.0447 108.084 96.522 106.433 96.216C103.422 95.6654 103.202 95.7144 99.6414 97.611C98.638 98.1494 98.1485 98.7123 97.1819 99.2139C94.7836 93.2793 89.5219 96.0692 87.4785 95.6532C87.454 93.6342 87.5152 91.5173 87.5029 89.4983C87.6253 79.7459 87.405 81.9974 87.2215 80.6147C87.1603 79.1219 85.3493 79.2809 85.3371 79.232C84.4561 79.5869 84.1135 80.2231 83.0734 80.4801C83.0611 80.5046 79.1822 83.062 78.8274 83.7717C78.6928 84.0531 77.824 90.624 77.8117 90.9422C77.6527 94.3439 77.4202 100.413 76.3434 102.934C74.2754 101.625 76.9919 102.102 73.1375 100.584C73.0763 97.1827 72.7581 95.7144 69.9438 94.7232C68.7813 94.3072 67.3864 94.1481 65.918 94.3316C64.5353 94.4907 63.8011 95.3106 62.5897 95.335L62.602 92.0924L62.4551 87.1122C62.4674 87.1489 60.9623 81.7649 59.7142 82.1198C56.0433 82.3645 55.3825 84.5059 53.7918 86.3046H53.7796Z" fill="#DA251D"/>
<path fill-rule="evenodd" clip-rule="evenodd" d="M36.9056 90.1224C37.5785 90.4283 37.0524 89.3515 37.5418 90.93L38.8756 99.679L36.6119 98.333C35.7553 98.8469 35.5718 99.165 34.446 99.5076L36.9056 90.1224V90.1224ZM44.5288 79.5012C42.6322 79.7704 34.8988 82.4135 33.2591 83.2333L36.5629 84.5304C36.5385 86.9776 32.8186 95.849 31.8764 98.7979C30.5671 102.922 27.6916 105.43 23.6781 104.439C22.0873 104.047 21.8059 103.387 20.8392 102.665C19.4932 103.876 18.6612 106.984 19.946 109.064C21.3287 111.279 23.7025 110.655 26.6637 110.239C27.8384 110.08 29.2089 109.872 30.2367 109.407C32.3903 108.416 33.614 103.276 34.1646 101.098C35.4617 101.551 35.4005 102.053 36.6608 102.714L39.2672 100.952L41.6655 113.017C44.1128 110.52 44.5655 109.26 44.5533 106.715C44.5043 98.4186 44.8959 86.9899 44.5043 79.489L44.5288 79.5012Z" fill="#FBF503"/>
<path fill-rule="evenodd" clip-rule="evenodd" d="M139.52 105.724C138.969 103.019 141.527 86.8185 141.355 81.6792L139.41 81.667C138.724 82.4746 137.281 83.429 137.158 84.5548C137.024 85.7784 137.17 88.14 137.17 89.4983C137.17 93.2426 136.461 106.078 138.37 108.624C140.34 111.254 143.13 107.168 144.145 106.274C145.002 107.302 144.904 108.403 146.384 109.052C147.694 109.615 156.577 109.896 157.103 104.781C153.971 106.274 145.087 109.456 146.03 102.334C146.213 100.927 147.119 98.7979 146.69 97.6477C145.601 97.7578 146.042 97.354 145.503 98.5164C144.414 100.841 143.093 106.935 139.532 105.724H139.52Z" fill="#FBF503"/>
<path fill-rule="evenodd" clip-rule="evenodd" d="M129.743 100.523C130.342 99.9848 131.15 99.2751 131.382 98.2595C129.889 96.2772 127.809 97.562 126.5 98.8101C123.367 101.796 123.147 108.195 125.888 109.407C128.47 110.557 129.914 108.354 131.125 107.596C131.174 114.522 124.505 118.449 120.871 117.287C119.403 116.822 118.289 115.293 116.992 114.681C117.029 122.904 126.304 120.297 129.816 116.712C134.025 112.405 134.454 106.519 132.337 99.6912C129.792 101.013 130 102.224 129.706 103.191C128.005 108.783 123.441 104.5 128.311 100.022L129.743 100.511V100.523Z" fill="#FDF30B"/>
<path fill-rule="evenodd" clip-rule="evenodd" d="M72.709 104.292L72.1339 108.171C73.4065 109.444 77.8116 110.998 80.2344 106.849C80.369 106.605 80.4057 106.482 80.5525 106.274C80.8095 105.895 80.7605 105.993 80.993 105.785C82.8407 107.938 82.3268 109.774 87.98 109.297C91.1614 109.028 94.0247 108.22 94.1716 105.014C91.4429 105.773 87.6006 107.009 84.5171 105.834C83.6605 101.319 84.15 90.5996 84.15 85.8397C78.6926 86.7084 82.804 101.93 78.2031 105.687C74.8749 108.416 72.9905 104.451 72.7213 104.304L72.709 104.292Z" fill="#FDF30B"/>
<path fill-rule="evenodd" clip-rule="evenodd" d="M47.9915 108.746C52.6414 110.239 54.281 109.125 55.8717 105.528C57.438 106.923 57.0464 109.933 63.03 109.199C66.138 108.807 69.4541 108.012 69.2216 104.769C66.8355 106.066 62.5528 106.605 59.6283 105.87C58.8329 103.815 59.1633 88.605 59.1266 85.6805C55.1498 87.2223 56.1165 94.4173 55.6148 99.1283C55.0152 104.806 52.2253 109.211 47.9548 104.684L47.9915 108.734V108.746Z" fill="#FBF503"/>
<path fill-rule="evenodd" clip-rule="evenodd" d="M100.339 106.091C100.058 102.738 107.032 99.6789 105.907 102.689C105.784 103.019 105.686 103.081 105.393 103.374C104.144 104.684 102.431 106.238 100.339 106.079V106.091ZM105.747 106.14C106.066 106.421 105.931 106.201 106.2 106.629C107.093 108.036 106.69 110.349 113.982 109.321C117.323 108.844 119.244 107.302 119.77 104.121C118.62 104.304 117.25 105.051 115.879 105.406C109.259 107.106 109.406 104.953 109.418 99.8013C108.256 99.997 107.754 100.474 106.971 100.866L106.115 99.7034C105.527 99.2384 105.148 99.2506 104.34 99.2996C98.5158 99.6422 93.7925 109.945 100.841 109.15C103.239 108.881 104.499 107.351 105.735 106.152L105.747 106.14Z" fill="#FBF503"/>
<path fill-rule="evenodd" clip-rule="evenodd" d="M180.548 105.638C178.431 106.47 173.708 107.89 171.591 106.03C169.964 104.598 172.423 99.887 172.741 97.868C169.193 98.0026 170.11 99.1283 168.728 101.625C167.675 103.521 164.812 102.958 162.867 102.628L163.234 98.2595C162.499 98.5165 161.141 99.165 160.37 99.7034L160.407 109.603C161.398 109.333 161.814 108.905 162.181 107.914C162.487 107.082 162.475 106.36 163.026 105.442C166.684 106.14 165.253 105.846 168.41 105.136C170.967 111.242 180.56 111.414 180.56 105.638H180.548Z" fill="#FBF503"/>
<path fill-rule="evenodd" clip-rule="evenodd" d="M34.4462 99.5076C35.5841 99.165 35.7555 98.8468 36.612 98.3329L38.8757 99.6789L37.542 90.9299C37.0525 89.3637 37.5787 90.4405 36.9057 90.1223L34.4462 99.5076V99.5076Z" fill="#DB2A1C"/>
<path fill-rule="evenodd" clip-rule="evenodd" d="M100.339 106.091C102.431 106.238 104.144 104.696 105.393 103.387C105.674 103.081 105.784 103.032 105.907 102.701C107.032 99.679 100.058 102.738 100.339 106.103V106.091Z" fill="#D6261D"/>
<path fill-rule="evenodd" clip-rule="evenodd" d="M64.2782 99.1283C65.2816 100.67 68.671 100.682 69.8457 99.1283C69.2951 97.0114 64.7677 96.9992 64.2782 99.1283Z" fill="#FDF30B"/>
<path fill-rule="evenodd" clip-rule="evenodd" d="M88.2006 100.009C89.3753 102.212 93.7681 101.27 93.7803 100.009C93.7926 98.6634 89.363 97.7946 88.2006 100.009Z" fill="#FDF30B"/>
</svg>
