<svg width="200" height="200" viewBox="0 0 200 200" fill="none" xmlns="http://www.w3.org/2000/svg">
<path fill-rule="evenodd" clip-rule="evenodd" d="M69.104 94.9082C69.104 113.527 79.4319 130.314 96.4345 130.314H104.56C116.782 130.314 131.883 122.881 134.107 113.349C132.164 112.897 131.937 112.678 130.413 111.873C131.883 109.682 132.894 109.498 134.373 106.976C135.997 104.208 135.917 102.452 137.062 100.071C128.77 102 133.159 104.497 114.163 104.497C105.539 104.497 95.6967 95.9408 95.6967 82.3684C95.6967 74.9367 97.5442 72.0348 97.9124 67.6155C82.701 67.6155 69.1046 78.0669 69.1046 94.9076L69.104 94.9082Z" fill="#FF6C5F"/>
<path fill-rule="evenodd" clip-rule="evenodd" d="M43.9891 52.1257C30.014 59.5098 27 59.4878 27 78.6801C27 93.5105 40.5897 149.062 49.8985 150.23C49.8978 146.407 47.9293 142.582 47.0276 139.82C42.8812 127.121 40.219 104.732 40.2991 90.4786C40.3279 85.3595 39.02 82.2048 39.6109 77.2591C42.2028 55.5771 42.1417 48.4043 61.4186 42.9762C76.3664 38.7676 84.3453 39.239 97.7508 37.2128C115.534 34.5247 123.462 36.6351 137.799 36.6351C131.865 28.111 63.1419 25.0949 50.791 36.1973C50.2117 36.7182 50.2777 36.64 49.6972 37.1976C47.331 39.4698 45.7154 42.0846 44.9171 45.6179L43.9885 52.1257H43.9891Z" fill="#403E3F"/>
<path fill-rule="evenodd" clip-rule="evenodd" d="M100.866 77.2045C100.866 80.8618 103.214 84.5312 105.298 86.056C103.574 88.4064 104.068 86.6563 102.344 89.0067C107.289 98.34 124.422 105.401 135.057 94.3823C140.395 88.8516 140.755 84.1037 140.755 76.4675C140.755 69.0803 129.021 61.7146 121.549 61.7146H115.64C107.865 61.7146 100.866 69.6306 100.866 77.2051V77.2045Z" fill="#00BB51"/>
<path fill-rule="evenodd" clip-rule="evenodd" d="M152.326 148.453L143.25 151.985C134.048 154.759 93.6932 159.83 84.6162 159.82C59.4531 159.791 52.6188 150.122 52.327 153.84C52.0658 157.165 61.6119 163.55 65.9712 165.298C81.5753 171.551 126.056 171.665 141.363 167.066C145.42 165.847 149.023 163.676 151.41 160.134C153.815 156.564 155.528 153.624 155.528 148.015C161.297 144.447 168.265 143.236 170.753 134.455C173.596 124.426 170.973 110.399 168.882 100.014C167.879 95.0341 163.909 72.8672 159.96 69.8298L162.919 91.9546C163.038 93.5789 162.792 95.5025 162.911 97.1262C163.123 100.03 163.438 98.6339 163.658 101.544L163.655 117.039C163.714 132.663 159.105 141.022 159.218 142.855C159.218 145.51 155.205 147.212 152.327 148.454L152.326 148.453Z" fill="#403E3F"/>
</svg>
