<svg width="200" height="200" viewBox="0 0 200 200" fill="none" xmlns="http://www.w3.org/2000/svg">
<path fill-rule="evenodd" clip-rule="evenodd" d="M99.5 172.052C139.407 172.052 172 139.46 172 99.5525C172 59.5314 139.407 27 99.5 27C59.5926 27 27 59.5401 27 99.5525C27 139.46 59.5926 172.052 99.5 172.052Z" fill="#393185"/>
<path fill-rule="evenodd" clip-rule="evenodd" d="M99.4999 152.856C128.855 152.856 152.803 128.917 152.803 99.5527C152.803 70.1362 128.864 46.197 99.4999 46.197C70.1447 46.197 46.1968 70.1362 46.1968 99.5527C46.1968 128.908 70.1359 152.856 99.4999 152.856Z" fill="#008DD2"/>
<path fill-rule="evenodd" clip-rule="evenodd" d="M48.5417 85.9904L95.5364 73.3208L91.074 92.1327L46.8705 103.63C46.3718 97.7675 46.7043 92.5789 48.5417 85.9904Z" fill="#FEFEFE"/>
<path fill-rule="evenodd" clip-rule="evenodd" d="M104.969 82.5343L144.202 71.4834C147.326 76.6195 149.172 80.6356 150.677 86.9966L105.249 99.2199L104.969 82.5343V82.5343Z" fill="#FEFEFE"/>
<path fill-rule="evenodd" clip-rule="evenodd" d="M51.0005 120.036L96.5427 107.646L97.0414 125.224L60.4852 135.103C56.1278 129.8 53.2842 125.95 51.0005 120.036V120.036Z" fill="#E31E24"/>
<path fill-rule="evenodd" clip-rule="evenodd" d="M104.969 117.14L152.016 103.858C151.456 111.059 149.338 116.86 147.212 122.223L100.331 135.173L104.96 117.148L104.969 117.14Z" fill="#E31E24"/>
<path fill-rule="evenodd" clip-rule="evenodd" d="M98.94 145.156V145.094V145.156V145.042L106.421 114.287L121.103 121.269L112.835 108.039L138.62 100.891L112.502 93.6375L121.269 80.5217L106.64 86.3315L98.94 54.5176V54.4038V54.4563V54.4038V54.5176L91.2403 86.3315L76.6195 80.5217L85.378 93.6375L59.2601 100.891L85.0455 108.039L76.7858 121.269L91.5203 114.287L98.94 145.042V145.156Z" fill="#FEFEFE"/>
<path d="M98.94 145.156V145.094V145.156ZM98.94 145.156V145.042L106.421 114.287L121.103 121.269L112.835 108.039L138.62 100.891L112.502 93.6375L121.269 80.5217L106.64 86.3315L98.94 54.5176V54.4038V54.4563V54.4038V54.5176L91.2403 86.3315L76.6195 80.5217L85.378 93.6375L59.2601 100.891L85.0455 108.039L76.7858 121.269L91.5203 114.287L98.94 145.042V145.156Z" stroke="#393185" stroke-width="0.155297" stroke-miterlimit="22.9256"/>
<path fill-rule="evenodd" clip-rule="evenodd" d="M99.2725 114.121C106.412 114.121 112.222 108.258 112.222 101.171C112.222 94.0312 106.421 88.1689 99.2725 88.1689C92.1853 88.1689 86.323 94.0312 86.323 101.171C86.323 108.258 92.1853 114.121 99.2725 114.121Z" fill="#E31E24"/>
<path fill-rule="evenodd" clip-rule="evenodd" d="M99.1677 89.0615L104.304 98.4412L109.492 107.76H88.843L94.0316 98.4412L99.1677 89.0615Z" fill="#00A0E3"/>
<path fill-rule="evenodd" clip-rule="evenodd" d="M41.5071 63.5563L50.0468 69.1386L50.773 68.0186L45.7507 64.7287C45.4707 64.615 44.3595 63.8888 43.572 63.39L43.6245 63.3375L52.383 65.7349L53.1617 64.615L47.6406 57.5802C48.4193 58.079 49.4781 58.8664 49.7055 58.9714L54.7804 62.2613L55.5066 61.2026L46.9669 55.6203L45.9082 57.239L51.4905 64.2737H51.438L42.5658 61.9288L41.5071 63.5475V63.5563ZM51.6655 51.0004L53.7829 53.3454C55.2354 54.9116 56.6878 54.4041 57.8603 53.3979C58.8052 52.5579 59.479 51.6654 59.9777 50.9392L63.1626 54.3428L64.2213 53.4504L57.3528 46.0306L56.2941 46.9231L59.199 50.108C58.7002 50.7817 58.1403 51.5604 57.3615 52.2254C56.5828 52.8991 55.6291 53.2841 54.7979 52.3916L52.6804 50.0992L51.6742 50.9917L51.6655 51.0004ZM71.2561 40.7283L70.1361 41.402C68.8499 40.0633 67.3974 40.5621 66.5662 41.0695C64.9475 41.962 64.3875 43.8607 65.7875 46.1444C67.0125 48.1568 68.7449 49.268 70.9236 47.9818C71.7023 47.5356 72.8223 46.4156 71.9823 44.1844L73.1547 43.5107C74.6597 47.0281 72.0348 48.7605 71.3698 49.093C69.3574 50.2655 66.6275 50.1517 64.5625 46.8618C62.9438 44.2369 63.3376 41.507 65.9537 39.9933C68.2462 38.6546 70.2498 39.3808 71.2561 40.7196V40.7283ZM89.0617 33.5273L91.8528 33.1336C93.0253 32.9673 93.9703 33.2473 94.1453 34.4723C94.3115 35.811 93.5328 36.371 92.3078 36.5897L89.5692 36.9222L89.0704 33.5185L89.0617 33.5273ZM89.7354 38.1034L92.9728 37.6572C95.1515 37.3772 95.7115 35.706 95.5365 34.306C95.309 32.6873 94.0315 31.6286 92.1328 31.9086L87.5567 32.5823L89.0092 42.4607L90.3479 42.2332L89.7354 38.1034V38.1034ZM108.993 37.1584C108.766 39.5033 107.261 41.0695 105.03 40.8945C102.799 40.7283 101.626 38.8821 101.845 36.5372C102.072 34.1923 103.516 32.6261 105.756 32.8011C107.987 32.9673 109.16 34.8135 108.993 37.1584ZM110.385 37.2722C110.612 35.1547 109.711 31.9174 105.861 31.5761C102.064 31.2961 100.611 34.2535 100.393 36.4322C100.226 38.5496 101.119 41.7345 104.916 42.1283C108.766 42.4082 110.218 39.3896 110.385 37.2722V37.2722ZM124.227 39.3896C124.62 37.7184 123.894 35.7585 121.383 34.9273C118.592 33.8685 116.133 35.321 115.022 38.2171C113.736 41.787 115.355 43.9657 117.533 44.6919C118.259 44.9719 121.269 45.8644 123.116 42.5132L121.891 42.067C120.604 44.0794 118.986 43.9657 118.154 43.6857C115.757 42.7932 115.591 40.842 116.422 38.6109C117.367 36.1522 119.213 35.3735 120.998 36.0472C121.891 36.3272 123.177 37.1672 122.949 38.9521L124.235 39.3983L124.227 39.3896ZM136.223 45.6981C136.949 44.1319 136.616 42.1283 134.324 40.7895C131.76 39.2846 129.074 40.2296 127.455 42.8545C125.39 46.1444 126.563 48.5505 128.575 49.723C129.249 50.1167 132.031 51.5079 134.551 48.603L133.379 47.9293C131.76 49.6617 130.194 49.268 129.415 48.7693C127.184 47.4831 127.464 45.5319 128.689 43.5195C130.08 41.2883 132.093 40.8945 133.711 41.787C134.551 42.2857 135.663 43.292 135.05 45.0244L136.223 45.6981V45.6981ZM143.922 47.8156L137.946 53.5641L137.999 53.6166L147.658 51.3854L148.778 52.5054L141.464 59.5402L140.519 58.5952L146.433 52.8991H146.381L136.835 55.0166L135.663 53.8966L142.916 46.8618L143.922 47.8068V47.8156ZM153.687 58.0877L152.908 56.9677L144.369 62.55L145.261 63.8363L155.087 63.5563V63.6088L148.218 68.0711L148.997 69.1911L157.484 63.6088L156.644 62.3226L146.713 62.7163V62.6638L153.687 58.0877Z" fill="#FEFEFE"/>
<path fill-rule="evenodd" clip-rule="evenodd" d="M66.8463 158.272L61.5965 154.982L63.5477 152.077L68.29 155.034L68.9637 154.028L64.2739 151.071L65.8926 148.612L71.0286 151.849L71.7024 150.843L65.3938 146.879L59.759 155.253L66.1813 159.269L66.855 158.263L66.8463 158.272ZM73.2686 151.911L75.106 152.637L74.7123 161.509H74.7648L80.6271 154.64L82.4645 155.367L78.7809 164.685L77.4947 164.186L79.6733 158.718C79.7871 158.438 80.2858 157.265 80.6183 156.373L74.8173 163.18L73.5311 162.734L73.9248 153.862H73.8723C73.5398 154.702 73.1461 155.927 73.0323 156.207L70.8537 161.728L69.5674 161.229L73.2511 151.911H73.2686ZM90.628 166.146L84.4857 165.088L85.0982 161.623L90.6192 162.629L90.8467 161.404L85.3257 160.511L85.8244 157.607L91.8529 158.613L92.0804 157.44L84.6607 156.215L82.8757 166.041L90.3567 167.327L90.6367 166.155L90.628 166.146ZM95.764 163.521L99.1152 163.574C100.786 163.626 100.953 164.58 100.953 165.359C100.9 165.753 100.953 167.31 101.119 167.87L102.79 167.922V167.704C102.396 167.476 102.291 167.257 102.291 166.698V164.913C102.344 163.46 101.513 163.294 101.066 162.961C101.74 162.629 102.519 162.069 102.571 160.616C102.571 158.552 100.9 157.939 99.2202 157.878L94.4778 157.825L94.3116 167.756L95.6503 167.809L95.764 163.513V163.521ZM95.8165 158.998L99.2814 159.05C100.008 159.05 101.119 159.164 101.119 160.721C101.119 162.174 99.9989 162.454 99.0014 162.393L95.764 162.34L95.8165 158.989V158.998ZM113.788 159.444C113.29 157.773 111.671 156.434 109.046 156.933C106.089 157.379 104.689 159.776 105.249 162.848C105.922 166.584 108.434 167.651 110.77 167.31C111.548 167.144 114.62 166.47 114.506 162.62L113.167 162.839C113.115 165.236 111.662 165.91 110.77 166.076C108.259 166.523 107.086 164.851 106.64 162.559C106.194 159.934 107.419 158.377 109.265 158.035C110.21 157.922 111.776 157.983 112.45 159.601L113.788 159.435V159.444ZM124.787 157.825C125.566 160.004 124.901 162.069 122.774 162.734C120.657 163.46 118.811 162.235 118.032 159.995C117.253 157.817 117.918 155.752 120.097 155.087C122.162 154.36 124.008 155.585 124.787 157.825ZM126.178 157.327C125.452 155.314 123.334 152.75 119.651 153.975C116.02 155.148 115.967 158.438 116.693 160.503C117.42 162.568 119.537 165.131 123.168 163.906C126.852 162.681 126.904 159.383 126.178 157.318V157.327ZM125.784 151.858L127.455 150.852L134.595 156.548V156.495L132.478 147.842L134.149 146.836L139.618 155.323L138.445 155.997L135.208 150.974C135.041 150.747 134.429 149.636 133.921 148.857H133.869L136.048 157.449L134.823 158.175L127.788 152.54L127.735 152.593C128.295 153.319 129.022 154.378 129.188 154.658L132.373 159.68L131.253 160.354L125.784 151.867V151.858Z" fill="#FEFEFE"/>
</svg>
