<svg width="49" height="49" viewBox="0 0 49 49" fill="none" xmlns="http://www.w3.org/2000/svg">
<path fill-rule="evenodd" clip-rule="evenodd" d="M7.29521 26.0051C7.29521 25.7849 7.22681 25.376 7.21997 25.127C7.2186 25.0669 7.22408 24.9998 7.21997 24.941C7.20219 24.7181 7.22134 24.4267 7.20082 24.1942C7.19535 24.1313 7.17893 24.1053 7.18714 24.0315C7.20766 23.8714 7.20219 23.6526 7.20082 23.4844C7.20082 23.338 7.21997 23.2559 7.21997 23.1301C7.21997 22.9072 7.24459 22.6117 7.27059 22.4148L7.34719 21.7446C7.54418 20.1074 8.01612 18.5386 8.64811 17.0299C8.79585 16.6757 8.98189 16.3529 9.12553 16.0055C9.03935 15.9508 8.91213 15.8236 8.82594 15.7525C8.76849 15.706 8.72608 15.6854 8.65906 15.6403C8.57561 15.5842 8.57835 15.5596 8.50721 15.5117C8.37999 15.4269 8.29792 15.3736 8.1748 15.2833C8.07904 15.2122 7.99423 15.1165 7.87796 15.0385C7.76168 14.9605 7.67139 14.9017 7.55512 14.8005L6.13108 13.7391C5.99292 13.6024 5.83424 13.508 5.66188 13.3862C5.44437 13.2317 5.29527 13.073 5.03262 12.913C4.77955 12.7584 4.63865 12.6094 4.40883 12.4357C4.29119 12.3468 4.1927 12.3262 4.08737 12.2223C4.00803 12.2907 3.96151 12.4179 3.91364 12.5027C3.88491 12.5519 3.86576 12.6012 3.83703 12.6504C3.58943 13.0758 3.22419 13.8321 3.0272 14.3054C2.98206 14.4148 2.93829 14.5051 2.89041 14.6172C2.35007 15.8756 1.86171 17.3322 1.57855 18.6863C1.52656 18.9339 1.47458 19.1691 1.4226 19.4276C1.37335 19.6697 1.33231 19.9255 1.28854 20.1908C1.2434 20.4575 1.21604 20.7024 1.17637 20.9745C1.07651 21.6584 0.998535 22.78 0.998535 23.468V24.5334C0.998535 24.7673 1.01905 24.9547 1.01632 25.1694C1.01495 25.3609 1.05189 25.5825 1.05462 25.7671C1.06009 26.172 1.13259 26.5331 1.16679 26.9256C1.18321 27.1185 1.21741 27.3141 1.2434 27.5028C1.50468 29.389 2.07101 31.3394 2.7372 33.0149C2.85895 33.3226 2.99301 33.6112 3.12433 33.9176L3.53471 34.7779C4.0217 35.7531 4.59488 36.6763 5.19677 37.5818C5.28569 37.7145 5.36777 37.8239 5.45805 37.9552C5.84381 38.5132 6.26925 39.0603 6.72204 39.5691L6.86704 39.7415C7.05445 39.9863 7.47167 40.398 7.70286 40.662C7.87385 40.8562 8.07084 41.0299 8.25414 41.2132L8.4224 41.3623C8.47849 41.4115 8.52636 41.4662 8.58108 41.5209C8.81637 41.7562 9.09953 41.9914 9.34713 42.2116C10.395 43.1444 11.9449 44.2168 13.176 44.9034L14.0023 45.3465C14.4085 45.5831 15.3018 45.9866 15.7464 46.1617C15.9037 46.2246 16.0364 46.2848 16.1978 46.3463C18.1773 47.1 20.2073 47.6457 22.3399 47.8646C22.5355 47.8851 22.7353 47.9083 22.9172 47.922L24.1306 47.9986C24.4466 48.015 26.2919 48.0027 26.6284 47.9562C26.7899 47.9343 27.0416 47.9179 27.2139 47.9056C29.3835 47.7592 32.3697 47.0029 34.356 46.1179C34.6569 45.9839 34.9401 45.8731 35.2342 45.7254L36.081 45.3014C37.1152 44.7885 38.2834 44.0472 39.2232 43.3441L39.9523 42.7833L41.5665 41.3718C41.8113 41.1667 42.1643 40.8138 42.3694 40.569C42.3941 40.5389 42.416 40.5211 42.4433 40.4937C42.4967 40.4418 42.5541 40.3898 42.6006 40.3337L43.1998 39.6621C43.5555 39.2805 44.011 38.6664 44.3256 38.2465C44.6115 37.8635 44.9904 37.3397 45.2408 36.9198C45.2832 36.8487 45.3201 36.7994 45.3639 36.7256L45.8386 35.9295C45.9836 35.6601 46.1532 35.3852 46.2859 35.1075L43.3653 34.0325C43.2436 33.9764 43.13 33.9504 42.9973 33.8943C42.8619 33.8355 40.5651 32.9943 40.4393 32.9766C40.3804 33.0504 40.3148 33.1763 40.2601 33.2665C39.8976 33.8697 39.4968 34.4483 39.0645 35.0036L38.8593 35.2648C38.6308 35.5575 38.3723 35.827 38.1356 36.1101L37.3504 36.913C37.2971 36.9567 37.2793 36.9649 37.2301 37.0169L36.0085 38.0742C35.9196 38.1412 35.8457 38.2 35.7554 38.2684C35.5789 38.4011 35.4189 38.516 35.2383 38.6473C34.884 38.9044 34.5147 39.1328 34.1385 39.3585C29.3643 42.2198 23.2852 42.6917 18.1389 40.4978C17.4358 40.1983 16.8038 39.9042 16.1609 39.524L15.7382 39.2737C15.3634 39.0371 15.0036 38.81 14.6479 38.5529C14.2088 38.2356 13.7779 37.9087 13.3744 37.5476L12.7862 37.0142C12.7355 36.9636 12.7178 36.9554 12.6658 36.9102C12.5194 36.7871 12.358 36.6025 12.2157 36.463L11.7862 35.9952C11.5714 35.7832 11.3443 35.5014 11.1569 35.2607C11.0872 35.1704 11.0256 35.0966 10.9599 35.009C10.6275 34.5741 10.3197 34.1309 10.0147 33.6755L9.50855 32.8371C9.1693 32.2298 8.88477 31.6416 8.60707 31.0111C8.51405 30.8005 8.43881 30.5926 8.3499 30.371C8.07768 29.6953 7.88206 28.995 7.70559 28.2879L7.54144 27.5562C7.44705 27.1581 7.32941 26.3908 7.29931 26.0051H7.29521Z" fill="currentColor"/>
<path fill-rule="evenodd" clip-rule="evenodd" d="M7.85754 7.19305C7.96151 7.35581 8.42798 7.6321 8.62633 7.78666C8.67968 7.82769 8.71935 7.8824 8.76723 7.92617C8.85341 8.00823 9.00252 8.07935 9.10238 8.15185C9.22823 8.24212 9.26653 8.31324 9.39375 8.40351C9.59484 8.54576 9.82466 8.7687 10.0353 8.88223C10.2556 9.00122 10.458 9.22143 10.6523 9.36641C10.8657 9.52644 11.0285 9.6044 11.2993 9.84102L12.856 11.0597C12.8588 11.0624 12.8642 11.0679 12.8683 11.0706C12.8984 10.9981 12.9244 10.9872 12.9846 10.9407C13.0407 10.8969 13.0681 10.8614 13.1187 10.8135C13.172 10.7629 13.2049 10.7465 13.2596 10.6918L13.54 10.4497C13.5838 10.4086 13.6399 10.3676 13.685 10.3334C13.7821 10.2582 13.8697 10.1789 13.9736 10.0982C14.265 9.87111 14.5578 9.64543 14.8669 9.44027C14.9764 9.36778 15.0694 9.29665 15.1802 9.22963C15.2841 9.16809 15.3744 9.09696 15.4866 9.03131C15.6015 8.96292 15.6918 8.90001 15.8094 8.83025C15.9257 8.76049 16.0256 8.70442 16.1391 8.63603C16.2513 8.56764 16.3648 8.51704 16.4756 8.45002C16.5358 8.41309 16.5796 8.39257 16.6466 8.35974L17.1637 8.09166C17.3976 7.97404 17.6315 7.87282 17.8805 7.76204C19.9516 6.84017 22.4344 6.27666 24.7121 6.27939C24.7955 6.27939 24.868 6.28213 24.9473 6.27119L26.4384 6.32726C26.6833 6.36283 26.8967 6.36556 27.1347 6.39702L28.4876 6.61449C29.6572 6.84838 30.69 7.17254 31.6941 7.57465C32.3192 7.82495 32.8637 8.10534 33.4492 8.39667C34.2467 8.79469 35.6064 9.70014 36.2617 10.2732L36.5462 10.5126C36.6064 10.5605 36.6337 10.5905 36.6885 10.6329C36.7418 10.674 36.7801 10.7068 36.8157 10.7656L36.8882 10.7013C37.1125 10.5194 37.3355 10.3033 37.5886 10.1501C37.7568 10.0489 37.8977 9.88615 38.0509 9.77263L39.5995 8.55533C39.6679 8.49378 39.8252 8.3406 39.9004 8.29546C40.122 8.16552 40.2492 7.99866 40.5392 7.81401C40.6377 7.75109 40.583 7.73878 40.6637 7.67724C40.7116 7.64031 40.7786 7.61022 40.8361 7.56782L41.3012 7.19168C41.4448 7.08226 41.6555 6.94275 41.7636 6.81829C41.7116 6.73075 41.3231 6.40249 41.2218 6.29991C40.9578 6.03457 40.5598 5.69126 40.2561 5.45464L39.8607 5.14006C39.7212 5.02927 39.5926 4.93079 39.449 4.82274L38.8348 4.37138C37.8348 3.66152 36.7733 3.03509 35.6775 2.48388L34.9293 2.12964C33.1797 1.35138 31.3535 0.755045 29.4629 0.402165C29.0594 0.326939 28.6367 0.248977 28.2222 0.205209L26.4097 0.0369753C26.3276 0.0328721 26.3317 0.0205623 26.2428 0.0178268C25.158 -0.0149992 24.1238 -0.00952824 23.0459 0.0739046C21.7518 0.172383 20.4167 0.391223 19.202 0.694864C17.5303 1.1134 16.0064 1.65229 14.5783 2.36626L13.8314 2.73965C13.6577 2.82582 13.5181 2.91472 13.3458 3.00089C12.8533 3.24846 11.9751 3.82565 11.51 4.13613C10.8479 4.57791 10.2118 5.06073 9.60305 5.57227L9.10375 6.00721C8.85888 6.19596 8.65643 6.43258 8.42524 6.63638L8.22963 6.81418C8.14345 6.90035 7.91363 7.10962 7.86165 7.19168L7.85754 7.19305Z" fill="currentColor"/>
<path fill-rule="evenodd" clip-rule="evenodd" d="M45.7073 11.8626C45.6279 11.8817 45.156 12.225 45.1163 12.2619L44.773 12.5355C44.6225 12.6531 44.4666 12.7653 44.3298 12.8952L42.9673 13.9429C42.6527 14.1918 42.3599 14.4011 42.0658 14.6473L41.5159 15.0877C41.4721 15.1233 41.4393 15.1288 41.3859 15.1629L40.8223 15.6088C40.7827 15.6403 40.7334 15.6649 40.7416 15.7237C40.7444 15.7429 40.9755 16.1874 41.0111 16.2585C41.3066 16.8494 41.4954 17.3459 41.7334 17.9463C41.7744 18.0503 41.8004 18.1529 41.8401 18.2513C41.8798 18.3498 41.9099 18.4483 41.9454 18.5577C42.3243 19.7162 42.5035 20.6121 42.68 21.8403C42.7115 22.0605 42.7484 22.3382 42.7552 22.568L42.81 23.3161C42.8195 23.4324 42.8113 23.5869 42.8113 23.7073C42.8113 24.0875 42.8606 24.4965 42.8031 24.8767L42.7552 25.6317C42.7429 25.8697 42.6403 26.6097 42.5966 26.8764C42.5829 26.9625 42.5637 26.9913 42.628 27.0309C42.7347 27.098 43.8756 27.4604 44.0931 27.5644L47.3639 28.742C47.5294 28.794 47.8139 28.8719 47.9658 28.9431C48.0287 28.9731 48.3283 29.1017 48.4062 29.1031C48.4938 29.1058 48.4719 29.0785 48.4883 28.9909C48.6798 27.9432 48.8112 27.2976 48.9042 26.1939L48.9958 24.6784C48.9958 24.424 49.0109 23.2217 48.9904 23.0768L48.9206 21.932C48.8864 21.2084 48.5923 19.444 48.4391 18.7902C48.2106 17.8137 48.0519 17.2214 47.7373 16.279C47.5499 15.7169 47.0998 14.5283 46.8222 13.9798L46.4364 13.1701C46.3885 13.0744 46.3434 13.0033 46.2928 12.9021C46.2449 12.8049 46.2066 12.7311 46.1573 12.6463L46.0137 12.3796C45.9562 12.2715 45.7743 11.9392 45.7086 11.8626H45.7073Z" fill="currentColor"/>
</svg>
