<svg width="200" height="200" viewBox="0 0 200 200" fill="none" xmlns="http://www.w3.org/2000/svg">
<path fill-rule="evenodd" clip-rule="evenodd" d="M145.06 94.3984C147.43 95.9026 146.131 99.3648 146.372 105.214C146.512 108.579 148.561 114.871 144.92 115.416C141.566 115.915 142.802 110.837 143.036 105.186C143.287 99.1624 142.467 95.7909 145.057 94.3984H145.06ZM130.056 96.2795C128.65 92.6149 125.885 90.3777 122.58 88.4826C119.156 86.5212 115.666 85.8371 115.178 84.1339C114.497 81.7467 115.558 82.2353 116.172 81.8165C118.169 80.4449 119.882 82.0224 121.39 83.0729C126.95 86.9505 138.984 92.224 133.543 106.415C128.171 120.417 109.318 118.323 103.81 111.343C96.7429 102.384 111.22 90.4196 115.035 88.3116C116.986 87.2332 122.35 87.5124 113.583 94.0912C102.097 102.705 105.245 114.156 118.102 113.653C125.948 113.346 133.515 105.291 130.06 96.29L130.056 96.2795ZM173.232 85.6452C174.907 88.6432 174.635 88.2313 174.063 92.4683C172.702 102.555 175.619 111.482 173.85 115.213L170.95 115.454C169.341 112.212 170.088 96.0073 170.266 91.2607C162.856 94.0005 159.024 101.815 148.655 94.9882C146.397 93.5014 132.415 81.8374 138.38 78.6719C140.31 77.6493 141.72 79.7678 142.404 81.3593C143.748 84.4795 142.924 83.4743 144.938 85.9732C147.088 88.6397 149.52 91.1176 152.724 92.9814C156.637 95.2534 160.486 93.2536 164.081 91.6377C173.682 87.3309 168.269 86.748 173.229 85.6486L173.232 85.6452ZM71.3559 88.2209C75.5126 85.9313 88.6529 76.1381 95.5109 79.0035L95.3329 81.984C92.6455 82.9752 89.0926 82.9717 85.5048 84.3608C82.5801 85.4916 80.0916 86.8457 77.6241 88.165C70.0261 92.231 71.4466 91.2189 71.1011 105.34C77.6346 107.326 82.587 110.285 91.417 111.455C92.9876 111.664 94.1393 111.671 95.7064 111.678C96.2299 111.681 97.2316 111.66 97.7027 111.748L98.9068 112.205C99.3501 111.465 103.399 118.958 85.4071 114.456C77.2681 112.418 76.1303 110.774 71.1918 109.06C71.2198 112.474 72.0783 114.913 67.782 114.282C66.9479 112.289 68.0821 110.139 67.9425 106.903C64.6444 104.028 54.7709 99.1763 67.0281 91.3724C67.0281 88.0219 66.1416 86.0814 66.187 83.8268C67.4888 82.6088 67.6424 81.984 69.733 81.806C71.1953 83.394 70.9859 85.7987 71.3594 88.2243L71.3559 88.2209ZM58.7531 125.425C62.84 126.232 181.472 126.005 183.999 125.366L183.982 74.3302C176.502 73.8346 62.1245 73.9358 58.7461 74.3756V106.223L58.7531 125.425V125.425Z" fill="black"/>
<path fill-rule="evenodd" clip-rule="evenodd" d="M67.2933 95.3791L67.6074 102.625C65.96 101.801 65.2131 101.152 64.4837 99.0996L67.2933 95.3791V95.3791ZM71.3557 88.2244C70.9823 85.7987 71.1917 83.3975 69.7293 81.8061C67.6388 81.984 67.4852 82.6123 66.1834 83.8268C66.1345 86.0779 67.021 88.0184 67.0245 91.3724C54.7707 99.1763 64.6408 104.028 67.9389 106.903C68.0785 110.139 66.9442 112.289 67.7784 114.282C72.0747 114.913 71.2161 112.474 71.1882 109.06C76.1267 110.774 77.2645 112.418 85.4034 114.456C103.395 118.962 99.3464 111.465 98.9032 112.205L97.6991 111.748C97.2279 111.66 96.2263 111.681 95.7028 111.678C94.1357 111.671 92.984 111.66 91.4134 111.455C82.5834 110.285 77.631 107.326 71.0975 105.34C71.443 91.2154 70.0225 92.231 77.6205 88.165C80.088 86.8458 82.5764 85.4916 85.5012 84.3608C89.089 82.9752 92.6419 82.9752 95.3293 81.984L95.5073 79.0035C88.6492 76.1381 75.509 85.9349 71.3523 88.2209L71.3557 88.2244Z" fill="#FDFDFD"/>
<path fill-rule="evenodd" clip-rule="evenodd" d="M116.169 81.8165C115.558 82.2353 114.494 81.7467 115.174 84.1339C115.659 85.8371 119.153 86.5212 122.577 88.4826C125.885 90.3812 128.646 92.6149 130.053 96.2795C133.508 105.281 125.941 113.336 118.095 113.643C105.238 114.145 102.09 102.694 113.576 94.0807C122.346 87.5054 116.979 87.2227 115.028 88.3011C111.213 90.4126 96.7359 102.377 103.803 111.332C109.311 118.316 128.168 120.407 133.536 106.404C138.977 92.2135 126.943 86.94 121.383 83.0625C119.875 82.0119 118.162 80.4344 116.165 81.806L116.169 81.8165Z" fill="#FDFDFD"/>
<path fill-rule="evenodd" clip-rule="evenodd" d="M27.2757 96.283C25.2619 95.9899 25.9844 96.5378 23.8275 97.009C24.1311 102.157 23.7821 102.747 22.5327 107.444C21.8347 110.065 20.107 113.329 20.5922 116.26C26.1764 121.75 47.1031 117.349 53.7657 109.081C63.7125 96.7402 20.5049 79.1885 19.786 79.1187C16.2365 78.7766 14.2995 83.1602 17.9886 83.607C21.0948 83.9839 23.4471 85.0972 26.1135 86.2001C31.0939 88.2628 36.8072 90.9152 41.2571 93.4595C45.3371 95.7944 51.7344 99.3229 52.4534 104.698C50.8131 107.654 44.3773 112.25 40.5696 113.699C35.994 115.44 27.6701 117.391 23.5588 114.826C23.3738 109.109 29.9736 102.122 27.2792 96.283H27.2757Z" fill="black"/>
<path fill-rule="evenodd" clip-rule="evenodd" d="M170.266 91.2642C170.088 96.0108 169.344 112.215 170.95 115.458L173.85 115.217C175.616 111.486 172.702 102.558 174.063 92.4718C174.635 88.2313 174.911 88.6431 173.232 85.6486C168.273 86.7515 173.686 87.3308 164.085 91.6376C160.486 93.2536 156.64 95.2534 152.728 92.9813C149.524 91.1211 147.091 88.6431 144.941 85.9732C142.924 83.4708 143.748 84.4759 142.408 81.3593C141.724 79.7678 140.31 77.6493 138.383 78.6719C132.419 81.8374 146.404 93.5014 148.658 94.9882C159.028 101.815 162.86 94.0005 170.269 91.2607L170.266 91.2642Z" fill="#FDFDFD"/>
<path fill-rule="evenodd" clip-rule="evenodd" d="M145.06 94.3984C142.47 95.7909 143.29 99.1589 143.039 105.186C142.802 110.833 141.57 115.915 144.924 115.416C148.564 114.871 146.515 108.582 146.376 105.214C146.135 99.3648 147.43 95.9026 145.063 94.3984H145.06Z" fill="#DF291E"/>
<path fill-rule="evenodd" clip-rule="evenodd" d="M64.4839 99.0961C65.2133 101.148 65.9602 101.797 67.6075 102.621L67.2934 95.3756L64.4839 99.0961V99.0961Z" fill="#DF291E"/>
</svg>
