<svg width="200" height="200" viewBox="0 0 200 200" fill="none" xmlns="http://www.w3.org/2000/svg">
<path fill-rule="evenodd" clip-rule="evenodd" d="M139.048 129.105H128.351V107.319C128.351 103.001 128.16 100.258 127.75 99.0917C127.34 97.9255 126.629 97.0052 125.6 96.3219C124.57 95.6203 123.285 95.2741 121.727 95.2741C119.951 95.2741 118.374 95.7205 116.971 96.5952C115.586 97.4881 114.566 98.8093 113.91 100.577C113.263 102.354 112.944 104.969 112.944 108.44V129.096H102.256V70.482H112.944V93.1055C116.388 88.9963 120.516 86.928 125.29 86.928C127.759 86.928 129.982 87.4018 131.96 88.3403C133.937 89.2696 135.413 90.4632 136.415 91.9028C137.426 93.3607 138.11 94.9643 138.474 96.7228C138.848 98.4813 139.03 101.206 139.03 104.914V129.096L139.048 129.105ZM96.926 129.105H86.22V107.319C86.22 103.001 86.0287 100.258 85.6187 99.0917C85.2178 97.9255 84.498 97.0052 83.4684 96.3219C82.4388 95.6203 81.1541 95.2741 79.596 95.2741C77.8375 95.2741 76.243 95.7205 74.8581 96.5952C73.4549 97.4881 72.4435 98.8093 71.7875 100.577C71.1406 102.354 70.8126 104.969 70.8217 108.44L70.8126 129.096H60.1339V70.482H70.8308V93.1055C74.2749 88.9963 78.4024 86.928 83.195 86.928C85.6642 86.928 87.8692 87.4018 89.8555 88.3403C91.8327 89.2696 93.327 90.4632 94.3292 91.9028C95.3406 93.3607 96.0149 94.9643 96.3884 96.7228C96.7438 98.4813 96.9442 101.206 96.9442 104.914V129.096L96.926 129.105ZM99.5046 34C62.7763 34 33 63.7669 33 100.495C33 137.223 62.7763 166.999 99.5046 166.999C136.233 166.999 166 137.232 166 100.495C166 63.7669 136.233 34 99.5046 34Z" fill="#DF1B12"/>
</svg>
