<svg width="200" height="132" viewBox="0 0 200 132" fill="none" xmlns="http://www.w3.org/2000/svg">
<path fill-rule="evenodd" clip-rule="evenodd" d="M157.55 3.13766C155.081 2.56288 151.749 2.28283 149.145 2.28283C146.578 2.28283 147.128 3.71245 146.886 5.86491C146.583 8.57189 146.723 14.164 146.723 16.9555H142.022C142.022 15.7731 141.586 14.1067 140.455 14.1067C136.437 14.1067 137.036 16.0315 137.036 18.2377C134.197 18.2377 135.119 18.5394 134.333 17.2376C133.592 16.0112 131.873 16.7215 131.073 17.26C129.688 18.1916 130.052 20.7212 129.888 22.2004C129.362 26.9328 129.059 31.8264 129.059 36.8982C126.097 34.914 125.212 36.6132 123.788 36.6132H121.366C120.635 36.6132 120.106 35.046 118.247 35.1892C117.532 35.2444 117.09 35.4253 116.135 35.2919C112.671 34.8093 112.994 36.0992 109.141 35.588C108.064 35.4448 108.105 35.6152 107.121 35.6152V29.6321C107.121 28.0886 106.053 27.6381 104.7 27.6381C103.694 27.6381 103.082 28.1927 102.98 27.2226C102.879 26.2511 103.005 25.9445 102.654 25.1253C101.553 22.551 98.1928 23.6496 96.8651 23.6496L96.7226 19.2336C96.7226 17.5973 96.9315 16.9415 96.7157 15.3945C96.5445 14.1668 96.3239 12.99 95.9586 11.8781C95.4676 10.3835 95.0681 8.57329 93.642 7.77502C93.0596 7.44957 92.7278 7.69541 91.88 7.69541C91.6837 6.85244 90.4468 4.56309 89.562 4.47859C88.3957 4.36754 87.7545 6.79238 87.3215 7.69541C85.498 7.69541 83.275 6.80704 82.6485 9.14737C82.4041 10.0602 82.1569 10.8766 81.8552 11.7726C81.5521 12.6743 81.3335 13.4537 80.994 14.3302C80.4793 15.6571 80.5073 15.493 80.4898 17.2446C80.4821 18.0135 80.3585 18.082 80.3368 18.8013C80.2887 20.4223 80.3871 22.3219 80.2202 23.8123C80.0121 25.6645 80.1993 28.7835 80.1993 30.7718C78.9142 30.4722 80.2377 28.838 76.9231 28.0656C76.9231 27.0361 76.8882 25.948 76.9182 24.927C76.9587 23.5651 77.5782 20.7163 76.0731 19.7986C75.0919 19.2001 74.6121 19.5193 73.5037 19.5193C73.5037 15.1927 73.4269 15.3883 68.0904 15.3883C67.4542 15.3883 66.6273 15.8352 66.2355 16.0971L64.8143 17.2404C63.7848 16.6957 63.7178 16.4317 62.9335 15.7018C62.1387 14.9622 61.3698 15.31 60.1972 15.4721C58.9945 15.6383 58.2326 15.588 57.4043 16.0978C55.6862 17.1552 55.8545 22.6418 55.594 24.5435C55.5186 25.0932 55.5668 25.6596 55.5605 26.2197C55.5521 26.9879 55.4292 27.0585 55.4076 27.7764C55.3915 28.3254 55.4495 28.9413 55.4048 29.4826C55.3566 30.0693 55.27 30.2781 55.27 31.0568C54.6114 30.6866 53.0651 30.9143 52.2787 30.9143C52.607 26.5689 52.5853 26.0709 48.1477 26.0709C48.1477 24.1776 48.6443 21.7409 47.8879 19.9202C47.589 19.2001 47.0792 19.1449 46.438 18.8055C46.438 16.3946 45.3758 15.5272 44.1592 13.8196C43.6382 13.0884 43.2303 12.3593 42.8266 11.4486C42.4614 10.6259 41.8482 8.5258 40.8222 9.62787C40.6392 9.82482 40.5848 9.92748 40.4542 10.1147C40.23 10.4366 39.9869 10.7572 39.804 11.1734C38.6369 13.8252 36.1821 15.2926 36.1821 17.8082V19.0905C32.2061 19.1792 32.4862 22.1697 32.0587 25.2238C31.9205 26.212 31.8346 27.4447 31.6236 28.3498C30.752 28.3694 29.1248 29.1774 28.6045 29.6041C27.8362 30.2341 27.4821 31.5338 27.4898 32.9055L27.0268 41.1319C26.6343 44.0002 27.0722 50.211 25.4205 52.631C24.4588 54.0396 22.8427 54.0613 21.1812 53.8832C20.6581 53.8273 20.5394 53.9426 20.0784 53.9831C18.8367 54.092 14.2838 53.849 12.3926 53.849H1.85166C0.267696 53.849 -0.000488281 54.3414 -0.000488281 55.5587C-0.000488281 56.6132 0.913714 56.9827 1.99344 56.9827C5.931 56.9827 23.011 57.2781 25.8933 56.6663C27.2999 56.3674 27.5834 56.044 28.1589 54.8009C28.9285 53.138 29.3594 49.9813 29.3406 47.5781C29.3259 45.6596 29.775 43.79 29.7757 41.8875C29.7757 41.0432 29.7862 40.4928 29.8742 39.8496C30.0327 38.6903 29.9182 32.8852 30.0837 32.082L30.1542 31.8676C30.3239 31.3299 30.5062 31.2502 31.3373 31.0568C31.3373 32.925 30.1975 37.7726 30.1975 38.6065C30.1975 39.7896 32.1181 41.6557 32.9352 38.068C33.98 33.4809 33.7035 28.361 34.5304 23.709C35.4096 18.7587 37.8652 25.0387 38.6369 18.5562C38.7494 17.6085 39.1964 17.2467 39.7614 16.5469C40.1567 16.058 41.0122 15.2521 41.1658 14.6752C41.3977 14.8456 41.9844 15.5873 42.2253 15.8953C44.0069 18.1763 44.1578 17.8291 44.1578 21.2282C44.5838 21.5139 44.9819 21.6557 45.5825 21.6557C45.5825 28.3526 44.2891 28.6354 49.856 28.6354C49.856 30.5267 48.5304 33.2435 51.5678 33.4767C52.6244 33.5578 54.2161 33.6576 54.9843 33.4788C54.9843 35.794 54.7154 39.8252 54.3418 42.1089C54.0652 43.7997 56.004 44.5729 56.6968 43.1677C56.8365 42.8841 56.9552 42.1089 57.039 41.6585C57.8617 37.2495 58.0447 32.7239 58.5245 28.3296C58.7766 26.022 58.7047 23.7404 59.0322 21.4301C59.1628 20.5054 59.4003 18.9333 59.4003 18.0945L60.8208 17.9255C62.0675 17.781 62.9433 19.286 63.8156 19.5186C63.7464 19.8175 63.6808 20.1059 63.5704 20.4132C63.4824 20.6584 63.2457 21.1319 63.2457 21.3707C63.2457 22.2654 63.935 22.8667 64.7654 22.7445C65.6845 22.6097 65.7641 21.8163 66.0043 20.995C66.3717 19.7372 65.9443 19.6429 66.8382 18.8369C68.1407 17.6622 69.2973 17.9821 70.9357 18.1225C70.9399 19.1931 70.3176 22.2249 72.0783 22.2249C73.1098 22.2249 73.5051 22.0824 74.4996 22.0824C74.4996 22.8953 74.3572 23.0678 74.3572 23.9338C74.3572 28.2709 73.7377 29.6307 76.1667 30.5281C78.1208 31.2502 76.9447 31.4849 78.1222 32.7043C78.7082 33.3112 78.8283 32.7078 79.0099 33.8106C79.1335 34.5586 79.0658 35.0551 79.2327 35.7242C79.3479 36.1851 79.6664 36.6 80.156 36.7948L80.6064 36.9142C81.4312 37.1594 82.4299 37.9234 82.9384 36.4931C83.1081 36.0168 82.9069 35.595 82.9 34.9071C82.8699 32.0744 82.439 26.5186 82.821 23.9946C83.0236 22.6586 82.8595 17.686 83.0585 16.2543C83.1179 15.8275 83.2394 15.7228 83.4259 15.3394C83.877 14.4133 84.2157 13.2358 84.4721 12.2545C84.6201 11.6874 84.8234 10.5672 85.0406 10.116H86.3228C86.1866 11.7538 84.1864 14.0403 84.1864 16.6684C84.1864 17.7446 86.2201 18.2643 86.7265 16.3597L88.1771 12.2552C88.4096 11.7377 88.8985 10.82 89.0291 10.2585C89.6123 10.3947 89.6982 10.401 90.4531 10.401C90.7493 10.9604 91.0496 11.6944 91.287 12.2734L92.922 16.0517C93.3305 16.9911 93.2858 17.063 94.1567 17.5233C94.1567 20.3469 93.6155 26.4977 96.1507 26.4977C97.0076 26.4977 98.007 25.9278 99.4268 25.9278C99.9443 25.9278 99.9262 26.0968 100.424 26.2127C100.424 29.5301 101.232 30.3437 104.555 30.3437C104.555 32.1442 104.729 34.8568 104.534 36.5909C104.48 37.0777 104.368 37.4799 104.403 38.1846C104.454 39.2231 105.254 39.9767 106.212 39.564C107.158 39.1561 106.942 38.3893 108.361 38.1267C109.153 37.98 110.79 38.3215 111.963 38.3215C112.891 38.3215 113.819 37.7516 115.239 37.7516H118.515C118.884 37.7516 119.575 38.4849 119.984 38.7042C120.573 39.0199 120.985 39.1861 121.848 39.2211C123.054 39.2699 124.62 38.6058 126.92 38.6058C126.939 39.4494 127.183 40.7198 127.213 41.5956C127.236 42.2828 127.136 42.5699 127.083 43.0427C126.935 44.3682 126.751 46.2979 128.487 46.2979C129.093 46.2979 129.355 46.0674 129.484 45.5855C130.08 45.7448 132.9 48.4762 131.824 40.8246C131.519 38.6512 131.685 34.6843 131.759 32.1903C131.781 31.4598 131.912 31.3152 131.911 30.4904C131.909 27.2275 132.619 22.5503 132.619 20.372C133.385 21.2534 133.521 21.0795 134.81 20.8539C136.209 20.6088 139.451 21.7779 140.169 19.0905C141.228 19.5989 144.414 19.6617 145.726 19.6631C148.002 19.6659 149.051 18.9557 149.271 16.9387C149.572 14.1675 149.011 10.5651 149.39 7.79877L149.571 4.84594C152.906 4.84594 158.315 6.46832 159.431 5.30409C159.451 5.28314 159.478 5.24822 159.497 5.22727L159.685 4.98842C159.685 5.89214 159.828 6.17779 159.828 7.12481C159.828 8.64453 159.824 10.1642 159.828 11.6833L159.69 18.5255C159.689 19.4271 159.476 19.7672 159.543 20.6507C159.723 23.0175 160.837 22.2242 162.676 22.2242C164.866 22.2242 165.056 23.5511 166.095 19.0905C170.473 19.0905 170.948 19.9453 172.221 19.9453C173.067 19.9453 173.441 18.9906 173.93 18.663L173.926 26.5025C173.927 27.4482 174.077 27.979 174.074 29.0615L174.07 36.9003C174.066 37.9123 174.222 38.3753 174.217 39.4599L174.604 54.8847C174.944 56.2633 176.144 56.982 177.777 56.982H197.435C199.22 56.982 199.999 56.7376 199.999 55.1305C199.999 54.1905 198.196 53.9908 197.15 53.9908C194.853 53.9908 181.354 54.1514 180.033 54.0138C178.775 53.8825 177.921 54.1668 177.685 52.9432C177.249 50.6887 177.489 45.0443 177.492 42.595L177.355 37.4611C177.346 36.6698 177.212 36.5546 177.202 35.7633C177.195 35.1941 177.22 34.6116 177.213 34.0424L177.068 30.7684C177.072 29.9415 176.957 29.7243 176.922 29.0629C176.804 26.8909 176.912 24.2942 176.923 22.081C176.934 19.9467 176.573 17.5868 175.666 16.3576C175.227 15.764 174.252 15.0628 173.375 15.3869C172.554 15.69 172.108 16.5553 171.651 17.2383C169.929 17.0951 171.209 16.5259 166.38 16.5259C165.362 16.5259 164.156 16.7313 163.831 17.3954C162.745 19.6191 164.424 19.5172 162.107 19.5172C162.107 18.4626 162.228 17.8026 162.254 16.9575C162.28 16.0664 162.232 15.1361 162.243 14.2408C162.255 13.3559 162.394 12.7511 162.392 11.6826L162.111 3.98552C161.935 1.86309 161.417 0.998474 159.4 0.998474C158.346 0.998474 157.631 2.13966 157.548 3.13487L157.55 3.13766Z" fill="#0071BC"/>
<path fill-rule="evenodd" clip-rule="evenodd" d="M1.28271 105.417H7.26588L8.24993 96.8563C8.52719 93.9196 8.97277 91.0303 9.24724 88.1669C9.52799 85.2301 9.97078 82.3408 10.2445 79.4774L11.2551 70.8012L11.7377 71.8858C13.3797 76.7055 15.7095 82.3639 17.2201 86.916L21.4908 98.6002C22.4693 101.219 23.5686 105.987 26.9244 105.987C30.114 105.987 31.1923 101.484 31.9102 98.8649C33.1045 94.5069 34.8763 89.3814 36.1237 84.9871C36.593 83.334 37.0881 81.9064 37.5484 80.2862L40.5997 70.9444C40.5997 71.8279 43.4338 87.1165 43.6098 88.162L45.9306 101.083C46.1932 102.543 46.4076 104.053 46.7253 105.417H52.566C52.566 104.111 46.9307 74.3987 46.2378 70.7188C45.5234 66.9209 45.3369 62.2542 40.4572 62.2542C38.6267 62.2542 37.4325 63.3081 36.7047 64.4842C35.8673 65.8384 32.8153 76.3409 32.3076 78.1784C31.9032 79.6401 31.3313 81.2416 30.9129 82.7669C29.8276 86.7282 28.1165 91.5387 27.0668 95.4456L26.6394 96.5846C26.4683 95.8506 26.0542 94.9511 25.8055 94.2848L24.128 89.6943C23.8479 88.8646 23.6196 88.2046 23.3032 87.3854C22.6949 85.8119 22.229 84.3676 21.6124 82.8088L15.7319 66.7519C15.3966 65.8747 15.2297 65.3391 14.7345 64.6155C12.3851 61.1836 8.02574 61.6327 6.55212 64.816C5.69659 66.6653 4.43179 79.374 4.10633 82.0286L1.28341 105.417H1.28271Z" fill="#FF0000"/>
<path fill-rule="evenodd" clip-rule="evenodd" d="M71.51 67.5249C74.2533 67.5249 75.8617 67.5068 78.2656 69.1739C82.8262 72.3369 82.4791 79.4878 82.4791 84.6189H63.2487C63.2347 84.0043 63.1097 83.9408 63.1006 83.1998L63.1118 80.0549C63.0915 78.3906 62.7116 78.3892 63.1823 75.4357C63.8905 70.9974 66.5584 67.5249 71.5107 67.5249H71.51ZM56.8381 76.9268L57.2264 91.3529C57.3626 92.3446 57.2467 93.8259 57.2599 94.8812L57.547 103.71C57.5435 104.527 57.679 104.794 57.6929 105.416H63.8179C63.8179 100.246 63.3905 95.1982 63.3905 90.0322H82.6208L83.1907 105.416H89.3164C89.3164 102.813 89.162 100.689 89.1746 98.1511L89.0321 92.7385C88.9965 92.0771 88.882 91.8599 88.8855 91.033C88.8959 88.4664 88.7835 86.3405 88.7521 83.7592L88.604 80.2037C88.6068 79.0862 88.5439 77.6363 88.384 76.5776C88.0481 74.3483 87.5732 72.4689 86.7539 70.7997C84.158 65.5094 78.9682 62.1124 72.9341 62.1124C67.8637 62.1124 64.4995 62.9281 61.004 66.4215C58.281 69.1424 56.8374 72.9068 56.8374 76.9275L56.8381 76.9268Z" fill="#FF0000"/>
<path fill-rule="evenodd" clip-rule="evenodd" d="M168.66 74.6473C168.66 77.246 168.718 78.8007 169.893 81.2492C171.247 84.0687 173.21 85.9781 175.842 87.5509C176.768 88.1047 179.238 89.035 180.626 89.035L170.227 101.855C170.524 102.299 172.098 103.317 172.65 103.706C173.229 104.115 174.739 105.366 175.355 105.417C175.526 104.778 181.181 98.3984 182.15 97.2544L187.935 90.3612C190.908 86.8238 189.892 88.9693 190.732 83.0441C190.824 82.3932 191.011 81.3938 191.024 80.7729C190.497 81.1591 190.187 82.0454 188.273 83.0064C187.379 83.4555 185.564 84.1916 184.33 84.1916C171.689 84.1916 171.89 67.525 183.902 67.525C188.067 67.525 191.163 70.1866 192.249 73.9922C192.639 75.3576 192.736 77.8823 192.733 79.4907C192.732 80.6437 192.879 81.3533 192.881 82.3345C192.886 86.2972 193.173 89.9352 193.157 93.8811L193.588 105.416H199.714C199.714 102.816 199.559 100.72 199.574 98.149L199.165 87.3043C199.039 86.1813 199.208 84.7796 199.145 83.621L199.004 80.0585C199.021 77.0274 198.404 72.9132 197.336 70.4723C196.864 69.3946 194.984 66.8748 194.077 66.1813C192.521 64.9919 192.166 64.2509 189.5 63.2082C183.788 60.9755 178.139 61.7884 173.277 65.5898C171.196 67.217 168.66 71.0121 168.66 74.6473H168.66Z" fill="#FF0000"/>
<path fill-rule="evenodd" clip-rule="evenodd" d="M148.005 106.271C150.745 106.271 154.889 105.129 156.734 103.177C157.048 102.845 157.192 102.522 157.55 102.283V105.417H163.817C163.817 104.398 163.668 103.938 163.674 102.854C163.694 98.9752 163.382 95.7479 163.39 92.1693C163.393 91.1007 163.253 90.4959 163.242 89.6111C163.231 88.7101 163.254 87.7959 163.253 86.8936C163.251 85.9312 163.103 85.3103 163.105 84.1922C163.114 80.5759 162.802 77.1489 162.823 73.506C162.829 72.4445 162.67 72.008 162.677 70.9457C162.686 69.1927 162.674 64.0267 162.394 62.824H156.268C156.268 63.4428 156.267 64.0609 156.265 64.679C156.261 65.552 156.393 65.7803 156.415 66.5227C156.452 67.7715 156.287 69.1019 156.47 70.3136C156.647 71.4793 156.545 72.8446 156.548 74.0822C156.549 74.9063 156.677 75.053 156.7 75.7821C156.719 76.4295 156.696 77.1279 156.695 77.7809L156.832 83.3422C156.842 84.151 156.983 84.3277 156.985 85.1832C156.988 87.8539 157.122 90.0448 157.122 92.7378C157.122 95.8736 154.498 98.846 151.814 99.9655C147.733 101.667 141.895 100.657 139.462 96.4379C138.317 94.4524 137.733 91.6553 137.747 89.1781C137.754 87.9803 137.602 87.2023 137.601 86.1903C137.595 82.1878 137.308 78.4877 137.324 74.5012L136.893 62.824H130.768L131.338 81.0571C131.402 82.2444 131.221 83.7278 131.377 84.8648C131.523 85.9354 131.474 87.3217 131.475 88.6123L131.772 92.1616C132.907 100.313 138.727 106.271 148.004 106.271H148.005Z" fill="#FF0000"/>
<path fill-rule="evenodd" clip-rule="evenodd" d="M0.000488281 112.539C0.000488281 113.26 0.514509 113.964 1.28275 113.964H198.86C199.505 113.964 199.886 113.476 200 112.905V112.162C199.887 111.596 199.508 111.115 198.86 111.115H1.28275C0.514509 111.115 0.000488281 111.819 0.000488281 112.539H0.000488281Z" fill="#0071BC"/>
<path fill-rule="evenodd" clip-rule="evenodd" d="M95.8684 76.9268C95.8684 79.4822 96.0234 81.5355 96.0087 84.0511L96.2972 91.1699C96.2832 93.6778 96.4005 95.7654 96.432 98.2998L96.58 101.855C96.5793 103.251 96.7225 104.085 96.7225 105.417H102.847C102.847 104.467 102.845 103.517 102.848 102.567C102.852 101.396 102.697 100.828 102.704 99.7204C102.725 96.1243 102.431 92.0219 102.426 88.3176L101.991 76.9275C101.998 63.0762 119.657 66.1226 119.657 75.6445C119.657 84.1789 111.112 86.0374 105.756 81.9958L104.678 81.0802C104.299 80.7233 104.817 80.9691 104.273 80.7729C104.617 82.25 104.832 83.7962 105.138 85.3201C105.643 87.8323 105.203 87.6074 107.486 88.5279C109.966 89.5273 114.008 89.9351 116.873 89.0992C119.39 88.3651 121.025 87.0829 122.616 85.2978C123.685 84.0972 124.614 82.6334 125.161 81.0061C127.447 74.2058 124.927 68.3575 119.316 64.5896C118.536 64.0658 117.779 63.7068 116.905 63.2969C113.288 61.6012 107.936 61.5935 104.462 63.1565C101.95 64.2872 99.8744 65.823 98.3163 68.1214C96.5605 70.7104 95.8677 73.293 95.8677 76.9268H95.8684Z" fill="#FF0000"/>
<path fill-rule="evenodd" clip-rule="evenodd" d="M83.4751 118.665V126.072C83.4751 129.221 84.7357 131.058 87.8911 131.058H98.0053V118.665C98.0053 117.984 97.0512 118.237 95.299 118.237C94.9707 118.237 94.8715 118.336 94.8715 118.665V127.924H92.3077V118.665C92.3077 117.984 91.3537 118.237 89.6014 118.237C89.2732 118.237 89.174 118.336 89.174 118.665V127.924C87.75 127.924 86.6102 128.032 86.6102 125.787V118.238C84.6903 118.238 83.4765 117.952 83.4765 118.665L83.4751 118.665Z" fill="#0071BC"/>
<path fill-rule="evenodd" clip-rule="evenodd" d="M24.3586 122.795C24.3586 122.035 25.0283 121.228 25.7833 121.228C27.0215 121.228 27.493 122.11 27.493 123.365V127.781H24.3593V122.795L24.3586 122.795ZM21.2248 122.938V127.781C19.9691 127.781 20.2275 127.453 20.2275 130.63C20.2275 130.958 20.3267 131.058 20.655 131.058H31.0541C31.7455 131.058 31.4815 130.021 31.4815 128.209C31.4815 127.702 31.2042 127.781 30.6267 127.781C30.6267 125.236 30.9682 121.971 29.5497 119.884C28.301 118.046 25.6387 117.655 23.7838 118.517L22.7327 119.317C21.9365 120.114 21.2248 121.469 21.2248 122.938Z" fill="#0071BC"/>
<path fill-rule="evenodd" clip-rule="evenodd" d="M182.335 123.793C182.335 120.615 184.355 121.114 184.948 121.607C185.312 121.911 185.47 122.324 185.47 122.938V127.781H182.336V123.793H182.335ZM179.202 124.078V127.781H178.347V131.057H189.458V127.781H188.603C188.603 124.632 189.265 120.3 186.234 118.612C183.907 117.317 179.202 117.905 179.202 124.078V124.078Z" fill="#0071BC"/>
<path fill-rule="evenodd" clip-rule="evenodd" d="M118.519 124.647C118.519 120.139 124.644 120.183 124.644 124.647C124.644 126.395 123.341 127.923 122.08 127.923C121.045 127.923 120.137 128.013 119.286 126.871C118.832 126.263 118.519 125.645 118.519 124.647H118.519ZM115.242 124.504C115.242 126.418 115.994 128.059 116.916 129.099C118.438 130.815 119.859 131.199 122.08 131.199C125.174 131.199 127.92 128.015 127.92 124.646C127.92 121.384 125.257 118.094 122.08 118.094H121.082C117.97 118.094 115.242 121.346 115.242 124.504L115.242 124.504Z" fill="#0071BC"/>
<path fill-rule="evenodd" clip-rule="evenodd" d="M168.375 124.647C168.375 122.812 169.681 121.308 171.376 121.249C174.239 121.149 175.403 124.929 173.751 126.889C171.981 128.99 168.375 127.824 168.375 124.648V124.647ZM170.939 131.2H171.936C177.308 131.2 180.589 122.738 174.476 118.831C172.297 117.437 168.642 117.993 166.849 120.13C165.103 122.213 164.707 124.49 165.61 127.128C166.312 129.174 168.681 131.201 170.939 131.201V131.2Z" fill="#0071BC"/>
<path fill-rule="evenodd" clip-rule="evenodd" d="M49.7152 127.924C48.6676 127.924 47.8805 128.013 46.9684 126.967C45.2581 125.006 46.2896 121.167 49.2766 121.251C51.6687 121.319 53.2847 124.384 51.5723 126.79C51.2454 127.248 50.4569 127.924 49.7152 127.924V127.924ZM42.8779 124.505C42.8779 128.138 45.6596 131.2 48.7186 131.2C51.0038 131.2 52.2029 130.907 53.8134 129.172C56.0602 126.75 56.116 123.004 53.8693 120.209C52.5179 118.527 50.862 118.095 48.7186 118.095C45.7302 118.095 42.8779 121.178 42.8779 124.504V124.505Z" fill="#0071BC"/>
<path fill-rule="evenodd" clip-rule="evenodd" d="M148.29 127.924H147.577C146.391 127.924 145.013 126.368 145.013 125.075V124.22C145.013 121.598 148.471 120.183 150.248 122.263C152.172 124.514 150.652 127.924 148.29 127.924H148.29ZM148.665 131.2H147.452C146.115 131.06 144.737 130.441 143.479 129.173C142.291 127.975 141.737 126.441 141.737 124.363C141.737 122.531 142.543 121.067 143.48 120.122C144.011 119.586 144.401 119.134 145.107 118.758C147.443 117.511 150.929 117.995 152.507 120.004C154.195 122.154 154.273 122.612 154.273 125.36C154.273 128.202 151.714 130.879 148.665 131.201V131.2Z" fill="#0071BC"/>
<path fill-rule="evenodd" clip-rule="evenodd" d="M193.589 122.653C193.589 121.085 196.723 119.868 196.723 124.078V124.648H193.589V122.654V122.653ZM190.456 122.653V131.058C194.343 131.058 193.589 131.824 193.589 127.781H196.723V131.058C198.643 131.058 199.857 131.343 199.857 130.63C199.857 127.545 200.272 122.351 198.946 120.145C196.705 116.416 190.456 117.965 190.456 122.653V122.653Z" fill="#0071BC"/>
<path fill-rule="evenodd" clip-rule="evenodd" d="M13.1056 123.65C13.1056 122.337 13.3584 121.228 14.6728 121.228C15.5584 121.228 16.24 121.955 16.24 122.795V124.647H13.1063V123.65L13.1056 123.65ZM9.97189 123.65V131.057H13.1056V127.781H16.2393V131.057H19.373V123.08C19.373 120.472 17.6584 118.095 15.0995 118.095C13.3759 118.095 12.2745 118.22 11.0237 119.859C10.3721 120.714 9.97119 122.193 9.97119 123.65H9.97189Z" fill="#0071BC"/>
<path fill-rule="evenodd" clip-rule="evenodd" d="M75.7833 123.08C75.7833 120.537 78.917 120.649 78.917 123.08V124.648H75.7833V123.08ZM72.6496 123.223V131.057H75.7833V127.781H78.917V131.057H82.0507V123.223C82.0507 120.624 80.2622 118.095 77.9197 118.095C75.835 118.095 75.263 118.157 73.8201 119.693C73.1636 120.392 72.6489 121.897 72.6489 123.223H72.6496Z" fill="#0071BC"/>
<path fill-rule="evenodd" clip-rule="evenodd" d="M61.6802 118.664V131.058H64.8139V125.929H67.9476V131.058H71.0813V118.664C71.0813 117.984 70.128 118.237 68.375 118.237C68.0468 118.237 67.9476 118.336 67.9476 118.664V122.796H64.8139V118.664C64.8139 117.984 63.8606 118.237 62.1076 118.237C61.7793 118.237 61.6802 118.336 61.6802 118.664Z" fill="#0071BC"/>
<path fill-rule="evenodd" clip-rule="evenodd" d="M32.3364 118.664V126.072C32.3364 128.636 34.1285 131.2 36.325 131.2H36.3878C37.6799 131.199 37.5954 131.163 38.6045 130.488V131.058H41.7382V118.664C41.7382 117.984 40.7842 118.237 39.032 118.237C38.3524 118.237 38.6045 119.392 38.6045 120.659C38.6045 121.656 38.6045 122.653 38.6045 123.65C38.6045 124.731 39.0564 128.066 37.1798 128.066C35.1119 128.066 35.4701 125.842 35.4701 123.793L35.4785 119.368C35.5002 117.995 35.7858 118.237 32.7638 118.237C32.4356 118.237 32.3364 118.336 32.3364 118.664Z" fill="#0071BC"/>
<path fill-rule="evenodd" clip-rule="evenodd" d="M158.12 27.2121C158.12 29.9568 158.261 32.2077 158.262 34.9042C158.263 36.3904 158.116 37.3241 158.12 38.7503V46.1582C158.12 49.625 161.126 49.3324 161.117 46.0213C161.108 43.2654 161.112 40.5095 161.112 37.7537C161.112 35.831 161.412 27.0165 161.215 25.5415C161.173 25.2272 161.144 25.1497 161.119 24.6406C161.086 24.0162 161.216 24.2432 160.938 23.8241C159.94 22.3219 158.366 22.9784 158.26 24.3612C158.183 25.3725 158.12 26.2092 158.12 27.2121V27.2121Z" fill="#0071BC"/>
<path fill-rule="evenodd" clip-rule="evenodd" d="M0.000488281 122.938V131.057C3.96389 131.057 3.27737 131.617 3.27667 128.636C3.27667 127.497 3.0434 122.403 3.48479 121.721C4.04002 120.865 5.84118 121.008 5.84118 122.653C5.84118 124.143 4.71467 124.17 3.70479 123.935C3.70479 125.147 4.13221 126.076 4.13221 127.211C11.082 127.211 9.69634 118.095 4.98704 118.095C3.13978 118.095 2.3918 118.192 1.10535 119.625C0.432796 120.375 0.00188508 121.57 0.00188508 122.938H0.000488281Z" fill="#0071BC"/>
<path fill-rule="evenodd" clip-rule="evenodd" d="M155.555 122.083V131.057H158.688V122.511C158.688 120.991 161.252 120.44 161.252 122.795C161.252 123.606 160.348 124.618 159.116 123.793C159.116 125.056 159.543 125.948 159.543 127.211C166.406 127.211 165.342 118.095 160.256 118.095C158.818 118.095 157.929 118.16 156.796 119.336C156.261 119.89 155.555 121.068 155.555 122.083V122.083Z" fill="#0071BC"/>
<path fill-rule="evenodd" clip-rule="evenodd" d="M99.5723 118.664V127.211C99.5723 131.377 103.551 131.057 106.125 131.057V127.924C102.818 127.924 102.707 128.28 102.707 125.929H106.125V122.938H102.707V121.371H106.125C106.125 119.451 106.411 118.237 105.698 118.237H99.9997C99.6714 118.237 99.5723 118.336 99.5723 118.664V118.664Z" fill="#0071BC"/>
<path fill-rule="evenodd" clip-rule="evenodd" d="M114.53 45.5876C114.061 45.3627 109.678 45.5226 108.692 45.5904C106.392 45.7482 106.468 48.2939 108.69 48.2939H114.815C116.88 48.2939 117.094 47.0451 117.094 44.7327H117.379C117.379 45.7524 116.59 51.4276 118.661 51.4276C119.514 51.4276 120.05 50.8018 120.034 50.0287C120.019 49.2905 119.8 48.407 119.8 47.439C119.8 43.5958 121.081 42.0258 116.524 42.0258C114.478 42.0258 114.53 43.5532 114.53 45.5869L114.53 45.5876Z" fill="#0071BC"/>
<path fill-rule="evenodd" clip-rule="evenodd" d="M133.903 123.223V130.63C133.903 131.321 134.939 131.057 136.752 131.057C137.425 131.057 137.18 129.951 137.179 128.779L137.177 123.221C137.157 121.008 137.331 121.371 140.883 121.371V118.237C136.842 118.237 133.903 117.954 133.903 123.223V123.223Z" fill="#0071BC"/>
<path fill-rule="evenodd" clip-rule="evenodd" d="M107.549 121.798V131.057H110.683V122.226C110.683 120.514 114.529 122.098 114.529 120.943C114.529 117.679 115.053 118.237 112.249 118.237C109.787 118.237 107.548 119.296 107.548 121.798H107.549Z" fill="#0071BC"/>
<path fill-rule="evenodd" clip-rule="evenodd" d="M69.5158 42.8814V43.4513C68.3292 43.4513 65.7291 42.7878 64.9741 44.4653C64.8149 44.8194 63.5417 49.007 65.5272 49.007C66.8088 49.007 67.2369 47.3783 67.2369 46.0158C70.0647 46.0158 71.8819 46.6618 72.0712 43.8703C72.2186 41.6969 72.4462 39.5311 72.5049 37.3235C72.5349 36.1747 72.8415 35.2905 71.7849 34.9015C69.5626 34.0836 69.9781 37.8899 69.7406 39.5451C69.5835 40.6402 69.5158 41.7101 69.5158 42.8821V42.8814Z" fill="#0071BC"/>
<path fill-rule="evenodd" clip-rule="evenodd" d="M92.0222 41.4566C93.3114 41.4566 93.463 41.076 93.449 39.4641L93.4469 29.7752C95.2467 29.6258 95.0497 28.1124 94.5378 27.5453C93.7172 26.6366 91.5724 27.627 91.0381 29.0761C90.5507 30.3975 90.8894 31.7489 90.8838 33.3364C90.8782 34.8554 90.8831 36.3758 90.8831 37.8955C90.8831 39.4397 90.5074 41.4566 92.0229 41.4566H92.0222Z" fill="#0071BC"/>
<path fill-rule="evenodd" clip-rule="evenodd" d="M163.39 35.4741C163.39 36.5929 164.354 36.741 165.347 36.9351C167.186 37.2955 173.504 38.5673 173.504 36.0433C173.504 34.0494 168.174 34.3972 165.277 34.0026C164.107 33.8433 163.39 34.3923 163.39 35.4741V35.4741Z" fill="#0071BC"/>
<path fill-rule="evenodd" clip-rule="evenodd" d="M158.261 10.2606C158.857 10.2606 159.544 9.57404 159.544 8.9783C159.544 7.02908 151.457 5.20766 149.886 7.30843C149.555 7.75122 149.568 8.15 149.902 8.64098C150.474 9.47975 152.537 8.95945 155.13 9.40363C155.706 9.5021 156.208 9.57892 156.781 9.74584C157.191 9.86597 157.967 10.2599 158.261 10.2599V10.2606Z" fill="#0071BC"/>
<path fill-rule="evenodd" clip-rule="evenodd" d="M84.4727 19.6617C84.4727 20.5654 85.287 20.944 86.1823 20.944H92.1655C94.6204 20.944 94.5072 18.4702 92.7382 18.3774L86.3248 18.2377C85.5014 18.2377 84.4727 18.7657 84.4727 19.6617V19.6617Z" fill="#0071BC"/>
<path fill-rule="evenodd" clip-rule="evenodd" d="M35.7551 31.9131C35.7551 32.4243 36.2782 32.9223 36.6442 33.0186C37.4494 33.231 42.4122 33.3378 43.5897 33.3378C44.2357 33.3378 45.1185 31.9208 44.103 31.1148C43.464 30.6078 41.1432 30.7174 40.1627 30.6385C39.7024 30.6015 39.2303 30.6616 38.7666 30.6099C38.3035 30.5582 37.9976 30.4499 37.3195 30.48C36.339 30.5233 35.7544 30.9214 35.7544 31.9131H35.7551Z" fill="#0071BC"/>
<path fill-rule="evenodd" clip-rule="evenodd" d="M139.458 22.7961C139.458 24.9779 141.382 23.8305 143.85 24.1015C145.132 24.2425 146.844 24.9221 147.531 24.4618C147.721 24.3347 148.148 23.6559 148.148 23.5078C148.148 22.2311 147.32 22.1781 146.297 21.9406C145.225 21.692 141.456 21.1319 140.293 21.7786C140.049 21.9141 139.458 22.4672 139.458 22.7961V22.7961Z" fill="#0071BC"/>
<path fill-rule="evenodd" clip-rule="evenodd" d="M36.6099 23.651C36.6099 25.3293 38.5409 24.846 40.9225 25.1798C41.755 25.2964 44.9131 25.2804 44.8139 23.688C44.7602 22.8227 44.1044 22.5727 43.3033 22.5133L38.1079 22.2968C37.3041 22.447 36.6099 22.7857 36.6099 23.6517V23.651Z" fill="#0071BC"/>
<path fill-rule="evenodd" clip-rule="evenodd" d="M131.481 46.8699C131.481 48.7486 132.936 48.2695 135.619 48.2876C136.477 48.2932 136.817 48.5789 137.179 48.5789C138.433 48.5789 139.748 45.7301 135.755 45.7301C134.265 45.7301 131.481 45.3592 131.481 46.8699V46.8699Z" fill="#0071BC"/>
</svg>
