<svg width="160" height="40" viewBox="0 0 160 40" fill="none" xmlns="http://www.w3.org/2000/svg" class="hidden-mbs visible-mbm logo"><path fill-rule="evenodd" clip-rule="evenodd" d="M0 11H2.92126V18.5258V26.0515H0V11ZM2.92126 18.5258L9.38976 11H13.1457L6.67717 18.5258L13.1457 26.0515H9.38976L2.92126 18.5258ZM81.5866 26.0515H71.7795V11H81.5866V13.4929H74.8952V17.1856H80.5433V19.866H74.8952V23.5587H81.5866V26.0515ZM101.972 23.2061C102.622 23.6318 103.385 23.8573 104.165 23.854C105.208 23.8516 106.207 23.4401 106.942 22.71C107.678 21.9799 108.09 20.9909 108.088 19.9607C108.088 19.1901 107.856 18.4369 107.422 17.7965C106.989 17.1561 106.372 16.6573 105.651 16.3633C104.931 16.0692 104.138 15.9932 103.373 16.1449C102.609 16.2965 101.907 16.6689 101.357 17.215C100.806 17.7611 100.433 18.4563 100.283 19.2125C100.133 19.9686 100.213 20.7518 100.514 21.4627C100.815 22.1737 101.322 22.7804 101.972 23.2061ZM100.519 15.1731C101.596 14.0083 103.1 13.268 104.815 13.268C108.251 13.268 111.008 16.2651 111.008 19.9691C111.008 23.673 108.08 26.2577 104.644 26.2577C102.929 26.2577 101.444 25.7941 100.366 24.5052V31H97.4449V13.4742H100.519V15.1731ZM115.598 15.3299C116 14.7059 117.209 13.268 119.354 13.268C121.024 13.3711 121.65 13.8866 121.65 13.8866L120.085 15.9485C120.085 15.9485 119.354 15.8454 118.937 15.8454C117.017 15.8454 115.884 17.2468 115.598 18.2165V26.0515H112.677V13.4742H115.598V15.3299ZM133.335 22.134C132.769 24.3017 130.626 26.2577 127.462 26.2577C123.369 26.2577 120.815 23.8059 120.815 19.8928C120.815 16.0446 123.431 13.268 127.321 13.268C130.662 13.268 133.543 15.2571 133.543 19.633L133.5 20.5666H124.042C124.069 22.7018 125.394 24.0495 127.462 24.0495C127.462 24.0495 129.565 24.0825 130.413 22.134H133.335ZM127.339 15.8611C125.43 15.8611 124.148 17.2006 124.051 18.7919H130.433C130.415 17.0951 129.178 15.8611 127.339 15.8611ZM138.138 22.9406C137.989 22.7146 137.86 22.513 137.821 22.134H134.795C134.812 22.8686 134.966 23.304 135.25 23.8484L135.25 23.85L135.251 23.8516C135.551 24.3799 135.952 24.8284 136.452 25.1964L136.453 25.1976L136.455 25.1986C136.971 25.5502 137.569 25.8129 138.247 25.9876L138.247 25.9877C138.944 26.163 139.629 26.2577 140.429 26.2577C141.083 26.2577 141.818 26.1786 142.497 26.0356C143.174 25.8928 143.787 25.6624 144.335 25.3437C144.902 25.0235 145.361 24.6065 145.712 24.0931C146.066 23.5746 146.272 22.8705 146.272 22.134C146.272 21.5219 146.115 21.0794 145.863 20.6589C145.627 20.2397 145.308 19.8924 144.904 19.618C144.52 19.3456 144.079 19.1301 143.582 18.9709C143.09 18.8135 142.59 18.6798 142.082 18.5696L142.081 18.5695C141.56 18.4599 141.055 18.3582 140.566 18.2643C140.082 18.1714 139.647 18.0632 139.262 17.9401C138.898 17.803 138.601 17.6372 138.369 17.4441C138.165 17.2621 138.062 17.0247 138.062 16.7221C138.062 16.4773 138.136 16.2941 138.275 16.1605L138.277 16.1588L138.279 16.157C138.43 15.9973 138.611 15.8816 138.822 15.809L138.824 15.8084L138.826 15.8077C139.062 15.7171 139.305 15.6568 139.557 15.6266C139.831 15.5956 140.062 15.5804 140.252 15.5804C140.858 15.5804 141.387 15.6875 141.842 15.8986L141.844 15.8992C142.278 16.0938 142.586 16.5981 142.724 17.1856H145.728C145.641 16.5147 145.387 15.741 145.124 15.3299C144.807 14.8335 144.473 14.4333 143.972 14.1283C143.489 13.8244 142.94 13.6091 142.327 13.4817C141.733 13.3391 141.106 13.268 140.447 13.268C139.871 13.268 139.262 13.3234 138.622 13.4338L138.621 13.4338C137.992 13.5451 137.411 13.7441 136.88 14.0311C136.362 14.3041 135.927 14.6736 135.576 15.1387L135.576 15.1393C135.235 15.5976 135.068 16.1664 135.068 16.8393C135.068 17.4607 135.184 17.9935 135.421 18.4334L135.422 18.4347C135.657 18.8538 135.968 19.2015 136.356 19.4764L136.357 19.4775C136.757 19.7491 137.197 19.9644 137.678 20.1237L137.679 20.124C138.171 20.2815 138.679 20.4153 139.204 20.5254C139.709 20.635 140.206 20.7367 140.695 20.8307C141.179 20.9236 141.604 21.0393 141.972 21.1774L141.974 21.1783L141.977 21.1792C142.356 21.3007 142.66 21.4661 142.891 21.673C143.113 21.8724 143.233 22.1282 143.248 22.4478C143.263 22.7713 143.179 23.0259 143.005 23.2216L143.004 23.222C142.838 23.4107 142.617 23.5579 142.338 23.6621C142.054 23.7682 141.745 23.8445 141.411 23.8904C141.089 23.9213 140.801 23.9366 140.545 23.9366C139.813 23.9366 139.267 23.7923 138.748 23.4903C138.489 23.3399 138.286 23.1665 138.138 22.9406ZM150.866 22.9406C150.717 22.7146 150.589 22.513 150.549 22.134H147.524C147.54 22.8686 147.695 23.304 147.978 23.8484L147.979 23.85L147.98 23.8516C148.28 24.3799 148.68 24.8284 149.18 25.1964L149.182 25.1976L149.183 25.1986C149.699 25.5502 150.297 25.8129 150.975 25.9876L150.976 25.9877C151.673 26.163 152.357 26.2577 153.157 26.2577C153.811 26.2577 154.546 26.1786 155.225 26.0356C155.903 25.8928 156.516 25.6624 157.063 25.3437C157.63 25.0235 158.09 24.6065 158.44 24.0931C158.795 23.5746 159 22.8705 159 22.134C159 21.5219 158.843 21.0794 158.591 20.6589C158.356 20.2397 158.036 19.8924 157.633 19.618C157.249 19.3456 156.808 19.1301 156.31 18.9709C155.818 18.8135 155.319 18.6798 154.811 18.5696L154.81 18.5695C154.288 18.4599 153.783 18.3582 153.294 18.2643C152.81 18.1714 152.376 18.0632 151.991 17.9401C151.627 17.803 151.33 17.6372 151.097 17.4441C150.894 17.2621 150.79 17.0247 150.79 16.7221C150.79 16.4773 150.864 16.2941 151.004 16.1605L151.005 16.1588L151.007 16.157C151.158 15.9973 151.339 15.8816 151.551 15.809L151.552 15.8084L151.554 15.8077C151.79 15.7171 152.033 15.6568 152.285 15.6266C152.559 15.5956 152.79 15.5804 152.98 15.5804C153.586 15.5804 154.115 15.6875 154.571 15.8986L154.572 15.8992C155.006 16.0938 155.314 16.5981 155.453 17.1856H158.456C158.37 16.5147 158.115 15.741 157.852 15.3299C157.535 14.8335 157.202 14.4333 156.7 14.1283C156.217 13.8244 155.668 13.6091 155.055 13.4817C154.461 13.3391 153.834 13.268 153.176 13.268C152.599 13.268 151.99 13.3234 151.35 13.4338L151.35 13.4338C150.72 13.5451 150.14 13.7441 149.608 14.0311C149.09 14.3041 148.655 14.6736 148.304 15.1387L148.304 15.1393C147.963 15.5976 147.796 16.1664 147.796 16.8393C147.796 17.4607 147.912 17.9935 148.15 18.4334L148.15 18.4347C148.385 18.8538 148.697 19.2015 149.084 19.4764L149.086 19.4775C149.485 19.7491 149.925 19.9644 150.406 20.1237L150.407 20.124C150.899 20.2815 151.408 20.4153 151.932 20.5254C152.437 20.635 152.934 20.7367 153.424 20.8307C153.907 20.9236 154.333 21.0393 154.7 21.1774L154.703 21.1783L154.705 21.1792C155.085 21.3007 155.388 21.4661 155.619 21.673C155.842 21.8724 155.961 22.1282 155.976 22.4478C155.992 22.7713 155.908 23.0259 155.733 23.2216L155.733 23.222C155.566 23.4107 155.346 23.5579 155.067 23.6621C154.782 23.7682 154.474 23.8445 154.14 23.8904C153.818 23.9213 153.529 23.9366 153.273 23.9366C152.541 23.9366 151.995 23.7923 151.476 23.4903C151.218 23.3399 151.015 23.1665 150.866 22.9406ZM96.1929 13.4742H92.8543L89.5157 17.6667L86.1771 13.4742H82.8386L87.8464 19.7629L82.8386 26.0515H86.1771L89.5157 21.8591L92.8543 26.0515H96.1929L91.185 19.7629L96.1929 13.4742ZM64.4764 13.268C62.3313 13.268 61.1224 14.7059 60.7205 15.3299V13.4742H57.7992V26.0515H60.7205V18.2165C61.0057 17.2468 62.1391 15.8454 64.0591 15.8454C65.864 15.8454 66.1457 18.2165 66.1457 18.2165V23.9897L66.1454 24.019C66.1353 25.1339 67.044 26.0447 68.1723 26.0507L68.2073 26.0514L68.2323 26.0515H70.1103L70.1102 23.5773H69.9016C69.3254 23.5773 69.0669 23.1158 69.0669 22.5464V18.663V17.8565C68.9921 16.5843 68.7308 14.2469 66.3543 13.5024C65.8784 13.3533 65.1174 13.268 64.4764 13.268ZM45.8882 22.8931C46.5237 23.3053 47.2698 23.5236 48.0321 23.5203C49.0511 23.5178 50.0273 23.1192 50.7462 22.4121C51.4651 21.705 51.8677 20.7473 51.8655 19.7497C51.8654 19.0034 51.639 18.2739 51.215 17.6537C50.7911 17.0334 50.1886 16.5504 49.484 16.2656C48.7794 15.9809 48.0043 15.9073 47.2569 16.0542C46.5096 16.2011 45.8236 16.5619 45.2858 17.0908C44.7481 17.6198 44.3827 18.2931 44.2362 19.0255C44.0896 19.7578 44.1683 20.5163 44.4624 21.2049C44.7565 21.8934 45.2527 22.481 45.8882 22.8931ZM54.6693 13.4742V22.5124C54.6693 23.9241 56.1299 23.5773 56.1299 23.5773V26.0515H54.0629C52.8819 26.0515 52.1887 25.2739 51.9554 24.2902C51.4065 24.9141 50.7252 25.4132 49.9591 25.753C49.193 26.0927 48.3604 26.2649 47.5194 26.2575C44.0929 26.2575 41.315 23.3503 41.315 19.7631C41.315 16.1759 44.0929 13.268 47.5194 13.268C49.128 13.268 50.4818 14.0285 51.5394 15.1237V13.4742H54.6693ZM40.063 15.9485V13.4742H29.2126V15.9485H36.3071L29.2126 23.5773V26.0516H40.063V23.5773H32.9685L40.063 15.9485ZM17.3016 22.8931C17.9371 23.3053 18.6832 23.5236 19.4454 23.5203C20.4645 23.5178 21.4407 23.1192 22.1596 22.4121C22.8785 21.705 23.2811 20.7473 23.2789 19.7497C23.2788 19.0034 23.0524 18.2739 22.6284 17.6537C22.2045 17.0334 21.602 16.5504 20.8974 16.2656C20.1928 15.9809 19.4177 15.9073 18.6703 16.0542C17.923 16.2011 17.237 16.5619 16.6992 17.0908C16.1614 17.6198 15.7961 18.2931 15.6496 19.0255C15.503 19.7578 15.5817 20.5163 15.8758 21.2049C16.1699 21.8934 16.6661 22.481 17.3016 22.8931ZM26.0827 13.4742V22.5124C26.0827 23.9241 27.5433 23.5773 27.5433 23.5773V26.0515H25.4763C24.2952 26.0515 23.6021 25.2739 23.3688 24.2902C22.8198 24.9141 22.1386 25.4132 21.3725 25.753C20.6064 26.0927 19.7738 26.2649 18.9328 26.2575C15.5063 26.2575 12.7283 23.3503 12.7283 19.7631C12.7283 16.1759 15.5063 13.268 18.9328 13.268C20.5414 13.268 21.8952 14.0285 22.9528 15.1237V13.4742H26.0827Z" fill="#FF1919"></path>
</svg>