<svg width="200" height="200" viewBox="0 0 200 200" fill="none" xmlns="http://www.w3.org/2000/svg">
<path fill-rule="evenodd" clip-rule="evenodd" d="M128.028 153.312H139.356V156.31H145.353V148.231H143.521V129.657H137.44V148.231H134.109V129.657H128.028V153.312Z" fill="#82BC6B"/>
<path fill-rule="evenodd" clip-rule="evenodd" d="M90.7135 162.474H96.794V142.318H100.375L100.459 162.474H106.539L106.456 137.153H90.7135V162.474Z" fill="#82BC6B"/>
<path fill-rule="evenodd" clip-rule="evenodd" d="M146.936 153.312H158.18V156.31H164.26V148.231H162.428V137.153H156.348V148.231H153.016V137.153H146.936V153.312Z" fill="#82BC6B"/>
<path fill-rule="evenodd" clip-rule="evenodd" d="M109.121 153.312H115.535C115.84 153.312 115.934 152.783 116.062 152.506L116.978 150.591C117.157 150.237 117.25 149.976 117.421 149.618L119.283 145.815V153.312H125.363V137.153H118.783C118.681 137.59 115.664 143.945 115.262 144.709L115.202 137.153H109.121V153.312L109.121 153.312Z" fill="#82BC6B"/>
<path fill-rule="evenodd" clip-rule="evenodd" d="M72.3895 145.233C72.3895 141.721 77.3869 141.551 77.3869 145.316C77.3869 146.721 76.2611 147.981 74.888 147.981C73.4795 147.981 72.3891 146.67 72.3891 145.233H72.3895ZM65.8926 144.733C65.8926 146.983 66.2035 148.553 67.5574 150.315C68.0096 150.904 68.539 151.465 69.1397 151.898C69.3376 152.041 69.5663 152.19 69.7901 152.33C71.26 153.253 72.9656 153.609 74.8174 153.717L76.6981 153.54C78.0453 153.305 79.4002 152.811 80.4945 152.006C81.5374 151.238 82.3642 150.367 82.9682 149.149C84.4046 146.253 84.2143 142.817 82.2903 140.247C80.7322 138.165 78.0582 136.821 75.4715 136.821C73.2398 136.821 71.4984 137.022 69.6575 138.253C69.4321 138.404 69.2793 138.507 69.0691 138.664C67.2587 140.015 65.8929 142.455 65.8929 144.733H65.8926Z" fill="#82BC6B"/>
<path fill-rule="evenodd" clip-rule="evenodd" d="M42.0711 149.314H40.8216V147.148C41.727 147.148 43.0706 146.937 43.0706 148.231C43.0706 148.924 42.5295 149.314 42.0711 149.314V149.314ZM41.4879 143.15H40.8216V141.151C41.472 141.151 42.0104 141.06 42.4884 141.4C42.993 141.759 43.1342 143.15 41.4879 143.15ZM34.8246 137.153V153.145C34.8246 153.568 35.6836 153.374 36.0744 153.395L38.9025 153.565C41.3401 153.595 44.5192 153.69 46.6054 152.849C47.8264 152.357 48.7072 151.748 49.2638 150.593C50.1128 148.831 49.4325 146.501 47.6788 145.538C46.6173 144.955 46.928 145.174 46.136 144.915C45.7717 144.796 46.3518 145.004 46.015 144.869L45.902 144.816C47.353 144.478 48.9004 143.355 48.9004 141.734C48.9004 139.876 48.2394 138.692 46.5424 137.845C44.4387 136.796 42.2037 136.911 39.8195 136.901L35.6564 137.069C35.2795 137.09 35.2626 137.153 34.824 137.153L34.8246 137.153Z" fill="#82BC6B"/>
<path fill-rule="evenodd" clip-rule="evenodd" d="M24.663 143.567C24.663 144.417 25.3124 146.563 25.3293 147.315H23.8299L24.4687 143.956C24.5605 143.538 24.3855 143.77 24.663 143.567V143.567ZM16.0007 153.312H22.664C22.7836 152.799 23.0803 151.596 23.0803 151.063H26.0788C26.0941 151.756 26.4372 152.613 26.4952 153.312H33.2417L29.7337 141.245C29.5925 140.76 28.6115 137.564 28.5774 137.154H20.5814C20.5708 137.627 20.176 138.692 20.0335 139.188L18.2851 145.186C17.929 146.444 16 152.575 16 153.312H16.0007Z" fill="#82BC6B"/>
<path fill-rule="evenodd" clip-rule="evenodd" d="M173.339 143.567C173.623 144.784 173.805 146.095 174.089 147.315H172.589L173.339 143.567H173.339ZM164.677 153.312H171.424C171.482 152.613 171.825 151.756 171.84 151.063H174.588C174.872 151.063 174.832 151.266 174.879 151.522L175.119 152.781C175.251 153.538 175.001 153.312 178.17 153.312L177.668 144.319C177.669 143.87 177.655 143.623 177.61 143.295C177.561 142.94 177.606 142.59 177.587 142.234L177.253 137.154H169.341L168.775 139.17C168.58 139.868 168.375 140.521 168.193 141.17L165.833 149.221C165.64 149.881 165.447 150.54 165.25 151.22C165.154 151.548 165.03 151.94 164.944 152.247C164.845 152.597 164.706 152.952 164.676 153.312H164.677Z" fill="#82BC6B"/>
<path fill-rule="evenodd" clip-rule="evenodd" d="M50.2338 142.484H54.5649V153.312H60.6451V142.484H65.0598V137.153H50.2338V142.484Z" fill="#82BC6B"/>
<path fill-rule="evenodd" clip-rule="evenodd" d="M179.836 134.988C179.836 132.081 183.334 132.645 183.334 134.655C183.334 137.493 179.836 137.031 179.836 134.988ZM179.17 134.572C179.17 135.532 179.186 135.809 179.938 136.552C181.454 138.049 184 136.944 184 134.738C184 133.32 182.903 132.406 181.335 132.406C180.313 132.406 179.169 133.549 179.169 134.572H179.17Z" fill="#82BC6B"/>
<path fill-rule="evenodd" clip-rule="evenodd" d="M84.8833 147.898C84.8833 148.616 85.5443 148.677 86.5717 149.375C86.7444 149.492 86.6207 149.398 86.7159 149.481C84.9927 149.481 84.8833 149.283 84.8833 149.981C84.8833 150.173 84.9413 150.231 85.1333 150.231H87.7986C88.1049 150.231 88.0485 150.053 88.0485 149.648C88.0485 149.392 87.3822 149.088 87.1584 148.955C86.9188 148.813 86.3409 148.485 86.2163 148.315H88.0489V147.648H85.1336C84.9416 147.648 84.8836 147.706 84.8836 147.898H84.8833Z" fill="#82BC6B"/>
<path fill-rule="evenodd" clip-rule="evenodd" d="M87.4653 141.401C86.9933 141.401 86.5212 141.402 86.0495 141.401C84.9124 141.399 84.8835 141.211 84.8835 142.067H87.4657V143.233H85.1335C84.7678 143.233 84.7678 143.983 85.1335 143.983H87.7988C87.9908 143.983 88.0488 143.925 88.0488 143.733V141.734H88.6319C88.6319 141.405 88.6057 141.396 88.5487 141.151H87.466V141.401L87.4653 141.401Z" fill="#82BC6B"/>
<path fill-rule="evenodd" clip-rule="evenodd" d="M87.4653 144.65H84.8832C84.8832 145.53 84.5554 145.316 87.4653 145.316V146.482H85.1332C84.7725 146.482 84.7725 147.148 85.1332 147.148H88.0485V144.9H88.6316C88.6233 144.534 88.5752 144.64 88.5484 144.316H87.4657V144.65H87.4653Z" fill="#82BC6B"/>
<path fill-rule="evenodd" clip-rule="evenodd" d="M84.8833 153.395H88.0482V152.729H85.5496V151.563H88.0482V150.896H84.8833V153.395Z" fill="#82BC6B"/>
<path fill-rule="evenodd" clip-rule="evenodd" d="M85.7993 139.236C86.2329 139.226 86.2415 139.102 86.632 139.069V139.569C86.2412 139.536 86.2329 139.412 85.7993 139.402V139.236ZM84.883 139.153C84.883 139.773 84.8647 139.699 85.5377 139.914C85.7913 139.995 86.0595 140.076 86.3469 140.187C86.7414 140.34 87.6448 140.701 88.0479 140.735V140.069C87.853 139.975 87.4787 139.841 87.2151 139.819V138.819C87.5453 138.792 87.7177 138.68 88.0479 138.653V137.903L85.608 138.711C85.3265 138.821 84.883 138.871 84.883 139.152V139.153Z" fill="#82BC6B"/>
<path fill-rule="evenodd" clip-rule="evenodd" d="M181.335 134.571V134.071H181.668C181.987 134.071 181.699 134.046 181.918 134.155C181.908 134.612 181.784 134.571 181.335 134.571V134.571ZM180.669 135.987H181.335V135.071C181.589 135.076 181.639 135.109 181.835 135.154C181.835 135.597 181.891 135.658 181.918 135.987H182.585C182.5 134.965 182.301 135.035 182.405 134.723C182.437 134.629 182.585 134.526 182.585 134.321C182.585 133.367 181.658 133.572 180.669 133.572V135.987V135.987Z" fill="#82BC6B"/>
<path fill-rule="evenodd" clip-rule="evenodd" d="M119.74 74.6437C120.247 74.1384 120.613 73.796 121.087 73.2984C121.998 72.343 123.04 70.6981 123.619 70.4484C124.283 70.1627 125.237 70.5562 125.814 70.7703C126.68 71.0916 126.672 71.7861 126.357 72.53C125.915 73.5709 124.601 74.8585 123.883 75.4419L120.854 77.8792C115.512 82.0585 119.107 79.8105 117.27 84.9834C115.576 89.7514 110.372 88.9336 107.435 85.0719C106.817 84.2594 107.094 84.3877 105.342 84.5305C102.761 84.741 100.367 85.0434 97.7574 85.0769C92.2862 85.1468 85.0225 83.2287 80.4288 80.6748C78.4013 79.5476 70.3623 73.7784 70.6911 71.5199C70.7777 70.9255 71.3913 70.1474 71.8879 70.0006C72.951 69.6853 74.4246 71.7642 74.892 72.3433C77.0836 75.0574 77.2033 76.0443 80.2545 77.8304C81.4147 78.5097 82.5933 79.0504 83.8656 79.6043C89.1654 81.912 96.0836 82.8196 102.593 81.9905C108.577 81.2284 114.498 78.8531 118.22 75.8978C118.735 75.4887 119.344 75.0391 119.74 74.644L119.74 74.6437ZM59.5028 76.3963C59.5028 80.7636 59.6188 83.0596 60.6611 87.2283C61.2412 89.5482 61.6413 90.7161 62.4625 92.7678C63.2733 94.7943 64.2354 96.6601 65.3492 98.5274C65.5213 98.8159 65.6376 98.9866 65.8177 99.2823C66.1508 99.8289 66.4949 100.292 66.843 100.786C68.1946 102.702 69.692 104.49 71.3502 106.148C72.4776 107.276 74.0075 108.65 75.257 109.583C75.506 109.769 75.6876 109.939 75.9455 110.117C77.8984 111.47 79.8713 112.788 82.0138 113.837C84.6304 115.119 87.3162 116.099 90.2043 116.821C98.6206 118.925 107.29 118.23 115.271 115.036C116.084 114.71 117.978 113.879 118.673 113.463L121.03 112.149C123.168 110.874 124.188 109.982 126.062 108.535C126.511 108.188 126.91 107.757 127.346 107.372C128.341 106.496 130.247 104.571 131.003 103.606C131.788 102.602 132.386 101.905 133.125 100.834C133.476 100.325 133.788 99.9015 134.12 99.3831L136.34 95.4849C138.792 90.4784 140.498 84.1609 140.498 78.5992C140.498 74.2319 140.382 71.9359 139.34 67.7672C139.028 66.5214 138.668 65.1354 138.215 63.9986C138.1 63.7115 138.003 63.3867 137.889 63.1006C137.196 61.3655 136.459 59.6446 135.549 58.0182L133.158 54.2102C132.814 53.7226 132.51 53.2754 132.123 52.7986C130.85 51.2309 130.076 50.2736 128.651 48.8477C128.427 48.624 128.262 48.4602 128.039 48.2358C126.965 47.1551 124.515 45.1872 123.337 44.3737C122.109 43.5257 121.676 43.2207 120.356 42.4606C120.108 42.3177 119.858 42.1738 119.583 42.0097C119.294 41.837 119.068 41.7571 118.776 41.5937C118.458 41.4157 118.311 41.3066 117.975 41.171C117.635 41.0341 117.393 40.9048 117.089 40.7517C116.02 40.2116 114.817 39.7774 113.629 39.3182C110.326 38.0413 104.863 37 101.102 37C96.7344 37 94.4387 37.116 90.2696 38.1583C85.3103 39.3985 80.8625 41.4127 76.7126 44.3402L75.3031 45.3779C73.9177 46.4055 71.3293 48.7141 70.1637 50.1081C69.7755 50.5722 69.3761 50.9071 68.9985 51.3897C68.6186 51.8754 68.2894 52.2832 67.9148 52.7529C67.5375 53.226 67.2329 53.6453 66.8765 54.1618C66.0285 55.39 65.7235 55.823 64.9634 57.1427C61.6692 62.8645 59.5024 69.7592 59.5024 76.3967L59.5028 76.3963Z" fill="#F06419"/>
</svg>
