<svg width="200" height="200" viewBox="0 0 200 200" fill="none" xmlns="http://www.w3.org/2000/svg">
<path fill-rule="evenodd" clip-rule="evenodd" d="M105.697 110.302V89.3008H118.744V94.1797H111.137V110.302H105.697Z" fill="#E30613"/>
<path fill-rule="evenodd" clip-rule="evenodd" d="M135.159 110.302V102.077H127.076V110.302H121.636V89.3008H127.076V97.1376H135.159V89.3008H140.599V110.302H135.159Z" fill="#E30613"/>
<path fill-rule="evenodd" clip-rule="evenodd" d="M172.171 110.302V94.1797H165.817V89.3008H184V94.1797H177.616V110.302H172.171Z" fill="#E30613"/>
<path fill-rule="evenodd" clip-rule="evenodd" d="M157.813 110.299V98.3334L149.153 110.299H144.602V89.3035H150.042V101.146L158.558 89.3035H163.256V110.299H157.813Z" fill="#E30613"/>
<path fill-rule="evenodd" clip-rule="evenodd" d="M74.4315 110.302V97.8217L68.9999 104.416L63.5656 97.8217V110.302H58.1257V89.3008H63.4944L68.9999 96.522L74.5027 89.3008H79.8714V110.302H74.4315Z" fill="#E30613"/>
<path fill-rule="evenodd" clip-rule="evenodd" d="M90.1984 102.917H95.2551L92.7267 96.3304L90.1984 102.917ZM98.0899 110.299L96.9516 107.358H88.4936L87.3553 110.299H81.8854L90.2531 89.3008H95.2825L103.653 110.299H98.0899V110.299Z" fill="#E30613"/>
<path fill-rule="evenodd" clip-rule="evenodd" d="M16 93.569C16.0055 91.0324 16.9988 88.6025 18.7637 86.8075C20.5286 85.0152 22.9229 84.0055 25.4185 84H47.1614V88.8625H25.4239C24.1981 88.8679 23.0214 89.366 22.1568 90.2471C21.2893 91.1282 20.7995 92.3212 20.7941 93.569L20.764 101.734C20.6655 102.779 20.2276 103.765 19.5217 104.531C18.8157 105.297 17.8771 105.803 16.8565 105.973L16.0027 106.107V93.569H16Z" fill="#E30613"/>
<path fill-rule="evenodd" clip-rule="evenodd" d="M16 115.602V110.739H37.7429C38.9688 110.734 40.1454 110.236 41.0128 109.355C41.8803 108.474 42.3701 107.281 42.3755 106.033V98.2837C42.381 97.159 42.7805 96.0727 43.5002 95.2217C44.2198 94.368 45.2158 93.8043 46.3104 93.6291L47.1641 93.4978V106.03C47.1586 108.567 46.1654 110.999 44.4004 112.792C42.6355 114.584 40.2439 115.596 37.7484 115.602H16.0027H16Z" fill="#E30613"/>
<path fill-rule="evenodd" clip-rule="evenodd" d="M34.4211 106.12V99.8351L31.5835 103.275L28.7514 99.8351V106.12H24.9972V93.7495H28.5517L31.5835 97.7281L34.6154 93.7495H38.1726V106.12H34.4211Z" fill="#E30613"/>
</svg>
