<svg width="200" height="200" viewBox="0 0 200 200" fill="none" xmlns="http://www.w3.org/2000/svg">
<g clip-path="url(#clip0_533_2099)">
<path fill-rule="evenodd" clip-rule="evenodd" d="M39.0006 141.809H160.244V172H39.0006V141.809Z" fill="#E73840"/>
<path fill-rule="evenodd" clip-rule="evenodd" d="M65.3346 149.941C65.5923 150.466 65.7236 151.035 65.7091 151.735L49.2181 151.74C48.7172 151.74 47.9293 152.027 47.6376 152.683C47.2777 153.501 47.6911 154.439 48.5129 154.804C48.8388 154.95 49.4175 154.925 49.4175 154.925H61.4149C63.5595 155.076 65.4756 156.457 66.2148 158.728C66.8568 160.703 66.5261 162.347 65.2179 163.961C63.7054 165.824 61.6386 165.848 59.3626 165.848L46.0911 165.833C44.6516 165.833 43.4358 164.413 43.2315 162.959L43.2218 162.225L60.7438 162.24C61.3322 162.24 62.0811 161.432 62.1006 160.601C62.1249 159.706 61.5073 158.855 60.6125 158.855H47.9877C45.8041 158.855 43.5768 156.807 43.2218 154.245C42.93 152.173 43.6109 150.607 45.2206 149.27C46.4364 148.258 47.3555 147.971 49.0576 147.971L60.734 147.957C62.5383 147.922 64.503 148.234 65.3443 149.95L65.3346 149.941Z" fill="#FEFEFE"/>
<path fill-rule="evenodd" clip-rule="evenodd" d="M92.6268 148.025C95.4474 148.025 97.738 150.928 97.6602 153.963C97.5872 156.89 95.0292 159.599 92.69 159.599H82.847C81.4075 159.424 80.2987 158.378 79.7297 157.167C79.5351 156.696 79.5254 156.029 79.4719 155.538L79.9826 155.548H91.8827C92.3982 155.548 92.8845 155.076 93.1277 154.488C93.3514 153.948 93.3368 153.51 93.0645 152.99C92.7678 152.416 92.2231 152.056 91.693 152.056H78.4215L78.295 152.183V163.937C78.295 165.031 77.3419 165.833 76.2136 165.814C75.2264 165.795 74.3073 164.997 74.3073 163.956V151.375C74.3073 150.335 74.7012 149.722 75.4404 149.022C76.2136 148.287 77.2349 148.01 77.9838 148.01L92.6268 148.025V148.025Z" fill="#FEFEFE"/>
<path fill-rule="evenodd" clip-rule="evenodd" d="M117.594 150.729C119.865 153.885 124.451 159.808 126.776 163.149C127.067 163.903 126.727 164.715 126.338 165.328C125.711 165.911 124.685 166.038 123.97 165.702C122.846 164.701 122.068 163.451 121.164 162.337L106.02 162.303L104.23 164.73C103.666 165.493 102.946 166.018 101.842 165.824C101.268 165.707 100.724 165.226 100.534 164.701C100.242 164.025 100.271 163.387 100.661 162.77L110.26 150.058C111.063 148.851 111.933 147.991 113.436 148C115.8 148.03 115.96 148.628 117.589 150.724L117.594 150.729ZM113.995 152.766C115.303 154.585 116.743 156.336 117.988 158.228H109.186L113.567 152.747C113.567 152.747 113.684 152.562 113.801 152.572C113.908 152.582 114 152.771 114 152.771L113.995 152.766Z" fill="#FEFEFE"/>
<path fill-rule="evenodd" clip-rule="evenodd" d="M151.641 148.025C153.722 148.025 155.673 149.605 156.451 151.876C157.287 154.313 156.514 156.472 154.632 158.228C154.214 158.622 153.45 159.103 153.45 159.103L156.052 162.828C156.29 163.169 156.368 163.845 156.144 164.428C155.94 164.973 155.663 165.289 155.133 165.517C154.408 165.829 153.45 165.542 153.139 165.162C153.139 165.162 150.654 162.133 149.273 160.411C149.03 160.158 148.903 159.925 148.65 159.662L142.017 159.696C140.373 159.706 138.428 157.736 138.428 156.17V155.563L150.78 155.548C151.242 155.548 151.758 155.115 152.011 154.551C152.239 154.04 152.234 153.627 152.011 153.116C151.743 152.504 151.13 152.071 150.654 152.071L137.217 152.11L137.178 152.241V164.214C137.178 165.012 136.079 166.038 134.999 165.936C134.002 165.838 133.19 164.827 133.19 164.122L133.205 151.434C133.205 150.111 133.589 149.6 134.425 148.871C135.238 148.161 135.972 148.005 137.052 148.005L151.636 148.02L151.641 148.025Z" fill="#FEFEFE"/>
<path fill-rule="evenodd" clip-rule="evenodd" d="M44.8023 93.2509C49.5925 111.211 64.1382 125.936 82.127 131.106C104.785 138.225 130.409 130.634 145.056 113.282C149.774 107.568 153.168 100.628 155.055 93.2509C158.216 80.8644 157.107 67.233 150.78 56.0769C146.253 48.2034 139.595 40.7774 132.077 36.0552C115.177 24.9429 90.1026 24.0627 72.4494 33.4145C54.3535 42.6497 41.8747 61.9516 43.1829 82.9215C43.3579 86.4522 43.9123 89.9099 44.8023 93.2557V93.2509ZM68.7971 93.2509C67.1874 95.3712 65.5388 97.4526 63.8659 99.4806L94.0126 99.4174C93.8327 103.42 94.7761 108.302 92.9135 111.741C91.0364 115.51 86.6401 117.377 82.5696 117.46C70.4117 116.331 62.3291 105.72 57.7043 95.6776C57.359 94.8849 57.0429 94.0727 56.7559 93.246C52.5979 81.1902 54.8399 65.7205 62.7619 55.8532C74.5357 40.3348 95.3208 34.0662 114.691 40.009C126.503 43.6855 137.008 52.8137 142.197 64.4318C145.941 73.2049 146.053 83.7774 143.009 93.246C141.059 99.3104 137.81 104.927 133.394 109.319C127.933 113.914 122.049 118.753 114.472 117.236C110.338 116.278 107.367 113.414 106.331 109.538C105.441 106.158 105.665 102.914 106.112 99.4174L136.872 99.3639L136.035 98.3183C134.605 96.6453 133.205 94.9578 131.833 93.246C118.28 76.366 107.435 57.6477 99.9505 38.0297C92.0917 57.4337 81.4316 76.6334 68.7971 93.2509V93.2509Z" fill="#187E46"/>
</g>
<defs>
<clipPath id="clip0_533_2099">
<rect width="121.244" height="145" fill="white" transform="translate(39 27)"/>
</clipPath>
</defs>
</svg>
