<svg width="150" height="216" viewBox="0 0 150 216" fill="none" xmlns="http://www.w3.org/2000/svg">
<path d="M-0.000200256 0C49.9998 0 99.9998 0 150 0C150 71.8239 150 143.647 150 215.471C149.455 215.525 148.842 215.345 148.346 215.574C148.177 215.57 148.001 215.574 147.863 215.483C135.144 215.454 122.425 215.479 109.706 215.471C73.1366 215.471 36.5686 215.471 -0.000488281 215.471C-0.000488281 143.647 -0.000488281 71.8237 -0.000488281 0H-0.000200256Z" fill="#C6373B"/>
<path d="M35.7337 141.164C37.3357 140.898 39.025 140.966 40.542 141.581C41.3176 141.902 42.0749 142.349 42.5844 143.033C43.0746 143.677 43.2532 144.541 43.0734 145.331C42.8695 146.36 42.2229 147.273 41.3657 147.869C39.9677 148.864 38.264 149.307 36.5903 149.563C34.5635 149.855 32.492 149.826 30.4715 149.495C29.5651 149.34 28.6169 149.119 27.8963 148.514C27.2301 147.966 27.0068 147.01 27.2384 146.197C27.4533 145.426 27.7142 144.656 28.1051 143.956C28.4997 143.241 29.3404 143.009 30.0481 142.734C31.9096 142.104 33.7895 141.484 35.7337 141.164V141.164ZM89.6794 134.395C91.4997 134.177 93.3093 133.864 95.1357 133.697C95.6827 133.647 96.314 133.526 96.7714 133.917C96.7582 136.244 95.956 138.453 95.5021 140.712C95.1187 142.45 94.8601 144.219 94.8091 146C80.3479 147.847 65.752 148.161 51.2424 149.484C50.2643 146.121 50.5967 142.574 50.6439 139.121C56.6377 137.921 62.764 137.674 68.8114 136.843C74.747 136.027 80.6849 135.086 86.6865 134.927C86.2314 137.861 85.7288 140.794 85.5577 143.763C85.5384 144.322 85.5007 144.906 85.6839 145.446C85.8552 145.936 86.4803 145.869 86.8867 146.001C87.838 143.992 88.2677 141.793 88.6646 139.621C88.9789 137.874 89.2629 136.121 89.6794 134.395V134.395ZM109.162 133.536C110.551 133.27 111.998 133.557 113.276 134.127C113.932 134.433 114.597 134.872 114.864 135.581C115.228 136.509 114.914 137.557 114.38 138.353C113.488 139.662 112.36 140.838 110.991 141.651C109.791 142.333 108.416 142.693 107.04 142.748C106.331 142.748 105.553 142.648 105.016 142.142C104.598 141.753 104.465 141.161 104.468 140.612C104.501 139.679 104.84 138.793 105.239 137.962C105.732 136.867 106.406 135.854 107.233 134.983C107.781 134.397 108.357 133.747 109.162 133.536ZM39.1465 76.2641C39.798 78.1585 40.4717 80.0456 41.0737 81.957C39.8006 81.9558 38.5275 81.9558 37.2542 81.957C37.878 80.0566 38.5212 78.1645 39.1462 76.2641H39.1465ZM57.7253 75.9511C59.1951 75.9597 60.6657 75.9329 62.1355 75.9899C62.1344 78.7982 62.1488 81.6076 62.1053 84.4147C60.2302 84.4158 58.3566 84.4158 56.4813 84.4147C57.138 81.6381 57.7169 78.8166 57.7253 75.9511V75.9511ZM100.51 75.5956C101.698 75.4101 103.019 75.655 103.922 76.4925C104.493 77.019 104.741 77.7895 104.878 78.5338C105.115 79.9621 105.027 81.4682 104.508 82.8274C104.178 83.7231 103.329 84.3406 102.416 84.546C101.181 84.83 99.7859 84.6163 98.7835 83.8118C98.0834 83.2522 97.7714 82.3677 97.6283 81.5122C97.4195 80.2147 97.4719 78.852 97.9039 77.6055C98.2838 76.4951 99.3746 75.75 100.511 75.5959L100.51 75.5956ZM18.7592 75.246C19.7786 75.3162 20.8345 75.121 21.8235 75.4401C22.7677 75.7264 23.2714 76.9557 22.7734 77.8151C22.4748 78.3696 21.8402 78.6098 21.2541 78.7181C20.4263 78.8454 19.5841 78.8431 18.7503 78.7959C18.7601 77.6124 18.7443 76.4292 18.7589 75.246H18.7592ZM53.6463 38.7667C53.6949 38.6141 53.8076 38.5 53.9118 38.3839C54.402 39.0959 54.5368 39.9626 54.697 40.793C55.0962 42.4342 55.5346 44.0667 55.9519 45.7032C56.2408 46.9659 56.7166 48.2047 56.6959 49.5167C54.9337 49.663 53.1572 49.665 51.3948 49.5167C51.3038 48.4455 51.7165 47.4369 51.917 46.4043C52.2894 44.6687 52.6497 42.9307 53.0394 41.2014C53.2249 40.3863 53.3487 39.5516 53.646 38.7667H53.6463ZM100.049 187.876C99.7421 188.109 100.044 188.707 100.411 188.472C100.793 188.256 100.452 187.523 100.049 187.876ZM91.8427 169.526C88.8449 169.862 85.8596 170.299 82.8768 170.738C79.4118 171.241 75.9288 171.611 72.446 171.961C66.7664 172.518 61.0952 173.178 55.4493 174.022C52.4556 174.442 49.4909 175.046 46.4909 175.42C43.6777 175.795 40.8366 176.098 38.1001 176.886C37.3682 177.118 36.6061 177.337 35.986 177.808C35.3503 178.353 35.1997 179.261 35.2323 180.055C35.2749 180.704 35.4751 181.458 36.0929 181.787C36.9788 182.146 37.9204 181.751 38.821 181.65C40.0126 181.511 41.1791 181.219 42.326 180.87C45.231 179.977 48.2277 179.439 51.2214 178.944C59.009 177.672 66.8177 176.525 74.6393 175.484C77.6624 175.059 80.7071 174.807 83.7265 174.354C86.4909 173.92 89.2119 173.244 91.9813 172.835C94.2374 172.484 96.5554 172.053 98.5298 170.838C98.1268 170.024 97.2423 169.612 96.3889 169.456C94.8843 169.184 93.3488 169.365 91.8427 169.526V169.526ZM92.9084 161.945C90.1572 162.165 87.4397 162.658 84.7227 163.126C82.5479 163.518 80.3574 163.809 78.1667 164.091C69.5585 165.219 61.0053 166.719 52.4227 168.021C48.7311 168.524 44.9885 168.627 41.3197 169.309C40.6935 169.442 40.0356 169.545 39.4824 169.886C38.963 170.212 38.8743 170.881 38.8173 171.441C38.7603 172.513 38.8136 173.643 39.2856 174.628C39.6655 175.396 40.6713 175.307 41.3925 175.312C45.7178 175.028 49.7625 173.305 53.9979 172.533C61.9351 171.135 69.8912 169.835 77.7989 168.278C80.3632 167.722 82.9214 167.074 85.5465 166.868C88.4322 166.589 91.3594 166.538 94.1895 165.847C95.2515 165.568 96.3474 165.222 97.1873 164.483C97.6669 164.064 97.9419 163.334 97.6398 162.735C97.3705 162.213 96.7527 162.031 96.2187 161.925C95.1216 161.756 94.0075 161.864 92.9081 161.945L92.9084 161.945ZM94.6438 155.712C91.9061 156.023 89.1779 156.628 86.4085 156.469C84.867 156.394 83.3175 156.367 81.7797 156.529C75.6681 157.014 69.5611 157.581 63.4653 158.239C52.3015 159.38 41.3706 162.058 30.248 163.487C29.9859 164.544 29.8767 165.654 30.055 166.734C30.1981 167.525 30.5732 168.359 31.3194 168.748C32.0974 169.18 33.0268 169.032 33.863 168.882C36.7029 168.229 39.55 167.599 42.4044 167.01C43.4447 166.774 44.6668 166.804 45.4615 165.984C45.7806 166.199 46.1775 166.282 46.5464 166.132C47.4252 165.798 48.2311 165.268 49.1629 165.074C50.5866 164.787 52.0451 164.922 53.4855 164.837C53.6494 164.606 53.813 164.331 54.129 164.311C55.9021 164.042 57.7043 164.283 59.4857 164.129C60.2271 164.07 60.948 163.874 61.658 163.658C64.5984 162.711 67.7284 162.979 70.7682 162.857C72.6297 162.776 74.4806 162.559 76.328 162.321C79.2405 161.912 82.1567 161.531 85.0839 161.247C88.2199 160.886 91.3934 160.769 94.4833 160.081C95.4943 159.903 96.4407 159.507 97.3777 159.102C98.4224 158.633 99.63 158.747 100.663 158.246C101.432 157.888 101.524 156.75 100.941 156.184C100.225 155.477 99.1436 155.288 98.1741 155.356C96.9992 155.501 95.8137 155.536 94.6438 155.712ZM31.8477 137.889C30.8923 137.991 30.0916 138.563 29.3669 139.149C28.3876 139.912 27.2698 140.503 26.3985 141.4C25.8199 141.993 25.4227 142.736 25.1073 143.497C24.5102 144.998 24.247 146.649 24.4604 148.258C24.5854 149.104 24.8596 149.953 25.4071 150.626C26.0322 151.393 26.9423 151.867 27.8721 152.163C29.4084 152.641 31.0357 152.692 32.6317 152.641C34.7942 152.52 36.9509 152.156 39.0126 151.482C40.8366 150.867 42.6313 149.945 43.8718 148.431C44.8197 147.323 45.3085 145.827 45.1495 144.372C45.0332 142.978 44.4056 141.684 43.64 140.535C43.0308 139.645 42.1607 138.866 41.0866 138.624C39.7067 138.302 38.281 138.515 36.9034 138.736C36.0525 138.849 35.2115 139.099 34.3489 139.072C33.7941 139.064 33.5574 138.538 33.2892 138.149C32.9531 137.695 32.3269 137.842 31.8477 137.889V137.889ZM103.68 132.19C103.644 132.725 103.038 133.21 103.339 133.742C103.617 134.009 104.022 134.082 104.363 134.249C103.2 136.129 102.431 138.276 102.278 140.489C102.247 141.624 102.399 142.86 103.138 143.773C103.786 144.576 104.823 144.929 105.821 145.021C107.261 145.146 108.726 144.911 110.076 144.399C111.993 143.65 113.691 142.381 115.045 140.839C116.256 139.442 117.158 137.628 116.971 135.736C116.89 134.45 116.08 133.318 115.038 132.607C114.049 131.868 112.817 131.609 111.738 131.044C111.078 130.714 110.345 130.373 109.591 130.544C107.581 130.94 105.619 131.539 103.68 132.19H103.68ZM96.7337 130.699C94.8696 131.104 93.0467 131.736 91.1391 131.907C90.4665 131.945 89.7614 131.943 89.1338 131.673C88.635 131.39 88.2032 130.986 87.6413 130.826C87.4253 131.166 87.2481 131.532 87.0065 131.858C86.6899 132.267 86.1413 132.352 85.6666 132.454C82.6665 132.955 79.6086 132.696 76.5938 133.032C72.0718 133.496 67.5731 134.166 63.0514 134.633C59.56 134.996 56.0464 135.279 52.5356 135.132C51.4057 135.123 50.2856 134.959 49.1594 134.892C47.8501 136.755 47.6934 139.134 47.753 141.339C47.8938 144.261 48.463 147.152 49.2723 149.958C49.4313 150.585 49.3838 151.237 49.4592 151.876C49.497 152.23 49.7409 152.577 50.1168 152.628C50.9786 152.77 51.811 152.412 52.6558 152.297C55.8934 151.899 59.1533 151.713 62.3996 151.379C68.0429 150.814 73.6643 150.041 79.2684 149.178C82.5147 148.679 85.8014 148.587 89.0731 148.373C91.8462 148.191 94.6374 147.948 97.3233 147.2C97.1885 146.509 97.0767 145.804 97.1409 145.1C97.2648 143.5 97.8826 142.001 98.2686 140.456C98.8219 138.293 98.8841 136.003 99.7493 133.924C99.9348 133.365 100.675 133.003 100.512 132.354C100.388 131.519 99.6591 130.931 98.8985 130.679C98.1994 130.411 97.4419 130.57 96.7334 130.698L96.7337 130.699ZM126.335 118.183C119.865 118.537 113.392 118.835 106.928 119.287C95.7155 119.986 84.5554 121.368 73.4765 123.21C61.9388 125.073 50.4135 127.036 38.8199 128.524C35.5943 128.949 32.354 129.259 29.1342 129.735C27.6632 129.916 26.2168 130.243 24.7553 130.482C24.7311 132.151 24.9909 133.828 25.5929 135.389C25.7847 135.846 25.8536 136.393 26.2274 136.749C26.8657 136.874 27.5189 136.73 28.1609 136.706C30.8307 136.559 33.4531 135.993 36.0528 135.394C41.7194 134.056 47.5116 133.377 53.2217 132.258C55.7955 131.776 58.3238 131.04 60.9391 130.796C66.3032 130.232 71.6196 129.315 76.917 128.319C77.5348 128.185 78.0334 127.765 78.627 127.569C79.5674 127.251 80.5639 127.182 81.5409 127.042C84.1185 126.664 86.7216 126.514 89.3236 126.44C93.1339 126.288 96.9485 126.029 100.72 125.443C103.743 124.952 106.756 124.373 109.808 124.08C116.01 123.477 122.256 123.494 128.479 123.655C127.587 126.118 126.446 128.478 125.294 130.828C124.292 132.886 123.372 134.984 122.451 137.078C120.45 141.617 118.192 146.036 115.92 150.442C113.608 155.053 111.293 159.661 109.002 164.281C106.824 168.723 104.748 173.215 102.872 177.794C102.05 179.862 101.284 181.953 100.454 184.017C100.311 184.311 100.158 184.727 99.7746 184.746C98.6825 184.866 97.5831 184.734 96.4883 184.706C93.2892 184.542 90.0961 184.255 86.8947 184.135C85.6398 184.054 84.3852 184.168 83.1326 184.225C79.9409 184.411 76.743 184.49 73.5477 184.527C71.0381 184.53 68.5294 184.467 66.0198 184.471C59.9411 184.609 53.8669 184.963 47.8063 185.453C44.3281 185.74 40.8461 186.024 37.3924 186.538C34.5684 186.961 31.7235 187.402 28.8597 187.32C28.3752 185.604 28.0112 183.856 27.6206 182.119C26.4132 176.414 25.5537 170.644 24.8343 164.86C24.4627 161.879 24.0816 158.896 23.9445 155.895C23.7723 152.78 23.7138 149.645 23.1594 146.568C22.9019 145.205 22.9347 143.813 22.8256 142.436C22.7406 141.631 22.6703 140.78 22.2564 140.066C21.9143 139.452 20.8886 139.158 20.4445 139.814C20.0355 140.432 20.0015 141.207 19.9237 141.923C19.7696 143.503 19.9517 145.094 20.2135 146.654C20.488 148.438 20.8206 150.212 21.0764 151.999C21.4963 155.025 21.8313 158.062 22.1553 161.1C22.7671 166.826 23.5024 172.542 24.5315 178.209C25.0837 181.228 25.6007 184.262 26.4625 187.212C26.7611 188.162 27.023 189.145 27.5596 189.996C27.7877 190.379 28.1759 190.658 28.6261 190.7C29.9185 190.847 31.2293 190.95 32.5277 190.806C34.024 190.667 35.4745 190.251 36.9428 189.955C41.5556 188.997 46.274 188.79 50.9573 188.406C57.6674 187.915 64.3882 187.523 71.1176 187.415C77.79 187.275 84.4684 187.264 91.1359 186.925C93.8678 186.784 96.6432 186.672 99.3314 187.28C99.2162 187.739 99.0096 188.168 98.9051 188.632C99.1784 188.659 99.5655 188.674 99.6577 188.34C99.8383 188.025 99.7703 187.431 100.228 187.373C100.81 187.269 101.341 186.977 101.931 186.906C104.024 186.613 106.137 187.114 108.232 186.827C107.918 186.196 107.316 185.778 106.66 185.563C105.143 185.049 103.537 184.778 101.935 184.837C102.711 182.076 104.154 179.576 105.548 177.092C107.851 173.001 109.647 168.656 111.676 164.429C113.722 160.114 116.348 156.113 118.554 151.882C119.673 149.778 120.69 147.621 121.8 145.513C122.798 143.608 123.829 141.719 124.775 139.786C127.043 135.28 128.623 130.437 131.267 126.12C131.867 125.118 132.42 124.088 132.904 123.026C133.355 121.984 133.749 120.88 133.741 119.729C133.738 119.245 133.629 118.727 133.277 118.372C132.9 117.972 132.312 117.896 131.791 117.881C129.97 117.942 128.152 118.059 126.334 118.183L126.335 118.183ZM80.1172 105.842C74.9037 106.646 69.6766 107.364 64.4374 107.98C58.2771 108.718 52.0976 109.376 46.0041 110.565C43.6864 111.034 41.3974 111.645 39.0624 112.028C37.1911 112.341 35.2786 112.524 33.4874 113.185C32.8454 113.434 32.1271 113.752 31.8514 114.435C31.4704 115.358 31.3174 116.446 31.6973 117.395C31.8828 117.879 32.3987 118.102 32.8779 118.18C33.844 118.34 34.8244 118.17 35.7786 118.003C37.537 117.678 39.2228 117.065 40.9147 116.505C41.7871 116.188 42.7143 115.837 43.6587 116.034C43.5821 118.364 43.1501 120.687 43.3321 123.023C43.428 124.176 43.7788 125.416 44.7532 126.138C45.3016 125.374 45.6173 124.471 45.8126 123.558C46.3405 120.937 46.1184 118.25 46.208 115.596C47.9218 115.058 49.6753 114.654 51.4423 114.329C56.5928 113.399 61.8236 113.037 66.9887 112.205C73.0131 111.296 79.0337 110.343 85.092 109.683C85.4644 111.19 85.6358 112.736 85.8175 114.275C86.1038 116.467 86.2979 118.756 87.3648 120.737C87.656 120.729 87.9495 120.744 88.2421 120.769C88.5212 120.05 88.7142 119.297 88.7773 118.528C89.0503 115.513 88.207 112.528 88.4121 109.513C91.7543 108.939 95.1971 108.876 98.4523 107.853C99.1018 107.612 99.8576 107.364 100.217 106.722C100.481 106.229 100.223 105.659 99.8942 105.271C99.4546 104.726 98.7291 104.568 98.0727 104.471C96.4284 104.247 94.763 104.324 93.1115 104.417C88.7583 104.656 84.4284 105.203 80.1175 105.842L80.1172 105.842ZM119.679 86.3755C118.792 86.6062 118.283 87.4654 117.87 88.2154C116.493 90.922 116.411 94.02 115.742 96.9302C115.092 99.729 114.292 102.493 113.747 105.318C113.207 108.056 112.846 110.86 113.077 113.655C113.196 114.811 113.406 116.001 114.02 117.008C114.145 117.245 114.422 117.416 114.693 117.312C115.013 117.256 115.141 116.915 115.224 116.643C115.462 115.708 115.403 114.735 115.412 113.78C115.4 112.346 115.425 110.905 115.624 109.483C115.981 107.125 116.698 104.844 117.269 102.533C117.698 100.759 117.967 98.951 118.27 97.1523C118.637 95.0503 119.038 92.9071 120.043 91.003C120.477 90.1279 121.278 89.4632 121.532 88.4957C121.668 87.9559 121.655 87.2725 121.201 86.8816C120.786 86.5296 120.228 86.2932 119.679 86.3755H119.679ZM119.447 77.6438C118.395 77.9667 117.331 78.3451 116.451 79.0249C114.987 80.2994 114.531 82.6707 115.611 84.3271C117.605 83.6523 119.661 83.1733 121.741 82.8562C122.898 82.6473 124.077 82.4362 125.138 81.906C125.93 81.5094 126.623 80.8391 126.899 79.9811C127.12 79.2605 127.024 78.3938 126.479 77.8405C125.912 77.2884 125.1 77.1063 124.339 77.0358C122.688 76.9168 121.032 77.1936 119.447 77.6438ZM71.7786 71.9253C71.7823 77.3534 71.776 82.7821 71.7809 88.2094C73.5128 88.2131 75.2458 88.2045 76.9786 88.214C79.2638 85.3283 81.3681 82.304 83.6959 79.452C83.7311 82.372 83.5963 85.292 83.7446 88.2106C85.4811 88.2094 87.2179 88.2106 88.9558 88.2094C88.9558 82.7787 88.9558 77.3465 88.9558 71.9155C87.2277 71.9167 85.5007 71.9129 83.7737 71.9181C81.4874 74.8269 79.3548 77.8537 77.0322 80.7337C77.0284 77.7944 77.031 74.8548 77.031 71.917C75.2798 71.9207 73.5286 71.9037 71.7786 71.9256V71.9253ZM52.6085 71.9167C52.5961 72.9873 52.6788 74.0573 52.6192 75.1279C52.5512 78.2725 52.3231 81.5151 51.0005 84.4155C50.4129 84.4144 49.8268 84.4144 49.2395 84.4155C49.1825 86.8525 49.2127 89.2906 49.2078 91.7288C50.715 91.7288 52.2226 91.7299 53.7295 91.7288C53.7465 90.5551 53.6886 89.3779 53.7658 88.2071C55.8278 88.2059 57.8897 88.2324 59.9506 88.1754C61.6784 88.2324 63.4092 88.1901 65.1373 88.2422C65.1362 89.4035 65.1362 90.5663 65.1373 91.7288C66.6336 91.7299 68.1302 91.7299 69.6276 91.7288C69.6265 89.2909 69.6265 86.8537 69.6276 84.417C68.9905 84.4144 68.3534 84.4158 67.7177 84.4158C67.7177 80.2495 67.7177 76.0824 67.7177 71.9158C62.6813 71.917 57.6446 71.9147 52.6085 71.917V71.9167ZM36.2115 71.919C33.9154 77.333 31.6446 82.7565 29.4386 88.2068C31.3295 88.2152 33.2213 88.2057 35.1121 88.2117C35.4774 87.3254 35.662 86.3753 36.0793 85.51C38.135 85.5054 40.192 85.5089 42.2477 85.5077C42.5573 86.4084 42.8655 87.3099 43.1774 88.2106C45.1239 88.2068 47.0692 88.214 49.0157 88.2068C46.7766 82.7735 44.5268 77.3439 42.2768 71.9144C40.2548 71.919 38.2329 71.9106 36.211 71.919H36.2115ZM13.1413 71.919C13.1353 77.35 13.1367 82.7807 13.1413 88.2117C15.0129 88.1774 16.8876 88.2661 18.7566 88.1449C18.7483 86.1523 18.7578 84.1595 18.752 82.1681C20.0188 82.1983 21.2907 82.2432 22.5566 82.1413C24.0128 82.0019 25.5359 81.7144 26.7263 80.8063C27.6874 80.0917 28.2494 78.9338 28.3646 77.7552C28.4605 76.6521 28.4081 75.4908 27.913 74.481C27.3222 73.305 26.1595 72.4726 24.8852 72.1886C23.2516 71.8162 21.5623 71.9386 19.8998 71.9155C17.6475 71.9181 15.3948 71.9109 13.1413 71.9193V71.919ZM99.4656 71.7709C97.2204 72.0066 94.9378 72.947 93.5285 74.7722C92.0821 76.6193 91.7312 79.1 91.985 81.3766C92.1924 83.3317 93.0953 85.2502 94.6561 86.4821C96.5444 88.0305 99.0782 88.4738 101.457 88.4542C103.838 88.4943 106.367 87.9202 108.166 86.2733C109.557 85.0365 110.367 83.232 110.53 81.3921C110.682 79.7539 110.587 78.0571 109.991 76.5098C109.387 74.875 108.127 73.5098 106.563 72.7476C104.378 71.6615 101.854 71.5218 99.4656 71.7707V71.7709ZM116.937 24.8007C116.45 24.8479 115.909 24.8459 115.508 25.1642C115.233 25.3641 115.156 25.7169 115.098 26.0311C114.884 27.4013 115.07 28.7884 115.049 30.1672C115.047 40.0784 115.049 49.9896 115.048 59.9009C115.037 60.9461 114.949 62.0389 115.304 63.0412C115.532 63.6694 116.301 63.6973 116.867 63.7273C122.167 63.7293 127.469 63.7273 132.771 63.7273C134.109 63.7339 135.464 63.8886 136.791 63.6348C137.216 63.5617 137.658 63.3252 137.786 62.8819C138.083 61.9182 137.947 60.8966 137.951 59.9052C137.977 59.103 138.036 58.2919 137.913 57.4961C137.855 57.1263 137.666 56.7326 137.286 56.6122C136.532 56.3628 135.727 56.4359 134.946 56.4379C131.669 56.4399 128.389 56.4359 125.111 56.4399C124.563 56.4356 123.98 56.569 123.46 56.3452C123.257 56.0742 123.311 55.7107 123.293 55.3967C123.356 52.9361 123.348 50.4712 123.298 48.0106C123.314 47.7373 123.297 47.4343 123.456 47.1975C123.729 46.9178 124.159 46.9631 124.518 46.9438C127.185 47.0621 129.858 46.974 132.527 47.0126C133.008 46.9976 133.707 47.0256 133.894 46.4599C134.19 45.4662 133.98 44.4143 134.01 43.397C134.001 42.4033 134.199 41.3794 133.904 40.4137C133.686 39.8048 132.945 39.7426 132.396 39.7253C130.252 39.7187 128.107 39.723 125.962 39.723C125.188 39.7166 124.394 39.8995 123.635 39.6864C123.315 39.579 123.35 39.1789 123.326 38.9122C123.33 37.4539 123.359 35.9956 123.27 34.5414C123.293 33.7951 123.146 32.982 123.509 32.296C123.743 32.0745 124.097 32.0961 124.4 32.0765C127.514 32.0765 130.628 32.0765 133.742 32.0765C134.613 32.0549 135.508 32.156 136.358 31.9065C136.758 31.7948 137.078 31.4592 137.138 31.0419C137.337 30.0352 137.229 29.005 137.257 27.9857C137.225 27.1899 137.356 26.3575 137.089 25.5876C136.911 25.1187 136.395 24.9058 135.933 24.8413C134.963 24.6973 133.981 24.7874 133.007 24.7618C130.781 24.7638 128.555 24.7618 126.329 24.7638C123.198 24.7465 120.064 24.6155 116.936 24.8004L116.937 24.8007ZM88.2888 24.7943C87.8153 24.8652 87.2389 24.9513 86.9878 25.4159C86.6905 25.975 86.6951 26.6354 86.6819 27.2526C86.6989 28.4678 86.7608 29.679 86.7392 30.8941C86.7404 38.2996 86.7392 45.703 86.7392 53.1063C86.7487 54.0678 86.8639 55.0508 86.6444 55.9993C86.5961 56.3435 86.2136 56.4316 85.9238 56.4339C84.8702 56.4512 83.8181 56.4232 82.767 56.4425C81.8169 56.4705 80.8531 56.5952 79.9139 56.4123C79.4853 56.3435 79.3436 55.8918 79.3107 55.5197C79.2148 54.3904 79.347 53.259 79.3119 52.1299C79.3119 44.7265 79.3145 37.3231 79.3119 29.92C79.3084 28.9091 79.3776 27.8961 79.3568 26.8831C79.3096 26.3108 79.3531 25.6184 78.8813 25.1987C78.3413 24.7707 77.6045 24.7817 76.9504 24.7621C75.5353 24.7837 74.1165 24.7125 72.704 24.8223C72.1594 24.8695 71.4978 25.0072 71.2403 25.5536C70.9978 26.1299 71.0571 26.7688 71.051 27.3774C71.0522 37.8543 71.051 48.3312 71.0522 58.8081C71.068 60.0233 70.9381 61.2514 71.1372 62.4602C71.2126 62.8839 71.3581 63.3981 71.8097 63.5573C72.5171 63.8091 73.2853 63.7788 74.0258 63.7875C77.1385 63.6757 80.2537 63.7489 83.3679 63.7293C90.7307 63.7273 98.0923 63.7293 105.454 63.7273C106.77 63.697 108.09 63.8822 109.4 63.693C109.776 63.6285 110.207 63.5017 110.374 63.121C110.73 62.3488 110.697 61.4668 110.714 60.6368C110.65 57.7631 110.692 54.8875 110.68 52.0116C110.679 44.8127 110.681 37.6115 110.679 30.4123C110.664 29.0335 110.848 27.6507 110.676 26.2762C110.62 25.8053 110.461 25.2609 109.99 25.0524C109.182 24.6846 108.266 24.7428 107.402 24.7468C106.224 24.82 105.039 24.6607 103.867 24.8177C103.364 24.8845 102.774 25.0544 102.572 25.5749C102.214 26.5363 102.363 27.5882 102.361 28.5925C102.364 34.6601 102.362 40.7279 102.363 46.7954C102.376 49.712 102.33 52.6285 102.391 55.543C102.393 55.8915 102.313 56.3648 101.886 56.412C101.06 56.5347 100.222 56.3864 99.3907 56.4379C98.1018 56.3777 96.7936 56.6681 95.5231 56.3754C95.0291 56.2723 94.9879 55.7 94.9903 55.2936C94.994 46.7977 94.9914 38.3016 94.9928 29.8057C94.9612 28.6271 95.0922 27.4462 94.9879 26.2696C94.9491 25.7684 94.7742 25.1898 94.2644 24.9856C93.4346 24.6264 92.5034 24.7555 91.625 24.7511C90.5135 24.8113 89.3982 24.6587 88.2891 24.7941L88.2888 24.7943ZM50.8976 24.7707C50.2885 24.8136 49.5773 24.8116 49.1306 25.2998C48.6986 25.8073 48.6548 26.5087 48.4886 27.1279C45.7302 38.7837 42.9435 50.4349 40.0956 62.0691C40.0106 62.5251 39.9173 63.0801 40.2462 63.4652C40.5907 63.7598 41.0872 63.7146 41.5121 63.7319C42.8018 63.7339 44.0933 63.6973 45.382 63.7791C46.03 63.7791 46.7279 63.8566 47.3299 63.5619C47.893 63.2091 48.0629 62.5167 48.2219 61.9144C48.484 60.6756 48.7631 59.4389 49.0776 58.2127C49.1747 57.8815 49.285 57.5074 49.5909 57.3115C49.9405 57.135 50.3435 57.1243 50.728 57.1093C52.6284 57.1093 54.5291 57.1093 56.4295 57.1093C57.0813 57.1113 57.7596 56.9846 58.3895 57.2124C58.7996 57.3867 58.9284 57.8599 59.0243 58.2536C59.2463 59.256 59.5413 60.239 59.7596 61.241C59.9367 61.9507 60.0643 62.7252 60.5569 63.2972C60.8567 63.6521 61.3458 63.706 61.7801 63.7253C63.2329 63.7402 64.6866 63.7036 66.1394 63.7532C66.7799 63.7445 67.4548 63.7984 68.0593 63.5444C68.3894 63.409 68.4925 63.0216 68.4804 62.697C68.4404 62.0216 68.1892 61.3871 68.0276 60.7376C67.5642 58.9008 67.1284 57.0552 66.6745 55.2141C65.9173 52.2567 65.1405 49.3059 64.4112 46.3398C63.0376 40.7711 61.6248 35.2134 60.2245 29.651C59.8955 28.369 59.7014 27.0421 59.181 25.8183C58.9992 25.3923 58.7198 24.9343 58.2282 24.8419C57.4422 24.6699 56.6288 24.6956 55.8301 24.7321C54.1872 24.7966 52.5414 24.7408 50.8982 24.7707H50.8976ZM14.9959 24.803C14.5371 24.8439 14.0431 24.8589 13.6474 25.1236C13.3524 25.3042 13.2603 25.6613 13.1972 25.9776C12.9728 27.3218 13.1243 28.6876 13.1387 30.0427C13.1376 39.5496 13.1387 49.0587 13.1376 58.5679C13.1232 59.824 12.9809 61.0867 13.1557 62.3361C13.2116 62.6866 13.2977 63.0674 13.5696 63.3168C13.9846 63.6501 14.5405 63.7169 15.0564 63.7448C16.1013 63.7837 17.1486 63.6869 18.1947 63.7405C18.9825 63.7685 19.8039 63.8782 20.5675 63.6135C21.0346 63.4565 21.2518 62.964 21.3244 62.5124C21.5223 61.2842 21.3777 60.0388 21.3901 58.8043C21.3924 56.0145 21.3889 53.227 21.3912 50.4372C21.3924 49.2629 21.2017 48.0627 21.4906 46.9078C21.5709 46.4754 22.0514 46.3334 22.4324 46.3248C23.7735 46.273 25.118 46.3527 26.459 46.2776C27.1448 46.2496 27.8401 46.2151 28.5184 46.3507C28.7321 46.4003 28.9916 46.4798 29.0573 46.7205C29.1774 47.097 29.1676 47.4991 29.1811 47.8908C29.1374 49.506 29.1653 51.1236 29.1567 52.7411C29.1748 54.8426 29.0985 56.944 29.1264 59.0454C29.1506 60.2908 28.9455 61.5662 29.2658 62.788C29.4274 63.4205 30.1155 63.659 30.6967 63.7235C31.7477 63.8053 32.8033 63.7106 33.8566 63.7255C34.7815 63.7126 35.7377 63.8503 36.6358 63.5599C37.109 63.4136 37.2876 62.8975 37.3726 62.4608C37.6142 61.1359 37.4359 59.7874 37.4417 58.4538C37.4428 47.8931 37.4417 37.3344 37.4428 26.7734C37.4296 26.3713 37.4175 25.9539 37.2767 25.5752C37.0583 25.0677 36.4903 24.8655 35.9831 24.7987C34.795 24.6523 33.5986 24.8223 32.4067 24.7448C31.5401 24.7514 30.6132 24.6417 29.8084 25.0351C29.205 25.3707 29.1785 26.1492 29.1325 26.7578C29.1155 29.5926 29.1313 32.4296 29.1238 35.2667C29.1192 36.1915 29.2756 37.1466 29.0123 38.0498C28.8292 38.6069 28.1301 38.4971 27.6713 38.536C26.1736 38.4522 24.6773 38.5619 23.1821 38.6005C22.6836 38.5746 22.119 38.6285 21.6919 38.3275C21.3682 37.9124 21.4045 37.3445 21.3826 36.8476C21.4128 33.6494 21.3535 30.4509 21.4238 27.2547C21.3886 26.661 21.4128 26.0372 21.1798 25.4801C20.9433 24.951 20.2878 24.8972 19.7901 24.807C18.1979 24.6198 16.5901 24.7146 14.9953 24.8027L14.9959 24.803Z" fill="#FEFEFE"/>
</svg>
