<svg width="200" height="200" viewBox="0 0 200 200" fill="none" xmlns="http://www.w3.org/2000/svg">
<path fill-rule="evenodd" clip-rule="evenodd" d="M62.9709 79.3356C62.9709 81.7331 66.6806 85.6453 68.2725 86.832L72.0497 89.4562C73.3714 90.2763 74.7318 91.0192 76.1693 91.7332C82.9518 95.1003 100.786 98.8389 108.977 93.354C108.586 92.7703 108.162 92.3217 107.622 91.6608C106.845 90.7056 106.647 90.9903 106.541 89.6974C109.807 88.9353 110.212 92.5629 112.701 91.0096L118.422 86.9574C117.506 86.7114 115.301 84.7915 114.095 83.9714C112.991 83.2189 110.863 81.8633 110.193 80.8648C112.392 79.7022 112.923 79.9675 115.171 81.0625L122.296 84.3332C123.594 84.9024 123.464 84.7239 124.515 84.2464C125.412 83.8411 128.476 82.3891 129.387 82.3891C131.356 82.3891 130.941 83.8315 130.396 84.584C129.797 85.3993 129.194 85.655 128.307 86.1856C124.631 88.366 125.171 87.2999 124.568 90.0641C124.095 92.2493 123.685 94.1307 123.217 96.3304C122.523 99.5962 123.029 99.5046 120.246 100.976V90.3101C117.868 91.5691 114.737 92.3844 112.325 93.6627C112.325 96.5523 112.581 98.3661 110.497 98.5398C110.458 96.8707 109.889 96.3931 109.889 94.5793C108.143 94.9845 106.203 95.8239 104.496 96.4992C94.6258 100.392 84.8476 102.056 74.4375 98.9595C73.5065 98.6797 73.0193 98.4626 72.151 98.1973C71.4129 97.9705 70.6411 97.8403 69.7969 97.5074C68.451 96.9768 66.7915 95.7805 65.7158 95.4959C68.8996 101.511 71.0656 106.292 77.8384 110.793C82.0304 113.581 82.455 113.784 86.8255 115.515C97.115 119.587 110 118.154 119.402 112.312C125.408 108.578 131.259 101.994 133.927 95.4524C135.499 91.5981 137.226 84.7963 137.004 80.5898L135.914 72.5193C133.932 63.8699 128.601 55.756 121.534 50.9465C113.825 45.7029 108.668 44 98.3162 44C91.6157 44 83.5886 47.0198 78.5089 50.7005C69.546 57.1887 62.9709 68.0185 62.9709 79.3404V79.3356Z" fill="#EC702E"/>
<path fill-rule="evenodd" clip-rule="evenodd" d="M34.6736 136.282C34.8424 135.376 34.9485 134.758 35.1222 133.88C35.2717 133.132 35.5081 132.332 35.5081 131.565H19.5987C19.5987 132.438 17.1963 144.421 16.9358 145.713L16 150.33H20.6551L23.5061 135.467H30.2596L28.798 142.862C28.5471 144.155 28.2866 145.424 28.0454 146.611L27.4087 150.325H31.9143L34.6784 136.278L34.6736 136.282Z" fill="#0F5997"/>
<path fill-rule="evenodd" clip-rule="evenodd" d="M43.1639 146.876C39.1504 146.876 41.0462 140.272 44.3651 140.272C47.8239 140.272 46.6854 146.876 43.1639 146.876ZM41.8132 138.169C41.8277 137.488 41.9628 137.57 41.9628 136.818H37.9106L37.023 141.483C36.7046 143.065 36.4297 144.613 36.1209 146.138L34.3071 155.583H38.8127L40.0139 149.278C41.9097 150.547 41.7457 150.629 44.066 150.629C44.9777 150.629 46.2513 150.19 46.8591 149.819C49.0106 148.511 50.9691 146.017 50.9691 143.123C50.9691 140.899 50.8678 138.294 48.3256 137.064C46.7964 136.326 44.8813 136.297 43.3907 137.045C43.1591 137.16 42.7153 137.416 42.5416 137.546C42.2233 137.788 42.1605 137.937 41.8132 138.169V138.169Z" fill="#0F5997"/>
<path fill-rule="evenodd" clip-rule="evenodd" d="M173.913 144.324C173.913 142.153 176.011 139.524 178.312 140.523C179.137 140.88 179.465 142.11 179.465 142.824C179.465 146.919 173.913 148.83 173.913 144.324V144.324ZM174.665 138.318C174.786 137.807 174.95 137.421 174.964 136.818H170.912L168.191 150.909C168.061 151.69 167.892 152.448 167.723 153.292C167.608 153.861 167.323 154.927 167.309 155.583H171.814L172.403 152.419C172.605 151.386 172.784 150.282 173.015 149.278C173.329 149.491 173.358 149.592 173.681 149.814C176.262 151.584 179.643 150.455 181.916 148.116C184.173 145.791 184.887 140.528 182.591 138.053C180.985 136.321 178.008 136.07 176.17 137.122C175.471 137.522 175.239 137.937 174.67 138.323L174.665 138.318Z" fill="#0F5997"/>
<path fill-rule="evenodd" clip-rule="evenodd" d="M66.2802 150.33H70.6314C70.9305 149.712 72.5851 142.843 72.5851 141.922C73.0289 142.25 72.7636 141.724 73.0338 143.422C73.1254 143.982 73.2171 144.57 73.3184 145.086L73.931 148.526C78.8081 148.526 77.0763 149.307 79.4545 145.347L81.1863 142.274C81.2007 142.245 81.2249 142.206 81.2442 142.182C81.4275 141.898 81.302 142.076 81.4371 141.922L80.4723 148.159C80.3566 148.955 80.2359 149.476 80.2359 150.325H84.4376C84.4762 148.55 85.3252 142.631 85.4844 140.262C85.5616 139.095 85.7883 137.981 85.7883 136.813C79.4882 136.813 80.9354 136.09 79.1313 139.466C78.9142 139.876 78.7791 140.026 78.5813 140.417C78.2292 141.102 77.8626 141.7 77.5297 142.37L76.671 144.064C76.4926 144.343 76.6131 144.17 76.4781 144.324C76.4781 143.248 76.1452 141.738 75.986 140.614C75.8317 139.553 75.4313 138 75.4313 136.818H70.178L68.2436 143.591C67.9059 144.749 67.6165 145.786 67.274 146.972C67.0955 147.6 66.9604 147.985 66.7867 148.588C66.6324 149.129 66.4635 149.934 66.2754 150.325L66.2802 150.33Z" fill="#0F5997"/>
<path fill-rule="evenodd" clip-rule="evenodd" d="M117.318 150.33H121.669C121.997 148.931 122.369 147.522 122.721 146.128C122.904 145.405 123.087 144.749 123.256 143.962L123.724 141.878C123.734 141.854 123.748 141.806 123.767 141.772C123.849 142.785 124.187 144.117 124.346 145.096C124.452 145.723 124.554 146.196 124.645 146.746C124.752 147.382 124.92 147.956 124.964 148.526H128.717L132.47 141.922L131.119 150.33H135.47L136.821 136.818H131.867C131.413 136.818 131.409 137.122 131.211 137.513L127.516 144.324C127.492 143.287 127.173 141.753 127.004 140.634C126.811 139.365 126.469 138.13 126.469 136.818H121.216C120.376 140.426 118.128 146.837 117.313 150.33H117.318Z" fill="#0F5997"/>
<path fill-rule="evenodd" clip-rule="evenodd" d="M92.402 143.726C92.4599 143.041 93.7286 137.947 93.7527 136.823H89.551L86.9991 150.335H91.2008C91.6591 150.335 91.8569 149.852 92.0788 149.563L97.3514 143.427C97.0909 144.536 96.8111 145.752 96.623 146.9C96.4541 147.923 96.0248 149.404 96.0007 150.335H100.202L102.474 138.497C102.561 137.981 102.74 137.402 102.754 136.828C97.9688 136.828 98.6153 136.244 96.8979 138.477L93.1015 142.94C92.8554 143.277 92.7155 143.518 92.3923 143.731L92.402 143.726Z" fill="#0F5997"/>
<path fill-rule="evenodd" clip-rule="evenodd" d="M104.11 136.818C104.24 137.107 104.496 138.521 104.621 139.008L107.207 149.785C107.274 150.46 105.788 153.123 103.058 151.676C102.764 152.235 102.455 152.674 102.093 153.263C101.756 153.813 101.437 154.334 101.104 154.826C101.973 155.284 103.097 155.877 104.409 155.877C108.62 155.877 110.048 152.592 111.495 150.204L114.52 144.821C115.243 143.499 118.808 137.508 118.972 136.813H113.869C113.695 137.551 113.27 138.386 112.967 139.061L110.116 145.366C110.116 144.811 109.937 143.523 109.86 143.07C109.734 142.308 109.633 141.724 109.513 141.015C109.305 139.761 108.914 138.154 108.914 136.813H104.11V136.818Z" fill="#0F5997"/>
<path fill-rule="evenodd" clip-rule="evenodd" d="M154.245 136.818C154.433 137.238 154.602 138.41 154.757 139.008L157.087 148.685C157.304 149.712 157.579 149.92 157.043 150.716C156.093 152.12 154.79 152.52 153.194 151.676L151.24 154.826C152.108 155.284 153.232 155.877 154.544 155.877C158.751 155.877 160.159 152.645 161.626 150.204C162.166 149.302 162.624 148.453 163.145 147.518L168.452 138.116C168.732 137.566 168.973 137.382 169.103 136.813H163.999C163.965 137.218 160.68 144.744 160.246 145.371C160.246 144.816 160.068 143.528 159.991 143.075C159.865 142.312 159.764 141.729 159.643 141.02C159.527 140.325 159.445 139.664 159.325 138.941C159.214 138.28 159.045 137.619 159.045 136.818H154.24H154.245Z" fill="#0F5997"/>
<path fill-rule="evenodd" clip-rule="evenodd" d="M57.7274 141.922C57.8191 140.803 58.9189 139.818 60.1298 139.818H60.2793C61.0222 139.818 61.63 140.426 61.63 141.169V141.922H57.7274ZM65.2335 144.474C66.1452 144.474 66.7868 140.084 64.6788 137.976C63.3184 136.615 61.6252 136.519 59.8307 136.519C55.7158 136.519 52.4741 140.306 52.4741 144.623C52.4741 150.19 58.3208 151.632 62.6816 150.031C66.0825 148.781 64.4954 148.82 63.7284 145.525C62.6816 146.08 61.3888 146.876 59.8258 146.876C58.1423 146.876 57.0086 146.147 56.9749 144.474H65.2287H65.2335Z" fill="#0F5997"/>
<path fill-rule="evenodd" clip-rule="evenodd" d="M156.349 131.565H140.738C140.126 131.565 140.251 132.356 140.053 133.432C139.923 134.126 139.706 134.806 139.691 135.472H145.393C145.152 135.974 144.766 138.386 144.607 139.187C144.327 140.581 142.658 149.785 142.393 150.335H147.048C147.183 148.685 149.875 136.688 149.899 135.472H155.601L156.353 131.569L156.349 131.565Z" fill="#0F5997"/>
</svg>
