<svg width="200" height="200" viewBox="0 0 200 200" fill="none" xmlns="http://www.w3.org/2000/svg">
<path fill-rule="evenodd" clip-rule="evenodd" d="M27.0373 112.209C27.1693 111.989 27.1429 111.91 27.2133 111.628C27.7324 109.42 30.9706 103.489 32.1056 101.36C32.7128 100.216 33.3727 99.0632 33.9447 97.9017C34.5254 96.7138 35.2118 95.5963 35.7837 94.4436C37.0068 91.9798 40.2185 86.19 41.5208 84.2981C42.2159 83.2862 42.9903 82.2039 44.8117 82.2743C46.3252 82.3359 47.1875 83.6118 47.7242 84.6765C48.7625 86.7443 49.4137 90.6072 49.836 93.1589C50.8567 99.2568 51.7279 105.39 52.5198 111.576C53.6989 111.787 54.7636 111.76 55.9427 112.068C57.4913 112.473 59.2248 113.52 58.1601 115.087C57.4561 116.125 54.6756 116.01 53.2941 116.046C53.0917 116.406 52.9334 116.802 52.7222 117.198C50.5312 121.14 46.5627 119.099 46.1844 116.213C43.4214 116.195 40.5881 116.283 37.8427 116.433C33.1967 116.688 30.3722 117.19 25.6558 116.978C24.1952 116.908 23.3416 116.521 22.6993 115.65C22.013 114.717 22.057 113.511 23.28 112.711C24.3184 112.033 25.7086 112.209 27.0285 112.218L27.0373 112.209ZM15 119.935L58.0985 126.015C58.6088 126.086 58.9872 126.174 59.5328 126.174C59.5328 125.637 59.612 125.276 59.6823 124.801L65.7714 81.7112L60.2191 80.9544C49.1673 79.3266 37.9923 77.8483 26.9141 76.2469L21.309 75.4725C21.0714 76.502 19.8748 85.5476 19.7252 86.5859L15.2112 118.553C15.1496 118.985 15.0968 119.53 15 119.935V119.935Z" fill="#1D1B1B"/>
<path fill-rule="evenodd" clip-rule="evenodd" d="M151.722 125.672C151.889 125.558 151.916 125.505 152.065 125.364L154.679 123.041C154.802 122.927 154.872 122.83 155.004 122.715C155.172 122.566 155.242 122.548 155.409 122.39L158.383 119.706C158.524 119.574 158.603 119.469 158.744 119.345L160.627 117.674C160.75 117.55 160.821 117.462 160.953 117.348L165.088 113.643C165.352 113.371 165.563 113.248 165.81 112.992L167.297 111.646C167.939 110.986 169.602 109.631 170.271 108.962C170.438 108.786 170.482 108.769 170.667 108.628L173.641 105.944C173.791 105.83 173.87 105.724 174.011 105.583L174.732 104.932C174.899 104.765 174.961 104.748 175.128 104.607C175.401 104.378 175.26 104.396 175.586 104.264C175.392 104.765 175.524 124.906 175.524 124.924C175.621 125.197 176.686 125.082 177.249 125.082C178.366 125.082 184.218 125.232 184.79 125.012V91.3551C184.79 90.9943 184.904 90.4136 184.57 90.4136H177.099C176.747 90.4136 175.841 91.3463 175.524 91.6631C175.322 91.8655 175.207 91.9183 175.014 92.0942L167.992 98.4913C167.79 98.6497 167.684 98.7728 167.508 98.9488C167.306 99.1512 167.165 99.2128 166.962 99.4152C165.977 100.392 164.551 101.58 163.487 102.609L160.926 104.915V89.7537C160.759 89.8681 160.733 89.9208 160.583 90.0616C160.416 90.2288 160.354 90.2376 160.187 90.3872C160.055 90.5016 159.985 90.5896 159.862 90.7128L155.4 94.734C155.233 94.9012 155.18 94.9188 155.004 95.0596L154.283 95.7107C153.728 96.1683 152.488 97.4178 152.039 97.7521C151.608 98.0689 151.713 98.1305 151.722 98.808V125.646V125.672Z" fill="#E21D23"/>
<path fill-rule="evenodd" clip-rule="evenodd" d="M98.4866 98.9048V124.871C98.4866 125.038 98.5394 125.091 98.7066 125.091H122.28V116.899C122.28 116.732 122.227 116.679 122.06 116.679H107.77V111.963H122.28V103.771C122.28 103.604 122.227 103.551 122.06 103.551H107.77V98.8344H122.13C122.262 98.8344 124.726 96.617 125.087 96.2826C125.315 96.0714 125.386 95.9659 125.65 95.7635L127.401 94.1796C127.621 93.9596 127.709 93.8628 127.964 93.6605L129.715 92.0766C129.944 91.839 130.041 91.7774 130.287 91.5663C130.507 91.3815 131.334 90.6687 131.396 90.4312H108.183C107.559 90.4312 107.629 90.5455 107.303 90.8535L99.1113 98.2536C98.9353 98.4296 98.4778 98.6848 98.4778 98.9224L98.4866 98.9048Z" fill="#E31E24"/>
<path fill-rule="evenodd" clip-rule="evenodd" d="M124.303 98.6849V125.083H133.516V98.8257H137.942C140.177 98.8257 142.368 101.008 142.368 103.181C142.368 104.836 142.201 105.953 140.899 107.15C139.341 108.593 137.643 108.399 135.619 108.399V116.741C138.435 116.741 140.564 116.811 143.116 115.535C144.392 114.893 145.492 114.242 146.521 113.283C146.821 113.001 147.014 112.913 147.393 112.482C147.973 111.822 148.668 110.969 149.091 110.194C150.173 108.206 150.78 106.067 150.78 103.692C150.78 99.6968 149.416 96.6787 146.741 94.1006C144.031 91.496 140.679 90.4225 136.71 90.4225H133.666C133.472 90.4225 133.155 90.7481 133.032 90.8712L129.002 94.5317C128.386 95.0421 124.585 98.6145 124.312 98.6849H124.303Z" fill="#E21D23"/>
<path fill-rule="evenodd" clip-rule="evenodd" d="M33.839 111.893C34.9477 107.572 38.5202 100.665 40.4384 96.4148C40.8168 95.57 41.2215 94.7253 41.6351 93.907C41.9255 93.335 42.5678 91.9008 43.2365 91.8568C43.4917 92.4815 43.8173 95.7548 43.9493 96.7139C44.5564 101.325 45.3308 107.053 45.7267 111.523L33.839 111.875V111.893ZM27.046 112.209C25.7173 112.201 24.3359 112.033 23.2976 112.702C22.0745 113.494 22.0305 114.708 22.7168 115.641C23.3503 116.503 24.2127 116.899 25.6733 116.97C30.3897 117.19 33.2143 116.679 37.8602 116.424C40.6056 116.275 43.4477 116.187 46.2019 116.204C46.5802 119.09 50.5487 121.141 52.7397 117.19C52.9597 116.794 53.1181 116.398 53.3116 116.037C54.6931 116.002 57.4737 116.116 58.1776 115.078C59.2335 113.512 57.5089 112.465 55.9602 112.06C54.7811 111.752 53.7076 111.778 52.5373 111.567C51.7454 105.381 50.8743 99.2481 49.8535 93.1503C49.4312 90.5985 48.78 86.7356 47.7417 84.6678C47.205 83.6031 46.3515 82.3272 44.8292 82.2656C43.0078 82.1953 42.2334 83.2776 41.5383 84.2895C40.2272 86.1901 37.0243 91.9712 35.8012 94.4349C35.2293 95.5876 34.5429 96.6963 33.9622 97.893C33.3902 99.0545 32.7303 100.207 32.1232 101.351C30.9881 103.489 27.7499 109.411 27.2308 111.62C27.1692 111.901 27.1868 111.981 27.0548 112.201L27.046 112.209Z" fill="#FCFCFC"/>
<path fill-rule="evenodd" clip-rule="evenodd" d="M88.0421 101.078C88.2621 101.078 96.9997 101.184 97.2549 101.008C97.2549 96.6259 95.2311 93.4142 92.5033 91.7688C91.0163 90.8713 89.2564 90.4137 86.8894 90.4225H76.4448C75.4769 90.4137 75.7057 90.4401 75.1953 90.9152L74.2714 91.7336C74.0778 91.8832 73.9986 91.9712 73.8226 92.1559C73.6378 92.3407 73.5323 92.3847 73.3475 92.5519C73.1803 92.7015 73.0835 92.8423 72.9163 92.9919L71.5436 94.2237C71.3589 94.4085 71.2621 94.4349 71.0685 94.6197C69.775 95.8692 68.2703 97.1099 66.9769 98.3594C66.4137 98.9049 66.4401 98.465 66.4489 99.5737V124.889C66.5105 125.206 66.7041 125.118 67.1 125.109C69.4054 125.065 71.7548 125.109 74.069 125.109C74.421 125.109 75.5473 125.259 75.7057 125.003C75.7937 124.854 75.7409 99.2833 75.7409 98.8521C76.8672 98.8521 85.8951 98.7641 86.5551 98.9137C87.5582 99.1337 88.0509 99.9168 88.0685 101.096L88.0421 101.078Z" fill="#E31E24"/>
<path fill-rule="evenodd" clip-rule="evenodd" d="M88.0421 101.078C88.0421 103.797 86.335 103.542 84.6368 103.542C82.6305 103.542 80.6243 103.551 78.6181 103.542C77.5006 103.542 77.6766 103.128 77.6766 105.575L77.6678 111.532C77.6678 112.077 77.6502 111.963 78.7677 111.954C80.3252 111.954 85.2175 111.884 86.2382 111.954C88.2356 112.104 88.3764 114.603 87.6901 115.791C87.2853 116.494 86.7046 116.662 85.5871 116.662H79.5684C79.0845 116.662 78.5125 116.635 78.0374 116.653C77.5534 116.67 77.6854 116.776 77.6854 117.823V124.502C77.6766 125.214 77.527 125.074 79.3572 125.074C81.8562 125.074 86.1678 125.17 88.2796 125.003C89.9515 124.88 91.5001 124.475 92.8112 123.516C93.9727 122.671 94.9318 121.668 95.671 120.428C96.4189 119.178 96.9908 117.735 97.1932 115.922C97.4924 113.23 96.9644 110.731 95.2574 109.015C94.8966 108.654 93.9463 107.924 93.348 107.871C93.5064 107.66 94.3775 107.229 94.8878 106.727C96.6741 105.003 97.2636 103.577 97.2636 100.981C97.0084 101.157 88.2708 101.052 88.0509 101.052L88.0421 101.078Z" fill="#E21D23"/>
<path fill-rule="evenodd" clip-rule="evenodd" d="M124.093 84.3246H113.428V83.3127H124.234C124.436 83.3127 124.656 83.6119 124.744 83.7439C124.647 83.8934 124.295 84.3246 124.093 84.3246ZM113.428 76.7837C113.428 76.6077 113.903 76.1325 114.079 76.1325H122.711C123.081 76.1325 123.283 76.4493 123.494 76.6605C123.644 76.8101 124.093 77.1533 124.093 77.3644V80.409H113.428V76.7837V76.7837ZM110.524 80.409C109.917 80.7345 109.433 80.9369 109.433 81.9312C109.433 82.5736 109.935 83.1895 110.524 83.2335C110.524 84.3158 110.269 86.2516 111.017 86.8764C111.281 87.0964 111.58 87.2283 112.047 87.2283H124.885C125.659 87.2283 126.152 86.5068 126.574 86.0844C127.78 84.879 127.648 85.1517 127.648 83.0927C127.648 82.512 127.269 82.0192 126.926 81.7904C127.19 80.6465 127.067 78.2268 127.067 76.9333C127.067 76.6429 127.005 76.3965 126.935 76.1941C126.759 75.675 125.184 74.1967 124.691 73.7216C124.357 73.396 123.926 73.2376 123.292 73.2376H113.499C112.601 73.2376 112.311 73.6688 111.844 74.1263C111.492 74.4783 110.832 75.0062 110.656 75.4726C110.357 76.2645 110.524 79.2299 110.524 80.4178V80.409Z" fill="#1C1A1A"/>
<path fill-rule="evenodd" clip-rule="evenodd" d="M153.755 74.751V85.9964C153.755 86.5243 154.459 87.2282 154.987 87.2282H168.546C168.951 87.2282 169.224 87.0435 169.461 86.8323C169.672 86.6387 169.857 86.3043 169.857 85.9172V74.6718C169.857 72.9207 167.024 72.9207 167.024 74.7422V84.3157H163.249V74.5926C163.249 73.0703 160.345 72.8328 160.345 74.663V84.3069H156.65V74.7334C156.65 72.8504 153.746 72.9295 153.746 74.7334L153.755 74.751Z" fill="#1C1A1A"/>
<path fill-rule="evenodd" clip-rule="evenodd" d="M140.468 76.4757L144.419 80.3914L136.57 80.409L140.468 76.4757V76.4757ZM129.53 81.7904C129.53 82.3448 129.627 82.4856 129.891 82.8815C129.671 83.2159 128.967 83.8406 128.642 84.1662C128.096 84.7118 127.647 84.923 127.647 85.8557C127.647 86.63 128.316 87.2371 129.17 87.2371C129.953 87.2371 130.85 86.102 131.546 85.4069C131.915 85.0373 132.232 84.7206 132.601 84.351C132.795 84.1574 133.499 83.3215 133.745 83.3215H147.234C147.472 83.3215 148.15 84.1222 148.343 84.3158L150.446 86.4188C150.789 86.762 151.168 87.2371 151.81 87.2371C152.919 87.2371 153.332 86.5244 153.332 85.5653C153.332 84.9581 152.338 84.175 151.968 83.8055L142.615 74.4519C141.805 73.6424 141.709 73.2376 140.345 73.2376C139.262 73.2376 138.558 74.2583 137.573 75.2526L132.716 80.1098C132.073 80.7873 131.792 80.2066 130.657 80.4442C130.058 80.5673 129.539 81.1129 129.539 81.7992L129.53 81.7904Z" fill="#1C1A1A"/>
<path fill-rule="evenodd" clip-rule="evenodd" d="M33.8389 111.893L45.7266 111.541C45.3306 107.062 44.5563 101.342 43.9492 96.7315C43.826 95.7724 43.5004 92.4903 43.2364 91.8743C42.5589 91.9183 41.9253 93.3526 41.635 93.9245C41.2214 94.7341 40.8166 95.5876 40.4383 96.4323C38.5288 100.682 34.9476 107.59 33.8389 111.91V111.893Z" fill="#1D1B1B"/>
<path fill-rule="evenodd" clip-rule="evenodd" d="M170.948 74.3111V85.9172C170.948 86.9731 172.277 87.6155 173.227 86.9643C173.623 86.6916 173.491 86.6652 173.729 86.3044C173.791 86.2076 181.666 78.2619 182.044 78.0067C182.044 79.2738 181.974 84.9317 182.044 85.9084C182.167 87.4835 184.314 87.6155 184.851 86.3924C185.071 85.8996 184.948 80.8137 184.948 80.0306C184.948 78.6051 184.948 77.1796 184.948 75.7542C184.948 75.0326 185.115 74.2935 184.851 73.8271C184.605 73.396 184.13 73 183.505 73C182.651 73 181.578 74.3111 180.874 75.015C179.853 76.0357 174.327 81.7552 173.861 82.072C173.861 81.1305 173.931 74.9006 173.826 74.2759C173.491 72.4105 170.966 72.7888 170.966 74.3111H170.948Z" fill="#1C1A1A"/>
</svg>
