<svg width="200" height="200" viewBox="0 0 200 200" fill="none" xmlns="http://www.w3.org/2000/svg">
<path fill-rule="evenodd" clip-rule="evenodd" d="M63.9416 148.299L77.2554 141.107C79.17 140.09 78.7605 140.725 80.2463 135.876L83.5075 126.523C84.2357 124.361 84.7521 122.205 85.457 120.246C86.8708 116.319 88.6397 111.635 89.7682 107.834C92.7946 108.438 96.6899 111.29 99.7593 112.627C101.388 113.336 107.329 108.734 109.888 108.575C110.085 108.904 110.79 110.982 110.954 111.564L116.253 126.836C117.237 129.917 118.103 133.672 119.286 136.438C119.735 137.486 119.879 138.752 120.267 139.601C120.576 140.275 124.571 142.273 125.576 142.751L136.482 148.564C135.649 150.786 127.265 154.366 125.282 155.463C121.76 157.412 122.05 156.895 118.488 158.003C112.251 159.942 106.931 160.811 100.026 160.882L94.39 160.567C86.8295 159.618 87.4067 159.635 79.4221 157.124C76.5517 156.221 65.7543 150.993 63.9416 148.3V148.299ZM122.335 101.967C124.882 99.9202 128.724 98.5009 131.82 97.0027C132.862 97.988 133.965 102.684 134.459 104.183L138.842 116.27C139.475 118.408 139.162 119.462 141.111 120.603L154.256 127.486C153.78 129.75 151.935 131.851 150.953 133.419L148.167 137.497C147.771 138.001 147.658 138.357 147.146 138.94L145.077 141.542C144.564 142.152 143.346 143.075 142.648 143.766C142.205 144.205 141.926 144.496 141.507 144.821C140.29 145.761 138.644 147.579 137.574 147.943C136.684 145.707 136.968 147.381 136.488 145.303L133.611 136.618C133.271 135.54 133.178 134.546 132.829 133.607L127.948 119.227C127.408 116.755 122.576 104.361 122.335 101.967V101.967ZM62.7008 147.359C59.8694 146.31 55.2214 141.315 53.2622 138.882L49.3974 133.69C45.0421 126.556 44.9097 128.227 50.1214 125.481L58.7003 120.877C59.7843 120.158 60.4892 117.401 60.987 116.276C62.4875 112.885 67.5004 97.6893 68.0289 96.7486C69.3 96.6521 77.7936 101.283 78.3362 101.911L76.8266 107.167C76.8043 107.236 76.7818 107.308 76.7586 107.377L62.7008 147.359V147.359ZM105.805 96.1708C104.675 96.7288 104.01 97.3447 102.596 97.9234C101.083 98.5427 100.801 99.0806 98.9655 98.0471C93.8852 95.1858 93.9973 95.8749 94.7421 93.6003C95.2043 92.1887 95.5175 91.0317 95.9436 89.8317L99.6393 79.0011C100.693 79.5425 99.9344 78.8014 100.448 80.121L101.525 83.1109C102.135 84.6754 102.391 85.8814 102.946 87.4623C103.781 89.8393 104.822 94.0301 105.804 96.1706L105.805 96.1708ZM123.379 86.6039C122.295 87.388 121.767 87.3764 120.646 87.99C119.775 88.4663 118.849 88.9345 117.782 89.2992L115.652 83.272C114.913 81.3762 114.373 79.0607 113.63 77.0189L105.315 52.4C104.473 49.4083 101.34 41.2597 101.77 39.7375C106.095 38.916 117.091 42.0106 121.358 43.5192C124.928 44.7816 127.461 46.2798 130.743 48.0734C132.933 49.27 133.736 50.1524 135.077 50.9092C136.253 51.5726 138.335 53.633 139.621 54.5799C141.785 56.1724 143.855 58.827 145.827 60.9889C146.561 61.7935 147.16 62.6979 147.905 63.5678C148.266 63.9894 148.65 64.418 148.999 64.9525C156.052 75.7499 157.449 78.8588 159.935 91.5882C160.085 92.3614 159.975 92.8637 160.078 93.649C160.701 98.3794 160.822 103.912 160.147 108.638L158.033 117.979C157.629 119.52 156.247 123.998 155.359 124.693L152.472 115.802C152.07 114.832 151.647 114.444 151.211 113.226C150.498 111.233 149.927 109.254 149.241 107.226L145.216 95.6438C144.879 94.5618 144.777 93.6065 144.387 92.5831C143.999 91.5627 143.714 90.8862 143.384 89.8388L140.499 81.1716C139.708 79.0729 140.118 78.1341 138.773 78.2232C138.123 78.266 123.824 86.2815 123.378 86.6042L123.379 86.6039ZM44.4158 124.09C43.2747 122.884 42.2159 119.086 41.5877 117.388C39.7159 112.326 39.8851 108.785 39.317 104.994C39.1703 104.015 38.9667 104.391 38.8749 103.024C38.6757 100.058 39.0077 99.0952 38.9357 96.9841C38.79 92.7165 41.3598 81.6494 43.2576 77.4227C44.541 74.5649 47.9336 67.5925 49.9355 65.1771L53.0955 60.9342C53.4632 60.4311 53.6938 60.2555 54.1537 59.7943C55.9234 58.0197 56.9947 56.6581 58.9527 55.0015C59.4587 54.5735 59.7036 54.1659 60.2091 53.7725C60.8708 53.2574 60.995 53.3865 61.7016 52.813C64.3412 50.6695 66.7534 48.7791 69.9982 47.1292C75.7144 44.2229 77.3907 43.7511 83.6693 41.6276L93.9553 39.8342C94.8713 39.6739 94.6253 39.4708 95.935 39.5089L100.075 39.5188C99.9161 41.1431 92.5649 61.9917 91.4419 64.4917L82.6858 89.1621C81.0084 88.903 68.1601 82.0358 66.0747 80.7777C65.3008 80.3108 64.24 79.8216 63.324 79.3977C62.3835 78.9625 61.5626 78.313 60.5818 78.3427L50.5739 107.228C49.7143 109.563 45.2992 123.319 44.4161 124.089L44.4158 124.09ZM143.874 42.9041C142.509 42.341 140.993 40.9452 139.599 40.0537C134.539 36.8156 132.54 35.615 126.503 33.1152C122.185 31.3273 115.834 29.5532 110.813 28.7785C108.888 28.4816 106.594 28.466 104.696 28.1485C102.872 27.8167 92.5766 28.0949 90.5783 28.4534C80.6432 30.2351 80.7249 30.0815 71.1258 33.696C69.9906 34.1233 69.4628 34.5135 68.3429 35.0437C61.3913 38.3358 59.2714 39.9792 53.0457 44.6975L48.7783 48.6502C44.6061 52.7296 40.6376 57.1861 37.7901 62.3468C37.1448 63.5164 36.9758 63.3669 36.2595 64.948C34.0824 69.7551 33.1095 70.5783 31.2008 76.2937C30.3434 78.8608 30.141 78.8319 29.0187 82.6475L27.3342 92.8335C26.8752 97.7015 26.9858 99.5681 27.1026 104.379L28.7569 115.128C29.4651 117.649 29.5106 119.311 30.6597 121.446L32.8838 127.426C34.746 132.302 37.4984 136.631 40.1385 141.041L51.9328 154.209C53.3573 155.605 59.69 160.101 61.4171 161.161C64.7119 163.182 68.339 165.284 72.3058 167.009C76.4119 168.795 86.5086 171.712 91.6079 172.405C95.574 172.944 103.686 173.296 107.119 172.653L112.408 171.867C119.461 170.774 120.429 170.297 127.119 167.756C131.883 165.947 131.863 165.643 135.512 163.785C136.525 163.27 137.261 162.958 138.143 162.304L141.77 159.898C143.181 158.814 146.8 156.298 147.749 155.188C148.533 154.271 152.045 151.554 154.128 149.228L156.848 145.917C162.562 138.736 164.549 134.086 167.822 125.633C168.355 124.255 168.504 123.997 168.843 122.53C169.049 121.636 169.43 120.263 169.701 119.246C171.409 112.843 172.256 104.636 171.932 97.7534C171.689 92.6071 170.587 87.7149 169.771 83.2121C168.978 78.8366 165.62 70.8079 163.586 66.8042C160.613 60.9554 159.126 58.9913 155.364 54.1714C154.991 53.6933 154.738 53.5303 154.338 52.9968C153.825 52.3117 154.279 52.6905 153.494 51.9334C152.417 50.8942 152.369 51.1691 151.379 49.9356L146.111 44.7908C145.02 44.0148 144.961 44.0539 143.875 42.9039L143.874 42.9041Z" fill="#C2000B"/>
</svg>
