<svg width="32" height="32" viewBox="0 0 32 32" fill="none" xmlns="http://www.w3.org/2000/svg">
<g clip-path="url(#clip0_180_611)">
<path d="M32 26.4V5.6C32 4.11479 31.41 2.6904 30.3598 1.6402C29.3096 0.589998 27.8852 0 26.4 0H5.6C4.11479 0 2.69041 0.589998 1.6402 1.6402C0.589998 2.6904 0 4.11479 0 5.6L0 26.4C0 27.8852 0.589998 29.3096 1.6402 30.3598C2.69041 31.41 4.11479 32 5.6 32H26.4C27.8852 32 29.3096 31.41 30.3598 30.3598C31.41 29.3096 32 27.8852 32 26.4Z" fill="currentColor"/>
<path d="M28 10V22C28 23.5913 27.3679 25.1174 26.2426 26.2426C25.1174 27.3679 23.5913 28 22 28H10C8.4087 28 6.88258 27.3679 5.75736 26.2426C4.63214 25.1174 4 23.5913 4 22L4 10C4 8.4087 4.63214 6.88258 5.75736 5.75736C6.88258 4.63214 8.4087 4 10 4H22C23.5913 4 25.1174 4.63214 26.2426 5.75736C27.3679 6.88258 28 8.4087 28 10ZM6.4 22C6.40132 22.9544 6.78103 23.8693 7.45588 24.5441C8.13072 25.219 9.04563 25.5987 10 25.6H22C22.9544 25.5987 23.8693 25.219 24.5441 24.5441C25.219 23.8693 25.5987 22.9544 25.6 22V10C25.5987 9.04563 25.219 8.13072 24.5441 7.45588C23.8693 6.78103 22.9544 6.40132 22 6.4H10C9.04563 6.40132 8.13072 6.78103 7.45588 7.45588C6.78103 8.13072 6.40132 9.04563 6.4 10L6.4 22Z" fill="#1A1A1A"/>
<path d="M22.8 15.9998C22.8 16.8928 22.6241 17.777 22.2824 18.6021C21.9407 19.4271 21.4398 20.1767 20.8084 20.8081C20.1769 21.4396 19.4273 21.9405 18.6023 22.2822C17.7773 22.6239 16.893 22.7998 16 22.7998C15.107 22.7998 14.2228 22.6239 13.3978 22.2822C12.5728 21.9405 11.8231 21.4396 11.1917 20.8081C10.5603 20.1767 10.0594 19.4271 9.71764 18.6021C9.37591 17.777 9.20002 16.8928 9.20002 15.9998C9.20002 14.1963 9.91645 12.4667 11.1917 11.1915C12.4669 9.91623 14.1966 9.19981 16 9.19981C17.8035 9.19981 19.5331 9.91623 20.8084 11.1915C22.0836 12.4667 22.8 14.1963 22.8 15.9998ZM11.6 15.9998C11.6 17.1668 12.0636 18.2859 12.8888 19.1111C13.7139 19.9362 14.8331 20.3998 16 20.3998C17.167 20.3998 18.2861 19.9362 19.1113 19.1111C19.9365 18.2859 20.4 17.1668 20.4 15.9998C20.4 14.8329 19.9365 13.7137 19.1113 12.8885C18.2861 12.0634 17.167 11.5998 16 11.5998C14.8331 11.5998 13.7139 12.0634 12.8888 12.8885C12.0636 13.7137 11.6 14.8329 11.6 15.9998ZM10.8 9.19981C10.8 8.88155 10.6736 8.57632 10.4486 8.35128C10.2235 8.12623 9.91828 7.9998 9.60003 7.9998C9.28177 7.9998 8.97654 8.12623 8.7515 8.35128C8.52645 8.57632 8.40002 8.88155 8.40002 9.19981C8.40002 9.51807 8.52645 9.82329 8.7515 10.0483C8.97654 10.2734 9.28177 10.3998 9.60003 10.3998C9.91828 10.3998 10.2235 10.2734 10.4486 10.0483C10.6736 9.82329 10.8 9.51807 10.8 9.19981Z" fill="#1A1A1A"/>
</g>
<defs>
<clipPath id="clip0_180_611">
<rect width="32" height="32" fill="currentColor" transform="translate(0 32) rotate(-90)"/>
</clipPath>
</defs>
</svg>
