<svg width="200" height="200" viewBox="0 0 200 200" fill="none" xmlns="http://www.w3.org/2000/svg">
<path d="M22.0982 93.3748H30.6515C30.8099 92.7413 30.9419 92.1605 31.0475 91.6325C31.1795 91.0781 31.2455 90.4973 31.2455 89.8902C31.2455 89.0982 31.0475 88.5174 30.6515 88.1478C30.2819 87.7518 29.6351 87.5538 28.7112 87.5538H22.9694C22.1246 87.5538 21.7022 87.2503 21.7022 86.6431L21.7814 85.9303L22.415 83H30.8495C33.331 83 35.1129 83.528 36.1953 84.5839C37.2777 85.6399 37.8189 87.3295 37.8189 89.6526C37.8189 91.4213 37.4889 93.7444 36.8289 96.6219C35.5881 102.007 34.2154 105.637 32.7106 107.512C31.2059 109.386 28.896 110.323 25.7809 110.323H17.9007C16.6336 110.323 16 109.769 16 108.66C16 108.37 16.0264 108.132 16.0792 107.947L17.0296 103.829H17.6631C17.8743 104.33 18.1251 104.687 18.4155 104.898C18.7059 105.083 19.1811 105.175 19.8411 105.175H24.3157C25.7941 105.175 26.8632 104.726 27.5232 103.829C28.2096 102.905 28.9092 100.938 29.6219 97.9287H22.613C21.7682 97.9287 21.3458 97.5987 21.3458 96.9387L21.4646 96.1071L22.0982 93.3748Z" fill="#1469E0"/>
<path d="M51.7817 110.323C50.4617 110.323 49.8018 109.742 49.8018 108.581L49.485 98.0475L44.4164 108.066C44.258 108.356 44.1788 108.634 44.1788 108.898C44.1788 109.425 44.4955 109.689 45.1291 109.689L45.0103 110.323H39.2289C38.4898 110.323 38.1202 109.967 38.1202 109.254C38.1202 108.99 38.239 108.634 38.4766 108.185L47.901 90.9989C48.0594 90.7085 48.1386 90.4445 48.1386 90.207C48.1386 89.7846 47.8878 89.5734 47.3863 89.5734L47.5446 88.9398H53.524C54.6592 88.9398 55.2268 89.415 55.2268 90.3653L56.2563 108.541C56.2563 109.307 56.5995 109.689 57.2859 109.689L57.1275 110.323H51.7817Z" fill="#1469E0"/>
<path d="M68.0385 105.769H72.5923C74.0179 105.769 75.0078 105.69 75.5622 105.532C76.1166 105.373 76.539 105.043 76.8294 104.542H77.463L76.7502 107.71C76.4598 108.95 75.9318 109.755 75.1662 110.125C74.4271 110.495 73.1731 110.679 71.4044 110.679H65.0686C63.1679 110.679 61.7555 110.231 60.8315 109.333C59.802 108.33 59.2872 106.693 59.2872 104.423C59.2872 103.842 59.3532 103.156 59.4852 102.364C59.6172 101.545 59.7888 100.674 60 99.7502C60.9239 95.4472 62.1779 92.5169 63.7618 90.9593C65.3722 89.3754 67.9197 88.5834 71.4044 88.5834H72.6715C74.9418 88.5834 76.6842 89.0058 77.8985 89.8506C79.2449 90.8009 79.9181 92.2925 79.9181 94.3252L79.7993 95.7112C79.4033 97.5327 79.1393 98.6415 79.0073 99.0374C78.5849 100.199 77.661 100.78 76.2354 100.78H66.4941L66.019 102.918C65.9134 103.341 65.8606 103.71 65.8606 104.027C65.8606 104.713 66.0454 105.175 66.4149 105.413C66.8109 105.65 67.3521 105.769 68.0385 105.769ZM67.5237 96.6219H73.7407L73.9387 95.8696C74.0707 95.3416 74.1367 94.906 74.1367 94.5628C74.1367 93.3484 73.2523 92.7413 71.4836 92.7413C70.2164 92.7413 69.2792 93.0977 68.6721 93.8104C68.1705 94.3912 67.7877 95.3284 67.5237 96.6219Z" fill="#1469E0"/>
<path d="M81.4804 107.987L86.8262 84.9403C86.879 84.6763 86.9054 84.4915 86.9054 84.386C86.9054 83.8844 86.615 83.6336 86.0342 83.6336L86.153 83H92.2116C92.6868 83 93.0036 83.1056 93.162 83.3168C93.3204 83.528 93.3996 83.8184 93.3996 84.188C93.3996 84.4256 93.3336 84.8083 93.2016 85.3363L90.8256 95.5132L95.8943 90.5237C96.1055 90.3389 96.2111 90.1674 96.2111 90.009C96.2111 89.7714 95.9999 89.6262 95.5775 89.5734L95.6963 88.9398H101.596C102.124 88.9398 102.388 89.151 102.388 89.5734C102.388 89.8638 102.283 90.0882 102.072 90.2466L95.7359 95.9884H96.8446C98.323 95.9884 99.4317 96.3051 100.171 96.9387C100.936 97.5723 101.319 98.3643 101.319 99.3146C101.319 99.5258 101.319 99.7238 101.319 99.9086C101.266 100.199 101.227 100.45 101.2 100.661L99.379 108.383C99.3262 108.647 99.2997 108.832 99.2997 108.937C99.2997 109.439 99.5901 109.689 100.171 109.689L100.052 110.323H93.9935C93.5448 110.323 93.228 110.244 93.0432 110.085C92.8848 109.901 92.8056 109.637 92.8056 109.293C92.8056 108.95 92.8716 108.515 93.0036 107.987L94.3895 102.087L94.5083 101.136C94.5083 100.291 93.7559 99.869 92.2512 99.869H89.8357L87.8557 108.383C87.8029 108.647 87.7766 108.832 87.7766 108.937C87.7766 109.439 88.0669 109.689 88.6477 109.689L88.5289 110.323H82.4703C82.0216 110.323 81.7048 110.244 81.52 110.085C81.3616 109.901 81.2824 109.637 81.2824 109.293C81.2824 108.95 81.3484 108.515 81.4804 107.987Z" fill="#1469E0"/>
<path d="M136.572 95.9092L133.681 108.383C133.628 108.647 133.602 108.832 133.602 108.937C133.602 109.439 133.892 109.689 134.473 109.689L134.354 110.323H128.296C127.847 110.323 127.53 110.244 127.345 110.085C127.187 109.901 127.108 109.637 127.108 109.293C127.108 108.95 127.174 108.515 127.306 107.987L130.077 95.8696C130.157 95.5792 130.196 95.302 130.196 95.038C130.196 94.5364 130.038 94.1536 129.721 93.8896C129.404 93.6256 128.863 93.4936 128.098 93.4936C126.487 93.4936 125.51 94.2592 125.167 95.7904L122.237 108.383C122.184 108.647 122.158 108.832 122.158 108.937C122.158 109.439 122.448 109.689 123.029 109.689L122.91 110.323H116.852C116.403 110.323 116.086 110.244 115.901 110.085C115.743 109.901 115.664 109.637 115.664 109.293C115.664 108.95 115.73 108.515 115.862 107.987L118.673 95.8696C118.752 95.5792 118.792 95.302 118.792 95.038C118.792 94.5364 118.633 94.1536 118.317 93.8896C118 93.6256 117.459 93.4936 116.693 93.4936C115.083 93.4936 114.106 94.2592 113.763 95.7904L110.793 108.383C110.74 108.647 110.714 108.832 110.714 108.937C110.714 109.439 111.004 109.689 111.585 109.689L111.466 110.323H105.408C104.959 110.323 104.642 110.244 104.457 110.085C104.299 109.901 104.22 109.637 104.22 109.293C104.22 108.95 104.286 108.515 104.418 107.987L108.298 90.8801C108.351 90.6161 108.377 90.4313 108.377 90.3258C108.377 89.8242 108.087 89.5734 107.506 89.5734L107.625 88.9398H113.684C114.159 88.9398 114.476 89.0454 114.634 89.2566C114.792 89.4678 114.872 89.7582 114.872 90.1278C114.872 90.2862 114.845 90.4841 114.792 90.7217C114.766 90.9593 114.7 91.2893 114.594 91.7117H114.99L116.139 89.9298C116.482 89.4018 116.984 89.0454 117.644 88.8606C118.33 88.6758 119.584 88.5834 121.405 88.5834C122.646 88.5834 123.61 88.9398 124.296 89.6526C124.798 90.1806 125.128 90.8669 125.286 91.7117H125.682L126.91 90.009C127.306 89.4546 127.873 89.085 128.612 88.9002C129.378 88.689 130.79 88.5834 132.849 88.5834C134.222 88.5834 135.265 88.9266 135.978 89.613C136.69 90.2994 137.047 91.1573 137.047 92.1869C137.047 92.9261 137.02 93.4804 136.968 93.85C136.941 94.1932 136.809 94.8796 136.572 95.9092Z" fill="#1469E0"/>
<path d="M149.251 91.2761L149.211 91.5137H149.528L150.637 89.9694C151.006 89.4414 151.389 89.0982 151.785 88.9398C152.339 88.7022 153.277 88.5834 154.596 88.5834C156.788 88.5834 158.385 89.1774 159.388 90.3653C160.259 91.3949 160.695 92.8997 160.695 94.8796C160.695 95.6452 160.629 96.4767 160.497 97.3743C160.365 98.2719 160.193 99.1562 159.982 100.027C159.084 104.119 157.936 106.865 156.537 108.264C155.138 109.637 152.973 110.323 150.043 110.323H144.855L143.944 114.204C143.892 114.468 143.865 114.653 143.865 114.758C143.865 115.26 144.156 115.51 144.736 115.51L144.618 116.144H138.559C138.11 116.144 137.807 116.052 137.648 115.867C137.463 115.708 137.371 115.458 137.371 115.114C137.371 114.771 137.437 114.336 137.569 113.808L142.875 90.8801C142.928 90.6161 142.954 90.4313 142.954 90.3258C142.954 89.8242 142.664 89.5734 142.083 89.5734L142.202 88.9398H148.261C148.736 88.9398 149.053 89.0454 149.211 89.2566C149.369 89.4678 149.449 89.7582 149.449 90.1278C149.449 90.3653 149.383 90.7481 149.251 91.2761ZM145.885 105.769H147.746C149.488 105.769 150.689 105.413 151.349 104.7C152.115 103.882 152.828 102.047 153.488 99.1958C153.831 97.7703 154.002 96.6483 154.002 95.83C154.002 94.0348 153.237 93.1373 151.706 93.1373C150.491 93.1373 149.647 93.3748 149.171 93.85C148.723 94.2988 148.366 95.0908 148.102 96.2259L145.885 105.769Z" fill="#1469E0"/>
<path d="M174.457 88.5834H175.922C179.011 88.5834 181.202 89.3094 182.495 90.7613C183.498 91.8965 184 93.586 184 95.83C184 96.2787 183.947 96.8727 183.842 97.6119C183.736 98.3247 183.617 98.9451 183.485 99.473L182.733 102.601C181.994 105.743 180.885 107.881 179.407 109.016C177.955 110.125 175.539 110.679 172.16 110.679H171.13C168.491 110.679 166.445 110.191 164.993 109.214C163.33 108.106 162.498 106.376 162.498 104.027C162.498 103.209 162.617 102.285 162.854 101.255L163.607 97.9287C164.399 94.3912 165.573 91.9493 167.131 90.6029C168.715 89.2566 171.157 88.5834 174.457 88.5834ZM174.694 93.1373C173.322 93.1373 172.305 93.4804 171.645 94.1668C171.012 94.8268 170.457 96.2391 169.982 98.4039L169.309 101.334C169.203 101.809 169.124 102.219 169.071 102.562C169.019 102.879 168.992 103.209 168.992 103.552C168.992 105.268 169.916 106.126 171.764 106.126C173.11 106.126 174.114 105.782 174.774 105.096C175.433 104.41 175.975 103.169 176.397 101.374L177.031 98.8395C177.347 97.5987 177.506 96.5559 177.506 95.7112C177.506 93.9952 176.569 93.1373 174.694 93.1373Z" fill="#1469E0"/>
</svg>
