<svg width="31" height="32" viewBox="0 0 31 32" fill="none" xmlns="http://www.w3.org/2000/svg">
<path fill-rule="evenodd" clip-rule="evenodd" d="M2.17913 2.21619C0 4.43237 0 7.99924 0 15.1331L0 16.3941C0 23.528 0 27.0948 2.17913 29.311C4.35825 31.5272 7.86548 31.5272 14.88 31.5272H16.12C23.1345 31.5272 26.6417 31.5272 28.8209 29.311C31 27.0948 31 23.528 31 16.3941V15.1331C31 7.99924 31 4.43237 28.8209 2.21619C26.6417 0 23.1345 0 16.12 0L14.88 0C7.86548 0 4.35825 0 2.17913 2.21619ZM5.23125 9.58966C5.39917 17.7867 9.4291 22.7128 16.4945 22.7128H16.8951V18.0231C19.4913 18.2858 21.4545 20.2169 22.2424 22.7128H25.9108C24.9033 18.9821 22.2553 16.9197 20.602 16.1315C22.2553 15.1594 24.5803 12.7949 25.1357 9.58966H21.8031C21.0798 12.1907 18.9359 14.5551 16.8951 14.7784V9.58966H13.5624V18.6799C11.4958 18.1545 8.88667 15.6061 8.77042 9.58966H5.23125Z" fill="currentColor"/>
</svg>
