<?xml version="1.0" standalone="no"?>
<!DOCTYPE svg PUBLIC "-//W3C//DTD SVG 20010904//EN"
 "http://www.w3.org/TR/2001/REC-SVG-20010904/DTD/svg10.dtd">
<svg version="1.0" xmlns="http://www.w3.org/2000/svg"
 width="700.000000pt" height="700.000000pt" viewBox="0 0 700.000000 700.000000"
 preserveAspectRatio="xMidYMid meet">
<metadata>
Created by potrace 1.14, written by Peter Selinger 2001-2017
</metadata>
<g transform="translate(0.000000,700.000000) scale(0.100000,-0.100000)"
fill="#000000" stroke="none">
<path d="M3280 6994 c-19 -2 -84 -9 -145 -14 -578 -56 -1180 -283 -1660 -625
-237 -169 -531 -446 -709 -670 -416 -521 -673 -1147 -748 -1820 -17 -154 -17
-585 0 -730 69 -588 254 -1099 567 -1570 126 -189 242 -332 410 -504 580 -595
1295 -943 2140 -1043 145 -17 576 -17 730 0 822 91 1556 447 2131 1034 203
206 348 390 487 618 274 449 432 915 499 1465 16 135 16 591 0 730 -100 846
-447 1557 -1043 2141 -555 542 -1249 874 -2029 970 -117 15 -553 27 -630 18z
m510 -1134 c391 -50 795 -213 1115 -449 111 -83 247 -201 243 -212 -3 -7 -391
-319 -445 -357 l-31 -22 -54 46 c-201 173 -504 313 -798 369 -117 23 -392 31
-516 16 -340 -42 -631 -165 -904 -384 -41 -33 -80 -64 -87 -69 -9 -7 -35 8
-85 49 -40 33 -95 75 -122 94 -27 19 -72 51 -100 71 -28 20 -62 45 -76 55 -44
31 -115 88 -122 98 -10 14 29 53 162 160 377 305 791 484 1240 534 52 6 111
13 130 15 58 7 359 -3 450 -14z m1777 -1212 c48 -77 141 -281 178 -393 48
-145 80 -283 101 -430 29 -214 4 -778 -36 -819 -6 -6 -56 7 -127 32 -202 70
-455 161 -459 165 -2 2 1 41 7 87 17 127 6 432 -21 554 -27 127 -72 267 -121
379 -22 48 -39 91 -39 96 0 4 50 45 111 92 62 46 168 127 238 181 69 53 129
96 133 97 4 1 20 -18 35 -41z m-3951 -111 c332 -251 315 -237 308 -261 -4 -11
-15 -38 -26 -59 -58 -115 -115 -320 -143 -517 -20 -133 -17 -391 3 -398 7 -2
12 -16 12 -30 0 -49 39 -213 79 -332 94 -282 281 -564 505 -762 439 -389 1031
-527 1616 -378 410 105 801 396 1029 768 18 28 35 52 38 52 2 0 132 -48 289
-106 l284 -106 -47 -87 c-119 -219 -269 -405 -477 -588 -205 -181 -326 -262
-566 -377 -205 -98 -389 -156 -640 -203 -140 -26 -636 -26 -765 0 -318 64
-553 149 -780 284 -450 267 -734 571 -970 1042 -101 202 -192 515 -215 740
-16 159 -13 502 6 628 21 141 72 342 122 473 48 128 152 340 166 340 6 0 84
-55 172 -123z"/>
</g>
</svg>
