<svg width="131" height="194" viewBox="0 0 131 194" fill="none" xmlns="http://www.w3.org/2000/svg">
<g clip-path="url(#clip0_659_313)">
<path d="M65.14 0.000732422C29.1634 0.000732422 0 29.1641 0 65.1407C0 101.117 65.14 193.51 65.14 193.51C65.14 193.51 130.28 101.117 130.28 65.1407C130.28 29.1641 101.117 0.000732422 65.14 0.000732422V0.000732422Z" fill="#FE8A00"/>
<path fill-rule="evenodd" clip-rule="evenodd" d="M30.1991 68.3799C30.1991 67.9533 30.0666 67.1611 30.0534 66.6788C30.0507 66.5622 30.0613 66.4324 30.0534 66.3185C30.0189 65.8866 30.056 65.3222 30.0163 64.8718C30.0057 64.7499 29.9739 64.6995 29.9898 64.5564C30.0295 64.2464 30.0189 63.8225 30.0163 63.4966C30.0163 63.2131 30.0534 63.0541 30.0534 62.8103C30.0534 62.3784 30.1011 61.8061 30.1514 61.4245L30.2999 60.1262C30.6815 56.9545 31.5958 53.9154 32.8202 50.9928C33.1065 50.3065 33.4669 49.6812 33.7452 49.0082C33.5782 48.9022 33.3317 48.6558 33.1648 48.518C33.0535 48.4279 32.9713 48.3882 32.8415 48.3007C32.6798 48.1921 32.6851 48.1444 32.5473 48.0517C32.3008 47.8874 32.1418 47.784 31.9033 47.6092C31.7177 47.4714 31.5534 47.2859 31.3282 47.1349C31.1029 46.9838 30.928 46.8699 30.7027 46.6738L27.9438 44.6177C27.6761 44.3527 27.3687 44.1699 27.0347 43.9341C26.6133 43.6347 26.3245 43.3273 25.8156 43.0173C25.3253 42.7179 25.0523 42.4291 24.6071 42.0925C24.3792 41.9203 24.1884 41.8806 23.9843 41.6792C23.8306 41.8117 23.7405 42.0581 23.6477 42.2224C23.592 42.3178 23.5549 42.4132 23.4993 42.5085C23.0196 43.3326 22.312 44.7979 21.9303 45.7146C21.8429 45.9266 21.7581 46.1015 21.6653 46.3188C20.6185 48.7565 19.6723 51.5784 19.1237 54.2015C19.023 54.6811 18.9223 55.1369 18.8216 55.6377C18.7262 56.1066 18.6467 56.6021 18.5619 57.1162C18.4744 57.6329 18.4214 58.1072 18.3445 58.6344C18.1511 59.9593 18 62.132 18 63.4648V65.5289C18 65.982 18.0398 66.345 18.0345 66.761C18.0318 67.1319 18.1034 67.5612 18.1087 67.9189C18.1193 68.7032 18.2597 69.4027 18.326 70.1631C18.3578 70.5367 18.424 70.9157 18.4744 71.2813C18.9806 74.9352 20.0778 78.7136 21.3685 81.9595C21.6044 82.5556 21.8641 83.1147 22.1185 83.7083L22.9136 85.3749C23.8571 87.2641 24.9675 89.0526 26.1336 90.8067C26.3059 91.0637 26.4649 91.2757 26.6398 91.5301C27.3872 92.6111 28.2114 93.671 29.0887 94.6567L29.3696 94.9905C29.7327 95.4648 30.541 96.2624 30.9889 96.7738C31.3202 97.15 31.7018 97.4865 32.057 97.8416L32.383 98.1304C32.4916 98.2258 32.5844 98.3318 32.6904 98.4378C33.1462 98.8935 33.6948 99.3493 34.1745 99.7758C36.2046 101.583 39.2074 103.66 41.5926 104.99L43.1934 105.849C43.9805 106.307 45.7111 107.089 46.5724 107.428C46.8772 107.55 47.1343 107.667 47.447 107.786C51.282 109.246 55.2149 110.303 59.3467 110.727C59.7257 110.767 60.1126 110.812 60.4651 110.838L62.8159 110.987C63.4281 111.018 67.0033 110.995 67.6553 110.904C67.968 110.862 68.4556 110.83 68.7896 110.806C72.9929 110.523 78.7784 109.058 82.6266 107.343C83.2096 107.084 83.7582 106.869 84.328 106.583L85.9686 105.761C87.9721 104.768 90.2355 103.332 92.0562 101.97L93.4688 100.883L96.5961 98.149C97.0705 97.7515 97.7543 97.0679 98.1518 96.5936C98.1995 96.5353 98.2419 96.5009 98.2949 96.4479C98.3983 96.3472 98.5096 96.2465 98.5997 96.1379L99.7605 94.8369C100.45 94.0976 101.332 92.9079 101.942 92.0945C102.496 91.3526 103.23 90.3377 103.715 89.5243C103.797 89.3865 103.868 89.2911 103.953 89.148L104.873 87.6059C105.154 87.0839 105.482 86.5513 105.739 86.0135L100.081 83.9308C99.8453 83.8222 99.6253 83.7718 99.3683 83.6632C99.1059 83.5493 94.6561 81.9197 94.4123 81.8853C94.2983 82.0284 94.1711 82.2721 94.0651 82.447C93.3628 83.6155 92.5862 84.7363 91.7488 85.8121L91.3512 86.3182C90.9086 86.8852 90.4077 87.4072 89.9492 87.9557L88.428 89.511C88.3246 89.5958 88.2902 89.6117 88.1948 89.7124L85.8281 91.7606C85.6558 91.8904 85.5127 92.0044 85.3378 92.1369C84.9959 92.3939 84.6858 92.6164 84.336 92.8708C83.6496 93.3689 82.934 93.8114 82.2052 94.2486C72.9558 99.7917 61.178 100.706 51.2077 96.4558C49.8455 95.8755 48.6211 95.3059 47.3755 94.5692L46.5565 94.0844C45.8304 93.626 45.1334 93.1861 44.4443 92.688C43.5936 92.0733 42.7587 91.44 41.9769 90.7405L40.8373 89.7071C40.7392 89.6091 40.7048 89.5932 40.6041 89.5057C40.3205 89.2673 40.0078 88.9096 39.7321 88.6393L38.8999 87.7331C38.4839 87.3224 38.0439 86.7766 37.6808 86.3102C37.5457 86.1353 37.4264 85.9923 37.2992 85.8227C36.6552 84.9801 36.0589 84.1216 35.4679 83.2393L34.4873 81.615C33.83 80.4386 33.2787 79.2992 32.7407 78.0777C32.5605 77.6697 32.4148 77.2669 32.2425 76.8377C31.7151 75.5287 31.3361 74.1721 30.9942 72.8022L30.6762 71.3846C30.4933 70.6136 30.2654 69.1271 30.2071 68.3799H30.1991Z" fill="white"/>
<path fill-rule="evenodd" clip-rule="evenodd" d="M31.2883 31.9364C31.4897 32.2517 32.3935 32.7869 32.7778 33.0864C32.8811 33.1659 32.958 33.2718 33.0508 33.3566C33.2177 33.5156 33.5066 33.6534 33.7001 33.7938C33.9439 33.9687 34.0181 34.1065 34.2646 34.2814C34.6542 34.5569 35.0994 34.9888 35.5075 35.2087C35.9342 35.4393 36.3265 35.8659 36.7028 36.1467C37.1162 36.4567 37.4316 36.6078 37.9564 37.0662L40.9724 39.427C40.9777 39.4323 40.9883 39.4429 40.9962 39.4482C41.0545 39.3078 41.1049 39.2866 41.2215 39.1965C41.3302 39.1117 41.3832 39.0428 41.4812 38.9501C41.5846 38.852 41.6482 38.8202 41.7542 38.7143L42.2975 38.2453C42.3823 38.1658 42.491 38.0863 42.5784 38.02C42.7666 37.8743 42.9362 37.7206 43.1376 37.5643C43.7021 37.1245 44.2693 36.6873 44.8683 36.2898C45.0803 36.1494 45.2605 36.0116 45.4752 35.8818C45.6766 35.7625 45.8515 35.6247 46.0688 35.4976C46.2914 35.3651 46.4664 35.2432 46.6943 35.1081C46.9196 34.9729 47.113 34.8643 47.333 34.7318C47.5503 34.5993 47.7703 34.5013 47.985 34.3715C48.1016 34.2999 48.1864 34.2602 48.3162 34.1966L49.318 33.6772C49.7712 33.4494 50.2244 33.2533 50.7068 33.0387C54.7193 31.2528 59.5295 30.1611 63.9422 30.1664C64.1038 30.1664 64.2443 30.1717 64.398 30.1505L67.2868 30.2592C67.7612 30.3281 68.1746 30.3334 68.6358 30.3943L71.2569 30.8156C73.5229 31.2687 75.5238 31.8967 77.4691 32.6757C78.6803 33.1606 79.7351 33.7037 80.8694 34.2681C82.4145 35.0392 85.0488 36.7932 86.3183 37.9035L86.8696 38.3672C86.9862 38.4599 87.0392 38.5182 87.1452 38.6003C87.2486 38.6798 87.3228 38.7434 87.3917 38.8573L87.5321 38.7328C87.9668 38.3804 88.3988 37.9618 88.8891 37.665C89.215 37.4689 89.488 37.1536 89.7849 36.9337L92.785 34.5755C92.9175 34.4562 93.2222 34.1595 93.368 34.072C93.7973 33.8203 94.0438 33.4971 94.6057 33.1394C94.7965 33.0175 94.6905 32.9936 94.8469 32.8744C94.9396 32.8028 95.0695 32.7446 95.1808 32.6624L96.0819 31.9338C96.3601 31.7218 96.7683 31.4515 96.9777 31.2104C96.8769 31.0408 96.1243 30.4049 95.9282 30.2062C95.4167 29.6921 94.6454 29.0271 94.0571 28.5687L93.2911 27.9593C93.0208 27.7446 92.7717 27.5539 92.4934 27.3445L91.3035 26.4701C89.3661 25.095 87.3095 23.8814 85.1867 22.8136L83.737 22.1273C80.3473 20.6197 76.8092 19.4644 73.1465 18.7808C72.3647 18.6351 71.5458 18.484 70.7427 18.3993L67.2311 18.0733C67.0721 18.0654 67.0801 18.0415 66.9078 18.0362C64.8062 17.9727 62.8026 17.9833 60.7142 18.1449C58.207 18.3357 55.6204 18.7596 53.2669 19.3478C50.0283 20.1586 47.0759 21.2026 44.3091 22.5857L42.862 23.3091C42.5254 23.476 42.2551 23.6482 41.9212 23.8152C40.9671 24.2948 39.2656 25.4129 38.3645 26.0144C37.0818 26.8702 35.8494 27.8056 34.6701 28.7966L33.7027 29.6391C33.2283 30.0048 32.8361 30.4632 32.3882 30.858L32.0092 31.2024C31.8422 31.3694 31.397 31.7748 31.2963 31.9338L31.2883 31.9364Z" fill="white"/>
<path fill-rule="evenodd" clip-rule="evenodd" d="M104.619 40.9825C104.465 41.0196 103.55 41.6847 103.474 41.7562L102.808 42.2862C102.517 42.5141 102.215 42.7313 101.95 42.983L99.3101 45.0127C98.7005 45.4949 98.1333 45.9003 97.5635 46.3773L96.4981 47.2305C96.4133 47.2994 96.3497 47.31 96.2464 47.3762L95.1545 48.24C95.0776 48.3009 94.9822 48.3486 94.9981 48.4626C95.0034 48.4997 95.4513 49.3608 95.5202 49.4986C96.0926 50.6432 96.4584 51.6051 96.9195 52.7683C96.999 52.9696 97.0494 53.1684 97.1262 53.3591C97.2031 53.5499 97.2614 53.7407 97.3303 53.9527C98.0644 56.1969 98.4116 57.9325 98.7535 60.3119C98.8145 60.7385 98.886 61.2764 98.8993 61.7215L99.0053 63.1709C99.0238 63.3961 99.0079 63.6955 99.0079 63.9287C99.0079 64.6653 99.1033 65.4575 98.992 66.1941L98.8993 67.6568C98.8754 68.1178 98.6766 69.5513 98.5918 70.068C98.5653 70.2349 98.5282 70.2905 98.6528 70.3674C98.8595 70.4972 101.07 71.1994 101.491 71.4007L107.828 73.6821C108.149 73.7828 108.7 73.9338 108.994 74.0716C109.116 74.1299 109.696 74.379 109.847 74.3816C110.017 74.3869 109.975 74.3339 110.006 74.1643C110.378 72.1347 110.632 70.8841 110.812 68.7458L110.99 65.8099C110.99 65.3171 111.019 62.988 110.979 62.7072L110.844 60.4894C110.778 59.0877 110.208 55.6697 109.911 54.4031C109.468 52.5113 109.161 51.3639 108.551 49.5383C108.188 48.4493 107.316 46.1467 106.778 45.0842L106.031 43.5156C105.938 43.3301 105.851 43.1924 105.753 42.9963C105.66 42.8082 105.586 42.6651 105.49 42.5008L105.212 41.9841C105.101 41.7748 104.748 41.1309 104.621 40.9825H104.619Z" fill="white"/>
</g>
<defs>
<clipPath id="clip0_659_313">
<rect width="130.28" height="193.511" fill="white"/>
</clipPath>
</defs>
</svg>
