<svg width="140" height="140" viewBox="0 0 140 140" fill="none" xmlns="http://www.w3.org/2000/svg">
<path fill-rule="evenodd" clip-rule="evenodd" d="M86.5036 96.4461V37.2884C86.5036 28.6094 96.4044 30.1585 96.4044 36.0202V97.4643C96.4044 104.061 86.5036 104.96 86.5036 96.4487V96.4461ZM29.6297 85.7822H35.976C36.0069 87.1433 36.4142 89.4297 36.6281 90.9711L38.515 106.602C37.5406 107.071 33.919 107.87 32.4213 107.87C32.3904 106.447 31.8826 103.945 31.7073 102.491L29.6297 85.7797V85.7822ZM40.8014 55.3141C40.8014 54.2985 44.1008 54.2108 46.2068 53.8629C54.9451 52.4219 64.699 49.5865 72.5403 45.6658C76.4661 43.7017 77.7137 43.0727 81.4256 40.5878V93.1441L77.3167 90.6515C75.85 89.7596 74.3086 89.0791 72.7929 88.3213C69.6945 86.7721 66.5756 85.4394 63.1137 84.2898C59.5514 83.1092 56.3216 82.1451 52.486 81.2069C50.2924 80.6707 42.8377 79.1782 40.8039 79.1782V55.3115L40.8014 55.3141ZM10.0806 66.9936C10.0806 59.9153 16.3959 53.5381 22.2679 53.5381H35.7233V80.4516H23.5361C16.0608 80.4516 10.0806 73.9687 10.0806 66.9961V66.9936ZM101.738 72.832V60.8999C104.388 61.1216 107.068 63.9906 107.068 66.7384C107.068 69.8084 104.738 72.765 101.738 72.832ZM40.2936 49.4731C40.059 48.5941 39.3012 48.2049 38.2623 48.2049H23.0283C20.4841 48.2049 17.6229 49.0297 15.8288 49.8932C14.8493 50.365 13.9188 50.8934 13.0862 51.4682C8.56493 54.5923 5 60.2529 5 65.7253C5 69.3573 5.13662 72.0896 6.94615 75.4586C8.04681 77.5105 9.32277 79.0906 10.8977 80.6475C14.3518 84.0604 19.4376 85.6766 24.2965 85.7848C24.2965 86.8778 24.6187 88.6564 24.7605 89.6385C24.9615 91.0304 25.142 92.3682 25.2915 93.6777C25.5492 95.9538 27.0031 108.02 27.449 109.293C28.1295 111.229 30.2638 113.206 32.6765 113.206C34.4139 113.206 39.8605 112 41.2061 111.072C43.8843 109.226 44.026 107.326 43.4847 103.414L41.0565 84.514C42.2681 84.514 43.8946 84.8569 45.0545 85.0863C49.2252 85.9086 51.9111 86.3132 56.2623 87.5892C58.5873 88.2723 60.9588 89.0146 63.1808 89.8112C67.0627 91.2057 78.3916 96.5363 81.3224 99.5986C81.7942 100.094 81.7942 100.416 82.0313 101.174C82.57 102.883 83.5341 104.099 84.7894 105.272C90.5608 110.659 101.743 107.548 101.743 96.6987V78.1652C106.934 78.1652 112.151 72.9583 112.151 67.7565C112.151 63.7457 111.739 61.8846 108.788 58.9332C106.161 56.3065 105.099 56.3529 101.74 55.5693C101.74 50.8289 101.74 46.0912 101.74 41.3508C101.74 35.9377 101.841 32.3599 99.1419 29.4755C93.966 23.9463 85.9829 25.4672 82.8665 30.8545C82.2839 31.8624 82.1215 32.5377 81.722 33.5173C80.5491 36.3862 66.1915 42.9361 63.4359 43.9208C58.6492 45.6323 45.7892 49.3519 40.2987 49.4731H40.2936Z" fill="url(#paint0_linear_298_356)"/>
<path fill-rule="evenodd" clip-rule="evenodd" d="M111.894 83.2433C111.894 85.326 115.299 86.7257 117.557 87.9888C121.328 90.0973 123.913 92.5925 126.009 91.0098C126.916 90.3241 126.873 89.5457 126.873 88.5739C126.873 86.7102 123.978 85.7462 121.367 84.1764C120.245 83.5036 119.305 82.9417 118.152 82.3127C116.915 81.6374 115.819 80.7017 114.43 80.7017C113.131 80.7017 111.891 82.0369 111.891 83.2407L111.894 83.2433Z" fill="url(#paint1_linear_298_356)"/>
<path fill-rule="evenodd" clip-rule="evenodd" d="M111.894 50.7439C111.894 51.7028 113.314 54.265 116.296 52.6075L126.184 46.751C127.383 45.5498 127.494 42.3638 124.081 42.3638C123.122 42.3638 121.573 43.5753 120.694 44.0548C119.518 44.6941 118.534 45.2921 117.466 45.9056C114.603 47.5553 111.894 48.509 111.894 50.7439Z" fill="url(#paint2_linear_298_356)"/>
<path fill-rule="evenodd" clip-rule="evenodd" d="M119.003 66.9935C119.003 67.9808 119.97 69.5326 122.05 69.5326C125.006 69.5326 132.765 70.0378 134.136 68.9242C134.611 68.5376 134.905 67.9859 135 67.3931V66.5553C134.807 65.3387 133.758 64.2019 131.701 64.2019C129.316 64.2019 121.593 63.8127 120.109 64.7974C119.588 65.1428 119.006 66.3233 119.006 66.9961L119.003 66.9935Z" fill="url(#paint3_linear_298_356)"/>
<defs>
<linearGradient id="paint0_linear_298_356" x1="48.2727" y1="69" x2="109.219" y2="144.57" gradientUnits="userSpaceOnUse">
<stop stop-color="#FF8C01"/>
<stop offset="1" stop-color="#FECC00"/>
</linearGradient>
<linearGradient id="paint1_linear_298_356" x1="117.941" y1="86.031" x2="125.255" y2="96.2608" gradientUnits="userSpaceOnUse">
<stop stop-color="#FF8C01"/>
<stop offset="1" stop-color="#FECC00"/>
</linearGradient>
<linearGradient id="paint2_linear_298_356" x1="117.972" y1="47.6836" x2="125.257" y2="57.9397" gradientUnits="userSpaceOnUse">
<stop stop-color="#FF8C01"/>
<stop offset="1" stop-color="#FECC00"/>
</linearGradient>
<linearGradient id="paint3_linear_298_356" x1="125.463" y1="66.8483" x2="127.881" y2="73.9174" gradientUnits="userSpaceOnUse">
<stop stop-color="#FF8C01"/>
<stop offset="1" stop-color="#FECC00"/>
</linearGradient>
</defs>
</svg>
