<svg width="30" height="30" viewBox="0 0 30 30" fill="none" xmlns="http://www.w3.org/2000/svg">
<path fill-rule="evenodd" clip-rule="evenodd" d="M10.4455 16.2105C9.52446 16.0212 8.47817 15.6879 7.54289 15.4241C6.57286 15.1506 5.6773 15.1204 5.63441 14.5238C5.58684 13.8617 6.41482 13.8049 7.3181 13.4701C7.75692 13.3073 8.2058 13.1547 8.65496 12.9903C9.56142 12.6588 10.4093 12.3453 11.3234 12.0261C12.6126 11.5759 23.0418 7.67597 23.5558 7.70603C24.0734 7.73637 24.4377 8.15243 24.3526 8.70654C24.2143 9.60803 23.8913 10.767 23.6823 11.6696C23.2217 13.6579 22.7715 15.6541 22.3301 17.6427C22.2057 18.2034 21.5264 21.7243 21.2133 22.0335C20.9007 22.3422 20.3386 22.3742 19.9195 22.0936C19.5847 21.8695 15.7724 19.2453 15.5083 19.154C15.2718 19.428 13.2824 21.3541 13.0468 21.4303C12.4858 21.6117 12.1682 21.2839 12.0254 20.9035L10.4455 16.2103V16.2105ZM0 3.80854V26.1915C0 28.0937 1.90641 30 3.80868 30H26.1916C28.0939 30 30.0001 28.0936 30.0001 26.1915V3.69146C30.0001 3.1939 29.7336 2.57139 29.5707 2.24593C29.3208 1.74644 29.1552 1.52965 28.7846 1.15689C28.2538 0.62292 27.2235 0 26.1916 0H3.80868C1.90641 0 0 1.90641 0 3.80868L0 3.80854Z" fill="#039BE5"/>
<path fill-rule="evenodd" clip-rule="evenodd" d="M12.5384 19.9939L12.8539 17.8794C12.9591 17.0106 12.892 17.2995 13.8821 16.461C16.0244 14.6467 18.4677 12.7741 20.6204 10.9532C20.7001 10.8857 21.354 10.48 20.9589 10.3278C20.7774 10.2579 20.2825 10.6023 20.1242 10.6921C18.0338 11.8788 15.9727 13.0408 13.9055 14.258C13.393 14.5597 12.8901 14.834 12.379 15.1338C12.0916 15.3025 11.8624 15.4245 11.594 15.5801C11.2283 15.792 11.07 15.8299 11.2443 16.3516L12.1709 19.1179C12.2212 19.2692 12.2664 19.3989 12.3168 19.5573C12.4603 20.0085 12.395 19.902 12.5384 19.9939V19.9939Z" fill="#039BE5"/>
</svg>
