<svg width="25" height="59" viewBox="0 0 25 59" fill="transparent" xmlns="http://www.w3.org/2000/svg">
<rect x="1.5" y="1.5" width="22" height="36" rx="10.5" stroke="currentColor" stroke-width="3"/>
<path fill-rule="evenodd" clip-rule="evenodd" d="M5.02879 51.7036C5.17715 52.4294 7.93055 54.8403 8.52104 55.4096C13.1045 59.8282 12.0816 59.6095 16.4913 55.4303C17.1628 54.7938 19.7932 52.5067 19.9659 51.7142C20.1894 50.6904 19.2827 49.7797 18.13 50.0418C17.4888 50.1878 16.6016 51.2238 16.1653 51.6359C14.9208 52.8143 13.8228 53.9458 12.5647 55.1176C11.4013 54.5433 7.87783 50.163 6.74077 50.0115C5.69935 49.8731 4.82579 50.7035 5.02979 51.7026L5.02879 51.7036Z" fill="currentColor"/>
<path fill-rule="evenodd" clip-rule="evenodd" d="M6.72512 42.0234C5.73029 41.8691 4.85357 42.795 5.02053 43.757C5.15821 44.554 7.7893 46.9458 8.48242 47.6226C9.25076 48.3737 11.4191 50.9579 12.4354 50.9982C13.111 51.0254 13.3775 50.7371 13.7329 50.3818C14.7746 49.3406 19.7869 44.5744 19.9567 43.8742C20.2076 42.839 19.3309 41.8437 18.2804 42.0205C17.3471 42.1778 14.0785 46.1234 12.5643 47.3081C11.3752 46.7866 7.88298 42.2031 6.72512 42.0234Z" fill="currentColor"/>

</svg>
