<svg width="24" height="24" viewBox="0 0 24 24" fill="none" xmlns="http://www.w3.org/2000/svg">
<path d="M12 24C18.6274 24 24 18.6274 24 12C24 5.37258 18.6274 0 12 0C5.37258 0 0 5.37258 0 12C0 18.6274 5.37258 24 12 24Z" fill="#6F3FAA"/>
<path d="M18.686 8.24449L18.6818 8.22781C18.3442 6.86268 16.8218 5.39788 15.4237 5.09314L15.408 5.08988C13.1467 4.65852 10.8539 4.65852 8.59311 5.08988L8.57687 5.09314C7.17931 5.39788 5.6569 6.86278 5.31879 8.22781L5.31503 8.24449C4.89759 10.1509 4.89759 12.0843 5.31503 13.9906L5.31879 14.0073C5.64253 15.3142 7.0515 16.7117 8.39738 17.096V18.6199C8.39738 19.1715 9.0695 19.4423 9.45169 19.0443L10.9956 17.4394C11.3305 17.4581 11.6656 17.4686 12.0005 17.4686C13.1388 17.4686 14.2776 17.3609 15.4079 17.1453L15.4237 17.142C16.8218 16.8373 18.3441 15.3724 18.6818 14.0074L18.6859 13.9907C19.1034 12.0843 19.1034 10.151 18.686 8.24449ZM17.4641 13.7142C17.2387 14.6049 16.0828 15.7121 15.1644 15.9166C13.9621 16.1453 12.7502 16.243 11.5395 16.2095C11.5154 16.2088 11.4923 16.2182 11.4755 16.2354C11.3037 16.4118 10.3482 17.3927 10.3482 17.3927L9.14923 18.6233C9.06155 18.7147 8.90753 18.6525 8.90753 18.5263V16.0019C8.90753 15.9602 8.87776 15.9248 8.83679 15.9167C8.83654 15.9166 8.83634 15.9166 8.83609 15.9166C7.91768 15.712 6.76221 14.6048 6.53636 13.7142C6.16063 11.991 6.16063 10.2441 6.53636 8.52094C6.76221 7.63033 7.91768 6.52314 8.83609 6.31856C10.9359 5.91919 13.065 5.91919 15.1644 6.31856C16.0833 6.52314 17.2387 7.63033 17.4642 8.52094C17.8403 10.2442 17.8403 11.9911 17.4641 13.7142Z" fill="white"/>
<path d="M13.999 14.8796C13.8578 14.8367 13.7233 14.8079 13.5983 14.7561C12.3033 14.2188 11.1116 13.5257 10.1677 12.4633C9.63088 11.8592 9.21072 11.1771 8.85558 10.4552C8.68714 10.1129 8.54521 9.75724 8.40052 9.40378C8.26861 9.08152 8.46292 8.74859 8.66749 8.50571C8.85948 8.27778 9.10656 8.10342 9.37412 7.97482C9.58294 7.87451 9.7889 7.93236 9.94144 8.10934C10.2711 8.49203 10.574 8.89427 10.8192 9.33788C10.97 9.61072 10.9286 9.94424 10.6553 10.1299C10.5888 10.175 10.5283 10.2281 10.4665 10.279C10.4122 10.3237 10.3611 10.3688 10.3239 10.4293C10.2559 10.5399 10.2526 10.6705 10.2964 10.7908C10.6334 11.7169 11.2015 12.4372 12.1338 12.8252C12.2829 12.8872 12.4327 12.9594 12.6046 12.9395C12.8924 12.9058 12.9856 12.5901 13.1873 12.4252C13.3845 12.264 13.6364 12.2618 13.8487 12.3962C14.0612 12.5307 14.267 12.6749 14.4717 12.8208C14.6726 12.964 14.8726 13.1039 15.0579 13.2672C15.2361 13.4241 15.2975 13.63 15.1971 13.8429C15.0134 14.233 14.7461 14.5573 14.3606 14.7645C14.2518 14.8228 14.1217 14.8417 13.999 14.8796C14.1217 14.8417 13.8578 14.8367 13.999 14.8796Z" fill="white"/>
<path d="M12.0045 7.52899C13.6982 7.57648 15.0894 8.70051 15.3875 10.375C15.4383 10.6604 15.4564 10.952 15.479 11.2416C15.4885 11.3634 15.4195 11.4791 15.2881 11.4808C15.1523 11.4824 15.0912 11.3688 15.0824 11.2471C15.0649 11.0061 15.0528 10.7639 15.0196 10.525C14.8443 9.26323 13.8382 8.21938 12.5823 7.9954C12.3933 7.96169 12.2 7.95285 12.0085 7.93276C11.8875 7.92007 11.729 7.91276 11.7022 7.7623C11.6798 7.63616 11.7862 7.53575 11.9063 7.52929C11.9388 7.52736 11.9717 7.52889 12.0045 7.52899C11.9717 7.52889 13.6983 7.57648 12.0045 7.52899Z" fill="white"/>
<path d="M14.578 10.8654C14.5752 10.8866 14.5738 10.9363 14.5613 10.9831C14.5164 11.1532 14.2585 11.1744 14.1992 11.0029C14.1816 10.952 14.179 10.894 14.1789 10.8392C14.1783 10.4805 14.1003 10.1221 13.9194 9.81C13.7334 9.48916 13.4493 9.21957 13.1161 9.05632C12.9146 8.95768 12.6968 8.89632 12.4759 8.85984C12.3794 8.84384 12.2818 8.83422 12.1848 8.82069C12.0673 8.80435 12.0045 8.72946 12.0101 8.61365C12.0153 8.50514 12.0946 8.42699 12.2129 8.43376C12.6016 8.45577 12.9771 8.5399 13.3227 8.72285C14.0253 9.09502 14.4268 9.68238 14.544 10.4668C14.5493 10.5024 14.5578 10.5375 14.5605 10.5732C14.5671 10.6611 14.5713 10.7492 14.578 10.8654C14.5713 10.7492 14.5752 10.8865 14.578 10.8654Z" fill="white"/>
<path d="M13.525 10.8248C13.3833 10.8274 13.3075 10.7489 13.2928 10.6191C13.2827 10.5285 13.2746 10.4367 13.253 10.3485C13.2105 10.1749 13.1182 10.0141 12.9722 9.90771C12.9032 9.8575 12.8251 9.82092 12.7433 9.79722C12.6394 9.76716 12.5314 9.77545 12.4277 9.75008C12.3151 9.72248 12.2528 9.63126 12.2706 9.52566C12.2867 9.42949 12.3802 9.35446 12.4853 9.36211C13.1419 9.4095 13.6113 9.74899 13.6782 10.5221C13.683 10.5766 13.6886 10.6342 13.6765 10.6865C13.6556 10.7757 13.5895 10.8205 13.525 10.8248C13.5895 10.8205 13.3833 10.8274 13.525 10.8248Z" fill="white"/>
</svg>
