<svg width="140" height="140" viewBox="0 0 140 140" fill="none" xmlns="http://www.w3.org/2000/svg">
<path fill-rule="evenodd" clip-rule="evenodd" d="M105.594 43.6356H117.898V118.488H105.594V43.6356V43.6356ZM101.287 41.7894V120.539C101.287 121.399 102.197 122.589 102.928 122.589H120.154C121.167 122.589 122 121.757 122 120.743V40.9685C122 40.6272 121.545 40.0158 121.303 39.8194C120.994 39.569 120.438 39.3279 119.948 39.3279H103.337C102.053 39.3279 101.286 40.4651 101.286 41.7881L101.287 41.7894Z" fill="url(#paint0_linear_298_342)"/>
<path fill-rule="evenodd" clip-rule="evenodd" d="M77.4983 56.7605H89.8022V118.488H77.4983V56.7605V56.7605ZM73.1919 54.9143V120.539C73.1919 121.647 74.2066 122.589 74.8325 122.589H92.0582C93.3167 122.589 93.9044 121.613 93.9044 120.333V54.5032C93.9044 53.2197 92.7672 52.4528 91.4441 52.4528H75.4479C74.2777 52.4528 73.1919 53.3119 73.1919 54.913V54.9143Z" fill="url(#paint1_linear_298_342)"/>
<path fill-rule="evenodd" clip-rule="evenodd" d="M49.1979 69.8853H61.5018V118.488H49.1979V69.8853V69.8853ZM45.097 67.6293V120.744C45.097 121.757 45.9285 122.59 46.9432 122.59H64.1689C64.7948 122.59 65.8095 121.647 65.8095 120.54V67.8349C65.8095 66.7978 65.0702 65.7844 63.9633 65.7844H46.9419C45.9285 65.7844 45.0957 66.6159 45.0957 67.6306L45.097 67.6293Z" fill="url(#paint2_linear_298_342)"/>
<path fill-rule="evenodd" clip-rule="evenodd" d="M108.26 22.1022C107.262 23.5926 101.368 28.347 99.4994 29.7478C93.9819 33.8895 90.2197 36.1402 84.5099 39.573C80.9836 41.6932 75.0273 44.7623 71.1413 46.7113C66.8388 48.8697 61.3622 51.2694 56.8726 53.1551C48.8738 56.5154 40.8553 59.5594 32.4269 61.9313C28.7478 62.9671 26.2836 63.622 22.4159 64.2256C18.2927 64.8686 19.8226 68.5452 21.9112 68.5597C26.4285 68.5926 40.1463 63.9317 45.3778 62.1672C49.6421 60.7295 53.6797 59.0217 57.6343 57.4022L66.4922 53.5465C73.9152 49.8027 78.6802 47.9618 86.1518 43.4696L91.5309 40.2358C94.3667 38.499 99.0092 35.4524 101.7 33.3835L106.364 29.6384C106.845 29.1798 107.024 29.1271 107.49 28.7147C108.494 27.8278 109.952 26.2412 110.927 25.589C110.927 27.0938 110.317 31.3304 112.977 31.3304C114.175 31.3304 115.233 30.2723 115.233 29.0744V20.6658C115.233 19.3164 114.514 18 113.183 18H103.749C101.95 18 101.1 20.3785 102.547 21.6647C103.347 22.3763 103.894 22.1575 104.971 22.1101C106.034 22.0626 107.187 22.1022 108.261 22.1022H108.26Z" fill="url(#paint3_linear_298_342)"/>
<path fill-rule="evenodd" clip-rule="evenodd" d="M21.1022 83.2158H33.4061V118.488H21.1022V83.2158V83.2158ZM17.0013 80.5499V120.744C17.0013 121.757 17.8328 122.59 18.8475 122.59H36.0732C36.8968 122.59 37.7138 121.412 37.7138 120.13V81.3709C37.7138 80.0466 36.9455 78.9106 35.6634 78.9106H19.0517C18.5615 78.9106 18.0054 79.1518 17.6971 79.4022C17.4546 79.5985 17 80.21 17 80.5513L17.0013 80.5499Z" fill="url(#paint4_linear_298_342)"/>
<defs>
<linearGradient id="paint0_linear_298_342" x1="111.446" y1="85.8979" x2="140.112" y2="95.8431" gradientUnits="userSpaceOnUse">
<stop offset="0" stop-color="#FF8C01"/>
<stop offset="1" stop-color="#FFDD2D"/>
</linearGradient>
<linearGradient id="paint1_linear_298_342" x1="83.3509" y1="91.6817" x2="110.808" y2="102.99" gradientUnits="userSpaceOnUse">
<stop offset="0" stop-color="#FF8C01"/>
<stop offset="1" stop-color="#FFDD2D"/>
</linearGradient>
<linearGradient id="paint2_linear_298_342" x1="55.2553" y1="97.5574" x2="80.7732" y2="110.533" gradientUnits="userSpaceOnUse">
<stop offset="0" stop-color="#FF8C01"/>
<stop offset="1" stop-color="#FFDD2D"/>
</linearGradient>
<linearGradient id="paint3_linear_298_342" x1="66.6173" y1="46.2794" x2="85.2823" y2="95.4006" gradientUnits="userSpaceOnUse">
<stop offset="0" stop-color="#FF8C01"/>
<stop offset="1" stop-color="#FFDD2D"/>
</linearGradient>
<linearGradient id="paint4_linear_298_342" x1="27.1596" y1="103.342" x2="49.5038" y2="118.118" gradientUnits="userSpaceOnUse">
<stop offset="0" stop-color="#FF8C01"/>
<stop offset="1" stop-color="#FFDD2D"/>
</linearGradient>
</defs>
</svg>
