<svg width="46" height="46" viewBox="0 0 46 46" fill="none" xmlns="http://www.w3.org/2000/svg">
<path fill-rule="evenodd" clip-rule="evenodd" d="M29.7031 31.9797V8.8036C29.7031 7.38255 31.4219 7.38255 31.4219 8.8036V31.9797C31.4219 33.4005 29.7031 33.4005 29.7031 31.9797ZM9.16401 27.1583H13.0312V37.3085C9.92035 37.3085 10.4482 37.8662 9.85146 32.6563C9.74877 31.7592 9.59866 30.8098 9.51558 29.9419C9.47338 29.5018 9.2611 27.3722 9.16401 27.1583V27.1583ZM4.43741 18.6998V22.0833C3.78619 21.9341 3.68649 21.987 3.25147 21.5588C2.56421 20.8824 2.56421 19.9009 3.25147 19.2245C3.68649 18.7963 3.78619 18.8492 4.43741 18.7V18.6998ZM14.75 21.0682V25.4665H9.16401C7.22248 25.4665 6.15621 24.4169 6.15621 22.5061V18.2768C6.15621 15.402 8.17392 15.3164 10.1954 15.3164C12.5443 15.3164 14.8934 15.3164 17.2423 15.3164C19.8976 15.3164 22.5356 14.8917 24.6582 13.9878C25.8429 13.4833 26.4812 13.1116 27.4577 12.3447C27.636 12.2047 27.8186 12.0422 27.9845 11.9329V28.8498C27.301 28.3992 27.1302 28.0561 26.0378 27.4672C25.2835 27.0605 24.5973 26.7358 23.7206 26.4491C20.9975 25.5586 19.37 25.4664 16.469 25.4664V21.068C16.469 20.5878 15.9121 20.3914 15.4378 20.3914C15.186 20.3914 14.7504 20.8201 14.7504 21.068L14.75 21.0682ZM33.1407 21.914V17.1773C34.0993 17.6764 34.8368 18.309 34.8368 19.5457C34.8368 20.0518 34.5886 20.7251 34.3211 21.0457C33.9068 21.5425 33.7046 21.6202 33.1407 21.914ZM4.52348 17.0081C2.43762 17.0081 1 18.6836 1 20.0531V20.0871V20.1207V20.1539C1.00037 20.8284 1.01195 21.3131 1.37845 21.9642C1.74346 22.6123 2.36723 23.2371 3.07223 23.5113C3.58156 23.7094 3.81755 23.7746 4.52329 23.7746C4.63345 25.0784 6.20774 26.8099 7.35933 26.9043L7.79136 30.3699C7.88882 31.4967 8.07889 32.7236 8.21145 33.8475C8.2893 34.5083 8.50607 36.7673 8.6853 37.2721C9.01876 38.2115 9.97057 39 10.883 39H14.0628C14.3146 39 14.7502 38.5713 14.7502 38.3234V27.1583C18.7712 27.1583 22.2934 27.2671 25.4026 29.1075C28.4358 30.9028 27.5366 32.7366 28.5641 33.8622C29.8975 35.3229 32.064 34.9399 32.8286 33.4485C33.1083 32.9029 33.1477 32.8524 33.1421 32.0653L33.1409 23.6903C34.682 23.564 36.5785 21.6411 36.5785 19.884C36.5785 18.6151 36.4234 17.6897 35.4846 16.7315C34.9602 16.1962 34.0765 15.4777 33.1411 15.4011C33.1411 13.4556 33.1411 11.5103 33.1411 9.56475C33.1411 8.3282 33.2276 7.89581 32.7096 7.11352C31.7003 5.58902 28.6892 5.3448 27.9845 8.21114C27.3684 10.7173 25.7217 11.8225 23.2271 12.6637C19.4467 13.9387 14.5579 13.6248 10.3677 13.6248C8.52324 13.6248 7.54753 13.5065 6.40023 14.2875C5.65248 14.7965 4.61683 15.9073 4.52385 17.0083L4.52348 17.0081Z" fill="black"/>
<path fill-rule="evenodd" clip-rule="evenodd" d="M39.8438 25.5512C39.8438 26.1451 40.6992 26.7739 41.3262 27.3908C41.6193 27.6793 41.8499 27.9056 42.1426 28.1944C42.3307 28.3799 43.2257 29.4054 43.854 28.4809C44.0201 28.2363 44.0388 27.969 43.9753 27.7473C43.8536 27.3219 43.3114 26.8919 43.002 26.5874C42.0769 25.6769 41.0075 24.1469 40.1025 24.96C39.9561 25.0916 39.8439 25.2753 39.8439 25.5514L39.8438 25.5512Z" fill="black"/>
<path fill-rule="evenodd" clip-rule="evenodd" d="M40.5313 20.3915H44.3126C44.8005 20.3915 45.0001 19.8432 45.0001 19.3766C45.0001 19.1287 44.5645 18.7 44.3126 18.7H40.5313C39.4557 18.7 39.4557 20.3917 40.5313 20.3917V20.3915Z" fill="black"/>
<path fill-rule="evenodd" clip-rule="evenodd" d="M39.8438 13.4557C39.8438 14.0893 40.331 14.3861 40.7032 14.3861C41.3467 14.3861 43.8243 11.7656 43.9548 11.4052C44.205 10.7141 43.5588 10.2415 43.1953 10.2415C42.6045 10.2415 41.9563 11.0803 41.3691 11.6583C40.873 12.1465 39.8438 12.9816 39.8438 13.4557V13.4557Z" fill="black"/>
<path fill-rule="evenodd" clip-rule="evenodd" d="M14.7498 17.6849C14.7498 19.2447 16.4686 18.7362 16.4686 18.0232C16.4686 16.4635 14.7498 16.9719 14.7498 17.6849Z" fill="black"/>
</svg>
