<svg width="24" height="24" viewBox="0 0 24 24" fill="none" xmlns="http://www.w3.org/2000/svg">
<path d="M12.003 0H11.997C5.3805 0 0 5.382 0 12C0 14.625 0.846 17.058 2.2845 19.0335L0.789 23.4915L5.4015 22.017C7.299 23.274 9.5625 24 12.003 24C18.6195 24 24 18.6165 24 12C24 5.3835 18.6195 0 12.003 0Z" fill="#4CAF50"/>
<path d="M18.9848 16.9455C18.6953 17.763 17.5463 18.441 16.6298 18.639C16.0028 18.7725 15.1838 18.879 12.4268 17.736C8.90034 16.275 6.62934 12.6915 6.45234 12.459C6.28284 12.2265 5.02734 10.5615 5.02734 8.83953C5.02734 7.11753 5.90184 6.27903 6.25434 5.91903C6.54384 5.62353 7.02234 5.48853 7.48134 5.48853C7.62984 5.48853 7.76334 5.49603 7.88334 5.50203C8.23584 5.51703 8.41284 5.53803 8.64534 6.09453C8.93484 6.79203 9.63984 8.51403 9.72384 8.69103C9.80934 8.86803 9.89484 9.10803 9.77484 9.34053C9.66234 9.58053 9.56334 9.68703 9.38634 9.89103C9.20934 10.095 9.04134 10.251 8.86434 10.47C8.70234 10.6605 8.51934 10.8645 8.72334 11.217C8.92734 11.562 9.63234 12.7125 10.6703 13.6365C12.0098 14.829 13.0958 15.21 13.4843 15.372C13.7738 15.492 14.1188 15.4635 14.3303 15.2385C14.5988 14.949 14.9303 14.469 15.2678 13.9965C15.5078 13.6575 15.8108 13.6155 16.1288 13.7355C16.4528 13.848 18.1673 14.6955 18.5198 14.871C18.8723 15.048 19.1048 15.132 19.1903 15.2805C19.2743 15.429 19.2743 16.1265 18.9848 16.9455Z" fill="#FAFAFA"/>
</svg>
