<svg width="200" height="200" viewBox="0 0 200 200" fill="none" xmlns="http://www.w3.org/2000/svg">
<path d="M122.752 90.7449H121.943V82.2031C121.943 81.3506 121.367 80.6476 120.367 80.6476H113.059C112.207 80.6476 111.632 81.2228 111.632 82.2236V84.2903C111.632 85.7818 111.61 86.9322 111.355 88.1669C111.099 89.3812 110.779 90.1264 110.31 90.7449H109.949C108.926 90.7449 108.437 91.3839 108.437 92.3003V95.24C108.437 96.2409 109.118 96.816 109.992 96.816C110.887 96.816 111.568 96.2409 111.568 95.24V93.8341H121.176V95.24C121.176 96.2409 121.857 96.816 122.731 96.816C123.626 96.816 124.307 96.2409 124.307 95.24V92.3003C124.306 91.3839 123.816 90.7449 122.752 90.7449ZM118.747 90.7449H113.57C113.889 90.0636 114.145 89.4451 114.358 88.5081C114.572 87.5279 114.656 86.5487 114.678 85.2694L114.699 83.7357H118.747V90.7449V90.7449Z" fill="black"/>
<path d="M131.806 80.5414C127.993 80.5414 125.053 83.4173 125.053 87.2517C125.053 91.1283 127.993 93.9619 131.806 93.9619C135.62 93.9619 138.558 91.0222 138.558 87.2094C138.558 83.3739 135.619 80.5414 131.806 80.5414ZM131.806 90.9582C129.719 90.9582 128.205 89.3823 128.205 87.23C128.205 85.121 129.718 83.5451 131.806 83.5451C133.915 83.5451 135.406 85.121 135.406 87.23C135.405 89.3811 133.979 90.9582 131.806 90.9582Z" fill="black"/>
<path d="M153.215 90.7449H152.406V82.2031C152.406 81.3506 151.83 80.6476 150.83 80.6476H143.523C142.67 80.6476 142.095 81.2228 142.095 82.2236V84.2903C142.095 85.7818 142.073 86.9322 141.818 88.1669C141.562 89.3812 141.242 90.1264 140.773 90.7449H140.412C139.389 90.7449 138.9 91.3839 138.9 92.3003V95.24C138.9 96.2409 139.581 96.816 140.455 96.816C141.35 96.816 142.031 96.2409 142.031 95.24V93.8341H151.639V95.24C151.639 96.2409 152.32 96.816 153.194 96.816C154.089 96.816 154.77 96.2409 154.77 95.24V92.3003C154.77 91.3839 154.279 90.7449 153.215 90.7449ZM149.21 90.7449H144.034C144.353 90.0636 144.609 89.4451 144.822 88.5081C145.036 87.5279 145.12 86.5487 145.142 85.2694L145.164 83.7357H149.211V90.7449H149.21Z" fill="black"/>
<path d="M162.163 80.5414C158.35 80.5414 155.41 83.4173 155.41 87.2517C155.41 91.1283 158.35 93.9619 162.163 93.9619C165.977 93.9619 168.915 91.0222 168.915 87.2094C168.915 83.3739 165.975 80.5414 162.163 80.5414ZM162.163 90.9582C160.075 90.9582 158.562 89.3823 158.562 87.23C158.562 85.121 160.075 83.5451 162.163 83.5451C164.272 83.5451 165.763 85.121 165.763 87.23C165.762 89.3811 164.336 90.9582 162.163 90.9582Z" fill="black"/>
<path d="M118.983 103.78H110.079C109.056 103.78 108.503 104.483 108.503 105.335V115.518C108.503 116.519 109.227 117.094 110.122 117.094C110.995 117.094 111.698 116.519 111.698 115.518V106.869H117.386V115.518C117.386 116.519 118.089 117.094 118.983 117.094C119.856 117.094 120.581 116.497 120.581 115.496V105.335C120.582 104.483 120.007 103.78 118.983 103.78Z" fill="black"/>
<path d="M134.492 103.78H134.364C133.427 103.78 132.809 104.249 132.149 105.185L126.951 112.556V105.357C126.951 104.356 126.312 103.781 125.439 103.781C124.544 103.781 123.884 104.356 123.884 105.357V115.177C123.884 116.241 124.565 116.966 125.651 116.966H125.801C126.802 116.966 127.441 116.455 128.059 115.56L133.257 108.189V115.389C133.257 116.39 133.896 116.965 134.791 116.965C135.664 116.965 136.325 116.39 136.325 115.389V105.569C136.325 104.461 135.664 103.78 134.492 103.78Z" fill="black"/>
<path d="M152.26 113.877H151.45V105.228C151.45 104.227 150.726 103.652 149.831 103.652C148.958 103.652 148.255 104.227 148.255 105.228V113.877H142.716V105.228C142.716 104.227 142.034 103.652 141.118 103.652C140.223 103.652 139.52 104.227 139.52 105.228V115.411C139.52 116.263 140.096 116.966 141.096 116.966H150.682V118.372C150.682 119.373 151.364 119.948 152.238 119.948C153.133 119.948 153.814 119.373 153.814 118.372V115.454C153.814 114.41 153.196 113.877 152.26 113.877Z" fill="black"/>
<path d="M168.258 113.877H167.449V105.228C167.449 104.227 166.724 103.652 165.829 103.652C164.956 103.652 164.253 104.227 164.253 105.228V113.877H158.715V105.228C158.715 104.227 158.034 103.652 157.117 103.652C156.223 103.652 155.52 104.227 155.52 105.228V115.411C155.52 116.263 156.095 116.966 157.096 116.966H166.682V118.372C166.682 119.373 167.363 119.948 168.237 119.948C169.132 119.948 169.813 119.373 169.813 118.372V115.454C169.812 114.41 169.195 113.877 168.258 113.877Z" fill="black"/>
<path d="M183.831 114.729L179.485 105.271C178.994 104.227 178.313 103.78 177.334 103.78H177.164C176.141 103.78 175.46 104.227 174.969 105.271L170.624 114.729C170.198 115.666 170.496 116.497 171.348 116.817C172.115 117.114 172.882 116.944 173.308 116.05L174.288 113.983C175.161 114.281 176.247 114.43 177.27 114.43C178.356 114.43 179.315 114.281 180.124 113.983L181.062 116.028C181.467 116.923 182.298 117.093 183.043 116.815C183.894 116.497 184.235 115.624 183.831 114.729ZM177.269 111.598C176.608 111.598 175.905 111.512 175.372 111.364L177.225 107.232L179.079 111.364C178.568 111.512 177.929 111.598 177.269 111.598Z" fill="black"/>
<path d="M51.7284 60C74.9893 60 92.8547 76.0018 92.8547 99.7477C92.8547 123.621 74.9905 139.882 51.7284 139.882H25.6396C20.3708 139.882 16 136.398 16 130.333V69.9364C16 63.8709 20.3696 60 25.6396 60H51.7284V60Z" fill="#FF6900"/>
<path d="M70.9803 92.2591C73.9383 92.7738 74.0775 94.2585 74.6607 95.2262C75.2427 96.1939 76.231 96.6162 77.419 96.6162C79.6192 96.6162 80.9909 95.4818 80.9909 91.385C80.9909 82.3867 75.3112 78.0262 69.353 78.0262C64.4619 78.0262 62.5732 79.1023 57.9285 79.1023C54.6339 79.1023 51.9042 72.399 48.1599 71.5168C46.5063 67.8388 42.7975 67.4234 40.5128 69.2721C38.4381 68.0099 35.1948 68.6901 35.0613 71.0204C32.6751 70.282 29.5927 71.5693 30.9211 74.7053C25.0862 74.8708 23.9975 80.0301 27.9563 80.6064C22.8597 83.4913 25.1889 88.4726 29.4661 87.4136C29.7673 90.9525 31.2018 96.6653 31.2018 100.612C31.2018 106.098 28.7129 107.372 25.311 107.372C22.6223 107.372 18.6761 106.395 16.0023 105.633V109.458C18.708 110.131 22.7661 110.994 25.8108 110.994C31.1733 110.994 34.1484 107.848 34.1484 101.857C34.1484 94.4993 31.7941 87.8108 32.5667 83.6203L32.3784 83.3772C29.6989 86.1731 27.9574 85.4337 27.7668 84.5332C27.3845 82.7302 30.5217 80.5242 32.3133 79.7574C32.3476 79.6398 32.3932 79.5166 32.4423 79.3922C30.7659 79.6512 28.7962 79.439 28.7277 78.2384C28.6467 76.8154 31.502 75.5452 35.2336 75.8613C35.3044 75.802 35.3774 75.7426 35.4493 75.6822C35.2142 75.5886 34.9643 75.471 34.6494 75.309C33.6851 74.8126 33.45 73.9864 33.7661 73.3872C34.1119 72.7288 35.1663 72.4709 36.0234 72.4891C37.3665 72.5176 38.5089 72.8429 39.3442 73.1818C39.4389 73.1419 39.5337 73.1019 39.6238 73.0677C39.3134 72.8258 39.0441 72.561 38.8866 72.2917C38.6561 71.8957 38.599 71.3513 39.0464 70.9987C39.5679 70.5867 40.8928 70.4407 42.0899 71.5282C42.3376 71.753 42.5475 71.9699 42.737 72.1798C42.8705 72.1547 43.004 72.1285 43.1398 72.1068C42.9424 71.8021 42.7849 71.4837 42.7336 71.1893C42.6639 70.7853 42.7952 70.3505 43.2699 70.1976C43.788 70.0298 44.4431 70.2957 44.7843 70.8001C45.1495 71.3411 45.372 72.0052 45.5124 72.4788C42.8728 72.7858 35.8716 74.3846 35.8716 82.8466C35.8716 91.0985 42.7267 99.7659 42.7267 112.555C42.7153 117.202 41.6905 121.864 37.4784 127.295C34.2248 131.488 29.0575 135.533 21.0007 138.856C21.0098 138.861 21.019 138.867 21.0281 138.871C21.3374 139.022 21.6592 139.153 21.9878 139.271C22.1054 139.313 22.2263 139.346 22.3462 139.383C22.5584 139.451 22.7741 139.514 22.9932 139.567C23.1541 139.606 23.3162 139.641 23.4805 139.673C23.6631 139.709 23.848 139.738 24.034 139.765C24.2189 139.791 24.4026 139.818 24.5909 139.835C24.7575 139.85 24.9275 139.855 25.0976 139.863C25.2779 139.871 25.4559 139.886 25.6385 139.886H28.5349C35.2006 136.194 38.5089 132.809 40.8015 129.633C45.2716 131.625 49.5716 132.48 53.4471 132.48C60.7119 132.48 66.9051 129.134 70.1336 123.165C73.4567 121.17 75.6604 117.07 75.7985 114.14C77.8686 111.536 78.2509 108.249 77.6152 106.031C77.4635 105.502 77.0332 105.487 76.2892 105.939C69.7422 109.863 63.4028 111.734 57.3522 111.734C53.6833 111.734 49.9208 111.15 45.9175 109.992C45.6322 105.7 44.7501 102.103 44.4225 99.9222C43.9546 97.0419 44.62 94.9112 47.7811 94.9112C50.1 94.9112 54.3908 95.5001 57.819 97.059C61.2152 98.603 63.2351 101.643 64.6467 101.643C65.2196 101.643 65.8233 101.287 65.8233 100.074C65.8233 97.6159 64.9469 93.6582 63.857 92.2488C67.0364 92.0663 69.5607 92.0982 70.9803 92.2591ZM45.9723 114.284C49.6446 115.304 54.7218 115.849 58.9328 115.553C66.3357 115.034 71.8922 112.278 75.0202 110.271C73.1418 115.017 66.0926 117.966 59.258 118.8C59.2135 119.146 59.1622 119.483 59.1005 119.809C64.2268 119.536 69.0951 117.87 71.3022 116.349C70.04 121.017 63.7703 122.893 58.0769 123.164C57.916 123.53 57.7471 123.877 57.5713 124.205C60.8865 124.264 64.0602 123.649 65.9523 123.053C64.2496 126.302 58.377 128.869 52.3949 128.869C49.454 128.869 45.7863 128.296 42.6023 126.78C44.9041 122.574 45.7908 118.26 45.9723 114.284ZM61.5701 96.2499C61.3818 96.4861 61.1193 96.1129 61.0143 96.0308C55.5012 90.9376 36.2128 93.8762 37.726 81.1587C38.0775 78.1996 40.0187 75.1367 43.432 74.3652C43.206 74.7236 42.9641 75.2177 42.8032 75.8237L43.3567 75.972C44.9851 73.2115 49.0717 73.3119 49.4221 76.1192C49.4152 76.101 52.6539 79.4196 53.374 80.094C53.5589 80.2561 53.6502 80.3565 53.5315 80.5174C53.4448 80.6349 53.026 80.6041 52.622 80.4649L52.4976 80.7947C53.1755 81.3356 55.346 81.8343 59.1416 81.5947C60.2292 81.5353 61.4754 81.4931 62.8151 81.3048C61.0919 83.0349 59.9347 85.3047 59.2968 87.8507C59.1975 88.2159 59.0241 88.5582 58.2652 88.6176C50.9159 89.1893 44.7318 88.3311 42.6046 84.378C42.3604 83.925 42.4152 83.5678 42.8112 83.3259C43.2768 83.0429 43.8736 83.0429 44.5001 83.1478L44.6485 82.826C43.4799 82.0888 41.5239 81.9667 40.5607 83.1615C39.8909 83.9923 40.0278 85.1472 40.7045 86.0978L41.0526 85.9666C41.0069 85.7418 40.9796 85.517 40.9887 85.3115C40.9921 85.2271 41.0503 85.1529 41.1313 85.1301C41.2135 85.1061 41.3002 85.1381 41.3482 85.2088C43.9101 88.9748 48.7134 90.2483 53.1013 91.2126C59.3539 92.5946 61.7835 95.5572 61.5701 96.2499ZM61.3555 88.5297C60.8454 88.5548 60.7028 88.1976 60.7792 87.9682C61.5849 85.5649 62.2867 83.7515 63.5946 82.3696C64.9731 80.9122 66.5046 80.4581 69.8654 80.4581C74.5066 80.4581 78.3844 85.1506 78.3844 91.7091C78.3844 92.6836 77.0766 92.6768 76.6566 91.7855C75.0772 88.9976 72.9386 88.597 69.5698 88.3494C67.0855 88.2022 64.0864 88.4133 61.3555 88.5297ZM46.7095 77.5263C46.9993 78.0467 47.0359 78.647 46.6912 78.8729C46.4413 79.0338 46.0658 78.9517 45.752 78.6538L45.5808 78.7018C45.6482 78.9026 45.7292 79.1069 45.8308 79.3123C46.5885 80.8346 47.9899 81.8012 48.9622 81.4577C49.9413 81.1348 50.1262 79.633 49.373 78.1175C48.6198 76.602 47.2116 75.6354 46.2313 75.9652C45.9255 76.0702 45.7007 76.2961 45.5523 76.5985L45.6219 76.6887C46.0202 76.6556 46.5006 77.1018 46.7095 77.5263ZM21.9171 118.538C20.6504 118.475 18.1409 118.504 16 118.561V121.124C18.805 120.568 21.5656 120.051 21.5656 120.051L21.9171 118.538Z" fill="black"/>
<path d="M75.0156 110.265C71.8888 112.27 66.3266 115.03 58.9282 115.55C54.7195 115.845 49.6367 115.297 45.9666 114.278C45.9107 115.502 45.7863 116.766 45.5763 118.041C47.6441 118.573 51.3279 119.275 56.6413 119.424C56.4051 120.853 54.9546 125.702 51.2412 128.837C58.0096 129.121 64.1435 126.488 65.9466 123.047C64.0556 123.643 60.8785 124.258 57.5657 124.199C57.7414 123.871 57.9103 123.525 58.0712 123.158C63.76 122.889 70.0355 121.008 71.2976 116.343C69.0917 117.863 64.2188 119.53 59.096 119.803C59.1576 119.478 59.209 119.14 59.2535 118.794C66.0847 117.96 73.1372 115.008 75.0156 110.265Z" fill="white"/>
<path d="M46.2313 75.9664C47.2116 75.6366 48.6198 76.6032 49.373 78.1187C50.1262 79.6342 49.9402 81.136 48.9622 81.459C47.991 81.8025 46.5885 80.8359 45.8308 79.3136C45.7281 79.1081 45.6482 78.9039 45.5797 78.703L45.7509 78.6551C46.0647 78.9529 46.4402 79.0351 46.6901 78.8742C47.0347 78.6482 46.9982 78.0468 46.7083 77.5276C46.5006 77.1031 46.0202 76.6569 45.6219 76.6911L45.5523 76.6009C45.7007 76.2962 45.9255 76.0714 46.2313 75.9664ZM53.1013 91.2116C48.7134 90.2473 43.909 88.9737 41.3482 85.2078C41.3002 85.1382 41.2135 85.1062 41.1313 85.1291C41.0503 85.1519 40.9921 85.2261 40.9887 85.3105C40.9796 85.5159 41.0069 85.7407 41.0526 85.9656L40.7045 86.0968C40.0289 85.1462 39.892 83.9902 40.5607 83.1605C41.525 81.9657 43.4811 82.0889 44.6485 82.825L44.5001 83.1468C43.8736 83.0418 43.2768 83.0418 42.8112 83.3248C42.4152 83.5656 42.3604 83.9228 42.6046 84.377C44.7318 88.3313 50.9159 89.1883 58.2652 88.6166C59.0241 88.5572 59.1987 88.2149 59.2968 87.8497C59.9348 85.3037 61.0919 83.035 62.8151 81.3038C61.4754 81.4921 60.2292 81.5343 59.1416 81.5937C55.346 81.8333 53.1755 81.3346 52.4976 80.7937L52.622 80.4639C53.026 80.6031 53.4448 80.6339 53.5315 80.5164C53.6502 80.3555 53.5589 80.255 53.374 80.093C52.654 79.4174 49.4152 76.0988 49.4221 76.1182C49.0717 73.3109 44.9851 73.2105 43.3567 75.971L42.8032 75.8227C42.9641 75.2167 43.206 74.7237 43.432 74.3642C40.0187 75.1357 38.0775 78.1975 37.726 81.1577C36.2128 93.8752 55.5024 90.9366 61.0143 96.0297C61.1193 96.1119 61.3806 96.4851 61.5701 96.2488C61.7835 95.5573 59.3539 92.5947 53.1013 91.2116Z" fill="white"/>
</svg>
