<svg width="200" height="200" viewBox="0 0 200 200" fill="none" xmlns="http://www.w3.org/2000/svg">
<path d="M28.8758 73.4596C32.8025 72.5133 37.0671 73.0387 40.6343 74.9406C41.596 75.4429 42.4948 76.0559 43.3474 76.7226C42.2582 77.543 41.1582 78.3464 40.0567 79.1499C37.0149 77.0253 33.0252 76.3554 29.4503 77.3325C25.9984 78.2466 22.9934 80.6723 21.3512 83.8401C20.2358 85.9694 19.735 88.4167 19.9332 90.8117C20.1298 93.3819 21.133 95.8814 22.7584 97.8816C24.2793 99.7696 26.3409 101.22 28.6392 101.999C31.1525 102.864 33.9378 102.911 36.4834 102.146C38.8277 101.447 40.9585 100.057 42.5531 98.2027C44.5841 95.8629 45.7378 92.7674 45.6794 89.6641C45.6917 89.5735 45.6395 89.4413 45.744 89.3906C46.933 88.515 48.1236 87.6424 49.3096 86.7621C49.8227 89.6272 49.603 92.6276 48.6306 95.3744C47.8041 97.7295 46.4368 99.891 44.6732 101.656C42.9218 103.411 40.7787 104.776 38.4421 105.606C35.4587 106.677 32.1695 106.866 29.0786 106.168C26.7711 105.65 24.5773 104.632 22.6908 103.205C20.7013 101.705 19.0483 99.7604 17.8976 97.5513C16.3706 94.6431 15.7453 91.2802 16.0941 88.0157C16.326 85.7743 17.0189 83.5805 18.1204 81.6141C19.182 79.7045 20.626 78.0131 22.3313 76.6504C24.2439 75.1234 26.4946 74.0219 28.8773 73.4581L28.8758 73.4596ZM64.3543 81.0441C66.76 79.5801 69.7066 79.1453 72.4673 79.5755C74.4122 79.872 76.2818 80.7154 77.729 82.0581C76.6797 82.8293 75.6366 83.6097 74.5796 84.3732C73.6686 83.7111 72.5809 83.2994 71.4625 83.1765C69.9493 83.0121 68.3685 83.2809 67.0427 84.0475C66.0733 84.6006 65.2576 85.4209 64.7107 86.3949C63.5078 88.5503 63.5585 91.3663 64.875 93.4602C65.4803 94.4204 66.356 95.2023 67.3699 95.7108C69.5991 96.8108 72.3628 96.6618 74.5105 95.4358C74.7947 95.2838 75.0728 95.1163 75.3631 94.978C76.2987 95.6801 77.2466 96.3684 78.1868 97.0643C76.7442 98.6251 74.744 99.6022 72.6639 99.9678C69.8694 100.462 66.863 100.035 64.4341 98.5253C62.543 97.3685 61.0743 95.5526 60.32 93.4694C59.4029 90.9346 59.4321 88.0526 60.4675 85.5577C61.2402 83.6896 62.6244 82.0857 64.3558 81.0457L64.3543 81.0441ZM32.7886 89.3031C37.2177 86.0431 41.6406 82.774 46.0727 79.5171C46.8746 80.5479 47.5521 81.6771 48.0944 82.8661C42.9956 86.6284 37.8921 90.3846 32.7933 94.1454C30.6563 92.8088 28.5224 91.4692 26.387 90.1311C26.3901 88.518 26.3901 86.905 26.387 85.2919C28.5224 86.6254 30.6548 87.965 32.7871 89.3015L32.7886 89.3031ZM81.8615 79.6876C87.664 79.6815 93.468 79.6891 99.2705 79.6845C97.8049 80.7799 96.3239 81.8568 94.8552 82.9476C94.7784 82.9967 94.7124 83.0797 94.614 83.0705C91.8196 83.072 89.0236 83.0705 86.2276 83.0705C86.2276 84.5683 86.226 86.0646 86.2276 87.561C87.9467 87.561 89.6657 87.561 91.3848 87.561C92.6937 87.5441 94.0226 87.6808 95.2654 88.1171C96.3761 88.5073 97.4162 89.1909 98.0752 90.1834C98.8372 91.3002 99.0692 92.6982 98.9862 94.0286C98.9233 95.2315 98.533 96.439 97.7665 97.3792C97.1181 98.195 96.2194 98.7849 95.2593 99.172C93.9473 99.6959 92.5263 99.8787 91.1236 99.8972C88.0358 99.8941 84.9494 99.8987 81.8615 99.8956C81.863 93.1591 81.863 86.4241 81.8615 79.6891V79.6876ZM86.2245 90.9346C86.2322 92.7935 86.2245 94.6523 86.2291 96.5128C87.7362 96.5112 89.2448 96.5128 90.7519 96.5128C91.4754 96.5235 92.2052 96.4559 92.9011 96.2501C93.4603 96.0749 94.0087 95.78 94.3559 95.2945C94.7246 94.7906 94.8414 94.1438 94.8091 93.5309C94.7784 92.9947 94.6217 92.4432 94.2592 92.033C93.8828 91.5875 93.342 91.3233 92.789 91.1696C91.6706 90.8639 90.5015 90.9438 89.3554 90.9315C88.3107 90.9346 87.2676 90.9254 86.223 90.9361L86.2245 90.9346ZM103.037 79.6861C108.139 79.6861 113.243 79.6876 118.345 79.6845C116.819 80.8183 115.284 81.9398 113.756 83.0705C111.644 83.0658 109.531 83.0705 107.42 83.0689C107.417 84.7081 107.419 86.3473 107.419 87.9865C110.524 87.988 113.628 87.985 116.733 87.988C116.732 89.1095 116.733 90.2325 116.733 91.3555C113.628 91.3555 110.524 91.3555 107.42 91.3555C107.419 93.0731 107.419 94.7921 107.42 96.5112C111.057 96.5112 114.695 96.5112 118.331 96.5112C118.331 97.6388 118.331 98.768 118.331 99.8956C113.234 99.8956 108.136 99.8956 103.04 99.8956C103.04 93.1591 103.04 86.4226 103.04 79.6861H103.037ZM122.377 79.6861C124.929 79.6861 127.479 79.6861 130.031 79.6861C131.076 79.6692 132.128 79.703 133.156 79.9058C134.889 80.2299 136.596 81.0165 137.749 82.3822C138.828 83.6327 139.319 85.3088 139.296 86.9434C139.315 88.6901 138.728 90.4845 137.49 91.7457C136.222 93.0823 134.419 93.7828 132.624 94.0394C131.515 94.216 130.391 94.1607 129.272 94.1684C128.429 94.1684 127.584 94.1684 126.74 94.1684C126.739 96.0765 126.74 97.9845 126.739 99.8925C125.284 99.8925 123.829 99.8925 122.376 99.8925C122.374 93.156 122.374 86.4195 122.376 79.683L122.377 79.6861ZM126.742 83.0705C126.742 85.6483 126.742 88.2262 126.742 90.8025C127.522 90.8025 128.304 90.8025 129.086 90.8025C130.057 90.7871 131.042 90.8624 131.999 90.6596C132.865 90.4799 133.717 90.0466 134.239 89.3138C134.861 88.4535 134.995 87.3351 134.884 86.3028C134.792 85.4194 134.405 84.5407 133.701 83.9769C132.924 83.3424 131.901 83.1089 130.917 83.0705C129.526 83.0705 128.134 83.0705 126.742 83.0705V83.0705Z" fill="#00A55C"/>
<path d="M60.5781 106.601C62.099 106.601 63.6199 106.601 65.1408 106.601C67.3776 110.255 69.5898 113.923 71.8327 117.573C74.0511 113.92 76.2464 110.253 78.4663 106.6C79.892 106.604 81.3192 106.6 82.7464 106.601C82.7479 113.338 82.7479 120.074 82.7464 126.811C81.5404 126.811 80.3329 126.812 79.1269 126.811C79.1239 121.766 79.13 116.719 79.1239 111.673C76.9577 115.232 74.8085 118.804 72.65 122.368C72.0386 122.368 71.4256 122.368 70.8142 122.368C68.6035 118.856 66.4067 115.337 64.199 111.823C64.196 116.819 64.2006 121.815 64.1975 126.811C62.99 126.812 61.784 126.811 60.5781 126.811C60.5781 120.074 60.5765 113.338 60.5781 106.601V106.601ZM93.7383 106.614C95.1087 106.583 96.4821 106.614 97.854 106.598C100.635 113.333 103.401 120.073 106.173 126.811C104.887 126.812 103.603 126.811 102.317 126.811C101.672 125.215 101.028 123.617 100.383 122.021C97.304 122.016 94.2253 122.022 91.1467 122.018C90.503 123.612 89.8762 125.215 89.2371 126.811C88.0096 126.811 86.7821 126.812 85.5547 126.809C88.28 120.076 91.0237 113.35 93.7414 106.614H93.7383ZM92.4433 118.699C94.6463 118.699 96.8493 118.699 99.0538 118.699C97.9508 115.95 96.8493 113.2 95.7478 110.448C94.6463 113.198 93.5417 115.948 92.4433 118.699V118.699ZM109.015 106.603C110.58 106.601 112.147 106.603 113.714 106.603C115.721 106.604 117.753 106.534 119.72 107.001C120.694 107.23 121.652 107.586 122.477 108.164C123.144 108.632 123.709 109.251 124.086 109.977C124.591 110.924 124.795 112.004 124.828 113.071C124.888 114.522 124.646 116.037 123.858 117.282C123.301 118.182 122.47 118.895 121.532 119.379C119.81 120.266 117.839 120.503 115.925 120.528C114.828 120.543 113.731 120.529 112.636 120.535C112.636 122.628 112.636 124.72 112.636 126.814C111.428 126.814 110.222 126.816 109.016 126.814C109.015 120.078 109.015 113.341 109.016 106.606L109.015 106.603ZM112.639 109.937C112.631 112.356 112.637 114.776 112.636 117.195C113.373 117.195 114.112 117.195 114.851 117.195C115.893 117.194 116.947 117.228 117.974 117.025C118.875 116.854 119.792 116.481 120.371 115.741C121.038 114.89 121.141 113.74 121.029 112.702C120.942 111.898 120.525 111.113 119.824 110.686C118.827 110.075 117.623 109.987 116.483 109.941C115.201 109.932 113.92 109.943 112.639 109.937V109.937ZM128.796 115.976C128.802 112.849 128.785 109.723 128.804 106.598C130.008 106.608 131.212 106.598 132.417 106.603C132.417 109.433 132.415 112.263 132.417 115.092C133.349 115.094 134.282 115.091 135.214 115.095C135.297 115.082 135.419 115.126 135.476 115.035C137.625 112.224 139.779 109.414 141.926 106.603C143.397 106.601 144.868 106.601 146.338 106.603C143.771 109.809 141.201 113.014 138.631 116.218C141.611 119.75 144.593 123.279 147.575 126.811C146.027 126.814 144.48 126.811 142.933 126.812C140.487 123.898 138.044 120.984 135.602 118.068C134.538 118.068 133.477 118.068 132.415 118.07C132.414 120.984 132.415 123.898 132.415 126.812C131.209 126.816 130.003 126.811 128.799 126.816C128.785 123.204 128.797 119.591 128.793 115.979L128.796 115.976ZM150.413 106.601C155.074 106.6 159.732 106.6 164.391 106.601C164.393 107.712 164.391 108.824 164.391 109.937C160.938 109.938 157.487 109.935 154.035 109.938C154.034 111.54 154.034 113.141 154.035 114.744C157.128 114.745 160.222 114.744 163.316 114.745C163.317 115.851 163.316 116.957 163.316 118.063C160.22 118.068 157.126 118.056 154.031 118.07C154.038 119.87 154.031 121.671 154.035 123.471C157.592 123.474 161.151 123.47 164.709 123.473C164.709 124.583 164.709 125.696 164.708 126.808C159.944 126.809 155.178 126.809 150.413 126.808C150.413 120.071 150.413 113.335 150.413 106.6V106.601ZM166.875 106.601C172.582 106.601 178.291 106.601 184 106.601C184 107.712 184 108.824 184 109.937C181.732 109.941 179.466 109.93 177.199 109.943C177.202 115.565 177.2 121.188 177.2 126.811C175.995 126.814 174.789 126.811 173.583 126.812C173.575 121.188 173.581 115.564 173.579 109.94C171.344 109.937 169.11 109.94 166.875 109.938C166.874 108.826 166.874 107.714 166.875 106.603V106.601Z" fill="#F37C33"/>
</svg>
