<svg width="200" height="200" viewBox="0 0 200 200" fill="none" xmlns="http://www.w3.org/2000/svg">
<path fill-rule="evenodd" clip-rule="evenodd" d="M25 169.391V150.683H40.6373V169.391H36.819V154.258H28.8183V169.391H25V169.391ZM170.457 159.787C169.709 159.01 168.778 158.637 167.645 158.637C166.484 158.637 165.554 159.01 164.805 159.787C164.084 160.564 163.72 161.488 163.72 162.562C163.72 163.662 164.081 164.589 164.829 165.363C165.578 166.136 166.505 166.513 167.641 166.513C168.778 166.513 169.705 166.14 170.454 165.363C171.202 164.586 171.59 163.662 171.59 162.562C171.59 161.488 171.202 160.561 170.454 159.787H170.457ZM171.542 155.762H175V169.391H171.542V167.59C170.334 169.011 168.833 169.715 167.051 169.715C165.039 169.715 163.36 169.041 162.044 167.664C160.729 166.29 160.084 164.562 160.084 162.512C160.084 160.461 160.753 158.76 162.072 157.433C163.387 156.082 165.066 155.409 167.051 155.409C168.806 155.409 170.354 156.182 171.542 157.546V155.759V155.762ZM90.9349 152.337C90.9349 151.163 91.8895 150.286 93.1291 150.286C94.3412 150.286 95.2717 151.213 95.2717 152.337C95.2717 153.564 94.3412 154.461 93.1291 154.461C91.8895 154.461 90.9349 153.561 90.9349 152.337ZM86.4436 161.191H93.5926C93.2561 159.414 91.941 158.34 90.0833 158.34C88.2497 158.34 86.8831 159.414 86.4436 161.191ZM87.5012 150.286C88.7133 150.286 89.6678 151.213 89.6678 152.337C89.6678 153.564 88.7407 154.461 87.5012 154.461C86.2616 154.461 85.3345 153.561 85.3345 152.337C85.3345 151.213 86.289 150.286 87.5012 150.286ZM96.9989 163.815H86.4436C86.9586 165.74 88.3287 166.717 90.5469 166.717C92.068 166.717 93.7643 166.163 95.0485 165.176L96.5147 167.41C94.7395 169.021 92.7136 169.695 90.3924 169.695C87.9132 169.695 86.0315 168.994 84.7164 167.62C83.4013 166.246 82.7557 164.542 82.7557 162.568C82.7557 160.494 83.4253 158.793 84.7954 157.443C86.162 156.092 87.9166 155.415 90.0868 155.415C92.1264 155.415 93.8296 156.039 95.1447 157.266C96.4598 158.493 97.1328 160.144 97.1328 162.268C97.1328 162.745 97.0813 163.269 97.0023 163.819L96.9989 163.815ZM51.8107 158.613H49.644C47.8379 158.613 46.9348 159.24 46.9348 160.464C46.9348 161.665 47.8138 162.265 49.5685 162.265C50.3445 162.265 51.0896 162.215 51.8142 162.091V158.613H51.8107ZM55.3475 155.762V169.391H51.8107V164.662C51.1274 164.782 50.3995 164.943 49.5239 164.969L46.5983 169.394H42.6254L46.121 164.489C44.2874 163.739 43.3225 162.442 43.3225 160.417C43.3225 157.639 45.4102 155.765 49.541 155.765H55.3475V155.762ZM79.243 156.913C80.3246 157.936 80.8671 159.34 80.8671 161.164V169.391H77.2274V161.815C77.2274 159.74 76.0908 158.64 74.4151 158.64C72.5815 158.64 71.3179 159.914 71.3179 161.915V169.394H67.6781V161.841C67.6781 159.814 66.569 158.64 64.8384 158.64C63.0597 158.64 61.7686 159.914 61.7686 161.941V169.394H58.1288V155.762H61.6896V157.713C62.4897 156.289 64.1413 155.362 65.9715 155.389C67.7262 155.389 69.3503 156.216 70.0989 157.79C71.1325 156.289 73.0416 155.389 75.1293 155.389C76.8084 155.389 78.1751 155.889 79.2327 156.916L79.243 156.913ZM109.36 165.366C110.081 164.616 110.445 163.692 110.445 162.592C110.445 161.491 110.085 160.564 109.36 159.814C108.639 159.063 107.709 158.69 106.548 158.69C105.412 158.69 104.484 159.067 103.763 159.814C103.039 160.564 102.678 161.491 102.678 162.592C102.678 163.692 103.042 164.616 103.763 165.366C104.484 166.116 105.415 166.49 106.548 166.49C107.709 166.49 108.639 166.116 109.36 165.366ZM112.149 157.489C113.464 158.863 114.109 160.567 114.109 162.568C114.109 164.569 113.44 166.27 112.121 167.647C110.806 169.021 109.154 169.721 107.166 169.721C105.439 169.721 103.842 168.991 102.754 167.694V175H99.1141V155.769H102.726V157.556C103.884 156.159 105.412 155.419 107.19 155.419C109.178 155.419 110.83 156.119 112.145 157.493L112.149 157.489ZM122.962 166.47C124.071 166.47 124.974 166.093 125.722 165.343C126.471 164.569 126.859 163.642 126.859 162.568C126.859 161.491 126.471 160.567 125.722 159.817C124.974 159.067 124.071 158.693 122.962 158.693C121.852 158.693 120.922 159.067 120.173 159.817C119.425 160.567 119.064 161.491 119.064 162.568C119.064 163.642 119.425 164.569 120.173 165.343C120.922 166.093 121.849 166.467 122.962 166.467V166.47ZM117.543 157.489C118.965 156.089 120.771 155.389 122.962 155.389C125.156 155.389 126.962 156.089 128.38 157.489C129.798 158.863 130.495 160.567 130.495 162.568C130.495 164.592 129.798 166.293 128.38 167.67C126.958 169.044 125.152 169.748 122.962 169.748C120.767 169.748 118.961 169.048 117.543 167.67C116.125 166.296 115.428 164.596 115.428 162.568C115.428 160.567 116.125 158.867 117.543 157.489ZM140.741 155.765H144.381V169.398H140.741V164.809C139.677 165.399 138.523 165.696 137.62 165.696C135.945 165.696 134.705 165.396 133.596 164.672C132.487 163.899 131.869 162.448 131.869 160.344V155.769H135.481V160.097C135.481 161.698 136.333 162.498 138.036 162.498C138.99 162.498 139.804 162.368 140.745 162.005V155.772L140.741 155.765ZM156.406 169.398L150.806 163.102V169.398H147.166V155.745H150.806V161.154L155.915 155.765H160.51L154.24 162.078L160.874 169.394H156.41L156.406 169.398Z" fill="#EB2316"/>
<path fill-rule="evenodd" clip-rule="evenodd" d="M100.089 25C67.9802 25 41.8562 50.3674 41.8562 81.5539C41.8562 112.737 67.9767 138.108 100.089 138.108C132.198 138.108 158.322 112.74 158.322 81.5539C158.322 50.3707 132.198 25 100.089 25V25Z" fill="white"/>
<path fill-rule="evenodd" clip-rule="evenodd" d="M129.475 40.9902C125.032 52.0615 114.913 54.3625 100.257 54.3625C98.6848 54.3625 97.1259 54.3391 95.6219 54.3158C94.166 54.2958 92.7925 54.2758 91.443 54.2758C90.2447 54.2758 89.0394 54.2891 87.8479 54.3391C89.9013 49.4437 93.1771 46.1156 97.8436 44.1015C104.347 41.2903 112.798 41.2636 120.259 41.2403C123.511 41.2269 126.622 41.2169 129.475 40.9868V40.9902Z" fill="#008F32"/>
<path fill-rule="evenodd" clip-rule="evenodd" d="M134.042 44.5416C127.467 58.4474 112.818 59.8414 100.258 59.8414C97.5003 59.8414 94.8598 59.778 92.4115 59.7613L89.249 71.7764C105.449 58.951 126.869 71.6664 124.579 91.0212C123.037 104.057 113.467 112.58 103.345 115.031C92.3154 117.702 80.0981 113.704 74.6212 102.793C74.0409 101.639 73.028 99.328 72.6434 98.0942L84.2735 95.193C84.4795 95.8432 84.8263 96.4735 85.1938 97.0471C92.9781 109.242 108.756 103.143 110.538 90.4943C112.351 77.6255 93.7575 70.7693 85.283 85.8123L74.968 81.5439L74.7895 81.4672L79.7616 62.0756C80.0672 60.695 81.1007 56.8468 81.2793 56.2165C86.9003 36.1413 105.085 35.8245 119.672 35.7712C113.639 33.3335 107.026 31.9829 100.086 31.9829C71.8914 31.9829 49.0398 54.1756 49.0398 81.5572C49.0398 108.939 71.8914 131.131 100.086 131.131C128.28 131.131 151.132 108.939 151.132 81.5572C151.132 66.8376 144.522 53.6254 134.039 44.5449L134.042 44.5416Z" fill="#EB2316"/>
</svg>
