<svg width="200" height="200" viewBox="0 0 200 200" fill="none" xmlns="http://www.w3.org/2000/svg">
<path d="M106.999 81.6643H130.334L102.334 118.998H78.9993L106.999 81.6643Z" fill="#C02222"/>
<path d="M178.166 68.8313C172.333 62.9976 163.582 63.0054 157.749 63.0028L140.948 63.0002C139.548 63.0002 137.797 63.0002 136.397 64.4001C134.997 65.8 134.997 67.5511 134.997 68.951V72.331H158.329C159.885 72.331 162.219 72.331 163.772 73.887C165.328 75.443 165.328 77.7769 165.328 79.3303V102.662C165.328 104.218 165.328 106.552 163.772 108.108C162.216 109.664 159.882 109.664 158.329 109.664H147.052C145.108 109.664 142.579 109.664 141.608 107.525C140.635 105.387 141.999 103.443 143.164 101.887L158.331 81.6643H134.999L125.666 94.1096C124.102 96.1938 122.749 97.997 122.749 100.331C122.749 102.662 124.009 104.343 125.666 106.555L128 109.664C130.334 112.776 132.668 115.888 135.777 117.444C138.889 118.998 142.582 118.998 147.64 118.998H157.751C163.585 118.998 172.335 118.998 178.169 113.164C184.003 107.33 184.003 98.775 184.003 95.663V86.3297C184.003 83.2203 184.003 74.6624 178.169 68.8313H178.166Z" fill="#C02222"/>
<path d="M83.6673 94.1096L81.3333 90.9976C78.9993 87.8883 76.668 84.7763 73.556 83.2203C70.444 81.6643 66.7518 81.6643 61.6935 81.6643H21.9481C20.5483 81.6643 18.7997 81.6643 17.3999 83.0642C16 84.464 16 86.2126 16 87.6125V90.995H25.3333V137.662H44V90.995H62.2764C64.2201 90.995 66.7492 90.995 67.7223 93.1339C68.6955 95.2727 67.332 97.2164 66.1663 98.7724L50.9993 118.992H74.3314L83.6647 106.55C85.2285 104.466 86.5815 102.66 86.5815 100.326C86.5815 97.9918 85.3222 96.3135 83.6647 94.1044L83.6673 94.1096Z" fill="#C02222"/>
</svg>
