<svg width="200" height="200" viewBox="0 0 200 200" fill="none" xmlns="http://www.w3.org/2000/svg">
<path fill-rule="evenodd" clip-rule="evenodd" d="M101.462 99.6612C101.462 98.2457 102.112 97.0008 102.856 96.0084C102.982 95.8406 103.083 95.6857 103.236 95.5251C104.056 94.6761 104.47 94.2243 105.485 93.5244C105.852 93.272 106.14 93.0727 106.529 92.8418C113.566 88.6512 124.1 88.6985 130.908 92.793C131.302 93.0311 131.602 93.1989 131.961 93.4671C132.401 93.7969 133.478 94.6373 133.821 94.9944C133.987 95.168 134.016 95.2569 134.182 95.429C134.366 95.6183 134.419 95.6929 134.584 95.8908C135.327 96.7914 136.06 98.2916 136.06 99.5952C136.06 101.108 135.252 102.532 134.353 103.601C133.448 104.678 132.415 105.502 131.224 106.25C128.134 108.187 123.405 109.491 119.656 109.491C116.818 109.491 114.896 109.421 112.151 108.695C111.325 108.477 110.42 108.203 109.684 107.908C109.271 107.741 108.913 107.589 108.508 107.424C108.127 107.268 107.782 107.076 107.391 106.881C104.84 105.606 101.459 102.719 101.459 99.664L101.462 99.6612ZM118.006 81.0014H119.789C123.002 81.0774 126.177 81.5651 128.996 82.4872C130.971 83.1326 131.179 83.276 132.978 84.0189C134.796 84.7689 138.073 86.9589 139.53 88.4232C142.023 90.9301 143.823 93.4986 144.512 97.1213C144.702 98.118 144.818 99.2195 144.703 100.271C144.677 100.509 144.707 100.731 144.676 100.973C144.522 102.165 144.303 103.251 143.887 104.368C143.293 105.967 142.39 107.532 141.353 108.807C141.227 108.962 141.154 109.063 141.025 109.208L140.055 110.298C139.839 110.571 139.578 110.718 139.331 110.968C138.403 111.907 137.287 112.678 136.193 113.409C133.999 114.876 131.36 116.042 128.514 116.887C125.772 117.7 122.253 118.255 118.744 118.256H118.705C116.931 118.255 115.112 118.079 113.545 117.862C111.93 117.638 110.426 117.268 109.019 116.877C108.251 116.663 107.626 116.425 106.916 116.19L104.937 115.379C104.607 115.213 104.299 115.093 103.986 114.936L103.08 114.449C101.991 113.901 101.083 113.25 100.108 112.573C99.3539 112.051 98.5221 111.282 97.8624 110.635L95.6337 108.083C94.0662 105.781 93.2659 103.958 92.8773 101.143C92.6865 99.7587 92.8228 99.6081 92.8299 98.597C92.8371 97.6319 93.2688 95.9926 93.5528 95.1364C93.9156 94.0422 94.3215 93.229 94.8851 92.2853C95.4129 91.4048 95.6624 91.0434 96.3049 90.2517C97.3676 88.938 97.9068 88.515 99.0556 87.491C99.9519 86.6936 100.86 86.13 101.835 85.4889L103.187 84.7159C104.722 83.8296 106.847 83.0336 108.527 82.4858C108.913 82.3596 109.224 82.2893 109.618 82.1817C112.241 81.4661 115.115 81.0688 118.008 81L118.006 81.0014Z" fill="#0068FF"/>
<path fill-rule="evenodd" clip-rule="evenodd" d="M23.6322 100.06C23.6322 97.9732 23.7813 97.1385 24.6002 95.3171C25.1065 94.1899 25.7906 93.3538 26.6381 92.5062C30.41 88.7315 36.7044 88.7917 40.5179 92.6052C42.9573 95.0446 44.1692 99.0144 42.9344 102.693C42.5357 103.88 41.9592 104.906 41.2034 105.877L39.2874 107.68C39.045 107.862 38.817 107.984 38.5617 108.15C38.2921 108.326 38.0339 108.431 37.7342 108.583C36.9927 108.957 35.8024 109.306 34.9261 109.428C33.2152 109.666 31.2131 109.451 29.6757 108.759L28.4825 108.16C27.7969 107.766 27.6005 107.553 27.0569 107.129C25.1509 105.639 23.6322 102.565 23.6322 100.061V100.06ZM33.5378 118.255H33.5192C28.7435 118.254 24.8641 116.588 21.4307 113.816L20.8628 113.321C20.1586 112.732 19.3555 111.751 18.7761 111.025C17.1871 109.038 15.7974 106.096 15.2926 103.551C15.1793 102.975 15 102.27 15 101.652V97.6677C15 96.0428 15.7171 93.9203 16.2993 92.4589C16.6192 91.6586 17.2731 90.3664 17.7751 89.6192C18.1853 89.0083 18.6557 88.2869 19.1361 87.7262C19.2365 87.61 19.2982 87.567 19.3914 87.4508C19.8288 86.9073 20.1888 86.6004 20.6936 86.097C23.5461 83.2444 28.4566 81 32.7964 81H34.0584C37.3297 81 41.2708 82.3624 43.716 84.0275L44.38 84.4936C45.3294 85.149 46.0322 85.8345 46.8267 86.629C50.9527 90.7551 53.1111 97.074 51.6297 103.817C51.3457 105.108 50.904 106.187 50.4537 107.289C49.8771 108.701 48.5089 110.744 47.4907 111.897C45.1631 114.53 42.7738 116.012 39.4967 117.251C37.8833 117.861 35.2932 118.255 33.5407 118.256L33.5378 118.255Z" fill="#0068FF"/>
<path fill-rule="evenodd" clip-rule="evenodd" d="M150.869 83.2584V112.877C150.869 114.239 151.371 115.178 151.987 115.941C152.45 116.515 153.78 117.391 154.787 117.391C156.032 117.391 156.63 117.375 157.697 116.648C159.042 115.732 159.57 114.401 159.568 112.809V98.5321C160.247 98.9868 164.786 102.657 165.536 103.256L174.518 110.411C175.023 110.814 175.47 111.189 175.999 111.586C176.275 111.792 176.467 111.962 176.738 112.175L181.984 116.359C182.731 116.945 183.051 117.393 183.805 117.393C184.449 117.393 185 116.842 185 116.198V86.0493C185 84.8159 184.357 83.6958 183.724 83.0763C183.275 82.6374 183.004 82.4969 182.456 82.2201C180.432 81.2004 178.05 82.2029 177.018 83.845C176.104 85.2949 176.302 86.719 176.302 88.9735C176.302 92.8701 176.302 96.7653 176.302 100.662C175.959 100.48 169.458 95.2666 168.849 94.7675C168.592 94.5567 168.372 94.3946 168.104 94.1838L161.341 88.7957C160.245 87.9854 158.782 86.7477 157.602 85.827L155.353 84.0243C154.834 83.617 154.375 83.2642 153.87 82.8511C153.469 82.5227 152.704 81.8042 152.195 81.8042C151.465 81.8042 150.867 82.4037 150.867 83.2656L150.869 83.2584Z" fill="#0068FF"/>
<path fill-rule="evenodd" clip-rule="evenodd" d="M57.5671 86.1142C57.5671 86.8155 57.8195 87.7161 58.0762 88.1951C58.6742 89.3138 59.823 90.1456 61.0908 90.4267C62.2697 90.6877 72.3575 90.5629 74.1028 90.5629C73.7443 91.0993 73.3456 91.5941 72.9455 92.1276C72.7275 92.4187 72.5654 92.6324 72.3474 92.9249L64.5399 103.247C64.1427 103.779 63.7425 104.309 63.3453 104.84L62.1406 106.425C61.7347 106.968 61.3532 107.476 60.9459 108.018L55.5478 115.171C55.3413 115.445 55.1118 115.683 55.1118 116.13C55.1118 116.799 55.6324 117.392 56.3079 117.392H86.0579C87.6226 117.392 89.3493 116.317 89.9689 114.86C91.3385 111.641 88.899 108.678 85.9934 108.691L71.3823 108.692C71.4339 108.497 71.7838 108.085 71.9287 107.91C72.9154 106.716 75.1526 103.644 76.125 102.346L88.126 86.4555C88.5591 85.879 90.3747 83.722 90.3747 83.1254C90.3747 82.4083 89.7609 81.7974 88.9133 81.7974H62.1506C60.378 81.7974 58.6699 82.8013 58.0131 84.3C57.7836 84.8234 57.5685 85.562 57.5685 86.1127L57.5671 86.1142Z" fill="#0068FF"/>
</svg>
