<svg width="200" height="200" viewBox="0 0 200 200" fill="none" xmlns="http://www.w3.org/2000/svg">
<path fill-rule="evenodd" clip-rule="evenodd" d="M63.3132 90.4513C64.0909 90.1577 65.0908 89.5228 65.4003 89.261C64.8845 88.9991 64.4877 88.7054 63.9481 88.1896C63.464 87.7055 62.3292 85.4438 57.909 85.4438C53.1475 85.4438 51.1318 88.7372 51.1318 91.3401C51.1318 91.6337 51.116 92.0305 51.2033 92.4115C45.0451 95.3239 39.5139 98.6172 33.3716 106.117H49.0447C48.148 106.466 46.783 106.997 45.7196 107.91L46.9973 112.425C49.3463 112.291 51.5683 111.632 53.0364 110.981C54.4014 110.362 60.3135 107.632 62.5911 100.173C62.7974 99.4108 63.7259 95.5143 63.8449 94.9271C63.9481 94.3557 64.3131 92.9828 65.448 92.1813C65.1385 91.9036 64.2576 91.2132 63.3132 90.7846C62.9879 90.6656 62.9879 90.5624 63.3132 90.4354V90.4513Z" fill="#D81E04"/>
<path fill-rule="evenodd" clip-rule="evenodd" d="M58.4005 88.0703C57.0752 88.0703 56.0039 89.1416 56.0039 90.451C56.0039 91.7604 57.0752 92.8318 58.4005 92.8318C59.7099 92.8318 60.7812 91.7604 60.7812 90.451C60.7812 89.1416 59.7099 88.0703 58.4005 88.0703Z" fill="#009D4B"/>
<path fill-rule="evenodd" clip-rule="evenodd" d="M53.2271 77H30.88L23.5156 98.5377H35.1018C35.4828 98.244 36.0145 97.7917 36.7207 97.3314L41.8076 80.8806L45.2914 92.2446C45.7358 92.0065 46.8944 91.4193 47.4261 91.1574C47.7038 86.6737 51.0607 84.1581 55.4809 83.6422L53.2192 77H53.2271Z" fill="#D81E04"/>
<path fill-rule="evenodd" clip-rule="evenodd" d="M20.6027 107.108L15 123.368H28.5543L32.5539 110.56H23.4357C23.7611 109.489 24.4515 107.989 25.126 107.108H20.6106H20.6027Z" fill="#D81E04"/>
<path fill-rule="evenodd" clip-rule="evenodd" d="M49.4728 112.108L52.8852 123.368H56.4007L52.6709 111.124C51.8456 111.481 50.5997 111.869 49.4648 112.108H49.4728Z" fill="#009D4B"/>
<path fill-rule="evenodd" clip-rule="evenodd" d="M62.3679 103.418C61.1299 105.815 58.7968 109.283 53.9004 111.695L57.3683 123.369H69.1847L62.3679 103.418Z" fill="#D81E04"/>
<path fill-rule="evenodd" clip-rule="evenodd" d="M71.0423 90.3316C70.2011 90.0062 68.6616 89.4666 66.7808 89.4666C66.2412 89.4666 65.7095 89.3952 65.4 89.2603C65.0905 89.5221 64.0906 90.157 63.3129 90.4506C62.9875 90.5697 62.9875 90.6728 63.3129 90.7998C64.2572 91.2283 65.1381 91.9187 65.4476 92.1965C66.8443 91.1807 68.0029 92.0616 71.0344 90.6808C71.3597 90.5617 71.3439 90.4586 71.0344 90.3316H71.0423Z" fill="#009D4B"/>
<path fill-rule="evenodd" clip-rule="evenodd" d="M19.3098 102.624L19.4288 102.743L19.3098 102.863C17.2068 102.863 15.8101 104.346 15.6196 106.053H27.2535C26.4123 106.862 25.4124 108.195 24.841 109.576H42.6568L46.7437 123.369H50.3148L47.0056 112.433L45.7279 107.918C46.7993 107.005 48.1563 106.465 49.053 106.124H33.3799C39.5222 98.6248 45.0534 95.3315 51.2115 92.419C51.1243 92.0381 51.1401 91.6413 51.1401 91.3477C51.1401 88.7448 53.1558 85.4514 57.9173 85.4514C59.4886 85.4514 61.2265 85.7609 62.52 86.7132C61.7582 86.0069 59.2981 84.5785 56.6237 84.5944C51.3306 84.6261 48.1404 88.0306 48.4182 91.8159C45.0375 93.3555 39.173 96.4901 35.4511 99.5215H15.6355C15.8974 101.331 17.2703 102.624 19.3098 102.624V102.624Z" fill="#009D4B"/>
<path fill-rule="evenodd" clip-rule="evenodd" d="M58.2974 90.7291L60.6067 89.5705C60.3449 88.9119 59.7973 88.396 59.1228 88.1738L58.0356 90.4831C57.9324 90.745 58.0356 90.8482 58.2974 90.7212V90.7291Z" fill="#FEFEFE"/>
<path fill-rule="evenodd" clip-rule="evenodd" d="M117.991 93.9346H107.802L107.786 106.767C107.786 111.838 106.095 115.044 102.564 115.044C99.8896 115.044 98.5485 113.282 98.5485 108.37V93.9346H98.4136H89.4462H88.7716V106.767C88.7716 111.838 87.0654 115.044 83.534 115.044C80.8438 115.044 79.5185 113.282 79.5185 108.37L79.5027 93.9346H68.3767L68.3608 111.441C68.3608 120.646 73.2731 123.44 79.5027 123.892C83.9308 124.217 87.7955 121.535 89.5176 119.631C91.5333 122.495 94.7949 123.614 98.5564 123.892C102.969 124.217 106.833 121.535 108.556 119.631L108.54 123.376H109.055H118.158L117.991 123.321L118.007 93.9346H117.991Z" fill="#D81E04"/>
<path fill-rule="evenodd" clip-rule="evenodd" d="M149.63 108.536C149.63 108.394 149.685 102.362 148.892 100.656C148.098 98.95 146.463 94.9107 139.424 93.514C137.996 93.2204 136.528 93.1172 135.115 93.1172C129.616 93.1331 124.704 94.9662 123.823 95.617V102.878C123.823 102.878 128.671 100.244 132.409 100.244C133.25 100.244 134.203 100.259 135.115 100.402C137.274 100.712 139.289 101.68 139.44 104.592C139.44 104.592 137.956 104.537 135.822 104.537H135.115C128.37 104.624 120.339 106.14 120.204 114.21C120.085 120.75 125.846 123.781 130.893 123.646C130.893 123.646 132.822 123.749 135.115 123.011C136.806 122.472 138.686 121.48 140.131 119.662C140.131 122.281 140.353 123.368 140.353 123.368H149.908C149.908 123.368 149.63 118.329 149.63 108.536V108.536ZM135.107 116.678C132.973 117.107 130.83 116.179 130.711 113.933C130.592 111.711 132.846 110.846 135.107 110.568C137.06 110.33 139.036 110.536 139.504 110.711C139.52 114.266 137.313 116.226 135.107 116.678Z" fill="#D81E04"/>
<path fill-rule="evenodd" clip-rule="evenodd" d="M174.192 93.9346V105.989H164.256L164.288 93.9346H153.463L153.495 123.368H164.224L164.256 112.592H174.192L174.207 123.368H184.929L185 93.9346H174.192Z" fill="#D81E04"/>
</svg>
