<svg width="240" height="126" viewBox="0 0 240 126" fill="none" xmlns="http://www.w3.org/2000/svg">
<rect width="240" height="126" fill="#C52928"/>
<path d="M32.38 31.9341C32.4162 32.5038 32.3332 33.0748 32.1364 33.6107C31.9397 34.1465 31.6334 34.6355 31.2371 35.0464C30.8408 35.4573 30.3632 35.781 29.8349 35.9971C29.3065 36.2131 28.7389 36.3167 28.1682 36.3012C27.6882 36.3288 27.208 36.2506 26.7616 36.0721C26.3151 35.8936 25.9134 35.6192 25.5847 35.2682V39.2729H23V27.6965H25.3529V28.6788C25.6719 28.3107 26.0699 28.0194 26.5173 27.8269C26.9647 27.6344 27.4499 27.5455 27.9365 27.5671C28.5259 27.5179 29.1189 27.5964 29.6752 27.7974C30.2315 27.9984 30.7378 28.3171 31.1596 28.7317C31.5815 29.1462 31.9089 29.647 32.1195 30.1996C32.3301 30.7523 32.419 31.3439 32.38 31.9341V31.9341ZM29.7965 31.9341C29.8281 31.6318 29.7958 31.3263 29.7018 31.0373C29.6078 30.7483 29.4541 30.4822 29.2506 30.2564C29.0472 30.0306 28.7986 29.8501 28.5209 29.7265C28.2433 29.6029 27.9427 29.5391 27.6388 29.5391C27.3349 29.5391 27.0344 29.6029 26.7567 29.7265C26.479 29.8501 26.2304 30.0306 26.027 30.2564C25.8236 30.4822 25.6699 30.7483 25.5759 31.0373C25.4818 31.3263 25.4496 31.6318 25.4812 31.9341C25.4496 32.2364 25.4818 32.5419 25.5759 32.8309C25.6699 33.1199 25.8236 33.386 26.027 33.6118C26.2304 33.8376 26.479 34.0181 26.7567 34.1417C27.0344 34.2653 27.3349 34.3291 27.6388 34.3291C27.9427 34.3291 28.2433 34.2653 28.5209 34.1417C28.7986 34.0181 29.0472 33.8376 29.2506 33.6118C29.4541 33.386 29.6078 33.1199 29.7018 32.8309C29.7958 32.5419 29.8281 32.2364 29.7965 31.9341V31.9341ZM40.6494 31.34V36.1718H38.3494V35.1129C38.0668 35.5264 37.6772 35.8554 37.2221 36.0647C36.7671 36.274 36.2638 36.3557 35.7659 36.3012C33.7753 36.3012 32.6129 35.1906 32.6129 33.7176C32.6129 32.2447 33.6471 31.1329 36.2565 31.1329H38.0647C38.0647 30.0741 37.4447 29.48 36.1271 29.48C35.2468 29.4671 34.386 29.739 33.6729 30.2553L32.8965 28.5753C33.9874 27.8917 35.254 27.5413 36.5412 27.5671C39.0471 27.5671 40.6494 28.7553 40.6494 31.34V31.34ZM38.0647 33.4847V32.6318H36.3859C35.2224 32.6318 34.8612 33.0459 34.8612 33.6141C34.8612 34.1823 35.3788 34.6471 36.2565 34.6471C36.6425 34.6721 37.0265 34.5727 37.3519 34.3635C37.6773 34.1543 37.9272 33.8463 38.0647 33.4847V33.4847ZM51.7341 34.1047V38.0071H49.46V36.1718H43.4918V38.0071H41.1918V34.1047H41.5529C42.7165 34.1047 42.9224 32.4247 43.0259 30.5647V27.6447H50.4165V34.1047H51.7341ZM44.4729 34.1047H48.0647V29.7129H45.3V30.7988C45.3868 31.9614 45.0968 33.121 44.4729 34.1059V34.1047ZM52.5094 27.6965H54.9647V32.8647L59.0988 27.8259H61.3212V36.1718H58.8659V31.0047L54.7576 36.1718H52.4835L52.5094 27.6965V27.6965ZM62.2506 31.9341C62.1938 31.0044 62.4175 30.079 62.8927 29.2779C63.368 28.4768 64.0728 27.8368 64.916 27.4409C65.7591 27.0451 66.7017 26.9115 67.6217 27.0575C68.5416 27.2036 69.3965 27.6225 70.0756 28.26C70.7547 28.8975 71.2267 29.7243 71.4305 30.6332C71.6342 31.5421 71.5604 32.4913 71.2185 33.3577C70.8765 34.2242 70.2823 34.968 69.5128 35.4928C68.7432 36.0176 67.8338 36.2992 66.9024 36.3012C66.3053 36.3403 65.7066 36.2564 65.1434 36.0545C64.5802 35.8527 64.0645 35.5372 63.6283 35.1277C63.1921 34.7182 62.8447 34.2234 62.6077 33.674C62.3707 33.1246 62.2491 32.5324 62.2506 31.9341ZM69.0729 31.9341C69.0729 31.3584 68.8443 30.8063 68.4372 30.3993C68.0301 29.9922 67.478 29.7635 66.9024 29.7635C66.3267 29.7635 65.7746 29.9922 65.3675 30.3993C64.9605 30.8063 64.7318 31.3584 64.7318 31.9341C64.7318 32.5098 64.9605 33.0619 65.3675 33.4689C65.7746 33.876 66.3267 34.1047 66.9024 34.1047C67.478 34.1047 68.0301 33.876 68.4372 33.4689C68.8443 33.0619 69.0729 32.5098 69.0729 31.9341V31.9341ZM74.24 86.0694C75.252 88.0042 76.4832 89.8161 77.9094 91.4694C80.0338 94.1102 82.732 96.2321 85.7992 97.6739C88.8663 99.1158 92.2218 99.8396 95.6106 99.7906C98.5797 99.7213 101.498 99.0067 104.164 97.6965C106.433 97.0365 108.422 95.6473 109.822 93.7435V98.9118L120.752 98.7047V43.3306H109.874V48.4976C108.41 46.4294 106.421 44.7885 104.112 43.7435C101.426 42.6275 98.5664 41.9893 95.6612 41.8576H94.9118C91.561 41.828 88.2417 42.5055 85.1706 43.8459C82.1397 45.4212 79.493 47.6449 77.4188 50.3588C75.1144 53.1084 73.3598 56.2753 72.2506 59.6871C71.9918 60.4871 71.76 61.2882 71.5271 62.1153C70.7296 65.151 70.3387 68.2791 70.3647 71.4176C70.4686 76.2841 71.6232 81.0707 73.7494 85.4494C73.8553 85.6482 73.9753 85.8376 74.1118 86.0176L74.24 86.0694V86.0694ZM102.665 85.1388C100.612 86.5522 98.1791 87.3091 95.6871 87.3094C93.1839 87.2816 90.7458 86.5078 88.6847 85.0871C86.8421 83.679 85.2973 81.9194 84.1397 79.91C82.9822 77.9006 82.2349 75.6815 81.9412 73.3812C81.5805 69.872 82.0679 66.3275 83.3624 63.0459C84.3076 60.5159 86.0032 58.335 88.2221 56.7953C90.4411 55.2556 93.0774 54.4305 95.7782 54.4305C98.4791 54.4305 101.115 55.2556 103.334 56.7953C105.553 58.335 107.249 60.5159 108.194 63.0459C109.305 66.006 109.78 69.1666 109.589 72.3223C109.407 74.8359 108.701 77.2835 107.518 79.5084C106.334 81.7334 104.699 83.6864 102.716 85.2423L102.665 85.1388V85.1388ZM23.4141 42.9423H49.6918C54.0388 42.6129 58.3553 43.9 61.8106 46.56C63.209 47.972 64.2915 49.665 64.9864 51.5269C65.6812 53.3888 65.9726 55.377 65.8412 57.36C65.9024 60.2194 65.14 63.0361 63.6447 65.4741C62.4081 67.6735 60.4437 69.3733 58.0894 70.2812C61.014 71.0261 63.5343 72.879 65.1176 75.4482C66.633 78.0149 67.4276 80.9429 67.4177 83.9235C67.4942 85.8552 67.1891 87.7831 66.5196 89.5967C65.8502 91.4104 64.8297 93.0742 63.5165 94.4929C61.9948 95.959 60.1836 97.0909 58.199 97.8162C56.2144 98.5415 54.1002 98.8441 51.9918 98.7047H23.4141V42.9423ZM35.5071 66.1976H43.2588C46.0768 66.4143 48.8968 65.8038 51.3729 64.4412C52.234 63.8291 52.9236 63.0063 53.3759 62.0517C53.8282 61.097 54.0281 60.0422 53.9565 58.9882C54.0431 58.0284 53.8763 57.0626 53.4727 56.1875C53.069 55.3123 52.4428 54.5584 51.6565 54.0012C49.0633 52.8073 46.2093 52.2919 43.3624 52.5035H35.6094V66.1718L35.5071 66.1976ZM35.5071 89.2988H45.0165C47.6066 89.4797 50.1971 88.9526 52.5106 87.7741C53.3439 87.1493 53.9992 86.3175 54.4115 85.3611C54.8239 84.4047 54.9789 83.3571 54.8612 82.3223C54.9769 81.2241 54.7844 80.1153 54.3052 79.1203C53.826 78.1254 53.0791 77.2836 52.1482 76.6894C48.8133 75.3855 45.226 74.8554 41.6565 75.1388H35.48L35.5071 89.2988ZM126.386 42.9423H138.427V63.3047H155.611V42.9423H167.678V98.6012H155.611V75.2165H138.427V98.6012H126.386V42.9423V42.9423ZM216.514 42.9423V98.7047H204.576V75.4494H203.44C201.457 75.3048 199.474 75.7353 197.729 76.6894C196.033 78.1052 194.658 79.8673 193.698 81.8576L192.948 82.9682L185.041 98.4718H171.062L179.641 82.3482C182.096 77.7482 184.318 75.0612 186.308 74.3635C184.676 74.2635 183.088 73.7898 181.668 72.979C180.248 72.1682 179.033 71.0419 178.116 69.6871C175.953 66.4728 174.867 62.6541 175.015 58.7823C174.914 55.5822 175.625 52.4085 177.082 49.5576C178.264 47.2408 180.221 45.412 182.613 44.3894C185.946 43.307 189.448 42.8429 192.948 43.02L216.514 42.9423V42.9423ZM204.576 52.4247H195.972C193.626 52.2004 191.273 52.7844 189.305 54.08C188.606 54.7929 188.072 55.6509 187.742 56.593C187.411 57.5352 187.292 58.5384 187.393 59.5318C187.296 60.5591 187.442 61.5948 187.819 62.5553C188.196 63.5159 188.794 64.3743 189.564 65.0612C191.715 66.3553 194.219 66.9435 196.721 66.7412H204.473L204.576 52.4259V52.4247Z" fill="white"/>
</svg>
