<svg width="200" height="200" viewBox="0 0 200 200" fill="none" xmlns="http://www.w3.org/2000/svg">
<path fill-rule="evenodd" clip-rule="evenodd" d="M149.66 107.654V104.802H148.405L144.83 95.8241C144.298 94.418 143.233 92.932 141.445 92.8566C141.255 92.8566 140.305 92.8566 140.115 92.8566C138.212 92.8566 137.223 94.2273 136.655 95.7487L133.04 104.802H131.744V107.654C137.639 107.654 143.69 107.654 149.66 107.654ZM136.344 104.802L139.729 95.5979H141.366L145.092 104.802H136.344V104.802Z" fill="#FEFEFE"/>
<path fill-rule="evenodd" clip-rule="evenodd" d="M44.063 92.8566C49.3903 92.8566 54.6777 92.8566 59.9651 92.8566C59.9651 93.7305 59.9651 94.6442 59.9651 95.5181H53.4224V107.614H50.6057V95.5181C48.552 95.5181 46.4982 95.5181 44.063 95.5181C44.063 94.6442 44.063 93.7305 44.063 92.8566V92.8566Z" fill="#FEFEFE"/>
<path fill-rule="evenodd" clip-rule="evenodd" d="M65.0618 92.8566H76.8919V95.5181H63.8819V98.7917H71.7553V101.453H63.8819V104.802H76.8919V107.619H65.1771C62.6665 107.619 61.145 106.057 61.145 103.853V96.7024C61.145 94.3071 62.7419 92.8611 65.0618 92.8611V92.8566Z" fill="#FEFEFE"/>
<path fill-rule="evenodd" clip-rule="evenodd" d="M82.2547 107.619H79.438V92.8566H95.6063V107.619H92.7541V95.5181H82.2547V107.619Z" fill="#FEFEFE"/>
<path fill-rule="evenodd" clip-rule="evenodd" d="M117.821 92.8566H126.036C128.165 92.8566 129.992 94.7196 129.992 96.6625V103.813C129.992 105.751 128.165 107.619 125.92 107.619H117.896C115.536 107.619 113.824 105.756 113.824 103.738V96.6625C113.824 94.5688 115.652 92.8566 117.816 92.8566H117.821ZM127.18 95.4826H116.605V104.767H127.18V95.4826V95.4826Z" fill="#FEFEFE"/>
<path fill-rule="evenodd" clip-rule="evenodd" d="M100.211 107.619H96.937L101.235 95.7487C101.958 94.2672 102.717 92.8211 104.544 92.8211C104.584 92.8211 105.724 92.8211 105.76 92.8211C107.472 92.8965 108.31 94.4934 109.033 95.8241L113.296 107.614H110.102L110.062 107.574H110.102L105.578 95.4382H104.323L100.175 107.61H100.215L100.211 107.619Z" fill="#FEFEFE"/>
<path fill-rule="evenodd" clip-rule="evenodd" d="M149.66 107.73V104.877H148.405L144.83 95.8995C144.298 94.4934 143.233 93.0074 141.445 92.932C141.255 92.932 140.305 92.932 140.115 92.932C138.212 92.932 137.223 94.3027 136.655 95.7842L133.04 104.877H131.744V107.73C137.639 107.73 143.69 107.73 149.66 107.73ZM136.344 104.877L139.729 95.6733H141.366L145.092 104.877H136.344V104.877Z" fill="#006CB5"/>
<path fill-rule="evenodd" clip-rule="evenodd" d="M44.063 92.932C49.3903 92.932 54.6777 92.932 59.9651 92.932C59.9651 93.8059 59.9651 94.7196 59.9651 95.5935H53.4224V107.69H50.6057V95.5935C48.552 95.5935 46.4982 95.5935 44.063 95.5935C44.063 94.7196 44.063 93.8059 44.063 92.932V92.932Z" fill="#EC691F"/>
<path fill-rule="evenodd" clip-rule="evenodd" d="M65.0618 92.932H76.8919V95.5935H63.8819V98.8271H71.7553V101.528H63.8819V104.877H76.8919V107.694H65.1771C62.6665 107.694 61.145 106.133 61.145 103.888V96.7734C61.145 94.3781 62.7419 92.932 65.0618 92.932V92.932Z" fill="#EC691F"/>
<path fill-rule="evenodd" clip-rule="evenodd" d="M82.2547 107.694H79.438V92.932H95.6063V107.694H92.7541V95.5979H82.2547V107.694Z" fill="#EC691F"/>
<path fill-rule="evenodd" clip-rule="evenodd" d="M117.821 92.932H126.036C128.165 92.932 129.992 94.795 129.992 96.698V103.888C129.992 105.827 128.165 107.694 125.92 107.694H117.896C115.536 107.694 113.824 105.831 113.824 103.777V96.7379C113.824 94.6442 115.652 92.932 117.816 92.932H117.821ZM127.18 95.558H116.605V104.842H127.18V95.558V95.558Z" fill="#EC691F"/>
<path fill-rule="evenodd" clip-rule="evenodd" d="M100.211 107.694H96.937L101.235 95.8241C101.958 94.3426 102.717 92.8965 104.544 92.8965C104.584 92.8965 105.724 92.8965 105.76 92.8965C107.472 92.972 108.31 94.5333 109.033 95.8995L113.296 107.69H110.102L110.062 107.65H110.102L105.578 95.5136H104.323L100.175 107.685H100.215L100.211 107.694Z" fill="#EC691F"/>
<path fill-rule="evenodd" clip-rule="evenodd" d="M19.6797 90.0444H36.9481C39.4986 90.0444 41.6278 92.138 41.6278 94.7241V104.616C41.6278 107.166 39.4986 109.256 36.9481 109.256H19.6797C17.0937 109.256 15 107.162 15 104.616V94.7241C15 92.138 17.0937 90.0444 19.6797 90.0444V90.0444Z" fill="#FEFEFE"/>
<path fill-rule="evenodd" clip-rule="evenodd" d="M37.3295 102.442V94.3027H19.2627V102.442L27.1716 97.8779L28.2362 97.2702V97.1948L28.3161 97.2303L28.3515 97.1948V97.2303L31.7005 99.1731V97.1948H33.9051V100.464L37.3295 102.442Z" fill="#006CB5"/>
<path fill-rule="evenodd" clip-rule="evenodd" d="M36.9481 90.0444H19.6797C18.3845 90.0444 17.209 90.5766 16.3706 91.415C15.5323 92.2534 15 93.4333 15 94.7241V104.616C15 104.656 15 104.691 15 104.731L16.863 103.627V94.7241C16.863 93.9611 17.2046 93.2425 17.7014 92.7457C18.1982 92.2489 18.9168 91.9473 19.6797 91.9473H36.9481C37.711 91.9473 38.3941 92.2534 38.9264 92.7457C39.4232 93.2425 39.7249 93.9611 39.7249 94.7241V103.662L41.6278 104.727C41.6278 104.687 41.6278 104.651 41.6278 104.611V94.7196C41.6278 93.4244 41.0955 92.2489 40.2217 91.4106C39.3833 90.5722 38.2034 90.0399 36.9481 90.0399V90.0444Z" fill="#006CB5"/>
<path fill-rule="evenodd" clip-rule="evenodd" d="M37.2896 104.993H19.2627L28.3161 99.7808L37.3295 104.993H37.2896Z" fill="#EC691F"/>
<path fill-rule="evenodd" clip-rule="evenodd" d="M39.1926 108.683C39.8402 108.302 40.408 107.81 40.8294 107.202L39.1926 106.253C38.9664 106.559 38.6958 106.785 38.3942 106.976C38.0127 107.202 37.6312 107.317 37.2143 107.393H37.1743H37.1344H37.0945H37.0546H37.0146H36.9747H36.9348H19.6664C19.1696 107.393 18.7172 107.277 18.3357 107.051C17.9942 106.86 17.6526 106.594 17.4219 106.253L15.7852 107.202C16.2021 107.81 16.7344 108.306 17.382 108.683C18.0651 109.065 18.8281 109.256 19.6664 109.256H36.9348C37.7332 109.256 38.5317 109.065 39.1793 108.683H39.1926Z" fill="#EC691F"/>
<path fill-rule="evenodd" clip-rule="evenodd" d="M150.916 107.619L155.179 95.7487C155.941 94.2672 156.7 92.8211 158.528 92.8211H159.06H159.632C161.46 92.8211 162.218 94.2672 162.941 95.7487L167.239 107.619H164.006L162.218 102.748H159.06H155.941L154.154 107.619H150.92H150.916ZM159.055 95.4471H158.563L156.891 100.087H159.06H161.264L159.592 95.4471H159.06H159.055Z" fill="#FEFEFE"/>
<path fill-rule="evenodd" clip-rule="evenodd" d="M180.662 92.8566C183.133 92.8566 184.694 94.2273 184.694 96.4318C184.694 96.4718 184.694 99.1687 184.694 99.2086C184.654 101.413 183.212 102.748 180.587 102.748H171.342V107.619H168.49V92.8611H180.662V92.8566ZM171.342 95.558V100.082H181.842V95.558H171.342Z" fill="#FEFEFE"/>
<path fill-rule="evenodd" clip-rule="evenodd" d="M150.916 107.694L155.179 95.8241C155.941 94.3426 156.7 92.8965 158.528 92.8965H159.06H159.632C161.46 92.8965 162.218 94.3426 162.941 95.8241L167.239 107.694H164.006L162.218 102.824H159.06H155.941L154.154 107.694H150.92H150.916ZM159.055 95.5225H158.563L156.891 100.127H159.06H161.264L159.592 95.5225H159.06H159.055Z" fill="#006CB5"/>
<path fill-rule="evenodd" clip-rule="evenodd" d="M180.662 92.932C183.133 92.932 184.694 94.2627 184.694 96.4717C184.694 96.5472 184.694 99.2086 184.694 99.2884C184.654 101.493 183.212 102.828 180.587 102.828H171.342V107.699H168.49V92.9409H180.662V92.932ZM171.342 95.6334V100.158H181.842V95.6334H171.342V95.6334Z" fill="#006CB5"/>
</svg>
