<svg width="200" height="200" viewBox="0 0 200 200" fill="none" xmlns="http://www.w3.org/2000/svg">
<path fill-rule="evenodd" clip-rule="evenodd" d="M60.4177 156.655C54.7918 154.481 48 147.837 48 141.554V27H152.514V141.564C152.514 147.847 145.758 154.481 140.132 156.655C126.93 161.751 110.221 168.207 100.257 172C90.2934 168.212 73.6245 161.756 60.4228 156.655H60.4177Z" fill="#FFFFFE" stroke="#AA2A3F" stroke-miterlimit="22.9256"/>
<path fill-rule="evenodd" clip-rule="evenodd" d="M99.5188 145.683V142.053C100.064 142.022 101.851 141.946 103.184 141.971C105.608 142.017 107.349 142.409 107.349 143.83C107.349 146.187 101.703 145.734 99.5188 145.683V145.683ZM99.5188 139.197V135.847C101.535 135.663 106.265 135.292 106.3 137.343C106.326 138.555 105.012 139.095 102.894 139.181C101.744 139.227 100.084 139.227 99.5137 139.197H99.5188ZM95.4966 148.539C96.8102 148.539 101.168 148.926 104.86 148.661C108.525 148.397 111.448 147.277 111.448 144.268C111.448 142.231 110.109 141.009 107.935 140.317C109.498 139.594 110.404 138.494 110.404 136.972C110.404 134.202 107.629 133.169 104.264 132.95C100.904 132.731 96.9833 133.016 95.4966 133.087V148.544V148.539ZM129.573 148.758C133.04 148.758 136.879 147.607 136.894 143.967C136.904 140.755 133.279 139.828 130.555 139.288C129.486 139.074 126.309 138.779 126.319 137.257C126.335 135.592 129.303 135.78 130.907 136.086C132.113 136.315 133.417 136.722 134.496 137.267L136.522 134.833C134.369 133.464 131.477 132.868 128.901 132.868C125.535 132.868 121.915 134.095 121.915 137.496C121.915 140.933 125.632 141.727 128.534 142.292C129.532 142.486 132.51 142.832 132.485 144.257C132.459 146.197 128.773 145.764 127.531 145.525C126.075 145.245 124.4 144.593 123.422 143.977L121.045 146.34C123.438 148.01 126.62 148.758 129.573 148.758V148.758ZM114.574 148.539H118.677V133.082H114.574V148.539ZM80.182 135.908C80.9559 135.882 82.3509 135.74 83.6186 135.791C85.7723 135.887 87.4015 136.58 87.4778 138.061C87.4015 139.543 85.6042 140.459 83.4557 140.556C82.1931 140.612 81.908 140.576 81.1341 140.546L85.3751 146.309C87.1978 148.784 89.9013 148.773 92.6455 148.702L87.2742 142.898C89.4074 142.323 91.6323 140.775 91.6323 138.056C91.6323 134.747 88.603 133.291 86.0166 133.036C82.3356 132.67 77.8706 132.985 76.0835 133.077V148.534H80.182V135.903V135.908ZM67.4894 148.539H71.593V133.082H67.4894V148.539ZM89.3718 73.7888C88.3994 73.9976 86.9687 74.2572 85.8435 74.3132C85.6857 74.9853 85.2173 75.7693 84.7082 76.4261C84.3416 77.032 84.8915 77.0778 85.3039 76.9149C86.0828 76.7112 88.155 75.6879 89.8249 73.9721C89.9573 73.7277 89.6111 73.7328 89.3718 73.7939V73.7888ZM135.55 93.9554C136.191 92.5095 136.385 91.1094 136.68 89.7297C137.057 87.6422 137.25 85.4886 137.25 83.2943C137.25 63.1735 120.841 46.7592 100.72 46.7592C80.5995 46.7592 64.1852 63.1684 64.1852 83.2943C64.1852 96.1345 70.87 107.468 80.9406 113.985C91.9378 120.435 100.374 116.428 103.709 110.93C106.865 105.34 106.703 97.4481 101.107 94.5562C99.6053 93.8842 97.9863 93.2478 96.0363 95.6356C93.8063 97.8248 93.175 100.895 90.2475 99.9377C88.7965 99.2453 86.8822 98.4205 85.5075 94.8464C85.5482 94.5868 84.7795 93.431 85.0595 93.2478C85.3802 93.039 86.1337 93.4769 86.7956 93.4616C87.2844 93.4514 87.931 93.2121 88.1397 93.1306C90.3697 92.2448 94.5242 90.5188 95.6239 87.7237C96.2298 85.4835 93.623 84.2871 90.9501 84.7249C87.0349 85.3613 85.5228 86.9702 84.6522 88.6147C84.2143 89.4496 85.0289 90.6512 84.1125 90.5188C83.8325 90.4781 82.7429 89.7093 82.4986 89.7449C79.9427 90.1522 78.5324 88.9965 77.6313 87.4437C77.5346 87.1178 77.6466 86.6698 77.6313 86.3134C77.6466 86.0792 77.3767 85.8857 77.1222 86.0894C76.832 86.4712 76.5927 86.512 76.2821 86.1658C75.8544 85.6719 75.1467 84.8675 75.0805 83.7016C75.8239 80.3515 79.5609 76.6349 81.9843 74.5373C81.74 73.4324 81.6687 72.5262 82.356 71.2279C84.9016 67.2363 89.6467 64.9147 98.2001 63.0869C97.7521 61.305 99.1725 59.6452 102.645 60.5718C122.694 65.0725 133.366 76.7621 135.55 93.9605V93.9554Z" fill="#AA2A3F"/>
</svg>
