<svg width="37" height="36" viewBox="0 0 37 36" fill="none" xmlns="http://www.w3.org/2000/svg">
<path d="M18.0108 0C10.4939 0 8.2955 0.0077545 7.86817 0.0432037C6.32558 0.17143 5.36568 0.414312 4.31993 0.934971C3.51402 1.33516 2.87843 1.79904 2.25114 2.44931C1.10874 3.6352 0.416374 5.09415 0.165737 6.82839C0.0438806 7.67031 0.00843148 7.84202 0.00123087 12.1424C-0.00153859 13.5759 0.00123087 15.4625 0.00123087 17.9929C0.00123087 25.5037 0.00953927 27.6999 0.0455423 28.1264C0.170168 29.6275 0.405573 30.5718 0.904076 31.6049C1.85677 33.5823 3.67631 35.0667 5.81988 35.6206C6.56209 35.8117 7.38186 35.9169 8.43425 35.9668C8.88014 35.9862 13.4248 36 17.9723 36C22.5198 36 27.0672 35.9945 27.502 35.9723C28.7206 35.915 29.4282 35.82 30.2106 35.6178C31.2734 35.3452 32.264 34.8439 33.113 34.1489C33.9621 33.4539 34.6492 32.5819 35.1264 31.5938C35.6152 30.5857 35.863 29.6053 35.9752 28.1826C35.9996 27.8725 36.0098 22.927 36.0098 17.9882C36.0098 13.0486 35.9987 8.11232 35.9744 7.80214C35.8608 6.35648 35.613 5.38439 35.1084 4.35692C34.6943 3.51584 34.2346 2.88772 33.5671 2.24548C32.3763 1.10779 30.9195 0.41542 29.1834 0.16506C28.3423 0.0434806 28.1747 0.00747756 23.871 0H18.0108Z" fill="url(#paint0_radial_653_305)"/>
<path d="M18.0108 0C10.4939 0 8.2955 0.0077545 7.86817 0.0432037C6.32558 0.17143 5.36568 0.414312 4.31993 0.934971C3.51402 1.33516 2.87843 1.79904 2.25114 2.44931C1.10874 3.6352 0.416374 5.09415 0.165737 6.82839C0.0438806 7.67031 0.00843148 7.84202 0.00123087 12.1424C-0.00153859 13.5759 0.00123087 15.4625 0.00123087 17.9929C0.00123087 25.5037 0.00953927 27.6999 0.0455423 28.1264C0.170168 29.6275 0.405573 30.5718 0.904076 31.6049C1.85677 33.5823 3.67631 35.0667 5.81988 35.6206C6.56209 35.8117 7.38186 35.9169 8.43425 35.9668C8.88014 35.9862 13.4248 36 17.9723 36C22.5198 36 27.0672 35.9945 27.502 35.9723C28.7206 35.915 29.4282 35.82 30.2106 35.6178C31.2734 35.3452 32.264 34.8439 33.113 34.1489C33.9621 33.4539 34.6492 32.5819 35.1264 31.5938C35.6152 30.5857 35.863 29.6053 35.9752 28.1826C35.9996 27.8725 36.0098 22.927 36.0098 17.9882C36.0098 13.0486 35.9987 8.11232 35.9744 7.80214C35.8608 6.35648 35.613 5.38439 35.1084 4.35692C34.6943 3.51584 34.2346 2.88772 33.5671 2.24548C32.3763 1.10779 30.9195 0.41542 29.1834 0.16506C28.3423 0.0434806 28.1747 0.00747756 23.871 0H18.0108Z" fill="url(#paint1_radial_653_305)"/>
<path d="M18.0023 4.70813C14.392 4.70813 13.9389 4.72392 12.5209 4.78844C11.1057 4.85325 10.1398 5.0773 9.29452 5.40604C8.4202 5.74557 7.67854 6.19976 6.93964 6.93893C6.2002 7.67783 5.746 8.41949 5.40536 9.29353C5.07579 10.1391 4.85147 11.1053 4.78777 12.52C4.72462 13.9379 4.70801 14.3913 4.70801 18.0016C4.70801 21.6118 4.72407 22.0635 4.78832 23.4815C4.8534 24.8967 5.07745 25.8627 5.40591 26.7079C5.74573 27.5822 6.19992 28.3239 6.93909 29.0628C7.67771 29.8023 8.41937 30.2576 9.29313 30.5971C10.1389 30.9258 11.1052 31.1499 12.5201 31.2147C13.9381 31.2792 14.3909 31.295 18.0009 31.295C21.6114 31.295 22.0631 31.2792 23.4811 31.2147C24.8963 31.1499 25.8634 30.9258 26.7092 30.5971C27.5832 30.2576 28.3238 29.8023 29.0624 29.0628C29.8019 28.3239 30.256 27.5823 30.5967 26.7082C30.9235 25.8627 31.1478 24.8964 31.2143 23.4818C31.278 22.0638 31.2946 21.6118 31.2946 18.0016C31.2946 14.3913 31.278 13.9382 31.2143 12.5202C31.1478 11.105 30.9235 10.1391 30.5967 9.29381C30.256 8.41949 29.8019 7.67783 29.0624 6.93893C28.323 6.19949 27.5835 5.74529 26.7084 5.40604C25.8609 5.0773 24.8944 4.85325 23.4792 4.78844C22.0612 4.72392 21.6098 4.70813 17.9984 4.70813H18.0023ZM16.8097 7.10372C17.1637 7.10316 17.5586 7.10372 18.0023 7.10372C21.5516 7.10372 21.9723 7.11646 23.3739 7.18015C24.67 7.23942 25.3735 7.45599 25.8421 7.63795C26.4624 7.87889 26.9047 8.16692 27.3697 8.63219C27.835 9.09746 28.123 9.54057 28.3645 10.1609C28.5465 10.629 28.7633 11.3324 28.8223 12.6285C28.886 14.0299 28.8998 14.4508 28.8998 17.9985C28.8998 21.5462 28.886 21.9672 28.8223 23.3685C28.763 24.6646 28.5465 25.3681 28.3645 25.8361C28.1236 26.4565 27.835 26.8982 27.3697 27.3632C26.9044 27.8285 26.4627 28.1165 25.8421 28.3574C25.374 28.5402 24.67 28.7562 23.3739 28.8155C21.9726 28.8792 21.5516 28.893 18.0023 28.893C14.4526 28.893 14.032 28.8792 12.6306 28.8155C11.3345 28.7557 10.6311 28.5391 10.1622 28.3571C9.54183 28.1162 9.09872 27.8282 8.63345 27.3629C8.16818 26.8976 7.88015 26.4556 7.63866 25.835C7.4567 25.367 7.23985 24.6635 7.18086 23.3674C7.11717 21.9661 7.10443 21.5451 7.10443 17.9952C7.10443 14.4453 7.11717 14.0265 7.18086 12.6252C7.24013 11.3291 7.4567 10.6256 7.63866 10.1571C7.8796 9.53669 8.16818 9.09358 8.63345 8.62831C9.09872 8.16304 9.54183 7.87501 10.1622 7.63352C10.6308 7.45073 11.3345 7.23471 12.6306 7.17517C13.8569 7.11978 14.3322 7.10316 16.8097 7.10039V7.10372ZM25.0982 9.31098C24.7827 9.31098 24.4742 9.40455 24.2119 9.57986C23.9495 9.75517 23.7451 10.0043 23.6244 10.2959C23.5036 10.5874 23.4721 10.9082 23.5337 11.2176C23.5953 11.5271 23.7473 11.8113 23.9704 12.0344C24.1936 12.2574 24.4778 12.4093 24.7873 12.4708C25.0968 12.5323 25.4176 12.5006 25.709 12.3798C26.0005 12.259 26.2496 12.0544 26.4248 11.792C26.6001 11.5296 26.6935 11.2212 26.6934 10.9056C26.6934 10.0249 25.9789 9.31043 25.0982 9.31043V9.31098ZM18.0023 11.1748C14.2322 11.1748 11.1755 14.2315 11.1755 18.0016C11.1755 21.7716 14.2322 24.8269 18.0023 24.8269C21.7723 24.8269 24.8282 21.7716 24.8282 18.0016C24.8282 14.2315 21.7721 11.1748 18.002 11.1748H18.0023ZM18.0023 13.5704C20.4494 13.5704 22.4334 15.5542 22.4334 18.0016C22.4334 20.4487 20.4494 22.4327 18.0023 22.4327C15.5549 22.4327 13.5711 20.4487 13.5711 18.0016C13.5711 15.5542 15.5549 13.5704 18.0023 13.5704V13.5704Z" fill="white"/>
<defs>
<radialGradient id="paint0_radial_653_305" cx="0" cy="0" r="1" gradientUnits="userSpaceOnUse" gradientTransform="translate(9.56515 38.7728) rotate(-90) scale(35.6787 33.193)">
<stop offset="0" stop-color="#FFDD55"/>
<stop offset="0.1" stop-color="#FFDD55"/>
<stop offset="0.5" stop-color="#FF543E"/>
<stop offset="1" stop-color="#C837AB"/>
</radialGradient>
<radialGradient id="paint1_radial_653_305" cx="0" cy="0" r="1" gradientUnits="userSpaceOnUse" gradientTransform="translate(-6.03183 2.59338) rotate(78.6776) scale(15.9487 65.7577)">
<stop offset="0" stop-color="#3771C8"/>
<stop offset="0" stop-color="#3771C8"/>
<stop offset="1" stop-color="#6600FF" stop-opacity="0"/>
</radialGradient>
</defs>
</svg>
