<svg width="200" height="40" viewBox="0 0 200 40" fill="none" xmlns="http://www.w3.org/2000/svg">
<path d="M25.5915 19.0565L25.4022 19.0226L25.2101 18.7405L25.5915 19.5468V19.0566V19.0565ZM24.8896 21.217C25.0342 20.856 25.2869 20.5874 25.6191 20.4113C25.9551 20.2168 26.1988 20.0452 26.3666 19.8763L26.1656 19.8468L26.0299 19.5467L24.8896 21.2169V21.217ZM24.8896 22.2153L27.4045 19.8763L27.0231 19.5468V19.8763H26.6936L24.8896 22.2153V22.2153ZM25.5915 11.4151L24.8896 11.7421H25.5915V11.4151ZM24.5465 24.7233H24.8895L25.0226 24.4545L25.21 24.3956H24.8895L24.8376 24.6869L24.5464 24.7233H24.5465ZM24.5465 11.4151L25.5915 10.7374L25.0476 11.0759L24.5465 11.4151H24.2169H24.5465V11.4151ZM24.2169 7.89736L24.5465 7.1774C24.4248 7.31943 24.3276 7.47755 24.2643 7.7034L24.2169 7.89736V7.89736ZM24.5465 19.0565L23.8874 18.4179L24.2169 19.5467L24.5465 19.0565V19.0565ZM24.2169 9.98796L23.2122 11.4151L23.5508 11.0758L23.8875 10.7373L24.217 9.98796H24.2169ZM24.5465 3.33258L24.2169 4.75255L23.2122 6.8523L24.2169 5.08477C24.2169 4.73213 24.2643 4.43198 24.3795 4.20613C24.4902 3.96485 24.5465 3.66027 24.5465 3.33258V3.33258ZM24.8895 19.5468C24.535 19.8943 24.199 20.3659 23.8874 20.9624C23.5693 21.5357 23.2327 22.0906 22.8852 22.6326L25.2101 19.8763L24.8896 19.5468H24.8895ZM22.8852 18.0653L23.2121 18.418L22.8852 17.7384V18.0653V18.0653ZM23.2121 3.98989L22.8852 5.08486L23.2121 4.36877V3.98989ZM22.5556 21.8787L23.8874 19.8763L23.5507 19.5468V19.8763L22.5557 21.8787H22.5556ZM22.5556 17.0248V17.4088H22.8851L22.5556 17.0248ZM21.7473 21.217L22.8851 19.5468L22.5556 18.7405V19.5468H22.0788L21.7473 21.217V21.217ZM21.7473 6.50484V7.17749L22.0788 6.50484H21.7473ZM21.4133 20.883V21.5492V20.883ZM20.7445 21.217L20.3586 20.883V21.217H20.7445ZM20.0245 24.7232V24.3955V25.0618V24.7232ZM17.555 1.17212C17.555 1.58741 17.5728 2.01878 17.6042 2.47058C17.6318 2.84946 17.6721 3.25837 17.697 3.71654C17.7309 4.19264 17.7963 4.63741 17.889 5.08477V5.84309V5.43214C17.889 4.52476 17.9427 3.68254 18.0534 2.91017C18.1667 2.11147 18.225 1.53104 18.225 1.17203H17.555V1.17212ZM19.3135 17.0247L19.645 17.0675L19.6923 17.4087V18.0653V17.0247H20.0245V18.7404C20.0245 18.192 20.0718 17.7785 20.1691 17.5059L20.3585 17.0247H20.7444L21.0765 20.2167V15.8958L21.7472 17.0247H22.0787L21.4132 15.8958L22.5555 16.3137L22.0787 15.8958L22.5555 15.5349L23.8873 16.3137L22.5555 15.2117V14.8777L25.21 15.2117V15.5349H25.5913L24.2167 15.2117L22.885 14.8777V14.2256H27.0229H26.6933L23.212 13.8711V13.555L27.023 13.171H23.212V12.844H23.5506H23.212V12.4217L24.2167 11.7421H23.8872L23.212 12.4217L22.885 12.0698V11.7421L22.5555 11.4151L22.885 10.7374L22.5555 11.4151L22.0787 10.7374H21.0765V10.3221H20.7444V8.88865V9.64697H20.0245V8.22246V9.98805H19.6923V8.88865C19.6923 9.1145 19.6789 9.2387 19.645 9.30847L19.3135 9.64706V9.98815H18.8893V8.22256L18.5501 9.64706H18.225V6.50493V9.64706L18.1713 9.84158L17.8891 9.98815L17.2274 17.409H16.8953L17.2274 21.2172V17.409H18.2251V19.8765V17.409H18.8894V20.542V17.409H19.3136V17.025L19.3135 17.0247ZM17.2273 14.5462L17.555 8.88846V8.22228C17.555 7.87472 17.5346 7.45241 17.5076 6.95839C17.4737 6.46371 17.3828 5.94474 17.2273 5.43205V9.64678H16.8952L17.2273 14.5461V14.5462ZM16.5567 0.842495L16.8953 5.43214L17.2274 0.842495H16.5568H16.5567ZM10.186 3.33249H11.5561V3.00295L10.186 3.33249V3.33249ZM11.2202 3.98971H10.186H11.2202V4.75246H9.8475H11.2202V3.98971ZM11.8928 20.8828V18.7403V19.0564H11.5562V19.5466H8.84476L11.8928 19.8761V20.2166H11.2202V20.5417H11.5562V20.8828H11.8928V20.8828ZM11.2202 9.30819H8.84476L11.2202 9.64678V9.30819V9.30819ZM11.2202 7.55674H8.41857L11.2202 7.89718V7.55674ZM11.2202 6.17696L8.41857 6.50465H11.2202V6.17696ZM11.2202 5.08458C11.0755 5.08458 10.7416 5.10695 10.2558 5.1319C9.75925 5.16785 9.14546 5.2561 8.41857 5.43205H11.2202V5.08458V5.08458ZM6.66896 7.17721H11.2202V6.85211L6.66896 7.17721ZM16.8953 17.4086L16.1734 5.84299L15.8412 9.64678H15.417V7.17721V9.64678H14.7552V8.88846V9.98787L14.4686 9.84131L14.4192 9.64678V8.22228V9.98787H13.7013V8.5544V9.64687H13.3263V8.22237V9.30828H12.6556V6.50465C12.6556 6.94489 12.6358 7.37109 12.6019 7.75958C12.5743 8.12562 12.527 8.47059 12.4687 8.73488C12.3919 9.08687 12.351 9.3921 12.3196 9.64687H11.8927V5.43214L11.5561 8.22237L11.8927 8.55449L11.7078 8.85011L11.5561 8.88856V9.98796L6.32973 10.322H11.5561V10.7373H9.51788L11.8927 11.0758V11.4151H9.51788H11.5561V12.0697H8.41847H11.8927V12.4216H11.2201H11.8927V13.1709H10.186H11.5561V13.5549H10.186H11.8927V14.2255H8.41847H11.8927V14.8776H8.41847H11.8927V15.8957H10.8925H11.8927V16.6932H10.561H11.5561V17.7382L6.66887 17.4087H5.65966L11.556 17.7382V18.4178H11.22H11.556V18.7403H11.8926L11.556 17.4086H12.3195V18.7403V17.4086L12.6555 17.0246L12.985 18.7403V17.4086H13.3262V18.4178V17.4086H14.0372V18.7403V17.4086H14.4192L14.7552 20.2166V17.4086H15.0739V19.0564L15.417 17.4086L15.8412 17.0246V19.0564V17.4086H16.5567V17.7381V17.4086H16.8953V17.4086ZM6.32982 25.4456H4.89894H6.32982ZM6.66896 20.2166H6.99406L4.56488 19.8761L4.18091 20.2166H6.66896ZM1.80791 31.0642H5.98929L1.80791 30.7372V31.0642ZM1.37719 34.9179H1.80791L1.37719 34.5729V34.9179ZM1.37719 33.5407V33.8639L5.98929 33.5407H1.37719V33.5407ZM1.37719 32.4349V32.7735L6.99397 32.4349H1.37719ZM1.80791 31.7688H4.18082H1.37719H1.80791ZM3.19212 38.4312L0.995165 38.1009V38.4312H3.19212ZM0.995165 37.4354H1.80791L0.995165 37.0558V37.4354V37.4354ZM4.18082 35.95H0.995165V36.2976L4.18082 35.95ZM0.995165 35.2563V35.6313C1.56857 35.6313 2.27126 35.609 3.11727 35.5795C3.9595 35.5526 4.91936 35.4374 5.98938 35.2563H0.995258H0.995165ZM35.7753 38.1009V38.7716H24.2166V38.1009H27.0229H24.2166V37.7649H23.8871V37.0558H25.5912H23.8871V36.6226H27.4041L23.5505 36.2975V35.95H26.6932H23.8871L23.6004 35.909L23.5505 35.6312L23.6004 35.2838L23.8871 35.2562H26.6932H23.5505V34.9177L27.7364 34.5728H23.212V33.8637H25.5912H23.5505V33.5405H23.8871H23.5505V32.7733H26.3662H23.2119V32.4347L26.3662 32.1006H23.2119V31.7685L27.7363 31.4504H23.2119V31.0639H25.5911H23.2119V30.3939H26.0295H23.2119V29.6394H23.8871H22.8849V29.29H25.2099H22.8849V28.915L24.8892 28.6033H22.8849V27.8719H22.5554V27.5354H22.8849L22.5554 27.2058L23.212 26.8654L23.5505 26.5403H23.8872L22.0787 27.2058V26.8654L22.5555 26.5403L21.9866 26.7342L21.7473 26.8654L21.4133 26.5403L21.0766 26.1109L21.4133 25.7813L21.0766 26.1109L20.7445 25.7813L21.0766 25.4453L20.7445 25.7813L20.3586 25.4453L20.7445 24.3951L20.3586 25.4453H19.6923V25.0614V25.4453H19.3135V22.2148V25.0614H18.55V25.4453H18.2249V22.6322L17.8889 25.0614H17.5549V21.8783L17.2272 25.0614H16.8951V24.0701V25.0614H16.1732V23.0205V25.0614H15.0738V24.0701V25.0614H14.755L14.419 24.0701L14.755 25.0614H14.0371V22.2148V25.0614H13.3261V23.0205V25.0614H12.6554V24.0701V25.0614H12.3194L11.8925 21.5487V21.8782H11.5559V22.2148H8.41829H11.8925V23.3475H11.5559C11.179 23.3475 10.8066 23.3725 10.4206 23.4044C10.0706 23.4403 9.67775 23.4652 9.22845 23.5241C8.78821 23.5626 8.30305 23.6413 7.74952 23.743H11.5558V24.07H12.3193V24.3951H9.51769L11.8925 24.7228V25.4453H11.5559H11.8925V25.7813L6.66869 26.1109H11.8925V27.2058H8.84448H11.8925V27.872H7.32979H11.8925V28.6034H8.41829H11.8925V29.2901H9.18557H11.8925V29.6395H7.32979L11.8925 30.0234V30.394L8.41829 30.7369H11.8925V31.0639L6.66869 31.4504H11.8925V32.1006H6.99379L11.8925 32.4347V32.7733L5.65957 33.1054H11.8925V33.8637H8.84448H11.8925V34.5728H10.1858H11.8925V34.9177H9.18557C9.8768 34.9177 10.4456 34.9266 10.8923 34.9605C11.3307 34.9791 11.5559 35.0757 11.5559 35.2561H11.8925V35.6311H7.74961L11.5559 35.9499V36.2974H8.84448L11.8925 36.6225V37.0557H11.2199H11.8925V37.4353H10.1858H11.8925V38.1008H8.84448H11.5559V38.4311L1.80773 38.7715H0.326947V37.4353H0.668033V37.0557H0.326947V36.2974H0.668033V35.9499H0.326947V35.6311H0.668033V35.2561H0.326947V34.9176H0.668033V34.5727H0.326947V33.8636H0.99498V33.5405H0.326947L0 32.7732H0.995073V32.4346H0.32704V31.7684H0.995073H0.32704V31.0639H0.995073V30.7368H0.32704V30.3939H1.37719V30.0233L1.80791 30.3939L5.65975 30.0233H0.00018482V29.29H5.3231L0.327132 28.915V28.6033H2.51956H0.327132V27.8718H3.85129H0.00018482L0.327132 27.5353V26.8652H2.51956H0.327132V26.5401H4.56478L0.327132 26.1107V25.0612H0.668218H0.00018482V24.7226H0.327132V23.0203H2.51956H0.327132C0.327132 22.42 0.327132 21.8191 0.327132 21.2163H0.00018482V20.8823H0.327132V20.5411H1.80791L9.24102e-05 20.216V19.8756H0.32704V19.546H0.668126H9.24102e-05V18.7398H0.995165H0.327132V18.4172H0.00018482V16.6926H1.808H0.00018482V16.3131H0.327132V15.8952H0.00018482V15.5342H1.808H0.327224V15.2111H0.00027723V14.5455H5.32319L0.327224 14.225V13.8705H3.19222H0.327224V13.1704H2.51966H0.327224V12.8433H0.995258H0.327224V12.0691H3.19222H0.327224V11.4145H0.66831H0.327224V10.7368H2.51966H0.00018482V9.98741H4.56488L0.327224 9.64632V9.30773H3.19222H0.00027723V8.55385H4.89903H0.00027723V7.89672H3.19222H0.00027723V6.85165H2.85815H0.00027723V6.5041L1.8081 6.17641H0.00027723V5.84244H0.327224V5.43149C0.555015 5.43149 0.803322 5.40913 1.09515 5.37521C1.34974 5.3388 1.65959 5.30748 2.00003 5.278C2.35008 5.23318 2.74292 5.17616 3.19222 5.08403H0.327224V4.75191H1.808H0.327224V4.36804L3.19222 3.98915H0.66831V3.65056H0.327224V3.33184L4.18091 3.00231H0.995258V2.65484L4.56488 2.32716H0.668218V1.89135L6.66896 1.5644L0.00018482 1.17148L0.327132 0.841941H11.2202V1.17148H11.5562V1.89144H8.84476H11.5562V2.32725L7.74989 2.65494H11.5562V0.523957H11.8928L12.3197 4.752V0.523957H12.6557L12.9852 0.841941L12.9424 1.08387L12.6557 1.5645C12.8182 1.72695 12.9066 1.97979 12.9424 2.35035C12.9699 2.70678 12.9852 3.15608 12.9852 3.65066V0.523957H13.3264V1.89144V0.841941H14.0374V2.32725V0.841941H14.4194V2.32725C14.4194 1.8153 14.4688 1.4403 14.5615 1.17157L14.7554 0.842033H15.0741V2.32734V0.842033H15.4172L15.8414 1.89154V0.842033H16.1735L16.5569 7.17684L16.1735 0.52405H18.5503V3.33203L18.8895 0.52405L19.3137 0.842033V6.85174V5.08421C19.4104 4.54472 19.4961 4.04746 19.5728 3.53551C19.6567 3.0498 19.7246 2.60503 19.7987 2.17376C19.8915 1.71106 19.9658 1.25538 20.0246 0.841941H20.3587V3.0024V0.523957L21.0766 0.841941L20.7445 5.08412L21.4133 0.523957H21.7473L21.4133 4.36813L22.0788 0.523957H22.5556V0.841941L22.0788 3.0024L22.8851 0.841941H23.212L22.5555 3.98915L23.5505 0.523865L23.8872 0.841848L23.5505 1.89135L23.8872 0.841848H24.5463L23.5505 3.98906L24.8893 0.841848H25.2099L24.8893 2.32716L25.5912 0.841848L26.0296 1.17138H26.3663V1.56431H26.6932L26.6388 2.04494C26.5806 2.35017 26.4903 2.6797 26.3662 3.00221C26.4225 2.74688 26.5056 2.50301 26.5984 2.32706L26.8306 1.84644L27.0227 1.56431H27.404L26.693 3.33175L27.7362 1.89126H28.4452L27.0227 4.75172L28.7793 2.32697L29.1109 2.65466C28.8606 3.00212 28.5802 3.38609 28.2578 3.79888C28.005 4.14893 27.7094 4.54435 27.3818 5.00446C27.0477 5.47224 26.7091 5.96433 26.3662 6.50382L29.5422 2.65457L29.8788 3.00203L29.6395 3.23943L29.402 3.56203L29.1109 3.98888L30.2173 3.00203L30.5398 3.33156L27.7363 6.85128L31.2105 3.65029L31.5919 3.98888L30.5398 5.08384C31.24 4.73121 31.5919 4.36776 31.5919 3.98888L31.9285 4.36776L30.2173 6.17613L32.2581 4.75163V5.08375L30.2173 6.85128C30.5539 6.59586 30.8739 6.36105 31.1612 6.14471C31.4478 5.94381 31.6981 5.76518 31.9285 5.61613C32.1698 5.43121 32.418 5.23281 32.635 5.08375L33.0164 5.43121C33.0164 5.6347 32.7431 5.89844 32.1857 6.19406C31.6327 6.50382 31.0774 6.82883 30.5397 7.17638C31.0773 6.82883 31.5809 6.51278 32.0411 6.24655C32.5019 5.97773 32.8224 5.84207 33.0164 5.84207L33.3485 6.17604C33.193 6.17604 32.9332 6.3092 32.5582 6.55557C32.1973 6.81543 31.7456 7.01383 31.2106 7.17638H31.9285L32.4232 6.74954L32.9198 6.41548L33.3485 6.17613L33.7325 6.85137L29.8788 8.88763L34.0665 7.17647V7.556L33.8291 7.75884L33.3484 7.89644L33.8291 7.75884L34.0665 7.556L34.4409 8.22154L31.9285 9.30745L34.4409 8.22154V8.55366L34.1542 8.77702C33.9353 8.94206 33.6692 9.13603 33.3485 9.30754L34.441 8.88772V9.30754L29.5422 11.075H29.8788C30.4817 10.8767 31.0685 10.714 31.6419 10.5561C32.2037 10.3961 32.7343 10.2425 33.202 10.0889C33.746 9.95137 34.2695 9.81118 34.7776 9.64614V9.98722L30.874 11.4143L34.441 10.7366L34.7776 11.0751L30.2174 12.0689L34.7776 11.4143V11.7413L32.6351 12.0689H34.441V12.4208H34.7776V12.8432L32.6351 13.1702H34.7776V13.8703H32.6351H34.441V14.2248H33.3485H34.441V14.8768L34.0666 15.2109H32.6351H33.7326V15.534H31.592C31.8447 15.534 32.0956 15.5768 32.3529 15.6038C32.6012 15.6402 32.8405 15.6691 33.0683 15.7395C33.2834 15.8029 33.5067 15.8591 33.7326 15.895V16.3129L28.7795 15.534L33.3486 17.0238V17.4078H33.0165V17.7373L30.5399 17.0237L32.6351 17.7373V18.4169L28.7794 17.4077L32.2581 18.4169V19.0555C32.0348 19.0332 31.8115 18.9724 31.5919 18.8706C31.3979 18.8098 31.1835 18.7395 30.9417 18.6761C30.7069 18.5974 30.4701 18.5001 30.2173 18.417L30.6934 18.6761L31.1612 18.8706L31.5919 19.0555V19.5457L31.3052 19.3083L30.9666 19.1303L30.5398 19.0554L31.2105 19.5456L30.8739 19.8751L28.0659 18.4168C28.3212 18.5658 28.5803 18.7393 28.8376 18.9018C29.075 19.0778 29.3233 19.2403 29.5421 19.401C29.768 19.5591 29.9939 19.7081 30.2173 19.8751V20.2156C29.7994 19.9992 29.3617 19.7619 28.9188 19.5455C28.5464 19.3599 28.1355 19.1526 27.6864 18.9491C27.246 18.7392 26.7993 18.5657 26.3662 18.4167C26.9574 18.6854 27.4227 19.0553 27.7363 19.5455H28.4453L28.0658 19.875H28.4453L28.7793 20.2155L26.3662 22.214L29.1109 20.5406V20.2155L29.5421 20.5406L27.7363 21.8775L28.2578 21.4148L28.7794 21.2157L29.0661 21.0666L29.111 20.8817H29.5422V21.5479H29.111L28.9189 21.7328L28.4454 21.8775L29.8788 21.2157L30.2174 21.5478L29.7387 21.9177C29.3887 22.214 28.967 22.4463 28.4454 22.6313C28.9868 22.4124 29.4315 22.2294 29.7797 22.0893C30.1336 21.9453 30.38 21.8775 30.5399 21.8775V21.5479L30.8312 21.7105L30.874 21.8775V22.214H30.5399C30.38 22.4329 30.2238 22.575 30.0414 22.6313L29.5422 23.0197C29.1654 23.1868 28.7365 23.4216 28.2578 23.7038C27.7791 24.0155 27.3702 24.2459 27.0228 24.3943H27.4041L31.2105 22.6313H31.5919L31.9285 23.0197L28.4453 24.722L31.9285 23.3468L32.258 23.7422L31.2104 24.3942L32.6349 23.7422V24.3942L27.404 26.11L33.0163 24.7219V25.4445L33.0681 25.1059L33.3484 25.0605L33.4886 25.264L33.3484 25.4445V25.7805H33.0163C32.8223 25.7805 32.6304 25.7991 32.423 25.8233C32.2151 25.8598 31.9373 25.9429 31.5918 26.11C31.2399 26.11 30.8175 26.1983 30.3369 26.3698C29.8422 26.5394 29.3232 26.7109 28.7792 26.8645L33.7323 25.7804V26.1099L30.8737 26.8644L33.7323 26.5393L34.0664 27.2048H32.6348H34.0664V27.5343L27.404 27.8709L27.0226 28.2095L34.0664 27.8709V28.2095L30.5396 28.6023H34.4407V28.914L30.2171 29.289H34.4407V29.6384H31.5917H34.4407V30.3929H30.8737H34.7773V31.0629H29.8785L34.7773 31.4494V31.7675H31.5917H34.7773V32.4337H31.5917H34.7773V32.7722L31.2103 33.1044H34.7773V33.5395H34.0663H34.7773V34.2013H31.9283H34.7773V34.5717L34.0663 34.9167L34.7773 34.5717V35.2551H31.5917H34.7773V35.9488H30.8737H35.1113V36.6215H30.8737L35.1113 37.0547V37.4342H33.0162H35.4499V37.7638L31.2103 38.0998H35.775L35.7753 38.1009Z" fill="#ED1C24"/>
<path d="M69.7428 15.7948L69.131 16.1334L70.3636 15.7948H69.7428ZM68.1833 31.1528L67.944 30.8616L67.752 30.8206L68.1833 31.1528ZM67.1447 22.9692H66.5214H67.1447ZM68.1878 19.0566H66.5214H69.1311H68.1878ZM66.1873 27.2543L68.1878 28.211H68.5174L68.8239 28.2493L69.1311 28.5297C69.6776 28.5297 70.1269 28.6129 70.468 28.753C70.8244 28.904 71.1495 28.961 71.4676 28.961L66.1873 27.2543V27.2543ZM66.1873 27.8724L66.8555 28.211L65.8981 27.5857L66.1873 27.8724ZM65.8981 34.2028L65.7311 34.4984L65.5666 34.8171L66.1873 34.5393L65.8981 34.2028V34.2028ZM65.8981 13.5052H65.5666L65.2326 13.7964L65.8981 13.5052V13.5052ZM65.5666 35.1422L64.9459 35.4782V36.1035L65.5666 35.1423V35.1422ZM67.5691 30.5339V30.1999L65.5666 29.2476H64.9459L67.5691 30.5339ZM65.2326 10.5569L64.5261 11.1642L66.5214 9.5164L65.2326 10.5569ZM64.5261 35.1422L64.7558 34.9611L64.9997 34.7403L65.2326 34.5394L65.5666 34.2029V33.7804C65.4042 33.9999 65.2479 34.119 65.0951 34.1644C64.9369 34.1804 64.7379 34.2029 64.5262 34.2029L64.3297 34.476L64.187 34.5394L64.5262 35.1423L64.5261 35.1422ZM64.1869 13.7964L65.5666 13.1711L68.5175 10.8346L66.8555 11.7876L64.1869 13.7964V13.7964ZM63.9003 34.2028C64.0564 33.9858 64.2823 33.8462 64.5709 33.7989C64.8487 33.7445 65.0809 33.6472 65.2326 33.4981L64.9459 33.1533L63.9003 34.2028ZM65.8981 10.8346L63.9003 13.1711L64.9459 12.4601L65.8981 10.8346V10.8346ZM63.9003 33.4981H63.5752V33.7804L63.9003 33.4981ZM63.5752 33.1533L64.5261 32.8282L64.1869 32.5318L63.5752 33.1533ZM65.5666 9.17532L63.5752 11.1643L64.9459 10.1282L65.5666 9.17532V9.17532ZM63.2366 32.8282L63.9002 32.2003L62.9569 32.5318L63.2365 32.8282H63.2366ZM62.957 32.2003L63.5752 31.8663H63.2366L62.957 32.2003V32.2003ZM63.2366 30.5339L62.6139 29.8684V30.1999L63.2366 30.5339ZM62.957 31.5841H62.3407L62.6139 31.8663L62.9569 31.5841H62.957ZM62.614 10.1282L62.3408 10.8346L64.1869 8.85022L62.614 10.1282ZM62.614 30.8206L62.3408 30.5339L61.9069 30.8206L62.3408 31.1528L62.614 30.8206ZM61.9069 29.5817H62.614L62.3408 29.2476L61.9069 29.5817V29.5817ZM62.614 9.5164L62.3177 9.69688C62.2658 9.83254 62.1308 9.97457 61.9068 10.1282L62.3407 9.79862L63.5752 8.22247L62.614 9.5164ZM60.6449 34.2028V34.5393L60.7895 34.7671L60.986 34.8171L60.6993 34.6315L60.6449 34.2028ZM60.6449 30.5339L60.3627 30.1999L60.6449 30.5339ZM60.3627 28.5297L60.6449 28.961L60.986 28.5297L60.6449 28.211L60.3627 28.5297ZM59.7465 32.5318V33.1533V32.5318ZM59.7465 9.17522V8.5545L60.3627 7.17741H60.0332L59.7465 9.17522H59.7465ZM59.7465 31.8663C59.5839 31.5182 59.4776 31.259 59.4104 31.0645L59.0713 30.5339V30.1999H58.6585L59.0713 30.8206L59.7465 31.8663V31.8663ZM57.7466 29.5817V29.8684L57.769 30.1999L58.0333 30.5339L57.769 30.0533L57.7466 29.5817V29.5817ZM57.0894 9.5164L57.4145 9.17522V8.85012L57.0894 9.5164ZM54.8003 30.5339L54.4637 32.2003V33.1533V32.8282L54.8003 30.5339ZM51.2244 30.8206L50.4705 31.5841L50.8 31.8663V31.5841L51.2243 30.8206H51.2244ZM49.5106 28.961L49.2354 29.2476L50.4705 28.211L49.5106 28.961ZM48.8969 8.22247L48.138 6.8524L48.5693 7.94025L49.2355 8.5546L48.8969 8.22247ZM46.8991 29.2476L46.5696 29.5817L46.8991 29.2476L48.8969 28.211L46.8991 29.2476ZM47.2242 26.9766H46.5696H47.2242ZM47.2242 22.3031V22.6326H47.5198L47.2242 22.3031H46.2803H47.2242ZM45.9507 27.8725L45.4272 28.0644L45.2397 28.2111L44.5717 28.5298L45.9508 27.8726L45.9507 27.8725ZM44.8986 15.7949H43.6142L46.8991 16.1335L44.8986 15.7949V15.7949ZM58.6586 28.5298V28.2111H59.0714V28.5298H59.4105V28.9611H59.7465L59.4105 28.2111L59.7465 27.8725L60.0332 28.5297L60.3627 27.8725L60.0332 27.2543L60.3627 26.9766L60.6449 27.2543L60.3627 26.9766L60.6449 26.6239L61.7399 27.2543L60.6449 26.6239V25.87L61.7399 26.3059L60.6449 25.87L60.986 25.5969L65.9365 26.6239H65.598L60.9859 25.2654L61.3181 24.9601V24.6395L62.9794 24.9601L63.9277 25.2654C63.4555 25.1073 63.0581 24.9537 62.7356 24.8251C62.4328 24.7055 62.1845 24.6395 62.0265 24.6395L61.5593 24.4859L61.318 24.2991H60.9859L61.1305 24.0706L61.3179 24.0169H62.0263H61.7396V23.2625L64.9815 23.6874L62.0263 23.2625V22.6328H61.7396L62.0263 22.3033V22.0165H63.3158H62.0263C62.0263 21.3504 62.0263 20.6848 62.0263 20.0187L62.2727 19.9777L62.5523 19.8766L62.9791 19.691L62.7353 19.8766L62.5522 19.9777L62.3603 20.0187V19.3615H62.6424H62.0261V19.0569L64.9813 18.4586L62.0261 18.7408V18.4586L62.3602 18.0209H62.0261V17.6958L64.6454 16.734L62.0261 17.3593L61.7395 17.068H62.0261L61.7395 16.734H62.3602L62.0261 16.4473L62.6424 16.1337L61.7395 16.4473V16.1337L62.0261 15.7951L61.7395 15.3657H62.0261L61.7395 15.7951L61.3177 15.0771L63.9274 13.1714L61.3177 15.0771L60.9856 14.7316L64.6454 11.1645L61.3177 14.1198L60.9856 13.7967L62.6423 11.7878L60.9856 13.1714H60.6444L60.3623 12.7472L62.9791 10.1285L60.3623 12.7472L60.0327 12.4605L60.9857 11.1645L60.3624 11.5012H60.0328L59.7462 11.7878H59.4102L60.9857 8.55487L60.6445 9.17559C60.5792 9.4239 60.5159 9.64725 60.4302 9.84187L60.2183 10.3544L60.0327 10.835L59.7461 10.5573L59.4101 11.5012L59.0709 11.1645L58.6581 10.835L59.4101 8.55487L58.6581 9.7989L58.3625 9.51677V9.17559L58.033 10.5573H57.7463V10.1285H57.0891V9.51677V10.1285L56.7979 9.79899V7.17787V7.94062L56.4613 9.79899H56.0306V7.94062L55.7503 9.79899H54.7999V9.51686H54.4634V9.79899H53.8471V10.1285H53.4228L53.0888 9.79899V7.94062L52.8021 7.51443V7.94062L53.0888 10.1286L52.8021 10.5574H52.4655V10.8351H51.8473V10.5574V10.8351L51.5152 11.1646L51.224 11.5013L50.7998 11.1646V11.5013H50.1336L50.4701 11.7879H50.7997L50.4701 12.1354V12.4606H50.1336V12.7472H49.8514L49.5103 13.1715L43.6139 12.1354L49.5103 13.5056L49.2351 13.7967H48.1375H48.8965V14.4494L45.5215 14.1199C45.9591 14.2261 46.3815 14.2959 46.7834 14.3656C47.1764 14.427 47.5303 14.4949 47.8464 14.5467C48.2036 14.6119 48.5465 14.6842 48.8966 14.7316L48.569 15.0771H46.8988L48.569 15.3658V15.7952L48.1376 16.1338V16.4473H46.8988H48.1376V17.0681H47.8464H48.1376V17.6959H47.8464V18.021L46.2799 17.6959L47.8464 18.021V18.741H46.8987H47.8464V19.3617H47.5195H47.8464V20.0189H45.9503H47.8464V21.3506H47.5195H47.8464L48.1376 21.6943H47.8464L48.1376 22.3036H47.8464L48.569 22.9698H47.8464V23.2629H47.2238H48.1375V23.6878L46.569 24.0173H48.5689V24.2994H48.1375H48.5689V24.9605L46.2798 25.2658L48.5689 24.9605L48.8965 25.2658H49.2351V25.5972L47.2238 26.3063H47.5194L49.2351 25.8704V26.3063L49.5103 26.6243L48.8966 26.9769L50.1337 26.6243V26.9769L49.8514 27.2547V26.9769L50.1337 27.2547H50.4702L50.7998 27.5862H50.4702H50.7998V27.8729H51.224L51.5152 28.2114H51.224V28.5302L51.5152 28.2114L51.8473 28.5302L51.5152 28.9614L51.8473 28.5302L52.1314 28.9614H52.4655V29.2481H52.8021L52.4655 30.2004L52.8021 29.2481H53.0888V29.8688L53.4228 29.5822H53.8471L53.4228 30.8211H53.8471V29.5822H55.0776V29.8688V29.5822H55.7502L56.4612 31.5846L56.0305 29.5822H56.7978V29.2481H57.4141L57.5562 29.291L57.7463 29.5822L57.4142 29.2481L58.0331 28.9614V29.2481L58.3626 28.9614L58.6582 29.8688V29.5822L58.3626 28.9614L58.6582 28.5302V28.9614V28.5302L58.6586 28.5298ZM43.3276 19.3613H42.8981H43.6142H43.3276V19.3613ZM42.2864 25.8701H42.5668L44.2799 25.597C43.9305 25.597 43.5912 25.6398 43.2572 25.7237C42.9212 25.8248 42.6006 25.8702 42.2864 25.8702V25.8701ZM43.3276 14.1196L42.2864 13.7965L42.5668 14.1196H43.3277H43.3276ZM42.5667 25.2655L45.2396 24.9602H44.8985L41.6183 25.2655H42.5667ZM41.6183 24.6396H44.5716L45.2396 24.2992H42.5667L41.6183 24.6396ZM44.8985 13.5054H41.6183H42.5667L45.9506 13.7966L44.8985 13.5054V13.5054ZM41.6183 18.0207H43.3276H41.3341H41.6183ZM41.6183 21.0681H42.8981H41.002H41.6183ZM41.9504 12.747L39.0016 12.4603L39.3318 12.747H41.9504V12.747ZM42.8981 23.6874C42.104 23.8358 41.3789 23.9331 40.6858 23.96C40.0063 24.0099 39.3515 24.017 38.72 24.017H41.3342L42.8982 23.6875L42.8981 23.6874ZM73.4904 22.0164V22.3032H69.5894L73.1609 22.6327V22.9693H71.8292L72.8787 23.2624V23.6873H70.8744L73.1609 24.0169L72.8788 24.299L68.2667 24.0169H69.1652L72.8788 24.6395V24.9601H69.9236L72.5447 25.2654V25.5969L67.9237 24.9601L72.2087 25.87V26.6239L69.9235 26.3059C70.4002 26.4615 70.795 26.5562 71.1137 26.5791C71.4362 26.6016 71.6641 26.6239 71.8292 26.6239V27.2543H71.4951V26.9766H70.5448L70.3547 26.9061L70.1492 26.8229L69.9234 26.6238L71.495 27.2543V27.5857L67.3092 26.6238L71.495 27.8724V28.5296L71.1629 28.9609V29.2475H69.9233L70.8742 29.5816L70.5447 29.8683L67.6003 28.9609L70.5447 30.1998L70.2554 30.5338L69.9233 30.8205L69.6936 30.7643L69.332 30.681L68.8873 30.5338L69.332 30.681L69.6936 30.7643L69.9233 30.8205L69.5892 31.584L69.549 31.385L69.165 31.1527L69.5892 31.584L69.165 31.8662L67.3092 30.5338V30.8205L69.165 31.8662L68.8873 32.2002L68.4495 32.0108L67.9549 31.7913C67.7718 31.7126 67.5645 31.6538 67.3092 31.584H67.6004L68.5488 32.5318V32.8282H68.2666V33.1533L67.9236 32.8282L68.0683 33.1059L68.2666 33.1533L67.9236 33.4981L66.9752 32.5319L67.9236 33.4981L67.6005 33.7804L66.2617 32.8282L67.3094 33.7804L66.9753 34.2028L65.3095 32.2003L66.9753 34.5393H66.542L65.5981 33.7804L66.2617 34.5393L65.9366 34.8171L64.3585 36.8213L63.9278 36.4041L64.3585 36.1034L63.9278 36.4041L62.9795 34.817H62.6429C62.9955 35.1734 63.2054 35.4242 63.2662 35.5958L63.5957 36.1033V36.404H63.3161L62.9795 36.1033L62.934 35.9502L62.6429 35.7647L62.5008 35.2841L62.3607 34.8169C62.433 35.0671 62.5079 35.3225 62.625 35.5707C62.7331 35.7986 62.8375 36.0244 62.934 36.2049C63.0582 36.4263 63.1895 36.6228 63.3162 36.8212H62.643L62.9796 37.1444H62.3607L62.0267 36.404L62.3607 37.1444L62.0267 37.4355L61.9838 37.2365L61.8871 37.056L61.74 36.8212V37.7651C61.5281 37.7651 61.3925 37.7447 61.3675 37.7178L61.3182 37.4355L61.2683 37.1311L60.9861 36.8213V36.4041C60.9861 36.7963 61.0315 37.0651 61.1308 37.1964L61.3182 37.4356L60.645 37.7652L59.0714 32.8281H59.4105L60.645 37.7652H60.3628L60.0333 37.1445L60.3628 38.7136H60.0333C59.9366 38.3431 59.8234 37.9297 59.6947 37.4785C59.6115 37.0831 59.4893 36.6721 59.3696 36.1442C59.2365 35.6316 59.1392 35.1082 59.0715 34.5392C59.2008 35.4377 59.3019 36.2888 59.3696 37.0017C59.3946 37.3902 59.4106 37.7447 59.4106 38.1011H59.0715V37.7651V38.1011H58.3631L58.3221 37.8055C58.2543 37.6295 58.1596 37.2839 58.0334 36.8212C58.0334 37.2839 58.0853 37.6295 58.18 37.8055L58.3631 38.1011H57.7468L57.0896 34.5392L57.7468 38.3974H57.4147L57.0896 37.4355V38.3974H56.4617L56.0311 37.7652L56.4617 38.3974H55.7507L55.4122 36.1033V38.3974H54.8004L55.0782 32.8281V32.5317V32.8281L54.8004 38.3974H54.4638L54.1343 36.1033L53.8476 38.3974H53.4234L53.8476 33.498V33.7803L53.4234 38.3974L52.8027 38.1011V38.3974L52.466 38.1011L52.8027 35.7647L52.1319 38.3974L51.8479 38.1011L52.1319 36.8212L51.8479 38.1011H51.2246L51.5158 36.8212L51.2246 38.1011H50.8003L51.2246 36.1033L50.4707 38.1011L50.1341 37.7651L51.2246 33.7802L49.5108 37.7651H49.2356L49.4205 37.3382C49.4858 37.1847 49.5536 37.0016 49.6151 36.7962C49.6803 36.5979 49.7546 36.354 49.8518 36.1032L49.2355 37.7651L48.5693 37.4355L49.2355 35.7647C49.1428 36.029 49.0416 36.2568 48.9667 36.4783L48.7543 37.0017L48.5694 37.4355L48.1381 37.1444L49.2356 34.8169L47.847 37.1444H47.2243L48.1381 35.478L47.2243 37.1444L46.8992 36.8212L47.2243 36.1033L46.8992 36.8212L46.5697 36.404L48.1382 33.498L45.9509 36.404L45.5221 36.1033L47.52 33.498L45.2398 36.1033L44.8987 35.7647L45.522 35.142L44.8987 35.7647L44.5718 35.478L45.9509 33.7803L44.5718 35.478L44.2799 35.142L46.5697 32.5316L43.9485 35.142L43.6144 34.8169L45.9509 32.5316L43.6144 34.5391L43.3277 34.2026L44.2799 33.1531L42.8983 34.2026L42.5668 33.7802L43.6144 33.1531L42.5668 33.7802L42.2865 33.498L43.3277 32.828L42.2865 33.498L41.9505 33.1531L44.8987 31.1526L41.6184 33.1531V32.828L43.3277 31.584L41.3343 32.2002V31.8662L44.2799 30.1998L40.2932 32.2002V31.584L43.9485 29.8682L40.2932 31.1526L39.9527 30.8205L41.9506 29.8682L39.9527 30.8205L39.6187 30.1997H40.2932H39.332V29.8682H39.6187L39.7562 29.8298L39.9527 29.5815C40.1083 29.5815 40.3546 29.5202 40.6638 29.3825C40.9863 29.2699 41.3024 29.1278 41.6185 28.9608C41.264 29.1278 40.9414 29.2564 40.6503 29.3575C40.3405 29.4886 40.068 29.561 39.8037 29.6397C39.5189 29.7235 39.2527 29.8067 39.0018 29.8681V29.2474L41.9507 28.2107L39.0018 29.2474L38.7203 28.5294L42.8985 26.9763L38.3837 27.8722V27.5855L38.758 27.5356L39.1695 27.4434L39.6187 27.2541C39.3634 27.2541 39.0811 27.3149 38.7579 27.4434L38.3836 27.5855L38.0541 26.9763C38.4943 26.9309 38.9481 26.8656 39.4312 26.7772C39.8395 26.712 40.3021 26.6326 40.7879 26.5558C41.2775 26.4949 41.7811 26.3933 42.2867 26.3056H41.9507C41.4451 26.3056 40.9326 26.319 40.4244 26.3548C39.9188 26.3709 39.4561 26.4297 39.0498 26.4949C38.5711 26.5558 38.1104 26.5877 37.6746 26.6236V26.3056L38.7202 25.8697H37.6746V25.5965L41.3344 24.9597H37.6746L37.3386 25.265V24.6391H38.3836H36.9975V23.6869H38.0541H36.9975V22.9689L38.3836 22.6324L36.7172 22.9689V22.016L39.9527 21.6935L36.9975 22.016V21.3498H36.7172V21.0677H37.6746H36.9975V20.3003H38.0541H36.3921L36.5322 20.0699L36.7171 20.0181H36.9974V19.6904H39.0017H37.3385L36.9071 19.4017L36.717 19.3608V18.4577H37.6744H36.717V17.695H38.3834H36.717V17.0671V17.3584V16.7332H38.3834H36.9973V15.7944L41.6183 16.133L36.9973 15.365V15.0764H39.3318H38.72L37.6744 14.7308H37.3384V13.7959L39.9526 14.1191L37.6744 13.7959V13.1707L39.3318 13.5047V13.1707H38.0539V12.7464H38.7201L37.6745 11.5004L44.8987 13.1707H46.5697L37.6745 11.5004L38.054 10.8342L44.2799 11.7871L39.6187 10.8342L39.0018 10.5565V10.1277L43.3277 11.1637H44.5718L39.3319 9.51594V9.17476L40.2931 9.51594V9.17476L41.6183 9.51594L39.9526 8.84966V8.55404L44.2798 9.79807C43.2596 9.47934 42.406 9.17476 41.6861 8.8881C40.9726 8.59248 40.508 8.38706 40.293 8.22192V7.9397H40.7134L40.8574 7.99856L41.0021 8.22192L41.3342 7.9397L43.3277 8.55404L41.0022 7.17695L41.3343 6.85185L45.522 9.17476L45.0479 8.87018L44.5718 8.55404C43.9305 8.02093 43.377 7.59224 42.8983 7.26714C42.4222 6.94453 42.1041 6.70722 41.9506 6.55613H41.6184V6.23103H41.9506C42.1041 6.23103 42.4855 6.41595 43.0724 6.81599C43.6528 7.22232 44.2665 7.68945 44.8988 8.22192L45.1836 8.26729L45.2399 8.55395L41.9507 5.93079L42.2867 5.6166L42.8985 5.93079H43.3279L44.899 7.51341L42.8986 5.2781V4.84932L46.2807 7.93961V7.51341L43.6147 5.2781V4.84932L44.5721 5.6166L43.6147 4.5537L43.9487 4.22416L47.5203 7.93961L47.8473 8.55395L47.2246 7.51341L44.5721 4.22416L44.899 3.94203L45.2401 4.22416L45.5223 3.94203L47.2246 6.55613L47.5202 7.17695L47.2246 5.61669L45.9511 3.60538L46.2806 3.26679L46.5699 3.94203L46.2806 3.26679L46.8995 3.0025C47.0934 3.36863 47.2918 3.77043 47.5202 4.18323C47.7096 4.52431 47.9265 4.93701 48.1678 5.39583C48.4026 5.86306 48.6491 6.33463 48.8973 6.85175V7.17685L49.511 7.93961L49.2537 7.68936L49.2359 7.17685L46.8995 3.00241L47.5202 2.65495L47.8472 3.60529C47.6916 3.28916 47.588 2.98004 47.5426 2.68442C47.4907 2.37725 47.398 2.23069 47.2246 2.23069V1.94856H47.8473V2.23069C48.0054 2.45146 48.1141 2.65495 48.1678 2.84891C48.2132 3.04085 48.3483 3.28916 48.5697 3.60529L48.3054 3.17845L48.1858 2.90963L48.1383 2.65495H48.5697V2.23069H48.8973L49.511 4.22416L49.2358 2.23069L49.511 1.94856L49.8521 2.65504L49.6602 2.36838L49.5629 2.12904L49.511 1.94856V1.60489H50.1343V2.23069L50.2763 2.5033C50.4005 2.76759 50.4709 3.02486 50.4709 3.26679L50.1343 1.94856H50.8005V2.65504V1.60489H51.2248L51.5159 2.23069V1.27776L51.8052 1.46267L51.8481 1.6048V3.00241L52.1098 3.30256L52.1321 3.60529L51.8481 1.27776H52.1321L52.4662 2.65495V1.27776H53.4236V1.94847V0.986572H53.8478V2.65495C53.9969 2.97552 54.0897 3.33194 54.1095 3.74733C54.1281 4.14922 54.1345 4.52422 54.1345 4.84932V0.986665H54.464L54.8006 1.27785V2.65504V0.986665H55.0784L55.4124 3.0025V0.986665H56.0313L55.7509 5.93079V5.6166L56.0313 0.986665H56.4619V1.27785H57.747L57.4148 3.26679L57.747 1.27785L58.0336 1.60489V1.27785H58.6589L58.3633 3.60538L59.0717 1.27785L59.4108 1.60489H59.7468V1.94856H60.0335L59.4108 4.5537C59.5663 3.92337 59.7173 3.36854 59.8395 2.90972C59.9637 2.4157 60.0335 2.11102 60.0335 1.94856L60.0788 1.79498L60.363 1.60489H60.9863L60.363 3.60529L60.9863 1.94856L61.7402 2.23069L61.3184 2.65495V3.00241L62.0269 2.23069H62.3609L61.7402 3.60529L62.3609 2.23069L62.643 2.65495L61.7401 4.84932L62.9797 3.00241H63.3163L63.4558 3.04085L63.5959 3.2667H63.3163V3.60529L63.1243 3.79926L62.9797 4.22416L62.6884 4.70922C62.6571 4.85837 62.643 5.04329 62.643 5.2781C62.8037 4.73159 63.0066 4.27138 63.237 3.83567C63.4808 3.43378 63.596 3.15609 63.596 3.00241H63.9281V3.60529L64.3588 3.2667H64.6462L62.9799 6.55595L64.9822 3.6052L65.3099 3.94185L63.9282 5.9307C64.2827 5.58962 64.5983 5.25555 64.885 4.93692C65.1813 4.62153 65.3099 4.39106 65.3099 4.22407H65.937L66.2621 4.55361L62.9799 8.84948L67.3097 5.61651L67.6009 5.9307L65.3099 8.55386L67.9241 6.23085L68.267 6.55595L66.2621 8.55386L68.5493 6.55595L68.8878 6.85166L68.5493 7.17676H68.8878L67.9241 8.22183L65.3099 11.5003L69.9239 8.22183L70.256 8.55395L68.267 10.1276L70.5452 8.84966L70.8748 9.17476L67.924 11.5004L70.8748 9.51594V10.1277L64.6462 14.4485L67.6009 13.1706L71.8295 11.1637L72.2091 11.5004L71.4955 11.787V12.1345L69.5898 12.7463L71.4955 12.4597L71.8295 12.7463L66.2621 14.7307H66.9757L72.2091 12.7463V13.1706L70.8748 13.7958L72.2091 13.5046L72.5451 13.7958L67.9241 15.0764L72.8791 14.1191V14.4486H72.5451L70.5452 15.0764H72.5451V15.3651L68.267 16.4466L72.8791 15.7946V16.1332H73.1613V16.4467L69.1655 17.0674L73.1613 16.7335V17.0674H72.2091H72.8791V17.3587H73.1613V17.6953L71.1634 18.458C71.7707 18.2328 72.1771 18.108 72.4005 18.0652L72.8791 18.0204H73.1613V18.458H72.8791V18.7402H71.1634H73.1613V19.0564H72.8791V19.361L73.1613 19.6905V20.0182V19.6905V20.3003H72.8791V20.6389H71.8296H72.8791V21.0677H73.1613V21.3498H72.8791V21.6935H70.5452L73.4909 22.016L73.4904 22.0164Z" fill="#ED1C24"/>
<path d="M103.058 11.5975L103.394 11.3152L104.347 10.875H104.018L103.058 11.5975L103.058 11.5975ZM102.349 27.5838L103.724 27.8705L102.681 27.5838H102.062H102.349H102.349ZM101.728 12.5593H102.349L102.203 12.503L102.063 12.2209L101.728 12.5593V12.5593ZM102.349 13.923H105.39H101.019H102.349ZM101.728 10.2791L102.063 9.92723L101.728 10.2791L100.062 11.3151L101.728 10.2791ZM100.062 31.6333L100.683 32.5817L100.344 31.9564L99.735 30.9159L99.9066 31.2563L100.062 31.6332V31.6333ZM98.3963 11.3151L99.735 9.92714L99.3037 10.279L98.3963 11.315V11.3151ZM97.6328 8.59033L98.3963 7.55432H98.0641L97.6328 8.59033ZM94.0236 8.88669L94.3077 6.93804V6.26732V6.60397L94.0236 8.88669V8.88669ZM91.698 30.2902L91.4068 30.6339V30.916L91.698 30.2902V30.2902ZM91.0703 9.64501C91.0703 9.42175 91.0523 9.23609 91.0274 9.0851C90.9915 8.91811 90.8674 8.75556 90.646 8.59042C90.8674 8.98788 90.9915 9.23609 91.0274 9.36732L91.0703 9.64501ZM89.734 8.59042L88.9776 7.55441C89.201 7.78026 89.343 8.01961 89.4109 8.26542C89.4697 8.52075 89.5851 8.72423 89.734 8.88688V9.21835L90.0253 8.88688L89.734 8.59052V8.59042ZM88.9776 6.93813V5.88863V6.93813ZM88.9776 30.6339V30.916L88.3633 32.3041L88.6954 32.5818L88.9775 30.6339H88.9776ZM88.0766 8.59042L88.1061 8.86821L88.3633 8.88678L88.0766 8.59042V8.59042ZM88.0766 11.3152L88.3633 10.5551H87.747L88.0765 11.3152H88.0766ZM88.0766 4.93569V4.61059L87.8827 4.55173L87.747 4.22219L88.0291 4.75078L88.0765 4.93569H88.0766ZM87.3138 9.21817H87.7471V8.88669L87.3138 9.21817ZM87.3138 9.92723L87.029 9.64501L86.6975 9.92723L87.029 10.2791L87.3138 9.92723ZM86.6975 8.26523L87.029 8.88669L87.3138 8.59033V8.26523H86.6975ZM86.4127 7.99715H87.029L86.6975 7.22922L86.4127 7.99715ZM86.6975 9.21817L86.0742 8.59033L86.6975 9.64492V9.21807V9.21817ZM86.6975 30.2902L85.6524 31.6334L87.029 29.9721L87.3138 29.5792L87.0047 29.8275L86.6975 30.2902V30.2902ZM86.0742 7.55432L86.4128 7.22922L85.6525 7.55432H86.0742V7.55432ZM86.0742 6.26732L85.3651 7.22922L86.4128 6.93804L86.0742 6.26732V6.26732ZM86.6975 29.5791L87.029 28.9129L85.0265 30.9159L86.6975 29.579V29.5791ZM85.6524 6.26732L85.0265 6.60397V6.93804L85.6524 6.26732V6.26732ZM83.9886 23.9311L85.0265 23.3148L84.4174 23.6399L83.9886 23.9312V23.9311ZM84.4174 6.26732L85.3651 5.27669C85.2052 5.27669 84.9863 5.31957 84.7175 5.42972C84.4578 5.51353 84.2119 5.56344 83.9886 5.56344L84.4174 6.26732V6.26732ZM83.6494 30.2901L85.6524 28.6403L84.4174 29.579L83.6494 30.29V30.2901ZM83.6494 5.27669L84.1754 5.21791L84.6951 4.93569H85.0265L84.6951 4.2221L84.505 4.41154L83.9886 4.61059L83.7967 5.08216L83.6494 5.27669ZM83.6494 3.88554L84.4174 3.56045V3.26483L83.6494 3.88554ZM85.3651 26.622L84.4174 27.2516L83.3628 28.6403L85.3651 26.6219V26.622ZM83.6494 4.61059L83.9886 4.2221L83.0332 4.93569H83.3627L83.6494 4.61059H83.6494ZM83.9886 29.2451L84.6951 28.6404L82.7464 30.2902L83.9886 29.2451ZM83.3628 26.9739L85.0265 25.9156L82.3177 27.2517L83.3628 26.9739V26.9739ZM83.3628 11.5975L83.0333 11.3153H82.3178L83.3629 11.5975H83.3628ZM81.9837 19.9756H81.3693H81.9837ZM82.7464 20.2713H81.7014L81.4147 20.4517L81.3693 20.5849H80.035H81.7014L82.7464 20.2713ZM80.035 15.2592H82.3177H81.7014L79.6991 14.968L80.0351 15.2592H80.035ZM80.035 27.8705L79.4187 28.3108L81.3693 27.2516L80.035 27.8705V27.8705ZM80.035 23.6398L79.4187 23.9311L80.6513 23.6398H80.035V23.6398ZM83.0332 11.9385L81.0826 11.3152C80.8618 11.3152 80.6673 11.2456 80.5118 11.0964L80.035 10.8749C79.4911 10.8749 79.0553 10.8276 78.7281 10.7265C78.3896 10.6068 78.0556 10.555 77.7101 10.555L83.0331 11.9384L83.0332 11.9385ZM110.388 25.9155C107.501 25.9155 104.616 25.9155 101.728 25.9155L110.061 27.2516V27.5838L101.728 26.9739L102.349 27.2517L109.345 28.3108V29.2452L105.679 28.6405L109.009 29.5792V30.2902L107.06 29.5792L108.727 29.9721V30.6339L107.682 30.2902L108.727 30.6339L108.394 30.916L105.679 29.9721C106.022 30.1187 106.352 30.2723 106.627 30.3919C106.914 30.5231 107.178 30.5974 107.395 30.6786L108.103 30.916V31.6334V31.2565H107.34L107.151 31.1055L106.729 30.9161C106.381 30.7536 106.04 30.6518 105.724 30.5974C105.41 30.5455 105.094 30.4573 104.776 30.2902L108.103 31.6334L107.682 31.9565L105.058 30.916L107.341 32.3041L107.06 32.5818L104.776 31.2565L105.058 31.6334C105.539 31.9745 105.988 32.2388 106.41 32.3969C106.841 32.5953 107.06 32.7622 107.06 32.905V33.3357H106.729C106.53 33.1822 106.329 33.0382 106.103 32.8596C105.916 32.7015 105.697 32.5525 105.462 32.3969C105.225 32.2748 104.992 32.1193 104.776 31.9567C104.55 31.7987 104.36 31.6521 104.207 31.4941L103.724 31.2567L106.729 33.3358L106.433 33.618H106.008H106.433L106.008 33.9591L104.347 32.582L105.679 33.9591V34.2368L102.681 31.9567L105.679 34.5709L105.39 35.0042L104.776 34.2368L104.347 34.5709L102.062 31.9567L101.019 31.2566L101.728 32.3043L104.347 35.63L104.017 35.9071L103.724 35.63H103.394L101.728 33.3358L101.396 32.582L101.728 33.9591L103.058 36.2462L102.681 36.6705L102.349 35.6299L102.681 36.6705H102.062C101.843 36.3186 101.613 35.948 101.396 35.5774C101.019 34.8755 100.572 33.9974 100.062 32.9051V32.3043L99.3035 31.6335C99.5357 31.8416 99.6554 32.0086 99.683 32.0988L99.7348 32.3043L102.062 36.9616H101.728L101.019 36.2462C101.209 36.6052 101.333 36.9073 101.396 37.1742C101.462 37.4334 101.57 37.587 101.728 37.587L101.536 37.8601L101.396 37.919H101.019V37.2823L100.725 36.8196C100.701 36.6705 100.683 36.4759 100.683 36.2462H100.344C100.509 36.5375 100.608 36.7134 100.638 36.7812L100.683 36.9616L100.344 37.2823V37.5869H100.062L99.3036 35.2817L99.7349 37.5869H99.3036L99.0125 36.9615L99.159 37.3884L99.2537 37.6616L99.3036 37.9188L99.2537 38.1556L99.0125 38.3405V37.9188H98.6848V37.5867L98.5427 37.1284L98.3961 36.6702L98.6848 37.9187H98.0641V37.282V38.3404H97.6327L97.3531 37.282V38.3404H97.021V36.9613L96.879 36.7265L96.7868 36.4757L96.7369 36.2459L97.021 38.6227H96.7369L96.4003 37.282V38.6227H95.3526V37.9187V38.6227L95.3079 38.8083L95.066 38.9503V37.282C95.066 36.9749 95.0122 36.5864 94.899 36.1013C94.7927 35.6297 94.739 35.1305 94.739 34.5706V38.6227H94.0236V37.282V38.6227L93.687 38.9503L93.3574 36.9614V38.9503L92.642 38.6227L93.0708 33.6177V34.2366L92.642 38.6227H91.4069V38.3405H91.0704L91.4069 36.2459L91.0704 38.3405H90.6461V38.6227H90.0254L90.3594 36.2459L89.7341 38.3405H89.411L88.9777 37.9188H88.6956L89.411 35.2816C89.1832 35.9907 89.0117 36.5641 88.8804 36.9999C88.7653 37.4562 88.6956 37.7429 88.6956 37.9188H88.3635V38.3405L87.7472 37.9188L88.3635 35.9069L87.7472 37.5868H87.0292L87.314 37.2822V36.9615L87.0292 37.5869L86.4129 37.2823L87.0292 35.9071L86.4129 37.2823H86.0743L87.0291 35.0041L85.6525 36.9616H85.3651L85.0785 36.8196L85.0265 36.6705H85.3651V36.2462L85.5034 35.7631L85.6525 35.2818C85.8643 35.2818 85.9975 35.2326 86.0224 35.1059C86.0634 34.9772 86.0743 34.8057 86.0743 34.5709C85.9482 34.8352 85.826 35.0745 85.7224 35.3478C85.6073 35.5845 85.5035 35.8149 85.4062 36.0222C85.2821 36.2346 85.158 36.449 85.0266 36.6705V36.9616H84.6952V35.9071L84.4175 36.6705L83.9887 36.2463L86.0743 33.3359L83.6495 35.9071H83.3629L84.6952 33.6181C84.5051 33.8913 84.3291 34.1039 84.1755 34.2933L83.7468 34.8149L83.3629 35.282L83.3155 35.5776L83.0333 35.6301H82.7466V35.282H82.3179L85.6526 30.9164L81.3695 34.237L81.0828 33.9593L83.363 31.2569L80.6515 33.6182L80.3219 33.3361L82.318 31.257L80.0353 32.9055L79.6993 32.5823H80.0353L79.6993 32.3046L80.6515 31.6339L83.363 28.3114L78.9948 31.2571L78.6517 30.9166L82.7467 27.5844L81.0829 28.3114L78.0419 29.9727L77.7104 29.5797L78.9948 28.641L77.7104 29.2458V28.641L83.3631 25.5955L82.318 25.9161L77.3175 28.3114L76.988 27.8712V27.5844L78.9948 26.6226L76.988 27.2523L76.7128 26.9745L83.0335 24.5364H82.7468L76.7128 26.9745L76.3762 26.6226L78.6518 25.5955L76.7128 25.9161L76.3762 25.5955L80.0354 24.5364L76.988 25.3043H76.3762L76.0441 25.5955V24.9588H76.988L78.042 24.2542L76.0441 24.5364V24.2542L80.6517 22.8661L76.0441 23.9317L75.6563 23.6404H76.0441V23.3153L78.3671 22.5974L75.6563 22.8661V22.5974L78.3671 22.2429L75.6563 22.5974V21.6355L77.7105 21.2157C77.3534 21.2157 77.0533 21.2381 76.8031 21.2835C76.5477 21.3263 76.3353 21.3828 76.1842 21.446L75.6562 21.6354C75.4981 21.405 75.4054 21.3398 75.3785 21.414C75.3421 21.4934 75.3311 21.4364 75.3311 21.2156V20.9244H76.044L76.5681 20.8815C76.7531 20.8451 77.0084 20.7619 77.3175 20.5853C77.0648 20.5853 76.8459 20.6083 76.6647 20.6378L76.1368 20.7843L75.6562 20.9244L75.3311 20.5853V20.2716H75.6562V19.5447H75.3311V19.2061H75.6562V18.924H76.7127H75.6562V18.5963H75.3311V18.3007H75.6562V17.9896L77.7103 17.5558H75.6562V17.2512H76.9879H75.6562V16.3118H76.7127H75.6562V15.8945H76.0439H75.6562L76.0439 15.2597L78.3669 15.6033L76.0439 15.2597V14.6461H77.7103L76.376 14.2237V13.9235L78.3669 14.2237L76.376 13.601V12.9841L78.6516 13.2707C78.4078 13.2035 78.157 13.1152 77.9362 13.0269C77.7193 12.9303 77.5113 12.8739 77.3173 12.8036C77.1029 12.6884 76.895 12.6276 76.7126 12.5597V12.2212H76.9878L77.5113 12.3882L78.0418 12.5597H78.6516L76.9878 12.2212V11.5979L81.3695 12.984L76.9878 11.5979V10.8754L77.3173 10.5554V9.9276L77.8932 10.1035C78.0802 10.2053 78.338 10.2795 78.6515 10.2795L77.7103 9.9276L78.0417 9.64538L81.3694 10.5554L78.0417 8.88706L78.3668 8.5907L78.6516 8.2656L78.8999 8.46909C79.1188 8.61371 79.3831 8.75575 79.6992 8.88697C79.383 8.75575 79.1187 8.61371 78.8999 8.46909L78.6516 8.2656L78.9947 7.99752H79.4189H78.9947L79.4189 7.55469L83.6496 9.9276L83.9888 10.2188C84.0514 10.2411 84.1942 10.2796 84.4176 10.2796L79.4189 7.55478L79.6993 6.9385C79.8573 7.06704 80.0692 7.20732 80.3219 7.36978C80.512 7.53427 80.7443 7.70578 81.0381 7.90474C81.3158 8.12366 81.6364 8.35395 81.9839 8.5907L80.0353 6.93841V6.60434H80.3219V6.26769L81.9839 7.22959L80.6516 6.26769L80.2273 5.69882C80.0693 5.54967 79.8888 5.37372 79.6814 5.15295C79.4734 4.94493 79.2456 4.76446 78.9948 4.61087C78.6722 4.26979 78.2704 3.94922 77.8026 3.67143C77.3175 3.39817 76.8458 3.2651 76.3761 3.2651H76.044L75.6562 2.92651C75.8885 2.72367 76.044 2.604 76.1369 2.55659L76.3762 2.50216C76.9425 2.50216 77.4916 2.67811 78.0151 3.00136C78.5321 3.30151 79.0019 3.65794 79.4191 4.08478C79.828 4.48667 80.187 4.87064 80.4943 5.2181C80.7899 5.57905 80.9839 5.80038 81.0829 5.88872L81.7018 6.60416L80.6517 5.56362L81.0829 5.27687L82.3181 6.60416L81.3697 5.27687L81.7018 4.93579L83.3632 6.93822L81.7018 4.93579L81.984 4.61069L83.0335 5.56362V5.27687L82.3181 4.93579L82.7468 4.61069L84.4177 2.22891L84.6954 2.50207L84.4177 2.92633H84.6954L85.6528 4.61069H86.0745C85.7226 4.2696 85.5037 3.94903 85.4063 3.67125C85.3162 3.39799 85.1875 3.26492 85.0268 3.26492V2.92633L85.0788 2.55641L85.3654 2.50198V2.92623H85.6528L85.7022 3.25577C85.7226 3.30114 85.8512 3.3844 86.0746 3.56035L86.2461 4.06852L86.4132 4.6105C86.1853 4.04606 85.9665 3.56035 85.745 3.17704C85.6208 2.96015 85.4948 2.74576 85.3655 2.50189L86.0746 2.22872V2.50189L85.6529 2.22872H86.4132L86.698 2.50189L86.4132 2.22872L86.698 1.89013L86.865 2.19278L87.0294 2.50189V1.60348H87.3142V1.89013L87.3545 2.08844L87.7475 2.50189L87.6706 2.24656L87.5036 1.94641L87.3142 1.60348H88.077L89.7344 6.60397L89.4113 6.26732L88.077 1.60357H88.3637L88.6958 2.22882L88.3637 0.567465L88.6958 0.226379C88.6958 0.395952 88.8378 0.892564 89.095 1.73923C89.3638 2.61722 89.5852 3.56045 89.7343 4.61059C89.6505 4.19078 89.5852 3.78639 89.5487 3.3845C89.52 3.00109 89.4835 2.63514 89.4521 2.32603C89.4316 1.96887 89.4111 1.61697 89.4111 1.27588H89.7342V1.60357V1.27588H90.0255L90.3594 0.840722L90.4043 1.31229C90.4427 1.4839 90.4721 1.66428 90.497 1.8722C90.5334 2.07514 90.5809 2.28953 90.6462 2.50189C90.6462 2.28944 90.6258 2.07504 90.5988 1.8722C90.5668 1.66428 90.5335 1.4838 90.497 1.31229L90.3594 0.840722H91.0705L91.6982 4.93569L91.0705 0.840722H91.407L91.6982 1.89022V0.840722L92.0252 0.567465V0.840722H92.3599L92.6421 1.60357L92.3599 0.840722L93.0709 0.567465L93.3576 3.26483V0.840722H94.0239L93.6872 6.60407V6.93813V6.60407L94.0239 0.840722H94.3079L94.7393 2.92633L95.0663 0.840722H95.3529L95.0663 5.88853V5.56344L95.3529 0.84063H95.9788V1.27579V0.84063H96.4005L95.9788 3.26473L96.7371 0.84063H97.0213L96.7371 2.22872L97.0213 0.84063L97.633 1.27579L97.3535 2.50189L97.633 1.27579H98.0644L97.633 2.92614L98.3965 1.27579H98.6852L97.6331 5.56334L99.3041 1.60338H99.7354L99.498 2.04363C99.4307 2.19268 99.3444 2.3751 99.2541 2.59457C99.1594 2.78402 99.0782 3.02336 99.0128 3.26464L99.7353 1.60338L100.345 1.89004L99.7353 3.26464L99.9516 2.75463L100.155 2.32585L100.345 1.89004H100.683L99.7354 4.61041L101.397 1.89004L101.729 2.22863L100.683 3.56035L101.729 2.22863L102.063 2.50179L101.729 3.26464L102.063 2.50179H102.682L100.683 5.88835L103.059 2.92605L103.395 3.26464L101.397 5.56325L103.724 3.26464L104.018 3.56026L103.395 4.22192L104.018 3.56026L104.347 3.88536L103.059 5.2765L104.347 3.88536L104.776 4.22192L102.35 6.93785L105.058 4.22192L105.391 4.61041L103.059 6.60388L105.391 4.61041L105.679 4.93551L104.776 5.88844L106.009 5.27659L106.434 5.56334L105.679 6.26723L106.434 5.56334L106.729 5.88844L105.679 6.60388L106.729 5.88844L107.061 6.26723L104.776 7.55423L107.061 6.26723L107.341 6.60388L105.679 7.99706L107.682 6.93794V7.22913L104.347 9.21807L108.104 7.55423V7.99706L104.018 10.279L108.104 8.26514L108.395 8.59024L107.341 9.21807L108.727 8.8866V9.21807L107.682 9.64492C107.964 9.64492 108.228 9.58411 108.485 9.46L108.727 9.21817H109.009V9.64501L108.727 9.92723H108.395C108.228 10.0917 108.052 10.1961 107.844 10.2408C107.641 10.2971 107.375 10.3944 107.061 10.5551L106.747 10.7266L106.433 10.875C106.747 10.8277 107.065 10.756 107.375 10.6677C107.668 10.5979 107.952 10.5231 108.21 10.4533C108.485 10.3945 108.761 10.3336 109.009 10.2792V10.5551L107.06 11.3152L109.346 10.5551V11.3152L106.008 12.5593L109.346 11.9385L109.77 12.2208H109.346C109.154 12.286 108.946 12.3493 108.727 12.4191C108.347 12.5029 107.885 12.5592 107.341 12.5592H109.77V12.9834C109.517 13.0538 109.214 13.1057 108.871 13.1145C108.289 13.2208 107.589 13.2701 106.729 13.2701H110.061V13.9229L107.06 14.6454L110.061 14.223V14.9679H102.681H110.388V15.2591H99.3036V14.9679H99.7349V14.6454H99.3036V13.9229L100.062 13.6003L99.0125 13.9229V12.9834L100.062 12.5592L98.6848 12.9834V12.5592L99.0125 12.2207L98.6848 11.9384L98.3961 12.2207L98.064 11.9384L98.3961 11.5974L98.064 11.9384V11.5974H97.6326L97.353 11.3151L97.6326 10.8749L97.353 11.3151L97.0209 10.8749L97.353 10.2791L97.0209 10.555H96.7368L96.4002 10.2791H95.9785L96.4002 9.21817L95.9785 10.2791H95.6867V9.21817L95.3526 9.92723L95.066 9.64501L95.3526 8.26532H95.066V9.92732H94.3077V9.6451V9.92732L94.0236 9.6451H93.687V9.21826V9.92732L93.3574 9.6451L93.0708 9.92732L92.3598 7.55441L92.6419 9.92732H91.698L91.4068 10.2792V9.92732H91.0703L91.4068 10.2792H90.3592L90.0252 9.64501L90.3592 10.5551L90.0252 10.875V10.5551V10.875H89.4109V10.2792L88.9775 10.5551L89.4109 11.3152L88.9775 11.5975L88.6954 10.8749L88.3633 11.3151L88.6954 11.9384L88.3633 12.2207H88.0766L88.3633 12.5592L88.0766 12.9834L87.029 12.2207L88.0766 12.9834V13.2701L87.029 12.9834L88.0766 13.2701L87.7471 13.9229L82.7466 12.9834H83.0333L87.7471 14.223V14.6454H87.3138V14.9679L85.6525 14.223H84.6952C85.1713 14.4239 85.6046 14.5802 85.9822 14.6454C86.361 14.7062 86.7155 14.8169 87.0291 14.9679H87.3139L87.5309 15.1215L87.7472 15.259L87.5033 15.5323L87.3139 15.6027H86.6976H87.0291V15.894H84.4175L86.6976 16.3112H87.0291L86.6976 16.6478L87.0291 16.93L86.6976 17.2505V17.5551H85.3652H86.6976C86.6976 18.2187 86.6976 18.8831 86.6976 19.5441H85.6525H86.4128V19.9754L86.0742 20.271H86.6975V20.5846L83.6494 20.9238H86.6975V21.2149H86.4127V21.6348H86.6975V21.917L83.9886 22.8653L86.6975 22.2421L87.029 22.5966H86.6975L87.029 22.8653V23.3145L86.0742 23.6396L87.029 23.3145V23.6396L86.6975 23.9309H87.029L84.6951 25.3035L83.3628 26.2066L87.029 23.931L87.3138 24.2535L84.6952 26.6219L87.3138 24.5356L87.7471 24.958L83.9887 28.6403L87.3138 25.5947L87.7471 25.9154L86.0743 27.5837L87.7471 26.6219H88.0766L88.3633 26.9738L85.6525 29.2449L88.3633 26.9738L88.6954 27.2515L87.747 28.6402L88.3633 27.8703L88.6954 28.3106L88.9775 27.5836L89.4109 27.8703L87.747 30.9158L88.0765 30.29L88.289 29.7914L88.5034 29.3467L88.6954 28.9128H88.9775L89.4109 28.3107L89.7339 28.6402H90.0252L89.4109 31.2562L90.0252 29.9718H90.3592V30.6336L90.6459 29.2449H91.4068V29.5789H91.698V29.9718V29.5789H92.025V32.3038V31.9562L92.3598 29.5788L92.6419 29.9717V31.9561L93.0707 29.9717H93.3573V29.5788H93.6869V29.9717H94.0235V30.2898H94.3076V29.9717L94.7389 29.5788V29.9717H95.0659V29.5788H95.3526L95.6866 29.9717V31.633L95.9784 32.3037V31.633L95.6866 29.2448H95.9784V28.9127C96.1902 28.9127 96.3214 28.9313 96.3553 28.9581L96.4001 29.2448V28.9127H97.0208V29.2448V28.6401H97.353V28.3106H97.6325L98.0639 27.8703L98.396 28.3106V27.8703H98.0639L98.396 27.5836V26.9738H98.6847V26.2065L103.724 26.6218L99.0124 25.9153V25.5946H106.008C105.272 25.5269 104.514 25.434 103.708 25.3304C102.891 25.2152 102.177 25.1045 101.536 24.9579C100.744 24.8446 99.9991 24.7026 99.3035 24.5355V24.2534L110.388 23.6397V23.931L101.728 24.5356C102.051 24.5356 102.493 24.6009 103.087 24.7436C103.679 24.8972 104.232 24.958 104.776 24.958C105.41 25.0598 106.04 25.1475 106.672 25.2019C107.314 25.2627 107.884 25.3305 108.417 25.4092C108.941 25.4566 109.37 25.511 109.733 25.5448C110.07 25.5673 110.293 25.5947 110.388 25.5947V25.9154L110.388 25.9155Z" fill="#ED1C24"/>
<path d="M135.874 1.79543H136.213V1.13821H137.924H136.213V0.666639V1.13821L135.874 1.79543ZM135.459 3.24036H137.208C136.888 3.24036 136.574 3.2154 136.253 3.17899C135.937 3.15654 135.667 3.02541 135.459 2.81361V3.24045V3.24036ZM134.727 5.21969H138.594L134.727 4.99181V5.21969ZM134.502 6.6538H137.924C138.461 6.49135 139.001 6.403 139.525 6.38055C140.048 6.38055 140.57 6.36197 141.073 6.36197L134.727 5.93125L134.502 6.6538V6.6538ZM132.032 18.2598V18.6866H133.775L132.032 18.2598ZM131.605 19.4021H134.071H131.309H131.605H131.605ZM130.646 20.6392V21.0679H131.605L130.646 20.6392ZM134.071 20.1202H130.646V20.4114L134.071 20.1202ZM135.874 21.777L130.217 21.4071V22.1046L135.874 21.777ZM134.502 23.2623H129.93V23.5586L134.502 23.2623ZM134.071 23.9598H129.521V24.2562L134.071 23.9598ZM130.217 20.6392H129.521V21.0679H129.93L130.217 20.6392ZM128.788 20.4113H130.217H126.09L128.788 20.6392V20.4113V20.4113ZM125.367 19.4021V19.6908L125.562 19.5467L125.776 19.4539L126.09 19.402H125.367V19.4021ZM125.367 16.0814H129.521L125.367 15.8375V16.0814ZM125.367 15.5349H131.605V15.124H125.367V15.5349ZM125.367 14.7855H129.224L125.367 14.4105V14.7855ZM123.606 18.2598H125.367V18.6866L128.788 18.2598L124.948 17.9231V18.2598H123.606H123.606ZM124.614 15.8375V15.5349H122.941L124.614 15.8375ZM128.449 22.5537V22.1045H129.93V21.407H128.449V21.0678H124.948L129.521 21.407V22.1045L122.518 22.5537H122.941L128.449 22.8218L129.521 22.5537H128.449ZM124.948 14.7855L122.218 15.1241H124.948V14.7855ZM121.471 14.4105H124.614V14.0693L121.471 14.4105ZM122.941 25.6395H121.089H122.941ZM120.04 23.5584H123.606L121.471 23.2621L120.04 23.5584ZM120.04 19.402H122.941V18.9733L120.04 19.402ZM129.521 23.2621H125.367L128.449 23.5584L128.18 23.9596H124.948L127.742 24.256V24.4856L124.948 24.9259V25.2651H126.794V25.6394H125.367V25.9671L120.751 26.3933H125.367V26.6799L122.218 27.1183H125.367V27.3961L122.218 27.8363H125.659V28.1096L119.326 28.3509H125.659V29.1002H125.367H125.659V29.5386H124.614H125.659V30.2515H121.471H125.659V30.9765H120.469C121.125 30.9765 121.782 30.9829 122.408 31.006C123.047 31.0463 123.606 31.0712 124.081 31.1071C124.64 31.1731 125.171 31.2222 125.659 31.2588V31.6805H120.469L125.367 31.9582V32.2495H123.888H125.367V32.9719H122.218H125.367V33.6836H122.218H125.367V34.1053L122.941 34.3874H125.367V34.8169L120.751 35.1081H125.367V35.5343L122.218 35.8164H125.367V36.1032H122.218L125.659 36.5889V36.8211H122.941H125.659L129.224 23.9596V23.5584L129.521 23.2621H129.521ZM119.744 24.4856H123.888L121.791 24.256L118.369 24.4856H119.744ZM123.606 20.639H124.947L122.518 20.4111V20.1199H123.175V19.6905L117.227 20.1199L123.606 20.6389L123.606 20.639ZM120.468 22.1044L126.09 21.7768L121.791 21.4069L116.897 21.7768L120.469 22.1044H120.468ZM152.343 37.9455V38.2411H137.924V37.9455L143.931 37.5231H137.655V37.2364C138.298 37.1846 139.021 37.1213 139.782 37.0559C140.419 36.9907 141.125 36.9318 141.915 36.88C142.721 36.8346 143.52 36.8211 144.358 36.8211H136.935V36.1032H141.782H136.583V35.5343H138.366H136.213V35.1081L141.073 34.8169H135.874V34.3874H136.213C136.495 34.3874 136.811 34.365 137.172 34.3355C137.479 34.3042 137.863 34.2677 138.288 34.2383C138.714 34.2248 139.2 34.1731 139.732 34.1052H135.163V33.6835H136.213H134.727V32.9719L140.778 32.62H135.163V32.2495H134.502V31.9582L137.924 31.6805H134.071V31.2588L139.732 30.9766H133.35V30.5338L136.935 30.2517H133.079V29.83H134.727H132.639V29.5388L137.208 29.1004H132.355V28.7798H132.032V28.1098H134.071H131.605V27.8365L136.213 27.3963H130.883V27.1185H131.309C131.474 27.1185 131.867 27.0961 132.533 27.0552C133.177 27.0282 133.908 26.9016 134.727 26.6801H130.883V26.3934H130.646V25.9673L133.775 25.6396H130.217V25.2653H133.35H129.93V24.4858H131.309H129.521L125.659 38.6701H114.093V37.9457H116.619H114.093V37.5234L117.227 37.2367H113.762V36.8214H116.619L114.093 36.5892V36.1034H116.619H114.093V35.5346H117.947H113.762V34.8172H119.085L113.762 34.3877V34.1055H117.947L114.093 33.6839V33.3971H115.468H114.093V32.9722L119.744 32.6203L114.522 32.2499V31.9586H116.191H113.039V31.2592H117.611H113.761V30.5341H116.619H114.093V30.2519H115.895H114.093V29.5391H118.665L113.761 29.1007V28.7801H115.468H114.093V28.3513L118.665 28.1101H114.093V27.3965H119.084L114.093 27.1187V26.6803H116.619H114.093V25.9674H117.227H114.093V25.6398L118.369 25.2655H116.897V24.9263H114.522V24.2563L118.369 23.9599H119.084L114.093 23.5587V23.2624L117.947 22.8221H116.897V22.554H117.947V22.1048L114.093 21.7772V21.4073L118.369 21.0681V20.6393H119.744L114.093 20.1204V19.6909H117.227H114.093V18.9736H116.619H114.093L113.806 18.9505L113.761 18.6868H114.522C114.673 18.4654 114.78 18.3477 114.824 18.3028C114.867 18.2805 115.005 18.2601 115.224 18.2601H114.093V17.9234H118.665L114.093 17.5062V17.224H119.084L114.093 16.7946V16.5489H113.761V15.8379H116.619H114.093V15.5353L116.619 15.1244H114.093V14.7858H117.227L114.093 14.4108V14.0696H118.665L114.093 13.6434V13.3613H114.522V12.9319L118.665 12.6906H114.093V11.984H115.468H114.093V11.6974L118.665 11.2571H114.093V10.9564H114.522L120.751 10.2205H114.093V9.51658H115.224H114.523V9.08715H117.947L114.093 8.8503V8.1259H117.227L113.762 7.79193V7.41693H115.468H114.093V7.07833L115.468 6.65408H113.762V6.36225L118.665 5.93152H114.093H114.523H114.093V5.66732L114.141 5.46384L114.523 5.21997H116.191H114.523V4.99208H114.798H113.762V4.27211H117.947H113.762V3.56314H114.093V3.24054H115.469H114.093V2.50394H116.191H114.093V2.09123L118.369 1.79561H114.093V1.36618L119.085 1.1383H114.093V0.666732H125.659V1.1383L119.744 1.36618L125.659 1.79561V2.50394L122.519 2.8137H125.659V3.24054H122.941H125.368V3.94258H122.941H125.368V4.27211H124.948V4.52495L117.227 4.99208L121.792 5.21997H125.659V5.93152H124.614H125.368V6.36225H123.889H125.368V7.07843H122.941H125.659V7.41702L123.889 7.79202H125.659V8.12599H123.176H125.659V8.85039H122.941H126.09V9.08724H125.368V9.7988H122.941H125.368L125.659 10.2205L121.471 10.5571H125.659V10.9564H125.368V11.6975H122.218H125.659V11.9841L123.176 12.2235H125.368V12.6907L121.471 12.932H125.659V13.3614L120.469 13.6435H125.368V14.0697H127.454H126.09V12.932H129.522H126.09V12.6907L132.355 12.2235H127.04V11.6975H130.217H127.454V11.2572H130.646L128.181 10.9565V10.5572H130.646H128.181V9.79889H128.788V9.51676H133.35H129.522V8.85048H131.31H129.522V8.36542H130.217H129.93V7.79211H131.31H130.217V7.41711H130.883H130.646V7.07852H131.605C131.822 6.85701 132.044 6.72403 132.249 6.69899C132.446 6.66314 132.719 6.65417 133.08 6.65417H134.071V5.93162L131.605 5.66742V5.22006H134.502V4.99217H132.64V4.52504H133.08V3.94276H134.728H133.775V3.24073H135.163V2.81388H134.502V2.50412H135.163H134.728L134.529 2.47086C134.511 2.44785 134.502 2.31477 134.502 2.09133H135.163V1.79571H135.459V1.13849L135.874 0.418518H150.244V0.666824H149.495H149.917V1.36628H149.199V1.79571H148.77V2.09133H145.637H148.49V2.50403H148.77L148.49 2.81379H145.34H148.203V3.24063H147.481V3.94267H144.359H147.059V4.27221H146.293V4.99217H142.221H146.065V5.66742H145.637V5.93162H140.505L144.919 6.36234V6.65417H143.214H144.62V7.07843H143.932V7.41702H144.359L143.932 7.79202H142.449L134.071 8.12599C134.77 8.12599 135.416 8.17081 136.026 8.25019C136.629 8.33345 137.263 8.36533 137.925 8.36533H142.449V9.08724H136.584H141.783V9.7988H135.874L141.501 10.2205V10.5571H140.778V10.9564H137.656L140.505 11.2571V11.6974H139.733H140.069V11.984H137.925H139.302V12.6906H137.656H138.595V12.9319L135.163 13.3613H138.367V13.6434H134.502L137.656 14.0696V14.4108H135.459H137.209V14.7858H136.584H136.936V15.8378H137.209V16.5488H136.936H137.656V16.7945H133.35V17.224H137.925V17.9233H134.071L138.595 18.26V18.6868L134.728 18.9736H139.022V19.6909H136.584H139.733V20.1204L134.502 20.4116L140.069 20.6394V21.0682H135.459L140.778 21.4074V21.7773L136.584 22.1049H141.501V22.5541L136.936 22.8222H142.221V23.2625L135.875 23.5588H142.449V24.2564H137.925H142.88V24.9263H143.214V25.2656H143.585V25.6398H141.783H143.585V26.3937H144.359V26.6804C144.133 26.6804 143.607 26.6944 142.799 26.7348C141.99 26.7509 140.963 26.8884 139.733 27.1188H144.621V27.3966H142.88H144.919V27.8368L140.505 28.1101H145.34V28.3513L141.074 28.7801H146.065V29.1007L144.359 29.5391H146.293V30.2519H147.058V30.5341L142.448 30.9769H147.481V31.2591L143.932 31.6808H148.203V31.9585L143.584 32.2498H148.49V32.6202L144.919 32.9721H148.49V33.397C148.104 33.397 147.713 33.406 147.298 33.4399C146.914 33.4712 146.478 33.5071 145.998 33.541C145.505 33.5596 144.95 33.6159 144.359 33.6837C145.029 33.6159 145.659 33.5595 146.271 33.541C146.894 33.5071 147.427 33.4712 147.919 33.4399C148.49 33.406 149.023 33.397 149.495 33.397V33.6838C149.068 33.7804 148.625 33.8643 148.158 33.9205C147.734 33.9858 147.264 34.0178 146.707 34.0492C146.153 34.0965 145.56 34.1054 144.919 34.1054H149.495V34.3876L143.932 35.1082L149.916 34.817V35.5344L144.359 35.8165H150.903V36.1033C150.747 36.1033 150.215 36.1129 149.264 36.1442C148.343 36.1826 147.264 36.3201 146.065 36.589H151.348V36.8212H149.198C148.462 36.8212 147.743 36.8801 147.023 37.0336C146.316 37.1757 145.622 37.2365 144.919 37.2365H151.623V37.5232L149.916 37.9456H152.344L152.343 37.9455Z" fill="#ED1C24"/>
<path d="M161.829 13.4808L161.632 12.6431V13.4808H161.829ZM161.632 10.4622H161.504L161.632 11.0177V10.4622ZM161.632 5.79122H161.504V5.89749H161.632V5.57239V5.79122ZM161.632 4.43011V4.30147H161.504L161.632 4.43011ZM161.632 3.82029V3.62189H161.504H161.632V3.82029ZM161.632 3.26481H161.504V3.48623H161.632V3.26481ZM161.632 2.82004H161.504V3.02353H161.632V2.82004ZM161.504 2.82004H161.632H161.504ZM161.156 13.9229H161.375V13.6747H161.156V13.9229ZM161.375 13.9229H161.156H161.375ZM161.111 4.98041H161.375V4.75068H161.111V4.98041ZM161.375 4.49978H161.111H161.375ZM161.375 11.4891H160.892L161.111 12.0536L161.375 11.4891ZM161.375 10.4621H160.892V11.0176H161.375V10.4621ZM160.784 9.88415H161.375V9.38948H160.784V9.88415ZM161.375 9.88415H160.784H161.375ZM161.375 3.92185H161.483H161.375ZM161.147 3.64869H161.375H161.147ZM161.483 2.75471H161.147L161.483 2.97363V2.75471ZM161.147 2.30356L161.483 2.50188V2.30356H161.147V2.30356ZM160.555 2.62155H160.668H160.555ZM161.483 12.1324V12.0082L160.343 12.1324H161.483ZM160.088 2.75471H160.669H160.088ZM161.702 13.9229V13.6747H159.51L161.702 13.9229ZM159.51 5.89749H161.966V5.79122L159.51 5.89749ZM161.147 9.35825V8.87707L157.86 9.13942L161.147 9.35834V9.35825ZM161.483 11.5321L161.375 10.9856L157.422 11.1936L161.483 11.5322V11.5321ZM161.375 10.505L161.147 9.94949L157.422 10.1665L161.375 10.505V10.505ZM165.231 9.05551L164.838 6.12787L164.608 4.98041V6.12787H164.414V4.98041V6.12787H163.942V5.89749H163.811V5.31955V6.12787H163.604L163.319 4.98041V6.12787H162.994V5.89749H162.761L162.511 4.49988V6.12787H162.314V6.37811H160.669H162.314V6.60396H161.483L162.314 6.74858V6.93802H159.844L162.314 7.22015V8.02588H159.844L157.065 8.2204L160.894 8.58394V8.36253H161.147V8.58394H162.314L162.185 8.83862H162.314V9.05551H161.375H162.314V9.38957H162.185V9.88425H162.314V9.05551H163.147V9.6449V9.05551H163.319V9.6449L163.604 9.05551H163.942V8.83862H164.414V9.6449V8.83862H164.608V9.05551H164.838V9.26094V9.05551H165.231H165.231ZM158.427 19.0769L156.582 18.9708V19.0769H158.427ZM159.052 18.517H156.582V18.7385L159.052 18.517ZM159.052 21.1855C158.562 21.1855 158.081 21.1767 157.621 21.1536C157.151 21.1356 156.765 21.0793 156.474 20.991V21.1855H159.052ZM172.789 6.12777H171.983V4.75058V6.12777H171.498V5.09102V6.12777H171.363V4.98032L171.171 6.12777H170.868V5.5723V6.37802H170.679V5.31955C170.615 5.15257 170.57 4.96239 170.559 4.74162C170.55 4.52215 170.538 4.33714 170.538 4.16757V6.12777L170.419 6.35104L170.354 6.37802V5.5723L170.058 6.12777H169.872V6.37802H169.721V5.09102V6.12777H169.25V5.5723V6.37802H169.031V5.79112V6.12777H168.922V6.37802H168.443V6.12777V6.37802H168.209V6.60387H168.103V5.79112V6.12777H167.884L167.741 6.35104L167.624 6.37802V6.12777H167.405V5.89739V6.37802H167.306V5.79112V6.12777H167.089V6.37802H166.856V6.12777H166.269V4.98032V6.12777H166.048V5.89739V6.12777H165.649V5.89739V6.12777H165.45L165.231 4.49978V6.12777L165.45 9.05542H165.649V9.64481V9.05542H166.048V10.0736V8.83853H166.269V9.05542H166.856V8.83853H167.089V9.05542H167.405V9.64481V9.05542H167.884L168.103 10.0736V9.05542H169.031V9.64481V9.05542H169.503V8.83853H169.872V9.26085V9.05542H170.058V9.64481V9.05542H170.539V10.0736V9.05542H170.868V8.83853H171.363V9.05542H171.498V9.64481V9.05542H171.984L171.498 12.5208V14.1372H171.363V13.9228V14.1372H170.868V12.5208L170.679 14.1372H170.539L170.679 10.4621V10.2048L170.354 14.1372H169.872L169.721 13.1145V12.3088L169.503 11.0175V14.1371H168.922L168.703 12.3088L168.443 10.9202V14.1371H168.209V12.8733L168.103 14.1371H167.624V13.4806V14.1371H167.306V12.8733V14.1371H167.089V13.4806V14.1371H166.602V13.4806V14.1371H166.45V13.9228H166.269V14.1371H165.777V13.3405V14.1371H165.649V13.9228V14.1371H165.45L165.231 12.8733V14.1371H164.838V13.9228V14.1371H163.942V12.0535L163.811 14.1371H163.604V13.3405V13.9228H163.319V14.2792H163.147V13.1144L162.994 14.1371H162.761V13.3405V13.9228H162.511V13.4806L162.402 13.6405L162.314 13.6744V14.1371H159.844L162.314 14.2791V14.4915H159.052C159.445 14.5568 159.845 14.6086 160.237 14.6631C160.623 14.6996 160.973 14.7283 161.291 14.7283C161.649 14.7513 161.98 14.7648 162.314 14.7648V15.1033H160.556H162.314V15.3248L160.556 15.5795H162.314V15.765H159.845C160.179 15.8144 160.463 15.8438 160.723 15.8572C160.994 15.8572 161.226 15.8707 161.398 15.8937C161.608 15.9115 161.795 15.9115 161.967 15.9115H162.186L162.143 16.1214L161.967 16.1393H160.556L162.314 16.3786V16.5975H159.845L162.314 16.7312V16.9475H159.845L162.314 17.1849V17.4288H159.511L162.314 17.5369V17.7584H161.376H162.314V18.2345H159.053L162.314 18.4559V18.5865L159.511 18.8169H162.314V19.0402H156.474V19.6636L162.186 19.853V20.068H161.376H162.314V20.228L160.556 20.4744H162.511V20.6728C162.416 20.6728 162.107 20.6997 161.608 20.7835C161.093 20.8532 160.506 20.8942 159.845 20.8942H162.186V21.2372H161.375H162.314V21.5015H161.484H162.314V21.8534H161.484H162.314V22.0658H160.669L162.314 22.3204V22.5195L156.582 22.6437H155.777V22.0658H156.025V21.8534H155.777V21.7088H156.025H155.777V21.0292H156.025H155.777V20.6728H156.025V20.4744H155.777V20.228H156.025H155.777V19.6636H156.257V18.8169H155.668V18.5865H156.257V18.4559H155.668V18.2345H156.474V18.0175L155.668 17.7584V17.5369H158.427L155.668 17.4288V17.1849H158.427L155.438 16.9475V16.7312H157.282L155.668 16.5975V16.3786H157.422L155.777 16.1393V15.9114H156.474H155.668V15.7649H155.438V15.3246H157.86H155.668V14.9585H159.052C158.592 14.9272 158.174 14.8908 157.772 14.8753C157.368 14.8388 157.018 14.8165 156.702 14.7941C156.341 14.7737 155.991 14.7646 155.668 14.7646L155.467 14.7281L155.438 14.4914H155.777L156.156 14.394L156.582 14.2789H158.711L155.668 14.1369V13.9225H158.427L155.668 13.6743V13.4803H156.582H155.668V13.1142H158.1H155.777V12.5203H158.233H155.668L155.438 12.3084L155.546 12.0916L155.668 12.0531H159.052L155.668 11.8362V11.7166L159.28 11.245H155.668V11.0171H159.28L155.668 10.6805V10.4616H157.422H155.668V10.0731H159.72L155.668 9.64435V9.38902H157.422H155.668V9.05496H159.052L155.668 8.83807V8.58339H158.427L155.668 8.36197V8.02532H156.257H155.668V7.75724H156.257H155.668V7.41357H156.474H155.668V7.2196H157.282L155.668 6.93747V6.74803H156.474H155.668V6.12731H157.282H155.668V5.89693L157.282 5.79066H155.668V5.57183L157.86 5.319H155.668V5.09056C155.926 5.10655 156.212 5.10655 156.526 5.09056C156.79 5.09056 157.077 5.0816 157.402 5.0816C157.743 5.04131 158.082 5.01192 158.427 4.97985H155.668V4.75012H157.422L155.668 4.49932V4.1672L157.422 3.93941H155.668V3.69369H156.582H155.668V3.46331H155.777V3.13119H157.422H155.777V2.88547L156.582 2.6525H155.777V2.52396H157.422H156.025V2.04334H155.777V1.84428H158.233L156.257 1.70927V1.48342H158.233L156.025 1.23696V1.03865L159.511 0.891998L155.777 0.66356V0.415346L160.894 0.66356H162.186V0.891998H162.314V0.415254H162.511V0.663467V0.415254H162.761L162.994 1.70918V0.415254H163.147V1.23687V0.663467H163.604L163.811 1.23687V0.663467H163.942V1.84419V0.415161H164.414V1.70909V0.415161H164.608L164.838 1.70909V0.663375H164.969V1.8441V0.663375H165.45V2.32537V0.415161H165.649V0.663375H166.048V1.23678V0.415161H166.269V1.23678V0.891813H166.602V4.16701V0.663375H166.856L167.089 2.32537L167.305 0.663375H167.405L167.089 4.75003L167.405 2.65232V1.70909H167.624V0.663375H167.883V0.415161H168.103V0.891905H168.443V0.663467H168.703V0.891905H168.922V0.663467H169.031L169.25 0.891905H169.502V2.52378V0.663375H169.872V2.32537V0.663375H170.679V2.32537V0.663375H171.171V2.52378V0.663375H171.983V2.52378L172.211 0.663375H172.311V0.891813V0.663375H172.527L172.789 6.12722L172.789 6.12777Z" fill="#101010"/>
<path d="M195.239 4.25151H193.435H193.863V4.42746L195.239 4.25151ZM195.097 4.83638L193.051 4.67392L193.25 4.83638H195.097ZM193.051 3.18787H192.859H194.25V3.05933H195.239L193.051 3.18787H193.051ZM193.435 7.31935C193.644 7.31935 193.906 7.26751 194.175 7.17731C194.475 7.08453 194.778 7.06014 195.097 7.06014H192.592V7.31935H193.435ZM193.863 5.83404L192.592 5.64913V5.83404H193.863ZM192.592 3.4433H193.25H192.592ZM192.592 5.2562H192.453H192.592ZM192.191 2.76815H193.051V2.63757L192.191 2.76815ZM192.453 6.2315H191.209H192.453V6.49135H194.25H192.453V6.2315ZM192.592 8.0285V7.85699H194.451L192.453 7.68991L190.387 7.85699H192.453V8.0285H191.787L192.223 8.28125L192.453 8.31072H192.592V8.0286H193.435H192.592V8.0285ZM186.953 17.3998H186.572H186.953ZM186.425 15.9139L186.572 15.729H186.425V15.9139ZM185.944 16.7337H187.199H185.944ZM185.016 15.4852H187.578L185.944 15.3271L185.016 15.4852ZM186.425 14.9297C186.183 14.9297 185.937 14.9706 185.705 15.0634C185.454 15.1466 185.221 15.1895 185.016 15.1895H186.425V14.9297H186.425ZM184.779 17.4741H185.802V17.2801L184.779 17.4741ZM187.578 14.3653L186.152 14.0971H184.779L187.578 14.3653ZM188.597 13.6766C188.305 13.6766 187.976 13.6567 187.578 13.6114C187.218 13.5685 186.883 13.5461 186.572 13.5461L186.434 13.6114L186.305 13.6433L186.152 13.6767H185.944L183.933 13.9257H186.152L188.597 13.6767V13.6766ZM181.551 6.49135H179.765V6.6174L181.551 6.49135ZM180.176 6.07089H179.765H180.713H180.176ZM180.713 5.2562L179.765 5.09374V5.2562H180.713ZM179.765 7.31944H179.918H179.515H179.765V7.31944ZM179.515 3.85868C179.708 3.85868 179.959 3.80425 180.243 3.73901C180.515 3.65131 180.759 3.60584 180.966 3.60584H179.515V3.85868V3.85868ZM179.765 8.0285H178.946H180.176H179.765ZM180.713 3.18797H179.765V3.44339H178.946H179.515L180.713 3.18797V3.18797ZM179.765 7.06023L180.966 6.89962H179.765L178.363 7.06023H179.765ZM177.307 2.76815H179.515L180.596 2.63757L177.307 2.76815H177.307ZM178.363 3.17909V3.02551H177.133L178.363 3.17909ZM175.731 8.87064H175.912H174.248H175.731ZM199.605 15.4851V15.7289H199.858V15.9138L198.352 16.1422H199.605V16.354H198.352H199.605V16.7335H197.202L199.605 16.9843V17.1174H198.352H199.858V17.5392H197.532H199.858V17.991H198.731H199.858V18.1311H197.334L199.605 18.3813V18.5099H197.805L199.605 18.7788V18.9259H197.532L199.858 19.1806V19.5825H198.352H199.858V19.9773H198.352H199.858V20.163L196.954 20.4496H199.858V20.7633H198.731H199.858V20.9847L199.41 21.0026C199.106 21.0321 198.754 21.1107 198.352 21.1875H200V21.3641L196.954 21.5536H199.858V21.8224C199.605 21.8224 199.329 21.8224 199.047 21.8563C198.776 21.8607 198.501 21.8876 198.196 21.9056C197.88 21.919 197.552 21.9466 197.202 21.976H199.858V22.2307L199.586 22.2531L199.291 22.312L198.993 22.3824H199.605V22.6326H193.358V22.3824H193.762C193.959 22.303 194.331 22.2531 194.863 22.2441C195.401 22.2307 195.945 22.2307 196.548 22.2307C196.121 22.2307 195.728 22.2243 195.349 22.2153C194.974 22.1923 194.647 22.1744 194.342 22.1315C194.015 22.0906 193.687 22.0387 193.358 21.976H193.076L193.229 21.8564L193.358 21.8225H195.15H193.358V21.3642H195.992C195.379 21.3642 194.81 21.3412 194.286 21.2625C193.753 21.208 193.434 21.1876 193.358 21.1876V20.9847H195.556L193.075 20.7633V20.5873H194.778H193.358V20.1631H195.15H193.358V19.9774L195.556 19.7772H193.358V19.5825H194.155L193.358 19.3611V19.1807H194.778H193.358V18.7788H194.342H193.5V18.5099L195.992 18.3813H193.358V18.1311H194.155H193.358V17.7784H194.778H193.358V17.5392L195.15 17.3996H193.358V17.1174L195.556 16.9843H193.358V16.7335L195.556 16.5914H193.358V16.354H194.778L193.5 16.1422V15.9138H195.992L193.075 15.7289V15.4851H194.342H193.5V15.1895L194.9 15.327L193.5 15.1895V14.9297H194.342H193.358V14.5143L197.333 14.3653L193.358 14.0971V13.9256H194.155H193.358L193.229 13.8935L193.075 13.6766H193.358V13.546H195.556H193.358V13.1486H194.155H193.358V12.9547H195.15L193.358 12.6904V12.5233H195.15H193.358V12.1483H195.556H193.358V11.751H194.778H193.358V11.4918L194.778 11.3177H193.5V11.0329H195.556L193.358 10.8773V10.6584H194.778H193.358V10.3397H195.15H193.358V9.96542H195.15H193.358V9.67414L195.15 9.47962H193.358V9.26329H195.349L193.5 9.08669V8.87027H196.415L193.358 8.69432V8.45248H192.112H193.075V8.87027H191.707H193.075V9.08669L190.904 9.26329H192.94V9.67414H192.296H192.94V9.96542H192.681V10.3397H191.296H192.681V10.4933H192.552H192.681V10.8772H192.112H192.681V11.0328L190.511 11.3176H192.552V11.4917H190.511L192.297 11.7509V12.1482L189.647 12.2794L192.112 12.5232V12.6903L189.899 12.9546H192.112V13.1485C191.865 13.1798 191.611 13.2183 191.353 13.2318C191.12 13.2458 190.868 13.2727 190.563 13.2817C190.269 13.2931 189.965 13.2931 189.647 13.2931C189.965 13.37 190.247 13.4128 190.498 13.4486C190.751 13.4756 190.976 13.496 191.15 13.5191C191.36 13.5459 191.554 13.5459 191.707 13.5459V13.6765L188.511 13.9255L191.707 14.3652V14.5142H191.296H191.707V14.9296H190.904H191.554V15.1894L189.507 15.3269H191.297V15.485L190.705 15.7288H191.297V15.9137H190.312H191.297V16.3539H191.15V16.5913H189.507H191.15V16.9843H190.511H190.904V17.1173H190.062L190.904 17.3995V17.5391H190.705V17.7783L188.929 17.9908H190.705V18.1309H190.511V18.5098H189.506H190.511V18.9257H189.899H190.312V19.1804H189.899H190.312V19.5823H189.125H190.062V19.7769L189.506 19.9771H190.312V20.1628H190.062L190.168 20.2076L190.312 20.4494H189.647H189.899V20.9844H189.125H189.899V21.3639H189.647V21.5534H189.899V21.8222H189.317H189.863L189.899 21.9757H189.647L189.538 22.0071C189.495 22.0249 189.36 22.1043 189.125 22.2304H189.507V22.6323H184.528V22.382L185.221 22.2303H184.528V21.9756H184.655H184.528V21.8221H184.285V21.3638H185.221H184.285V21.1873L185.059 20.9843H184.057V20.7629H184.655H184.057V20.4493H184.831H183.858V19.977L184.528 19.7767H183.858V19.5821H185.059H183.858V19.1802H185.221H183.442V18.7783H184.528H183.442V18.5095L184.528 18.3808H183.442V18.1306H183.857H183.271V17.778H184.284H183.271V17.5387H183.857H183.02V17.117H184.655H183.02V16.7331H184.056H182.876V16.591L184.528 16.3536H182.876V16.1417L184.056 15.9133H182.876V15.7284H182.625V15.3265H185.059L182.625 15.189V14.9292H184.655L184.364 14.7667C184.228 14.7532 184.067 14.7308 183.857 14.7308H182.446V14.5139H185.682L182.446 14.3648V14.0966H183.442H182.446V13.6762H183.442H182.208V13.5457L183.661 13.2928H182.034V13.1482H183.02H182.034V12.69H182.625H181.869V12.523L182.876 12.2791H181.869V11.8907H182.446H181.632V11.3173H181.478V11.0325H182.208H181.478V10.6581H181.632H181.478V10.4931H181.239V10.3395L182.208 10.0938H181.239V9.96524H182.208H181.083V9.47944H181.869H181.083V9.2631H181.632H181.083V9.08651H180.801V8.69413H182.208H180.801V8.31017H181.239H180.67V8.4523H180.801V8.87008H180.212H180.67V9.96514H180.801L180.67 10.3394V10.877L179.404 10.658H178.431L180.801 10.877V11.0325H178.593C179.216 11.0325 179.708 11.085 180.101 11.1816C180.491 11.2788 180.735 11.3173 180.801 11.3173V11.4914H178.593C178.909 11.4914 179.21 11.5004 179.46 11.5343C179.721 11.5566 179.959 11.5994 180.157 11.6309C180.374 11.6763 180.602 11.7103 180.801 11.7506V11.8907H179.018H180.801V12.5229H178.821H180.801V12.9542H179.404H180.801V13.1481H179.99L180.289 13.2179L180.55 13.2588L180.801 13.2927H181.083L180.955 13.5187L180.801 13.5456V13.9251H180.406L180.212 13.9475C180.157 13.9538 180.038 14.0127 179.828 14.0966H180.67V14.3648H180.406H180.67V14.5139H180.801V14.9292H179.828H180.67V15.189H179.616L180.801 15.3265V15.4846H180.67V15.7284H180.801V15.9133H179.828H180.67V16.3536H178.821H180.67V16.591L179.828 16.7331H180.67V16.9839H179.828H180.67V17.117L178.051 17.3992H180.801L181.083 17.5387L180.801 17.778H179.828H180.67V17.9904L178.821 18.1305H180.67V18.3808L178.821 18.5094H180.67V18.7782H179.828H180.801V18.9253L179.828 19.18H180.67V19.3605L178.821 19.5819H180.67V19.9768H179.828H180.801V20.1624L178.821 20.4491H180.67V20.5867L178.051 20.984L180.801 20.7626V21.1869L177.363 21.3635H180.801V21.5529L176.954 22.2299L180.67 21.9752V22.3817L174.338 22.6319V22.23L179.018 21.553H174.338V21.3636L175.155 21.187H174.338V20.984L177.599 20.7626H174.338V20.5867L175.155 20.4491H174.338V20.1624L176.213 19.9768H174.338V19.7765H175.832H174.338V19.18H175.974H174.338V18.9253L176.367 18.7782H174.338V18.5094L176.213 18.3808H174.338V18.1305L176.213 17.9904H174.338V17.778H176.367C176.037 17.7378 175.767 17.6948 175.525 17.6539C175.308 17.6154 175.087 17.5841 174.904 17.5616C174.697 17.5572 174.509 17.5386 174.338 17.5386V17.3991L176.803 17.1169H174.338V16.733L175.832 16.5794H174.338V16.3535H175.832H174.742V15.9132L179.261 15.7283H178.821L174.579 15.9132V15.4845H176.652L174.579 15.3264V15.1889L179.261 15.3264L176.803 14.929H175.582L174.579 14.7306V14.5137H174.338V14.3646H174.742V14.0964H175.403H174.742V13.9249H174.338V13.676H175.403L174.579 13.5454V13.2926H174.338V13.1479H174.579V12.9541L177.23 12.6898H174.579V12.2788H176.803H174.338V11.8904H175.155H174.338V11.7503H175.155H174.338V11.317H176.803H174.338V10.8768H176.954H174.338V10.4928H174.579H174.184V10.3392H174.338V9.96496H175.582H174.338V9.67368H174.184V9.47916H174.338V9.26283H174.579H174.338V8.69395H176.652L178.431 8.45211L174.338 8.30998V8.02786V8.30998V8.02786L174.184 7.85634L176.367 7.68927L178.431 7.47238H174.184V7.31879L176.367 7.05958H174.338V6.89897H174.184V6.61685H174.99H174.184V6.23085H176.367H174.338V5.83348H175.403H174.338V5.64857H174.184V5.44056H174.338V5.25564H174.184V4.83582H175.155H174.184V4.67337H174.338H174.184V4.42691L176.367 4.25096H174.338V4.04747H174.184V3.85812H174.338H174.184V3.05887H176.803L174.184 2.81315V2.63711H175.155H174.338V2.47012H174.184V2.04522H174.742H174.184V1.78601H175.155H174.338V1.65738L176.803 1.38865H174.338V0.986756H174.742H174.338V0.842134L181.479 0V0.162457L175.974 0.842042L177.767 0.986663V0.568877H183.858V0.842042L182.034 0.986663H184.057V1.2395L183.021 1.38865H184.057V1.65738L182.876 1.78601H184.057V2.04522H184.285V2.23975H183.271H184.285V2.63711H183.661H184.528V2.81315L182.625 3.05887H184.528V3.18741H184.285H184.528V3.60529C184.294 3.60529 184.034 3.60529 183.781 3.62322C183.291 3.65963 182.754 3.74732 182.208 3.85803H181.632H184.655V4.25087H184.057H184.655L184.831 4.42682L182.876 4.67327H184.831V4.83573H184.285H185.059V5.25555H184.057H185.059V5.44046L184.528 5.64848H185.221V5.83339H185.059H185.221V6.07015H185.059H185.221V6.49061L182.876 6.61666H185.454V6.89879H184.655H185.454V7.31861H185.221H185.454V7.68908L185.025 7.78131C184.779 7.84719 184.45 7.85616 184.057 7.85616H185.682V8.02767H185.454H185.682V8.69386H185.926V8.86981L184.528 9.08623H185.926V9.26283H186.063V9.47916L184.831 9.67368H186.063V9.96496H185.926H186.063V10.3392L184.831 10.4928H186.314V11.317H185.221H186.456V11.7503H186.718V12.1477H185.221H186.718V12.5227H186.063H186.718V12.6898H186.063H186.718V13.1479H185.682H186.863V13.2926H187.463C187.782 13.2926 188.138 13.2926 188.511 13.2811C188.901 13.2721 189.263 13.2222 189.647 13.1479H190.312L187.332 12.9541V12.6898L189.899 12.5227L187.463 12.2788V12.1477H188.929L187.463 11.8905V11.7504H188.694H187.716V11.3171H188.928H187.716V10.6579H188.928H187.844V10.4929H189.317L187.844 10.3393V10.0936H188.511H187.844V9.67378H188.511H187.844V9.47925H189.646L188.109 9.26292V9.08632H189.646L188.109 8.8699V8.69395H189.317H188.246V8.30998H189.646H188.51V8.02786H189.506L188.51 7.85634V7.68927H189.125H188.51V7.05958H188.693V6.89897H188.928V6.61685H189.506H188.928V5.83348H189.125V5.64857H190.705C190.335 5.56476 189.964 5.49683 189.635 5.46301L189.125 5.44056H188.928L189.125 5.25564H189.317H189.125V4.67337H189.317V4.42691H190.312H189.317V4.04738H190.511H189.506V3.85803L191.971 3.6052L189.646 3.44274V3.05878H190.904H189.899V2.63702H191.707L189.899 2.47003V2.04513H190.511H189.899V1.65728H190.062H189.899V1.38856H190.062V1.23941H190.705H190.062V0.841949H190.904H190.062V0.568785H199.857V0.841949H198.73H199.857V1.23941H198.993H199.857V1.38856H198.993H199.604V1.78592H198.73H199.857V2.04513H198.351L199.604 2.23965V2.47003H197.532L199.604 2.63702V2.81306H197.202L199.604 3.05878V3.18732H198.73H199.604V3.85803L197.202 4.04738L199.604 3.85803L199.857 4.25087L195.992 4.42682L199.604 4.67327V4.83573H198.73H199.604V5.093L198.73 5.25546H199.857V5.44037L196.414 5.64839H199.604V6.23066H198.195H199.604V6.49052L197.532 6.61657H199.857L199.965 6.65298L199.999 6.8987H198.351L198.893 6.98445L199.299 7.0229L199.604 7.05931V7.31852H198.351H199.857V7.68899H198.73H199.604V7.85607L197.805 8.02758H199.604V8.30971H198.351H199.604V8.69367H198.351H199.604V8.86962L197.202 9.08605H199.857V9.47888H199.604V9.67341H197.805H199.604V10.0932H197.805H199.604V10.3389L197.333 10.4925H199.604V10.6576L198.351 10.8765H199.857V11.032H197.532L199.857 11.3168V11.4909H197.532L199.604 11.7501V11.8902H197.805L199.604 12.1474V12.5224L197.333 12.6895H199.604V12.9538H198.195L199.604 13.1477V13.2923H197.954H199.857V13.5451H199.999L199.857 13.6757H197.805H199.604V14.0961H197.202H199.857V14.5133L196.547 14.7303H199.857V14.9287L196.414 15.1884L199.999 15.326V15.4841H199.604L199.605 15.4851Z" fill="#101010"/>
<path d="M165.07 30.051C165.07 31.077 164.804 31.9764 164.272 32.749H164.291L160.149 39H157.147L160.111 34.668C158.73 34.6554 157.603 34.2184 156.729 33.357C155.868 32.4957 155.437 31.3937 155.437 30.051C155.437 28.683 155.88 27.5747 156.767 26.726C157.666 25.8647 158.825 25.434 160.244 25.434C161.663 25.434 162.822 25.8647 163.721 26.726C164.62 27.5874 165.07 28.6957 165.07 30.051ZM158.04 30.051C158.04 30.697 158.249 31.2227 158.667 31.628C159.085 32.0207 159.611 32.217 160.244 32.217C160.903 32.217 161.435 32.0207 161.84 31.628C162.258 31.2227 162.467 30.697 162.467 30.051C162.467 29.405 162.258 28.8857 161.84 28.493C161.435 28.1004 160.903 27.904 160.244 27.904C159.611 27.904 159.085 28.1067 158.667 28.512C158.249 28.9047 158.04 29.4177 158.04 30.051Z" fill="black"/>
<path d="M171.487 39.266C169.828 39.266 168.523 38.639 167.573 37.385C166.636 36.1057 166.167 34.4274 166.167 32.35C166.167 30.2727 166.636 28.6007 167.573 27.334C168.523 26.0674 169.828 25.434 171.487 25.434C173.172 25.434 174.476 26.0674 175.401 27.334C176.338 28.6007 176.807 30.2727 176.807 32.35C176.807 34.4274 176.338 36.1057 175.401 37.385C174.476 38.639 173.172 39.266 171.487 39.266ZM174.204 32.35C174.204 30.9314 173.97 29.8484 173.501 29.101C173.045 28.3537 172.374 27.98 171.487 27.98C170.6 27.98 169.929 28.3537 169.473 29.101C169.017 29.8484 168.789 30.9314 168.789 32.35C168.789 33.7687 169.017 34.8517 169.473 35.599C169.929 36.3337 170.6 36.701 171.487 36.701C172.374 36.701 173.045 36.3274 173.501 35.58C173.97 34.8327 174.204 33.756 174.204 32.35Z" fill="black"/>
<path d="M181.056 37.632C181.056 38.0754 180.897 38.4554 180.581 38.772C180.264 39.0887 179.884 39.247 179.441 39.247C178.997 39.247 178.617 39.0887 178.301 38.772C177.984 38.4554 177.826 38.0754 177.826 37.632C177.826 37.1887 177.984 36.8087 178.301 36.492C178.617 36.1754 178.997 36.017 179.441 36.017C179.884 36.017 180.264 36.1754 180.581 36.492C180.897 36.8087 181.056 37.1887 181.056 37.632Z" fill="black"/>
<path d="M182.226 28.208V25.7H190.814V27.923L186.311 39H183.537L187.907 28.208H182.226Z" fill="black"/>
</svg>
