<svg width="200" height="200" viewBox="0 0 200 200" fill="none" xmlns="http://www.w3.org/2000/svg">
<path d="M43.9738 73.0611C43.6426 72.7676 43.2037 72.631 42.762 72.6833L17.3571 75.8015C16.5841 75.8974 16 76.5542 16 77.3359V104.406C16 104.848 16.1889 105.269 16.5202 105.563C16.805 105.813 17.1682 105.949 17.5431 105.949C17.6042 105.949 17.6681 105.946 17.732 105.937L27.4615 104.743C28.2346 104.647 28.8187 103.99 28.8187 103.212V86.0251L31.6724 85.6735V102.479C31.6724 102.921 31.8613 103.342 32.1955 103.636C32.5268 103.929 32.9686 104.066 33.4074 104.014L43.1369 102.819C43.9128 102.723 44.494 102.067 44.494 101.285V74.2148C44.494 73.7731 44.3051 73.3517 43.9738 73.0582V73.0611Z" fill="#E31E24"/>
<path d="M73.0578 69.4896C72.7265 69.1961 72.2847 69.0595 71.8459 69.1118L59.6172 70.6142C51.8028 71.5732 47.3187 75.9469 47.3187 82.6134C47.3187 84.8627 47.9377 86.7952 49.1088 88.193C49.7888 89.0067 50.6432 89.617 51.6168 89.9948L45.5373 100.003C45.2292 100.509 45.2379 101.145 45.5605 101.642C45.8482 102.087 46.3364 102.349 46.8566 102.349C46.9206 102.349 46.9816 102.346 47.0455 102.337L57.9491 100.997C58.4635 100.933 58.9139 100.617 59.1435 100.152L60.9482 96.5219V98.8816C60.9482 99.3233 61.1371 99.7447 61.4713 100.038C61.8025 100.332 62.2443 100.468 62.6831 100.416L72.2237 99.2448C72.9996 99.1489 73.5809 98.4922 73.5809 97.7104V70.6404C73.5809 70.1987 73.392 69.7773 73.0578 69.4838V69.4896Z" fill="#E31E24"/>
<path d="M75.7285 80.0851C76.0598 80.3786 76.4986 80.5152 76.9404 80.4628L80.6224 80.0124V96.4782C80.6224 96.9199 80.8113 97.3413 81.1426 97.6348C81.4273 97.8847 81.7906 98.0213 82.1655 98.0213C82.2265 98.0213 82.2904 98.0184 82.3544 98.0097L92.0839 96.8153C92.8569 96.7194 93.441 96.0626 93.441 95.2809V78.4373L97.4979 77.9404C98.2709 77.8445 98.8551 77.1877 98.8551 76.406V67.5454C98.8551 67.1036 98.6662 66.6823 98.332 66.3887C98.0007 66.0952 97.5619 65.9586 97.1201 66.011L76.5626 68.5363C75.7867 68.6322 75.2054 69.289 75.2054 70.0707V78.9313C75.2054 79.3731 75.3943 79.7944 75.7285 80.088V80.0851Z" fill="#E31E24"/>
<path d="M73.0549 101.311C72.7236 101.017 72.2848 100.881 71.8431 100.933L62.1135 102.128C61.3376 102.223 60.7564 102.88 60.7564 103.662V111.308L57.9026 111.66V104.394C57.9026 103.953 57.7137 103.531 57.3795 103.238C57.0483 102.944 56.6094 102.808 56.1677 102.86L46.4382 104.054C45.6623 104.15 45.0811 104.807 45.0811 105.586V132.656C45.0811 133.098 45.2699 133.519 45.6012 133.812C45.886 134.062 46.2493 134.199 46.6242 134.199C46.6881 134.199 46.7491 134.196 46.8131 134.187L56.5426 132.993C57.3156 132.897 57.8997 132.24 57.8997 131.459V123.284L60.7535 122.932V130.726C60.7535 131.168 60.9424 131.589 61.2766 131.883C61.6079 132.176 62.0467 132.313 62.4884 132.258L72.2179 131.063C72.9939 130.967 73.5751 130.311 73.5751 129.532V102.462C73.5751 102.02 73.3862 101.599 73.0549 101.305V101.311Z" fill="#E31E24"/>
<path d="M104.807 97.4111C104.475 97.1176 104.036 96.981 103.595 97.0333L94.0541 98.2044C93.563 98.2655 93.13 98.5561 92.8917 98.9891L87.6869 108.399V100.733C87.6869 100.291 87.498 99.8696 87.1667 99.5761C86.8354 99.2826 86.3966 99.146 85.9549 99.2012L76.5654 100.355C75.7895 100.451 75.2083 101.108 75.2083 101.886V128.956C75.2083 129.398 75.3971 129.82 75.7313 130.113C76.0161 130.363 76.3794 130.5 76.7543 130.5C76.8182 130.5 76.8792 130.497 76.9432 130.488L86.5594 129.308C87.0505 129.247 87.4835 128.956 87.7218 128.523L92.851 119.241V126.789C92.851 127.23 93.0399 127.652 93.3712 127.945C93.7025 128.239 94.1413 128.375 94.583 128.323L103.973 127.169C104.746 127.073 105.33 126.417 105.33 125.635V98.5648C105.33 98.1231 105.141 97.7017 104.807 97.4082V97.4111Z" fill="#E31E24"/>
<path d="M137.218 112.188C136.884 111.776 136.355 111.564 135.829 111.628L135.448 111.674V94.8682C135.448 94.4265 135.259 94.0051 134.928 93.7116C134.597 93.4181 134.155 93.2815 133.716 93.3367L123.987 94.5311C123.211 94.627 122.63 95.2838 122.63 96.0655V113.252L119.776 113.601V96.795C119.776 96.3532 119.587 95.9319 119.256 95.6383C118.924 95.3448 118.483 95.2082 118.044 95.2606L108.311 96.455C107.538 96.5509 106.954 97.2076 106.954 97.9894V125.059C106.954 125.501 107.143 125.923 107.477 126.216C107.809 126.51 108.25 126.646 108.689 126.594L122.664 124.879V128.567C122.664 129.009 122.853 129.43 123.188 129.724C123.472 129.974 123.836 130.11 124.21 130.11C124.274 130.11 124.335 130.107 124.399 130.099L131.217 129.262C131.804 129.189 132.298 128.788 132.49 128.23L137.485 113.662C137.657 113.159 137.558 112.601 137.224 112.188H137.218Z" fill="#E31E24"/>
<path d="M159.731 91.3461C159.484 90.6719 158.807 90.2564 158.092 90.3435L147.264 91.6716C146.677 91.7443 146.183 92.1453 145.991 92.7062L136.337 120.962C136.166 121.465 136.265 122.023 136.599 122.435C136.895 122.799 137.337 123.008 137.799 123.008C137.86 123.008 137.924 123.005 137.988 122.996L148.438 121.712C149.081 121.633 149.604 121.165 149.752 120.535L150.336 118.07L155.276 117.463L155.802 119.459C156 120.206 156.715 120.692 157.485 120.599L167.935 119.317C168.403 119.259 168.819 118.992 169.066 118.591C169.313 118.19 169.362 117.695 169.199 117.254L159.734 91.3461H159.731Z" fill="#E31E24"/>
<path d="M182.294 111.878C181.963 111.584 181.524 111.447 181.082 111.503L171.687 112.656C170.914 112.752 170.33 113.409 170.33 114.188V122.711C170.33 123.153 170.519 123.574 170.853 123.868C171.138 124.118 171.501 124.254 171.876 124.254C171.94 124.254 172.001 124.252 172.065 124.243L181.46 123.089C182.236 122.993 182.817 122.336 182.817 121.555V113.031C182.817 112.589 182.628 112.168 182.297 111.875L182.294 111.878Z" fill="#E31E24"/>
<path d="M183.529 87.8007C183.195 87.4752 182.73 87.3183 182.265 87.3764L170.501 88.8207C169.673 88.9224 169.074 89.6664 169.153 90.4975L170.931 109.521C170.969 109.936 171.176 110.32 171.501 110.581C171.777 110.802 172.12 110.921 172.469 110.921C172.533 110.921 172.594 110.918 172.658 110.91L180.867 109.901C181.588 109.811 182.152 109.233 182.216 108.509L183.994 89.0474C184.038 88.5824 183.866 88.1233 183.532 87.7978L183.529 87.8007Z" fill="#E31E24"/>
</svg>
