<svg width="200" height="200" viewBox="0 0 200 200" fill="none" xmlns="http://www.w3.org/2000/svg">
<path fill-rule="evenodd" clip-rule="evenodd" d="M16 89H19.0836V96.9529V104.906H16V89.0069V89ZM19.0836 96.9529L25.9171 89H29.8867L23.0532 96.9529L29.8867 104.906H25.9171L19.0836 96.9529V96.9529ZM102.191 104.906H91.8273V89.0069H102.191V91.6372H95.1238V95.5381H101.092V98.3677H95.1238V102.269H102.191V104.899V104.906ZM123.728 101.898C124.415 102.344 125.218 102.584 126.043 102.584C127.141 102.584 128.199 102.145 128.975 101.376C129.751 100.607 130.191 99.5627 130.184 98.4707C130.184 97.6534 129.937 96.8636 129.483 96.1837C129.023 95.5107 128.371 94.9818 127.615 94.6728C126.853 94.3637 126.015 94.2813 125.212 94.4393C124.401 94.5972 123.659 94.9956 123.083 95.5725C122.499 96.1494 122.107 96.8842 121.949 97.6809C121.791 98.4775 121.874 99.3086 122.197 100.057C122.513 100.806 123.048 101.451 123.735 101.898H123.728ZM122.197 93.4091C123.337 92.1798 124.923 91.3969 126.736 91.3969C130.369 91.3969 133.281 94.5629 133.281 98.4775C133.281 102.392 130.191 105.119 126.558 105.119C124.745 105.119 123.179 104.631 122.039 103.264V110.125H118.955V91.6098H122.203V93.4023L122.197 93.4091ZM138.13 93.5739C138.556 92.9146 139.833 91.3969 142.099 91.3969C143.864 91.5067 144.524 92.0493 144.524 92.0493L142.869 94.2264C142.869 94.2264 142.099 94.1165 141.653 94.1165C139.627 94.1165 138.425 95.5999 138.123 96.6232V104.899H135.039V91.6098H138.123V93.5671L138.13 93.5739ZM156.865 100.765C156.268 103.051 154.001 105.119 150.664 105.119C146.337 105.119 143.638 102.53 143.638 98.3951C143.638 94.3294 146.399 91.3969 150.513 91.3969C154.043 91.3969 157.085 93.4984 157.085 98.1204L157.037 99.1094H147.044C147.072 101.362 148.473 102.791 150.657 102.791C150.657 102.791 152.875 102.825 153.775 100.765H156.865V100.765ZM150.533 94.1371C148.514 94.1371 147.161 95.5519 147.058 97.2345H153.802C153.782 95.442 152.477 94.1371 150.533 94.1371ZM161.941 101.616C161.783 101.376 161.645 101.163 161.604 100.765H158.404C158.424 101.541 158.582 102.001 158.884 102.578C159.2 103.134 159.626 103.608 160.155 103.999C160.697 104.37 161.329 104.645 162.05 104.83C162.785 105.016 163.513 105.119 164.358 105.119C165.052 105.119 165.828 105.036 166.542 104.885C167.256 104.734 167.902 104.494 168.486 104.157C169.083 103.821 169.571 103.381 169.941 102.839C170.312 102.289 170.532 101.547 170.532 100.771C170.532 100.126 170.367 99.6588 170.099 99.2124C169.852 98.7729 169.516 98.402 169.083 98.1136C168.678 97.8251 168.211 97.5985 167.689 97.4268C167.167 97.262 166.638 97.1177 166.102 97.001C165.553 96.8842 165.017 96.7743 164.502 96.6782C163.994 96.582 163.534 96.4653 163.122 96.3348C162.737 96.1906 162.421 96.012 162.181 95.8128C161.968 95.6205 161.858 95.3664 161.858 95.0505C161.858 94.7895 161.934 94.5972 162.085 94.4599C162.243 94.2882 162.435 94.1714 162.655 94.089C162.902 93.9929 163.163 93.9311 163.424 93.8967C163.712 93.8624 163.96 93.8487 164.159 93.8487C164.798 93.8487 165.361 93.9654 165.841 94.1852C166.302 94.3912 166.624 94.9269 166.769 95.545H169.941C169.852 94.8376 169.584 94.0204 169.303 93.5877C168.966 93.0657 168.616 92.6399 168.087 92.3171C167.579 91.9944 166.995 91.7677 166.35 91.6372C165.725 91.4861 165.058 91.4106 164.365 91.4106C163.754 91.4106 163.115 91.4724 162.435 91.5892C161.769 91.7059 161.158 91.9188 160.594 92.221C160.045 92.5094 159.585 92.9009 159.214 93.3885C158.857 93.8761 158.678 94.4736 158.678 95.1879C158.678 95.8472 158.802 96.4103 159.049 96.8705C159.296 97.31 159.626 97.6809 160.038 97.9693C160.464 98.2578 160.924 98.4844 161.432 98.6492C161.954 98.8141 162.49 98.9583 163.046 99.075C163.582 99.1918 164.104 99.3017 164.619 99.3978C165.127 99.494 165.58 99.6176 165.965 99.7618C166.363 99.8923 166.686 100.064 166.933 100.284C167.167 100.497 167.297 100.765 167.311 101.101C167.325 101.444 167.236 101.712 167.057 101.918C166.878 102.117 166.645 102.275 166.357 102.385C166.054 102.495 165.732 102.578 165.374 102.626C165.031 102.66 164.729 102.674 164.461 102.674C163.685 102.674 163.108 102.523 162.565 102.2C162.291 102.042 162.078 101.857 161.92 101.616H161.941ZM175.388 101.616C175.23 101.376 175.092 101.163 175.051 100.765H171.858C171.878 101.541 172.036 102.001 172.338 102.578C172.654 103.134 173.08 103.608 173.609 103.999C174.151 104.37 174.783 104.645 175.504 104.83C176.239 105.016 176.96 105.119 177.805 105.119C178.499 105.119 179.275 105.036 179.989 104.885C180.703 104.734 181.356 104.494 181.933 104.157C182.53 103.821 183.018 103.381 183.389 102.839C183.766 102.289 183.979 101.547 183.979 100.771C183.979 100.126 183.814 99.6588 183.547 99.2124C183.299 98.7729 182.963 98.402 182.537 98.1136C182.132 97.8251 181.665 97.5985 181.143 97.4268C180.621 97.262 180.099 97.1177 179.556 97.001C179.007 96.8842 178.471 96.7743 177.956 96.6782C177.448 96.582 176.988 96.4653 176.583 96.3348C176.198 96.1906 175.882 96.012 175.635 95.8128C175.422 95.6205 175.312 95.3664 175.312 95.0505C175.312 94.7895 175.388 94.5972 175.539 94.4599C175.697 94.2882 175.889 94.1714 176.116 94.089C176.363 93.9929 176.624 93.9311 176.885 93.8967C177.173 93.8624 177.421 93.8487 177.62 93.8487C178.258 93.8487 178.822 93.9654 179.302 94.1852C179.762 94.3912 180.085 94.9269 180.236 95.545H183.409C183.32 94.8376 183.045 94.0204 182.771 93.5877C182.434 93.0657 182.084 92.6399 181.555 92.3171C181.047 91.9944 180.463 91.7677 179.817 91.6372C179.192 91.4861 178.526 91.4106 177.833 91.4106C177.221 91.4106 176.583 91.4724 175.903 91.5892C175.237 91.7059 174.625 91.9188 174.062 92.221C173.513 92.5094 173.053 92.9009 172.682 93.3885C172.325 93.8761 172.146 94.4736 172.146 95.1879C172.146 95.8472 172.27 96.4103 172.517 96.8705C172.764 97.31 173.094 97.6809 173.506 97.9693C173.925 98.2578 174.392 98.4844 174.9 98.6492C175.422 98.8141 175.958 98.9583 176.514 99.075C177.05 99.1918 177.572 99.3017 178.094 99.3978C178.602 99.494 179.055 99.6176 179.44 99.7618C179.838 99.8923 180.161 100.064 180.408 100.284C180.642 100.497 180.772 100.765 180.786 101.101C180.799 101.444 180.717 101.712 180.532 101.918C180.353 102.117 180.12 102.275 179.831 102.385C179.529 102.495 179.206 102.578 178.849 102.626C178.506 102.66 178.203 102.674 177.936 102.674C177.16 102.674 176.583 102.523 176.04 102.2C175.765 102.042 175.552 101.857 175.395 101.616H175.388ZM117.63 91.6166H114.099L110.576 96.0464L107.046 91.6166H103.516L108.804 98.2578L103.516 104.899H107.046L110.576 100.469L114.099 104.899H117.63L112.341 98.2578L117.63 91.6166V91.6166ZM84.1216 91.3969C81.8552 91.3969 80.5778 92.9146 80.152 93.5739V91.6166H77.0684V104.906H80.152V96.6301C80.4542 95.6068 81.6492 94.1234 83.6821 94.1234C85.5913 94.1234 85.8866 96.6301 85.8866 96.6301V102.729V102.763C85.8729 103.937 86.8344 104.906 88.0294 104.913H88.0637H88.0912H90.076V102.296H89.8562C89.245 102.296 88.9771 101.808 88.9771 101.204V97.104V96.2524C88.8947 94.9063 88.62 92.4408 86.1133 91.651C85.6119 91.493 84.8084 91.4037 84.1285 91.4037L84.1216 91.3969ZM64.4866 101.568C65.1596 102.001 65.9494 102.234 66.753 102.227C67.8312 102.227 68.8614 101.802 69.6168 101.06C70.3792 100.311 70.805 99.3017 70.7981 98.2509C70.7981 97.4611 70.5577 96.6919 70.1113 96.0395C69.6649 95.387 69.0262 94.872 68.2845 94.5698C67.5428 94.2676 66.7186 94.192 65.9288 94.3431C65.139 94.5011 64.4179 94.8788 63.8479 95.4351C63.2779 95.9914 62.8933 96.7057 62.7422 97.4817C62.5842 98.2578 62.6735 99.0544 62.9825 99.7824C63.2916 100.51 63.8204 101.129 64.4866 101.568V101.568ZM73.765 91.6166V101.163C73.765 102.653 75.3102 102.289 75.3102 102.289V104.906H73.1263C71.8763 104.906 71.1483 104.082 70.9011 103.045C70.3242 103.704 69.6031 104.233 68.7927 104.59C67.9823 104.947 67.1032 105.132 66.2173 105.126C62.598 105.126 59.6654 102.056 59.6654 98.2646C59.6654 94.4736 62.598 91.4037 66.2173 91.4037C67.9136 91.4037 69.349 92.2073 70.4616 93.361V91.6166H73.765V91.6166ZM58.3331 94.2333V91.6166H46.8707V94.2333H54.3635L46.8707 102.296V104.913H58.3331V102.296H50.8403L58.3331 94.2333V94.2333ZM34.2889 101.568C34.962 102.001 35.7518 102.234 36.5553 102.227C37.6335 102.227 38.6637 101.802 39.426 101.06C40.1884 100.311 40.6142 99.3017 40.6073 98.2509C40.6073 97.4611 40.3669 96.6919 39.9205 96.0395C39.4741 95.387 38.8354 94.872 38.0937 94.5698C37.352 94.2676 36.5278 94.192 35.738 94.3431C34.9482 94.5011 34.2271 94.8788 33.6571 95.4351C33.0871 95.9914 32.7025 96.7057 32.5514 97.4817C32.3934 98.2578 32.4827 99.0544 32.7917 99.7824C33.1008 100.51 33.6296 101.129 34.2958 101.568H34.2889ZM43.5673 91.6166V101.163C43.5673 102.653 45.1126 102.289 45.1126 102.289V104.906H42.9286C41.6787 104.906 40.9507 104.082 40.7034 103.045C40.1265 103.704 39.4054 104.233 38.595 104.59C37.7846 104.947 36.9055 105.132 36.0196 105.126C32.4003 105.126 29.4677 102.056 29.4677 98.2646C29.4677 94.4736 32.4003 91.4037 36.0196 91.4037C37.7159 91.4037 39.1513 92.2073 40.2639 93.361V91.6166H43.5673V91.6166Z" fill="#FF1919"/>
</svg>
