<svg width="200" height="200" viewBox="0 0 200 200" fill="none" xmlns="http://www.w3.org/2000/svg">
<path d="M160.391 86.7283C159.56 81.6849 168.53 81.3381 174.108 81.7448C173.449 88.6421 161.071 90.8641 160.391 86.7283ZM178.972 79.7583C168.059 78.3925 154.136 79.0476 154.35 87.1907C154.491 92.4268 165.259 92.6152 170.846 89.3271C169.437 92.8378 162.262 100.296 157.621 97.5987C152.928 94.8715 153.292 93.891 151.164 93.9638C150.227 93.9981 147.56 97.1278 146.275 96.6911C144.143 94.8115 144.584 91.2666 141.805 90.9069C139.04 90.5473 132.926 99.6966 130.19 98.3394C126.688 94.3706 135.811 90.1063 133.551 88.0085C130.789 85.4354 125.904 91.0782 124.744 93.0219C123.584 94.97 123.742 95.9076 123.053 97.3461C122.329 97.9712 120.125 98.6434 119.106 98.5064C112.054 97.5645 116.314 90.4831 112.534 88.1198C109.507 86.2274 106.163 90.954 104.061 91.8317C105.26 89.8409 109.858 86.0562 106.942 85.0629C102.43 83.5302 101.74 91.9559 98.5765 95.1241C96.7697 96.9308 89.1831 98.425 89.1104 96.3443C89.0419 94.2635 91.0841 93.1803 90.6945 91.836C89.9581 89.7938 78.0174 100.326 76.7629 95.4067C76.3305 92.2213 82.6498 88.9204 87.4492 88.9204C90.3348 88.9204 91.3367 90.3632 92.3085 89.828C93.5929 89.1088 91.4608 86.1589 87.9073 86.2617C80.1666 86.48 70.3109 91.7076 68.9323 99.0116C55.7457 101.572 61.0674 88.5436 56.7732 85.9448C51.4215 82.7039 45.2521 92.9106 43.775 91.8403C42.298 90.7699 42.8074 79.5442 38.723 79.0219C33.367 78.3326 23.4728 94.1351 20.8612 97.4788C18.3908 100.643 17.9156 101.272 15 103.777C28.0967 106.38 29.6637 88.4837 36.805 85.3369C38.5646 86.1033 37.7212 101.208 40.0588 101.131C41.7628 101.456 45.2906 95.9718 47.9579 94.1608C54.9579 89.4127 53.1683 97.633 58.1775 100.664C62.1335 103.062 64.8607 102.3 69.6216 100.39C74.2626 103.396 82.1574 99.6666 86.0492 96.4856C85.8993 98.3394 85.711 100.313 87.1709 100.985C88.4553 101.58 94.5991 98.8874 98.1312 96.9479C95.5838 103.396 92.1116 111.35 93.0192 119.712C93.1006 120.067 93.5801 119.969 93.7599 119.721C96.4315 114.955 98.0242 103.957 101.381 98.8061C102.691 96.7938 106.514 92.7565 108.813 93.2317C110.599 93.5999 111.386 98.014 113.458 99.2727C116.687 101.234 119.851 100.514 123.678 98.3437C127.844 104.496 136.989 98.9816 140.093 95.1883C143.633 103.087 148.87 96.9908 151.438 97.132C153.13 97.2262 155.638 100.27 160.057 100.172C167.044 100.018 171.308 94.469 173.188 93.4672C173.941 100.394 180.145 104.102 185 98.3265C176.039 95.7663 176.476 89.113 178.963 79.7626L178.972 79.7583Z" fill="#E31E24"/>
<path d="M63.1052 87.6913H63.452C63.6789 87.6913 63.8159 87.6827 63.8759 87.6613C63.9315 87.6399 63.9743 87.6099 64.0086 87.5628C64.0386 87.5157 64.0557 87.4558 64.0557 87.3873C64.0557 87.3102 64.0343 87.246 63.9915 87.1989C63.9487 87.1518 63.893 87.1218 63.8159 87.109C63.7774 87.1047 63.6618 87.1004 63.4734 87.1004H63.1095V87.6913H63.1052ZM62.6343 89.0313V86.7065H63.6233C63.8716 86.7065 64.0514 86.7279 64.1627 86.7708C64.274 86.8136 64.3639 86.8864 64.4325 86.9934C64.501 87.1004 64.5352 87.2203 64.5352 87.3573C64.5352 87.5328 64.4838 87.6741 64.3811 87.7897C64.2783 87.9053 64.1242 87.9738 63.923 88.0038C64.0257 88.0637 64.1071 88.128 64.1756 88.2007C64.2398 88.2735 64.3297 88.3977 64.441 88.5775L64.7236 89.0313H64.1627L63.8245 88.5261C63.7046 88.3463 63.6233 88.2307 63.5762 88.1836C63.5334 88.1365 63.4863 88.1065 63.4349 88.0894C63.3835 88.0723 63.3065 88.0637 63.1994 88.0637H63.1052V89.0313H62.6343V89.0313Z" fill="#E31E24"/>
<path d="M63.551 86.0562C62.5063 86.0562 61.6543 86.9039 61.6543 87.9528C61.6543 88.9975 62.5063 89.8495 63.551 89.8495C64.5956 89.8495 65.4476 88.9975 65.4476 87.9528C65.4476 86.9082 64.5999 86.0562 63.551 86.0562ZM63.551 90.3846C62.2109 90.3846 61.1191 89.2929 61.1191 87.9528C61.1191 86.6127 62.2109 85.521 63.551 85.521C64.891 85.521 65.9828 86.6127 65.9828 87.9528C65.9828 89.2929 64.891 90.3846 63.551 90.3846Z" fill="#E31E24"/>
<path d="M104.269 108.148L101.901 120.616H103.418L104.491 114.9H104.842C106.747 114.9 107.395 115.806 107.765 117.749C107.931 118.692 108.098 119.913 108.32 120.616H109.91C109.614 119.728 109.485 118.637 109.281 117.545C108.911 115.603 108.227 114.29 106.507 113.975L112.13 108.148H110.243L105.101 113.772H104.713L105.785 108.148H104.269Z" fill="#898989"/>
<path d="M116.47 111.46C113.566 111.46 111.513 114.197 111.513 117.138C111.513 119.155 112.771 120.819 115.009 120.819C118.005 120.819 119.966 117.952 119.966 115.196C119.966 113.291 118.893 111.46 116.47 111.46ZM116.304 112.68C117.913 112.68 118.394 114.142 118.394 115.178C118.394 117.268 117.025 119.598 115.212 119.598C113.899 119.598 113.103 118.544 113.103 117.083C113.085 115.03 114.38 112.68 116.304 112.68Z" fill="#898989"/>
<path d="M123.23 111.663L120.826 120.616H122.231L123.341 116.38C123.582 115.399 123.859 114.197 124.063 113.217H124.137C124.192 114.012 124.377 115.27 124.507 116.121L125.172 120.56H126.356L128.927 116.028C129.464 115.03 130.167 113.79 130.389 113.235H130.481C130.315 114.197 130.148 115.381 130 116.343L129.427 120.616H130.87L131.998 111.663H130.074L127.818 115.64C127.189 116.731 126.504 118.008 126.208 118.637H126.171C126.097 117.952 125.931 116.916 125.838 116.195L125.117 111.663H123.23Z" fill="#898989"/>
<path d="M134.921 120.616L135.734 116.269C136.141 114.049 137.695 112.736 138.787 112.736C139.841 112.736 140.192 113.402 140.192 114.308C140.192 114.678 140.137 115.104 140.063 115.455L139.082 120.616H140.618L141.617 115.399C141.709 114.919 141.783 114.345 141.783 113.957C141.783 112.07 140.581 111.46 139.508 111.46C138.195 111.46 136.992 112.162 136.197 113.42H136.16L136.382 111.663H135.013C134.902 112.403 134.791 113.272 134.588 114.271L133.385 120.616H134.921Z" fill="#898989"/>
<path d="M150.628 120.616C150.591 119.617 150.721 118.026 151.017 116.472L151.923 111.811C151.313 111.607 150.369 111.46 149.518 111.46C145.615 111.46 143.322 114.752 143.322 117.86C143.322 119.561 144.321 120.819 145.893 120.819C147.169 120.819 148.39 120.153 149.37 118.304H149.407C149.296 119.228 149.204 120.079 149.204 120.616H150.628ZM149.685 115.51C149.241 117.897 147.724 119.561 146.448 119.561C145.264 119.561 144.913 118.581 144.913 117.582C144.931 115.104 146.818 112.68 149.13 112.68C149.648 112.68 149.981 112.754 150.203 112.81L149.685 115.51Z" fill="#898989"/>
<path d="M154.632 111.663L152.931 120.616H154.466L155.243 116.509H159.294L158.517 120.616H160.052L161.754 111.663H160.219L159.534 115.27H155.483L156.168 111.663H154.632Z" fill="#898989"/>
<path d="M169.917 111.663L169.047 116.25C168.677 118.23 167.253 119.524 166.143 119.524C165.089 119.524 164.701 118.896 164.701 117.971C164.701 117.582 164.756 117.157 164.867 116.657L165.81 111.663H164.275L163.313 116.731C163.202 117.323 163.147 117.804 163.147 118.23C163.147 120.264 164.349 120.819 165.496 120.819C166.68 120.819 167.864 120.098 168.659 118.933H168.696L168.456 120.616H169.843C169.935 119.876 170.065 119.007 170.25 118.008L171.452 111.663H169.917Z" fill="#898989"/>
<path d="M180.264 111.737C179.579 111.626 178.599 111.552 177.674 111.552C175.787 111.552 173.309 112.014 173.309 114.29C173.309 115.399 174.234 116.065 175.177 116.287V116.324C174.123 116.546 173.401 117.286 172.883 118.248C172.458 119.081 172.18 119.839 171.662 120.616H173.29C173.679 120.005 173.956 119.339 174.289 118.655C174.881 117.471 175.565 116.842 176.897 116.842H177.804L177.082 120.616H178.581L180.264 111.737ZM178.026 115.751H177.082C176.157 115.751 174.899 115.326 174.899 114.308C174.899 112.958 176.176 112.643 177.378 112.643C177.915 112.643 178.248 112.699 178.581 112.754L178.026 115.751Z" fill="#898989"/>
</svg>
