<svg width="200" height="200" viewBox="0 0 200 200" fill="none" xmlns="http://www.w3.org/2000/svg">
<path fill-rule="evenodd" clip-rule="evenodd" d="M48.7262 108.122L49.1112 107.968C50.5963 107.451 50.1783 107.924 51.3224 106.175C51.8834 105.317 52.6315 104.305 53.5775 103.931C57.6148 102.358 56.8117 113.787 51.7514 114.227C48.9462 114.47 48.9572 110.597 48.7262 108.133V108.122ZM42.9618 105.075C43.4018 104.327 43.2588 102.611 43.2258 101.555L45.1179 101.478L44.7659 103.216C41.8837 126.548 60.024 122.599 60.453 105.878C60.387 102.688 59.7269 99.8165 56.8887 99.0135C52.8075 97.8584 51.1133 100.587 49.3202 101.654C49.8813 98.4854 53.6765 99.1235 58.2858 92.677C61.091 88.7608 62.9722 84.5585 62.4661 78.6841L62.0371 77.562C60.431 73.0407 55.6897 75.4828 53.6655 77.463L52.7525 78.7061L51.9274 80.0152C49.2982 83.6454 46.9771 95.3172 46.218 96.1863C41.2017 98.4084 40.4096 86.2746 29.0348 88.9148C16.0099 91.94 9.20047 114.437 21.3343 119.618C24.7775 121.092 28.3528 120.751 31.4 118.969C35.2063 116.736 35.2283 115.196 37.8354 112.302C37.5384 115.196 37.1314 118.375 37.6484 121.279C38.3635 125.316 42.0267 124.755 42.8408 122.665C42.8408 122.665 43.0168 105.416 42.9728 105.097L42.9618 105.075ZM45.547 104.382L45.701 102.611L46.449 100.29L42.2247 100.62L41.7187 108.375L41.9827 116.087C42.0927 117.044 42.2247 119.255 42.1697 120.608C42.1147 122.126 41.6087 123.908 39.6286 123.061C38.0114 122.368 38.3305 116.714 38.5615 114.855C38.9025 110.058 40.1786 104.932 39.7276 100.18C39.2985 95.6912 36.7134 92.006 32.2911 91.896C25.6466 91.731 18.7601 102.468 19.0351 110.355C21.1913 120.839 31.796 116.923 35.1182 110.443C40.5306 99.8935 33.1931 95.2952 23.9195 101.038C25.0746 98.0784 25.9766 97.5834 29.2878 96.6373C39.3095 93.7551 41.9057 104.833 35.8443 113.413C28.6278 123.633 14.3048 121.147 16.1529 105.46C19.7282 89.8278 34.6012 84.6575 40.5636 94.6132C41.8067 96.6813 42.4998 96.1753 44.2709 97.4623L47.2851 96.9783C48.9242 89.9158 51.4434 78.497 56.8667 76.3079C64.7763 73.1287 62.8842 90.9169 50.8823 98.2654C48.2641 99.8715 48.5612 99.3875 48.0331 103.194C45.503 121.598 58.2968 115.757 57.0758 106.109C56.8117 103.986 55.3706 102.028 52.9725 103.084C50.8933 104.008 50.4863 106.681 48.9682 106.846C47.6151 103.051 53.0825 98.3314 57.0097 100.092C60.596 101.698 59.6609 108.87 58.2088 112.577C55.2606 120.102 43.6988 123.523 45.514 104.371L45.547 104.382ZM21.5323 104.151C23.2264 103.524 29.1888 97.1213 33.8312 99.8715C38.0665 102.38 34.4582 110.465 32.4451 112.753C29.9039 115.625 23.2814 117.693 20.7843 112.907C18.5621 108.639 21.3563 102.116 23.4905 99.4315L21.5433 104.162L21.5323 104.151ZM24.7885 97.6054C26.1856 96.0212 28.3748 93.2051 31.554 92.875C34.9312 92.523 37.6374 95.2842 38.3085 97.8914C36.4933 96.3183 35.3933 95.0752 31.84 95.2512C28.8038 95.4052 26.9227 96.5713 24.7885 97.6054V97.6054Z" fill="#250E6B"/>
<path fill-rule="evenodd" clip-rule="evenodd" d="M49.7271 95.9773C50.5962 92.8421 51.5642 88.7718 52.6863 85.8346C53.3573 84.0635 56.6686 77.067 58.5057 79.6742C61.0799 83.3044 55.3705 94.0191 49.7271 95.9773V95.9773ZM44.2817 97.4624L44.8318 98.3424L42.5106 99.0245L43.0826 99.9486L41.7076 99.5305C40.9925 99.1125 41.4325 99.8715 41.0805 99.0685L41.5205 101.39C40.1344 100.917 41.4435 101.313 40.9045 100.818C40.0574 100.026 40.6405 99.1015 40.1674 100.829C39.8924 101.83 40.0354 102.666 40.1234 103.656C40.2775 105.416 39.3754 107.572 40.0244 108.364C40.4095 106.956 39.4084 106.208 40.7285 104.888L40.9595 114.36L41.6966 108.375L42.2026 100.62L46.4269 100.29L45.6788 102.611L45.5248 104.382C43.7097 123.534 55.2605 120.113 58.2197 112.588C59.6718 108.892 60.6068 101.709 57.0206 100.103C53.0933 98.3424 47.626 103.062 48.9791 106.857C50.4972 106.692 50.9042 104.008 52.9833 103.095C55.3815 102.039 56.8226 103.997 57.0866 106.12C58.3077 115.757 45.5138 121.609 48.044 103.205C48.561 99.4095 48.275 99.8826 50.8932 98.2764C62.884 90.9169 64.7871 73.1287 56.8776 76.3189C51.4432 78.5081 48.935 89.9159 47.2959 96.9894L44.2817 97.4734V97.4624Z" fill="#FCE43B"/>
<path fill-rule="evenodd" clip-rule="evenodd" d="M75.8214 109.739C75.9974 109.97 75.8434 109.926 76.5804 110.223C78.1205 107.759 81.6628 102.754 85.271 104.096C85.755 105.801 85.337 107.198 85.128 109.024C84.743 112.335 85.623 111.334 86.0961 113.37C85.854 114.536 85.216 115.251 84.468 115.691C82.7298 115.713 81.2227 114.008 81.6518 112.291C82.0808 110.586 82.5538 110.905 82.8068 107.011C81.2557 107.528 79.3306 110.355 78.2965 111.697C77.6695 112.511 73.9952 117.231 73.8192 113.568C72.9722 112.368 74.0722 107.308 73.0822 105.328C69.4849 105.911 66.7457 116.846 62.9285 116.824C61.2674 115.086 62.0264 112.412 62.1144 109.871C62.1474 108.98 61.4544 101.599 63.8635 104.228C65.2056 105.295 63.2475 109.134 64.7326 111.51C65.5027 110.762 66.6687 108.43 67.4828 107.385C68.5829 105.977 69.6719 104.657 70.926 103.579C72.5981 102.149 73.5882 101.445 75.2053 103.392C76.3934 104.811 75.3813 107.22 75.7994 109.739H75.8214ZM61.0254 105.372C61.1684 108.958 59.5513 121.356 65.3486 116.956C67.1528 115.592 70.794 107.407 72.6421 106.67C72.8512 109.365 71.4761 116.846 75.5793 115.713C77.5045 115.174 79.8696 110.652 81.5748 109.299C81.2997 111.312 80.0457 112.071 80.8817 114.14C81.3437 115.262 82.4548 116.593 83.9729 116.637C85.425 116.67 86.7671 115.042 86.9651 113.777C87.3171 111.532 85.7 112.467 86.0411 109.376C86.6681 110.465 86.8771 112.247 87.8012 113.733C90.0123 117.275 94.6987 120.069 99.583 120.685C110.947 122.126 115.963 115.152 117.855 114.547L117.822 113.007C114.423 115.999 111.739 118.892 105.105 119.728C98.8459 120.52 93.1695 118.485 90.3094 115.229C82.7078 106.56 88.2412 92.6111 95.4027 88.6729L95.1607 87.7378C91.2224 89.6959 86.1841 96.6814 85.81 103.26C80.5847 101.621 79.0006 106.142 76.7344 108.331C75.9424 106.725 77.5485 104.536 75.9204 102.688C71.6411 97.8475 67.1858 107.297 65.0736 109.057C64.9746 107.22 66.0857 104.448 64.5456 103.304C62.8515 102.039 61.1904 103.502 61.0364 105.361L61.0254 105.372Z" fill="#1A0968"/>
<path fill-rule="evenodd" clip-rule="evenodd" d="M169.25 102.523C170.757 104.514 172.088 114.987 174.805 114.844C177.347 114.712 178.623 104.25 180.086 102.468L182.132 114.514H184.992C185.157 112.291 182.55 99.4646 181.351 98.7826C178.381 97.0885 177.633 101.863 177.017 103.821C176.18 106.461 175.487 108.683 174.827 111.345C172.924 109.211 172.418 96.4724 168.062 98.8156C166.676 99.5636 164.542 111.928 164.388 114.58L167.413 114.591L169.25 102.512V102.523Z" fill="#022E9C"/>
<path fill-rule="evenodd" clip-rule="evenodd" d="M16.1641 105.46C17.0001 106.032 16.8131 105.218 16.8571 108.552C16.8681 109.938 16.2631 111.676 17.3961 111.709L18.2322 111.852L18.6392 105.911L19.0573 110.356C18.7822 102.457 25.6687 91.7315 32.3132 91.8965C36.7245 92.0065 39.3207 95.6917 39.7497 100.18C40.2007 104.932 38.9356 110.059 38.5836 114.855C39.4417 114.129 39.3537 113.92 39.0896 113.326V120.608C39.3206 121.797 38.9686 121.136 39.8047 121.841C40.3547 120.355 39.6947 115.548 40.0577 113.392C40.5747 115.053 40.0577 116.34 40.0467 118.1C40.0357 119.431 40.2447 120.256 40.0467 121.433C40.0357 121.488 40.0137 121.554 40.0027 121.598C39.8377 122.677 39.5407 121.731 40.0577 122.347C40.6517 121.885 40.4867 122.237 41.3448 122.589C41.2678 119.827 41.7078 117.451 41.2568 114.481C41.3888 115.394 41.3668 115.614 41.9938 116.076L41.7298 108.365L40.9928 114.349L40.7617 104.877C39.4417 106.197 40.4427 106.945 40.0577 108.354C39.4087 107.562 40.3217 105.405 40.1567 103.645C40.0687 102.644 39.9257 101.819 40.2007 100.818C40.6737 99.08 40.0907 100.015 40.9378 100.807C41.4768 101.313 40.1677 100.906 41.5538 101.379L41.1138 99.058C41.4548 99.861 41.0148 99.113 41.7408 99.52L43.1159 99.938L42.5439 99.014L44.865 98.3319L44.315 97.4518C42.5329 96.1648 41.8398 96.6708 40.6077 94.6027C34.6453 84.647 19.7613 89.8173 16.1971 105.449L16.1641 105.46Z" fill="#FEE13E"/>
<path fill-rule="evenodd" clip-rule="evenodd" d="M117.833 113.018L117.811 109.409C116.832 109.937 114.467 114.525 107.91 116.802C103.092 118.474 97.1517 117.704 93.7305 115.064C84.1048 107.638 91.9924 93.1062 96.0076 91.269L95.4026 88.6729C88.2521 92.6111 82.7187 106.56 90.3092 115.229C93.1694 118.485 98.8458 120.52 105.105 119.728C111.739 118.892 114.423 115.999 117.822 113.007L117.833 113.018Z" fill="#FCE43B"/>
<path fill-rule="evenodd" clip-rule="evenodd" d="M140.209 113.501L140.264 110.597C138.074 111.653 136.215 113.435 132.893 111.356C131.067 110.223 129.846 107.627 130.891 104.602C132.398 100.212 139.768 99.2993 141.386 106.12L141.485 114.612L144.4 114.634C144.433 109.893 144.873 104.184 142.277 100.993C139.9 98.0782 134.059 97.5502 130.605 100.333C122.376 106.967 131.859 119.86 140.22 113.512L140.209 113.501Z" fill="#022E9C"/>
<path fill-rule="evenodd" clip-rule="evenodd" d="M19.0464 110.355L18.6283 105.911L18.2213 111.851L17.3853 111.708C16.2412 111.664 16.8572 109.926 16.8462 108.551C16.8132 105.218 16.9892 106.032 16.1532 105.46C14.305 121.147 28.639 123.633 35.8445 113.413C41.9059 104.833 39.2988 93.755 29.2881 96.6372C25.9768 97.5833 25.0638 98.0893 23.9197 101.037C33.1933 95.2951 40.5308 99.8934 35.1185 110.443C31.7962 116.923 21.1805 120.839 19.0354 110.355H19.0464Z" fill="#FCE43B"/>
<path fill-rule="evenodd" clip-rule="evenodd" d="M73.8298 113.556L73.7748 111.851C74.1489 111.708 74.4569 113.061 74.4899 113.094C74.7649 112.533 74.6659 113.49 74.7539 112.071C74.7979 111.312 74.8199 112.06 74.6329 111.103C74.7869 111.279 75.0729 111.576 75.2489 111.631C76.8 112.093 75.3039 111.796 75.975 111.356C75.579 110.344 75.986 111.334 75.612 110.784L75.3149 110.399C75.2929 110.377 75.2599 110.311 75.2379 110.289L75.1169 110.069C74.4129 108.606 75.645 110.619 74.9739 109.651C74.5669 110.839 75.1279 110.157 74.1599 110.806C74.5889 108.859 74.2259 109.519 74.2259 107.99C74.2259 109.453 74.6219 109.365 74.8969 109.618C75.0069 107.429 74.1489 106.505 74.9739 105.416C75.3699 107.473 75.469 107.33 75.469 109.717L75.81 109.75C75.3919 107.231 76.404 104.822 75.2159 103.403C73.5988 101.467 72.6088 102.16 70.9366 103.59C69.6826 104.668 68.5825 105.988 67.4934 107.396C66.6793 108.441 65.5133 110.784 64.7432 111.521C63.2581 109.145 65.2162 105.306 63.8742 104.239C61.454 101.599 62.158 108.991 62.125 109.882C62.037 112.423 61.278 115.086 62.9391 116.835C66.7453 116.857 69.4845 105.922 73.0928 105.339C74.0829 107.33 72.9828 112.39 73.8298 113.578V113.556Z" fill="#FEE13E"/>
<path fill-rule="evenodd" clip-rule="evenodd" d="M148.987 114.613C151.385 116.12 153.387 111.653 154.509 110.003C155.554 108.463 158.205 104.811 158.887 103.117C159.503 103.909 159.151 112.809 159.173 114.536H162.023L161.869 99.6186C161.374 99.0466 161.605 98.6396 160.35 98.6286C159.085 98.6176 159.415 99.1786 158.568 99.3656C158.084 100.455 157.512 100.917 157.149 102.039L151.253 110.399L151.187 98.9916L148.47 98.9806C147.986 101.071 148.14 113.227 148.998 114.602L148.987 114.613Z" fill="#022E9C"/>
<path fill-rule="evenodd" clip-rule="evenodd" d="M96.3594 87.9249L97.1074 90.3341C99.2196 89.179 100.903 87.9799 103.818 87.2869C108.834 86.1098 115.886 87.2759 119.109 91.2032C121.012 93.5133 121.386 95.1524 121.562 98.8597L124.268 98.8047C124.532 88.992 113.906 83.8216 104.764 85.0427C99.7146 85.7248 99.1316 86.9679 96.3594 87.9139V87.9249Z" fill="#FCE43B"/>
<path fill-rule="evenodd" clip-rule="evenodd" d="M117.69 107.759C117.932 108.144 117.789 108.628 117.811 109.409L117.833 113.018L117.866 114.558L120.704 114.789V111.258L120.44 106.879C120.429 106.098 120.286 103.898 120.55 103.205C120.748 102.666 120.737 102.864 120.902 102.633L121.32 101.643L124.004 101.621L124.95 101.83C125.896 101.324 125.698 101.907 125.753 100.389C125.786 99.3767 125.852 99.1787 125.291 98.8487L124.279 98.8047L121.573 98.8597L120.605 98.8487L112.75 98.9697L112.739 101.654L117.767 101.643L117.701 107.737L117.69 107.759Z" fill="#022E9C"/>
<path fill-rule="evenodd" clip-rule="evenodd" d="M75.8213 109.74L75.4802 109.707C75.4802 107.33 75.3812 107.462 74.9852 105.405C74.1602 106.494 75.0182 107.418 74.9082 109.608C74.6332 109.366 74.2482 109.443 74.2372 107.979C74.2372 109.509 74.6002 108.849 74.1712 110.796C75.1392 110.147 74.5782 110.829 74.9852 109.641C75.6563 110.598 74.4242 108.585 75.1282 110.059L75.2492 110.279C75.2602 110.301 75.3042 110.356 75.3262 110.389L75.6233 110.774C75.9973 111.324 75.5903 110.345 75.9863 111.346C75.3152 111.786 76.8003 112.083 75.2602 111.621C75.0842 111.566 74.7982 111.269 74.6442 111.093C74.8312 112.05 74.8092 111.313 74.7652 112.061C74.6772 113.48 74.7652 112.523 74.5012 113.084C74.4682 113.04 74.1602 111.687 73.7861 111.841L73.8411 113.546C74.0171 117.198 77.6914 112.49 78.3184 111.676C79.3525 110.334 81.2776 107.506 82.8288 106.989C82.5757 110.884 82.1027 110.565 81.6737 112.27C81.2446 113.986 82.7517 115.691 84.4899 115.669C85.2379 115.229 85.876 114.514 86.118 113.348C85.645 111.313 84.7759 112.314 85.1499 109.003C85.3589 107.187 85.766 105.779 85.2929 104.074C81.6847 102.732 78.1424 107.726 76.6023 110.202C75.8653 109.905 76.0303 109.96 75.8433 109.718L75.8213 109.74Z" fill="#FCE43B"/>
<path fill-rule="evenodd" clip-rule="evenodd" d="M93.2129 79.564L95.16 87.7486L95.402 88.6836L96.0071 91.2798L96.3591 92.3139C96.9751 95.8231 98.3832 100.223 99.2083 103.887C99.6593 105.878 98.5813 105.438 97.9212 107.165L99.0103 107.99L99.8683 107.099L100.715 110.113L103.29 109.618C103.048 108.188 102.465 106.879 102.013 105.537C101.375 103.678 102.223 103.337 103.158 101.83C104.159 100.212 106.876 96.4172 107.371 95.0641L107.217 94.9761L101.243 102.622L97.4922 91.1808L97.1182 90.3227L96.3701 87.9136L95.9741 87.1105C95.457 85.5264 93.7739 81.2361 93.8069 79.894L93.3669 79.168L93.2239 79.553L93.2129 79.564Z" fill="#FB0303"/>
<path fill-rule="evenodd" clip-rule="evenodd" d="M117.822 109.409C117.789 108.628 117.943 108.144 117.701 107.759C117.03 108.386 116.524 109.42 115.908 110.091C115.083 110.982 114.5 111.444 113.785 112.203C109.681 116.571 101.156 118.43 95.1715 114.888C88.9231 111.191 89.0331 102.446 92.5203 96.6814C93.4114 95.2183 94.8855 92.6991 96.3706 92.3251L96.0185 91.291C92.0143 93.1281 84.1157 107.66 93.7414 115.086C97.1626 117.726 103.114 118.496 107.921 116.824C114.478 114.547 116.843 109.948 117.822 109.431V109.409Z" fill="#1A0968"/>
<path fill-rule="evenodd" clip-rule="evenodd" d="M71.4204 98.7387C71.1124 94.2503 73.2576 97.3856 79.264 94.1843C81.9041 92.7762 85.5564 89.696 86.6235 89.509C87.1295 93.8763 75.6117 99.1237 71.4204 98.7277V98.7387ZM85.7324 88.838C82.7402 90.4001 80.7491 92.8203 77.0748 94.2283C75.0397 95.0094 72.5865 94.5144 71.4644 95.6144C70.1223 96.9235 69.4733 100.026 72.7295 99.7507C76.9648 99.3877 83.7193 95.9885 86.5685 92.5012C87.6575 91.1701 88.5486 87.3749 85.7214 88.838H85.7324Z" fill="#1A0968"/>
<path fill-rule="evenodd" clip-rule="evenodd" d="M71.4208 98.7387C75.623 99.1347 87.1408 93.8873 86.6238 89.52C85.5567 89.707 81.9045 92.7872 79.2643 94.1953C73.2579 97.3966 71.1127 94.2613 71.4208 98.7497V98.7387Z" fill="#FCE43B"/>
<path fill-rule="evenodd" clip-rule="evenodd" d="M51.3774 93.8428C52.5545 89.6845 54.4246 81.2579 57.7908 80.0808C58.3519 83.3041 57.6918 85.8782 56.2177 88.3534C55.1176 90.1905 52.9395 93.0947 51.3774 93.8318V93.8428ZM49.7383 95.9769C55.3927 94.0188 61.0911 83.3041 58.5169 79.6738C56.6798 77.0776 53.3685 84.0631 52.6975 85.8342C51.5754 88.7714 50.6073 92.8417 49.7383 95.9769V95.9769Z" fill="#1A0968"/>
<path fill-rule="evenodd" clip-rule="evenodd" d="M95.9741 87.1213L96.3701 87.9244C99.1423 86.9783 99.7254 85.7242 104.775 85.0532C113.916 83.8211 124.543 89.0024 124.279 98.8151L125.291 98.8591C125.071 95.3169 123.96 92.1816 122.145 90.1905C117.756 85.3832 111.76 83.238 104.863 84.0851C100.902 84.5691 98.9223 85.7242 95.9741 87.1323V87.1213Z" fill="#1A0968"/>
<path fill-rule="evenodd" clip-rule="evenodd" d="M97.1074 90.3336L97.4814 91.1917C99.6156 90.3226 100.881 88.9585 103.796 88.2545C106.557 87.5834 109.758 87.6054 112.464 88.3645C117.393 89.7506 120.715 92.8528 120.594 98.8592L121.562 98.8702C121.386 95.174 121.001 93.5238 119.109 91.2137C115.886 87.2864 108.834 86.1203 103.818 87.2974C100.892 87.9795 99.2196 89.1895 97.1074 90.3446V90.3336Z" fill="#1A0968"/>
<path fill-rule="evenodd" clip-rule="evenodd" d="M152.056 95.9333C153.783 95.9663 157.337 96.1863 158.833 95.8453C159.229 95.5813 160.417 93.2821 158.074 92.9961L152.188 92.9741L152.056 95.9333V95.9333Z" fill="#013299"/>
<path fill-rule="evenodd" clip-rule="evenodd" d="M120.902 102.632C120.55 104.546 120.638 107.462 120.737 109.519C122.068 108.177 123.883 104.161 124.004 101.62L121.32 101.642L120.902 102.632Z" fill="#FCE43B"/>
<path fill-rule="evenodd" clip-rule="evenodd" d="M38.5615 114.855C38.3305 116.714 38.0115 122.368 39.6286 123.061C41.6088 123.908 42.1038 122.126 42.1698 120.608C42.2248 119.255 42.0928 117.033 41.9828 116.087C41.3557 115.625 41.3777 115.405 41.2457 114.492C41.6858 117.462 41.2457 119.838 41.3337 122.599C40.4757 122.236 40.6407 121.884 40.0466 122.357C39.5296 121.752 39.8376 122.687 39.9916 121.609C40.0026 121.565 40.0246 121.499 40.0356 121.444C40.2227 120.267 40.0246 119.442 40.0356 118.111C40.0466 116.351 40.5527 115.075 40.0466 113.402C39.6836 115.559 40.3437 120.366 39.7936 121.851C38.9576 121.147 39.3096 121.807 39.0786 120.619V113.336C39.3426 113.93 39.4306 114.139 38.5725 114.866L38.5615 114.855Z" fill="#FDE334"/>
<path fill-rule="evenodd" clip-rule="evenodd" d="M120.902 102.633C120.737 102.864 120.748 102.666 120.55 103.205C120.297 103.887 120.429 106.098 120.44 106.879L120.704 111.258L123.388 107.099C124.158 105.537 124.763 103.777 124.95 101.852L124.004 101.643C123.894 104.173 122.068 108.2 120.737 109.542C120.638 107.473 120.55 104.569 120.902 102.655V102.633Z" fill="#250E6B"/>
</svg>
