<svg width="200" height="200" viewBox="0 0 200 200" fill="none" xmlns="http://www.w3.org/2000/svg">
<path d="M16 121.37H22.1828L23.7923 116.395H37.0113L35.8638 121.37H41.6917L45.0141 110.354H42.207L46.5515 91.5207H27.6117L27.4643 92.1605C25.3084 101.506 23.4557 105.842 20.7442 110.354H18.5412L16.0008 121.37H16ZM27.9575 110.354C29.8816 106.943 31.5353 103.318 32.8051 97.8098L32.8621 97.5613H38.2637L35.3129 110.354H27.9575V110.354ZM46.3569 116.395H52.789L65.6485 102.394L62.4188 116.395H69.2415L74.979 91.5207H68.5469L55.6874 105.521L58.9171 91.5207H52.0944L46.3569 116.395ZM71.6573 116.395H78.9063L81.7074 111.953H91.3015L92.0896 116.395H99.4806L94.6695 91.3428H88.0247L71.6565 116.395H71.6573ZM84.9705 106.587L89.4093 99.5151L90.5499 106.587H84.9705Z" fill="#FF0000"/>
<path d="M101.898 116.395H108.649L111.928 102.181L116.024 111.847H116.166L124.772 102.11L121.477 116.395H128.335L134.073 91.5214H126.788L118.632 101.151L114.919 91.5214H107.635L101.897 116.395L101.898 116.395ZM132.742 116.395H152.926L154.278 110.532H140.917L141.827 106.588H153.767L155.021 101.151H143.081L143.949 97.3843H157.133L158.485 91.5214H138.48L132.742 116.395V116.395ZM153.449 121.369H159.631L161.241 116.395H174.46L173.312 121.369H179.14L182.463 110.353H179.656L184 91.5199H165.06L164.913 92.1598C162.757 101.505 160.904 105.841 158.193 110.353H155.99L153.449 121.369H153.449ZM165.406 110.353C167.33 106.942 168.984 103.317 170.254 97.8091L170.311 97.5606H175.712L172.762 110.353H165.406Z" fill="#2B2A29"/>
<path d="M45.5256 86.1974H46.8692L47.8009 82.1568L48.9294 84.7915H48.9651L51.3323 82.1302L50.3937 86.1981H51.7555L53.1926 79.9675H51.7153L49.4697 82.6021L48.44 79.9675H46.9627L45.5256 86.1981V86.1974ZM53.2511 86.1974H57.9946L58.2757 84.9784H54.8933L55.195 83.6698H58.1321L58.4133 82.4509H55.4762L55.7672 81.1871H59.1048L59.386 79.9675H54.6866L53.2496 86.1981L53.2511 86.1974ZM58.256 87.4969H59.4932L59.8815 86.1974H63.7799L63.4805 87.4969H64.6288L65.3917 84.9602H64.644L65.7953 79.9667H61.2646L61.0966 80.6962C60.6057 82.8233 60.1391 83.8826 59.4278 84.9594H58.8404L58.2552 87.4961L58.256 87.4969ZM64.1394 81.2039L63.2731 84.9602H60.8702C61.4257 84.0969 61.8474 83.1531 62.1514 81.8361L62.2973 81.2046H64.1394V81.2039ZM72.871 79.9667H71.5981L67.9139 84.0521L68.8563 79.9667H67.5036L66.0666 86.1974H67.3569L71.0228 82.112L70.0805 86.1974H71.4332L72.8702 79.9667H72.871ZM77.2489 87.4969H78.3881L79.151 84.9602H78.4124L79.5637 79.9667H78.1928L77.0415 84.9602H74.5846L75.7359 79.9667H74.3658L72.9287 86.1974H77.5476L77.2482 87.4969H77.2489ZM86.631 79.9667H85.3582L81.674 84.0521L82.6163 79.9667H81.2636L79.8266 86.1974H81.117L84.7829 82.112L83.8406 86.1974H85.1932L86.6303 79.9667H86.631ZM86.6896 86.1974H88.0597L88.6365 83.6964H91.164L90.5872 86.1974H91.9581L93.3952 79.9667H92.0243L91.4558 82.4327H88.9283L89.4967 79.9667H88.1266L86.6896 86.1974ZM96.3483 86.3045C97.5497 86.3045 98.3484 85.9306 99.1471 85.2452L98.4905 84.3105C97.8985 84.7558 97.397 85.04 96.6849 85.04C95.6172 85.04 95.0837 84.1501 95.33 83.0817C95.5807 81.9957 96.5382 81.1241 97.5885 81.1241C98.3005 81.1241 98.6501 81.3825 99.0308 81.8179L100.067 80.8748C99.6205 80.3049 99.0643 79.8603 97.8894 79.8603C95.9759 79.8603 94.3063 81.311 93.8975 83.0824C93.4803 84.8895 94.5161 86.3045 96.3498 86.3045H96.3483ZM100.023 86.1974H101.393L101.832 84.293L102.726 83.5452L104.045 86.1974H105.692L103.866 82.6105L107.012 79.9667H105.357L102.201 82.6903L102.83 79.9667H101.46L100.023 86.1974V86.1974ZM113.324 79.9667H112.051L108.367 84.0521L109.309 79.9667H107.956L106.519 86.1974H107.81L111.475 82.112L110.533 86.1974H111.886L113.323 79.9667H113.324ZM120.186 79.9667H118.913L115.229 84.0521L116.171 79.9667H114.818L113.381 86.1974H114.672L118.338 82.112L117.395 86.1974H118.748L120.185 79.9667H120.186ZM117.633 79.4948C118.452 79.4948 119.119 78.9963 119.44 78.1421L118.68 78C118.48 78.3648 118.214 78.5965 117.84 78.5965C117.466 78.5965 117.306 78.3648 117.274 78L116.45 78.1421C116.377 78.997 116.815 79.4948 117.633 79.4948ZM127.233 87.4961H128.372L129.135 84.9594H128.397L129.548 79.9659H128.177L127.026 84.9594H124.569L125.72 79.9659H124.35L122.913 86.1966H127.532L127.233 87.4961H127.233ZM129.812 86.1966H134.555L134.836 84.9777H131.454L131.756 83.6691H134.693L134.974 82.4502H132.037L132.328 81.1864H135.666L135.947 79.9667H131.247L129.81 86.1974L129.812 86.1966ZM135.775 86.1966H137.145L137.722 83.6957H140.249L139.673 86.1966H141.044L142.481 79.9659H141.11L140.541 82.4319H138.014L138.582 79.9659H137.212L135.775 86.1966ZM143.991 86.1966H145.361L146.507 81.2297H148.403L148.694 79.9659H143.532L143.241 81.2297H145.137L143.991 86.1966ZM148.307 86.1966H149.677L150.108 84.3272H151.149C152.547 84.3272 153.841 83.5794 154.173 82.1378C154.471 80.8475 153.775 79.9659 152.288 79.9659H149.743L148.306 86.1966H148.307ZM150.39 83.1083L150.829 81.2039H151.889C152.574 81.2039 152.925 81.5329 152.784 82.1469C152.657 82.6987 152.161 83.1083 151.476 83.1083H150.39Z" fill="#FF0000"/>
</svg>
