<svg width="459" height="204" viewBox="0 0 459 204" fill="none" xmlns="http://www.w3.org/2000/svg">
<path d="M73.3279 0.049467C73.709 0.0247335 74.0898 0.00718069 74.4779 0C77.2331 0.878438 80.1437 1.2029 82.9444 1.94384C83.3995 2.01804 83.8582 2.09916 84.3202 2.18027C88.0845 3.07998 91.8838 3.82066 95.6691 4.63926C96.2513 4.81213 96.8476 4.91079 97.4507 5.01664C99.6557 5.57062 101.91 5.93391 104.122 6.49134C104.711 6.59001 105.307 6.68549 105.879 6.89001C109.17 7.53201 112.458 8.23412 115.728 8.98889C116.335 9.06655 116.956 9.14421 117.534 9.38037C117.979 9.44394 118.423 9.51096 118.875 9.58143C122.639 10.5093 126.456 11.2253 130.245 12.0545C130.82 12.2308 131.413 12.3261 132.009 12.4356C134.231 12.9928 136.507 13.3316 138.722 13.9313C139.301 14.0196 139.886 14.097 140.444 14.3018C140.916 14.3829 141.396 14.4534 141.876 14.5382C142.44 14.7462 143.04 14.8204 143.633 14.9334C145.855 15.4733 148.12 15.8332 150.335 16.4044C150.925 16.4927 151.524 16.5842 152.096 16.7714C155.761 17.5299 159.416 18.3413 163.081 19.0961C163.656 19.269 164.245 19.3677 164.838 19.4807C167.625 20.1581 170.472 20.6025 173.241 21.354C173.841 21.4317 174.458 21.4774 175.033 21.7032C175.478 21.7809 175.929 21.8586 176.381 21.9325C178.607 22.5288 180.889 22.8673 183.126 23.4317C183.712 23.5162 184.308 23.6011 184.865 23.8269C185.342 23.8973 185.818 23.9715 186.298 24.0492C189.088 24.7899 191.953 25.2311 194.757 25.9188C196.306 26.201 197.837 26.5856 199.382 26.8997C201.598 27.4502 203.862 27.7746 206.064 28.3778C206.547 28.452 207.038 28.519 207.532 28.5964C208.078 28.8291 208.675 28.9033 209.264 28.9951C209.832 29.1962 210.428 29.2845 211.024 29.3938C212.657 29.7783 214.308 30.0852 215.949 30.4485C216.531 30.5616 217.124 30.6743 217.699 30.8541C218.291 30.9459 218.898 31.027 219.466 31.2597C219.918 31.3232 220.369 31.3831 220.828 31.4536C223.047 32.0639 225.326 32.4131 227.566 32.9423C230.741 33.5985 233.895 34.3535 237.08 34.9779C238.597 35.2567 240.125 35.8598 241.691 35.5564C243.811 35.1295 245.956 34.8016 248.073 34.3394C248.652 34.2407 249.234 34.1559 249.823 34.0679C251.107 33.7609 252.408 33.5176 253.717 33.3306C256.264 32.7416 258.868 32.4065 261.422 31.8418C262.716 31.5913 264.04 31.4363 265.316 31.0903C266.033 30.9916 266.763 30.9068 267.461 30.6951C269.807 30.2682 272.157 29.8767 274.489 29.3829C275.198 29.277 275.917 29.1959 276.605 28.9666C277.078 28.9031 277.554 28.8432 278.038 28.7797C278.715 28.547 279.431 28.4693 280.144 28.3669C283.305 27.6754 286.518 27.2345 289.672 26.5289C290.861 26.3595 292.025 26.0667 293.214 25.9045C296.269 25.2872 299.345 24.7226 302.422 24.204C303.085 23.95 303.797 23.9043 304.5 23.8088C307.636 23.0644 310.867 22.6904 314.003 21.9461C314.592 21.8578 315.192 21.7907 315.792 21.7096C316.356 21.4873 316.963 21.4237 317.566 21.3498C320.72 20.6195 323.945 20.2174 327.098 19.4801C327.691 19.3956 328.291 19.332 328.894 19.2581C329.536 18.944 330.263 18.9546 330.965 18.8876C331.526 18.6336 332.139 18.5594 332.75 18.482C335.216 17.9281 337.738 17.6459 340.186 17.0073C340.804 16.9262 341.428 16.8661 342.06 16.8204L342.081 16.6018C342.726 16.5523 343.368 16.4853 344.018 16.4007C347.157 15.6422 350.385 15.2683 353.525 14.5132C354.142 14.439 354.774 14.3827 355.37 14.164C355.942 14.0795 356.517 14.0087 357.099 13.9348C359.628 13.3034 362.242 13.0316 364.782 12.425C365.4 12.3439 366.038 12.2697 366.638 12.0511C367.319 11.9593 368.035 11.9628 368.684 11.684C369.259 11.5888 369.848 11.5146 370.437 11.4194C372.889 10.8407 375.412 10.5551 377.863 9.95882C378.569 9.86707 379.296 9.80723 379.98 9.5708C381.165 9.44021 382.315 9.11575 383.501 8.95698C386.662 8.26551 389.883 7.8352 393.033 7.11181C393.731 7.01314 394.454 6.97777 395.128 6.72033C395.619 6.64267 396.116 6.56874 396.62 6.50145C399.16 5.91237 401.764 5.61237 404.304 5.00574C405.627 4.82223 406.939 4.56133 408.245 4.2648C411.194 3.77438 414.118 3.14993 417.071 2.67042C417.84 2.36351 418.719 2.50473 419.477 2.13772C419.953 2.0707 420.444 2.01777 420.938 1.95793C422.92 1.44624 424.963 1.19944 426.967 0.769132C425.594 2.0074 423.813 2.68478 422.267 3.68316C420.299 4.81904 418.352 5.98683 416.362 7.08043C413.325 8.91842 410.22 10.6399 407.154 12.4284C405.877 13.201 404.561 13.8994 403.299 14.6864C401.947 15.4095 400.656 16.2422 399.305 16.9688C395.464 19.2161 391.615 21.4562 387.745 23.6574C386.348 24.5112 384.93 25.3332 383.49 26.1023C381.885 27.1217 380.21 28.0249 378.569 28.981C377.31 29.7749 375.973 30.4379 374.724 31.2424C366.448 35.9662 358.235 40.8028 349.969 45.5405C348.481 46.4684 346.925 47.2726 345.436 48.1933C342.667 49.7351 339.961 51.393 337.195 52.9382C333.255 55.2453 329.297 57.5171 325.346 59.8069C322.531 61.4755 319.666 63.0595 316.861 64.7456C315.15 65.6557 313.542 66.7424 311.781 67.5573C312.053 67.6277 312.332 67.6844 312.617 67.723C318.495 67.5889 324.375 67.6841 330.256 67.6594C336.603 67.5006 342.956 67.6594 349.306 67.5642C350.209 67.2432 351.183 67.3913 352.125 67.3703C369.108 67.3879 386.091 67.2291 403.073 67.2751L403.109 67.0139C421.541 67.1091 439.97 66.8623 458.403 66.8905C449.129 81.5062 440.062 96.2593 430.883 110.938C427.584 116.23 424.258 121.508 420.998 126.827C416.959 133.216 412.993 139.651 408.99 146.061C404.661 146.438 400.301 146.209 395.972 146.611C392.758 146.668 389.544 146.735 386.334 146.816C383.314 147.236 380.203 146.967 377.148 147.144C376.252 147.444 375.289 147.31 374.372 147.331C374.587 148.474 374.791 149.627 375.134 150.746C375.201 151.226 375.261 151.705 375.342 152.192C375.786 153.656 375.966 155.191 376.351 156.68C376.365 157.346 377.042 158.278 376.245 158.708C376.46 158.74 376.682 158.775 376.912 158.811C376.919 160.031 377.268 161.213 377.6 162.381C377.663 162.86 377.727 163.344 377.808 163.838C378.556 166.628 378.908 169.528 379.702 172.311C379.762 172.77 379.829 173.232 379.896 173.701C380.63 176.598 381.127 179.554 381.783 182.471C382.112 184.108 382.517 185.731 382.785 187.382C383.526 190.187 383.911 193.076 384.662 195.877C384.733 196.354 384.793 196.83 384.881 197.317C385.453 199.373 385.784 201.497 386.239 203.589C383.579 203.441 380.905 203.268 378.273 202.919C375.13 202.883 372.033 202.277 368.89 202.355C368.89 202.298 368.89 202.182 368.89 202.125C362.204 201.797 355.544 201.028 348.862 200.605C347.208 200.206 345.483 200.496 343.825 200.15C342.255 199.832 340.618 200.143 339.073 199.723C337.651 199.614 336.229 199.564 334.811 199.497C329.181 198.897 323.519 198.555 317.874 198.097C316.396 197.649 314.791 198.118 313.334 197.627C310.251 197.532 307.206 197.088 304.123 197.003C299.696 196.46 295.219 196.336 290.784 195.839C287.895 195.737 285.038 195.243 282.142 195.299C282.131 195.239 282.11 195.119 282.099 195.063C280.649 194.967 279.168 195.122 277.753 194.766C276.328 194.636 274.896 194.615 273.474 194.509C273.079 194.435 272.691 194.378 272.299 194.347C267.145 194.015 262.012 193.444 256.855 193.172C255.373 192.735 253.796 193.056 252.29 192.766C250.575 192.403 248.801 192.675 247.097 192.287C241.861 191.962 236.647 191.412 231.416 191.07C229.927 190.668 228.34 191.066 226.876 190.579C225.352 190.477 223.824 190.459 222.3 190.361C220.688 189.944 218.998 190.121 217.35 189.973C213.424 189.532 209.455 189.186 205.501 189.034L205.61 188.812C203.987 188.816 202.364 188.717 200.749 188.6C199.295 188.177 197.739 188.565 196.286 188.131C193.182 188.018 190.109 187.577 187.004 187.496C185.526 187.161 183.992 187.281 182.499 187.059C180.104 186.886 177.712 186.674 175.32 186.505C173.923 186.205 172.487 186.35 171.08 186.152C169.312 185.729 167.464 186.057 165.686 185.697C164.116 185.362 162.476 185.683 160.927 185.27C156.821 185.069 152.735 184.593 148.633 184.339C145.461 184 142.261 183.929 139.111 183.499C137.675 183.404 136.236 183.39 134.807 183.273C133.213 182.836 131.523 183.111 129.897 182.871C128.415 182.43 126.827 182.787 125.335 182.416C121.43 182.105 117.528 181.82 113.63 181.495C112.011 181.21 110.335 181.432 108.737 181.026C105.611 181.005 102.531 180.409 99.3988 180.462L99.4236 180.257C98.0547 180.187 96.6859 180.155 95.3242 180.042C91.2567 179.555 87.1467 179.432 83.0721 178.987C81.5234 178.73 79.9147 178.973 78.3908 178.553C76.8033 178.479 75.2159 178.384 73.6284 178.373C73.6215 178.314 73.6109 178.19 73.6074 178.13C72.3162 178.119 71.0285 178.035 69.7373 178.01C69.9984 177.033 70.2841 176.059 70.6721 175.128C70.7075 174.93 70.7779 174.532 70.8096 174.334C71.1801 173.551 71.441 172.726 71.6279 171.882C72.3369 170.055 72.7603 168.132 73.4694 166.309C73.5965 165.843 73.7233 165.381 73.8749 164.929C74.4712 163.158 74.9967 161.366 75.5648 159.588C75.8116 158.907 76.027 158.205 76.1858 157.503C66.6679 157.789 57.157 158.167 47.6391 158.421C44.8522 158.766 42.0299 158.572 39.2255 158.703C34.8896 159.172 30.5118 158.95 26.155 159.14C25.259 159.426 24.3064 159.296 23.3822 159.341C20.3094 159.444 17.2368 159.454 14.164 159.535C13.5925 159.708 12.9928 159.715 12.4037 159.712C8.26551 159.772 4.13448 159.955 0 160.128C14.7071 137.737 29.51 115.406 44.2453 93.033C49.551 85.0813 54.7262 77.0344 60.0885 69.1181C73.7233 69.0899 87.3619 68.9381 100.997 68.9876L101.251 68.8288C107.855 68.8253 114.459 68.9134 121.056 68.7511C131.643 68.8147 142.229 68.5995 152.816 68.67C157.871 68.4054 162.937 68.5958 167.996 68.5288C168.43 68.5078 168.864 68.4301 169.294 68.3594C167.992 67.8195 166.945 66.8496 165.784 66.077C149.489 54.407 133.166 42.7796 116.896 31.0743C112.441 27.931 108.006 24.7561 103.582 21.5668C97.2957 17.1076 91.0445 12.5957 84.7686 8.11897C80.9338 5.45892 77.2544 2.5768 73.3279 0.0507967V0.049467Z" fill="white"/>
<path d="M343.866 144.547C343.7 145.228 343.499 145.898 343.337 146.583C342.755 148.294 342.483 150.1 341.841 151.793C341.763 152.15 341.693 152.509 341.629 152.876C341.439 153.331 341.333 153.807 341.217 154.287C341.019 154.799 340.934 155.339 340.867 155.885C343.7 155.885 346.533 155.853 349.366 155.906C349.669 154.651 349.987 153.398 350.357 152.163C350.47 151.68 350.569 151.2 350.784 150.756C350.837 150.392 350.897 150.036 350.964 149.687C351.193 149.242 351.278 148.749 351.362 148.265C351.817 147.058 352.082 145.799 352.421 144.561C349.567 144.533 346.716 144.557 343.866 144.547V144.547ZM339.047 141.809C340.373 141.404 341.524 140.367 342.97 140.444C347.337 140.451 351.701 140.455 356.069 140.441C357.525 141.39 359.095 142.166 360.461 143.249C359.554 144.9 359.448 146.851 358.788 148.604C358.669 149.073 358.549 149.55 358.379 150.012C358.312 150.368 358.249 150.724 358.192 151.088C357.466 153.201 356.982 155.392 356.411 157.551C355.596 158.013 354.752 158.412 353.878 158.74C353.296 159.039 352.696 159.297 352.103 159.561C350.957 160.341 349.542 160.101 348.24 160.133C344.84 159.988 341.439 160.03 338.038 160.034C336.859 160.161 335.999 159.244 335.039 158.736C334.295 158.235 333.307 157.949 332.916 157.06L332.715 157.614C332.662 157.516 332.556 157.314 332.507 157.216C332.644 157.138 332.923 156.986 333.06 156.909C333.163 156.376 333.283 155.865 333.417 155.346C333.547 154.87 333.689 154.408 333.847 153.949C334.041 153.131 334.267 152.326 334.44 151.508C335.375 148.707 335.925 145.786 336.856 142.985C337.389 142.325 338.363 142.282 339.047 141.81V141.809ZM327.289 140.314C329.78 140.384 332.274 140.306 334.765 140.359C334.553 141.005 334.352 141.658 334.2 142.324C334.031 142.783 333.922 143.256 333.819 143.739C333.11 145.93 332.711 148.216 331.928 150.382C331.861 150.738 331.801 151.101 331.748 151.465C331.569 151.923 331.445 152.403 331.325 152.883C330.581 155.261 330.09 157.709 329.293 160.069C326.848 159.861 324.396 159.801 321.945 159.864C321.962 159.702 321.998 159.374 322.015 159.212C322.216 158.757 322.364 158.291 322.463 157.808C322.989 156.054 323.395 154.266 323.924 152.513C324.03 152.043 324.136 151.574 324.351 151.144C324.407 150.777 324.471 150.413 324.541 150.057C325.6 146.854 326.245 143.52 327.289 140.314V140.314ZM307.519 144.247C306.856 146.145 306.493 148.128 305.879 150.04C305.763 150.498 305.643 150.96 305.516 151.419C305.382 151.892 305.251 152.368 305.1 152.837C305.025 153.19 304.955 153.543 304.884 153.903C304.729 154.294 304.609 154.696 304.521 155.113C304.44 155.229 304.278 155.458 304.2 155.575C307.04 155.991 309.933 155.603 312.794 155.84C313.538 153.691 314.029 151.469 314.639 149.281C315.136 147.62 315.574 145.937 316.011 144.258C313.178 144.262 310.349 144.272 307.52 144.247L307.519 144.247ZM301.152 140.028C301.91 140.046 302.69 140.021 303.434 140.236C308.377 140.282 313.322 140.257 318.265 140.25C320.068 140.003 321.408 141.439 322.869 142.25C323.087 142.349 323.525 142.54 323.744 142.638C323.641 144.473 322.971 146.233 322.449 147.986C322.195 149.299 321.758 150.565 321.433 151.86C320.936 153.613 320.523 155.391 320.001 157.141C319.831 157.575 319.338 157.719 318.953 157.896C317.979 158.255 317.083 158.781 316.11 159.134C315.651 159.356 315.2 159.582 314.758 159.822C308.295 159.9 301.836 159.73 295.377 159.829C295.934 159.642 295.857 158.996 296.008 158.538C296.566 156.791 296.95 154.999 297.476 153.249C297.592 152.766 297.719 152.297 297.871 151.831C298.746 148.508 299.698 145.203 300.552 141.872C300.753 141.255 300.937 140.634 301.152 140.027L301.152 140.028ZM283.905 147.429L283.612 147.397C282.79 148.544 281.985 149.715 280.987 150.717C280.984 150.844 280.973 151.094 280.966 151.218C282.296 151.2 283.629 151.204 284.966 151.207C284.642 149.718 284.324 148.233 284.049 146.737C284.014 146.91 283.94 147.256 283.904 147.429L283.905 147.429ZM252.574 146.819C252.528 147.133 252.44 147.764 252.395 148.078C255.196 148.05 257.993 148.057 260.794 148.071C261.161 146.706 261.718 145.372 261.736 143.947C259.002 143.954 256.268 144 253.534 143.922C253.082 144.843 252.927 145.863 252.574 146.819V146.819ZM246.891 139.996C253.184 139.954 259.485 139.876 265.775 140.038C267.024 141.015 268.647 141.59 269.769 142.652C269.419 144.201 268.915 145.721 268.538 147.27C268.28 148.11 268.068 148.96 267.864 149.817C266.251 150.71 264.509 151.32 262.858 152.121C263.189 152.724 263.493 153.348 263.786 153.98C264.678 155.681 265.535 157.406 266.368 159.141C266.957 158.975 267.292 158.446 267.655 157.998C272.58 151.99 277.6 146.063 282.493 140.027C284.691 140.07 286.896 140.059 289.098 140.063C289.496 141.629 289.923 143.192 290.428 144.73C290.523 145.203 290.618 145.69 290.78 146.155C291.419 148.134 291.885 150.163 292.498 152.152C292.752 153.087 292.989 154.029 293.303 154.95C293.476 155.684 293.702 156.407 293.899 157.141C294.15 158.023 294.39 158.912 294.633 159.797C292.802 159.79 290.968 159.882 289.144 159.72C289.077 159.829 288.95 160.041 288.883 160.15C288.731 160.044 288.428 159.839 288.276 159.734C288.117 159.839 287.796 160.051 287.637 160.157C286.995 158.563 286.554 156.894 286.205 155.218C283.316 155.056 280.419 155.063 277.527 155.091C276.398 156.597 275.241 158.093 274.08 159.571C272.782 159.928 271.279 159.8 269.952 159.518C268.27 159.504 266.58 159.441 264.901 159.536L264.643 159.843C264.266 159.268 263.299 159.335 262.869 159.797L262.604 159.554C261.19 159.405 259.761 159.554 258.343 159.479C257.185 157.095 256.004 154.72 254.91 152.311C253.644 152.311 252.374 152.311 251.111 152.318C250.582 154.28 250.024 156.234 249.534 158.206C249.368 158.615 249.248 159.038 249.139 159.469C246.655 159.416 244.171 159.487 241.688 159.427C241.808 158.89 241.942 158.365 242.111 157.846C242.965 154.897 243.674 151.902 244.588 148.97C244.648 148.61 244.715 148.254 244.782 147.901C244.972 147.45 245.078 146.974 245.184 146.504C245.773 144.776 246.09 142.97 246.683 141.241C246.753 140.825 246.821 140.408 246.891 139.996V139.996ZM210.851 139.636C218.767 139.622 226.687 139.682 234.604 139.664C234.247 141.093 233.934 142.54 233.425 143.929C231.845 143.686 230.243 143.774 228.656 143.764C224.913 143.768 221.17 143.75 217.43 143.774C217.134 144.699 216.912 145.644 216.598 146.565C216.57 146.773 216.52 147.19 216.492 147.397C220.827 147.458 225.163 147.5 229.499 147.468C229.241 148.562 228.977 149.659 228.582 150.714C228.557 150.95 228.507 151.426 228.479 151.663C224.059 151.698 219.635 151.5 215.215 151.648C214.925 152.873 214.573 154.079 214.276 155.3C219.614 155.321 224.955 155.303 230.296 155.31C230.257 155.582 230.179 156.125 230.141 156.397C229.738 157.381 229.52 158.425 229.259 159.455C221.356 159.339 213.447 159.516 205.545 159.339C205.834 158.351 206.106 157.36 206.385 156.372C206.543 155.906 206.642 155.42 206.755 154.95C207.32 153.222 207.655 151.43 208.212 149.704C208.325 149.221 208.441 148.752 208.597 148.29C209.32 145.715 209.937 143.104 210.745 140.553C210.77 140.324 210.823 139.865 210.851 139.636L210.851 139.636ZM189.191 139.94C190.009 139.389 191.036 139.605 191.963 139.562C197.336 139.527 202.706 139.658 208.075 139.629C207.458 141.947 206.734 144.237 206.124 146.558C205.965 147.009 205.835 147.468 205.711 147.937C205.577 148.41 205.446 148.879 205.323 149.359C204.106 148.209 203.22 146.77 202.116 145.524C201.725 145.171 201.658 144.646 201.633 144.159C198.532 143.902 195.421 143.958 192.309 143.958C192.165 144.328 192.016 144.702 191.865 145.076C191.794 145.429 191.727 145.785 191.66 146.145C191.512 146.516 191.385 146.89 191.279 147.278C190.792 149.013 190.316 150.752 189.79 152.477C189.578 153.254 189.328 154.019 189.201 154.82C192.373 154.785 195.544 154.834 198.719 154.788C198.821 154.164 199.019 153.567 199.273 152.992C200.927 153.035 202.582 153.006 204.237 153.006C204.152 153.317 203.983 153.931 203.898 154.241C203.376 155.945 202.942 157.681 202.339 159.364C196.546 159.311 190.753 159.406 184.964 159.318C183.433 158.478 181.881 157.603 180.438 156.626C180.508 154.76 181.324 152.947 181.828 151.144C181.863 150.957 181.937 150.579 181.972 150.389C182.152 149.923 182.272 149.44 182.389 148.96C182.978 147.355 183.285 145.669 183.849 144.057C183.976 143.591 184.103 143.139 184.255 142.691C184.311 142.49 184.431 142.095 184.488 141.898C184.872 141.753 185.26 141.615 185.645 141.467C186.823 140.945 188.009 140.448 189.19 139.94H189.191ZM141.432 146.791C140.514 147.958 139.601 149.126 138.659 150.272C140.035 150.459 141.428 150.473 142.818 150.473C142.624 149.013 142.222 147.588 141.968 146.138C141.791 146.353 141.611 146.572 141.431 146.79L141.432 146.791ZM125.783 156.869C130.602 150.967 135.555 145.175 140.327 139.234C142.553 139.181 144.776 139.308 147.002 139.255C147.277 140.264 147.545 141.28 147.859 142.286C147.983 142.748 148.106 143.22 148.255 143.683C148.368 144.141 148.477 144.617 148.657 145.062C149.221 147.073 149.743 149.094 150.347 151.095C150.47 151.56 150.604 152.037 150.759 152.499C151.356 154.686 151.941 156.88 152.618 159.046C150.167 159.046 147.715 158.993 145.266 159.008C144.907 157.477 144.406 155.984 144.074 154.45C141.164 154.347 138.253 154.422 135.343 154.404C134.186 155.885 133.042 157.374 131.939 158.891C129.416 159.103 126.83 158.888 124.283 158.969C124.555 158.119 125.246 157.54 125.782 156.87L125.783 156.869ZM109.837 150.428C109.675 150.886 109.558 151.359 109.449 151.839C109.132 152.777 108.856 153.737 108.733 154.724C111.195 154.714 113.658 154.728 116.12 154.724C116.554 154.724 116.974 154.643 117.38 154.478C118.247 150.717 119.387 147.024 120.36 143.291C117.499 143.111 114.631 143.217 111.763 143.192C111.149 145.609 110.476 148.015 109.837 150.428V150.428ZM105.438 138.984C109.125 139.086 112.811 139.022 116.498 139.051C117.059 139.216 117.644 139.23 118.205 139.047C119.507 139.072 120.83 138.896 122.114 139.178C122.869 139.089 123.719 138.86 124.4 139.333C125.666 140.099 126.894 140.956 128.238 141.584C128.083 142.769 127.744 143.923 127.391 145.066C127.264 145.535 127.144 146.011 127.007 146.487C126.887 146.95 126.767 147.419 126.615 147.877C125.864 150.735 125.088 153.589 124.301 156.436C123.793 156.64 123.292 156.859 122.795 157.085C121.44 157.773 119.99 158.256 118.642 158.962C116.501 158.962 114.356 158.983 112.215 158.947C111.555 158.641 110.818 158.722 110.116 158.718C106.75 158.736 103.385 158.708 100.023 158.732C100.058 158.418 100.1 158.108 100.146 157.804C100.933 155.631 101.36 153.349 102.047 151.148C102.94 147.832 103.839 144.515 104.757 141.206C104.944 140.751 105.011 140.257 105.092 139.785C105.18 139.584 105.349 139.185 105.438 138.984L105.438 138.984ZM159.113 139.139C159.184 138.74 159.466 139.005 159.596 139.217C161.473 139.277 163.35 139.365 165.227 139.308C166.814 141.407 168.261 143.612 169.806 145.746C170.561 146.893 171.407 147.98 172.106 149.168C172.243 149.172 172.519 149.175 172.653 149.175C173.192 146.12 174.283 143.178 174.946 140.148C175.069 139.869 175.196 139.594 175.32 139.319C177.803 139.464 180.357 138.991 182.774 139.728C182.276 140.077 182.273 140.698 182.149 141.242C181.976 141.683 181.846 142.141 181.765 142.614C181.19 144.35 180.823 146.145 180.287 147.892C180.167 148.364 180.064 148.855 179.874 149.31C179.8 149.663 179.729 150.019 179.659 150.379C178.77 153.264 178.043 156.203 177.239 159.117C175.217 159.082 173.192 159.156 171.175 159.092C170.712 159.121 170.547 158.63 170.3 158.352C168.151 155.177 165.89 152.079 163.749 148.901C163.668 149.289 163.579 149.68 163.495 150.076C163.188 150.996 162.965 151.946 162.704 152.884C162.549 153.346 162.45 153.822 162.344 154.306C161.882 155.868 161.494 157.456 161.092 159.04C158.598 159.04 156.104 159.043 153.613 159.036C154.252 156.613 154.929 154.2 155.561 151.776C155.719 151.318 155.829 150.845 155.935 150.376C156.517 148.647 156.855 146.848 157.413 145.109C157.529 144.636 157.667 144.177 157.825 143.722C157.886 143.355 157.949 142.989 158.02 142.629C158.552 141.521 158.57 140.244 159.113 139.14V139.139ZM365.753 97.5922C365.728 97.8356 365.675 98.3225 365.65 98.5693C365.435 98.9996 365.305 99.4653 365.178 99.931C365.054 100.294 364.934 100.658 364.821 101.025C364.447 102.189 364.158 103.377 363.749 104.528C363.548 105.244 363.319 105.949 363.093 106.659C362.32 108.994 361.724 111.386 360.881 113.693C360.758 114.162 360.634 114.631 360.479 115.097C360.422 115.28 360.309 115.647 360.253 115.831C360.087 116.328 359.967 116.836 359.854 117.351C364.596 117.538 369.344 117.393 374.089 117.446C374.279 116.78 374.47 116.116 374.717 115.471C374.837 114.998 374.943 114.522 375.151 114.081C375.197 113.89 375.292 113.506 375.338 113.312C376.064 111.368 376.509 109.332 377.211 107.381C377.405 106.662 377.638 105.956 377.857 105.251C378.703 102.721 379.324 100.118 380.284 97.6305C375.437 97.7928 370.586 97.1648 365.753 97.5917L365.753 97.5922ZM351.388 87.7956C361.392 87.5911 371.397 87.9331 381.406 87.8345C384.224 87.7111 387.025 88.0991 389.844 88.0039C390.557 88.4448 391.28 88.8751 392.014 89.2985C393.163 90.0216 394.342 90.7097 395.52 91.4011C396.617 92.1384 397.845 92.6782 398.886 93.5107C398.177 95.1194 397.852 96.8622 397.228 98.5026C397.027 99.2222 396.804 99.9384 396.607 100.662C396.06 102.168 395.686 103.727 395.178 105.244C395.019 105.71 394.878 106.186 394.705 106.652C394.67 106.835 394.607 107.202 394.571 107.386C394.212 108.183 393.975 109.029 393.763 109.876C393.351 111.016 393.058 112.191 392.666 113.333C392.455 114.05 392.229 114.759 392.028 115.478C391.312 117.704 390.603 119.934 389.975 122.184C389.784 122.29 389.403 122.502 389.209 122.604C388.701 122.77 388.207 122.971 387.717 123.169C385.992 124.005 384.178 124.636 382.453 125.472C380.922 125.991 379.511 126.929 377.924 127.222C369.203 127.243 360.486 127.183 351.765 127.219C350.947 127.219 350.114 127.261 349.321 127.053C346.033 126.979 342.745 127.053 339.46 127.018C339.838 125.391 340.367 123.807 340.872 122.22C340.97 121.846 341.08 121.475 341.2 121.112C341.334 120.65 341.475 120.202 341.634 119.754C343.179 114.818 344.622 109.852 346.252 104.948C346.291 104.747 346.368 104.348 346.407 104.147C347.144 102.203 347.571 100.157 348.337 98.2276C348.376 98.0372 348.45 97.656 348.485 97.4656C348.665 97.0175 348.792 96.5484 348.937 96.0861C349.455 94.5726 349.857 93.024 350.362 91.5072C350.574 90.7841 350.803 90.0645 351.007 89.3376C351.251 88.8578 351.3 88.3145 351.388 87.7959L351.388 87.7956ZM309.418 97.2925C308.857 99.522 307.985 101.66 307.379 103.875C306.962 104.905 306.645 105.974 306.359 107.05C307.386 106.817 308.409 106.567 309.414 106.253C309.891 106.161 310.374 106.069 310.836 105.893C314.537 105.089 318.167 103.925 321.882 103.209C322.679 101.311 323.162 99.2893 323.769 97.3244C318.982 97.4337 314.198 97.0773 309.418 97.2925H309.418ZM295.197 87.4395C300.655 87.4996 306.116 87.323 311.57 87.556C318.386 87.5629 325.201 87.5137 332.013 87.5983C333.386 87.3196 334.402 88.3919 335.531 88.9531C337.838 90.3536 340.177 91.7011 342.459 93.1476C342.106 93.9942 341.82 94.8691 341.619 95.7689C341.302 96.559 341.069 97.3845 340.854 98.2137C340.431 99.3603 340.145 100.553 339.764 101.713C339.651 102.07 339.538 102.429 339.425 102.793C339.189 103.491 338.959 104.19 338.772 104.906C338.416 105.971 338.113 107.058 337.753 108.127C335.855 108.945 333.954 109.746 332.059 110.568C331.562 110.787 331.064 110.998 330.563 111.196C329.854 111.52 329.138 111.827 328.425 112.134C328.732 112.921 329.099 113.686 329.466 114.452C330.341 116.075 331.114 117.75 331.946 119.398C332.743 120.869 333.403 122.41 334.211 123.881C334.306 124.075 334.493 124.463 334.588 124.657C334.969 125.441 335.375 126.209 335.749 127.003C329.395 126.996 323.042 126.873 316.685 126.943C315.93 125.525 315.362 124.015 314.603 122.6C313.778 120.66 312.811 118.783 311.968 116.857C311.354 115.622 310.783 114.363 310.246 113.093C308.338 113.128 306.426 113.043 304.521 113.149C304.2 114.398 303.826 115.629 303.438 116.857C302.443 119.908 301.603 123.013 300.534 126.036C300.499 126.237 300.429 126.632 300.393 126.83C297.649 126.773 294.897 126.914 292.156 126.752C289.147 126.784 286.138 126.773 283.125 126.717C283.143 126.547 283.181 126.205 283.199 126.036C284.021 124.117 284.409 122.042 285.143 120.088C285.182 119.894 285.263 119.506 285.305 119.312C285.506 118.748 285.697 118.183 285.922 117.629C285.961 117.435 286.035 117.044 286.07 116.846C286.797 114.902 287.287 112.877 287.975 110.919C288.162 110.193 288.388 109.48 288.582 108.76C289.344 106.824 289.725 104.76 290.505 102.83C290.54 102.64 290.611 102.262 290.642 102.072C291.641 99.3057 292.318 96.4377 293.309 93.6684C293.892 91.5764 294.583 89.5198 295.197 87.4382L295.197 87.4395ZM255.39 96.9364C255.093 97.9489 254.723 98.9438 254.437 99.9632C253.675 102.302 253.033 104.68 252.243 107.012C252.109 107.477 252.017 107.968 251.788 108.409C251.749 108.596 251.675 108.973 251.637 109.164C251.09 110.547 250.744 111.997 250.3 113.411C250.127 113.863 250.003 114.332 249.89 114.805C249.739 115.189 249.619 115.588 249.538 115.997C249.386 116.262 249.238 116.527 249.09 116.795C251.319 117.059 253.566 116.869 255.806 116.925C258.417 116.869 261.031 117.045 263.635 116.823C263.712 116.368 263.804 115.92 263.956 115.486C264.188 114.773 264.414 114.061 264.633 113.345C265.159 111.835 265.536 110.279 266.051 108.769C266.274 108.06 266.492 107.347 266.679 106.628C267.434 104.684 267.819 102.617 268.606 100.687C268.644 100.5 268.719 100.13 268.754 99.9462C268.944 99.4946 269.068 99.0148 269.216 98.5563C269.414 98.0587 269.481 97.5225 269.583 97.0077C264.849 97.0393 260.122 96.9616 255.391 96.9372L255.39 96.9364ZM250.465 87.4714C251.238 87.0411 252.137 87.1433 252.991 87.1467C259.345 87.2209 265.705 87.0972 272.059 87.2068C274.475 87.6443 277.005 87.0552 279.407 87.4996C282.36 89.1472 285.179 91.0381 288.163 92.6219C288.107 93.0841 288.05 93.546 287.99 94.012C287.161 95.9239 286.844 98.0124 286.036 99.935C286.004 100.125 285.941 100.507 285.909 100.697C284.942 103.346 284.247 106.091 283.369 108.772C282.6 111.115 281.94 113.492 281.171 115.831C280.533 117.8 280.018 119.81 279.277 121.744C278.712 121.941 278.158 122.16 277.608 122.386C277.171 122.58 276.737 122.777 276.31 122.982C274.511 123.723 272.733 124.513 270.937 125.243C269.583 125.797 268.277 126.708 266.764 126.648C257.8 126.683 248.839 126.464 239.872 126.556C237.356 125.05 234.823 123.571 232.319 122.048C231.698 121.702 231.059 121.367 230.562 120.852C231.43 118.904 231.818 116.781 232.573 114.791C232.767 114.057 233 113.334 233.211 112.607C233.906 110.646 234.358 108.603 235.088 106.656C235.134 106.469 235.222 106.095 235.268 105.904C235.416 105.456 235.557 105.005 235.695 104.553C236.238 103.043 236.587 101.47 237.148 99.9672C237.346 99.2475 237.575 98.5348 237.787 97.8188C238.348 96.0867 238.863 94.3439 239.395 92.6011C239.456 92.1389 239.963 91.9801 240.323 91.811C240.655 91.6804 240.987 91.5429 241.315 91.3948C241.794 91.1972 242.281 90.9961 242.761 90.7844C243.583 90.4211 244.426 90.0964 245.245 89.719C245.714 89.5145 246.194 89.3275 246.684 89.1544C247.894 88.4842 249.228 88.089 250.466 87.4717L250.465 87.4714ZM199.658 86.8116C204.745 86.8222 209.829 86.7941 214.916 86.8257C215.071 86.8717 215.381 86.9704 215.54 87.0196C222.098 87.1853 228.674 86.868 235.228 87.1818C234.184 89.048 233.98 91.2565 233.158 93.225C233.116 93.4155 233.034 93.8 232.992 93.9942C232.805 94.4529 232.681 94.9324 232.569 95.4159C231.951 96.8941 231.662 98.4816 231.119 99.9879C230.981 100.429 230.833 100.87 230.678 101.311C230.639 101.509 230.554 101.9 230.516 102.094C229.828 103.954 229.358 105.89 228.741 107.774C226.106 104.525 223.679 101.113 221.029 97.8856C221.075 97.5749 221.167 96.9614 221.213 96.6545C215.417 96.6191 209.617 96.6686 203.821 96.6298C202.964 99.0111 202.286 101.459 201.563 103.886C200.551 106.641 199.919 109.52 198.893 112.268C198.854 112.455 198.776 112.833 198.741 113.023C198.3 114.145 198.025 115.32 197.63 116.459C201.521 116.523 205.415 116.505 209.3 116.534C211.194 116.727 213.106 116.678 215.008 116.636C215.502 115.863 215.629 114.921 215.907 114.061C215.996 113.828 216.168 113.359 216.257 113.126C219.858 113.158 223.46 113.196 227.066 113.2C226.6 114.53 226.237 115.895 225.774 117.225C225.57 117.938 225.337 118.643 225.125 119.356C224.589 120.859 224.251 122.429 223.658 123.911C223.435 124.697 223.192 125.48 223.072 126.292C219.636 126.518 216.193 126.26 212.753 126.327C204.759 126.383 196.772 126.235 188.778 126.249C187.794 126.281 187.082 125.47 186.242 125.085C183.808 123.681 181.462 122.129 178.985 120.802C179.081 120.538 179.271 120.005 179.366 119.741C179.402 119.55 179.472 119.169 179.508 118.979C179.853 118.181 180.086 117.345 180.305 116.509C180.817 114.999 181.226 113.458 181.737 111.948C181.868 111.475 182.009 111.009 182.182 110.554C182.224 110.357 182.312 109.962 182.355 109.764C183.088 107.827 183.575 105.813 184.231 103.855C184.447 103.132 184.672 102.409 184.863 101.682C185.625 99.7523 185.974 97.6816 186.789 95.7694C186.821 95.5718 186.892 95.1769 186.927 94.9793C187.357 93.9458 187.593 92.8485 187.999 91.8078C188.369 91.6703 188.736 91.5328 189.107 91.3881C190.867 90.6049 192.652 89.8818 194.42 89.1161C196.141 88.2943 197.965 87.6874 199.658 86.8124L199.658 86.8116ZM136.119 86.3882C137.372 86.4587 138.631 86.4164 139.89 86.4233L139.922 86.6879C154.877 86.5996 169.831 86.8151 184.785 86.7481C184.732 87.0233 184.679 87.302 184.63 87.5842C184.467 87.9512 184.337 88.3286 184.234 88.7166C183.61 90.6852 183.081 92.6889 182.375 94.6327C182.266 95.2359 182.075 95.8215 181.839 96.393C171.309 96.3968 160.778 96.2731 150.248 96.3191C149.779 97.7654 149.443 99.2648 148.847 100.669C148.826 100.81 148.78 101.096 148.755 101.237C156.51 101.265 164.264 101.314 172.021 101.254L172.039 101.508C172.621 101.512 173.206 101.522 173.792 101.537C173.619 102.076 173.45 102.616 173.273 103.156C173.136 103.611 173.005 104.073 172.822 104.518C172.783 104.701 172.705 105.075 172.663 105.262C171.855 107.298 171.46 109.474 170.635 111.499C162.302 111.312 153.962 111.478 145.63 111.347C145.087 112.974 144.593 114.625 144.131 116.279C152.315 116.265 160.496 116.442 168.681 116.371C171.019 116.29 173.348 116.537 175.687 116.477C175.352 117.549 174.956 118.604 174.696 119.701C174.558 120.065 174.431 120.432 174.314 120.802C173.972 121.962 173.634 123.123 173.263 124.277C173.097 124.915 172.872 125.536 172.635 126.157C168.836 126.132 165.036 126.189 161.241 126.132C159.498 125.889 157.741 125.988 155.991 125.973C145.203 125.966 134.415 125.956 123.631 125.885C124.689 123.056 125.405 120.11 126.376 117.249C126.584 116.53 126.817 115.817 127.025 115.101C127.699 113.132 128.178 111.104 128.905 109.153C128.944 108.959 129.025 108.571 129.064 108.373C129.822 106.44 130.256 104.394 130.962 102.439C131.163 101.723 131.385 101.011 131.575 100.295C132.341 98.0755 132.973 95.8143 133.664 93.574C133.854 93.1258 133.953 92.6461 134.077 92.1806C134.906 90.3073 135.033 88.1342 136.119 86.388V86.3882ZM95.1194 96.146C94.0011 99.3563 93.0591 102.626 91.9551 105.84C92.837 105.681 93.7013 105.445 94.5798 105.272C96.4353 104.69 98.3616 104.355 100.214 103.755C100.577 103.692 100.94 103.628 101.307 103.572C101.759 103.374 102.239 103.283 102.718 103.17C104.369 102.669 106.08 102.38 107.728 101.868C108.169 99.9525 108.892 98.1146 109.361 96.2095C104.617 96.0965 99.8682 96.213 95.1197 96.146H95.1194ZM80.6766 86.381C81.7386 85.8449 82.892 86.3917 84.0103 86.3316C95.6484 86.3209 107.29 86.3563 118.928 86.3951C121.906 88.2789 124.947 90.0746 127.991 91.849C127.843 92.558 127.663 93.2671 127.409 93.9516C127.197 94.6747 126.979 95.3944 126.788 96.1247C125.775 98.8765 125.13 101.755 124.103 104.507C124.064 104.701 123.983 105.089 123.945 105.286C123.761 105.77 123.631 106.267 123.525 106.782C122.738 107.262 121.881 107.622 121.013 107.939C120.442 108.225 119.856 108.49 119.249 108.694C118.135 109.269 116.935 109.657 115.813 110.215C115.235 110.444 114.649 110.666 114.053 110.846C114.148 111.199 114.251 111.555 114.392 111.901C115.34 113.661 116.205 115.467 117.09 117.263C117.909 118.741 118.565 120.3 119.377 121.786C119.994 123.158 120.809 124.442 121.317 125.867C114.974 125.793 108.627 125.987 102.288 125.758C101.692 124.562 101.17 123.327 100.574 122.135C100.439 121.81 100.305 121.486 100.168 121.172C100.069 120.988 99.8717 120.621 99.7728 120.438C99.0531 118.745 98.21 117.111 97.4691 115.432C96.8835 114.25 96.3614 113.043 95.7933 111.858C93.92 111.866 92.0434 111.858 90.17 111.866C90.1453 112.081 90.0889 112.508 90.0642 112.723C89.415 114.176 89.1118 115.757 88.5685 117.252C88.3602 117.965 88.131 118.671 87.9371 119.39C87.1858 121.56 86.6318 123.793 85.8345 125.945C85.5627 125.631 85.1747 125.543 84.776 125.578C79.382 125.525 73.9882 125.627 68.5977 125.525C68.8447 125.017 69.0458 124.495 69.208 123.962C69.6912 122.438 70.083 120.886 70.6439 119.39C70.8168 118.664 71.0391 117.958 71.2542 117.249C71.9282 115.28 72.4324 113.252 73.1555 111.301C73.1944 111.107 73.272 110.719 73.3108 110.525C73.5332 110.087 73.6284 109.608 73.7449 109.146C74.4611 107.188 74.9268 105.152 75.6217 103.191C76.4403 100.591 77.1634 97.9555 78.0594 95.3838C78.2464 94.6641 78.4687 93.962 78.6698 93.2495C79.3647 91.2703 79.8269 89.2137 80.5926 87.2592C80.6136 87.0406 80.6562 86.5994 80.6772 86.3808L80.6766 86.381ZM412.277 83.4319C412.281 84.1444 412.281 84.8571 412.288 85.5731C413.462 85.5731 414.665 85.6648 415.805 85.2874C415.805 84.7194 415.794 84.155 415.777 83.5941C414.623 83.3612 413.442 83.4178 412.277 83.4319H412.277ZM410.21 81.7351C412.274 81.7035 414.341 81.6894 416.408 81.7881C417.851 82.4372 418.239 84.134 417.862 85.563C417.329 86.3885 416.51 86.914 415.505 86.8999C415.646 86.9422 415.935 87.0233 416.08 87.0656C417.135 88.2791 417.876 89.7078 418.807 91.0131C417.96 91.0485 417.124 91.0589 416.285 91.0378C415.11 89.5913 414.503 87.1151 412.277 87.0725C412.277 88.452 412.309 89.8347 412.245 91.2176C411.575 91.2105 410.908 91.2105 410.245 91.2105C410.181 88.0496 410.249 84.8922 410.21 81.7349L410.21 81.7351ZM411.709 79.7418C409.48 80.6134 407.758 82.4617 407.059 84.7513C406.946 86.2752 406.82 87.9156 407.613 89.2951C408.725 91.8211 411.48 93.3803 414.2 93.2851C415.699 93.0381 417.382 92.6538 418.412 91.4437C419.678 90.5405 420.197 89.0235 420.684 87.6161C421.199 84.4446 419.343 81.058 416.299 79.9431C414.838 79.3716 413.226 79.6115 411.709 79.7421L411.709 79.7418ZM405.977 81.9431C407.659 79.128 410.848 77.2158 414.182 77.4663C418.775 77.4382 422.836 81.6431 422.783 86.2047C422.91 89.369 421.142 92.4384 418.451 94.0612C418.281 94.1599 417.943 94.3646 417.773 94.4633C415.452 95.5181 412.704 95.6274 410.344 94.6433C407.811 93.5849 405.835 91.2955 405.147 88.639C404.586 86.3954 404.932 83.9928 405.976 81.9434L405.977 81.9431ZM233.613 55.199C232.36 55.9046 231.267 56.9418 230.819 58.3423C230.628 58.9069 230.547 59.5136 230.688 60.1061C231.231 62.8401 232.699 65.5036 235.063 67.0629C236.46 68.0437 238.463 67.9977 239.857 67.0347C241.995 65.7081 243.363 63.4927 244.252 61.1962C244.362 60.1838 244.503 59.1359 244.238 58.1412C243.593 56.582 242.21 55.3825 240.637 54.8216C238.368 54.028 235.772 54.1161 233.613 55.199ZM130.08 28.6244C130.295 28.6068 130.718 28.5749 130.93 28.5608C133.805 29.6121 136.846 30.2294 139.788 31.0937C140.247 31.2418 140.719 31.3477 141.192 31.4535C143.284 32.0993 145.408 32.6283 147.521 33.1963C147.98 33.3445 148.442 33.4609 148.911 33.5984C149.377 33.7572 149.86 33.849 150.347 33.9655C152.086 34.4982 153.864 34.9037 155.61 35.433C156.087 35.5423 156.563 35.6553 157.036 35.8069C160.81 36.8369 164.589 37.8672 168.367 38.8901C170.106 39.4332 171.887 39.8284 173.627 40.3752C174.089 40.4845 174.547 40.622 174.999 40.7879C175.355 40.8549 175.715 40.9219 176.078 40.9959C178.17 41.7437 180.382 42.1177 182.474 42.8692C182.732 42.9222 183.247 43.0246 183.504 43.0738C183.956 43.2748 184.439 43.3631 184.923 43.4865C185.381 43.6312 185.851 43.7474 186.32 43.8711C188.789 44.6048 191.287 45.2469 193.767 45.9418C194.218 46.0934 194.681 46.2099 195.146 46.3298C196.416 46.7178 197.718 47.0178 198.988 47.4024C199.454 47.5189 199.93 47.6351 200.389 47.7904C203.32 48.6654 206.319 49.3321 209.212 50.3127C209.575 50.3656 209.938 50.422 210.305 50.4821C212.736 51.3111 215.251 51.8898 217.728 52.5813C218.19 52.74 218.659 52.8634 219.139 53.0009C219.597 53.1525 220.063 53.2584 220.539 53.3783C221.53 53.6219 222.501 54.0451 223.517 54.1687C226.307 52.2847 228.816 49.9566 231.564 48.0093C235.663 47.8151 239.801 48.1117 243.914 47.9598C246.465 50.0765 249.083 52.1121 251.608 54.2605C252.783 54.0278 253.947 53.7278 255.09 53.3539C255.57 53.2693 256.06 53.181 256.505 52.9517C256.865 52.8882 257.225 52.8283 257.592 52.772C258.047 52.5462 258.544 52.465 259.045 52.3698C260.848 51.7983 262.721 51.4667 264.52 50.8776C265.021 50.7789 265.522 50.6765 266.009 50.4965C266.481 50.38 266.958 50.2638 267.427 50.1119C267.787 50.0308 268.15 49.9566 268.521 49.8827C270.277 49.3183 272.101 48.9936 273.862 48.4361C276.546 47.7481 279.234 47.0604 281.909 46.3266C282.381 46.2101 282.868 46.1115 283.337 45.9561C283.81 45.8397 284.307 45.7623 284.752 45.5434C285.105 45.4764 285.461 45.4163 285.824 45.3599C286.279 45.1306 286.781 45.0423 287.281 44.9402C289.123 44.4251 290.982 43.9666 292.823 43.448C293.314 43.3809 293.786 43.2469 294.242 43.0458C294.598 42.9823 294.961 42.9224 295.328 42.8623C298.104 41.998 300.98 41.4265 303.767 40.5975C309.545 39.1124 315.331 37.6377 321.084 36.0503C323.317 35.5495 325.529 34.9388 327.741 34.3428C328.224 34.2264 328.708 34.1064 329.194 33.9583C329.66 33.8383 330.133 33.7256 330.602 33.5809C332.835 33.0516 335.054 32.4591 337.273 31.8663C337.753 31.7392 338.236 31.6123 338.713 31.4535C339.066 31.39 339.422 31.3301 339.785 31.2738C341.81 30.6387 343.881 30.053 345.99 29.7746C345.218 30.1132 344.424 30.3778 343.644 30.6847C343.291 30.8259 342.942 30.9669 342.593 31.1009C342.233 31.2243 341.877 31.348 341.524 31.4714C340.021 32.0711 338.483 32.5756 336.966 33.1399C336.483 33.3269 336.003 33.5104 335.538 33.7221C335.358 33.7679 334.995 33.8527 334.815 33.8984C332.532 34.9144 330.119 35.613 327.812 36.5689C326.613 36.9885 325.417 37.4119 324.228 37.8563C323.875 37.9835 323.529 38.1209 323.187 38.2619C323 38.3148 322.626 38.4172 322.439 38.4664C322.083 38.6111 321.73 38.7523 321.381 38.8861C321.025 39.0167 320.672 39.1438 320.323 39.2707C319.307 39.648 318.269 39.9728 317.264 40.3749C315.02 41.1932 312.78 42.0222 310.533 42.8302C310.18 42.9607 309.827 43.1017 309.485 43.2429C307.104 44.1426 304.702 44.9785 302.352 45.9487C301.999 46.0793 301.654 46.2064 301.308 46.3367C299.445 47.0846 297.562 47.7795 295.72 48.5768C294.507 49.0601 293.3 49.5611 292.094 50.0515C291.642 50.2457 291.194 50.4396 290.764 50.6653C290.27 50.8523 289.783 51.0534 289.307 51.2616C288.495 51.6286 287.681 51.9778 286.873 52.3374C286.276 52.5704 285.701 52.8491 285.144 53.156C283.203 53.9461 281.341 54.9094 279.457 55.8299C276.709 57.1987 273.993 58.6346 271.329 60.1619C263.547 64.6738 255.976 69.9266 250.226 76.9328C241.939 77.0562 233.656 76.8446 225.369 76.894C222.424 73.2111 218.737 70.2088 214.959 67.4219C209.995 63.8837 204.711 60.8319 199.373 57.904C197.592 57.0149 195.849 56.0626 194.057 55.2051C192.565 54.415 191.026 53.727 189.538 52.9438C187.862 52.2241 186.25 51.3738 184.574 50.6683C182.969 49.8321 181.272 49.2008 179.646 48.4141C179.152 48.1952 178.661 47.9838 178.168 47.779C176.464 46.971 174.682 46.3325 172.982 45.5141C171.331 44.8192 169.652 44.1947 168.025 43.4538C167.517 43.2458 167.016 43.0341 166.512 42.84C165.108 42.265 163.704 41.6935 162.296 41.136C161.848 40.9384 161.393 40.7549 160.945 40.568C159.629 40.0847 158.334 39.5379 157.029 39.0262C156.578 38.8427 156.119 38.663 155.675 38.476C155.17 38.2856 154.669 38.088 154.165 37.9116C152.923 37.3542 151.604 36.9909 150.372 36.4088C150.013 36.2816 149.656 36.1479 149.304 36.0135C147.642 35.3609 145.973 34.7189 144.301 34.0979C143.956 33.9567 143.61 33.8229 143.264 33.6923C142.809 33.4947 142.34 33.3219 141.881 33.1455C139.846 32.4259 137.852 31.5934 135.828 30.8525C134.625 30.3693 133.415 29.8895 132.166 29.5472L132.254 29.3004C131.753 29.3568 131.326 29.2262 130.977 28.9089C130.677 28.8137 130.377 28.7185 130.081 28.623L130.08 28.6244Z" fill="black"/>
</svg>
