<svg width="200" height="200" viewBox="0 0 200 200" fill="none" xmlns="http://www.w3.org/2000/svg">
<path d="M149.984 114.936C162.395 108.393 165.374 100.104 161.551 97.7857C155.909 94.6181 140.44 100.282 142.196 115.776C141.429 116.237 139.905 117.065 139.905 117.065L140.936 120.2C140.936 120.2 143.091 118.905 143.678 118.504C145.499 119.977 146.437 120.784 149.251 120.841C155.226 120.964 160.388 114.325 160.388 114.325L158.866 111.989C158.866 111.989 152.299 118.306 149.99 114.942L149.984 114.936ZM151.634 105.44C153.408 102.284 156.302 99.8211 157.703 100.806C159.11 101.784 156.263 106.774 149.575 112.082C149.308 111.615 149.849 108.604 151.637 105.44H151.634ZM34.2379 119.456C31.25 116.34 34.0726 105.795 34.6557 103.525C34.7098 103.314 34.5505 103.106 34.3311 103.106C34.2048 103.106 34.0876 103.175 34.0335 103.29C32.774 105.831 25.9566 120.832 19.9207 120.832C19.8094 120.832 19.6922 120.832 19.575 120.823C13.7435 120.278 14.504 112.205 16.3196 107.316H25.7221C24.9556 109.429 24.6911 110.76 24.7181 111.453C24.7362 111.955 25.154 112.208 25.5598 111.998C26.5337 111.489 28.1389 109.378 29.5336 106.951C32.0796 102.519 35.3471 95.8466 40.9922 79H51.3175C48.2575 88.3853 45.7686 96.8733 44.4099 106.578C44.3408 107.063 44.8969 107.469 45.3388 107.054C48.2846 104.277 59.0187 81.0204 59.6951 79H70.0324C70.0324 79 59.7822 107.436 60.6419 112.169C60.7591 112.814 61.4235 112.982 61.9615 112.365C62.5898 111.645 63.5667 110.372 64.1438 109.7L65.74 111.299C62.8002 114.933 58.0238 121.512 53.2564 120.721C52.5169 120.597 51.8015 120.176 51.2664 119.631C46.3037 115.31 53.2293 100.875 54.4437 97.4846C54.7112 96.7348 54.9758 96.0483 55.1441 95.6208C55.2313 95.401 55.0689 95.1661 54.8345 95.1631C54.7022 95.1631 54.585 95.2354 54.5279 95.3558C54.2904 95.8647 53.6441 97.2407 53.4247 97.7014C50.3496 104.046 43.2977 120.835 37.5023 120.835C36.5945 120.835 35.2358 120.495 34.2349 119.456H34.2379ZM134.152 86.1271C129.565 86.1873 127.226 88.581 127.226 88.581L127.346 91.3963C127.346 91.3963 130.268 88.4817 133.59 89.7102C135.847 90.5472 138.09 93.4257 136.557 99.8031C135.177 96.2591 129.829 95.4762 125.531 100.107C122.098 103.805 117.463 116.141 124.307 119.938C132.817 124.659 140.287 110.832 142.009 101.402C143.094 95.4582 143.741 86.0006 134.155 86.1271H134.152ZM130.584 114.714C129.667 115.367 128.047 115.701 127.734 112.811C127.286 108.655 130.157 103.645 131.05 102.48C132.571 100.493 134.693 100.339 134.738 103.356C134.789 106.825 132.874 113.082 130.584 114.714V114.714ZM104.898 83.7905C99.9384 82.0592 82.3687 87.6386 76.6154 107.093C75.909 107.288 72.5303 108.159 72.5303 108.159L71.0605 112.142L76.2847 110.543C76.2847 110.543 75.7136 120.54 84.4849 120.832C91.3835 120.576 95.0778 110.483 92.9285 103.994C92.4927 104.208 86.8656 106.599 86.8656 106.599C86.8656 106.599 87.9898 113.157 85.534 114.68C85.1552 114.915 84.6562 114.885 84.3376 114.44C83.6252 113.446 83.1683 110.872 83.9679 107.445C96.5988 100.869 105.22 89.2916 105.746 85.3081C105.881 84.2843 105.072 83.8568 104.895 83.7935L104.898 83.7905ZM89.1922 101.016C86.8476 102.811 85.032 103.708 85.032 103.708C85.032 103.708 85.6813 102.182 86.2013 101.303C87.5509 99.0232 94.0858 90.2401 99.5356 88.6111C99.746 88.5479 99.9023 88.7015 99.8963 88.9183C99.8452 90.8333 92.9285 98.156 89.1892 101.019L89.1922 101.016ZM115.578 115.698C116.408 115.177 117.541 114.28 117.541 114.28L118.241 116.424C117.827 116.866 114.448 119.546 112.353 120.528C110.089 121.588 108.003 120.191 107.718 118.486C107.39 116.532 108.4 113.976 108.4 113.976C108.4 113.976 104.79 118.095 101.111 120.103C100.089 120.66 99.3101 120.883 98.6849 120.868C96.208 120.808 95.4325 118.405 95.703 117.119C96.0277 115.587 99.3763 105.25 99.8001 103.555C99.8422 103.386 99.6769 103.19 99.4514 103.251C98.4354 103.531 95.7722 105.268 95.7722 105.268V102.396C95.7722 102.396 103.095 97.4153 105.027 96.8643C106.816 96.3555 108.343 97.3792 107.895 99.4146C107.691 100.827 103.329 112.771 103.056 114.217C103.001 114.506 103.302 114.527 103.383 114.503C104.805 114.069 107.426 111.841 109.431 108.667C111.304 105.702 112.59 101.938 114.144 97.2919H120.824C120.824 97.2919 115.774 112.805 115.205 115.376C115.142 115.656 115.431 115.785 115.575 115.695L115.578 115.698ZM169.027 120.853C165.452 120.829 163.796 117.857 163.387 116.897C159.308 106.749 171.269 97.316 171.269 97.316H178.198C178.198 97.316 167.65 105.768 169.108 113.256C170.091 116.894 173.238 115.939 175.291 113.073C177.786 109.592 180.037 102.73 178.342 102.543C176.767 102.371 174.675 105.78 174.675 105.78L174.663 105.771L173.199 103.534C174.338 102.055 177.578 98.1982 181.182 96.9908C181.727 96.8222 185 95.961 185 100.797C185 105.97 179.244 120.919 169.03 120.856L169.027 120.853ZM71.6767 118.059C71.6767 119.594 70.4352 120.832 68.9082 120.832C67.3872 120.832 66.1398 119.594 66.1398 118.059C66.1398 116.523 67.3872 115.283 68.9082 115.283C70.4352 115.283 71.6767 116.523 71.6767 118.059Z" fill="#E31E24"/>
</svg>
