<svg width="200" height="200" viewBox="0 0 200 200" fill="none" xmlns="http://www.w3.org/2000/svg">
<g clip-path="url(#clip0_533_2444)">
<path fill-rule="evenodd" clip-rule="evenodd" d="M96.6975 74.2488C97.6834 74.3263 98.6028 74.7251 99.4557 74.7029C100.076 74.6918 101.494 74.3152 102.291 74.2488C102.779 76.0654 104.451 77.1067 105.936 77.8931C105.149 79.5325 105.194 81.6704 105.936 83.2101C104.485 83.5978 102.679 85.4034 102.291 86.8434C101.383 86.7659 100.242 86.356 99.4889 86.356C98.7357 86.356 97.5948 86.777 96.6864 86.8434C96.3652 85.4477 94.7147 83.8083 93.3301 83.4871C93.3301 81.5043 94.1498 80.175 93.0532 77.8931C94.6593 77.0513 96.2434 76.1983 96.6975 74.2488V74.2488ZM105.659 63.8917C104.163 57.4891 100.198 52.7924 96.9301 47.4311C95.6895 45.404 94.8587 42.6348 94.7258 40.0981C94.5486 36.5867 95.4458 29.741 99.5111 29.741C104.861 29.741 106.013 41.5824 102.147 47.2207C101.538 48.1068 101.151 48.273 100.63 49.0595C100.995 50.4109 102.369 51.8177 103.144 52.9808C105.105 51.6626 106.578 49.2367 107.675 47.1542C110.134 42.4464 109.746 34.3048 106.844 29.6967C103.233 23.9588 96.6532 23.2166 92.6322 29.0321C91.3362 30.9152 89.9959 34.2605 89.9959 37.3067C89.9959 49.8903 95.1135 51.3081 99.3339 60.1587C99.9653 61.4769 103.576 70.0505 99.5111 70.0505C94.8809 70.0505 98.2483 62.7175 97.3954 60.9895C96.8194 59.8264 95.612 58.3088 95.3129 57.1679C93.8286 58.1648 92.2778 62.5181 92.2335 64.4455C84.6124 60.4135 82.109 61.1778 74.4326 59.0178C68.4953 57.3451 62.8459 52.8921 62.8459 46.257C62.8459 42.38 68.8719 42.9228 74.1224 48.1401C76.2935 50.3001 77.9662 53.8226 77.9662 57.7328C79.4173 57.7328 81.4555 58.2756 82.7293 58.5747C82.7293 51.6404 81.101 49.0373 77.8886 45.2157C75.6511 42.5461 70.6774 38.9793 65.9365 38.9793C56.3769 38.9793 54.9701 50.8761 64.9063 59.3279C65.6263 59.9372 66.2577 60.3581 67.0442 60.8344C70.8768 63.1384 73.8455 63.7034 78.1434 64.5785C80.104 64.9772 82.2419 65.376 84.0364 65.9631C86.6506 66.816 92.5325 69.1312 92.5325 72.0223C92.5325 74.2488 88.8771 75.1682 85.6647 69.6518C84.8561 68.2561 84.9004 68.4001 83.1835 67.9348C82.1201 67.6468 81.0345 67.2924 79.9379 67.2591C79.9933 69.9176 81.8764 72.3878 83.0173 74.5368C75.8394 74.6918 67.2546 85.4588 58.3819 85.4588C54.9037 85.4588 48.6119 84.3068 48.7448 80.463C48.8445 77.4057 53.6741 75.6666 56.9862 75.6666C65.2386 75.6666 65.0946 77.5165 68.1851 79.5879C69.182 78.9233 70.9211 77.3836 72.1064 77.0734C71.1981 75.7109 68.3069 73.5398 66.7008 72.6869C61.3284 69.8069 51.791 70.4382 47.2051 74.2931C35.9065 83.8083 55.236 97.8651 72.5827 84.8385C75.4738 82.6674 81.6105 78.7571 86.3737 78.7571C87.3928 78.7571 88.8882 78.9455 88.8882 80.1529C88.8882 85.6803 82.5189 81.7369 80.2148 82.6452C79.1736 83.055 76.8363 84.3843 76.2935 85.1929C77.9662 86.0791 80.9016 87.6631 83.2942 87.7074C83.1946 88.8705 82.8179 88.9924 82.3748 89.8675C79.229 96.2146 79.7164 100.313 77.944 105.863C76.3268 110.903 72.0842 117.372 65.9365 117.372C63.1672 117.372 62.857 115.611 62.857 113.451C62.857 108.222 69.747 102.806 74.5987 102.241C76.4597 102.03 76.6369 102.296 76.9138 100.634C77.0689 99.7261 77.3791 98.4854 77.4012 97.4885H75.4406C68.8608 97.4885 63.2115 101.864 60.0545 107.292C53.4304 118.701 64.3303 126.954 74.643 118.801C77.5785 116.486 80.1816 113.273 81.5662 109.762C84.269 102.883 83.6155 94.4534 88.6556 88.8594C92.3885 84.7277 95.4237 90.8865 88.7663 94.2872C87.1823 95.0958 87.4482 95.3063 86.9386 96.9457C85.6315 101.166 86.3183 100.535 90.0734 98.9617C91.2254 98.4744 92.2667 97.4885 93.3522 97.2005C94.9806 100.59 93.9283 100.524 97.6058 106.671C98.2594 107.768 98.7025 108.3 99.4003 109.352C103.056 114.846 106.49 121.304 103.244 128.094C101.992 130.72 99.5886 132.691 97.0741 130.144C95.1246 128.183 94.615 124.827 94.6261 122.113C94.6372 115.666 96.3763 115.035 98.3923 112.033C97.9825 110.504 96.5646 109.64 96.1547 108.111C94.9695 108.433 94.3381 109.485 93.6735 110.393C92.9867 111.324 92.4218 111.933 91.8568 113.052C90.1288 116.441 89.9959 119.886 89.9959 123.786C89.9959 136.701 104.562 141.753 108.572 127.253C111.397 117.062 105.194 110.061 100.298 102.019C99.5 100.712 95.2021 91.0416 99.7991 91.0416C103.554 91.0416 101.483 97.422 101.483 99.1611C101.483 100.136 103.233 103.071 103.997 103.636C105.138 102.805 106.756 98.6737 106.8 96.6356C107.553 96.8349 108.306 97.3999 109.037 97.7654C113.092 99.7704 117.6 100.568 122.131 101.465C128.145 102.661 136.165 106.959 136.309 114.038C136.442 120.673 127.348 115.832 124.811 112.797C122.707 110.283 121.089 107.901 121.089 103.359C119.461 103.326 117.91 102.65 116.326 102.517C116.326 109.153 118.021 112.243 121.267 115.777L121.532 116.065C122.95 117.604 124.423 118.945 126.307 119.975C127.392 120.562 128.079 120.972 129.375 121.382C135.822 123.387 140.962 120.041 140.962 115.112C140.962 110.006 139.267 106.561 135.999 103.282C129.729 97.0122 122.961 97.422 115.041 95.1291C104.086 91.95 105.714 86.0237 109.58 87.4083C110.621 87.785 111.773 89.0256 112.46 89.8785C113.435 91.0859 113.369 92.2269 114.875 92.7807C115.916 93.1684 117.766 93.7334 119.129 93.8441C119.073 91.4404 117.079 88.1062 116.049 86.5665C122.629 86.0237 128.057 79.9535 133.761 77.4057C143.753 72.9306 154.287 78.3141 149.159 83.0107C147.331 84.6834 144.794 85.4477 142.08 85.4477C134.315 85.4477 134.614 84.0298 130.881 81.5264C129.774 82.2686 128.001 83.188 127.248 84.3289C127.891 85.2815 128.888 85.9462 129.884 86.7326C137.572 92.7807 154.897 90.8312 155.196 80.6735C155.439 72.6094 143.376 68.4887 132.92 72.6537C125.731 75.5226 121.034 82.3793 112.128 82.3793C108.96 82.3793 109.137 76.5971 116.027 78.1922C116.791 78.3694 117.511 78.735 118.276 78.735C119.106 78.735 122.275 76.6414 122.751 75.9325C119.361 73.6617 117.722 74.0715 115.75 73.13C115.983 72.2549 117.124 70.4161 117.633 69.1312C120.436 62.0972 119.882 53.1912 125.476 47.5751C134.061 38.9572 141.183 45.8471 132.067 55.0079C126.794 60.3027 123.15 57.8658 122.363 59.5827C122.197 59.9372 121.643 63.1052 121.632 63.6148C124.567 63.6148 127.946 63.2714 130.228 62.1304C135.146 59.6492 140.95 53.6565 140.95 47.9407C140.95 45.2268 140.585 42.5683 138.48 40.8846C137.262 39.9209 135.19 38.9793 133.108 38.9793C128.057 38.9793 124.18 41.9923 121.134 45.4816C120.702 45.98 120.613 46.0022 120.225 46.5339C115.063 53.6897 116.293 60.3249 113.313 67.3367C112.549 69.1312 110.234 74.0937 107.841 73.4734C104.44 72.5983 106.833 68.5773 110.444 66.6942C111.829 65.9742 111.685 65.7969 112.117 64.1686C112.405 63.1052 112.848 61.9975 112.948 60.8012C110.92 61.2775 109.015 61.9089 107.254 62.9501C106.29 63.5261 106.667 63.6148 105.67 63.8806L105.659 63.8917Z" fill="#C9242B"/>
<path fill-rule="evenodd" clip-rule="evenodd" d="M64.7955 144.234C65.9143 143.979 67.022 143.901 67.598 143.115C66.8559 142.749 67.8306 142.838 66.7562 142.838C57.252 142.838 58.249 142.838 54.4384 152.353L49.9744 163.563C49.6864 164.283 49.7307 164.505 49.1214 164.948L45.3885 157.77C37.5237 142.284 39.429 142.838 27.5654 142.838V143.68C28.8614 143.713 29.4374 144.134 30.6449 144.245V172.237C29.659 172.314 27.366 172.935 27.0005 173.92C27.7427 174.286 26.7679 174.197 27.8423 174.197C29.3931 174.197 34.5994 174.519 35.6849 173.92C35.2529 172.724 33.9569 172.979 32.0406 171.96V148.731L37.1693 158.435C38.6868 161.492 44.9897 172.658 45.4771 174.485H47.1608C47.2716 173.223 49.1214 169.29 49.6421 168.005L54.6046 155.61C55.1474 154.27 56.8643 150.448 56.964 149.296H57.5289C57.5289 150.094 57.5179 150.681 57.4514 151.456C57.2077 154.314 57.8613 162.899 57.2852 168.67C57.1634 169.944 57.5954 171.306 57.4071 172.148C57.2299 172.923 57.684 172.491 56.7535 172.857C55.6348 173.289 55.1141 172.857 54.7264 173.931C55.4686 174.297 54.4938 174.208 55.5683 174.208C57.4957 174.208 66.5014 174.552 67.6091 173.931C67.022 173.134 66.0694 172.912 64.8066 172.813V144.256L64.7955 144.234Z" fill="#C9242B"/>
<path fill-rule="evenodd" clip-rule="evenodd" d="M96.6975 151.788C97.2071 152.763 96.1215 151.921 97.2846 152.597C98.204 153.129 99.489 152.475 99.489 153.749V171.949C99.489 173.001 97.6059 173.134 96.6865 173.344V174.186C99.212 174.186 107.786 174.618 109.281 173.909C108.971 173.045 108.328 172.835 106.479 172.791V156.84C106.479 155.765 107.365 154.735 107.941 154.104C111.22 150.526 113.535 154.225 113.756 157.128C114.465 166.82 111.253 174.197 118.519 174.197C119.815 174.197 122.817 174.485 123.836 173.921C123.249 173.123 122.297 172.901 121.034 172.802C121.034 169.346 121.034 165.901 121.034 162.445C121.034 158.313 121.267 156.485 119.284 154.126C115.385 149.484 107.32 150.692 106.202 154.89H105.637C105.26 153.483 103.898 152.364 102.402 151.966C100.741 151.523 98.492 151.811 96.6865 151.811L96.6975 151.788Z" fill="#C9242B"/>
<path fill-rule="evenodd" clip-rule="evenodd" d="M86.3405 165.502C86.3405 173.267 82.2641 175.649 79.949 172.458C77.069 168.504 77.0911 152.065 82.1423 152.065C87.0051 152.065 86.3405 161.736 86.3405 165.502V165.502ZM82.4192 174.74C89.8298 174.74 94.172 170.132 94.172 162.699C94.172 150.105 79.5281 148.355 73.6572 154.225C68.6947 159.188 68.883 170.852 77.3348 173.943C78.8302 174.485 80.381 174.74 82.4192 174.74Z" fill="#C9242B"/>
<path fill-rule="evenodd" clip-rule="evenodd" d="M160.247 152.065C162.219 152.065 163.271 154.436 163.67 156.197L164.467 162.976C164.445 164.261 164.235 165.048 164.168 166.609C163.78 175.493 156.281 178.263 155.827 163.231C155.749 160.55 156.126 152.065 160.247 152.065V152.065ZM160.247 174.74C167.657 174.74 172 170.132 172 162.699C172 147.125 148.206 146.815 148.206 162.976C148.206 170.298 152.892 174.729 160.247 174.729V174.74Z" fill="#C9242B"/>
<path fill-rule="evenodd" clip-rule="evenodd" d="M126.096 152.63C127.004 152.652 128.001 152.896 128.611 153.195V172.79C127.691 172.868 126.927 173.156 126.096 173.355V174.197H138.414V173.355C137.572 173.156 136.819 172.868 135.899 172.79C135.899 168.504 135.899 164.206 135.899 159.919C135.899 156.928 135.434 156.263 137.073 154.657C138.07 153.682 139.488 152.785 141.216 152.641C141.748 153.793 141.371 156.961 141.405 158.113C141.405 158.268 141.482 158.778 141.493 159.077H143.731C147.563 159.077 147.929 151.522 142.047 151.522C137.805 151.522 136.52 153.904 135.046 154.879C133.152 151.301 131.247 151.799 126.085 151.799V152.641L126.096 152.63Z" fill="#C9242B"/>
</g>
<defs>
<clipPath id="clip0_533_2444">
<rect width="145" height="149.74" fill="white" transform="translate(27 25)"/>
</clipPath>
</defs>
</svg>
