<svg width="200" height="200" viewBox="0 0 200 200" fill="none" xmlns="http://www.w3.org/2000/svg">
<path fill-rule="evenodd" clip-rule="evenodd" d="M130.146 88.0071C125.368 88.5225 120.583 88.915 115.776 89.1736C115.393 85.6435 117.504 82.1551 121.005 81.1676C122.843 80.6489 124.848 80.8357 126.512 81.7958C128.223 82.7833 129.384 84.5337 129.89 86.4198C130.031 86.9384 130.116 87.4712 130.146 88.0071H130.146ZM97.4496 89.4944C92.5654 89.399 87.6426 89.1563 82.6663 88.7543C82.1603 88.7259 81.6551 88.696 81.1491 88.6653L81.198 88.6684L80.3625 84.1531L95.9537 81.4135L97.4496 89.4944L97.4496 89.4944Z" fill="#EE363D"/>
<path fill-rule="evenodd" clip-rule="evenodd" d="M103.212 89.5393C107.146 89.5243 111.058 89.4147 114.956 89.217C114.812 87.8307 115.013 86.4545 115.505 85.2061L115.233 84.3604L103.264 88.1814L103.636 89.5378C103.495 89.5378 103.354 89.5385 103.212 89.5393H103.212ZM84.3569 71.1384L85.3248 76.5994L87.8808 80.4968L90.0238 80.1201L90.1002 80.533L90.2886 81.5529L96.6325 80.4377L96.7105 80.8514L96.9194 81.9801L98.4153 73.7093C98.472 73.3948 98.5509 73.0898 98.6486 72.7951L84.357 71.1384H84.3569ZM88.3843 81.2646L89.3435 81.0959L89.4562 81.7004L88.7508 81.8241L88.3843 81.2645V81.2646Z" fill="#00BBE7"/>
<path fill-rule="evenodd" clip-rule="evenodd" d="M98.3135 89.5094C99.8086 89.533 101.3 89.5433 102.789 89.5401L102.261 87.6193L102.962 87.3955C102.003 84.9617 102.102 82.3293 103.884 80.2919C104.648 79.4186 105.644 78.7661 106.74 78.3909C107.832 78.0165 109.021 77.9235 110.155 78.1513C112.9 78.7037 114.559 80.8759 115.236 83.4768L115.756 83.3105L115.882 83.7037L116.019 84.1285C116.014 84.138 116.522 83.3278 116.791 82.9968C116.945 82.806 117.108 82.6224 117.279 82.4466L118.144 77.6672C118.502 75.6874 117.785 73.747 116.516 72.2298C115.009 70.4304 112.651 69.234 110.388 68.7099C107.904 68.1346 104.915 68.2166 102.634 69.4437C100.904 70.3745 99.5791 71.9043 99.2237 73.8668L97.3432 84.2601L98.3135 89.5093V89.5094ZM80.3279 88.6156C76.2076 88.3603 72.0839 88.0474 67.9572 87.6431L67.9596 87.6375C68.6137 85.887 69.9063 84.4566 71.6181 83.6834C73.3079 82.9197 75.2042 82.8889 76.9192 83.5856C78.07 84.0538 79.0544 84.8143 79.8015 85.7735L80.328 88.6156H80.3279ZM103.746 87.1457C102.886 85.0058 102.917 82.6627 104.495 80.8571C105.165 80.091 106.041 79.5203 107.003 79.1909C107.961 78.8631 109.004 78.7779 109.999 78.9781C112.431 79.4667 113.864 81.4339 114.452 83.7275L103.746 87.1457V87.1457Z" fill="#FBEC00"/>
<path fill-rule="evenodd" clip-rule="evenodd" d="M74.3813 78.2554L74.5114 80.1635C75.6401 80.8302 76.611 81.7957 77.3724 82.8684C78.17 83.2128 78.8919 83.6834 79.5201 84.2547L79.375 83.4705L85.9451 82.3167L85.6802 80.8839L86.0972 80.8106L86.9957 80.653L83.3009 75.0193L74.3813 78.2554V78.2554ZM87.8658 81.9794L86.7789 82.1701L86.667 81.5656L87.4993 81.4198L87.8658 81.9794L87.8658 81.9794ZM74.5823 81.2007C75.0804 81.5498 75.5391 81.9621 75.9481 82.4113C75.5194 82.3191 75.0859 82.2647 74.6532 82.2482L74.5823 81.2007Z" fill="#62BA46"/>
<path fill-rule="evenodd" clip-rule="evenodd" d="M100.49 114.583C97.7129 114.553 94.9378 114.572 92.1635 114.637C92.2337 114.824 92.2951 115.014 92.3487 115.206C92.8374 116.959 92.6222 118.832 91.7474 120.428L91.7072 120.502C90.7961 122.119 89.2923 123.296 87.5048 123.795C87.3031 123.851 87.0989 123.899 86.8924 123.936C86.2627 125.169 85.2499 126.185 84.0614 126.7C84.0622 126.716 84.0622 126.731 84.063 126.747L84.0638 126.772C84.1111 127.838 84.4579 128.866 84.9899 129.783C85.0805 129.939 85.1751 130.091 85.276 130.24C86.5236 132.089 88.4861 133.409 90.5952 134.08L92.0753 134.552C94.8843 135.445 98.3285 135.25 100.678 133.336C101.004 133.071 101.303 132.774 101.568 132.447C101.581 132.437 102.278 131.312 102.312 131.234L102.815 129.76L105.229 122.18L100.632 122.288L100.49 114.583H100.49ZM84.0984 125.864C84.178 125.208 84.4018 124.601 84.6012 123.976C85.0724 124.047 85.5509 124.07 86.0285 124.041C85.5367 124.832 84.8645 125.498 84.0921 125.912V125.911C84.0944 125.896 84.0968 125.88 84.0984 125.864Z" fill="#00BBE7"/>
<path fill-rule="evenodd" clip-rule="evenodd" d="M117.333 115.394C119.585 115.521 121.837 115.665 124.091 115.829C124.286 116.065 124.464 116.316 124.623 116.576L121.936 120.08L121.619 120.492L125.251 122.083C125.064 122.642 124.802 123.173 124.475 123.663C124.467 123.675 124.459 123.687 124.451 123.698C123.468 125.142 121.967 126.129 120.25 126.455C118.133 126.859 115.987 126.195 114.459 124.729C113.67 123.981 113.113 123.081 112.777 122.037L115.036 121.986L114.91 115.198L116.085 115.29L117.333 115.394L117.333 115.394Z" fill="#00BBE7"/>
<path fill-rule="evenodd" clip-rule="evenodd" d="M72.3181 115.88L76.0011 125.463L78.4609 124.594C77.7705 123.014 78.1764 121.036 79.0449 119.364C78.9976 119.227 78.9551 119.09 78.9156 118.951C78.5838 117.76 78.5735 116.495 78.888 115.302C76.7079 115.471 74.5201 115.658 72.318 115.88L72.3181 115.88ZM103.853 129.189L114.648 130.327L113.689 125.111C112.865 124.253 112.26 123.207 111.928 122.053L109.53 122.1L109.553 123.304L105.81 123.374L105.805 123.058L103.853 129.189L103.853 129.189ZM79.1158 124.364C78.5515 123.127 78.8069 121.583 79.4058 120.221C80.0285 121.457 80.9994 122.471 82.2077 123.153C82.2423 123.173 82.277 123.192 82.3117 123.211H82.3109L82.307 123.212L82.2936 123.218H82.2928L82.2881 123.221L82.2833 123.223L82.2786 123.226L82.2755 123.227L82.2739 123.228L82.2692 123.23L82.2644 123.233L82.2597 123.235L82.2581 123.236L82.255 123.238L82.2503 123.239L82.2487 123.239L82.2439 123.241H82.2431L82.2392 123.243L82.2345 123.245L82.2298 123.247L82.2258 123.249H82.225L82.2203 123.25L82.2156 123.253L82.2108 123.254L82.2077 123.256L82.2061 123.257L82.2044 123.259L82.1997 123.26L82.1958 123.262L82.1942 123.263L82.1918 123.263L82.1871 123.265L82.1832 123.267L82.1793 123.268H82.1785L82.1754 123.27L82.1715 123.271L82.1676 123.273L82.1636 123.275L82.1597 123.276L82.1558 123.278L82.1519 123.279L82.1488 123.281L82.1472 123.282L82.1386 123.286L82.1347 123.287L82.1331 123.288L82.1307 123.289L82.1268 123.291L82.1229 123.292L82.119 123.294H82.1182L82.1151 123.295L82.1112 123.297L82.1073 123.298L82.1034 123.3L82.0994 123.302L82.0955 123.303L82.0916 123.305L82.0885 123.306L82.0877 123.307L82.0838 123.309L82.0799 123.31L82.076 123.312L82.0716 123.318L82.07 123.318L82.0661 123.32L82.0622 123.322L82.0583 123.323H82.0575L82.0544 123.325L82.0505 123.326L82.0473 123.328L82.0434 123.33L79.1162 124.364L79.1158 124.364ZM106.378 122.165L108.919 122.11L108.931 122.725L106.39 122.78L106.378 122.165Z" fill="#EE363D"/>
<path fill-rule="evenodd" clip-rule="evenodd" d="M79.811 85.8208C79.063 84.8616 78.0707 84.0538 76.92 83.5856C75.205 82.8881 73.3095 82.9188 71.6189 83.6834C69.9086 84.4566 68.616 85.8847 67.9618 87.6335C72.087 88.0379 76.2082 88.3508 80.3271 88.6061L79.811 85.8208L79.5162 84.2287L79.3759 83.4706L85.9459 82.3167L85.6803 80.8839L86.0973 80.8106L86.9958 80.653L83.301 75.0193L74.3807 78.2555L74.5108 80.1636C75.6395 80.8304 76.6104 81.7958 77.3718 82.8685C78.1694 83.2129 78.8866 83.6575 79.5148 84.2289L79.811 85.8209L79.811 85.8208ZM55.4864 118.049C55.0104 118.07 54.7866 117.441 55.4076 117.221C83.6587 111.508 116.36 112.033 144.631 117.329C145.16 117.537 145.02 118.051 144.573 118.049C141.643 117.606 138.713 117.226 135.785 116.898V116.899L135.593 117.142L133.975 119.188C134.419 119.677 134.724 120.301 134.651 120.978C134.616 121.303 134.494 121.609 134.296 121.868C134.1 122.127 133.838 122.326 133.542 122.458C132.869 122.757 132.109 122.677 131.453 122.379L130.031 124.178L129.744 124.052L125.999 122.411C125.788 123.024 125.494 123.611 125.123 124.157L125.034 124.284C125.296 126.242 124.983 128.402 123.467 129.804C122.909 130.319 122.234 130.677 121.492 130.843C120.753 131.008 119.985 130.974 119.259 130.759C117.223 130.156 115.925 128.344 115.318 126.392C115.165 126.302 115.015 126.209 114.869 126.109C114.804 126.065 114.739 126.02 114.676 125.973L115.647 131.253L115.105 131.196L110.449 130.705C110.334 132.921 109.644 135.662 107.656 136.929C107.003 137.346 106.246 137.56 105.471 137.49C104.687 137.419 103.979 137.073 103.399 136.548C102.521 135.753 102.008 134.655 101.74 133.475C100.962 134.258 99.9899 134.857 98.9251 135.258C97.4261 135.823 95.7843 135.99 94.1954 135.826C94.167 135.942 94.1418 136.06 94.1174 136.178C93.9897 136.795 93.8826 137.274 93.2253 137.508C93.1299 137.541 93.0346 137.572 92.9384 137.601C91.9225 137.91 90.8002 137.97 89.7992 137.575C88.799 137.181 88.0999 136.407 87.7414 135.396C87.7185 135.332 87.6964 135.267 87.6767 135.202C87.5451 134.763 87.6515 134.484 87.8296 134.09C87.8738 133.992 87.9171 133.895 87.9534 133.793C86.634 133.019 85.4565 131.969 84.599 130.698C83.8377 129.569 83.3474 128.285 83.2576 126.965C82.3268 127.174 81.325 127.074 80.3367 126.547C79.703 126.209 79.2238 125.79 78.8747 125.315L75.5251 126.498L75.2215 125.706C72.5962 126.994 69.6927 127.053 67.3243 125.173C66.302 124.362 65.5155 123.273 65.0244 122.068C64.5319 120.857 64.3355 119.522 64.4971 118.222C64.561 117.711 64.6784 117.208 64.8518 116.724C61.7284 117.116 58.6066 117.559 55.4864 118.049L55.4864 118.049ZM69.9741 96.5649H60.1515C60.0143 96.5673 59.8922 96.6083 59.7944 96.7091C59.6951 96.8053 59.6541 96.9283 59.6518 97.0638V106.547C59.6542 106.684 59.6951 106.806 59.796 106.904C59.893 107.003 60.0151 107.044 60.1507 107.046H62.3236C62.3385 107.046 62.3512 107.046 62.3622 107.046H69.9725C70.1097 107.043 70.2318 107.003 70.3296 106.902C70.4289 106.805 70.4699 106.684 70.473 106.547C70.473 106.161 70.473 105.775 70.473 105.389C70.4699 105.253 70.4289 105.13 70.3288 105.032C70.2326 104.933 70.1105 104.892 69.9741 104.889H62.8249V102.897H68.5705C68.7068 102.894 68.8297 102.853 68.9267 102.753C69.026 102.656 69.067 102.533 69.0693 102.398C69.0693 102.011 69.0693 101.625 69.0693 101.239C69.0662 101.102 69.026 100.98 68.9251 100.882C68.8289 100.783 68.7068 100.742 68.5705 100.74H62.8241V98.7228H69.9725C70.1097 98.7204 70.231 98.6794 70.3288 98.5786C70.4281 98.4816 70.4691 98.3602 70.4722 98.2239C70.4722 97.8369 70.4722 97.4507 70.4722 97.0653C70.4691 96.9282 70.4281 96.8061 70.328 96.7083C70.2319 96.6089 70.1106 96.568 69.9741 96.5649L69.9741 96.5649ZM75.5589 103.233H77.575C79.3318 103.204 81.8547 103.288 82.6482 101.329C83.0061 100.444 82.9871 99.1823 82.5781 98.3185C81.8742 96.8439 80.1033 96.5586 78.635 96.5649H72.8855C72.7484 96.568 72.6263 96.6083 72.5285 96.7091C72.4292 96.8061 72.3882 96.9275 72.3858 97.0638V106.547C72.389 106.685 72.4292 106.807 72.5301 106.905C72.627 107.004 72.7484 107.045 72.8847 107.047H75.0592C75.1963 107.045 75.3177 107.004 75.4155 106.905C75.5132 106.807 75.5565 106.685 75.5589 106.549V103.233V103.233ZM78.3363 101.218H75.5597V98.5802H78.3371C78.7091 98.5841 79.0733 98.6748 79.3452 98.9419C79.8441 99.4258 79.8433 100.372 79.3452 100.857C79.0709 101.121 78.7083 101.215 78.3363 101.218V101.218ZM183.44 97.3412C183.5 97.2097 183.557 97.056 183.564 96.9077C183.571 96.8171 183.556 96.7249 183.492 96.6579C183.418 96.5807 183.292 96.5649 183.192 96.5649L181.355 96.5649C181.173 96.5649 181 96.602 180.832 96.6706C180.662 96.7423 180.509 96.8432 180.375 96.9709C180.237 97.1002 180.128 97.2546 180.048 97.4264L179.109 99.4235C178.905 99.8547 178.605 100.198 178.195 100.439C177.746 100.707 177.218 100.796 176.703 100.799L176.601 100.8V97.0655C176.598 96.9283 176.557 96.8062 176.457 96.7084C176.36 96.6091 176.238 96.5681 176.102 96.5658H173.928C173.79 96.5689 173.668 96.6091 173.57 96.71C173.471 96.807 173.43 96.9283 173.428 97.0647V106.548C173.431 106.685 173.471 106.808 173.572 106.905C173.669 107.005 173.79 107.046 173.927 107.048H176.102C176.239 107.046 176.361 107.005 176.459 106.905C176.558 106.808 176.599 106.685 176.602 106.55V102.815H176.703C177.013 102.815 177.318 102.863 177.613 102.96C177.914 103.062 178.191 103.213 178.441 103.408C178.707 103.616 178.926 103.875 179.104 104.16L180.342 106.177C180.445 106.344 180.569 106.493 180.713 106.625C180.854 106.754 181.015 106.858 181.19 106.933C181.371 107.009 181.558 107.046 181.754 107.048L183.589 107.048C183.697 107.046 183.829 107.028 183.912 106.951C183.983 106.886 184.004 106.799 183.999 106.704C183.992 106.556 183.921 106.406 183.845 106.283L182.187 103.607C181.932 103.195 181.625 102.796 181.252 102.482C180.933 102.21 180.571 102.009 180.168 101.894L179.785 101.784L180.175 101.699C180.458 101.637 180.722 101.526 180.968 101.372C181.228 101.207 181.461 101.008 181.665 100.778C181.873 100.541 182.046 100.28 182.183 99.9957L183.44 97.3413L183.44 97.3412ZM165.639 96.3655C164.568 96.3655 163.454 96.5145 162.476 96.9716C161.635 97.3688 160.977 97.9631 160.524 98.7765C160.017 99.6922 159.851 100.762 159.849 101.797C159.852 102.831 160.017 103.905 160.524 104.82C160.977 105.636 161.634 106.235 162.476 106.635C163.455 107.096 164.567 107.248 165.639 107.248C166.71 107.248 167.823 107.096 168.8 106.635C169.642 106.235 170.3 105.636 170.752 104.82C171.26 103.905 171.426 102.831 171.429 101.797C171.426 100.762 171.26 99.6914 170.752 98.7765C170.3 97.9631 169.642 97.3681 168.801 96.9716C167.823 96.5145 166.709 96.3655 165.639 96.3655V96.3655ZM165.639 105.232C165.133 105.235 164.616 105.147 164.178 104.877C163.75 104.614 163.477 104.207 163.305 103.742C163.077 103.145 163.022 102.431 163.022 101.797C163.022 101.161 163.077 100.452 163.305 99.8545C163.478 99.3919 163.752 98.9916 164.179 98.7323C164.617 98.4667 165.133 98.3784 165.639 98.3816C166.145 98.3785 166.661 98.4667 167.099 98.7323C167.526 98.9916 167.8 99.3919 167.972 99.8545C168.2 100.452 168.255 101.163 168.255 101.797C168.255 102.432 168.201 103.145 167.973 103.742C167.8 104.207 167.528 104.614 167.1 104.877C166.662 105.147 166.145 105.235 165.639 105.232V105.232ZM151.22 107.047C151.402 107.044 151.565 106.992 151.708 106.879C151.86 106.759 151.97 106.604 152.047 106.43L154.736 99.9538V106.548C154.739 106.685 154.783 106.807 154.88 106.905C154.977 107.005 155.098 107.046 155.234 107.048L157.349 107.048C157.485 107.046 157.608 107.005 157.705 106.905C157.804 106.808 157.846 106.685 157.849 106.55V97.0646C157.846 96.9275 157.804 96.8061 157.704 96.7083C157.607 96.6091 157.485 96.568 157.35 96.5657H153.997C153.821 96.5688 153.671 96.6264 153.541 96.7439C153.393 96.8747 153.286 97.0426 153.21 97.2231L150.741 103.261L148.272 97.2231C148.196 97.0426 148.089 96.8747 147.942 96.7439C147.81 96.6272 147.66 96.5689 147.485 96.5657H144.132C143.995 96.5688 143.873 96.6091 143.775 96.7099C143.676 96.8069 143.635 96.9283 143.633 97.0646V106.548C143.635 106.685 143.676 106.808 143.776 106.905C143.873 107.004 143.995 107.045 144.131 107.047H146.246C146.383 107.045 146.506 107.004 146.603 106.904C146.703 106.807 146.744 106.685 146.746 106.549V99.9539L149.435 106.429C149.513 106.605 149.623 106.76 149.775 106.88C149.917 106.993 150.081 107.046 150.262 107.048H151.22V107.047H151.22ZM124.956 98.5203C125.412 98.5234 125.882 98.5913 126.299 98.7859C126.638 98.9435 126.935 99.1681 127.138 99.4873C127.254 99.678 127.402 99.8506 127.587 99.9806C127.76 100.105 127.961 100.156 128.171 100.158H129.627C129.764 100.156 129.887 100.115 129.984 100.014C130.083 99.9176 130.124 99.7954 130.126 99.6599C130.123 98.9759 129.936 98.3525 129.485 97.8323C129.003 97.2806 128.333 96.944 127.641 96.7344C126.708 96.4514 125.687 96.3663 124.716 96.3663C123.665 96.3663 122.578 96.5177 121.624 96.9787C120.789 97.3814 120.145 97.982 119.698 98.7938C119.195 99.7104 119.028 100.783 119.025 101.817C119.028 102.848 119.192 103.914 119.698 104.827C120.147 105.64 120.804 106.239 121.643 106.635C122.622 107.097 123.741 107.248 124.815 107.248C125.786 107.248 126.808 107.163 127.741 106.88C128.432 106.667 129.102 106.33 129.585 105.778C130.037 105.261 130.223 104.636 130.226 103.955C130.223 103.818 130.182 103.696 130.082 103.599C129.985 103.5 129.864 103.459 129.728 103.456L128.271 103.456C128.06 103.459 127.858 103.509 127.685 103.634C127.501 103.763 127.354 103.936 127.236 104.127C127.034 104.445 126.736 104.67 126.398 104.827C125.982 105.022 125.512 105.089 125.055 105.092C124.51 105.092 123.905 105.022 123.426 104.743C122.995 104.497 122.715 104.117 122.55 103.652C122.344 103.082 122.295 102.418 122.298 101.818C122.295 101.211 122.344 100.547 122.543 99.9703C122.705 99.5093 122.976 99.1263 123.398 98.8725C123.856 98.5935 124.43 98.5179 124.956 98.5203V98.5203ZM105.137 103.233V106.548C105.14 106.685 105.184 106.807 105.282 106.905C105.378 107.004 105.5 107.045 105.636 107.047H107.811C107.948 107.045 108.07 107.004 108.168 106.904C108.267 106.807 108.308 106.685 108.31 106.549V97.0646C108.308 96.9275 108.267 96.8061 108.167 96.7084C108.07 96.6091 107.949 96.568 107.812 96.5657H102.061C101.476 96.5633 100.888 96.6114 100.315 96.7368C99.8379 96.8448 99.3808 97.0213 98.9764 97.3003C98.5973 97.5612 98.3167 97.9048 98.1181 98.3193C97.8864 98.808 97.8107 99.3644 97.8083 99.9003C97.8083 100.38 97.8667 100.883 98.0471 101.33C98.1985 101.704 98.4183 102.033 98.725 102.296C99.0473 102.57 99.4233 102.774 99.8197 102.921L99.9332 102.963L97.914 106.342C97.847 106.455 97.7918 106.584 97.7918 106.716C97.7918 106.811 97.8178 106.89 97.8849 106.954C97.9669 107.026 98.0827 107.046 98.1875 107.048H99.9434C100.252 107.045 100.558 106.984 100.823 106.821C101.056 106.675 101.242 106.481 101.375 106.241L103.061 103.234H105.137V103.233H105.137ZM102.36 101.218C101.989 101.215 101.625 101.121 101.352 100.857C101.088 100.6 100.985 100.262 100.982 99.8995C100.985 99.5377 101.088 99.199 101.352 98.9428C101.624 98.6748 101.988 98.5841 102.361 98.581H105.137V101.219H102.36V101.218H102.36ZM87.8225 103.869V97.0646C87.8201 96.9275 87.7792 96.8061 87.6783 96.7084C87.5813 96.6091 87.4591 96.568 87.3236 96.5657H85.2894C85.1522 96.5688 85.0301 96.6091 84.9323 96.71C84.833 96.8069 84.792 96.9283 84.7897 97.0646V106.548C84.7921 106.685 84.833 106.808 84.9331 106.905C85.0301 107.005 85.1514 107.046 85.2878 107.048H88.0219C88.1527 107.045 88.2757 107.014 88.3947 106.96C88.5279 106.9 88.6525 106.822 88.762 106.724C88.8692 106.629 88.9615 106.521 89.0339 106.4L92.6571 99.7646V106.547C92.6602 106.685 92.7035 106.807 92.8013 106.905C92.8983 107.004 93.0196 107.045 93.1559 107.047L95.1909 107.047C95.328 107.045 95.4502 107.004 95.5479 106.904C95.6472 106.807 95.6883 106.685 95.6906 106.549V97.0647C95.6882 96.9275 95.6472 96.8062 95.5472 96.7084C95.4502 96.6091 95.328 96.5681 95.1925 96.5658H92.4568C92.3291 96.5658 92.2006 96.6004 92.084 96.6509C91.95 96.7084 91.8287 96.788 91.7175 96.8802C91.6087 96.9772 91.5189 97.0875 91.4464 97.2128L87.8225 103.869L87.8225 103.869ZM57.3047 97.0654C57.3016 96.9291 57.2613 96.8061 57.1604 96.7084C57.0643 96.6091 56.9421 96.568 56.8058 96.5657H46.9832C46.846 96.5688 46.7239 96.6091 46.6261 96.71C46.5268 96.8069 46.4858 96.9283 46.4835 97.0646V106.548C46.4859 106.685 46.5268 106.808 46.6269 106.905C46.7239 107.005 46.8452 107.046 46.9816 107.048H49.1568C49.294 107.046 49.4153 107.005 49.5131 106.905C49.6124 106.808 49.6534 106.685 49.6557 106.55V98.7213L54.1308 98.7212V106.549C54.1332 106.686 54.1765 106.808 54.275 106.906C54.3712 107.005 54.4925 107.046 54.6289 107.049H56.8042C56.9406 107.046 57.0635 107.005 57.1605 106.905C57.2598 106.808 57.3008 106.686 57.3039 106.551V97.0654H57.3047L57.3047 97.0654ZM37.2558 107.047C37.4371 107.044 37.601 106.992 37.7436 106.879C37.8957 106.76 38.0053 106.604 38.0825 106.43L40.7717 99.9538V106.548C40.7741 106.685 40.8174 106.807 40.9151 106.905C41.0121 107.005 41.1335 107.046 41.2698 107.048L43.3844 107.048C43.5216 107.046 43.6437 107.005 43.7415 106.905C43.8408 106.808 43.8818 106.685 43.8841 106.55V97.0646C43.8817 96.9275 43.8408 96.8061 43.7407 96.7084C43.6437 96.6091 43.5216 96.568 43.386 96.5657H40.0325C39.8567 96.5688 39.707 96.6265 39.5762 96.7439C39.4288 96.8747 39.3224 97.0426 39.2467 97.2231L36.7767 103.261L34.3082 97.2231C34.2317 97.0426 34.1253 96.8747 33.978 96.7439C33.8464 96.6273 33.6966 96.5689 33.5216 96.5657H30.1688C30.0317 96.5688 29.9096 96.6091 29.8118 96.71C29.7125 96.8069 29.6715 96.9283 29.6692 97.0646V106.548C29.6716 106.685 29.7125 106.808 29.8134 106.905C29.9104 107.005 30.0317 107.046 30.168 107.048H32.2834C32.4205 107.046 32.5419 107.005 32.6397 106.905C32.7389 106.808 32.78 106.685 32.7823 106.55V99.9547L35.4715 106.43C35.5495 106.606 35.6591 106.761 35.8112 106.881C35.9538 106.994 36.1177 107.046 36.2982 107.049H37.2558V107.047H37.2558ZM19.0339 103.811V97.0071C19.0315 96.87 18.9905 96.7478 18.8896 96.6509C18.7927 96.5508 18.6713 96.5106 18.535 96.5082L16.4999 96.5082C16.3628 96.5106 16.2406 96.5515 16.1429 96.6524C16.0436 96.7486 16.0026 96.8699 16.0002 97.0063V106.49C16.0026 106.626 16.0436 106.749 16.1437 106.846C16.2406 106.946 16.362 106.987 16.4983 106.99H19.2317C19.3625 106.986 19.4854 106.956 19.6045 106.902C19.7377 106.841 19.8622 106.763 19.9718 106.666C20.079 106.57 20.1704 106.463 20.2437 106.343L23.8676 99.7071V106.49C23.87 106.627 23.9141 106.749 24.0118 106.847C24.108 106.946 24.2302 106.987 24.3657 106.99L26.4006 106.99C26.5378 106.987 26.6599 106.946 26.7577 106.845C26.857 106.748 26.898 106.626 26.9003 106.491V97.0071C26.8979 96.87 26.857 96.7486 26.7569 96.6509C26.6599 96.5516 26.5386 96.5106 26.4022 96.5082L23.6674 96.5082C23.5397 96.5082 23.4112 96.5428 23.2946 96.5933C23.1606 96.6508 23.0392 96.7304 22.9289 96.8234C22.8201 96.9204 22.7294 97.0307 22.657 97.156L19.0338 103.811L19.0339 103.811ZM137.008 103.728C136.879 104.027 136.712 104.319 136.488 104.559C135.866 105.22 134.616 105.118 133.801 104.978C133.548 104.93 133.29 104.937 133.035 104.937C132.898 104.939 132.777 104.98 132.679 105.08C132.58 105.177 132.539 105.298 132.536 105.435V106.511C132.54 106.638 132.585 106.742 132.678 106.83C132.782 106.93 132.913 106.987 133.053 107.013C133.303 107.059 133.556 107.092 133.809 107.118C135.018 107.229 136.97 107.377 138.05 106.765C138.636 106.433 139.08 105.919 139.418 105.344C139.877 104.569 140.193 103.656 140.436 102.793L142.017 96.9906C142.045 96.8739 142.032 96.7691 141.956 96.6738C141.879 96.5768 141.774 96.5406 141.655 96.535L139.601 96.5349C139.432 96.538 139.288 96.5964 139.156 96.6996C139.017 96.8116 138.927 96.9503 138.877 97.1205L137.915 100.649L137.63 101.668L137.549 101.662C137.309 101.648 136.484 101.609 136.32 101.496C135.794 101.256 135.368 100.498 135.132 99.9916C134.859 99.4257 134.586 98.681 134.399 98.0796L134.105 97.126C134.066 97.0125 134.007 96.9116 133.927 96.8225C133.844 96.7335 133.748 96.6641 133.637 96.6121C133.538 96.5641 133.432 96.5349 133.321 96.5349H131.288C131.163 96.5405 131.057 96.5775 130.976 96.6753C130.899 96.769 130.89 96.8715 130.921 96.985L131.396 98.5188C131.666 99.3865 132.092 100.53 132.534 101.32C132.811 101.818 133.156 102.311 133.584 102.691C133.939 103.003 134.344 103.252 134.801 103.394C135.203 103.551 136.446 103.592 136.916 103.586L137.071 103.585L137.008 103.728L137.008 103.728ZM66.418 87.4776C65.8158 85.653 65.7078 83.6118 66.6576 81.8818C67.1037 81.0692 67.7515 80.3985 68.5531 79.9327C69.3554 79.4676 70.2626 79.2351 71.1887 79.228C72.0628 79.2209 72.8911 79.4062 73.6596 79.7316L73.5193 77.6706L73.8109 77.5642L76.7333 76.5041C76.5875 75.7278 76.6537 74.8852 77.1479 74.239C77.3748 73.9419 77.6736 73.7156 78.022 73.5817C78.3663 73.4493 78.7392 73.4154 79.1033 73.4714C79.9656 73.6038 80.6537 74.1965 81.102 74.9192L83.6225 74.005L83.8014 74.2769L84.1829 74.8586L83.3521 70.1738L88.985 70.8272C89.1127 68.291 89.7361 64.4802 91.7735 62.7471C92.3504 62.2561 93.0558 61.9385 93.8266 62.0102C94.6029 62.0827 95.2453 62.532 95.73 63.1215C97.467 65.233 97.4528 69.195 97.1637 71.777L97.5649 71.8235L98.9804 71.9874C98.9756 71.9968 100.863 69.4432 102.249 68.6984C103.699 67.9182 105.401 67.5863 107.043 67.5761C107.596 65.5458 109.086 64.2241 111.296 64.8633C113.475 65.6042 113.608 66.9432 113.363 68.9049C114.8 69.5535 116.121 70.4717 117.135 71.6831C118.561 73.3886 119.345 75.5687 118.956 77.792L118.949 77.8267L118.27 81.5838C119.009 81.0408 119.853 80.6183 120.786 80.3551C121.027 80.2873 121.269 80.2313 121.514 80.1872C123.331 77.9449 126.152 76.0669 129.015 77.6676C132.288 79.4976 131.909 83.6433 130.795 86.669C130.881 87.0772 130.937 87.4918 130.963 87.908C135.482 87.4075 139.996 86.7983 144.515 86.0889C144.991 86.0676 145.215 86.6966 144.594 86.9172C116.343 92.6297 83.6415 92.1048 55.3699 86.8084C54.8403 86.6011 54.9805 86.0865 55.4274 86.0888C59.0921 86.6429 62.7562 87.0976 66.418 87.4775L66.418 87.4776ZM130.145 87.9978C130.107 87.3278 129.983 86.6768 129.779 86.0376C129.225 84.2998 128.107 82.7171 126.512 81.7966C124.848 80.8366 122.843 80.6491 121.005 81.1684C117.507 82.1552 115.397 85.638 115.775 89.165C120.582 88.905 125.368 88.5124 130.145 87.9978ZM114.955 89.2068C114.813 87.8236 115.015 86.4515 115.505 85.2054L115.233 84.3597L103.264 88.1807L103.634 89.5268C107.425 89.5063 111.197 89.3975 114.955 89.2068H114.955ZM102.785 89.5307L102.261 87.6202L102.962 87.3964C102.003 84.9626 102.102 82.3302 103.884 80.2928C104.648 79.4195 105.644 78.767 106.74 78.3917C107.832 78.0173 109.021 77.9244 110.155 78.1521C112.901 78.7046 114.559 80.8768 115.236 83.4776L115.756 83.3113L115.882 83.7046L116.019 84.1294C116.366 83.5178 116.788 82.9511 117.279 82.4467L118.143 77.6673C118.501 75.6875 117.785 73.7471 116.515 72.2299C115.009 70.4305 112.65 69.2341 110.387 68.71C107.904 68.1347 104.914 68.2167 102.633 69.4438C100.903 70.3746 99.5784 71.9043 99.223 73.8669L97.3425 84.2602L98.3119 89.4982C99.8063 89.5235 101.298 89.5338 102.786 89.5306L102.785 89.5307ZM97.4482 89.485C92.5648 89.3897 87.642 89.1462 82.6672 88.745C82.177 88.7173 81.6875 88.6882 81.1973 88.659L80.3634 84.154L95.9546 81.4144L97.4482 89.485V89.485ZM87.8808 80.4969L85.3248 76.5996L84.3569 71.1386L98.65 72.796L98.6484 72.7999C98.5514 73.0939 98.4726 73.3965 98.4167 73.7094L96.9208 81.9802L96.7119 80.8516L96.6339 80.4378L90.2901 81.553L90.1016 80.5332L90.0252 80.1202L87.8808 80.4969H87.8808ZM89.8023 70.9226L96.3502 71.6815C96.6127 69.3494 96.6757 65.571 95.1058 63.6614C94.7645 63.2468 94.3081 62.9639 93.758 62.9135C93.2118 62.8623 92.7074 63.0522 92.3007 63.3974C90.4534 64.9705 89.9119 68.6298 89.8024 70.9226H89.8023ZM88.3844 81.2646L88.7517 81.8243L89.4571 81.7005L89.3444 81.096L88.3844 81.2647L88.3844 81.2646ZM87.8659 81.9795L86.779 82.171L86.6671 81.5665L87.4994 81.4207L87.8659 81.9795L87.8659 81.9795ZM73.8321 82.2616C72.9596 82.3246 72.099 82.5422 71.2848 82.9111C69.3909 83.7662 67.9549 85.3417 67.2164 87.2719C66.6726 85.6632 66.5308 83.8308 67.3725 82.2987C67.7461 81.6185 68.2883 81.0573 68.9599 80.6672C69.64 80.2716 70.4116 80.0761 71.1974 80.0698C72.0967 80.0627 72.9471 80.2936 73.725 80.6853L73.8321 82.2616L73.8321 82.2616ZM74.5824 81.2008C75.0805 81.5499 75.5392 81.9622 75.9483 82.4114C75.5195 82.3191 75.086 82.2648 74.6533 82.2483L74.5824 81.2008V81.2008ZM80.3043 75.2101L77.5175 76.2213C77.4442 75.7247 77.4836 75.1714 77.7957 74.7616C77.9305 74.5858 78.107 74.451 78.3136 74.3714C78.528 74.2894 78.7597 74.2714 78.9866 74.306C79.5368 74.3904 79.9892 74.7655 80.3044 75.2101H80.3043ZM112.563 68.5889C112.596 68.0923 112.734 67.6258 112.612 67.1387C112.418 66.3585 111.788 65.8304 110.993 65.6003C109.298 65.11 108.345 66.1464 107.889 67.5896C109.387 67.6013 111.104 67.9489 112.563 68.5889L112.563 68.5889ZM130.348 85.2038C130.955 82.807 131.3 80.1226 128.648 78.4359C126.286 77.2198 124.264 78.4935 122.75 80.0642C124.132 80.0406 125.788 80.3929 126.904 81.17C128.474 82.1513 129.657 83.499 130.348 85.2037L130.348 85.2038ZM103.746 87.1458L114.452 83.7276C113.864 81.4341 112.43 79.4669 109.999 78.9783C109.004 78.7781 107.961 78.8632 107.003 79.191C106.042 79.5197 105.165 80.0903 104.495 80.8572C102.917 82.6636 102.886 85.0059 103.746 87.1458H103.746ZM134.853 116.795C131.936 116.478 129.02 116.212 126.107 115.982L125.597 116.647L125.039 117.374L122.901 120.164L125.462 121.286L126.225 121.62L129.783 123.179L134.764 116.879L134.691 116.778L134.699 116.779L134.708 116.78L134.716 116.781L134.725 116.782L134.734 116.782L134.742 116.783L134.742 116.783L134.751 116.784L134.76 116.785L134.768 116.786L134.777 116.786L134.777 116.786L134.786 116.787L134.794 116.788L134.803 116.789L134.812 116.789H134.812L134.82 116.79L134.829 116.791H134.829L134.838 116.792L134.846 116.793L134.847 116.793L134.853 116.795L134.853 116.795ZM124.091 115.83C121.838 115.665 119.585 115.521 117.333 115.394C116.525 115.324 115.717 115.259 114.91 115.198L115.036 121.987L114.701 121.996L112.778 122.036H112.776L112.785 122.062C113.116 123.089 113.675 123.969 114.445 124.716V124.717C114.512 124.781 114.581 124.845 114.65 124.907C114.863 125.096 115.088 125.272 115.326 125.435C116.769 126.416 118.535 126.782 120.249 126.455C121.965 126.129 123.467 125.142 124.45 123.698C124.793 123.194 125.061 122.65 125.25 122.083L121.618 120.492L121.935 120.08L124.623 116.576C124.464 116.316 124.286 116.066 124.092 115.829L124.091 115.83ZM114.892 115.197C114.785 115.19 114.679 115.181 114.571 115.173C114.679 115.181 114.786 115.19 114.892 115.197ZM114.568 115.173C114.22 115.148 113.872 115.123 113.524 115.099L113.507 115.097C110.939 114.921 108.373 114.79 105.807 114.703L105.633 114.697L105.778 114.702C104.242 114.65 102.706 114.613 101.171 114.592L101.293 121.589L105.442 121.511L112.6 121.379L113.001 121.372L114.173 121.35L114.073 115.686L114.064 115.138C114.2 115.147 114.337 115.157 114.473 115.168L114.568 115.173V115.173ZM101.17 114.592C98.1662 114.55 95.1641 114.566 92.1636 114.637C92.2338 114.824 92.2952 115.014 92.3489 115.206C92.8375 116.959 92.6224 118.832 91.7475 120.428L91.7073 120.502C90.7962 122.119 89.2925 123.296 87.505 123.795C87.3032 123.851 87.099 123.899 86.8926 123.936C86.2628 125.169 85.2501 126.185 84.0615 126.7C84.101 127.951 84.5573 129.174 85.2769 130.24C86.5245 132.089 88.487 133.409 90.5961 134.081L92.0763 134.552C94.1854 135.223 96.5506 135.281 98.6384 134.494C99.6756 134.102 100.621 133.503 101.346 132.705C101.423 132.621 101.497 132.535 101.569 132.446L102.312 131.234C102.391 131.056 102.461 130.874 102.521 130.684L102.688 130.159L102.771 129.895L105.228 122.18L100.632 122.288L100.561 118.463L100.488 114.583C100.58 114.583 100.67 114.585 100.762 114.586H100.765L100.769 114.586H100.775H100.776H100.781H100.786H100.788H100.794H100.797H100.8H100.807H100.807H100.813H100.818H100.819H100.825H100.829H100.832H100.838H100.839H100.844H100.85H100.851H100.857H100.86H100.863H100.87H100.87H100.876H100.881H100.882H100.889H100.892H100.895H100.901H100.903H100.907H100.913H100.914H100.92H100.923H100.926H100.933H100.934H100.939H100.945H100.945H100.952H100.955H100.958H100.964H100.966H100.971H100.976H100.977H100.983H100.987H100.99H100.997H100.998H101.003H101.009H101.009H101.016H101.019H101.022H101.028H101.03H101.034H101.04H101.041H101.047H101.051H101.053H101.06H101.061H101.066H101.072H101.072H101.079H101.083H101.085H101.091H101.093H101.098H101.104H101.11H101.114H101.117H101.123H101.125H101.129H101.136H101.142H101.146H101.148H101.154H101.157H101.161L101.17 114.592L101.17 114.592ZM91.2951 114.659C90.0388 114.694 88.7817 114.737 87.5261 114.791C87.2369 114.803 86.9477 114.816 86.6592 114.829C84.8637 114.911 83.0684 115.013 81.2737 115.133C81.4282 115.123 81.5819 115.112 81.7364 115.102C81.5803 115.112 81.4243 115.123 81.2674 115.133C80.6424 115.175 80.0182 115.218 79.394 115.264C79.5145 115.256 79.6352 115.246 79.7557 115.238C79.7502 115.255 79.7447 115.273 79.7391 115.29C79.7336 115.308 79.7289 115.326 79.7234 115.343C79.7178 115.361 79.7131 115.379 79.7084 115.397C79.7037 115.415 79.6982 115.432 79.6934 115.45C79.6887 115.469 79.684 115.486 79.6793 115.504C79.6745 115.522 79.6698 115.539 79.6651 115.558C79.6603 115.576 79.6564 115.593 79.6517 115.611C79.647 115.629 79.6431 115.647 79.6391 115.665C79.6352 115.683 79.6304 115.701 79.6264 115.718C79.6225 115.736 79.6185 115.755 79.6146 115.772C79.6107 115.79 79.6067 115.808 79.6028 115.826C79.5989 115.844 79.5956 115.863 79.5917 115.881C79.5886 115.899 79.5846 115.917 79.5815 115.935C79.5784 115.953 79.5751 115.971 79.5712 115.989C79.5681 116.008 79.5649 116.026 79.5618 116.044C79.5587 116.062 79.5555 116.08 79.5532 116.098C79.5501 116.116 79.5476 116.134 79.5445 116.153C79.5414 116.171 79.539 116.189 79.5366 116.207C79.5342 116.225 79.5319 116.243 79.5287 116.261C79.5263 116.28 79.5239 116.298 79.5215 116.316C79.5191 116.334 79.5168 116.352 79.5152 116.37C79.5128 116.388 79.5113 116.406 79.5089 116.425C79.5073 116.444 79.5049 116.462 79.5033 116.481C79.5017 116.499 79.5002 116.517 79.4986 116.536C79.497 116.554 79.4955 116.573 79.4938 116.591C79.4923 116.609 79.4907 116.628 79.4899 116.646C79.4883 116.664 79.4875 116.683 79.4868 116.701C79.486 116.719 79.4844 116.738 79.4837 116.756C79.4829 116.775 79.4821 116.794 79.4813 116.812C79.4805 116.83 79.4797 116.849 79.4789 116.867C79.4781 116.885 79.4781 116.904 79.4773 116.922C79.4765 116.94 79.4765 116.959 79.4765 116.977C79.4765 116.995 79.4757 117.014 79.4757 117.032C79.4757 117.051 79.4757 117.069 79.4757 117.088C79.4757 117.106 79.4757 117.125 79.4757 117.143C79.4757 117.161 79.4765 117.18 79.4765 117.198C79.4765 117.216 79.4773 117.235 79.4781 117.253C79.4789 117.271 79.4797 117.29 79.4797 117.308C79.4805 117.327 79.4813 117.345 79.4821 117.364C79.4829 117.382 79.4837 117.401 79.4852 117.419C79.486 117.437 79.4876 117.456 79.4883 117.474C79.4899 117.492 79.4907 117.511 79.4923 117.529C79.4939 117.547 79.4954 117.566 79.497 117.584C79.4986 117.602 79.5001 117.621 79.5017 117.64C79.5033 117.658 79.5048 117.676 79.5073 117.695C79.5089 117.713 79.5112 117.731 79.5128 117.75C79.5152 117.768 79.5167 117.786 79.5191 117.805C79.5215 117.823 79.5239 117.841 79.5263 117.86C79.5287 117.878 79.531 117.897 79.5334 117.915L79.5335 117.914C79.5359 117.933 79.5382 117.951 79.5414 117.97C79.5438 117.988 79.547 118.006 79.5501 118.025C79.5532 118.043 79.5556 118.061 79.5587 118.079C79.5618 118.097 79.565 118.115 79.5681 118.134C79.5712 118.152 79.5745 118.17 79.5776 118.188C79.5807 118.206 79.5847 118.224 79.5878 118.242C79.5909 118.261 79.5949 118.279 79.5988 118.297C79.6028 118.315 79.606 118.333 79.6099 118.351C79.6138 118.369 79.6178 118.387 79.6217 118.406C79.6256 118.424 79.6297 118.442 79.6344 118.46C79.6383 118.478 79.643 118.496 79.647 118.514C79.6517 118.532 79.6556 118.551 79.6604 118.569C79.6651 118.587 79.6698 118.605 79.6737 118.622C79.6785 118.64 79.6832 118.659 79.6879 118.676C79.6927 118.694 79.6974 118.712 79.7029 118.729C79.7462 118.886 79.7959 119.039 79.8511 119.191C80.3728 120.571 81.3186 121.711 82.6088 122.438C82.653 122.464 82.6971 122.487 82.742 122.511H82.7428C82.7649 122.523 82.787 122.534 82.809 122.546L82.8121 122.547C82.8334 122.558 82.8555 122.569 82.8768 122.58L82.8815 122.583C82.902 122.593 82.9225 122.603 82.9429 122.613L82.9524 122.617C82.9721 122.627 82.991 122.636 83.0107 122.645L83.0217 122.65C83.0406 122.658 83.0596 122.667 83.0785 122.676L83.0905 122.687C83.1086 122.694 83.1267 122.702 83.144 122.711L83.1606 122.718L83.1866 122.729C83.7667 122.98 84.3799 123.138 85.0025 123.202L85.0065 123.203C85.0301 123.205 85.0537 123.208 85.0774 123.21L85.0829 123.211C85.1058 123.213 85.1294 123.215 85.1523 123.216L85.1594 123.217C85.1815 123.219 85.2028 123.22 85.2249 123.222L85.2375 123.223C85.258 123.224 85.2777 123.225 85.2982 123.226L85.3156 123.226C85.3353 123.227 85.3542 123.228 85.3739 123.229L85.3905 123.23C85.4087 123.23 85.4267 123.231 85.4457 123.231L85.4678 123.232C85.4859 123.233 85.5048 123.233 85.523 123.234H85.545C85.5592 123.234 85.5742 123.234 85.5884 123.234H85.623C85.6341 123.234 85.6443 123.234 85.6553 123.234C85.6695 123.234 85.6838 123.234 85.6987 123.234C85.7097 123.234 85.7208 123.234 85.7326 123.234C85.7468 123.234 85.7602 123.233 85.7744 123.233L85.8059 123.232C85.8208 123.232 85.8366 123.231 85.8516 123.23L85.8792 123.23C85.8957 123.229 85.9123 123.228 85.9289 123.227L85.9549 123.226C85.9722 123.225 85.9888 123.224 86.0061 123.223L86.0289 123.221C86.0463 123.22 86.0636 123.219 86.0809 123.218L86.1046 123.216C86.122 123.215 86.1393 123.214 86.1558 123.212L86.1802 123.21C86.1976 123.208 86.2157 123.207 86.233 123.205L86.2535 123.203C86.2724 123.201 86.2913 123.199 86.3094 123.197L86.3276 123.195C86.3465 123.193 86.3662 123.19 86.3851 123.188L86.404 123.185C86.4229 123.183 86.4426 123.181 86.4615 123.178L86.4773 123.176C86.4969 123.173 86.5167 123.17 86.5372 123.167L86.5522 123.165C86.5727 123.162 86.5931 123.158 86.6136 123.155L86.6254 123.154C86.6467 123.151 86.6672 123.147 86.6885 123.144L86.7011 123.141C86.7224 123.137 86.7437 123.133 86.7649 123.129L86.7744 123.128C86.7956 123.124 86.8169 123.12 86.8382 123.115L86.85 123.113C86.8713 123.109 86.8926 123.104 86.9139 123.099L86.9225 123.098C86.9446 123.093 86.9675 123.088 86.9895 123.083L86.9934 123.082C87.0171 123.076 87.0407 123.071 87.0643 123.065L87.0667 123.065C87.0904 123.059 87.1132 123.054 87.1369 123.047L87.1393 123.046L87.1424 123.046C87.1905 123.034 87.2386 123.02 87.2866 123.007C88.8645 122.567 90.1902 121.528 90.9941 120.101C91.7964 118.681 91.9989 116.993 91.5615 115.422L91.5584 115.409L91.5553 115.397L91.5522 115.385L91.5491 115.374L91.546 115.362L91.5429 115.35L91.539 115.338L91.5351 115.326L91.532 115.314L91.5281 115.303L91.5242 115.291L91.5203 115.279L91.5164 115.267L91.5124 115.255L91.5085 115.243L91.5046 115.232L91.5007 115.22L91.4968 115.208L91.4929 115.196L91.489 115.184L91.4851 115.172L91.4812 115.161L91.4773 115.149L91.4734 115.137L91.4703 115.12L91.4664 115.109L91.4625 115.097L91.4586 115.085L91.4547 115.073L91.4508 115.061L91.4469 115.049L91.443 115.038L91.4391 115.026L91.4352 115.014L91.4313 115.002L91.4273 114.99L91.4234 114.978L91.4195 114.967L91.4156 114.955L91.4117 114.943L91.407 114.931L91.4031 114.919L91.3983 114.907L91.3936 114.896L91.3889 114.884L91.3841 114.872L91.3794 114.86L91.3747 114.848L91.3699 114.836L91.3652 114.824L91.3605 114.813L91.3557 114.801L91.351 114.789L91.3463 114.777L91.3415 114.765L91.3368 114.753L91.3321 114.742L91.3273 114.73L91.3226 114.718L91.3179 114.706L91.3131 114.694L91.3084 114.683L91.3 114.671L91.2953 114.659L91.2951 114.659ZM87.5238 114.791C87.3733 114.797 87.2235 114.803 87.073 114.81C87.2236 114.804 87.3741 114.797 87.5238 114.791ZM78.8874 115.302C76.426 115.488 73.9662 115.709 71.5071 115.962C71.7774 115.934 72.0471 115.907 72.3174 115.88L76.0004 125.463L78.4602 124.594C77.7698 123.014 78.1757 121.036 79.0442 119.363C78.9969 119.227 78.9544 119.09 78.9149 118.951C78.5839 117.76 78.5737 116.495 78.8873 115.302L78.8874 115.302ZM71.4787 115.965C69.5746 116.161 67.6712 116.376 65.7685 116.61L65.7765 116.609C65.5377 117.153 65.3808 117.728 65.3067 118.321C65.1625 119.483 65.339 120.677 65.7796 121.76C66.2178 122.835 66.9193 123.809 67.8311 124.532C69.963 126.224 72.5821 126.109 74.9276 124.94L71.4787 115.965ZM65.4297 116.652C65.2381 116.675 65.0474 116.699 64.8559 116.723C65.0474 116.699 65.2381 116.675 65.4297 116.652ZM79.1159 124.364L82.0431 123.33C82.1211 123.296 82.2125 123.255 82.3118 123.211C82.2772 123.192 82.2425 123.173 82.2078 123.153C80.9995 122.471 80.0278 121.456 79.4059 120.221C78.8077 121.583 78.5515 123.126 79.1159 124.364L79.1159 124.364ZM83.271 123.639C82.9637 123.813 82.6421 123.957 82.3591 124.082L82.3331 124.092L79.562 125.071C79.837 125.399 80.1948 125.692 80.6488 125.934C81.5355 126.406 82.4277 126.472 83.2481 126.25C83.2718 125.713 83.364 125.173 83.5342 124.639L83.799 123.806C83.6217 123.758 83.4452 123.702 83.271 123.639V123.639ZM84.6014 123.976L84.3121 124.885C84.2033 125.227 84.1317 125.569 84.093 125.913C84.8654 125.498 85.5369 124.833 86.0295 124.042C85.5519 124.069 85.0727 124.046 84.6014 123.976H84.6014ZM105.805 123.058L103.853 129.19L114.648 130.328L113.689 125.112C112.865 124.254 112.26 123.207 111.928 122.054L109.531 122.101L109.553 123.305L109.145 123.313L105.811 123.374L105.805 123.058L105.805 123.058ZM103.6 129.983L103.298 130.931C103.094 131.573 102.794 132.155 102.419 132.676C102.604 133.93 103.053 135.134 103.948 135.944C104.394 136.348 104.939 136.624 105.543 136.678C106.14 136.732 106.718 136.562 107.22 136.242C108.976 135.122 109.545 132.564 109.639 130.62L103.6 129.983H103.6ZM88.6785 134.182C88.6454 134.263 88.6099 134.344 88.5745 134.423C88.4996 134.588 88.4026 134.777 88.4601 134.962C88.4767 135.015 88.4941 135.069 88.5121 135.122C88.7904 135.904 89.3232 136.507 90.0987 136.812C90.9262 137.139 91.8665 137.074 92.7043 136.82C92.7886 136.794 92.8729 136.765 92.9565 136.736C93.2229 136.641 93.2718 136.253 93.3214 136.013C93.3427 135.912 93.364 135.812 93.3876 135.711C92.8611 135.618 92.3418 135.49 91.8326 135.328L90.3516 134.857C89.7763 134.675 89.2176 134.45 88.6784 134.182L88.6785 134.182ZM106.378 122.165L106.391 122.78L108.932 122.725L108.92 122.11L106.378 122.165ZM116.37 126.895C116.96 128.287 117.997 129.533 119.491 129.975C120.085 130.152 120.713 130.182 121.316 130.047C121.918 129.912 122.464 129.621 122.916 129.203C124.025 128.177 124.361 126.627 124.297 125.168C123.242 126.249 121.889 126.974 120.4 127.258C119.043 127.516 117.654 127.391 116.37 126.895H116.37ZM133.462 119.84L131.982 121.712C132.377 121.853 132.821 121.887 133.212 121.713C133.383 121.637 133.536 121.522 133.649 121.373C133.757 121.232 133.822 121.067 133.842 120.89C133.883 120.504 133.701 120.135 133.462 119.84V119.84Z" fill="#181B10"/>
<path fill-rule="evenodd" clip-rule="evenodd" d="M114.064 115.137L114.173 121.35L101.293 121.588L101.17 114.592C100.289 114.49 109.77 114.757 114.064 115.137H114.064Z" fill="#62BA46"/>
<path fill-rule="evenodd" clip-rule="evenodd" d="M126.107 115.982L122.901 120.164L129.784 123.179L134.764 116.879L134.691 116.778C131.83 116.476 128.975 116.208 126.107 115.982V115.982Z" fill="#FBEC00"/>
<path fill-rule="evenodd" clip-rule="evenodd" d="M79.7557 115.238C83.5995 114.96 87.4456 114.765 91.295 114.66C91.4006 114.908 91.4904 115.163 91.563 115.424C92.0012 116.994 91.7979 118.682 90.9955 120.103C90.1908 121.53 88.8652 122.569 87.2881 123.009C85.7173 123.447 84.0291 123.241 82.6081 122.442C81.3179 121.715 80.3721 120.575 79.8503 119.195C79.7952 119.043 79.7455 118.888 79.7022 118.733C79.3822 117.586 79.4011 116.37 79.7557 115.238V115.238Z" fill="#FBEC00"/>
</svg>
