<svg width="36" height="37" viewBox="0 0 36 37" fill="none" xmlns="http://www.w3.org/2000/svg">
<path fill-rule="evenodd" clip-rule="evenodd" d="M2.5306 2.59876C0 5.19752 0 9.38012 0 17.7454L0 19.2242C0 27.5895 0 31.7721 2.5306 34.3709C5.06119 36.9696 9.1341 36.9696 17.28 36.9696H18.72C26.8659 36.9696 30.9388 36.9696 33.4694 34.3709C36 31.7721 36 27.5895 36 19.2242V17.7454C36 9.38012 36 5.19752 33.4694 2.59876C30.9388 0 26.8659 0 18.72 0L17.28 0C9.1341 0 5.06119 0 2.5306 2.59876ZM6.075 11.2451C6.27 20.8572 10.9499 26.6336 19.1549 26.6336H19.6201V21.1344C22.6351 21.4425 24.9149 23.7069 25.8298 26.6336H30.09C28.92 22.2589 25.8448 19.8405 23.9249 18.9162C25.8448 17.7763 28.5448 15.0037 29.1898 11.2451H25.3198C24.4798 14.2951 21.9901 17.0677 19.6201 17.3296V11.2451H15.7499V21.9046C13.3499 21.2884 10.32 18.3001 10.185 11.2451H6.075Z" fill="#0077FF"/>
</svg>
