<svg width="200" height="200" viewBox="0 0 200 200" fill="none" xmlns="http://www.w3.org/2000/svg">
<path d="M23.236 89.7039C23.8952 89.1946 24.7406 88.9441 25.571 89.0105C26.6326 89.0833 27.6364 89.6932 28.2015 90.5922C28.8414 91.5788 28.9356 92.8908 28.4497 93.9631C28.24 94.4404 27.9082 94.8535 27.5337 95.2131C26.791 95.9643 26.0526 96.7198 25.3099 97.4711C24.4881 96.6449 23.6726 95.8124 22.8571 94.9819C22.2172 94.327 21.8512 93.4152 21.8598 92.5013C21.8555 91.4226 22.3734 90.3546 23.2338 89.7061L23.236 89.7039Z" fill="#61AE2C"/>
<path d="M41.1803 90.4851C45.1484 90.4873 49.1165 90.4873 53.0825 90.4851C53.0867 95.7931 53.0867 101.101 53.0825 106.409C52.0316 106.405 50.9807 106.411 49.9319 106.405C49.9341 102.094 49.9341 97.7835 49.9319 93.473C48.0635 93.4687 46.195 93.4708 44.3244 93.4708C44.3222 97.7814 44.3265 102.094 44.3222 106.407C43.2735 106.407 42.2269 106.405 41.1781 106.407C41.1781 101.099 41.176 95.7931 41.1781 90.483L41.1803 90.4851ZM126.069 90.5322C126.869 90.2989 127.747 90.8768 127.924 91.6751C128.138 92.4628 127.633 93.366 126.833 93.5629C126.017 93.8047 125.097 93.2311 124.932 92.405C124.729 91.6066 125.273 90.7248 126.069 90.5322V90.5322ZM130.431 90.5237C131.304 90.2968 132.222 91.0116 132.284 91.8956C132.4 92.7367 131.711 93.5821 130.859 93.6142C129.992 93.6913 129.179 92.9101 129.217 92.0411C129.217 91.337 129.744 90.6778 130.431 90.5237V90.5237ZM57.5129 95.5555C59.6318 94.0958 62.7523 94.1322 64.7107 95.8594C66.3951 97.3041 67.05 99.6927 66.6669 101.839C63.8053 101.861 60.9416 101.839 58.0779 101.85C58.2834 102.595 58.7649 103.276 59.4691 103.622C60.886 104.32 62.8229 104.136 63.8588 102.865C64.6315 103.346 65.4277 103.787 66.2089 104.256C65.539 105.242 64.5502 106.013 63.4158 106.392C61.2455 107.09 58.6515 106.747 56.9243 105.195C55.5502 103.973 54.9081 102.075 55.0173 100.264C55.0858 98.4299 55.9783 96.6 57.515 95.5576L57.5129 95.5555ZM59.4948 97.5417C58.7179 97.9205 58.2256 98.7103 58.0308 99.5322C59.9656 99.5343 61.8983 99.5343 63.8332 99.5322C63.6769 98.8537 63.3409 98.1988 62.7801 97.7728C61.8534 97.0665 60.5221 97.0387 59.4948 97.5417V97.5417ZM71.7501 96.1976C73.1028 94.3912 75.7931 94.0765 77.7344 95.0482C79.7249 96.0157 80.9427 98.2009 80.9898 100.38C81.0968 102.629 79.9753 104.973 77.9677 106.075C76.0029 107.19 73.1649 106.929 71.7501 105.052C71.7587 107.045 71.7523 109.037 71.7544 111.032C70.772 111.03 69.7917 111.038 68.8115 111.028C68.8179 105.632 68.8136 100.236 68.8136 94.8385C69.7939 94.8342 70.7741 94.8363 71.7544 94.8363C71.7523 95.288 71.7544 95.7417 71.7501 96.1954V96.1976ZM74.4769 97.3919C73.4538 97.4967 72.5056 98.1559 72.084 99.0977C71.5468 100.283 71.6624 101.794 72.5056 102.813C73.5544 104.091 75.6433 104.23 76.9104 103.201C78.4171 101.979 78.4407 99.3738 76.9789 98.1067C76.3025 97.5139 75.3587 97.2848 74.4769 97.3919V97.3919ZM85.2832 95.3629C87.3379 94.1408 90.1716 94.205 92.0444 95.7481C93.8123 97.1714 94.54 99.6263 94.1291 101.82C91.2782 101.891 88.4038 101.827 85.5443 101.852C85.7669 102.661 86.3255 103.391 87.1174 103.71C88.5022 104.288 90.3343 104.1 91.3103 102.867C92.0979 103.331 92.8877 103.791 93.6775 104.256C93.0054 105.242 92.0166 106.015 90.8801 106.392C88.6649 107.107 85.9959 106.73 84.2751 105.088C82.7598 103.661 82.2183 101.42 82.58 99.408C82.854 97.7579 83.8342 96.2168 85.2832 95.3629V95.3629ZM86.9762 97.5374C86.1928 97.9162 85.6942 98.706 85.5015 99.5364C87.4364 99.5386 89.369 99.5407 91.3039 99.5343C91.1498 98.8858 90.8416 98.2523 90.3129 97.8263C89.3904 97.073 88.0249 97.0302 86.9762 97.5374V97.5374ZM112.011 96.1976C113.372 94.3805 116.082 94.0765 118.028 95.0675C120.003 96.0478 121.206 98.2244 121.249 100.397C121.351 102.627 120.247 104.947 118.267 106.056C116.303 107.197 113.437 106.946 112.016 105.061C112.018 107.053 112.013 109.046 112.018 111.038C111.035 111.036 110.055 111.038 109.075 111.036C109.077 105.638 109.073 100.241 109.077 94.8428C110.057 94.8406 111.037 94.8449 112.018 94.8406C112.016 95.2922 112.02 95.7438 112.013 96.1976H112.011ZM114.449 97.4389C113.976 97.5395 113.522 97.7472 113.15 98.0532C111.63 99.301 111.632 101.957 113.156 103.201C114.419 104.234 116.508 104.082 117.561 102.815C118.683 101.467 118.556 99.1897 117.18 98.0596C116.431 97.4389 115.391 97.2463 114.451 97.4389H114.449ZM125.972 95.1296C128.036 94.1279 130.72 94.3227 132.46 95.883C134.129 97.3319 134.782 99.7119 134.388 101.852C131.526 101.852 128.665 101.848 125.803 101.854C126.024 102.67 126.593 103.398 127.387 103.719C128.77 104.288 130.595 104.097 131.567 102.869C132.355 103.333 133.147 103.791 133.934 104.26C133.254 105.26 132.248 106.039 131.094 106.409C128.847 107.115 126.137 106.706 124.436 104.994C122.843 103.413 122.392 100.932 122.972 98.8087C123.391 97.2313 124.493 95.8337 125.975 95.1296H125.972ZM127.207 97.5502C126.437 97.9334 125.951 98.7167 125.758 99.5343C127.691 99.5364 129.626 99.5364 131.561 99.5343C131.396 98.813 131.017 98.1131 130.394 97.6936C129.465 97.0644 128.196 97.0601 127.209 97.5502H127.207ZM137.429 96.4244C138.737 94.9605 140.807 94.2906 142.733 94.5774C144.501 94.8128 146.147 95.9129 146.973 97.5032C146.13 98.004 145.289 98.5091 144.445 99.0056C143.683 97.3897 141.389 96.9895 140.015 98.0489C138.42 99.224 138.393 101.934 139.963 103.143C141.335 104.237 143.683 103.875 144.475 102.242C145.319 102.745 146.175 103.226 147.022 103.729C146.059 105.501 144.126 106.679 142.112 106.728C140.111 106.837 138.071 105.887 136.946 104.215C135.347 101.908 135.52 98.507 137.429 96.4244V96.4244ZM164.181 94.6266C166.281 94.1985 168.579 94.9712 169.953 96.6256C171.603 98.5476 171.85 101.506 170.593 103.697C169.641 105.418 167.789 106.589 165.829 106.715C163.958 106.876 162.034 106.105 160.819 104.671C159.205 102.822 158.901 99.9902 160.001 97.8092C160.799 96.174 162.392 94.9605 164.181 94.6266V94.6266ZM164.448 97.5674C163.918 97.7257 163.43 98.034 163.068 98.4513C161.936 99.7483 162.041 101.966 163.363 103.094C164.504 104.089 166.394 104.044 167.483 102.991C168.84 101.715 168.763 99.2368 167.282 98.0875C166.501 97.4625 165.403 97.2891 164.448 97.5674V97.5674ZM96.2886 94.8428C97.2689 94.8406 98.2491 94.8406 99.2315 94.8428C99.2272 96.4073 99.2315 97.9719 99.2294 99.5386C99.5611 99.5364 99.8907 99.5364 100.225 99.5386C101.318 97.9719 102.412 96.4095 103.508 94.8428C104.679 94.8406 105.849 94.8449 107.022 94.8406C105.618 96.7498 104.203 98.6525 102.804 100.564C104.259 102.509 105.706 104.466 107.159 106.411C106.012 106.388 104.843 106.469 103.711 106.375C102.615 104.874 101.537 103.361 100.447 101.854C100.038 101.854 99.6318 101.852 99.2272 101.854C99.2272 103.374 99.2272 104.894 99.2294 106.415C98.247 106.415 97.2667 106.417 96.2865 106.413C96.2886 102.556 96.2886 98.7017 96.2865 94.8449L96.2886 94.8428ZM148.311 94.8406C151.675 94.8492 155.04 94.8192 158.404 94.8556C158.376 95.808 158.4 96.7605 158.391 97.715C157.201 97.7129 156.014 97.715 154.824 97.7129C154.819 100.613 154.826 103.513 154.821 106.413C153.839 106.413 152.859 106.413 151.881 106.411C151.883 103.513 151.881 100.617 151.883 97.7193C150.693 97.7043 149.501 97.7172 148.311 97.7129C148.313 96.7562 148.313 95.7995 148.311 94.8428V94.8406ZM173.123 94.8385C174.105 94.8428 175.088 94.8363 176.075 94.8406C176.072 96.4052 176.072 97.9697 176.072 99.5364C176.402 99.5364 176.736 99.5364 177.07 99.5343C178.17 97.9676 179.253 96.3881 180.366 94.8321C181.53 94.847 182.695 94.8342 183.863 94.8385C182.457 96.7434 181.053 98.6482 179.645 100.551C181.089 102.509 182.553 104.455 184 106.413C182.851 106.385 181.689 106.462 180.554 106.375C179.461 104.872 178.38 103.361 177.292 101.852C176.884 101.848 176.475 101.848 176.072 101.848C176.07 103.368 176.07 104.887 176.07 106.409C175.088 106.411 174.103 106.409 173.123 106.409C173.125 102.552 173.123 98.6932 173.123 94.8363V94.8385ZM22.8786 101.942C23.6876 101.118 24.4988 100.296 25.3057 99.4722C26.1746 100.358 27.0607 101.234 27.9126 102.137C29.0298 103.402 29.0298 105.467 27.9169 106.736C26.9088 107.965 25.0103 108.316 23.6363 107.507C22.6367 106.955 21.9625 105.885 21.8705 104.75C21.7763 103.727 22.1509 102.67 22.8765 101.94L22.8786 101.942Z" fill="#015929"/>
<path d="M16.5882 96.5057C17.1917 95.5768 18.2662 94.9754 19.377 94.9669C20.2973 94.9369 21.2133 95.3157 21.864 95.9664C22.6859 96.799 23.5035 97.638 24.3275 98.4705C23.4521 99.3588 22.5896 100.258 21.6992 101.131C20.4493 102.28 18.3453 102.248 17.1254 101.071C15.8669 99.9452 15.6293 97.8926 16.5882 96.5057V96.5057Z" fill="#A8E542"/>
<path d="M28.7664 95.9559C29.4727 95.2474 30.4958 94.8793 31.4932 94.9778C32.6318 95.0741 33.687 95.7911 34.2135 96.8034C35.0375 98.2974 34.5837 100.35 33.1754 101.328C31.9105 102.28 29.9971 102.163 28.8563 101.067C27.9916 100.211 27.1526 99.3333 26.2922 98.4729C27.1141 97.6275 27.9403 96.7906 28.7686 95.9537L28.7664 95.9559Z" fill="#1F8635"/>
</svg>
