<svg width="32" height="32" viewBox="0 0 32 32" fill="transparent" xmlns="http://www.w3.org/2000/svg">
<path d="M32 26.4V5.6C32 4.11429 31.4057 2.69714 30.3543 1.64571C29.3029 0.594286 27.8857 0 26.4 0H5.6C4.11429 0 2.69714 0.594286 1.64571 1.64571C0.594286 2.69714 0 4.11429 0 5.6V26.4C0 27.8857 0.594286 29.3029 1.64571 30.3543C2.69714 31.4057 4.11429 32 5.6 32H26.4C27.8857 32 29.3029 31.4057 30.3543 30.3543C31.4057 29.3029 32 27.8857 32 26.4ZM28 10.0114V22.0114C28 23.6114 27.36 25.12 26.24 26.2629C25.12 27.3829 23.5886 28.0229 21.9886 28.0229H9.98857C8.38857 28.0229 6.88 27.3829 5.73714 26.2629C4.61714 25.1429 3.97714 23.6114 3.97714 22.0114V10.0114C3.97714 8.41143 4.61714 6.90286 5.73714 5.76C6.85714 4.64 8.38857 4 9.98857 4H21.9886C23.5886 4 25.0971 4.64 26.24 5.76C27.36 6.88 28 8.41143 28 10.0114ZM6.4 22.0114C6.4 22.9714 6.78857 23.8857 7.45143 24.5486C8.13714 25.2343 9.05143 25.6 9.98857 25.6H21.9886C22.9486 25.6 23.8629 25.2114 24.5257 24.5486C25.2114 23.8629 25.5771 22.9486 25.5771 22.0114V10.0114C25.5771 9.05143 25.1886 8.13714 24.5257 7.47428C23.84 6.78857 22.9257 6.42286 21.9886 6.42286H9.98857C9.02857 6.42286 8.11428 6.81143 7.45143 7.47428C6.76571 8.16 6.4 9.07428 6.4 10.0114V22.0114ZM22.7886 16.0229C22.7886 16.9143 22.6057 17.8057 22.2629 18.6286C21.92 19.4514 21.4171 20.2057 20.8 20.8229C20.16 21.4629 19.4286 21.9657 18.6057 22.2857C17.7829 22.6286 16.8914 22.8114 16 22.8114C15.1086 22.8114 14.2171 22.6286 13.3943 22.2857C12.5714 21.9429 11.8171 21.44 11.2 20.8229C10.56 20.1829 10.0571 19.4514 9.73714 18.6286C9.39428 17.8057 9.21143 16.9143 9.21143 16.0229C9.21143 14.2171 9.92 12.48 11.2 11.2229C12.48 9.94286 14.1943 9.23428 16 9.23428C17.8057 9.23428 19.5429 9.94286 20.8 11.2229C22.08 12.5029 22.7886 14.2171 22.7886 16.0229V16.0229ZM11.5886 16.0229C11.5886 17.1886 12.0457 18.3086 12.8686 19.1314C13.6914 19.9543 14.8114 20.4114 15.9771 20.4114C17.1429 20.4114 18.2629 19.9543 19.0857 19.1314C19.9086 18.3086 20.3657 17.1886 20.3657 16.0229C20.3657 14.8571 19.9086 13.7371 19.0857 12.9143C18.2629 12.0914 17.1429 11.6343 15.9771 11.6343C14.8114 11.6343 13.6914 12.0914 12.8686 12.9143C12.0457 13.7371 11.5886 14.8571 11.5886 16.0229ZM9.6 8.02286C10.2629 8.02286 10.8114 8.57143 10.8114 9.23428C10.8114 9.89714 10.2629 10.4457 9.6 10.4457C8.93714 10.4457 8.38857 9.89714 8.38857 9.23428C8.38857 8.57143 8.93714 8.02286 9.6 8.02286Z" fill="currentColor"/>
</svg>
