<svg width="200" height="200" viewBox="0 0 200 200" fill="none" xmlns="http://www.w3.org/2000/svg">
<path fill-rule="evenodd" clip-rule="evenodd" d="M105.54 127.791C105.54 128.52 105.761 128.74 106.49 128.74H114.297C116.059 128.299 115.355 126.54 115.355 120.509C115.355 117.449 115.355 114.389 115.355 111.328L123.032 120.113C128.992 126.524 129.174 128.314 131.572 128.74H140.68C142.323 128.74 141.142 127.707 139.949 126.306L135.058 120.75C134.451 120.101 134.477 119.976 133.937 119.338L130.309 115.051C128.99 113.567 123.287 107.522 122.951 106.263C124.158 104.461 131.724 97.6756 133.621 95.4058C135.687 92.9349 139.186 89.8193 140.046 88.5346C136.875 88.5346 133.703 88.5484 130.533 88.5183C128.042 88.4947 128.433 88.5248 127.141 89.8746L115.354 101.831L115.364 91.3726C115.424 87.7473 116.575 88.5346 105.54 88.5346V127.79L105.54 127.791Z" fill="#0088CD"/>
<path fill-rule="evenodd" clip-rule="evenodd" d="M67.8675 108.48C67.8675 100.942 73.454 95.1832 79.2644 95.1832C83.782 95.1832 85.0464 95.0196 88.9029 97.891C94.4813 102.044 95.8132 111.718 89.8 117.748C82.0715 125.499 67.8675 120.054 67.8675 108.479V108.48ZM59.9534 108.163C59.9534 119.267 69.1709 128.74 80.2145 128.74C89.2505 128.74 95.906 124.69 99.848 116.716C102.32 111.715 102.215 105.409 100.122 100.286C99.6347 99.0959 99.0851 98.1287 98.3679 96.9751C97.8477 96.139 96.7958 94.8413 96.1299 94.1485C94.4031 92.3533 92.6788 90.9449 90.3952 89.7522C77.4188 82.9746 59.9542 92.0602 59.9542 108.163H59.9534Z" fill="#0088CD"/>
<path fill-rule="evenodd" clip-rule="evenodd" d="M45.3132 107.768L45.3913 120.826H32.4117L45.3132 107.768V107.768ZM15 128.108H52.9887C58.6217 128.112 57.7375 129.562 57.7375 120.826H54.2555V88.8521C52.8699 89.2217 45.3734 97.2595 44.2043 98.4286C40.8558 101.777 37.7393 104.894 34.39 108.242C31.0415 111.591 27.9251 114.707 24.5766 118.056L17.295 125.337C16.4215 126.211 15.3395 126.834 15 128.108H15Z" fill="#0088CD"/>
<path fill-rule="evenodd" clip-rule="evenodd" d="M61.2195 74.9231V82.5205H68.501C68.501 76.9201 67.7797 78.6901 72.163 76.0523L101.108 59.2333C101.815 59.2333 125.498 73.3087 129.854 75.9359C134.216 78.5679 133.716 76.6743 133.716 82.5205H140.996C140.996 72.0859 143.136 75.5931 131.482 68.6087L116.321 59.7095C114.697 58.7358 113.101 57.767 111.336 56.7803C109.86 55.9556 101.775 50.9894 101.106 51C100.35 51.0122 83.4533 61.3215 80.9555 62.6843L63.4184 73.0058C62.5937 73.4666 61.2195 73.7996 61.2195 74.9223V74.9231Z" fill="#FECD09"/>
<path fill-rule="evenodd" clip-rule="evenodd" d="M153.976 107.847C154.835 108.423 155.332 109.036 156.077 109.863C156.121 109.911 156.183 109.982 156.227 110.03C156.271 110.078 156.334 110.147 156.379 110.194L158.763 112.558C158.807 112.606 158.869 112.676 158.914 112.724L160.645 114.476C160.69 114.524 160.752 114.594 160.796 114.641C161.816 115.743 161.894 115.527 162.209 116.394H153.978V107.847H153.976ZM145.429 124.625C145.429 129.104 144.053 128.107 153.976 128.107V124.625H170.122C171.128 124.625 171.185 125.476 172.406 126.774C173.646 128.092 173.378 128.147 175.804 128.124C178.868 128.095 181.935 128.108 185 128.108L145.824 88.7744C145.745 101.118 145.428 112.353 145.428 124.626L145.429 124.625Z" fill="#0088CD"/>
</svg>
