<svg width="200" height="200" viewBox="0 0 200 200" fill="none" xmlns="http://www.w3.org/2000/svg">
<path d="M103.358 55.0003C111.205 55.8513 118.53 60.3989 122.88 66.9717C127.572 73.8071 128.775 82.8133 126.269 90.6916C124.015 97.8438 118.708 103.97 111.92 107.175C107.387 109.404 102.228 110.196 97.2149 109.729C97.2191 101.799 97.2422 93.865 97.2027 85.9347C97.4238 85.8284 97.6426 85.6825 97.901 85.6947C99.0791 85.632 100.266 85.7593 101.442 85.6176C102.51 85.4758 103.409 84.4542 103.321 83.3613C103.394 73.9068 103.321 64.4526 103.358 55V55.0003ZM101.417 90.6681C100.109 91.1665 99.2854 92.6072 99.4461 93.9881C99.5567 95.6958 101.225 97.078 102.922 96.899C104.82 96.8135 106.348 94.7992 105.85 92.9475C105.472 91.0502 103.191 89.8072 101.416 90.6684L101.417 90.6681ZM109.681 90.5951C108.146 91.0872 107.166 92.8534 107.587 94.4152C107.917 95.9645 109.497 97.0925 111.07 96.89C112.942 96.7881 114.408 94.7693 113.933 92.9617C113.567 91.135 111.443 89.8714 109.681 90.5951H109.681ZM117.802 90.5826C116.138 91.0997 115.088 93.1098 115.769 94.7533C116.224 96.1522 117.73 97.07 119.179 96.8865C120.972 96.7528 122.39 94.9056 122.042 93.1349C121.785 91.2395 119.61 89.8653 117.802 90.5826V90.5826ZM82.7082 61.308C87.5415 57.39 93.7744 55.144 100.003 55.2587C100.103 55.7925 100.055 56.341 100.062 56.8829C100.055 65.4241 100.068 73.9675 100.055 82.5106C99.9552 82.5855 99.7527 82.7356 99.6508 82.813C98.4454 82.813 97.238 82.7902 96.0329 82.8172C95.1527 82.8252 94.3959 83.5072 94.0684 84.2871C93.8165 85.3486 94.0144 86.4537 93.9331 87.5338C93.9894 94.9008 93.9707 102.268 93.9184 109.635C87.0078 108.134 80.7961 103.788 76.9427 97.8682C74.0147 93.4161 72.3738 88.0802 72.4863 82.7397C72.3382 74.526 76.2958 66.4065 82.7082 61.308V61.308ZM93.8534 71.6466C92.6316 71.9362 91.6184 72.9623 91.3931 74.2072C90.9805 76.0483 92.4921 77.9961 94.3689 78.0713C96.2621 78.2712 98.0347 76.4863 97.8448 74.597C97.7738 72.664 95.7283 71.1524 93.8534 71.6466ZM17.8221 121.081C18.8711 120.37 20.216 120.433 21.4169 120.576C23.1519 120.926 24.3281 122.457 24.9847 124.005C27.1304 129.113 29.2096 134.254 31.3865 139.352C32.9191 135.582 34.5205 131.841 36.0656 128.077C36.7916 126.423 37.3816 124.707 38.2197 123.106C38.9164 121.842 40.0987 120.725 41.5792 120.527C43.0366 120.337 44.7819 120.543 45.7476 121.786C46.7882 123.043 46.8129 124.766 46.8068 126.317C46.7985 132.314 46.8216 138.311 46.7924 144.309C45.1698 144.325 43.5476 144.319 41.9234 144.311C41.9022 138.301 41.9671 132.289 41.8919 126.28C39.9425 130.847 38.0176 135.424 36.0929 140.001C35.4675 141.427 34.9877 143.053 33.6743 144.017C32.7318 144.751 31.4621 144.745 30.3379 144.586C28.9763 144.311 28.0148 143.135 27.4791 141.919C25.8736 138.182 24.3095 134.425 22.7207 130.68C22.095 129.151 21.3925 127.652 20.8378 126.096L20.823 144.311L16 144.309L16.0103 124.441C16.0877 123.135 16.663 121.772 17.8225 121.082L17.8221 121.081ZM113.359 121.609C115.763 120.769 118.336 120.981 120.836 120.956C123.41 120.964 125.985 120.937 128.558 120.968C130.935 121.087 133.473 121.671 135.204 123.412C137.151 125.454 137.608 128.421 137.614 131.134C137.621 133.811 137.281 136.735 135.479 138.852C133.99 140.628 131.654 141.396 129.419 141.633C128.013 141.786 126.6 141.687 125.194 141.787C125.209 142.628 125.209 143.468 125.194 144.308C123.576 144.327 121.96 144.313 120.342 144.319C120.321 143.457 120.327 142.597 120.327 141.737C117.37 141.766 114.18 141.829 111.592 140.167C109.288 138.755 108.294 135.99 108.052 133.419C107.876 130.811 107.891 128.089 108.898 125.633C109.695 123.71 111.38 122.226 113.359 121.608V121.609ZM114.497 126.113C112.879 127.304 112.756 129.485 112.712 131.322C112.775 133.009 112.821 134.932 114.093 136.206C115.782 137.72 118.228 137.386 120.317 137.446C120.336 133.368 120.336 129.289 120.317 125.21C118.367 125.246 116.22 125.016 114.497 126.113L114.497 126.113ZM125.265 125.208C125.182 126.138 125.205 127.072 125.207 128.004C125.242 131.155 125.132 134.308 125.265 137.457C127.369 137.373 129.84 137.741 131.519 136.168C132.868 134.715 132.86 132.571 132.841 130.711C132.797 129.07 132.503 127.154 131.071 126.128C129.353 125.014 127.211 125.258 125.265 125.208V125.208ZM94.3226 124.003C95.4844 123.507 96.8521 123.525 98.0238 123.976C99.0666 124.482 99.8382 125.437 100.263 126.501C102.884 132.434 105.533 138.355 108.102 144.311C106.363 144.323 104.626 144.321 102.887 144.309C102.392 142.899 101.736 141.552 101.254 140.136C99.4477 140.011 97.6378 140.094 95.8298 140.072C94.2786 140.093 92.7229 140.02 91.1713 140.121C90.625 141.533 90.0601 142.937 89.4594 144.325C87.7472 144.304 86.0376 144.338 84.3276 144.302C86.8111 138.365 89.5282 132.527 92.0721 126.613C92.533 125.554 93.2107 124.463 94.322 124.003H94.3226ZM95.6033 129.243C94.7253 131.491 93.7725 133.71 92.9006 135.959C95.1026 135.976 97.3049 135.978 99.5046 135.962C98.6704 133.818 97.7738 131.697 96.936 129.556C96.7483 129.08 96.5147 128.626 96.2457 128.192C95.9558 128.492 95.7366 128.849 95.6036 129.243H95.6033ZM148.216 123.876C150.97 123.867 153.82 123.567 156.484 124.451C158.124 124.979 159.634 126.03 160.521 127.533C161.693 129.487 161.895 131.822 161.986 134.049C161.92 136.62 161.678 139.404 160.012 141.491C158.36 143.629 155.556 144.419 152.968 144.565C149.917 144.657 146.666 144.798 143.882 143.332C141.836 142.275 140.557 140.153 140.102 137.946C139.557 135.292 139.587 132.506 140.221 129.868C140.679 128.087 141.678 126.371 143.265 125.377C144.731 124.411 146.489 124.021 148.216 123.875V123.876ZM147.642 128.373C146.787 128.599 145.944 129.066 145.448 129.817C144.598 131.117 144.512 132.742 144.519 134.254C144.506 135.828 144.635 137.555 145.651 138.837C146.735 140.084 148.507 140.278 150.061 140.284C152.03 140.328 154.296 140.445 155.871 139.044C157.105 137.709 157.197 135.77 157.199 134.05C157.165 132.494 157.068 130.774 156.017 129.531C155.06 128.422 153.514 128.167 152.13 128.103C150.633 128.103 149.106 127.988 147.642 128.374L147.642 128.373ZM49.8199 126.935C49.826 125.606 50.8184 124.18 52.2343 124.144C57.1618 124.126 62.0893 124.147 67.0187 124.132C67.1376 125.546 66.9602 126.966 67.071 128.38C62.9148 128.467 58.7529 128.303 54.5993 128.457C54.472 129.585 54.5077 130.722 54.578 131.854C58.6298 131.846 62.6793 131.848 66.7307 131.849C66.7371 133.237 66.7432 134.623 66.7288 136.012C62.677 136.014 58.6234 136.037 54.5719 135.999C54.5176 137.33 54.4717 138.666 54.605 139.995C58.74 140.061 62.8792 140.011 67.0164 140.02C67.0434 141.452 67.1208 142.885 67.027 144.317C62.1747 144.315 57.3202 144.324 52.468 144.314C50.9897 144.339 49.8093 142.956 49.8177 141.525C49.801 136.663 49.801 131.798 49.8199 126.935V126.935ZM70.0443 127.076C69.9964 125.636 71.1369 124.074 72.6737 124.138L87.2369 124.132L87.2578 128.386L74.8361 128.461L74.7423 144.317L70.0379 144.325L70.0443 127.076V127.076ZM164.503 124.138L169.193 124.13L169.257 131.77L179.352 131.714L179.344 124.142L183.992 124.132L184 144.306L179.346 144.317V136.195L169.253 136.182L169.203 144.317C167.641 144.323 166.08 144.311 164.52 144.321L164.504 124.138H164.503Z" fill="#2CA56B"/>
</svg>
