<svg width="200" height="200" viewBox="0 0 200 200" fill="none" xmlns="http://www.w3.org/2000/svg">
<path fill-rule="evenodd" clip-rule="evenodd" d="M82.1303 98.2708C87.1057 93.2257 88.4603 104.417 86.7006 108.823C85.5485 111.709 82.3771 111.488 82.0733 107.943C81.877 105.658 81.934 100.575 82.1303 98.2708V98.2708ZM32.1734 77.2233C46.7199 77.2107 45.302 76.3878 51.018 86.5475C52.4233 86.5475 55.4934 85.6043 57.1962 85.2625C63.0451 84.0915 70.5019 82.8634 76.4016 82.3507C94.7397 80.7555 113.439 81.3189 131.593 85.041C135.632 85.8702 139.702 86.6804 143.715 87.6869C147.21 88.5605 152.122 90.2443 155.445 90.7823C156.224 87.6616 157.49 87.9465 160.737 87.9465C163.326 87.9528 165.959 87.9021 168.611 87.9654L168.624 91.371C167.333 91.4217 165.503 91.1748 164.503 91.6432C164.605 93.3017 164.13 92.1496 165.776 92.8902C166.472 93.2004 166.624 93.4916 166.934 94.1499C166.421 97.6125 160.781 97.1693 164.086 106.487C169.282 121.148 168.991 119.939 161.99 119.939H97.411C80.0603 119.939 81.9593 121.705 82.0669 111.621C85.2003 112.748 87.5424 113.153 89.8213 110.697C91.4544 108.943 92.4103 106.088 92.3153 102.917C92.1128 95.992 87.0424 91.314 82.1176 96.5996C82.0353 95.5362 82.1492 95.4539 81.7378 94.7323C80.4275 94.6943 76.1357 94.7196 75.1798 95.4096C75.3381 97.4985 75.9584 95.7451 77.1105 97.5555C77.8448 99.0051 77.7499 116.774 77.2751 119.23C75.0343 120.654 69.8689 119.945 66.6912 119.945C63.0451 119.945 59.2787 120.034 55.6453 119.907L56.0061 111.007L51.4295 111.513C49.8153 114.083 48.9291 116.679 45.821 117.47C43.5802 118.04 37.5667 118.198 35.3258 117.691C31.4771 116.818 32.1418 113.235 32.1355 109.203C32.1355 105.449 32.0532 101.594 32.1671 97.8467C40.8266 97.853 42.656 97.9353 44.3082 106.247L46.6819 106.278L46.644 87.7122L44.1119 88.5541C42.7383 91.0988 42.9788 92.5547 40.4278 93.9094C38.1933 95.0931 34.889 94.7766 32.1291 94.7703L32.1671 77.217L32.1734 77.2233ZM154.641 85.5094C151.147 85.1106 146.494 83.6737 142.753 82.9394C129.916 80.4137 117.268 79.1477 104.007 79.0401C90.9037 78.9325 77.5599 80.3314 65.0264 82.7685C61.4373 83.4648 56.4745 85.1043 53.2589 85.4081L53.1956 74.1976L15.0633 74.1659L15 76.8056C20.6338 77.6411 21.2351 78.4134 21.2351 84.1231V111.083C21.2351 117.729 21.3301 117.438 15.057 118.388L15.0506 121.008L175.695 121.11C175.695 121.11 176.752 121.129 176.663 119.964C174.859 119.901 172.853 120.141 171.378 119.597C169.662 115.064 177.48 104.879 175.207 99.1063C174.125 96.3591 171.694 96.3401 172.011 93.4093C174.46 91.5799 174.068 93.9094 174.226 91.6432C173.207 91.1811 171.409 91.428 170.105 91.3837L170.112 87.9591C172.663 87.8958 175.188 87.9465 177.67 87.9465C181.094 87.9401 181.677 87.63 183.025 90.2949L185 90.2569C184.785 88.5478 178.746 65.7913 178.296 65.076L160.117 65L154.641 85.5157V85.5094Z" fill="#F4721F"/>
<path fill-rule="evenodd" clip-rule="evenodd" d="M65.7608 110.716C64.9126 109.367 65.0392 106.12 65.2797 104.018C67.8181 103.645 69.141 104.392 69.2043 107C69.2676 109.488 68.3561 111.064 65.7608 110.716ZM65.2227 96.3907C69.7044 95.3399 69.3816 100.208 67.3813 102.316L65.1974 102.246L65.2227 96.3907ZM71.0654 95.1183C69.255 94.3524 60.4119 94.2764 58.7597 95.0867C58.937 96.954 58.5635 95.6817 59.9118 96.5426C61.3044 97.4351 60.7411 100.531 60.7411 103.233C60.7411 112.494 60.9499 109.329 58.6648 111.076L58.7977 112.077C63.9441 112.545 75.8256 113.71 74.0089 106.234C73.4581 103.968 72.0845 103.892 70.2425 103.025C75.4141 100.493 73.3569 96.0932 71.0654 95.1247V95.1183Z" fill="#F4721F"/>
<path fill-rule="evenodd" clip-rule="evenodd" d="M133.277 110.653C132.416 109.114 132.657 105.892 132.948 103.981C135.575 103.734 136.797 104.411 136.873 107.006C136.949 109.456 136.031 111.311 133.277 110.653V110.653ZM132.872 96.2201L135.309 96.4289C136.221 97.4291 136.702 98.5495 136.151 100.632C135.733 102.208 134.885 102.442 132.834 102.322L132.872 96.2201ZM138.62 95.2705C136.525 94.397 128.928 94.6629 126.39 94.9287C126.226 96.8024 126.574 95.8466 128.036 96.7581C128.53 98.2204 128.764 108.494 128.125 109.671C127.2 111.444 128.118 109.899 126.859 110.729C126.143 111.197 126.169 110.754 126.498 112.096C129.789 112.311 137.328 112.773 139.652 111.298C141.24 110.285 142.152 108.519 141.582 106.101C141.089 104 139.614 103.841 137.911 103.006C143 100.531 141.025 96.2644 138.626 95.2705H138.62Z" fill="#F4721F"/>
<path fill-rule="evenodd" clip-rule="evenodd" d="M101.076 111.07C99.038 108.538 99.057 106.582 99.1709 102.62C99.2469 100.081 99.5064 95.0996 102.57 95.9035C104.881 96.5112 104.881 101.271 104.862 104.19C104.843 107.709 104.786 111.387 101.076 111.077V111.07ZM109.698 105.753C112.261 92.6878 96.2401 90.333 94.3601 101.088C92.0433 114.349 107.527 116.805 109.698 105.753Z" fill="#F4721F"/>
<path fill-rule="evenodd" clip-rule="evenodd" d="M148.558 101.322C148.343 94.9409 152.913 92.9026 152.71 101.29L148.558 101.322ZM156.983 107.139C155.622 108.335 154.477 111.31 151.122 109.728C149.064 108.759 148.469 105.67 148.545 102.936L157.648 102.929C157.831 97.8527 156.141 94.3016 151.02 94.3332C146.703 94.3585 144.108 98.0553 143.658 102.075C142.298 114.21 155.388 115.653 157.888 107.943C157.249 107.139 157.844 107.62 156.983 107.139Z" fill="#F4721F"/>
<path fill-rule="evenodd" clip-rule="evenodd" d="M124.605 106.823C123.624 107.867 123.257 109.45 121.649 109.918C116.68 111.374 115.711 102.025 117.547 97.6632C118.218 96.0807 120.573 94.7134 120.611 96.9225C120.649 98.8532 119.503 100.537 121.503 101.411C125.371 103.094 126.276 97.0618 123.029 95.2008C116.262 91.3204 110.16 99.2583 112.116 106.759C114.274 115.027 124.155 113.938 125.44 107.589L124.611 106.823H124.605Z" fill="#F4721F"/>
<path fill-rule="evenodd" clip-rule="evenodd" d="M82.1301 98.2702C81.9339 100.574 81.8769 105.664 82.0732 107.943C82.377 111.487 85.5484 111.709 86.7004 108.822C88.4602 104.41 87.1056 93.2188 82.1301 98.2702V98.2702Z" fill="#FEFEFE"/>
<path d="M21.2222 131.228C21.2222 131.292 21.2222 131.349 21.2159 131.393C21.2096 131.437 21.2032 131.481 21.1969 131.519C21.1843 131.551 21.1716 131.589 21.1589 131.614C21.1399 131.64 21.1146 131.678 21.0766 131.716C21.0387 131.754 20.95 131.817 20.8234 131.899C20.6968 131.982 20.5386 132.058 20.3487 132.14C20.1588 132.216 19.9436 132.279 19.703 132.336C19.4561 132.393 19.1903 132.418 18.8991 132.418C18.399 132.418 17.9433 132.336 17.5445 132.165C17.1393 132.001 16.7975 131.754 16.5127 131.425C16.2278 131.102 16.0063 130.697 15.8543 130.215C15.7024 129.734 15.6265 129.184 15.6265 128.557C15.6265 127.918 15.7088 127.348 15.8733 126.842C16.0379 126.341 16.2721 125.917 16.5696 125.569C16.8672 125.221 17.2216 124.955 17.6394 124.772C18.0572 124.588 18.513 124.499 19.0194 124.499C19.2409 124.499 19.4625 124.518 19.6714 124.563C19.8803 124.607 20.0765 124.658 20.2601 124.721C20.4373 124.784 20.5956 124.86 20.7412 124.943C20.8804 125.025 20.9754 125.094 21.0323 125.145C21.0893 125.196 21.121 125.24 21.1399 125.265C21.1589 125.291 21.1653 125.322 21.1779 125.36C21.1906 125.398 21.1969 125.443 21.2032 125.493C21.2096 125.544 21.2096 125.607 21.2096 125.677C21.2096 125.759 21.2032 125.822 21.1969 125.879C21.1906 125.936 21.1779 125.981 21.1589 126.019C21.1463 126.057 21.1273 126.082 21.102 126.101C21.083 126.12 21.0513 126.126 21.0197 126.126C20.9627 126.126 20.8867 126.088 20.7855 126.012C20.6842 125.936 20.5576 125.848 20.3993 125.759C20.2411 125.664 20.0512 125.582 19.8233 125.506C19.5954 125.43 19.3232 125.392 19.013 125.392C18.6649 125.392 18.3547 125.462 18.0762 125.595C17.7913 125.734 17.5508 125.936 17.3546 126.202C17.1583 126.468 17.0001 126.791 16.8861 127.177C16.7785 127.563 16.7216 128 16.7216 128.494C16.7216 128.981 16.7722 129.418 16.8798 129.791C16.9874 130.165 17.1393 130.481 17.3356 130.735C17.5318 130.988 17.7787 131.178 18.0635 131.311C18.3547 131.437 18.6776 131.507 19.0447 131.507C19.3549 131.507 19.6207 131.469 19.8549 131.393C20.0828 131.317 20.2791 131.235 20.4436 131.14C20.6082 131.045 20.7412 130.962 20.8424 130.886C20.95 130.811 21.0323 130.773 21.0893 130.773C21.121 130.773 21.1399 130.779 21.1653 130.792C21.1843 130.804 21.1969 130.823 21.2096 130.861C21.2222 130.893 21.2349 130.943 21.2412 131C21.2476 131.057 21.2476 131.133 21.2476 131.228H21.2222ZM27.6662 130.102C27.6662 130.342 27.6346 130.57 27.5776 130.773C27.5143 130.975 27.432 131.159 27.3181 131.323C27.2041 131.488 27.0712 131.627 26.913 131.754C26.7547 131.874 26.5775 131.982 26.3812 132.064C26.185 132.146 25.9698 132.209 25.7482 132.254C25.5203 132.298 25.2671 132.317 24.976 132.317H22.963C22.8744 132.317 22.7858 132.285 22.7035 132.228C22.6212 132.165 22.5832 132.058 22.5832 131.906V125.025C22.5832 124.873 22.6212 124.765 22.7035 124.702C22.7858 124.639 22.8744 124.613 22.963 124.613H24.7164C25.1785 124.613 25.5583 124.658 25.8495 124.746C26.1407 124.835 26.3876 124.962 26.5838 125.126C26.78 125.291 26.9319 125.5 27.0269 125.74C27.1282 125.981 27.1725 126.259 27.1725 126.563C27.1725 126.747 27.1472 126.924 27.1092 127.088C27.0649 127.253 27.0016 127.411 26.913 127.551C26.8307 127.69 26.7231 127.816 26.5901 127.93C26.4572 128.044 26.3116 128.133 26.147 128.203C26.3559 128.241 26.5585 128.316 26.7357 128.418C26.9193 128.525 27.0775 128.658 27.2168 128.823C27.3561 128.987 27.4637 129.177 27.5396 129.393C27.6219 129.614 27.6599 129.855 27.6599 130.114L27.6662 130.102ZM26.128 126.645C26.128 126.455 26.1027 126.291 26.0521 126.139C26.0014 125.987 25.9191 125.86 25.8052 125.753C25.6913 125.645 25.552 125.569 25.3684 125.512C25.1912 125.455 24.9506 125.43 24.6595 125.43H23.6023V127.93H24.7671C25.0329 127.93 25.2482 127.899 25.4127 127.829C25.5773 127.759 25.7102 127.664 25.8179 127.551C25.9255 127.43 26.0014 127.291 26.0521 127.139C26.1027 126.981 26.128 126.823 26.128 126.652V126.645ZM26.5901 130.159C26.5901 129.931 26.5521 129.728 26.4825 129.551C26.4066 129.374 26.2989 129.228 26.1597 129.108C26.0204 128.987 25.8432 128.899 25.628 128.836C25.4191 128.772 25.1469 128.747 24.824 128.747H23.596V131.469H25.0836C25.3178 131.469 25.5203 131.437 25.6976 131.387C25.8748 131.33 26.0267 131.247 26.1597 131.14C26.2926 131.032 26.3939 130.893 26.4699 130.728C26.5458 130.564 26.5838 130.374 26.5838 130.159H26.5901ZM33.5089 131.88C33.5089 131.956 33.5025 132.02 33.4962 132.07C33.4899 132.121 33.4709 132.165 33.4582 132.203C33.4392 132.241 33.4139 132.266 33.3886 132.279C33.3633 132.298 33.3316 132.304 33.3 132.304H29.5969C29.5083 132.304 29.4197 132.273 29.3374 132.216C29.2551 132.152 29.2171 132.045 29.2171 131.893V125.012C29.2171 124.86 29.2551 124.753 29.3374 124.689C29.4197 124.626 29.5083 124.601 29.5969 124.601H33.2557C33.2873 124.601 33.319 124.607 33.3443 124.626C33.3696 124.645 33.3886 124.664 33.4076 124.702C33.4203 124.74 33.4392 124.784 33.4456 124.835C33.4582 124.886 33.4582 124.955 33.4582 125.031C33.4582 125.107 33.4519 125.164 33.4456 125.221C33.4329 125.272 33.4203 125.316 33.4076 125.354C33.3886 125.386 33.3696 125.411 33.3443 125.43C33.319 125.449 33.2873 125.455 33.2557 125.455H30.2362V127.873H32.8252C32.8569 127.873 32.8885 127.88 32.9138 127.899C32.9392 127.918 32.9582 127.943 32.9772 127.975C32.9961 128.006 33.0088 128.051 33.0151 128.108C33.0215 128.165 33.0278 128.228 33.0278 128.304C33.0278 128.38 33.0215 128.437 33.0151 128.487C33.0088 128.538 32.9961 128.582 32.9772 128.614C32.9582 128.646 32.9392 128.671 32.9138 128.684C32.8885 128.696 32.8569 128.703 32.8252 128.703H30.2362V131.463H33.3C33.3316 131.463 33.3633 131.469 33.3886 131.488C33.4139 131.507 33.4392 131.526 33.4582 131.564C33.4772 131.595 33.4899 131.646 33.4962 131.697C33.5025 131.747 33.5089 131.817 33.5089 131.893V131.88ZM39.9339 125.031C39.9339 125.107 39.9276 125.17 39.9212 125.227C39.9149 125.284 39.9022 125.329 39.8832 125.36C39.8643 125.392 39.8453 125.417 39.8199 125.436C39.7946 125.455 39.763 125.462 39.7377 125.462H37.5728V132.152C37.5728 132.184 37.5664 132.209 37.5474 132.235C37.5285 132.26 37.5031 132.279 37.4652 132.292C37.4272 132.304 37.3765 132.317 37.3069 132.33C37.2373 132.342 37.1613 132.342 37.06 132.342C36.9651 132.342 36.8828 132.336 36.8132 132.33C36.7435 132.317 36.6929 132.304 36.6549 132.292C36.6169 132.279 36.5853 132.26 36.5726 132.235C36.5536 132.209 36.5473 132.184 36.5473 132.152V125.462H34.3824C34.3508 125.462 34.3255 125.455 34.2938 125.436C34.2685 125.424 34.2495 125.398 34.2305 125.36C34.2178 125.329 34.1989 125.278 34.1925 125.227C34.1799 125.17 34.1799 125.107 34.1799 125.031C34.1799 124.955 34.1862 124.892 34.1925 124.835C34.2052 124.778 34.2178 124.734 34.2305 124.696C34.2495 124.658 34.2685 124.632 34.2938 124.62C34.3191 124.601 34.3508 124.594 34.3824 124.594H39.7377C39.7693 124.594 39.7946 124.601 39.8199 124.62C39.8453 124.632 39.8643 124.658 39.8832 124.696C39.9022 124.727 39.9149 124.778 39.9212 124.835C39.9276 124.892 39.9339 124.962 39.9339 125.031V125.031ZM46.8336 132.152C46.8336 132.184 46.8273 132.209 46.8083 132.235C46.7893 132.254 46.764 132.273 46.726 132.292C46.6881 132.304 46.6311 132.317 46.5678 132.323C46.4982 132.33 46.4222 132.336 46.3209 132.336C46.226 132.336 46.1437 132.33 46.074 132.323C46.0044 132.317 45.9538 132.304 45.9158 132.292C45.8778 132.273 45.8525 132.254 45.8335 132.235C45.8145 132.209 45.8082 132.184 45.8082 132.152V127.095C45.8082 126.968 45.8082 126.842 45.8145 126.709C45.8208 126.576 45.8272 126.455 45.8335 126.348H45.8208C45.7892 126.405 45.7512 126.462 45.7196 126.525C45.6816 126.588 45.6373 126.658 45.5993 126.721C45.555 126.791 45.5107 126.861 45.4664 126.93C45.422 127 45.3777 127.069 45.3334 127.133L41.9975 132.152C41.9722 132.184 41.9468 132.209 41.9279 132.235C41.9025 132.26 41.8709 132.279 41.8329 132.292C41.7949 132.304 41.7506 132.317 41.7 132.323C41.6493 132.33 41.586 132.33 41.5037 132.33C41.4151 132.33 41.3392 132.323 41.2822 132.317C41.2252 132.311 41.1809 132.298 41.1429 132.279C41.1113 132.26 41.086 132.241 41.0733 132.216C41.0606 132.19 41.0543 132.165 41.0543 132.127V124.734C41.0543 124.708 41.0606 124.677 41.0796 124.658C41.0986 124.632 41.1303 124.613 41.1682 124.594C41.2126 124.582 41.2632 124.569 41.3265 124.563C41.3898 124.556 41.4721 124.55 41.5607 124.55C41.662 124.55 41.7443 124.556 41.8076 124.563C41.8709 124.569 41.9278 124.582 41.9658 124.594C42.0038 124.613 42.0355 124.632 42.0481 124.658C42.0671 124.683 42.0734 124.708 42.0734 124.734V129.823C42.0734 129.931 42.0734 130.045 42.0734 130.171C42.0734 130.298 42.0608 130.412 42.0481 130.532H42.0608C42.1241 130.431 42.2 130.31 42.2823 130.171C42.3646 130.032 42.4596 129.886 42.5545 129.747L45.8841 124.721C45.9031 124.696 45.9284 124.67 45.9474 124.645C45.9728 124.626 46.0044 124.607 46.0424 124.594C46.0804 124.582 46.1247 124.569 46.1753 124.563C46.226 124.556 46.2956 124.55 46.3716 124.55C46.4602 124.55 46.5361 124.556 46.5931 124.563C46.6501 124.569 46.7007 124.582 46.7324 124.601C46.764 124.62 46.7893 124.639 46.8083 124.658C46.821 124.683 46.8273 124.708 46.8273 124.746V132.146L46.8336 132.152ZM57.2656 132.146C57.2656 132.178 57.2593 132.209 57.2403 132.228C57.2213 132.254 57.1959 132.273 57.158 132.285C57.12 132.298 57.063 132.311 56.9997 132.323C56.9364 132.336 56.8541 132.336 56.7528 132.336C56.6579 132.336 56.5756 132.33 56.506 132.323C56.4363 132.311 56.3857 132.298 56.3477 132.285C56.3097 132.273 56.2781 132.254 56.2654 132.228C56.2464 132.203 56.2401 132.178 56.2401 132.146V125.43H56.2274L53.5119 132.178C53.4992 132.209 53.4802 132.228 53.4612 132.247C53.4359 132.266 53.4042 132.285 53.3663 132.298C53.322 132.311 53.2776 132.323 53.2143 132.33C53.1574 132.336 53.0877 132.336 53.0118 132.336C52.9295 132.336 52.8599 132.33 52.7966 132.323C52.7396 132.317 52.6889 132.304 52.651 132.292C52.613 132.279 52.5813 132.26 52.556 132.241C52.537 132.222 52.518 132.203 52.5117 132.178L49.9101 125.43H49.9037V132.146C49.9037 132.178 49.8974 132.209 49.8784 132.228C49.8594 132.254 49.8341 132.273 49.7961 132.285C49.7581 132.298 49.7012 132.311 49.6379 132.323C49.5746 132.336 49.4923 132.336 49.3847 132.336C49.2834 132.336 49.2011 132.33 49.1378 132.323C49.0745 132.311 49.0175 132.298 48.9795 132.285C48.9416 132.273 48.9162 132.254 48.8972 132.228C48.8846 132.203 48.8719 132.178 48.8719 132.146V125.056C48.8719 124.886 48.9162 124.772 49.0049 124.696C49.0935 124.626 49.1948 124.588 49.3024 124.588H49.9354C50.062 124.588 50.1759 124.601 50.2709 124.626C50.3658 124.651 50.4544 124.689 50.5241 124.74C50.6 124.791 50.657 124.86 50.7076 124.936C50.7583 125.019 50.7963 125.107 50.8342 125.215L53.0434 130.798H53.0751L55.3666 125.227C55.4109 125.107 55.4615 125.006 55.5122 124.924C55.5628 124.841 55.6198 124.772 55.6831 124.727C55.7464 124.677 55.816 124.645 55.892 124.62C55.9679 124.594 56.0565 124.588 56.1578 124.588H56.8161C56.8731 124.588 56.9364 124.594 56.9871 124.613C57.0377 124.632 57.0883 124.658 57.1263 124.696C57.1643 124.734 57.1959 124.778 57.2213 124.841C57.2466 124.898 57.2593 124.968 57.2593 125.05V132.14L57.2656 132.146ZM67.6152 132.152C67.6152 132.184 67.6089 132.209 67.5899 132.235C67.5709 132.254 67.5456 132.273 67.5076 132.292C67.4696 132.304 67.419 132.317 67.3494 132.323C67.2797 132.33 67.2038 132.336 67.1025 132.336C67.0075 132.336 66.9252 132.33 66.8556 132.323C66.786 132.317 66.7353 132.304 66.6974 132.292C66.6594 132.273 66.6341 132.254 66.6151 132.235C66.5961 132.209 66.5898 132.184 66.5898 132.152V125.481H63.1019V132.152C63.1019 132.184 63.0956 132.209 63.0766 132.235C63.0576 132.254 63.0323 132.273 62.9943 132.292C62.9563 132.304 62.9057 132.317 62.8424 132.323C62.7727 132.33 62.6968 132.336 62.5955 132.336C62.4942 132.336 62.4119 132.33 62.3486 132.323C62.2853 132.317 62.2283 132.304 62.1904 132.292C62.1524 132.273 62.1207 132.254 62.1081 132.235C62.0891 132.209 62.0828 132.184 62.0828 132.152V125.006C62.0828 124.867 62.1144 124.759 62.184 124.696C62.2537 124.626 62.3423 124.594 62.4499 124.594H67.2607C67.3747 124.594 67.457 124.626 67.5203 124.696C67.5836 124.765 67.6152 124.873 67.6152 125.006V132.152V132.152ZM74.3947 126.848C74.3947 127.234 74.3314 127.582 74.2048 127.892C74.0782 128.203 73.901 128.468 73.6604 128.684C73.4262 128.899 73.135 129.07 72.7932 129.19C72.4514 129.31 72.0399 129.367 71.5652 129.367H70.6916V132.14C70.6916 132.171 70.6853 132.203 70.6663 132.222C70.6473 132.247 70.622 132.266 70.584 132.279C70.546 132.292 70.4954 132.304 70.4321 132.317C70.3625 132.33 70.2865 132.33 70.1852 132.33C70.0839 132.33 70.0017 132.323 69.9384 132.317C69.8751 132.304 69.8181 132.292 69.7801 132.279C69.7421 132.266 69.7105 132.247 69.6978 132.222C69.6788 132.197 69.6725 132.171 69.6725 132.14V125.025C69.6725 124.867 69.7168 124.753 69.7991 124.683C69.8814 124.613 69.9763 124.582 70.0776 124.582H71.7298C71.8943 124.582 72.0589 124.588 72.2108 124.601C72.3628 124.613 72.5463 124.645 72.7489 124.689C72.9578 124.734 73.173 124.822 73.3882 124.943C73.6035 125.069 73.787 125.221 73.9389 125.405C74.0909 125.588 74.2048 125.797 74.2871 126.038C74.3694 126.278 74.4074 126.544 74.4074 126.835L74.3947 126.848ZM73.3186 126.93C73.3186 126.614 73.2616 126.354 73.1414 126.139C73.0211 125.93 72.8818 125.772 72.7046 125.664C72.5337 125.563 72.3501 125.493 72.1729 125.468C71.9893 125.436 71.8057 125.424 71.6348 125.424H70.6853V128.525H71.6095C71.9197 128.525 72.1792 128.487 72.3818 128.405C72.5843 128.323 72.7552 128.215 72.9008 128.076C73.0401 127.937 73.1477 127.766 73.2173 127.57C73.287 127.373 73.3249 127.158 73.3249 126.924L73.3186 126.93ZM81.7439 132.152C81.7439 132.184 81.7376 132.209 81.7186 132.235C81.6996 132.254 81.6743 132.273 81.6363 132.292C81.5983 132.304 81.5413 132.317 81.478 132.323C81.4084 132.33 81.3325 132.336 81.2312 132.336C81.1362 132.336 81.0539 132.33 80.9843 132.323C80.9147 132.317 80.864 132.304 80.826 132.292C80.7881 132.273 80.7628 132.254 80.7438 132.235C80.7248 132.209 80.7184 132.184 80.7184 132.152V127.095C80.7184 126.968 80.7184 126.842 80.7248 126.709C80.7311 126.576 80.7374 126.455 80.7438 126.348H80.7311C80.6994 126.405 80.6615 126.462 80.6298 126.525C80.5918 126.588 80.5475 126.658 80.5095 126.721C80.4652 126.791 80.4209 126.861 80.3766 126.93C80.3323 127 80.288 127.069 80.2437 127.133L76.9077 132.152C76.8824 132.184 76.8571 132.209 76.8381 132.235C76.8128 132.26 76.7811 132.279 76.7432 132.292C76.7052 132.304 76.6609 132.317 76.6102 132.323C76.5596 132.33 76.4963 132.33 76.414 132.33C76.3254 132.33 76.2494 132.323 76.1924 132.317C76.1355 132.311 76.0912 132.298 76.0532 132.279C76.0215 132.26 75.9962 132.241 75.9836 132.216C75.9709 132.19 75.9646 132.165 75.9646 132.127V124.734C75.9646 124.708 75.9709 124.677 75.9899 124.658C76.0089 124.632 76.0405 124.613 76.0785 124.594C76.1228 124.582 76.1735 124.569 76.2368 124.563C76.3001 124.556 76.3824 124.55 76.471 124.55C76.5723 124.55 76.6545 124.556 76.7178 124.563C76.7811 124.569 76.8381 124.582 76.8761 124.594C76.9141 124.613 76.9457 124.632 76.9584 124.658C76.9774 124.683 76.9837 124.708 76.9837 124.734V129.823C76.9837 129.931 76.9837 130.045 76.9837 130.171C76.9837 130.298 76.971 130.412 76.9584 130.532H76.971C77.0343 130.431 77.1103 130.31 77.1926 130.171C77.2749 130.032 77.3698 129.886 77.4648 129.747L80.7944 124.721C80.8134 124.696 80.8387 124.67 80.8577 124.645C80.883 124.626 80.9147 124.607 80.9527 124.594C80.9906 124.582 81.0349 124.569 81.0856 124.563C81.1362 124.556 81.2059 124.55 81.2818 124.55C81.3704 124.55 81.4464 124.556 81.5034 124.563C81.5603 124.569 81.611 124.582 81.6426 124.601C81.6743 124.62 81.6996 124.639 81.7186 124.658C81.7313 124.683 81.7376 124.708 81.7376 124.746V132.146L81.7439 132.152ZM91.9416 132.152C91.9416 132.184 91.9353 132.209 91.9163 132.235C91.8973 132.254 91.872 132.273 91.834 132.292C91.796 132.304 91.7454 132.317 91.6758 132.323C91.6061 132.33 91.5302 132.336 91.4289 132.336C91.3276 132.336 91.2453 132.33 91.182 132.323C91.1187 132.317 91.0618 132.304 91.0238 132.292C90.9858 132.273 90.9541 132.254 90.9415 132.235C90.9225 132.209 90.9162 132.184 90.9162 132.152V125.468H88.7576C88.65 126.386 88.5424 127.196 88.4348 127.899C88.3272 128.601 88.2132 129.203 88.093 129.722C87.9727 130.234 87.8398 130.665 87.7005 131.007C87.5549 131.349 87.3903 131.621 87.2067 131.83C87.0232 132.039 86.8143 132.184 86.5801 132.273C86.3459 132.361 86.08 132.399 85.7825 132.399C85.7445 132.399 85.7065 132.393 85.6749 132.374C85.6432 132.355 85.6179 132.336 85.5926 132.298C85.5673 132.26 85.5546 132.216 85.5419 132.159C85.5293 132.102 85.5293 132.032 85.5293 131.956C85.5293 131.855 85.5356 131.773 85.5419 131.709C85.5546 131.646 85.5673 131.595 85.5799 131.551C85.5989 131.513 85.6179 131.481 85.6432 131.469C85.6685 131.45 85.7002 131.444 85.7318 131.444C85.8774 131.444 86.0167 131.412 86.1433 131.355C86.2762 131.298 86.3965 131.184 86.5168 131.019C86.637 130.855 86.751 130.621 86.8586 130.329C86.9662 130.032 87.0738 129.646 87.1751 129.171C87.2764 128.696 87.3777 128.12 87.4789 127.449C87.5739 126.772 87.6752 125.974 87.7701 125.05C87.7891 124.886 87.8271 124.765 87.8904 124.696C87.9474 124.626 88.036 124.594 88.1499 124.594H91.5745C91.6884 124.594 91.7707 124.626 91.834 124.696C91.8973 124.765 91.929 124.873 91.929 125.006V132.152H91.9416ZM103.114 128.386C103.114 129.013 103.045 129.576 102.905 130.076C102.766 130.576 102.551 130.994 102.266 131.342C101.981 131.69 101.627 131.95 101.202 132.14C100.778 132.323 100.278 132.418 99.7086 132.418C99.1706 132.418 98.6958 132.33 98.2907 132.159C97.8856 131.982 97.5501 131.735 97.2842 131.412C97.0183 131.089 96.8094 130.703 96.6765 130.253C96.5372 129.804 96.4676 129.298 96.455 128.734H95.0244V132.159C95.0244 132.19 95.018 132.216 94.999 132.241C94.9801 132.26 94.9547 132.279 94.9168 132.298C94.8788 132.311 94.8281 132.323 94.7585 132.33C94.6889 132.336 94.6129 132.342 94.5116 132.342C94.4167 132.342 94.3344 132.336 94.2648 132.33C94.1951 132.323 94.1445 132.311 94.1065 132.298C94.0685 132.279 94.0369 132.26 94.0242 132.241C94.0052 132.216 93.9989 132.19 93.9989 132.159V124.746C93.9989 124.721 94.0052 124.689 94.0242 124.67C94.0432 124.645 94.0749 124.626 94.1128 124.607C94.1572 124.594 94.2078 124.582 94.2711 124.575C94.3344 124.569 94.4167 124.563 94.5053 124.563C94.6066 124.563 94.6889 124.569 94.7522 124.575C94.8155 124.582 94.8724 124.594 94.9104 124.607C94.9484 124.626 94.9801 124.645 94.9927 124.67C95.0117 124.696 95.018 124.721 95.018 124.746V127.867H96.4613C96.5056 127.361 96.6069 126.899 96.7651 126.481C96.9234 126.063 97.1386 125.708 97.4108 125.417C97.683 125.12 98.0248 124.892 98.4236 124.734C98.8224 124.569 99.2908 124.487 99.8162 124.487C100.354 124.487 100.835 124.575 101.24 124.746C101.652 124.917 101.994 125.17 102.272 125.506C102.551 125.835 102.753 126.247 102.899 126.734C103.038 127.221 103.108 127.772 103.108 128.399L103.114 128.386ZM102.025 128.456C102.025 128.019 101.987 127.614 101.911 127.234C101.836 126.861 101.709 126.531 101.532 126.247C101.354 125.968 101.12 125.746 100.829 125.588C100.538 125.43 100.183 125.348 99.7592 125.348C99.3161 125.348 98.949 125.43 98.6578 125.601C98.3666 125.772 98.1324 125.993 97.9552 126.278C97.7843 126.563 97.6577 126.886 97.588 127.253C97.5184 127.62 97.4804 128.013 97.4804 128.418C97.4804 128.684 97.4931 128.943 97.5247 129.203C97.5501 129.456 97.6007 129.703 97.6703 129.931C97.74 130.159 97.8286 130.374 97.9425 130.564C98.0565 130.76 98.1957 130.924 98.3666 131.064C98.5375 131.203 98.7338 131.317 98.9617 131.393C99.1895 131.475 99.4554 131.513 99.7592 131.513C100.19 131.513 100.551 131.431 100.842 131.266C101.133 131.102 101.367 130.88 101.538 130.602C101.715 130.323 101.836 130 101.911 129.627C101.987 129.26 102.019 128.861 102.019 128.449L102.025 128.456ZM109.799 130.007C109.799 130.304 109.754 130.589 109.659 130.867C109.564 131.146 109.413 131.387 109.204 131.595C108.995 131.804 108.723 131.975 108.374 132.102C108.026 132.228 107.558 132.298 106.963 132.298H105.102C105.007 132.298 104.918 132.266 104.842 132.209C104.76 132.146 104.722 132.039 104.722 131.88V125.006C104.722 124.854 104.76 124.746 104.842 124.683C104.925 124.62 105.007 124.594 105.102 124.594H109.102C109.134 124.594 109.172 124.601 109.197 124.62C109.229 124.639 109.248 124.658 109.267 124.696C109.286 124.734 109.299 124.778 109.305 124.829C109.311 124.879 109.318 124.949 109.318 125.025C109.318 125.101 109.311 125.164 109.305 125.215C109.299 125.272 109.286 125.316 109.267 125.354C109.248 125.386 109.229 125.411 109.204 125.43C109.178 125.449 109.147 125.455 109.115 125.455H105.76V127.873H107.172C107.653 127.873 108.052 127.924 108.368 128.019C108.678 128.12 108.944 128.259 109.159 128.449C109.375 128.639 109.539 128.861 109.647 129.127C109.761 129.393 109.811 129.684 109.811 130.013L109.799 130.007ZM108.735 130.076C108.735 129.861 108.704 129.665 108.634 129.494C108.564 129.323 108.463 129.177 108.33 129.057C108.197 128.937 108.033 128.848 107.83 128.779C107.628 128.715 107.362 128.684 107.026 128.684H105.741V131.463H107.058C107.374 131.463 107.634 131.431 107.836 131.368C108.039 131.304 108.204 131.209 108.33 131.089C108.457 130.969 108.558 130.823 108.628 130.652C108.697 130.481 108.729 130.291 108.729 130.07L108.735 130.076ZM117.737 128.354C117.737 128.981 117.661 129.538 117.515 130.038C117.369 130.538 117.148 130.962 116.857 131.317C116.566 131.665 116.198 131.937 115.755 132.127C115.312 132.317 114.799 132.412 114.211 132.412C113.628 132.412 113.128 132.33 112.711 132.152C112.286 131.982 111.938 131.728 111.66 131.399C111.381 131.07 111.179 130.659 111.046 130.171C110.906 129.684 110.843 129.12 110.843 128.487C110.843 127.88 110.919 127.329 111.065 126.829C111.21 126.335 111.432 125.911 111.729 125.563C112.021 125.215 112.388 124.949 112.831 124.759C113.268 124.569 113.787 124.474 114.375 124.474C114.945 124.474 115.439 124.563 115.857 124.727C116.281 124.898 116.629 125.145 116.907 125.474C117.186 125.803 117.395 126.209 117.534 126.69C117.673 127.171 117.737 127.728 117.737 128.348V128.354ZM116.648 128.424C116.648 127.987 116.61 127.582 116.534 127.209C116.458 126.835 116.331 126.506 116.148 126.234C115.964 125.962 115.724 125.746 115.426 125.588C115.122 125.436 114.749 125.354 114.306 125.354C113.863 125.354 113.489 125.436 113.185 125.607C112.881 125.772 112.641 125.993 112.451 126.272C112.261 126.55 112.128 126.873 112.046 127.247C111.964 127.614 111.926 128.006 111.926 128.411C111.926 128.867 111.964 129.279 112.04 129.658C112.116 130.038 112.242 130.367 112.419 130.646C112.597 130.918 112.837 131.133 113.135 131.285C113.432 131.437 113.812 131.513 114.261 131.513C114.711 131.513 115.084 131.431 115.394 131.26C115.698 131.095 115.945 130.867 116.135 130.583C116.319 130.298 116.452 129.969 116.534 129.595C116.616 129.222 116.654 128.829 116.654 128.411L116.648 128.424Z" fill="#F4721F"/>
<path d="M125.149 132.165C125.149 132.196 125.143 132.222 125.124 132.247C125.105 132.266 125.08 132.285 125.042 132.304C125.004 132.317 124.947 132.329 124.883 132.336C124.814 132.342 124.738 132.348 124.636 132.348C124.542 132.348 124.459 132.342 124.39 132.336C124.32 132.329 124.269 132.317 124.231 132.304C124.193 132.285 124.168 132.266 124.149 132.247C124.13 132.222 124.124 132.196 124.124 132.165V127.107C124.124 126.98 124.124 126.854 124.13 126.721C124.136 126.588 124.143 126.468 124.149 126.36H124.136C124.105 126.417 124.067 126.474 124.035 126.537C123.997 126.601 123.953 126.67 123.915 126.734C123.871 126.803 123.826 126.873 123.782 126.942C123.738 127.012 123.693 127.082 123.649 127.145L120.313 132.165C120.288 132.196 120.262 132.222 120.243 132.247C120.218 132.272 120.186 132.291 120.148 132.304C120.11 132.317 120.066 132.329 120.016 132.336C119.965 132.342 119.902 132.342 119.819 132.342C119.731 132.342 119.655 132.336 119.598 132.329C119.541 132.323 119.496 132.31 119.458 132.291C119.427 132.272 119.402 132.253 119.389 132.228C119.376 132.203 119.37 132.177 119.37 132.139V124.746C119.37 124.721 119.376 124.689 119.395 124.67C119.414 124.645 119.446 124.626 119.484 124.607C119.528 124.594 119.579 124.581 119.642 124.575C119.705 124.569 119.788 124.562 119.876 124.562C119.978 124.562 120.06 124.569 120.123 124.575C120.186 124.581 120.243 124.594 120.281 124.607C120.319 124.626 120.351 124.645 120.364 124.67C120.383 124.695 120.389 124.721 120.389 124.746V129.835C120.389 129.943 120.389 130.057 120.389 130.183C120.389 130.31 120.376 130.424 120.364 130.544H120.376C120.44 130.443 120.516 130.323 120.598 130.183C120.68 130.044 120.775 129.899 120.87 129.759L124.2 124.733C124.219 124.708 124.244 124.683 124.263 124.657C124.288 124.638 124.32 124.619 124.358 124.607C124.396 124.594 124.44 124.581 124.491 124.575C124.542 124.569 124.611 124.562 124.687 124.562C124.776 124.562 124.852 124.569 124.909 124.575C124.966 124.581 125.016 124.594 125.048 124.613C125.08 124.632 125.105 124.651 125.124 124.67C125.137 124.695 125.143 124.721 125.143 124.759V132.158L125.149 132.165ZM124.149 122.594C124.149 122.796 124.117 122.992 124.048 123.176C123.978 123.366 123.871 123.531 123.725 123.67C123.579 123.809 123.389 123.923 123.155 124.012C122.927 124.094 122.643 124.138 122.313 124.138C122.01 124.138 121.744 124.1 121.516 124.031C121.288 123.955 121.092 123.853 120.94 123.714C120.788 123.575 120.674 123.41 120.592 123.227C120.516 123.037 120.478 122.828 120.478 122.6C120.478 122.562 120.484 122.524 120.497 122.499C120.509 122.467 120.535 122.448 120.579 122.429C120.617 122.416 120.668 122.404 120.725 122.397C120.788 122.391 120.864 122.385 120.946 122.385C121.041 122.385 121.117 122.391 121.174 122.397C121.231 122.41 121.275 122.423 121.301 122.442C121.332 122.461 121.351 122.486 121.364 122.518C121.376 122.549 121.376 122.587 121.376 122.632C121.376 122.733 121.395 122.828 121.433 122.923C121.471 123.018 121.535 123.1 121.617 123.176C121.699 123.252 121.794 123.309 121.915 123.353C122.028 123.398 122.161 123.417 122.313 123.417C122.459 123.417 122.592 123.391 122.706 123.353C122.82 123.309 122.915 123.252 122.997 123.176C123.079 123.1 123.136 123.018 123.174 122.923C123.212 122.828 123.231 122.72 123.231 122.613C123.231 122.581 123.238 122.543 123.244 122.518C123.257 122.486 123.276 122.467 123.307 122.448C123.339 122.429 123.377 122.416 123.434 122.404C123.484 122.391 123.56 122.391 123.649 122.391C123.744 122.391 123.826 122.397 123.883 122.404C123.946 122.41 123.991 122.423 124.029 122.435C124.067 122.454 124.092 122.473 124.111 122.505C124.13 122.53 124.136 122.568 124.136 122.606L124.149 122.594ZM135.493 132.165C135.493 132.196 135.486 132.222 135.467 132.247C135.448 132.266 135.423 132.285 135.385 132.304C135.347 132.317 135.296 132.329 135.227 132.336C135.157 132.342 135.081 132.348 134.98 132.348C134.885 132.348 134.803 132.342 134.733 132.336C134.663 132.329 134.613 132.317 134.575 132.304C134.537 132.285 134.511 132.266 134.492 132.247C134.473 132.222 134.467 132.196 134.467 132.165V125.493H130.979V132.165C130.979 132.196 130.973 132.222 130.954 132.247C130.935 132.266 130.91 132.285 130.872 132.304C130.834 132.317 130.783 132.329 130.72 132.336C130.65 132.342 130.574 132.348 130.473 132.348C130.372 132.348 130.289 132.342 130.226 132.336C130.163 132.329 130.106 132.317 130.068 132.304C130.03 132.285 129.998 132.266 129.985 132.247C129.966 132.222 129.96 132.196 129.96 132.165V125.018C129.96 124.879 129.992 124.771 130.061 124.708C130.131 124.638 130.22 124.607 130.327 124.607H135.138C135.252 124.607 135.334 124.638 135.398 124.708C135.461 124.778 135.493 124.885 135.493 125.018V132.165V132.165ZM143.994 128.367C143.994 128.993 143.918 129.55 143.772 130.05C143.627 130.551 143.405 130.975 143.114 131.329C142.823 131.677 142.456 131.949 142.012 132.139C141.569 132.329 141.057 132.424 140.468 132.424C139.886 132.424 139.386 132.342 138.968 132.165C138.544 131.994 138.195 131.741 137.917 131.411C137.638 131.082 137.436 130.671 137.303 130.183C137.164 129.696 137.1 129.133 137.1 128.5C137.1 127.892 137.176 127.341 137.322 126.841C137.468 126.347 137.689 125.923 137.987 125.575C138.278 125.227 138.645 124.961 139.088 124.771C139.525 124.581 140.044 124.486 140.633 124.486C141.202 124.486 141.696 124.575 142.114 124.74C142.538 124.91 142.886 125.157 143.165 125.486C143.443 125.816 143.652 126.221 143.791 126.702C143.93 127.183 143.994 127.74 143.994 128.36V128.367ZM142.905 128.436C142.905 128 142.867 127.594 142.791 127.221C142.715 126.847 142.589 126.518 142.405 126.246C142.221 125.974 141.981 125.759 141.683 125.6C141.379 125.449 141.006 125.366 140.563 125.366C140.12 125.366 139.746 125.449 139.442 125.619C139.139 125.784 138.898 126.006 138.708 126.284C138.518 126.563 138.385 126.885 138.303 127.259C138.221 127.626 138.183 128.019 138.183 128.424C138.183 128.879 138.221 129.291 138.297 129.671C138.373 130.05 138.499 130.38 138.677 130.658C138.854 130.93 139.094 131.146 139.392 131.297C139.689 131.449 140.069 131.525 140.519 131.525C140.968 131.525 141.341 131.443 141.652 131.272C141.956 131.108 142.202 130.88 142.392 130.595C142.576 130.31 142.709 129.981 142.791 129.607C142.873 129.234 142.911 128.841 142.911 128.424L142.905 128.436ZM149.754 125.043C149.754 125.119 149.748 125.183 149.741 125.24C149.735 125.297 149.722 125.341 149.704 125.379C149.685 125.417 149.666 125.442 149.64 125.455C149.615 125.474 149.583 125.48 149.558 125.48H146.646V132.165C146.646 132.196 146.64 132.222 146.621 132.247C146.602 132.266 146.576 132.285 146.538 132.304C146.5 132.317 146.45 132.329 146.38 132.336C146.311 132.342 146.235 132.348 146.133 132.348C146.038 132.348 145.956 132.342 145.886 132.336C145.817 132.329 145.766 132.317 145.728 132.304C145.69 132.285 145.659 132.266 145.646 132.247C145.627 132.222 145.621 132.196 145.621 132.165V125.018C145.621 124.879 145.659 124.771 145.728 124.708C145.804 124.638 145.893 124.607 146 124.607H149.558C149.628 124.607 149.678 124.645 149.71 124.714C149.741 124.784 149.76 124.898 149.76 125.05L149.754 125.043ZM156.92 128.367C156.92 128.993 156.844 129.55 156.698 130.05C156.553 130.551 156.331 130.975 156.04 131.329C155.749 131.677 155.382 131.949 154.938 132.139C154.495 132.329 153.983 132.424 153.394 132.424C152.812 132.424 152.311 132.342 151.894 132.165C151.47 131.994 151.121 131.741 150.843 131.411C150.564 131.082 150.362 130.671 150.229 130.183C150.09 129.696 150.026 129.133 150.026 128.5C150.026 127.892 150.102 127.341 150.248 126.841C150.393 126.347 150.615 125.923 150.913 125.575C151.204 125.227 151.571 124.961 152.014 124.771C152.451 124.581 152.97 124.486 153.559 124.486C154.128 124.486 154.622 124.575 155.04 124.74C155.464 124.91 155.812 125.157 156.091 125.486C156.369 125.816 156.578 126.221 156.717 126.702C156.856 127.183 156.92 127.74 156.92 128.36V128.367ZM155.831 128.436C155.831 128 155.793 127.594 155.717 127.221C155.641 126.847 155.514 126.518 155.331 126.246C155.147 125.974 154.907 125.759 154.609 125.6C154.305 125.449 153.932 125.366 153.489 125.366C153.046 125.366 152.672 125.449 152.368 125.619C152.065 125.784 151.824 126.006 151.634 126.284C151.444 126.563 151.311 126.885 151.229 127.259C151.147 127.626 151.109 128.019 151.109 128.424C151.109 128.879 151.147 129.291 151.223 129.671C151.299 130.05 151.425 130.38 151.603 130.658C151.78 130.93 152.02 131.146 152.318 131.297C152.615 131.449 152.995 131.525 153.445 131.525C153.894 131.525 154.267 131.443 154.578 131.272C154.881 131.108 155.128 130.88 155.318 130.595C155.502 130.31 155.635 129.981 155.717 129.607C155.799 129.234 155.837 128.841 155.837 128.424L155.831 128.436ZM164.801 134.184C164.801 134.216 164.794 134.241 164.782 134.26C164.769 134.279 164.75 134.298 164.712 134.311C164.68 134.323 164.636 134.33 164.579 134.342C164.522 134.349 164.446 134.355 164.351 134.355C164.269 134.355 164.206 134.349 164.149 134.342C164.092 134.336 164.047 134.323 164.016 134.311C163.984 134.298 163.959 134.279 163.94 134.26C163.927 134.241 163.921 134.216 163.921 134.184V132.31H158.11V134.184C158.11 134.216 158.103 134.241 158.091 134.26C158.078 134.279 158.053 134.298 158.021 134.311C157.99 134.323 157.939 134.33 157.888 134.342C157.831 134.349 157.762 134.355 157.679 134.355C157.591 134.355 157.515 134.349 157.458 134.342C157.401 134.336 157.357 134.323 157.325 134.311C157.293 134.298 157.268 134.279 157.255 134.26C157.243 134.241 157.236 134.216 157.236 134.184V131.741C157.23 131.639 157.243 131.563 157.281 131.513C157.319 131.468 157.382 131.443 157.464 131.443H157.914C158.028 131.304 158.129 131.152 158.224 131.006C158.319 130.861 158.414 130.683 158.496 130.481C158.585 130.278 158.667 130.031 158.749 129.74C158.831 129.449 158.914 129.095 158.996 128.664C159.078 128.24 159.161 127.727 159.243 127.132C159.325 126.537 159.414 125.835 159.502 125.018C159.528 124.879 159.566 124.771 159.623 124.702C159.68 124.632 159.762 124.6 159.87 124.6H163.427C163.535 124.6 163.623 124.632 163.687 124.702C163.75 124.771 163.782 124.879 163.782 125.012V131.443H164.547C164.63 131.443 164.687 131.468 164.725 131.519C164.756 131.57 164.775 131.646 164.775 131.747V134.184H164.801ZM162.775 125.48H160.49C160.408 126.214 160.325 126.86 160.243 127.405C160.161 127.949 160.078 128.43 160.003 128.835C159.927 129.24 159.844 129.582 159.768 129.867C159.686 130.145 159.61 130.386 159.521 130.582C159.439 130.778 159.357 130.943 159.268 131.076C159.18 131.215 159.091 131.335 159.002 131.443H162.775V125.474V125.48ZM170.39 131.886C170.39 131.962 170.384 132.025 170.377 132.076C170.371 132.127 170.352 132.171 170.339 132.209C170.32 132.247 170.295 132.272 170.27 132.285C170.245 132.304 170.213 132.31 170.181 132.31H166.478C166.39 132.31 166.301 132.279 166.219 132.222C166.136 132.158 166.098 132.051 166.098 131.899V125.018C166.098 124.866 166.136 124.759 166.219 124.695C166.301 124.632 166.39 124.607 166.478 124.607H170.137C170.169 124.607 170.2 124.613 170.226 124.632C170.251 124.651 170.27 124.67 170.289 124.708C170.302 124.746 170.321 124.79 170.327 124.841C170.339 124.891 170.339 124.961 170.339 125.037C170.339 125.113 170.333 125.17 170.327 125.227C170.314 125.278 170.302 125.322 170.289 125.36C170.27 125.392 170.251 125.417 170.226 125.436C170.2 125.455 170.169 125.461 170.137 125.461H167.117V127.879H169.706C169.738 127.879 169.77 127.886 169.795 127.905C169.82 127.924 169.839 127.949 169.858 127.981C169.877 128.012 169.89 128.056 169.896 128.113C169.903 128.17 169.909 128.234 169.909 128.31C169.909 128.386 169.903 128.443 169.896 128.493C169.89 128.544 169.877 128.588 169.858 128.62C169.839 128.652 169.82 128.677 169.795 128.69C169.77 128.702 169.738 128.708 169.706 128.708H167.117V131.468H170.181C170.213 131.468 170.245 131.475 170.27 131.494C170.295 131.513 170.32 131.532 170.339 131.57C170.358 131.601 170.371 131.652 170.377 131.703C170.384 131.753 170.39 131.823 170.39 131.899V131.886ZM176.435 130.095C176.435 130.126 176.429 130.152 176.41 130.177C176.397 130.202 176.372 130.221 176.334 130.24C176.296 130.253 176.252 130.266 176.195 130.272C176.138 130.278 176.068 130.285 175.986 130.285C175.904 130.285 175.834 130.278 175.777 130.272C175.72 130.266 175.676 130.253 175.638 130.24C175.6 130.221 175.574 130.202 175.562 130.177C175.549 130.152 175.543 130.126 175.543 130.095L175.442 124.404C175.435 124.353 175.442 124.315 175.461 124.277C175.479 124.246 175.505 124.214 175.549 124.189C175.587 124.164 175.644 124.151 175.714 124.138C175.783 124.126 175.872 124.126 175.986 124.126C176.094 124.126 176.182 124.132 176.252 124.145C176.321 124.157 176.378 124.176 176.416 124.195C176.461 124.22 176.486 124.246 176.505 124.284C176.524 124.315 176.53 124.36 176.53 124.404L176.429 130.095H176.435ZM176.619 131.696C176.619 131.829 176.606 131.937 176.587 132.019C176.568 132.108 176.537 132.171 176.486 132.228C176.435 132.285 176.372 132.317 176.29 132.342C176.207 132.367 176.113 132.374 175.986 132.374C175.859 132.374 175.758 132.361 175.676 132.342C175.593 132.317 175.53 132.285 175.479 132.228C175.429 132.177 175.397 132.108 175.385 132.019C175.366 131.937 175.353 131.823 175.353 131.696C175.353 131.563 175.366 131.456 175.385 131.367C175.404 131.278 175.435 131.209 175.479 131.158C175.524 131.108 175.593 131.07 175.676 131.051C175.758 131.025 175.859 131.019 175.986 131.019C176.113 131.019 176.207 131.032 176.29 131.051C176.372 131.076 176.435 131.108 176.486 131.158C176.537 131.209 176.568 131.278 176.587 131.367C176.606 131.456 176.619 131.563 176.619 131.696Z" fill="#F4721F"/>
</svg>
