<svg width="200" height="200" viewBox="0 0 200 200" fill="none" xmlns="http://www.w3.org/2000/svg">
<path fill-rule="evenodd" clip-rule="evenodd" d="M96.2745 113.294L99.6377 113.297L108.183 102.671L109.778 104.935L107.155 106.455L103.389 111.083L113.005 105.509L108.023 98.6843L96.2745 113.294Z" fill="#008DD2"/>
<path d="M92.619 113.294L94.5626 101.682H99.6142L100.255 97.8403H84.6947L84.0504 101.682H89.575L87.6283 113.294H92.619Z" fill="#E31E24"/>
<path d="M72.4414 104.992L72.8451 102.587C72.8999 102.257 73.0629 101.682 73.858 101.682H76.6172C77.1914 101.682 77.7634 101.682 78.1229 102.036C78.4656 102.366 78.4275 102.852 78.3635 103.248C78.2561 103.89 78.0269 104.331 77.7398 104.595C77.2463 105.039 76.634 104.992 76.0163 104.992H72.4414V104.992ZM71.0515 113.294L71.7971 108.834H78.3079C79.1495 108.834 80.333 108.613 81.1662 107.995C82.6573 106.87 83.1882 104.22 83.3687 103.138C83.7426 100.91 83.5278 99.6941 82.9277 98.9218C82.2225 97.9965 81.0999 97.8396 79.8639 97.8396H71.3219C70.2625 97.8396 69.5291 98.26 69.1369 98.6347C68.504 99.2325 68.2695 100.114 68.1621 100.756L66.0616 113.294H71.0523H71.0515Z" fill="#E31E24"/>
<path d="M53.7148 105.567C53.9296 104.287 54.0918 103.449 54.7795 102.63C55.6119 101.615 56.4916 101.504 57.771 101.504C59.0741 101.504 59.8715 101.615 60.3856 102.63C60.8379 103.491 60.6932 104.22 60.4693 105.567C60.2607 106.803 60.1182 107.665 59.4016 108.503C58.5486 109.518 57.7132 109.629 56.4101 109.629C55.1512 109.629 54.2891 109.518 53.7956 108.503C53.4186 107.732 53.5084 106.783 53.7141 105.567H53.7148ZM58.4153 97.6659C56.0735 97.6659 53.3059 97.7299 51.3935 99.253C49.4583 100.8 48.9389 103.492 48.5932 105.567C48.2505 107.598 47.8621 110.314 49.2778 111.88C50.6563 113.406 53.4704 113.473 55.7658 113.473C58.0612 113.473 60.8989 113.406 62.7876 111.88C64.7289 110.314 65.2483 107.598 65.5902 105.567C65.9352 103.492 66.3213 100.799 64.9025 99.253C63.5012 97.7299 60.7534 97.6659 58.4146 97.6659H58.4153Z" fill="#E31E24"/>
<path d="M41.5165 101.551C41.8036 101.551 42.0679 101.551 42.2537 101.772C42.4365 101.992 42.3839 102.299 42.3405 102.567L40.5417 113.294H45.5323L47.7463 100.072C47.8331 99.5638 47.8186 98.9896 47.4127 98.5052C46.8819 97.8639 46.1561 97.8411 45.2513 97.8411H35.583C34.8549 97.8411 33.9783 97.7977 33.1543 98.5052C32.5854 98.9896 32.3798 99.5646 32.2952 100.072L30.0782 113.294H35.0689L36.8647 102.567C36.9142 102.28 36.9607 101.992 37.2189 101.772C37.5029 101.528 37.7642 101.551 38.0284 101.551H41.5157H41.5165Z" fill="#E31E24"/>
<path d="M28.5353 113.294L29.1766 109.452H24.8965C23.24 109.452 21.8037 109.452 21.3452 108.24C21.2584 107.972 21.1099 107.401 21.4001 105.678C21.525 104.929 21.8037 103.67 22.3718 102.898C23.2652 101.662 24.4753 101.682 26.1089 101.682H30.2352L30.8795 97.8411H24.3451C22.6011 97.8411 20.3178 98.0414 18.5997 99.8516C17.2646 101.242 16.6965 103.185 16.2639 105.768C15.7681 108.724 15.9966 110.247 16.7338 111.397C17.7292 112.963 19.2844 113.294 21.6895 113.294H28.5346L28.5353 113.294Z" fill="#E31E24"/>
<path d="M125.853 112.989L126.491 109.182H122.246C120.604 109.182 119.179 109.182 118.724 107.978C118.637 107.713 118.492 107.145 118.779 105.436C118.904 104.693 119.176 103.445 119.742 102.679C120.627 101.452 121.828 101.472 123.447 101.472H127.541L128.18 97.6659H121.701C119.971 97.6659 117.706 97.8601 116.002 99.6567C114.676 101.037 114.113 102.964 113.684 105.523C113.193 108.46 113.419 109.969 114.151 111.109C115.137 112.661 116.681 112.989 119.066 112.989H125.852H125.853Z" fill="#008DD2"/>
<path d="M144.905 103.884C145.108 103.469 145.216 103.339 145.305 103.339C145.392 103.339 145.485 103.426 145.416 103.841L143.681 113.166H148.672L150.816 100.362C150.972 99.4221 150.981 97.6697 147.502 97.6697C146.187 97.6697 144.325 97.8235 143.135 100.208L139.415 107.65C139.348 107.804 139.015 108.349 138.841 108.349C138.664 108.349 138.516 107.804 138.498 107.65L137.271 100.208C136.882 97.8228 135.068 97.6697 133.777 97.6697C132.991 97.6697 130.014 97.6697 129.561 100.362L127.417 113.166H132.387L133.795 103.841C133.821 103.69 133.859 103.339 134.053 103.339C134.163 103.339 134.23 103.6 134.268 103.884L135.393 111.283C135.556 112.4 135.837 113.343 138.002 113.343C140.169 113.343 140.767 112.4 141.304 111.283L144.905 103.884V103.884ZM164.449 113.166L165.073 109.444H157.588C157.283 109.444 156.885 109.467 156.679 109.25C156.586 109.16 156.505 108.985 156.557 108.678L156.836 107.015H165.195L165.753 103.69H157.393L157.588 102.529C157.62 102.332 157.677 101.981 157.953 101.784C158.153 101.633 158.469 101.566 158.754 101.566H166.327L166.95 97.8464H155.942C155.393 97.8464 154.636 97.9332 153.978 98.4587C153.322 98.9842 153.128 99.6193 153.029 100.208L151.267 110.715C151.148 111.438 151.044 112.05 151.647 112.642C152.155 113.124 152.784 113.167 153.417 113.167H164.449L164.449 113.166ZM184 97.8464H179.053L178.144 103.272H172.585L173.493 97.8464H168.549L165.981 113.166H170.928L171.946 107.082H177.506L176.488 113.166H181.432L184 97.8464V97.8464Z" fill="#008DD2"/>
<path d="M126.013 91.0394C127.128 91.0394 128.033 90.1352 128.033 89.0197C128.033 87.9043 127.128 87 126.013 87C124.897 87 123.993 87.9043 123.993 89.0197C123.993 90.1352 124.897 91.0394 126.013 91.0394Z" fill="#008DD2"/>
<path d="M108.226 94.8253H113.214L119.504 87H122.406L110.991 101.194L108.194 97.3675L100.749 101.717L101.219 98.9196L108.226 94.8253Z" fill="#E31E24"/>
<path fill-rule="evenodd" clip-rule="evenodd" d="M113.191 91.1925C112.062 91.2915 111.067 92.3615 110.971 93.5831C110.875 94.8078 111.711 95.7186 112.842 95.6204C113.974 95.5214 114.966 94.4483 115.064 93.2267C115.16 92.0021 114.322 91.0912 113.19 91.1925H113.191Z" fill="#E31E24"/>
<path d="M20.7185 95.6264L20.7878 95.206H19.8998C19.6706 95.206 19.404 95.1832 19.3225 94.9448C19.2791 94.8146 19.305 94.5762 19.3309 94.4315C19.3423 94.3561 19.3918 94.0949 19.4497 93.9647C19.5457 93.7529 19.7543 93.5732 20.1229 93.5732H21.0048L21.0772 93.1528H20.0155C19.5715 93.1528 19.3339 93.315 19.2151 93.4201C18.893 93.7042 18.8145 94.1284 18.7658 94.4239C18.7079 94.775 18.6759 95.0827 18.8412 95.3264C19.0179 95.5906 19.34 95.628 19.5258 95.628H20.7185V95.6264ZM24.0352 95.6264L24.1075 95.206H22.8974C22.694 95.206 22.4709 95.1801 22.445 94.9128C22.4389 94.8374 22.4511 94.6775 22.4709 94.5701H23.9103C24.0063 94.5701 24.1045 94.5526 24.1921 94.4772C24.3109 94.3759 24.349 94.2304 24.3718 94.1033C24.4244 93.7903 24.4152 93.4826 24.154 93.2998C23.9507 93.1551 23.6521 93.1429 23.365 93.1429C23.1297 93.1429 22.7093 93.1429 22.3985 93.3752C22.0878 93.6105 22.0094 93.9494 21.9317 94.414C21.8769 94.7392 21.8327 95.0811 21.9576 95.3134C22.1145 95.6036 22.41 95.6264 22.6628 95.6264H24.0352V95.6264ZM22.541 94.1497C22.573 93.9875 22.5905 93.8512 22.7237 93.7263C22.9004 93.558 23.1243 93.561 23.269 93.561C23.4229 93.561 23.5996 93.5724 23.7184 93.6745C23.7877 93.7354 23.8463 93.8512 23.8197 94.005C23.8113 94.072 23.7816 94.1497 23.675 94.1497H22.5402H22.541ZM26.4784 95.6264L26.8234 93.5724H27.7548L27.8241 93.152H25.419L25.3466 93.5724H26.2781L25.9331 95.6264H26.4784V95.6264ZM28.7761 93.1513L28.425 95.2495C28.4105 95.3485 28.393 95.4497 28.4714 95.5396C28.5438 95.6234 28.6481 95.6264 28.7327 95.6264H29.9885C30.1423 95.6264 30.3251 95.6234 30.4873 95.4962C30.6907 95.337 30.7486 95.0469 30.7745 94.8839C30.8095 94.6897 30.8354 94.449 30.7135 94.2777C30.6031 94.1238 30.4348 94.0888 30.281 94.0888H29.1668L29.3236 93.1513H28.7753H28.7761ZM29.0952 94.5092H29.9832C30.0441 94.5092 30.1423 94.5153 30.1949 94.5907C30.2528 94.663 30.2269 94.7826 30.2155 94.8519C30.201 94.9387 30.1774 95.0583 30.105 95.1276C30.0266 95.203 29.9283 95.206 29.8499 95.206H29.1332C29.0929 95.206 29.0464 95.203 29.0175 95.168C28.9885 95.1299 29.003 95.072 29.0091 95.0347L29.0959 94.5092H29.0952ZM35.9921 95.6264L36.0614 95.206H35.1734C34.9441 95.206 34.6776 95.1832 34.5961 94.9448C34.5527 94.8146 34.5786 94.5762 34.6022 94.4315C34.6167 94.3561 34.6662 94.0949 34.724 93.9647C34.82 93.7529 35.0287 93.5732 35.3973 93.5732H36.2792L36.3516 93.1528H35.2899C34.8459 93.1528 34.6083 93.315 34.4895 93.4201C34.1643 93.7042 34.0889 94.1284 34.0401 94.4239C33.9823 94.775 33.9503 95.0827 34.1125 95.3264C34.2922 95.5906 34.6144 95.628 34.8002 95.628H35.9928L35.9921 95.6264ZM37.9014 93.1513C37.794 93.1513 37.6721 93.1513 37.5442 93.2731C37.4399 93.3744 37.4284 93.4734 37.414 93.5603L37.0659 95.6264H37.6143L37.9334 93.7171C37.9395 93.6737 37.9623 93.6212 37.9912 93.5983C38.0057 93.5869 38.0407 93.5724 38.0872 93.5724H39.0125C39.0415 93.5724 39.0849 93.5808 39.1054 93.5983C39.1344 93.6273 39.126 93.6821 39.1199 93.7171L38.8008 95.6264H39.3461L39.6911 93.5603C39.7086 93.4529 39.72 93.36 39.6622 93.2731C39.5868 93.1597 39.468 93.1513 39.34 93.1513H37.9006H37.9014ZM42.1579 93.1223C41.8647 93.1223 41.4268 93.1307 41.113 93.3836C40.7847 93.6509 40.6751 94.1177 40.6256 94.3988C40.5852 94.6508 40.5296 95.1185 40.7794 95.3881C41.0086 95.6379 41.4382 95.6554 41.7337 95.6554C42.0177 95.6554 42.4709 95.6379 42.7786 95.3881C42.9903 95.2137 43.1761 94.9037 43.266 94.3782C43.3094 94.117 43.3528 93.6501 43.1152 93.3828C42.886 93.1307 42.4511 93.1216 42.1579 93.1216V93.1223ZM41.1914 94.3934C41.2204 94.2343 41.2729 93.9174 41.4557 93.7408C41.6415 93.561 41.9111 93.5435 42.0886 93.5435C42.2828 93.5435 42.5181 93.561 42.6483 93.7408C42.7877 93.9327 42.7268 94.2106 42.6978 94.3934C42.6628 94.6082 42.6224 94.8458 42.4282 95.0286C42.234 95.2114 42.0101 95.235 41.8045 95.235C41.6103 95.235 41.375 95.2121 41.247 95.0286C41.1221 94.8519 41.1602 94.5991 41.1922 94.3934H41.1914ZM44.6764 95.6264H45.3702C45.6223 95.6264 46.0085 95.6089 46.2986 95.2723C46.5164 95.0202 46.5949 94.663 46.6497 94.3378C46.6962 94.0652 46.751 93.6821 46.5423 93.4209C46.3451 93.1741 46.0168 93.1513 45.8577 93.1513H44.9933C44.9003 93.1513 44.7785 93.1597 44.6742 93.2297C44.6049 93.2762 44.5089 93.3691 44.4822 93.5344L43.9979 96.4215H44.5432L44.6764 95.6264ZM44.7488 95.206L45.0009 93.6882C45.007 93.6593 45.0214 93.6334 45.0534 93.6044C45.074 93.59 45.1113 93.5724 45.1349 93.5724H45.6718C45.9155 93.5724 46.058 93.6943 46.1014 93.8512C46.1189 93.9182 46.1334 94.0484 46.0785 94.3851C46.0145 94.7537 45.9391 94.9045 45.8752 94.9768C45.7967 95.0758 45.6398 95.206 45.3702 95.206H44.7496H44.7488ZM48.7997 95.6264L49.1424 93.5724H50.0738L50.1431 93.152H47.738L47.6657 93.5724H48.5971L48.2521 95.6264H48.8004H48.7997ZM53.1057 95.6264L53.4628 93.5024C53.5238 93.1307 53.242 93.1223 53.1666 93.1223C53.0531 93.1223 52.9229 93.1513 52.801 93.2907L51.4256 94.9128C51.4028 94.9387 51.3792 94.9768 51.3502 94.9768C51.3121 94.9768 51.3182 94.954 51.3243 94.9128L51.6434 93.1513H51.0951L50.7356 95.3043C50.715 95.4345 50.715 95.6554 51.0372 95.6554C51.223 95.6554 51.3129 95.5884 51.4264 95.4581L52.7812 93.8649C52.8277 93.8101 52.8482 93.8009 52.8566 93.8009C52.8947 93.8009 52.8795 93.8268 52.8741 93.8649L52.5611 95.6264H53.1064H53.1057ZM54.3067 95.2639C54.2953 95.3424 54.2838 95.4642 54.3531 95.5396C54.4255 95.6181 54.5649 95.6264 54.6662 95.6264H55.8443C55.989 95.6264 56.1954 95.6234 56.3698 95.4726C56.5556 95.3134 56.6074 95.0575 56.628 94.9273C56.6508 94.7971 56.6684 94.6371 56.5899 94.5153C56.5465 94.446 56.4505 94.3706 56.3081 94.3531L56.3112 94.3416C56.4361 94.3302 56.5518 94.2723 56.6303 94.1969C56.746 94.0865 56.7895 93.9182 56.81 93.788C56.8306 93.6692 56.8534 93.4689 56.7552 93.3295C56.6303 93.1551 56.3927 93.1528 56.2244 93.1528H55.1048C54.9974 93.1528 54.8756 93.1612 54.7568 93.2518C54.638 93.3386 54.6121 93.4521 54.5976 93.5389L54.3074 95.2654L54.3067 95.2639ZM55.0439 94.1383L55.1162 93.6943C55.1223 93.6654 55.1277 93.6273 55.1658 93.5983C55.2038 93.5724 55.2411 93.5724 55.2731 93.5724H55.9928C56.0682 93.5724 56.1467 93.5755 56.1962 93.6334C56.2571 93.6943 56.2457 93.7811 56.2343 93.8565C56.2228 93.9205 56.2023 94.0012 56.1299 94.0629C56.0545 94.1269 55.9586 94.1383 55.8893 94.1383H55.0447H55.0439ZM54.9715 94.5564H55.8276C55.8885 94.5564 55.9898 94.5625 56.0484 94.6379C56.0979 94.7019 56.0865 94.7971 56.0743 94.8702C56.0599 94.9517 56.0362 95.0621 55.9555 95.1314C55.8801 95.1984 55.7697 95.2068 55.6912 95.2068H55.0096C54.9662 95.2068 54.9259 95.2068 54.8992 95.1687C54.8847 95.1428 54.8817 95.0964 54.8878 95.0583L54.9715 94.5564V94.5564ZM59.8632 95.6272L60.2752 93.152H59.7299L59.5647 94.1413H58.3835L58.5487 93.152H58.0004L57.5853 95.6272H58.1337L58.3103 94.5625H59.4938L59.3141 95.6272H59.8625H59.8632ZM61.4153 93.152L61.0642 95.2502C61.0498 95.3492 61.0322 95.4505 61.1107 95.5404C61.183 95.6242 61.2874 95.6272 61.3719 95.6272H62.6285C62.7824 95.6272 62.9651 95.6242 63.1274 95.497C63.3307 95.3378 63.3886 95.0476 63.4145 94.8847C63.4495 94.6904 63.4754 94.4498 63.3536 94.2784C63.2431 94.1246 63.0779 94.0896 62.921 94.0896H61.8068L61.9637 93.152H61.4153V93.152ZM63.5858 95.6272H64.1311L64.5462 93.152H64.0009L63.5858 95.6272ZM61.7344 94.51H62.6224C62.6834 94.51 62.7816 94.516 62.8342 94.5914C62.892 94.6638 62.8661 94.7834 62.8547 94.8527C62.8402 94.9395 62.8166 95.0591 62.7443 95.1284C62.6658 95.2038 62.5676 95.2068 62.4892 95.2068H61.7725C61.7321 95.2068 61.6857 95.2038 61.6567 95.1687C61.6278 95.1306 61.6423 95.0728 61.6484 95.0354L61.7352 94.51H61.7344ZM67.5697 95.6272L66.8355 94.3561L67.9238 93.152H67.3001L66.5773 94.002L66.1394 93.152H65.5157L66.2034 94.3561L65.0367 95.6272H65.684L66.4585 94.7133L66.9254 95.6272H67.5697V95.6272ZM73.4423 93.8428C73.4567 93.8253 73.4804 93.788 73.4948 93.788C73.5032 93.788 73.5207 93.8055 73.5154 93.8344L73.1902 95.6272H73.7385L74.098 93.4772C74.1384 93.2366 73.9556 93.1231 73.7324 93.1231C73.5261 93.1231 73.3814 93.1901 73.2679 93.3904L72.3768 94.9661C72.3624 94.989 72.3128 95.0621 72.29 95.0621C72.2672 95.0621 72.2435 94.9898 72.2374 94.9661L71.8749 93.3904C71.8285 93.1901 71.7036 93.1231 71.498 93.1231C71.2748 93.1231 71.0539 93.2366 71.0136 93.4772L70.6541 95.6272H71.2025L71.4782 93.8344C71.4812 93.82 71.4865 93.791 71.5132 93.791C71.5337 93.791 71.5391 93.8291 71.5421 93.8436L71.9077 95.4513C71.9305 95.5503 71.9945 95.6577 72.1918 95.6577C72.386 95.6577 72.4903 95.5503 72.5428 95.4513L73.4423 93.8436V93.8428ZM75.4095 93.152L75.3401 93.5724H76.5587C76.6425 93.5724 76.7476 93.5869 76.8085 93.6798C76.8549 93.7522 76.8519 93.8367 76.8374 93.9121L76.8085 94.0865H75.7347C75.6044 94.0865 75.4331 94.0949 75.2556 94.2312C75.0439 94.3934 74.983 94.6143 74.9449 94.8321C74.9159 95.0149 74.8756 95.334 75.0462 95.5053C75.168 95.6272 75.3394 95.6272 75.4757 95.6272H76.6569C76.7757 95.6272 76.9121 95.6188 77.0164 95.5282C77.1177 95.4414 77.1527 95.299 77.1672 95.2121L77.382 93.9266C77.4284 93.6509 77.382 93.4506 77.2982 93.3432C77.2053 93.2274 77.0255 93.1513 76.8161 93.1513H75.4087L75.4095 93.152ZM76.7384 94.5069L76.6425 95.0758C76.6364 95.1139 76.631 95.1451 76.5876 95.1801C76.5473 95.206 76.4947 95.206 76.4627 95.206H75.6996C75.6303 95.206 75.5663 95.168 75.5344 95.1306C75.4818 95.0613 75.494 94.9303 75.5085 94.858C75.5374 94.6783 75.5899 94.6143 75.6128 94.5907C75.6851 94.5092 75.7895 94.5069 75.8276 94.5069H76.7384V94.5069ZM78.784 95.6272L79.0948 93.7674C79.1062 93.7065 79.1092 93.66 79.1587 93.6197C79.1846 93.5968 79.2311 93.5732 79.2775 93.5732H80.653L80.7223 93.1528H78.9988C78.8945 93.1528 78.7757 93.1673 78.6827 93.283C78.6157 93.3615 78.6013 93.4597 78.5837 93.5587L78.2387 95.6272H78.784ZM81.6971 93.152L81.6278 93.5724H82.8463C82.9301 93.5724 83.0383 93.5869 83.0961 93.6798C83.1456 93.7522 83.1395 93.8367 83.1281 93.9121L83.0992 94.0865H82.0231C81.8928 94.0865 81.7245 94.0949 81.5471 94.2312C81.3323 94.3934 81.2714 94.6143 81.2363 94.8321C81.2044 95.0149 81.164 95.334 81.3376 95.5053C81.4564 95.6272 81.6308 95.6272 81.7641 95.6272H82.9476C83.0634 95.6272 83.1997 95.6188 83.3048 95.5282C83.4091 95.4414 83.4411 95.299 83.4556 95.2121L83.6704 93.9266C83.7168 93.6509 83.6704 93.4506 83.5866 93.3432C83.4937 93.2274 83.317 93.1513 83.1045 93.1513H81.6971V93.152ZM83.0261 94.5069L82.9301 95.0758C82.924 95.1139 82.9187 95.1451 82.8776 95.1801C82.8341 95.206 82.7816 95.206 82.7496 95.206H81.9895C81.9202 95.206 81.8563 95.168 81.8243 95.1306C81.7695 95.0613 81.7839 94.9303 81.7953 94.858C81.8243 94.6783 81.8768 94.6143 81.8997 94.5907C81.9751 94.5092 82.0794 94.5069 82.1144 94.5069H83.0253H83.0261ZM84.5264 95.6272H85.9886C86.1478 95.6272 86.3367 95.6188 86.508 95.4825C86.6154 95.3987 86.7434 95.2274 86.7921 94.9372C86.8302 94.708 86.7891 94.5777 86.7373 94.5023C86.6939 94.4384 86.6154 94.3721 86.4821 94.3576L86.4852 94.3432C86.6185 94.3317 86.7228 94.2647 86.7898 94.1985C86.8568 94.1292 86.9322 94.0065 86.9696 93.7834C86.9954 93.6357 87.0015 93.4384 86.8881 93.3074C86.7662 93.168 86.5751 93.1536 86.3976 93.1536H84.9871L84.9178 93.574H86.1219C86.1653 93.574 86.2811 93.577 86.3451 93.6379C86.3801 93.676 86.4121 93.7423 86.3915 93.8588C86.371 93.9746 86.3192 94.0416 86.2758 94.0797C86.1943 94.1436 86.125 94.1436 86.0404 94.1436H84.8447L84.7754 94.564H85.9506C86.0084 94.564 86.1097 94.5701 86.1737 94.625C86.2575 94.692 86.2491 94.7872 86.2377 94.8717C86.2118 95.0164 86.1562 95.0979 86.1074 95.139C86.0259 95.206 85.933 95.2083 85.8401 95.2083H84.5957L84.5264 95.6287V95.6272ZM90.1933 95.6272L90.5505 93.5031C90.6115 93.1315 90.3274 93.1231 90.2543 93.1231C90.1408 93.1231 90.0106 93.152 89.8887 93.2914L88.5163 94.9136C88.4904 94.9395 88.4668 94.9776 88.4379 94.9776C88.3998 94.9776 88.4059 94.9547 88.412 94.9136L88.7311 93.152H88.1828L87.8233 95.305C87.8004 95.4353 87.8027 95.6561 88.1249 95.6561C88.3107 95.6561 88.4006 95.5891 88.5141 95.4589L89.8689 93.8657C89.9154 93.8108 89.9359 93.8017 89.9443 93.8017C89.9824 93.8017 89.9672 93.8276 89.9618 93.8657L89.6488 95.6272H90.1941H90.1933ZM93.6083 95.6272L94.0234 93.152H93.4781L93.3128 94.1413H92.1293L92.2946 93.152H91.7493L91.3342 95.6272H91.8795L92.0592 94.5625H93.2404L93.0638 95.6272H93.6091H93.6083ZM96.4201 93.1231C96.1269 93.1231 95.692 93.1315 95.3782 93.3843C95.0477 93.6516 94.9373 94.1185 94.8878 94.3995C94.8474 94.6516 94.7918 95.1192 95.0416 95.3888C95.2708 95.6386 95.7034 95.6561 95.9959 95.6561C96.2799 95.6561 96.7331 95.6386 97.0408 95.3888C97.2525 95.2144 97.4414 94.9045 97.5282 94.379C97.5716 94.1177 97.618 93.6509 97.3774 93.3836C97.1481 93.1315 96.7156 93.1223 96.4201 93.1223V93.1231ZM95.4567 94.3942C95.4826 94.235 95.5351 93.9182 95.7209 93.7415C95.9037 93.5618 96.1733 93.5443 96.3508 93.5443C96.548 93.5443 96.7833 93.5618 96.9105 93.7415C97.0529 93.9334 96.992 94.2114 96.96 94.3942C96.925 94.609 96.8846 94.8466 96.6904 95.0294C96.4962 95.2121 96.2723 95.2357 96.0667 95.2357C95.8725 95.2357 95.6372 95.2129 95.5092 95.0294C95.3843 94.8527 95.4224 94.5998 95.4567 94.3942ZM98.4543 95.2647C98.4428 95.3431 98.4314 95.465 98.5007 95.5404C98.5731 95.6188 98.7124 95.6272 98.8137 95.6272H99.9919C100.137 95.6272 100.343 95.6242 100.517 95.4734C100.703 95.3142 100.755 95.0583 100.779 94.9281C100.799 94.7978 100.817 94.6379 100.738 94.516C100.695 94.4467 100.599 94.3713 100.456 94.3538L100.46 94.3424C100.584 94.331 100.7 94.2731 100.779 94.1977C100.894 94.0873 100.938 93.919 100.958 93.7887C100.979 93.6699 101.002 93.4696 100.904 93.3303C100.779 93.1559 100.541 93.1536 100.373 93.1536H99.2524C99.145 93.1536 99.0232 93.1619 98.9044 93.2526C98.7886 93.3394 98.7597 93.4529 98.7452 93.5397L98.455 95.2662L98.4543 95.2647ZM99.1915 94.1391L99.2638 93.6951C99.2699 93.6661 99.2752 93.628 99.3133 93.5991C99.3514 93.5732 99.3887 93.5732 99.4207 93.5732H100.14C100.216 93.5732 100.294 93.5762 100.344 93.6341C100.405 93.6951 100.396 93.7819 100.382 93.8573C100.37 93.9212 100.35 94.002 100.277 94.0637C100.202 94.1276 100.106 94.1391 100.037 94.1391H99.1922H99.1915ZM99.1191 94.5572H99.9751C100.036 94.5572 100.137 94.5633 100.196 94.6387C100.246 94.7026 100.234 94.7978 100.222 94.8709C100.207 94.9524 100.184 95.0629 100.103 95.1322C100.028 95.1992 99.9173 95.2076 99.8388 95.2076H99.1572C99.1138 95.2076 99.0734 95.2076 99.0468 95.1695C99.0323 95.1436 99.0293 95.0971 99.0354 95.0591L99.1191 94.5572V94.5572Z" fill="#008DD2"/>
</svg>
