<svg width="200" height="200" viewBox="0 0 200 200" fill="none" xmlns="http://www.w3.org/2000/svg">
<path d="M142.498 79.0031H176.761C178.331 79.1326 179.825 80.0255 180.609 81.4057C181.642 83.1345 181.401 85.5125 180.027 86.9899C179.238 87.8643 178.12 88.4595 176.939 88.5397C176.288 88.5952 175.632 88.569 174.982 88.5721C164.424 88.5706 153.865 88.5721 143.307 88.5721C142.411 88.5582 141.502 88.8728 140.882 89.5313C139.867 90.5106 139.682 92.1946 140.407 93.3929C140.962 94.3475 142.051 94.9844 143.162 94.9443C152.458 94.9427 161.756 94.9473 171.052 94.9412C174.028 94.8826 177.011 95.9127 179.315 97.7988C182.011 99.9532 183.713 103.249 184.008 106.68V108.693C183.778 111.242 182.813 113.731 181.186 115.712C179.494 117.808 177.124 119.343 174.517 120.023C173.176 120.384 171.777 120.478 170.394 120.454C159.182 120.453 147.969 120.454 136.758 120.454C135.751 120.445 134.719 120.533 133.745 120.223C132.158 119.74 130.879 118.376 130.515 116.756C130.039 114.944 130.824 112.91 132.329 111.818C133.171 111.183 134.227 110.872 135.276 110.865C146.978 110.865 158.678 110.862 170.38 110.867C171.125 110.858 171.916 110.941 172.604 110.585C173.937 109.991 174.75 108.395 174.371 106.97C174.129 105.866 173.24 104.937 172.155 104.629C171.416 104.435 170.65 104.538 169.899 104.532C160.982 104.53 152.065 104.533 143.15 104.53C140.633 104.512 138.121 103.767 136.035 102.353C132.133 99.7774 129.864 94.9319 130.478 90.2854C130.839 86.9945 132.572 83.8917 135.157 81.8298C137.228 80.135 139.847 79.1912 142.504 79L142.498 79.0031ZM117.225 79.0031H126.757C126.76 91.2508 126.757 103.499 126.759 115.745C126.819 117.981 125.004 120.033 122.814 120.371C121.236 120.686 119.603 120.054 118.473 118.949C106.567 110.327 94.6372 101.741 82.721 93.1322C82.7303 102.246 82.7364 111.362 82.7195 120.475C79.5241 120.488 76.3288 120.49 73.1335 120.473C73.1104 108.344 73.135 96.2134 73.1227 84.0814C73.0965 82.8631 73.4758 81.6201 74.2824 80.6933C75.0411 79.7896 76.153 79.2082 77.3173 79.0509C79.1525 78.8041 80.269 79.512 81.6199 80.6408C93.4852 89.2136 105.355 97.7741 117.222 106.344C117.228 97.2297 117.223 88.1156 117.225 79.0015V79.0031ZM25.6353 88.6107C25.6353 96.0238 25.6353 103.434 25.6353 110.845C33.3075 110.847 40.9782 110.845 48.6503 110.847C52.6044 111.009 56.5091 108.817 58.5047 105.412C59.6551 103.506 60.1872 101.245 60.0329 99.0248C59.8818 95.9189 58.2919 92.9348 55.8537 91.0164C53.9245 89.4712 51.4632 88.5968 48.9896 88.6122C41.2064 88.606 33.4216 88.6107 25.6369 88.6091L25.6353 88.6107ZM16.0015 79.0031H49.9966C54.6046 79.2575 59.1169 81.0634 62.5806 84.1246C66.4221 87.4556 68.9697 92.2378 69.5449 97.293C69.8518 100.238 69.6251 103.258 68.6936 106.079C67.0559 111.208 63.3223 115.612 58.5509 118.1C55.5669 119.683 52.188 120.473 48.8169 120.485C37.8784 120.479 26.9385 120.491 16 120.479V79.0031H16.0015Z" fill="#F08816"/>
</svg>
