<svg width="200" height="200" viewBox="0 0 200 200" fill="none" xmlns="http://www.w3.org/2000/svg">
<path fill-rule="evenodd" clip-rule="evenodd" d="M73.2736 131.404C73.3249 132.046 74.1568 134.726 74.3878 135.538C74.6035 136.277 74.6908 136.904 74.8705 137.684C75.0143 138.316 75.2043 139.425 75.4199 139.877H71.1375C71.2043 138.757 72.3082 134.793 72.6882 133.566C72.832 133.104 73.0528 131.81 73.2684 131.404H73.2736ZM139.132 129.617C139.661 129.617 140.282 129.818 140.673 129.987C141.114 130.177 141.479 130.48 141.879 130.69C144.488 132.678 145.386 135.486 143.867 138.526C141.808 142.654 136.226 142.865 133.828 139.81C133.587 139.502 133.422 139.317 133.196 139.009C131.682 136.934 132.036 132.801 134.578 130.906C136.19 129.705 137.207 129.612 139.132 129.612V129.617ZM154.347 130.331C154.249 130.002 154.223 129.966 154.105 129.674C154.069 129.586 154.044 129.515 153.997 129.422C153.854 129.14 153.956 129.304 153.813 129.135C153.453 127.594 151.574 125.032 150.444 123.913C149.587 123.065 149.546 122.906 148.539 122.239C146.814 121.099 147.743 121.515 145.263 120.262C141.982 118.603 137.238 118.254 133.397 119.45C132.96 119.589 132.457 119.702 132.026 119.871C130.506 120.467 128.909 121.53 127.61 122.495C127.225 122.783 127.05 123.065 126.691 123.368C125.422 124.426 124.395 125.828 123.543 127.26C122.912 128.318 121.715 130.901 121.715 132.472H121.597C121.597 130.357 121.479 128.477 121.479 126.269C121.479 124.159 121.479 122.054 121.479 119.943H111.692C110.131 119.928 110.383 119.661 110.383 121.972C110.383 126.387 110.383 130.803 110.383 135.214C110.095 135.004 108.401 131.907 108.139 131.491L102.506 121.972C102.162 121.273 101.731 120.688 101.315 120.061C100.38 120.061 99.9077 119.938 98.927 119.943H91.2864C89.7203 119.923 90.0951 119.466 90.0951 123.882V149.417C89.9359 149.237 89.9719 149.283 89.8692 149.047L88.7447 145.874C87.9077 143.748 86.9989 140.775 86.1362 138.459C85.9205 137.874 85.7408 137.237 85.5149 136.575L82.9475 129.237C82.3211 127.348 81.2325 124.637 80.6933 122.783C80.4417 121.925 79.9026 120.765 79.7126 119.943H67.0656C66.7935 121.114 65.0939 125.222 64.6369 126.701C63.5586 130.182 61.9052 134.162 60.7858 137.525C60.6574 137.91 60.6163 138.182 60.488 138.542C60.3904 138.824 60.2415 139.142 60.108 139.476L56.9706 148.272C56.7036 149.201 56.0002 150.911 55.9694 151.327H68.1388L69.0682 147.502L77.4482 147.507C77.5714 148.025 77.6946 148.488 77.8281 149.032L78.1259 150.172C78.3211 150.521 78.0695 150.244 78.4032 150.485C79.0143 150.146 98.1824 150.367 100.714 150.367V150.963H80.909C78.7113 150.963 78.6548 151.209 78.6394 150.603C78.203 150.844 78.2851 150.269 78.2851 150.963L78.4289 151.312L101.073 151.322V136.051C101.397 136.287 101.304 136.292 101.515 136.683C101.844 137.289 102.372 137.941 102.783 138.752L109.422 150.018C109.643 150.362 110.141 151.122 110.455 151.245C111.019 151.471 111.99 151.322 112.647 151.322C113.946 151.322 115.949 151.204 117.166 151.337C118.752 151.517 119.923 151.322 121.479 151.322V142.018C121.474 140.909 121.597 140.205 121.597 139.034H121.715C121.715 141.504 123.759 144.724 125.315 146.654C127.836 149.787 130.906 151.291 134.737 152.385C138.562 153.479 143.728 152.287 146.917 150.274C148.139 149.504 147.882 149.766 149.181 148.719L151.04 146.88C151.25 146.644 151.271 146.577 151.466 146.352L152.673 144.693C154.013 142.742 154.198 141.258 154.747 139.61L154.891 139.276C154.891 141.078 154.65 150.398 155.009 151.327H166.105V141.304L171.353 151.327H180.899C182.09 151.327 182.942 151.445 184 151.445C183.738 150.316 177.094 140.734 176.005 138.68C178.162 138.074 179.502 137.248 180.611 135.409C182.593 132.133 182.085 126.172 179.261 123.378C178.439 122.567 178.08 122.3 177.032 121.669C174.234 119.979 170.234 119.948 166.819 119.948C165.967 119.948 155.256 119.794 154.994 120.056C154.732 120.318 154.886 131.029 154.886 131.882L154.593 131.096C154.516 130.814 154.434 130.562 154.347 130.331V130.331ZM121.479 138.685C121.479 138.382 121.669 138.665 121.551 138.685C121.551 138.685 121.479 139.019 121.479 138.685ZM167.055 134.151H166.1V128.185C167.379 128.185 169.248 128.031 170.136 128.924C171.05 129.843 172.416 134.151 167.055 134.151Z" fill="#EB6434"/>
<path fill-rule="evenodd" clip-rule="evenodd" d="M86.0435 79.62C86.0435 76.2567 86.9369 73.7972 88.5698 71.2862C88.7957 70.9422 89.0884 70.6136 89.3554 70.285C91.892 67.1784 96.1128 65.181 100.123 65.181C102.264 65.181 103.928 65.6637 105.782 66.4441C106.1 66.5776 106.085 66.5674 106.352 66.7111C109.212 68.2054 111.476 70.2644 112.847 73.2169C113.864 75.3992 114.198 77.0372 114.198 79.7381C114.198 82.0744 113.633 83.4814 112.934 85.1604C112.57 86.0333 112.226 86.5674 111.738 87.3068C110.773 88.7599 108.965 90.4852 107.466 91.3889C107.086 91.62 106.762 91.7484 106.362 91.9537C103.692 93.2991 102.064 93.3453 99.1629 93.3453C96.7701 93.3453 94.7932 92.4415 92.8009 91.3581C92.0769 90.9627 90.5929 89.7355 90.0024 89.145C89.72 88.8626 89.4941 88.5442 89.2476 88.231C88.9909 87.9075 88.7033 87.6457 88.5082 87.3016C87.1629 84.955 86.0435 82.7419 86.0435 79.6251V79.62ZM68.8625 78.4287C68.8625 80.4826 68.8317 81.5301 69.1501 83.6303L69.7406 86.8549C70.3721 89.3555 71.2553 91.5738 72.3952 93.8639C72.6622 94.403 72.8163 94.5879 73.1038 95.0654C73.8895 96.3594 74.4235 97.3247 75.4453 98.5673L80.7187 103.913C83.7072 106.146 86.4029 107.743 90.0486 109.022C95.055 110.773 101.982 111.168 107.112 109.879C108.975 109.412 109.864 109.176 111.574 108.493C113.022 107.918 115.497 106.721 116.729 105.89C117.165 105.597 117.54 105.407 117.966 105.099C118.377 104.801 118.634 104.544 119.04 104.262L121.212 102.495C124.036 99.697 123.692 99.9486 125.792 97.2888C126.038 96.9756 126.341 96.5134 126.562 96.1489L127.322 94.8806C127.584 94.4441 127.753 94.1668 127.974 93.6225C128.215 93.032 128.447 92.8215 128.678 92.2978C129.561 90.2695 130.115 88.6726 130.603 86.4647C131.697 81.4942 131.887 77.5353 130.696 72.5494C130.444 71.4968 130.249 70.5006 129.91 69.5147L128.801 66.6855C127.363 63.5892 126.506 62.1412 124.328 59.466C122.978 57.8074 122.978 57.9101 121.515 56.4364L116.02 52.267L113.443 50.9063C107.558 48.457 106.506 48.4878 100.719 48L97.0422 48.1284C93.7149 48.4981 93.6378 48.6367 90.6032 49.448C89.1962 49.828 85.2322 51.6406 83.969 52.4775C83.512 52.7805 83.2142 52.9961 82.7418 53.2786L80.4671 54.9422C79.7277 55.6046 79.0859 56.0821 78.3773 56.7907C78.0486 57.1194 77.7251 57.4018 77.4222 57.7458L76.5236 58.7574C76.1796 59.0963 75.9382 59.4146 75.6456 59.7843L73.9922 62.0693C72.3182 64.4159 70.5262 68.6572 69.8176 71.4916C69.3657 73.3093 68.8625 76.4262 68.8625 78.4133V78.4287Z" fill="black"/>
<path fill-rule="evenodd" clip-rule="evenodd" d="M19.9435 131.04L20.2311 130.829C20.1438 131.307 20.2311 131.045 20.0616 131.127L21.9307 136.216C22.3158 137.068 22.516 137.848 22.8755 138.732C24.1643 141.925 25.9769 147.204 27.2195 150.018C27.4044 150.434 27.507 150.937 27.697 151.327H38.3158C38.6187 150.757 38.783 150.038 39.0295 149.417L45.7099 131.759C46.0847 130.819 50.0744 120.56 50.1258 119.949H38.0744L35.5841 128.195C35.3684 128.878 35.2554 129.561 35.0192 130.254L33.7304 134.454C33.5353 135.122 33.1194 135.836 33.0629 136.529C32.6778 136.246 31.8716 132.914 31.7484 132.472L28.0513 119.943H16C16 121.299 16.9397 122.917 17.3299 124.103C17.9872 126.1 19.3941 129.279 19.9384 131.035L19.9435 131.04Z" fill="#EB6434"/>
<path fill-rule="evenodd" clip-rule="evenodd" d="M41.0627 151.327H52.5184L63.0037 123.989C63.4453 122.644 64.1179 121.376 64.4517 119.948H52.996L46.9626 135.507C46.6905 136.21 46.557 136.744 46.2643 137.432L43.9742 143.373C43.3888 145.068 42.3002 147.543 41.7354 149.247L41.0627 151.322V151.327Z" fill="#EB6434"/>
<path fill-rule="evenodd" clip-rule="evenodd" d="M78.4082 150.495L78.2901 150.973C78.2901 150.28 78.2131 150.86 78.6444 150.613C78.6547 151.219 78.7112 150.973 80.914 150.973H100.719V150.377C98.1874 150.377 79.0193 150.162 78.4082 150.495V150.495Z" fill="#EB6434"/>
<path fill-rule="evenodd" clip-rule="evenodd" d="M20.0618 131.127C20.2313 131.04 20.144 131.307 20.2312 130.829L19.9437 131.04C19.9437 131.296 19.9078 131.081 20.0618 131.127V131.127Z" fill="#F06634"/>
</svg>
