<svg width="200" height="200" viewBox="0 0 200 200" fill="none" xmlns="http://www.w3.org/2000/svg">
<path d="M98.4663 27.0024H100.779C112.896 27.245 124.951 30.514 135.454 36.5712C149.522 44.6007 160.766 57.4693 166.778 72.5173C170.116 80.7419 171.833 89.5993 172 98.4663V100.788C171.757 112.824 168.534 124.801 162.541 135.252C157.299 144.5 149.979 152.553 141.305 158.691C129.552 167.085 115.225 171.729 100.795 172.002H98.4805C83.9656 171.793 69.541 167.139 57.7144 158.706C49.9014 153.179 43.1804 146.099 38.0962 137.988C31.0849 126.913 27.2569 113.895 27 100.798V98.4687C27.1975 86.3399 30.4283 74.2635 36.4689 63.7359C42.8497 52.4803 52.3138 42.9996 63.5432 36.5736C74.1208 30.4759 86.2685 27.1975 98.4687 27L98.4663 27.0024Z" fill="#672290"/>
<path d="M91.1767 78.2057C91.1767 72.0223 91.172 65.8366 91.1815 59.6533C108.437 59.6557 125.691 59.6509 142.946 59.6557C137.712 69.3292 132.464 78.9979 127.227 88.6738C131.695 91.3669 135.747 94.9761 138.257 99.6058C142.325 106.741 142.332 115.67 139.48 123.24C137.034 129.737 132.145 135.214 126.076 138.552C119.55 142.178 111.813 143.477 104.438 142.475C96.2799 141.412 88.6644 137.493 82.6024 131.997C85.769 126.171 88.907 120.33 92.0998 114.518C94.1006 118.296 97.1816 121.653 101.243 123.207C104.374 124.334 107.79 124.827 111.097 124.289C114.188 123.794 117.221 122.205 118.962 119.536C120.542 117.387 120.992 114.58 120.716 111.975C120.304 108.478 118.237 105.328 115.475 103.208C112.494 100.929 108.758 99.7248 105.026 99.5511C103.436 99.3965 101.838 99.4512 100.246 99.444C104.083 92.3614 107.938 85.2859 111.773 78.2033C104.907 78.1985 98.0357 78.2033 91.1672 78.2009L91.1767 78.2057ZM42.9092 83.9108C54.329 83.9251 65.7463 83.906 77.1661 83.9227C79.8973 83.937 83.0187 84.3485 84.8744 86.5873C86.9014 89.2947 86.7825 93.589 84.2701 95.9682C88.1862 98.5804 88.455 104.866 85.0695 108.014C83.0378 109.931 80.14 110.533 77.4278 110.543C73.2001 110.557 68.9748 110.547 64.7495 110.547C64.7471 103.976 64.7495 97.4075 64.7471 90.8388C62.4679 90.8364 60.1887 90.8388 57.9095 90.8364C57.9143 97.3956 57.8929 103.96 57.9214 110.519C55.3306 110.585 52.7421 110.533 50.1512 110.547C50.1489 103.976 50.1512 97.4075 50.1489 90.8388C47.734 90.8364 45.3169 90.8388 42.9021 90.8364C42.9021 88.5287 42.8902 86.2185 42.9068 83.9084L42.9092 83.9108ZM72.5006 90.47C72.5006 91.543 72.5006 92.6184 72.5006 93.6937C73.8758 93.6771 75.2485 93.7246 76.6237 93.6771C77.2755 93.6414 78.0273 93.5771 78.4651 93.018C78.9029 92.2639 78.822 90.9625 77.8299 90.7032C76.0931 90.2773 74.2755 90.539 72.5006 90.4676V90.47ZM72.5006 99.7676C72.5006 101.176 72.5006 102.587 72.5006 103.995C74.4491 103.933 76.4238 104.159 78.3533 103.81C80.2114 103.453 80.0995 100.336 78.3152 99.946C76.3976 99.6011 74.4372 99.8295 72.5006 99.7652V99.7676Z" fill="white"/>
</svg>
