<svg width="200" height="200" viewBox="0 0 200 200" fill="none" xmlns="http://www.w3.org/2000/svg">
<path fill-rule="evenodd" clip-rule="evenodd" d="M93.2054 90.3491C93.5472 90.8867 94.0014 94.0082 94.1862 95.0076C94.337 95.8224 94.435 95.9189 93.6481 95.9595L92.7829 91.4673C92.6458 90.7346 92.4417 90.4937 93.2054 90.349V90.3491ZM124.132 99.0804L124.673 102.483C124.397 102.761 124.07 102.957 123.724 103.214L121.201 105.168C120.719 105.571 120.966 105.203 120.674 105.732C120.057 105.811 115.6 104.564 114.375 104.297L101.504 101.119C100.354 100.835 99.3457 100.581 98.2643 100.309C97.5709 100.135 95.5845 99.7055 95.1027 99.4646C95.9532 99.4603 97.4416 99.8447 98.2784 100.011L120.076 104.484C120.113 103.629 119.67 101.93 119.521 101.032L116.42 83.8901C115.96 81.5117 115.628 79.2552 115.168 76.8996C114.277 72.3428 113.593 67.7935 112.687 63.1908C112.371 61.587 110.216 49.9343 110.328 49.2953C108.83 49.2968 88.0017 55.9203 86.8686 55.9031L103.994 49.9421C106.022 49.2689 107.835 48.5524 109.831 47.9694C110.084 47.7226 114.048 47.9651 114.871 47.993C115.017 49.7738 119.139 71.6463 119.478 73.6032L124.133 99.0804H124.132ZM109.951 75.4603C110.553 75.0452 111.162 74.5573 111.735 74.1752L112.628 78.7388C111.722 78.7661 111.267 78.3946 110.437 78.3065L109.951 75.4603H109.951ZM87.8553 60.2627C88.1156 60.8157 88.2615 62.3749 88.3983 63.0472C88.5054 63.5742 88.555 63.9862 88.6647 64.5197C88.7678 65.0219 89.0731 65.6241 88.5507 65.7325C87.9535 65.8565 87.8915 64.4756 87.7082 63.2992C87.6028 62.6223 87.3809 60.8975 87.1676 60.3867C87.1765 60.3814 87.5207 60.1227 87.8553 60.2625V60.2627ZM140.191 101.466C140.195 100.061 139.839 98.7528 139.612 97.4184L130.937 46.9609C130.723 45.6999 130.591 44.4258 129.966 43.4544C128.409 41.0333 125.283 42.1875 123.069 42.5615C114.892 43.9442 105.887 45.3928 97.7689 46.8992L80.2542 49.9144C78.5117 50.2297 69.9905 51.4872 68.8629 52.1127C67.9262 52.6322 67.2306 53.6736 67.068 54.9518C66.9617 55.7864 72.2067 85.3931 72.3253 86.0581L76.3338 109.377C76.6968 111.655 76.9559 114.501 80.3382 114.488C81.6444 114.483 94.2839 112.15 95.9524 111.873L119.269 107.865C121.469 107.507 137.574 104.904 138.441 104.341C139.233 103.826 140.188 102.747 140.192 101.466L140.191 101.466Z" fill="#77B835"/>
<path fill-rule="evenodd" clip-rule="evenodd" d="M140.191 101.466C140.188 102.747 139.233 103.826 138.44 104.342C137.574 104.905 121.468 107.508 119.269 107.866L95.9521 111.874C94.2836 112.151 81.6441 114.483 80.3379 114.488C76.9556 114.502 76.6965 111.655 76.3335 109.378L72.325 86.0585C72.2065 85.3935 66.9614 55.7867 67.0677 54.9522C67.2305 53.6739 67.9259 52.6326 68.8627 52.113C69.9903 51.4876 78.5114 50.2301 80.2539 49.9147L97.7686 46.8996C105.886 45.3932 114.892 43.9445 123.069 42.5618C125.282 42.1877 128.409 41.0336 129.966 43.4548C130.59 44.426 130.723 45.7002 130.937 46.9613L139.612 97.4188C139.838 98.7533 140.195 100.061 140.191 101.467L140.191 101.466ZM65.1717 55.7812C65.5907 58.1014 74.5601 111.49 75.1371 112.885C77.0514 117.513 81.4288 116.408 85.3894 115.622L97.6052 113.528C100.043 113.145 137.187 106.811 138.368 106.438C140.551 105.75 142.287 103.349 142.063 100.606L139.259 84.1827C138.339 78.7226 137.369 73.3186 136.45 67.9066C135.52 62.4245 134.646 56.9941 133.622 51.5037C133.329 49.9305 132.566 44.5452 132.096 43.4927C131.169 41.4153 129.149 39.6991 126.145 40.1423C120.581 40.9631 115.227 41.9884 109.709 42.9376C105.762 43.6166 70.9517 49.4224 68.9487 50.0311C66.5123 50.7715 64.8033 53.7406 65.1719 55.7813L65.1717 55.7812Z" fill="#FDFDFB"/>
<path fill-rule="evenodd" clip-rule="evenodd" d="M65.1714 55.7811C64.803 53.7403 66.5118 50.7712 68.9483 50.0309C70.9513 49.4222 105.761 43.6162 109.709 42.9373C115.227 41.9881 120.581 40.9629 126.145 40.142C129.149 39.6987 131.168 41.415 132.096 43.4924C132.566 44.545 133.328 49.9303 133.622 51.5034C134.646 56.9938 135.52 62.4242 136.45 67.9063C137.368 73.3184 138.339 78.7224 139.259 84.1824L142.062 100.606C142.286 103.348 140.551 105.749 138.367 106.438C137.186 106.811 100.042 113.145 97.6047 113.528L85.3889 115.622C81.4284 116.408 77.0509 117.513 75.1366 112.885C74.5596 111.49 65.5904 58.1012 65.1712 55.7809L65.1714 55.7811ZM64.5133 63.0833C64.8592 63.346 64.4868 62.848 64.6805 63.3425L65.7144 69.2469C65.9196 70.517 66.8299 74.6797 66.6865 75.6578C67.007 75.9128 66.6633 75.4338 66.8493 75.9194C67.1203 76.6272 69.2022 89.4456 69.2193 89.9728C69.406 90.0489 69.288 89.8735 69.3218 90.2269C69.3581 90.6092 69.3441 90.4348 69.2866 90.7653C69.8477 91.4028 72.66 110.957 73.4303 113.285C74.0276 115.09 75.4392 116.602 77.1063 117.415C77.2628 117.492 77.3499 117.519 77.5012 117.607C77.6698 117.704 77.5128 117.609 77.6934 117.729L77.8799 117.871L78.0258 117.814C80.6447 118.551 83.5313 117.725 86.5347 117.206C88.0988 116.936 94.1342 115.801 95.2285 115.771L97.3984 115.34L103.8 114.232C105.315 113.987 109.247 113.191 110.409 113.168L110.407 113.241C110.664 113.013 110.354 113.208 110.718 113.066L125.135 110.552C127.532 110.155 138.282 108.53 139.68 107.748C143.276 105.736 144.27 103.062 143.6 99.0693C143.383 97.7696 143.165 96.6012 142.959 95.3757C142.549 92.944 142.097 90.3349 141.679 87.9799C141.458 86.7364 140.425 81.2156 140.543 80.432C140.285 80.2297 140.476 80.7477 140.266 79.852C140.196 79.5574 140.18 79.2851 140.13 78.975L139.26 73.9162C139.044 72.5903 138.074 67.9476 138.236 66.9856C137.929 66.758 137.918 66.1598 137.796 65.4054L136.269 56.5221C136.096 55.4476 135.732 53.9348 135.699 52.8139C135.513 52.7417 135.628 52.9091 135.595 52.5619C135.559 52.1695 135.571 52.3616 135.633 52.0174C135.375 51.736 135.616 52.1008 135.465 51.7026C135.442 51.6429 135.383 51.4097 135.37 51.3451C135.013 49.6451 134.538 45.7826 134.171 44.3071C133.862 43.069 133.489 42.449 133.384 41.973C133.251 41.957 133.197 42.2078 133.319 41.7573L132.591 40.9712C130.665 38.4694 127.814 38.0493 124.722 38.575L92.8931 44.0511C85.8367 45.2679 78.8454 46.5566 71.808 47.6857C68.6039 48.2 65.62 48.7563 64.0263 52.3364C62.4472 55.8836 64.8545 60.8408 64.513 63.0831L64.5133 63.0833Z" fill="#77B838"/>
<path fill-rule="evenodd" clip-rule="evenodd" d="M109.831 47.9695C109.828 47.976 109.814 48.1234 109.816 48.1532L109.855 48.3955C109.86 48.4124 109.876 48.4511 109.883 48.4677L110.328 49.2954C110.216 49.9344 112.371 61.5871 112.687 63.1909C113.592 67.7936 114.277 72.3429 115.168 76.8997C115.628 79.2555 115.96 81.5118 116.42 83.8902L119.521 101.032C119.669 101.93 120.113 103.629 120.075 104.484L98.2781 100.011C97.4413 99.8448 95.9529 99.4604 95.1024 99.4647C95.5844 99.7054 97.5708 100.135 98.2641 100.309C99.3455 100.581 100.354 100.835 101.504 101.119L114.375 104.297C115.6 104.564 120.057 105.811 120.674 105.732C120.966 105.203 120.719 105.571 121.201 105.168L123.724 103.214C124.069 102.957 124.397 102.761 124.673 102.483L124.132 99.0805L119.478 73.6033C119.138 71.6464 115.016 49.7739 114.87 47.9931C114.048 47.9652 110.084 47.7227 109.83 47.9695H109.831Z" fill="#FDFDFB"/>
<path fill-rule="evenodd" clip-rule="evenodd" d="M64.5134 63.0833C64.8549 60.8408 62.4476 55.8837 64.0266 52.3366C65.6202 48.7563 68.6043 48.2002 71.8084 47.6859C78.8458 46.5567 85.8373 45.2679 92.8935 44.0512L124.722 38.5752C127.814 38.0493 130.666 38.4695 132.592 40.9713L133.319 41.7574C133.669 41.1073 133.368 41.0034 133.527 40.5886C133.563 40.4947 133.641 40.4055 133.698 40.3116L133.185 39.7616C133.14 39.7407 132.879 39.6867 132.783 39.6519L132.184 39.3951C131.117 39.1486 131.064 39.4249 131.468 38.4808C131.12 38.341 131.506 38.3533 130.867 38.3716L131.253 37.9461C131.341 37.6864 131.251 37.4492 131.128 37.3344C131.108 37.3151 131.07 37.2898 131.044 37.2694L131.237 37.0534C130.667 37.1182 130.305 37.0127 129.807 37.065C129.763 37.0696 129.726 37.0798 129.684 37.0857C129.645 37.091 129.607 37.1025 129.569 37.108L126.397 37.0824C126.788 37.1756 126.702 37.2695 126.602 37.5042C125.966 37.458 126.26 37.4377 125.734 37.2997C125.56 36.8536 125.498 37.449 125.749 37.0972C125.892 36.8978 125.795 37.068 125.805 37.0656C126.134 36.9897 125.865 37.0604 125.879 37.1064C124.585 37.0969 123.515 37.0414 122.193 37.1187L121.324 37.2622C120.728 37.3711 120.978 37.0534 120.324 37.1463C119.735 37.2298 120.995 36.9531 120.084 37.2241C119.61 37.3653 119.967 37.2874 119.867 37.2759C119.872 37.6751 119.926 38.0172 119.996 38.2984L120.077 38.6938C120.078 38.7086 120.042 39.1282 120.048 39.2394C120.01 39.2043 119.974 39.0877 119.956 39.1164C119.901 39.2021 119.853 38.627 119.392 38.6678C119.033 38.6996 119.004 39.0098 118.827 39.1196C118.802 39.1351 118.768 39.1595 118.739 39.1722C118.708 39.1861 118.67 39.2021 118.635 39.2124C118.589 39.2258 118.435 39.2449 118.381 39.2494C118.023 39.2792 118.165 39.2343 117.791 39.2309L115.909 39.3746C115.503 39.324 115.705 39.3138 115.207 39.3873C114.675 39.4662 113.647 39.2653 112.88 39.3575L111.648 39.5375C111.622 39.5404 111.579 39.5501 111.553 39.5506C111.358 39.5536 110.742 39.3631 109.682 39.3988C109.073 39.419 108.75 39.3487 108.415 39.5191C107.592 39.9376 107.17 40.2487 106.024 40.1187L105.938 41.4724C104.974 41.7009 104.908 41.5594 104.045 41.5755C103.022 41.5945 102.758 42.0549 102.024 42.1608C101.942 41.8719 102.038 42.1088 102.084 41.9349C102.149 41.6898 102.381 41.9835 102.108 41.7477C101.826 41.5036 101.934 41.7582 101.625 41.8322C101.438 41.8772 100.547 41.6758 99.6644 41.782L98.9682 41.7914C98.9253 41.7916 98.8121 41.8003 98.7698 41.7995C98.0918 41.789 98.6697 41.8005 98.338 41.7624C97.7342 41.6927 97.7669 41.8 97.2513 41.9186C97.2029 41.9299 97.1696 41.9347 97.119 41.9448C96.9118 41.9861 96.8697 41.9468 96.5306 42.0342L96.5094 41.8585C96.5094 41.8485 96.5083 41.7952 96.5086 41.7839C96.5285 41.173 96.6355 42.1335 96.5306 41.6253L95.0947 41.7914C94.8614 41.7847 95.0931 41.73 94.6896 41.7688L93.3012 42.0957C93.8155 42.0957 94.0264 42.1139 94.3371 42.4441C93.8732 42.7448 93.3522 42.9324 92.7716 42.5766C92.5589 43.2216 93.1024 43.3796 92.1326 43.4201C92.2697 43.6955 92.4519 43.3909 92.2547 43.7716C92.029 44.2073 91.3356 43.9117 90.4706 43.9079C89.2155 43.902 87.8082 44.1432 86.5936 43.9721L86.122 43.9105C85.3447 43.9315 85.1041 44.089 84.1297 44.0563L82.9992 44.3101C82.7917 44.8568 82.8704 44.2157 82.8476 44.2041L82.4103 44.1709C82.3896 44.1674 82.347 44.1556 82.3243 44.1496C81.6249 43.9626 81.3395 44.0114 80.5907 44.0343C80.4235 44.7066 80.7157 43.9589 80.654 44.5883C80.6519 44.609 80.6415 44.6513 80.638 44.6728L80.5711 44.9641C80.4434 45.7232 80.749 45.4774 80.1618 45.6963C79.9624 45.7708 79.8762 45.7618 79.6605 45.7939L76.8101 46.3635C76.8025 46.3621 76.604 46.2669 76.2914 46.2419C75.4345 46.1738 75.9367 46.4839 74.9216 46.4002L73.2987 46.349C73.2531 46.3568 73.2187 46.3692 73.1745 46.3775L72.9377 46.4279C71.8197 46.5961 69.3584 46.0953 68.0685 46.2627C67.9427 46.2792 67.8555 46.3324 67.8257 46.3501C67.8093 46.3597 67.7842 46.393 67.7683 46.404C67.7511 46.4158 67.7261 46.452 67.7079 46.4642C66.9953 46.9441 66.9307 46.6391 66.748 46.2994L66.7364 46.6857C66.826 46.6858 67.1188 46.676 67.1925 46.707C67.7812 46.9562 67.2666 46.5046 67.7112 47.0941L66.6877 47.0798L66.7226 48.6726C66.3354 48.6338 65.9942 48.5251 65.6513 48.6485C65.4973 49.1749 65.3535 49.5835 64.7646 49.5252C64.7354 49.5223 64.6796 49.5089 64.6401 49.492C64.6167 49.1647 64.9499 48.8712 65.0851 48.5406C64.115 48.7306 64.3984 50.0509 64.3262 50.7212L63.5385 51.0901C63.5194 51.0918 63.477 51.0889 63.4585 51.0883C63.0368 51.0792 63.564 50.9404 62.9764 50.9976C63.0743 51.7258 62.8917 51.3244 62.9222 52.0154C62.9269 52.1252 63.0244 52.6347 63.0244 52.6456C63.0287 53.4266 63.1455 53.003 62.6999 53.293C62.6779 53.2553 62.6569 53.1508 62.6513 53.172L62.5545 52.6881C62.4783 51.1932 62.8498 51.0593 62.4587 50.9139C62.3632 51.5541 62.0728 52.2875 62.0484 52.7498C61.9923 53.8226 62.3651 53.9346 62.001 54.914C62.0382 54.9685 62.3248 55.0111 62.5308 55.6001C62.0525 55.9686 61.9054 56.0551 61.987 56.777C62.087 57.661 61.9718 58.0337 62.0492 58.8176C62.0954 58.831 62.1761 58.8551 62.2009 58.8664C62.5183 59.0129 62.3827 58.9542 62.5067 59.0228C62.5469 58.8619 62.687 58.5086 62.7847 58.2878C63.0604 58.582 62.852 58.3033 63.0205 58.6617C63.5103 59.7022 63.2573 60.6318 63.2297 61.7091C63.5347 61.8792 63.9522 62.1489 64.2693 62.5967C64.4606 62.8668 64.1453 62.6672 64.5132 63.0839L64.5134 63.0833Z" fill="#FEFEFC"/>
<path fill-rule="evenodd" clip-rule="evenodd" d="M110.408 113.241C111.888 113.549 112.707 113.209 114.041 113.172C114.656 113.155 115.794 113.379 116.463 113.12L116.829 113.209C116.779 113.613 116.793 113.25 116.771 113.208C117.24 113.239 117.697 113.198 118.176 113.179C118.729 113.156 118.941 113.282 119.457 113.195C120.213 113.067 119.177 113.132 119.987 113.041C120.832 112.945 120.302 113.062 120.54 113.145C121.303 113.413 121.094 113.228 121.976 113.214C122.534 112.199 121.72 112.985 122.892 112.599C122.707 112.538 123.069 112.678 122.644 112.565L121.819 112.182C121.574 112.061 121.712 112.186 121.433 112.021C122.447 111.509 122.057 111.585 123.421 111.491C124.021 111.27 123.206 111.25 124.076 111.021C124.583 110.887 125.607 110.966 126.194 110.914L127.392 110.891C128.167 110.893 128.589 111.07 129.497 110.989C130.129 110.933 130.019 110.693 130.609 110.711C131.238 110.731 131.163 110.716 131.758 110.443C132.44 111.332 133.68 110.76 134.556 110.775C134.745 110.778 135.298 110.884 135.445 110.984C135.047 110.704 135.268 110.953 134.985 110.792C134.309 110.411 134.838 110.853 134.457 110.346L135.565 110.332C135.582 110.361 135.603 110.378 135.609 110.42C135.665 110.785 136.136 110.901 136.481 110.913C135.782 110.994 135.884 110.22 135.903 109.467C136.184 109.408 136.403 109.39 136.69 109.32C137.908 109.018 136.325 108.813 138.604 108.664L139.742 108.516C140.064 108.436 140.251 108.221 140.572 108.359C140.787 108.451 140.359 108.432 140.77 108.473C141.272 108.399 141.209 107.976 141.954 108.076C142.347 108.128 141.995 108.434 142.276 108.021L141.975 107.587C142.683 107.626 142.536 107.5 142.878 107.937L142.819 106.251L145.143 106.312C145.125 105.812 145.237 106.004 145.017 105.904C144.742 105.779 144.641 105.922 144.348 106.044C144.451 104.897 144.425 105.627 144.793 105.058L144.988 104.66C144.993 104.638 144.998 104.594 145.003 104.571L145.119 103.773C144.691 103.787 145.189 103.837 144.844 103.907L144.541 103.924C144.624 102.693 144.484 103.602 144.827 103.343C145.299 102.985 144.973 103.301 145.143 103.346L144.686 101.033C145.014 100.49 144.557 101.006 144.948 100.773C145.324 100.55 145.133 100.731 145.179 100.744C145.215 100.052 145.015 100.057 145.067 99.3101C145.088 99.0067 145.156 99.0153 145.103 98.6333C144.935 97.4177 145.244 96.9841 145.114 96.3516C145.01 95.8463 144.923 95.508 144.938 94.852L143.565 94.9428C143.566 93.4179 142.84 93.9149 142.952 92.6167C143.043 91.5629 142.872 90.1656 142.794 89.1071C142.76 88.6343 142.785 89.0252 143.022 87.8893C142.955 87.8866 142.702 87.8871 142.652 87.8745C142.335 87.7953 142.498 87.8424 142.312 87.7321C142.391 87.006 142.913 86.3026 142.877 85.2818C142.855 84.6755 142.712 82.6245 142.793 82.4669C142.561 82.6264 142.587 82.742 142.452 83.0829C142.436 83.1242 142.418 83.1785 142.405 83.213C142.392 83.2482 142.382 83.3046 142.36 83.3461L141.781 80.9911C141.251 81.2642 141.848 81.3681 141.754 81.9401C141.675 82.4214 141.529 82.212 141.49 82.2263C141.474 82.2325 141.43 82.2411 141.412 82.2451L141.254 82.2575C141.102 82.2638 141.182 82.2956 141.022 82.2383C140.982 81.6339 141.01 81.5228 141.155 81.0815C141.154 81.0812 140.883 80.8801 140.879 80.8766C140.862 80.8588 140.833 80.8251 140.815 80.8046C140.795 80.7824 140.769 80.7459 140.75 80.7223L140.543 80.4323C140.425 81.2159 141.458 86.7368 141.679 87.9802C142.097 90.3352 142.549 92.9443 142.959 95.376C143.165 96.6015 143.382 97.7699 143.6 99.0696C144.269 103.062 143.276 105.736 139.68 107.748C138.282 108.53 127.532 110.155 125.135 110.553L110.718 113.067C110.354 113.208 110.664 113.014 110.407 113.241L110.408 113.241Z" fill="#FEFEFC"/>
<path fill-rule="evenodd" clip-rule="evenodd" d="M77.88 117.871L77.6935 117.729C77.5129 117.609 77.6699 117.704 77.5012 117.607C77.3499 117.519 77.2629 117.492 77.1063 117.415C75.4392 116.602 74.0275 115.09 73.4304 113.285C72.66 110.957 69.8476 91.4029 69.2866 90.7654C69.0733 91.7693 69.4569 91.3285 69.0196 92.2117L69.0046 93.2205C69.1821 93.844 68.9901 93.3114 69.4824 93.7778C69.1825 93.9905 68.9466 93.9076 68.8844 93.9486L68.883 94.6717L69.4424 94.606C69.2611 95.1251 69.2366 95.6128 69.1672 96.0958C69.151 96.2092 69.0933 96.753 69.0765 96.8356C68.9568 97.4275 69.1613 96.8989 68.7731 97.5629C68.8004 97.5954 68.8615 97.579 68.8777 97.6351C69.1825 98.6847 68.4108 97.1114 69.0703 97.7824C69.341 98.0577 69.2211 97.5291 69.318 98.1411L69.1044 98.1725C68.9153 97.9051 69.1204 98.0628 69.1924 98.0102C69.1691 98.0588 69.14 98.0754 69.1318 98.1599C69.1031 98.4524 68.9034 99.287 68.9571 99.8576C69.0296 100.628 69.1903 100.749 69.1669 101.782C69.802 101.645 69.656 101.78 70.2837 101.625C70.5502 102.387 70.3554 102.382 71.2565 102.688C70.969 103.538 71.27 106.286 71.3113 107.233L71.3376 107.682C71.336 107.716 71.3293 107.755 71.3269 107.789L71.3807 111.185C71.3563 111.969 71.1479 111.126 71.3413 112.475C71.4113 112.964 71.3692 112.397 71.3677 112.807C71.3676 112.853 71.3357 113.072 71.3349 113.177L71.3591 113.12C71.9016 113.057 71.5675 113.973 71.7252 114.298C72.0547 114.978 72.7275 115.135 73.3988 115.135C73.6339 115.891 73.4441 115.623 74.1079 115.831L73.5426 116.015C73.5026 116.029 73.4469 116.049 73.3996 116.068C73.8292 116.764 73.6527 117.178 73.661 117.83C74.2822 117.999 74.2767 117.987 74.6453 117.842C74.6745 117.831 74.7312 117.782 74.7566 117.773C75.1623 117.632 75.13 117.824 75.3284 117.887C75.8561 118.052 77.3644 117.992 77.88 117.871V117.871Z" fill="#FEFEFC"/>
<path fill-rule="evenodd" clip-rule="evenodd" d="M78.0259 117.814C78.0259 118.903 77.9537 118.008 78.3929 118.381C78.3031 118.458 78.1723 119.653 78.5589 119.972C78.9271 120.276 79.6528 120.398 80.1882 120.303C81.0479 120.151 80.1104 120.263 80.8125 120.109C81.212 120.021 81.6542 120.111 82.0092 120.013C82.0212 120.01 83.5356 119.417 82.2709 118.553C84.2182 118.656 83.4807 118.433 84.3687 117.968C85.0085 117.633 84.9449 118.373 86.1051 118C87.0668 117.69 85.8018 117.53 87.037 117.727C87.6023 117.818 87.8811 118.019 89.1179 117.896C88.2299 117.641 88.6872 117.909 88.5005 117.527C88.6534 117.545 89.3006 117.561 89.3717 117.574C89.7806 117.646 89.6091 117.647 89.8801 117.961C90.0019 117.905 90.1349 117.806 90.177 117.78L90.4923 117.592C90.5192 117.576 90.5639 117.545 90.6031 117.528C91.3631 118.008 91.4044 117.987 92.088 117.974L91.3816 117.617C91.349 117.6 91.2967 117.582 91.2606 117.554C91.7457 117.557 92.4599 117.562 92.926 117.614C94.2705 117.763 94.2901 118.409 95.81 117.25C96.0963 117.032 95.762 117.245 96.1075 117.08C96.6382 116.826 96.3602 117.375 96.6425 116.791C96.6741 116.299 96.6014 116.672 94.7036 116.712C95.1353 116.435 94.1416 116.996 94.9756 116.599C95.0046 116.585 95.0491 116.566 95.0811 116.55L95.312 116.427C95.3434 116.41 95.3961 116.386 95.4328 116.358C95.3217 116.264 95.363 116.191 95.0131 116.122C94.4678 116.013 94.7913 116.14 94.7958 116.212C95.3388 116.015 95.0094 116.282 95.2288 115.771C94.1343 115.802 88.099 116.936 86.5349 117.207C83.5316 117.725 80.6449 118.552 78.0261 117.814L78.0259 117.814Z" fill="#FEFEFC"/>
<path fill-rule="evenodd" clip-rule="evenodd" d="M110.328 49.2955L109.883 48.4678C109.876 48.4512 109.86 48.4125 109.855 48.3956L109.816 48.1533C109.814 48.1234 109.828 47.976 109.831 47.9696C107.835 48.5528 106.022 49.2691 103.994 49.9423L86.8684 55.9033C88.0014 55.9205 108.83 49.297 110.328 49.2955Z" fill="#FAFEF6"/>
<path fill-rule="evenodd" clip-rule="evenodd" d="M97.3986 115.34C97.7315 115.746 97.2524 115.403 97.7388 115.584C98.15 115.736 97.4174 115.588 98.1167 115.653L100.229 115.482C100.408 115.463 103.422 115.812 103.148 115.316L102.796 114.96C103.685 115.008 103.457 114.897 103.615 115.298L104.614 115.069C104.83 115.741 104.545 115.344 104.916 115.593C105.377 115.387 105.888 115.389 106.313 115.454L107.082 115.572C107.707 115.599 109.297 115.612 109.88 115.539C109.863 115.541 108.973 115.457 108.543 115.477C108.878 115.017 108.925 115.019 109.266 114.924C109.259 114.925 109.075 115.415 109.083 114.735C109.102 113.096 109.321 115.649 110.305 113.389C110.32 113.353 110.387 113.21 110.409 113.168C109.247 113.191 105.315 113.986 103.8 114.232L97.3989 115.34L97.3986 115.34Z" fill="#FEFEFC"/>
<path fill-rule="evenodd" clip-rule="evenodd" d="M138.237 66.9857C138.349 66.5352 138.301 65.9586 138.284 65.6196L138.222 64.1663C138.206 64.1856 138.168 64.2119 138.161 64.2126L138.081 64.2097C138.065 64.2079 138.013 64.2078 137.974 64.1784C138.274 63.5723 138.215 63.2449 138.113 62.7207C138.14 62.2212 138.143 62.6422 138.168 62.5968C138.24 62.4651 138.159 63.0781 138.231 62.4658C138.336 61.5739 138.063 60.7685 138.036 59.9735C138.388 60.1949 137.857 60.0196 137.747 59.9735V59.3951C137.781 59.3811 137.843 59.3447 137.856 59.3809L138.277 59.3951C138.394 58.6305 138.371 58.8539 138.071 58.3169C137.799 57.8299 137.669 57.77 137.638 57.3711L138.229 57.2265C138.137 56.2334 138.136 57.7223 137.883 56.4021C137.742 55.6616 137.788 56.2588 138.156 55.6362C137.266 55.2217 138.515 55.7394 137.458 55.6236C137.451 55.0974 137.393 54.7644 137.342 54.2092C137.306 53.8211 137.318 53.3744 137.011 53.2744C136.847 53.7739 137.143 53.9996 136.891 54.7441C135.469 53.3587 136.722 53.8674 135.903 53.0011L135.699 52.8137C135.732 53.9346 136.097 55.4472 136.27 56.5218L137.797 65.4052C137.919 66.1596 137.929 66.7577 138.237 66.9854V66.9857Z" fill="#FDFDFB"/>
<path fill-rule="evenodd" clip-rule="evenodd" d="M69.2192 89.9728C69.2021 89.4458 67.1202 76.6272 66.8492 75.9194C66.6633 75.4338 67.007 75.9129 66.6864 75.6578C66.3312 77.2826 66.6217 79.1107 67.1092 79.9247C66.7883 79.9926 67.0013 79.8009 66.6815 80.0693C66.4879 83.4408 67.1363 81.0429 66.901 82.777C66.8701 83.0049 66.7537 82.8843 66.8411 83.355L66.9155 83.5511C67.3651 84.8064 67.022 84.9253 66.6161 85.2612L66.6852 84.068C66.5382 85.7146 67.033 85.772 67.2589 86.8142C67.3417 87.1965 67.3624 87.3585 67.3624 87.8283C67.7499 87.8213 67.668 87.6459 67.9087 87.6963L68.2196 88.0349C68.3299 88.3372 68.2567 88.2742 68.3074 88.554C68.4386 89.2824 68.3427 88.8621 68.6711 89.2293L69.2189 89.9725L69.2192 89.9728Z" fill="#FDFDFB"/>
<path fill-rule="evenodd" clip-rule="evenodd" d="M66.6867 75.6579C66.8301 74.6798 65.9198 70.5171 65.7145 69.247L64.6806 63.3426C64.4869 62.8481 64.8594 63.3461 64.5134 63.0834L64.2856 64.6118C64.2789 64.6609 64.2716 64.6963 64.2666 64.7455C64.2636 64.7747 64.2593 65.1619 64.2607 65.1784L64.4299 67.8355C64.4308 67.852 64.4362 67.896 64.4378 67.9125L64.4626 68.3038C64.3326 68.7204 64.207 69.7785 64.5172 70.0744L64.8321 70.2383C64.776 70.6765 64.8302 70.7181 64.7023 71.0628C64.6497 71.2049 64.6542 71.1977 64.5539 71.3147C64.196 71.7329 64.5995 71.3742 64.3744 71.3949C64.5187 72.1639 64.3672 70.9584 64.5888 71.8698C64.9587 73.3907 64.2787 71.7732 64.3876 73.2125L64.3981 73.9485C65.2917 73.6895 64.848 74.0502 64.9646 74.1416C64.8758 74.5999 64.886 74.411 64.8213 74.7855C64.7121 75.4192 64.6805 75.1718 64.8198 75.2024C65.0387 75.6944 65.0618 74.4469 65.0618 74.1416L65.7457 73.7867C65.77 73.7741 65.8409 73.7352 65.8806 73.7078C65.9613 74.3055 66.1674 75.3463 66.6862 75.6575L66.6867 75.6579Z" fill="#FDFDFB"/>
<path fill-rule="evenodd" clip-rule="evenodd" d="M140.544 80.4322C140.824 79.2455 140.329 77.8603 140.373 77.3804C140.506 75.9156 140.319 76.2954 140.515 75.2429C140.592 74.832 140.546 74.8003 140.525 74.3825C140.693 74.8497 140.409 75.1322 140.337 75.2419C140.176 75.0519 140.224 75.1429 140.093 74.767C139.837 74.0373 139.861 73.5702 139.856 72.8488L139.671 71.701C139.593 71.1798 139.564 70.8995 139.563 70.3296C140.264 70.424 140.015 70.6139 140.267 70.4849C140.202 70.1507 139.984 70.2473 139.802 69.8046C140.081 69.3606 139.839 69.4207 140.556 69.449C139.841 69.403 140.203 69.397 139.924 68.6694C139.567 69.5312 139.809 69.334 139.598 69.9231L139.469 70.1818C138.965 69.4386 139.373 68.6874 139.362 67.9254C139.357 67.5188 139.364 67.9552 139.053 67.6346C139.033 67.6137 139.001 67.5816 138.98 67.5593C138.39 66.9165 139.267 67.4157 138.237 66.9857C138.075 67.9478 139.044 72.5904 139.261 73.9163L140.131 78.9751C140.181 79.2852 140.197 79.5575 140.266 79.8521C140.477 80.7479 140.286 80.2298 140.544 80.4321V80.4322Z" fill="#FDFDFB"/>
<path fill-rule="evenodd" clip-rule="evenodd" d="M135.634 52.0174C135.739 51.5027 135.643 51.2784 135.703 50.89C135.827 50.0918 135.677 50.6338 135.944 50.7017C135.948 50.7027 135.973 50.7277 135.987 50.721C135.646 49.4174 136.176 47.9794 135.771 45.8057C135.641 45.4481 135.753 45.8159 135.527 45.5092C135.408 45.3475 135.428 45.5251 135.247 45.0306C135.237 45.0033 135.221 44.9612 135.214 44.9348C135.056 44.3285 135.642 44.5094 135.824 43.3621C135.855 43.166 135.866 42.6971 135.951 42.4318L135.589 43.9382C134.887 43.7181 135.538 43.304 134.711 42.4679C134.31 42.739 135.255 42.623 134.204 42.8903C133.979 42.5453 133.844 42.2193 133.385 41.9733C133.49 42.4494 133.863 43.0692 134.171 44.3074C134.539 45.7829 135.014 49.6454 135.371 51.3455C135.384 51.41 135.443 51.6433 135.466 51.7029C135.617 52.1011 135.376 51.7364 135.634 52.0178L135.634 52.0174Z" fill="#FDFDFB"/>
<path fill-rule="evenodd" clip-rule="evenodd" d="M110.437 78.3066C111.267 78.3948 111.721 78.7663 112.627 78.739L111.735 74.1754C111.161 74.5575 110.553 75.0453 109.951 75.4605L110.437 78.3066H110.437Z" fill="#FDFDFB"/>
<path fill-rule="evenodd" clip-rule="evenodd" d="M93.6482 95.9597C94.4351 95.919 94.3371 95.8226 94.1863 95.0077C94.0015 94.0083 93.5473 90.8867 93.2055 90.3492C92.4418 90.4938 92.6459 90.7349 92.783 91.4676L93.6482 95.9598V95.9597Z" fill="#FAFEF6"/>
<path fill-rule="evenodd" clip-rule="evenodd" d="M88.6647 64.52C88.555 63.9864 88.5054 63.5744 88.3983 63.0474C88.2615 62.3751 88.1156 60.8159 87.8553 60.2629C87.5207 60.1231 87.1763 60.3817 87.1675 60.3871C87.3808 60.8979 87.6028 62.6227 87.7081 63.2996C87.8913 64.476 87.9535 65.8569 88.5507 65.7329C89.0733 65.6245 88.7678 65.0223 88.6647 64.5201V64.52Z" fill="#FAFEF6"/>
<path fill-rule="evenodd" clip-rule="evenodd" d="M164.336 145.489C165.381 145.289 166.58 145.419 167.661 145.418C168.363 145.418 169.746 145.618 170.259 145.365C170.26 145.325 177.252 136.726 177.922 135.881L177.921 145.419C178.497 145.42 183.998 145.535 184 145.272L183.999 127.634L177.924 127.634C177.655 128.135 177.432 128.362 177.076 128.809C176.73 129.241 176.489 129.568 176.128 130.029C175.606 130.697 170.814 136.896 170.412 137.172L170.409 127.634L164.337 127.633L164.336 145.489L164.336 145.489Z" fill="#44231C"/>
<path fill-rule="evenodd" clip-rule="evenodd" d="M16.0011 145.37L16 145.49L22.2205 145.419C22.5477 145.28 22.5446 145.759 22.5119 143.972L22.5126 132.119L29.3011 132.111L29.3029 145.418L35.81 145.417L35.8104 145.272L35.8102 127.635L16.1475 127.634L16.0024 127.634L16.0013 145.37L16.0011 145.37Z" fill="#44231C"/>
<path fill-rule="evenodd" clip-rule="evenodd" d="M44.4892 135.147L44.4862 131.398C46.6638 131.381 49.0623 131.136 49.1246 133.275C49.1873 135.427 46.5839 135.166 44.4892 135.147V135.147ZM55.4591 133.538C55.6678 131.51 54.6088 129.458 52.7322 128.495C50.9395 127.575 48.4823 127.632 45.7853 127.633C43.1831 127.634 40.5807 127.632 37.9784 127.632L37.9773 145.416L44.4849 145.418L44.4859 138.914C45.4982 138.911 46.5093 138.912 47.5202 138.912C51.3516 138.912 54.999 138.011 55.4591 133.538V133.538Z" fill="#44231C"/>
<path fill-rule="evenodd" clip-rule="evenodd" d="M124.142 128.502L124.145 132.114L130.5 132.118L130.504 145.416L137.012 145.417L137.013 132.119L143.372 132.117L143.373 127.633L124.145 127.633L124.142 128.502Z" fill="#44231C"/>
<path fill-rule="evenodd" clip-rule="evenodd" d="M97.5344 132.976C97.6545 132.708 97.5869 132.843 97.6814 132.699L97.6864 145.417L103.036 145.417L103.038 127.633L94.6511 127.633C94.3335 128.145 93.3523 131.799 93.3193 132.114L91.9221 136.615C91.7332 137.209 91.7483 137.728 91.3287 138.038C91.2356 136.986 88.2066 127.923 88.2184 127.921C88.1255 127.557 87.8554 127.63 86.4105 127.633L79.9051 127.634L79.9042 145.416L85.2562 145.419C85.2558 144.073 85.006 133.488 85.3929 132.844C85.417 133.848 88.525 143.75 89.0144 145.416L93.7878 145.417C94.9779 142.935 96.5956 136.007 97.5346 132.976L97.5344 132.976Z" fill="#44231C"/>
<path fill-rule="evenodd" clip-rule="evenodd" d="M64.313 145.539L67.9082 145.718C69.6602 145.629 69.4074 145.827 71.4904 145.243C78.7958 143.195 78.7906 135.036 76.5532 131.563C74.9008 128.999 72.7851 128.133 69.7887 127.562C68.433 127.129 64.9874 127.375 63.4177 127.772C58.2016 129.093 55.9877 133.051 56.6627 138.297C57.2249 142.666 60.3512 144.97 64.3132 145.539L64.313 145.539ZM66.215 141.511L65.4282 141.239C63.2224 140.504 62.7764 137.83 63.0086 135.604C63.3766 132.074 65.3407 131.67 68.121 131.686C71.4699 132.439 72.0341 136.509 70.8856 139.433C70.0792 141.485 68.2117 141.513 66.2148 141.511H66.215Z" fill="#44231C"/>
<path fill-rule="evenodd" clip-rule="evenodd" d="M161.588 145.417L162.458 145.418L162.459 141.368L151.617 141.367L151.618 138.037L161.444 138.046L161.444 134.572C161.335 134.312 161.552 134.256 160.438 134.27C160.001 134.275 159.569 134.283 159.131 134.283L151.617 134.279L151.615 131.54L162.167 131.61L162.168 127.635L162.022 127.633L145.107 127.633L145.106 127.779V145.418L161.588 145.417L161.588 145.417Z" fill="#44231C"/>
<path fill-rule="evenodd" clip-rule="evenodd" d="M178.937 123.732L172.432 123.729L172.431 131.824C172.627 131.698 178.566 124.443 178.937 123.732H178.937Z" fill="#44231C"/>
<path fill-rule="evenodd" clip-rule="evenodd" d="M121.847 145.417L122.717 145.418L122.718 141.367L111.876 141.366L111.877 138.036L121.703 138.045L121.703 134.572C121.595 134.312 121.811 134.256 120.697 134.27C120.26 134.275 119.828 134.282 119.39 134.282L111.876 134.278L111.875 131.54L122.427 131.61L122.428 127.634L122.281 127.633L105.367 127.633L105.365 127.779V145.418L121.847 145.417L121.847 145.417Z" fill="#44231C"/>
<path d="M59.1017 153.796L58.3622 154.363C57.9542 153.832 57.4633 153.43 56.8895 153.158C56.3199 152.882 55.693 152.744 55.0087 152.744C54.2607 152.744 53.5679 152.925 52.9304 153.286C52.2928 153.643 51.7977 154.125 51.4449 154.733C51.0964 155.337 50.9221 156.017 50.9221 156.773C50.9221 157.916 51.3132 158.871 52.0952 159.636C52.8815 160.401 53.8718 160.783 55.0661 160.783C56.3794 160.783 57.4781 160.269 58.3622 159.24L59.1017 159.801C58.6342 160.396 58.0498 160.858 57.3485 161.185C56.6515 161.508 55.8715 161.669 55.0087 161.669C53.3682 161.669 52.074 161.123 51.1262 160.031C50.3314 159.109 49.934 157.995 49.934 156.69C49.934 155.317 50.4142 154.163 51.3748 153.228C52.3396 152.289 53.5467 151.819 54.996 151.819C55.8715 151.819 56.6621 151.994 57.3676 152.342C58.0732 152.687 58.6512 153.171 59.1017 153.796Z" fill="#44231C"/>
<path d="M64.8204 152.055L69.1939 161.433H68.1866L66.7139 158.348H62.6719L61.2056 161.433H60.16L64.5909 152.055H64.8204ZM64.7057 154.044L63.0927 157.443H66.2995L64.7057 154.044Z" fill="#44231C"/>
<path d="M78.2469 161.433H77.2269L74.1221 154.185L70.9599 161.433H69.9398L74.0201 152.055H74.2241L78.2469 161.433Z" fill="#44231C"/>
<path d="M84.2908 151.819C85.7103 151.819 86.8983 152.293 87.8546 153.241C88.8109 154.189 89.289 155.356 89.289 156.741C89.289 158.114 88.8109 159.279 87.8546 160.235C86.9025 161.191 85.7401 161.669 84.3673 161.669C82.9774 161.669 81.8044 161.193 80.8481 160.241C79.8918 159.289 79.4136 158.137 79.4136 156.786C79.4136 155.885 79.6304 155.05 80.0639 154.28C80.5017 153.511 81.0967 152.91 81.849 152.476C82.6013 152.038 83.4152 151.819 84.2908 151.819ZM84.3354 152.738C83.6426 152.738 82.9859 152.918 82.3654 153.279C81.7449 153.641 81.2603 154.127 80.9118 154.739C80.5633 155.351 80.389 156.034 80.389 156.786C80.389 157.899 80.7737 158.841 81.543 159.61C82.3165 160.375 83.2473 160.758 84.3354 160.758C85.0622 160.758 85.7337 160.581 86.35 160.229C86.9705 159.876 87.4529 159.393 87.7972 158.781C88.1457 158.169 88.32 157.489 88.32 156.741C88.32 155.997 88.1457 155.326 87.7972 154.727C87.4529 154.123 86.9663 153.641 86.3373 153.279C85.7082 152.918 85.0409 152.738 84.3354 152.738Z" fill="#44231C"/>
<path d="M91.157 152.055H92.1006V155.989H96.8693V152.055H97.8129V161.433H96.8693V156.907H92.1006V161.433H91.157V152.055Z" fill="#44231C"/>
<path d="M103.691 162.836H102.767V160.56H103.532L107.21 152.055H107.535L111.418 160.56H112.151V162.836H111.227V161.433H103.691V162.836ZM104.59 160.56H110.309L107.376 153.993L104.59 160.56Z" fill="#44231C"/>
<path d="M113.509 152.055H115.358C116.102 152.055 116.673 152.145 117.073 152.323C117.472 152.497 117.787 152.767 118.016 153.133C118.25 153.498 118.367 153.904 118.367 154.35C118.367 154.767 118.265 155.147 118.061 155.492C117.857 155.832 117.557 156.108 117.162 156.32C117.651 156.486 118.027 156.682 118.291 156.907C118.554 157.128 118.758 157.398 118.903 157.717C119.051 158.031 119.126 158.373 119.126 158.743C119.126 159.495 118.849 160.133 118.297 160.656C117.749 161.174 117.011 161.433 116.085 161.433H113.509V152.055ZM114.427 152.973V155.976H114.963C115.613 155.976 116.091 155.917 116.397 155.798C116.703 155.674 116.945 155.483 117.124 155.224C117.302 154.96 117.392 154.669 117.392 154.35C117.392 153.921 117.241 153.585 116.939 153.343C116.641 153.097 116.165 152.973 115.511 152.973H114.427ZM114.427 156.92V160.515H115.587C116.272 160.515 116.773 160.45 117.092 160.318C117.411 160.182 117.666 159.971 117.857 159.687C118.053 159.402 118.15 159.094 118.15 158.762C118.15 158.346 118.014 157.982 117.742 157.672C117.47 157.362 117.096 157.149 116.62 157.034C116.301 156.958 115.747 156.92 114.956 156.92H114.427Z" fill="#44231C"/>
<path d="M120.987 152.055H126.362V152.98H121.925V155.912H126.324V156.83H121.925V160.509H126.324V161.433H120.987V152.055Z" fill="#44231C"/>
<path d="M127.975 152.055H129.843C130.914 152.055 131.636 152.102 132.01 152.196C132.546 152.327 132.984 152.599 133.324 153.012C133.664 153.42 133.834 153.934 133.834 154.554C133.834 155.179 133.668 155.696 133.336 156.104C133.005 156.507 132.548 156.779 131.966 156.92C131.541 157.022 130.746 157.073 129.581 157.073H128.912V161.433H127.975V152.055ZM128.912 152.967V156.155L130.499 156.174C131.141 156.174 131.611 156.116 131.908 156.002C132.206 155.883 132.44 155.694 132.61 155.434C132.78 155.171 132.865 154.878 132.865 154.554C132.865 154.24 132.78 153.953 132.61 153.694C132.44 153.43 132.214 153.243 131.934 153.133C131.658 153.022 131.203 152.967 130.569 152.967H128.912Z" fill="#44231C"/>
<path d="M135.714 152.055H141.089V152.98H136.652V155.912H141.051V156.83H136.652V160.509H141.051V161.433H135.714V152.055Z" fill="#44231C"/>
<path d="M150.078 161.433H149.103V154.248L142.925 161.433H142.715V152.055H143.652V159.368L149.868 152.055H150.078V161.433ZM144.136 149.811H144.978C145.122 150.032 145.316 150.198 145.558 150.308C145.8 150.419 146.089 150.474 146.425 150.474C146.765 150.474 147.039 150.425 147.247 150.328C147.456 150.23 147.653 150.058 147.84 149.811H148.656C148.563 150.194 148.323 150.515 147.936 150.774C147.553 151.029 147.048 151.156 146.419 151.156C145.794 151.156 145.284 151.031 144.889 150.78C144.493 150.525 144.243 150.202 144.136 149.811Z" fill="#44231C"/>
</svg>
